<?xml version="1.0" encoding="UTF-8" standalone="no"?>
<!DOCTYPE svg PUBLIC "-//W3C//DTD SVG 1.1//EN"
 "http://www.w3.org/Graphics/SVG/1.1/DTD/svg11.dtd">
<!-- Generated by graphviz version 2.40.1 (20161225.0304)
 -->
<!-- Title: controllers_diagram Pages: 1 -->
<svg width="765pt" height="881pt"
 viewBox="0.00 0.00 764.98 881.00" xmlns="http://www.w3.org/2000/svg" xmlns:xlink="http://www.w3.org/1999/xlink">
<g id="graph0" class="graph" transform="scale(1 1) rotate(0) translate(4 877)">
<title>controllers_diagram</title>
<polygon fill="transparent" stroke="transparent" points="-4,4 -4,-877 760.9795,-877 760.9795,4 -4,4"/>
<!-- _diagram_info -->
<g id="node1" class="node">
<title>_diagram_info</title>
<text text-anchor="start" x="331" y="-194.6" font-family="Times,serif" font-size="13.00" fill="#000000">Controllers diagram</text>
<text text-anchor="start" x="331" y="-181.6" font-family="Times,serif" font-size="13.00" fill="#000000">Date: May 21 2018 &#45; 16:21</text>
<text text-anchor="start" x="331" y="-168.6" font-family="Times,serif" font-size="13.00" fill="#000000">Migration version: 1</text>
<text text-anchor="start" x="331" y="-155.6" font-family="Times,serif" font-size="13.00" fill="#000000">Generated by RailRoady 1.5.3</text>
<text text-anchor="start" x="331" y="-142.6" font-family="Times,serif" font-size="13.00" fill="#000000">http://railroady.prestonlee.com</text>
</g>
<!-- ApplicationController -->
<g id="node2" class="node">
<title>ApplicationController</title>
<path fill="none" stroke="#000000" d="M233,-238.5C233,-238.5 410.0352,-238.5 410.0352,-238.5 416.0352,-238.5 422.0352,-244.5 422.0352,-250.5 422.0352,-250.5 422.0352,-498.5 422.0352,-498.5 422.0352,-504.5 416.0352,-510.5 410.0352,-510.5 410.0352,-510.5 233,-510.5 233,-510.5 227,-510.5 221,-504.5 221,-498.5 221,-498.5 221,-250.5 221,-250.5 221,-244.5 227,-238.5 233,-238.5"/>
<text text-anchor="middle" x="321.5176" y="-495.3" font-family="Times,serif" font-size="14.00" fill="#000000">ApplicationController</text>
<polyline fill="none" stroke="#000000" points="221,-488.5 422.0352,-488.5 "/>
<text text-anchor="start" x="229" y="-473.3" font-family="Times,serif" font-size="14.00" fill="#000000">unauthenticate!</text>
<text text-anchor="start" x="229" y="-459.3" font-family="Times,serif" font-size="14.00" fill="#000000">_cancan_skipper=</text>
<text text-anchor="start" x="229" y="-445.3" font-family="Times,serif" font-size="14.00" fill="#000000">_cancan_skipper?</text>
<text text-anchor="start" x="229" y="-431.3" font-family="Times,serif" font-size="14.00" fill="#000000">authenticate_identity!</text>
<text text-anchor="start" x="229" y="-417.3" font-family="Times,serif" font-size="14.00" fill="#000000">build_oauth_request</text>
<text text-anchor="start" x="229" y="-403.3" font-family="Times,serif" font-size="14.00" fill="#000000">cors_preflight_check</text>
<text text-anchor="start" x="229" y="-389.3" font-family="Times,serif" font-size="14.00" fill="#000000">cors_set_access_control_headers</text>
<text text-anchor="start" x="229" y="-375.3" font-family="Times,serif" font-size="14.00" fill="#000000">current_identity</text>
<text text-anchor="start" x="229" y="-361.3" font-family="Times,serif" font-size="14.00" fill="#000000">current_person</text>
<text text-anchor="start" x="229" y="-347.3" font-family="Times,serif" font-size="14.00" fill="#000000">current_user</text>
<text text-anchor="start" x="229" y="-333.3" font-family="Times,serif" font-size="14.00" fill="#000000">new_nonce</text>
<text text-anchor="start" x="229" y="-319.3" font-family="Times,serif" font-size="14.00" fill="#000000">set_options_from</text>
<text text-anchor="start" x="229" y="-305.3" font-family="Times,serif" font-size="14.00" fill="#000000">stored_nonce</text>
<text text-anchor="start" x="229" y="-291.3" font-family="Times,serif" font-size="14.00" fill="#000000">_cancan_skipper</text>
<polyline fill="none" stroke="#000000" points="221,-284.5 422.0352,-284.5 "/>
<polyline fill="none" stroke="#000000" points="221,-260.5 422.0352,-260.5 "/>
<text text-anchor="start" x="229" y="-245.3" font-family="Times,serif" font-size="14.00" fill="#000000">_layout</text>
</g>
<!-- PeopleController -->
<g id="node3" class="node">
<title>PeopleController</title>
<path fill="none" stroke="#000000" d="M318,-782.5C318,-782.5 405.6484,-782.5 405.6484,-782.5 411.6484,-782.5 417.6484,-788.5 417.6484,-794.5 417.6484,-794.5 417.6484,-860.5 417.6484,-860.5 417.6484,-866.5 411.6484,-872.5 405.6484,-872.5 405.6484,-872.5 318,-872.5 318,-872.5 312,-872.5 306,-866.5 306,-860.5 306,-860.5 306,-794.5 306,-794.5 306,-788.5 312,-782.5 318,-782.5"/>
<text text-anchor="middle" x="361.8242" y="-857.3" font-family="Times,serif" font-size="14.00" fill="#000000">PeopleController</text>
<polyline fill="none" stroke="#000000" points="306,-850.5 417.6484,-850.5 "/>
<text text-anchor="start" x="314" y="-835.3" font-family="Times,serif" font-size="14.00" fill="#000000">index</text>
<polyline fill="none" stroke="#000000" points="306,-828.5 417.6484,-828.5 "/>
<polyline fill="none" stroke="#000000" points="306,-804.5 417.6484,-804.5 "/>
<text text-anchor="start" x="314" y="-789.3" font-family="Times,serif" font-size="14.00" fill="#000000">_layout</text>
</g>
<!-- Smart::LaunchController -->
<g id="node4" class="node">
<title>Smart::LaunchController</title>
<path fill="none" stroke="#000000" d="M12,-51.5C12,-51.5 144.7451,-51.5 144.7451,-51.5 150.7451,-51.5 156.7451,-57.5 156.7451,-63.5 156.7451,-63.5 156.7451,-129.5 156.7451,-129.5 156.7451,-135.5 150.7451,-141.5 144.7451,-141.5 144.7451,-141.5 12,-141.5 12,-141.5 6,-141.5 0,-135.5 0,-129.5 0,-129.5 0,-63.5 0,-63.5 0,-57.5 6,-51.5 12,-51.5"/>
<text text-anchor="middle" x="78.3726" y="-126.3" font-family="Times,serif" font-size="14.00" fill="#000000">Smart::LaunchController</text>
<polyline fill="none" stroke="#000000" points="0,-119.5 156.7451,-119.5 "/>
<text text-anchor="start" x="8" y="-104.3" font-family="Times,serif" font-size="14.00" fill="#000000">launch</text>
<polyline fill="none" stroke="#000000" points="0,-97.5 156.7451,-97.5 "/>
<polyline fill="none" stroke="#000000" points="0,-73.5 156.7451,-73.5 "/>
<text text-anchor="start" x="8" y="-58.3" font-family="Times,serif" font-size="14.00" fill="#000000">_layout</text>
</g>
<!-- ActorRolesController -->
<g id="node5" class="node">
<title>ActorRolesController</title>
<path fill="none" stroke="#000000" d="M624,-663.5C624,-663.5 737.3105,-663.5 737.3105,-663.5 743.3105,-663.5 749.3105,-669.5 749.3105,-675.5 749.3105,-675.5 749.3105,-797.5 749.3105,-797.5 749.3105,-803.5 743.3105,-809.5 737.3105,-809.5 737.3105,-809.5 624,-809.5 624,-809.5 618,-809.5 612,-803.5 612,-797.5 612,-797.5 612,-675.5 612,-675.5 612,-669.5 618,-663.5 624,-663.5"/>
<text text-anchor="middle" x="680.6553" y="-794.3" font-family="Times,serif" font-size="14.00" fill="#000000">ActorRolesController</text>
<polyline fill="none" stroke="#000000" points="612,-787.5 749.3105,-787.5 "/>
<text text-anchor="start" x="620" y="-772.3" font-family="Times,serif" font-size="14.00" fill="#000000">create</text>
<text text-anchor="start" x="620" y="-758.3" font-family="Times,serif" font-size="14.00" fill="#000000">destroy</text>
<text text-anchor="start" x="620" y="-744.3" font-family="Times,serif" font-size="14.00" fill="#000000">index</text>
<text text-anchor="start" x="620" y="-730.3" font-family="Times,serif" font-size="14.00" fill="#000000">update</text>
<polyline fill="none" stroke="#000000" points="612,-723.5 749.3105,-723.5 "/>
<polyline fill="none" stroke="#000000" points="612,-699.5 749.3105,-699.5 "/>
<text text-anchor="start" x="620" y="-684.3" font-family="Times,serif" font-size="14.00" fill="#000000">_layout</text>
<text text-anchor="start" x="620" y="-670.3" font-family="Times,serif" font-size="14.00" fill="#000000">actor_role_params</text>
</g>
<!-- ClientsController -->
<g id="node6" class="node">
<title>ClientsController</title>
<path fill="none" stroke="#000000" d="M335,-.5C335,-.5 424.2139,-.5 424.2139,-.5 430.2139,-.5 436.2139,-6.5 436.2139,-12.5 436.2139,-12.5 436.2139,-92.5 436.2139,-92.5 436.2139,-98.5 430.2139,-104.5 424.2139,-104.5 424.2139,-104.5 335,-104.5 335,-104.5 329,-104.5 323,-98.5 323,-92.5 323,-92.5 323,-12.5 323,-12.5 323,-6.5 329,-.5 335,-.5"/>
<text text-anchor="middle" x="379.6069" y="-89.3" font-family="Times,serif" font-size="14.00" fill="#000000">ClientsController</text>
<polyline fill="none" stroke="#000000" points="323,-82.5 436.2139,-82.5 "/>
<text text-anchor="start" x="331" y="-67.3" font-family="Times,serif" font-size="14.00" fill="#000000">index</text>
<text text-anchor="start" x="331" y="-53.3" font-family="Times,serif" font-size="14.00" fill="#000000">launch</text>
<polyline fill="none" stroke="#000000" points="323,-46.5 436.2139,-46.5 "/>
<polyline fill="none" stroke="#000000" points="323,-22.5 436.2139,-22.5 "/>
<text text-anchor="start" x="331" y="-7.3" font-family="Times,serif" font-size="14.00" fill="#000000">_layout</text>
</g>
<!-- ContextsController -->
<g id="node7" class="node">
<title>ContextsController</title>
<path fill="none" stroke="#000000" d="M488,-17.5C488,-17.5 587.3242,-17.5 587.3242,-17.5 593.3242,-17.5 599.3242,-23.5 599.3242,-29.5 599.3242,-29.5 599.3242,-97.5 599.3242,-97.5 599.3242,-103.5 593.3242,-109.5 587.3242,-109.5 587.3242,-109.5 488,-109.5 488,-109.5 482,-109.5 476,-103.5 476,-97.5 476,-97.5 476,-29.5 476,-29.5 476,-23.5 482,-17.5 488,-17.5"/>
<text text-anchor="middle" x="537.6621" y="-94.3" font-family="Times,serif" font-size="14.00" fill="#000000">ContextsController</text>
<polyline fill="none" stroke="#000000" points="476,-87.5 599.3242,-87.5 "/>
<polyline fill="none" stroke="#000000" points="476,-63.5 599.3242,-63.5 "/>
<polyline fill="none" stroke="#000000" points="476,-39.5 599.3242,-39.5 "/>
<text text-anchor="start" x="484" y="-24.3" font-family="Times,serif" font-size="14.00" fill="#000000">_layout</text>
</g>
<!-- ObjectivesController -->
<g id="node8" class="node">
<title>ObjectivesController</title>
<path fill="none" stroke="#000000" d="M63,-170.5C63,-170.5 172.4141,-170.5 172.4141,-170.5 178.4141,-170.5 184.4141,-176.5 184.4141,-182.5 184.4141,-182.5 184.4141,-318.5 184.4141,-318.5 184.4141,-324.5 178.4141,-330.5 172.4141,-330.5 172.4141,-330.5 63,-330.5 63,-330.5 57,-330.5 51,-324.5 51,-318.5 51,-318.5 51,-182.5 51,-182.5 51,-176.5 57,-170.5 63,-170.5"/>
<text text-anchor="middle" x="117.707" y="-315.3" font-family="Times,serif" font-size="14.00" fill="#000000">ObjectivesController</text>
<polyline fill="none" stroke="#000000" points="51,-308.5 184.4141,-308.5 "/>
<text text-anchor="start" x="59" y="-293.3" font-family="Times,serif" font-size="14.00" fill="#000000">create</text>
<text text-anchor="start" x="59" y="-279.3" font-family="Times,serif" font-size="14.00" fill="#000000">destroy</text>
<text text-anchor="start" x="59" y="-265.3" font-family="Times,serif" font-size="14.00" fill="#000000">index</text>
<text text-anchor="start" x="59" y="-251.3" font-family="Times,serif" font-size="14.00" fill="#000000">show</text>
<text text-anchor="start" x="59" y="-237.3" font-family="Times,serif" font-size="14.00" fill="#000000">update</text>
<polyline fill="none" stroke="#000000" points="51,-230.5 184.4141,-230.5 "/>
<polyline fill="none" stroke="#000000" points="51,-206.5 184.4141,-206.5 "/>
<text text-anchor="start" x="59" y="-191.3" font-family="Times,serif" font-size="14.00" fill="#000000">_layout</text>
<text text-anchor="start" x="59" y="-177.3" font-family="Times,serif" font-size="14.00" fill="#000000">objective_params</text>
</g>
<!-- PlacesController -->
<g id="node9" class="node">
<title>PlacesController</title>
<path fill="none" stroke="#000000" d="M641,-255.5C641,-255.5 726.3105,-255.5 726.3105,-255.5 732.3105,-255.5 738.3105,-261.5 738.3105,-267.5 738.3105,-267.5 738.3105,-389.5 738.3105,-389.5 738.3105,-395.5 732.3105,-401.5 726.3105,-401.5 726.3105,-401.5 641,-401.5 641,-401.5 635,-401.5 629,-395.5 629,-389.5 629,-389.5 629,-267.5 629,-267.5 629,-261.5 635,-255.5 641,-255.5"/>
<text text-anchor="middle" x="683.6553" y="-386.3" font-family="Times,serif" font-size="14.00" fill="#000000">PlacesController</text>
<polyline fill="none" stroke="#000000" points="629,-379.5 738.3105,-379.5 "/>
<text text-anchor="start" x="637" y="-364.3" font-family="Times,serif" font-size="14.00" fill="#000000">create</text>
<text text-anchor="start" x="637" y="-350.3" font-family="Times,serif" font-size="14.00" fill="#000000">destroy</text>
<text text-anchor="start" x="637" y="-336.3" font-family="Times,serif" font-size="14.00" fill="#000000">index</text>
<text text-anchor="start" x="637" y="-322.3" font-family="Times,serif" font-size="14.00" fill="#000000">update</text>
<polyline fill="none" stroke="#000000" points="629,-315.5 738.3105,-315.5 "/>
<polyline fill="none" stroke="#000000" points="629,-291.5 738.3105,-291.5 "/>
<text text-anchor="start" x="637" y="-276.3" font-family="Times,serif" font-size="14.00" fill="#000000">_layout</text>
<text text-anchor="start" x="637" y="-262.3" font-family="Times,serif" font-size="14.00" fill="#000000">place_params</text>
</g>
<!-- GroupsController -->
<g id="node10" class="node">
<title>GroupsController</title>
<path fill="none" stroke="#000000" d="M182,-544.5C182,-544.5 272.7656,-544.5 272.7656,-544.5 278.7656,-544.5 284.7656,-550.5 284.7656,-556.5 284.7656,-556.5 284.7656,-734.5 284.7656,-734.5 284.7656,-740.5 278.7656,-746.5 272.7656,-746.5 272.7656,-746.5 182,-746.5 182,-746.5 176,-746.5 170,-740.5 170,-734.5 170,-734.5 170,-556.5 170,-556.5 170,-550.5 176,-544.5 182,-544.5"/>
<text text-anchor="middle" x="227.3828" y="-731.3" font-family="Times,serif" font-size="14.00" fill="#000000">GroupsController</text>
<polyline fill="none" stroke="#000000" points="170,-724.5 284.7656,-724.5 "/>
<text text-anchor="start" x="178" y="-709.3" font-family="Times,serif" font-size="14.00" fill="#000000">create</text>
<text text-anchor="start" x="178" y="-695.3" font-family="Times,serif" font-size="14.00" fill="#000000">destroy</text>
<text text-anchor="start" x="178" y="-681.3" font-family="Times,serif" font-size="14.00" fill="#000000">edit</text>
<text text-anchor="start" x="178" y="-667.3" font-family="Times,serif" font-size="14.00" fill="#000000">index</text>
<text text-anchor="start" x="178" y="-653.3" font-family="Times,serif" font-size="14.00" fill="#000000">new</text>
<text text-anchor="start" x="178" y="-639.3" font-family="Times,serif" font-size="14.00" fill="#000000">show</text>
<text text-anchor="start" x="178" y="-625.3" font-family="Times,serif" font-size="14.00" fill="#000000">update</text>
<polyline fill="none" stroke="#000000" points="170,-618.5 284.7656,-618.5 "/>
<polyline fill="none" stroke="#000000" points="170,-594.5 284.7656,-594.5 "/>
<text text-anchor="start" x="178" y="-579.3" font-family="Times,serif" font-size="14.00" fill="#000000">_layout</text>
<text text-anchor="start" x="178" y="-565.3" font-family="Times,serif" font-size="14.00" fill="#000000">group_params</text>
<text text-anchor="start" x="178" y="-551.3" font-family="Times,serif" font-size="14.00" fill="#000000">set_group</text>
</g>
<!-- SessionsController -->
<g id="node11" class="node">
<title>SessionsController</title>
<path fill="none" stroke="#000000" d="M63,-357.5C63,-357.5 179.4141,-357.5 179.4141,-357.5 185.4141,-357.5 191.4141,-363.5 191.4141,-369.5 191.4141,-369.5 191.4141,-505.5 191.4141,-505.5 191.4141,-511.5 185.4141,-517.5 179.4141,-517.5 179.4141,-517.5 63,-517.5 63,-517.5 57,-517.5 51,-511.5 51,-505.5 51,-505.5 51,-369.5 51,-369.5 51,-363.5 57,-357.5 63,-357.5"/>
<text text-anchor="middle" x="121.207" y="-502.3" font-family="Times,serif" font-size="14.00" fill="#000000">SessionsController</text>
<polyline fill="none" stroke="#000000" points="51,-495.5 191.4141,-495.5 "/>
<text text-anchor="start" x="59" y="-480.3" font-family="Times,serif" font-size="14.00" fill="#000000">authenticate</text>
<text text-anchor="start" x="59" y="-466.3" font-family="Times,serif" font-size="14.00" fill="#000000">callback</text>
<text text-anchor="start" x="59" y="-452.3" font-family="Times,serif" font-size="14.00" fill="#000000">cleanse_session</text>
<text text-anchor="start" x="59" y="-438.3" font-family="Times,serif" font-size="14.00" fill="#000000">destroy</text>
<text text-anchor="start" x="59" y="-424.3" font-family="Times,serif" font-size="14.00" fill="#000000">openid_connect_login</text>
<text text-anchor="start" x="59" y="-410.3" font-family="Times,serif" font-size="14.00" fill="#000000">public_keys_for</text>
<polyline fill="none" stroke="#000000" points="51,-403.5 191.4141,-403.5 "/>
<polyline fill="none" stroke="#000000" points="51,-379.5 191.4141,-379.5 "/>
<text text-anchor="start" x="59" y="-364.3" font-family="Times,serif" font-size="14.00" fill="#000000">_layout</text>
</g>
<!-- WelcomeController -->
<g id="node12" class="node">
<title>WelcomeController</title>
<path fill="none" stroke="#000000" d="M471,-714.5C471,-714.5 573.0654,-714.5 573.0654,-714.5 579.0654,-714.5 585.0654,-720.5 585.0654,-726.5 585.0654,-726.5 585.0654,-820.5 585.0654,-820.5 585.0654,-826.5 579.0654,-832.5 573.0654,-832.5 573.0654,-832.5 471,-832.5 471,-832.5 465,-832.5 459,-826.5 459,-820.5 459,-820.5 459,-726.5 459,-726.5 459,-720.5 465,-714.5 471,-714.5"/>
<text text-anchor="middle" x="522.0327" y="-817.3" font-family="Times,serif" font-size="14.00" fill="#000000">WelcomeController</text>
<polyline fill="none" stroke="#000000" points="459,-810.5 585.0654,-810.5 "/>
<text text-anchor="start" x="467" y="-795.3" font-family="Times,serif" font-size="14.00" fill="#000000">dashboard</text>
<text text-anchor="start" x="467" y="-781.3" font-family="Times,serif" font-size="14.00" fill="#000000">landing</text>
<text text-anchor="start" x="467" y="-767.3" font-family="Times,serif" font-size="14.00" fill="#000000">status</text>
<polyline fill="none" stroke="#000000" points="459,-760.5 585.0654,-760.5 "/>
<polyline fill="none" stroke="#000000" points="459,-736.5 585.0654,-736.5 "/>
<text text-anchor="start" x="467" y="-721.3" font-family="Times,serif" font-size="14.00" fill="#000000">_layout</text>
</g>
<!-- UsageRolesController -->
<g id="node13" class="node">
<title>UsageRolesController</title>
<path fill="none" stroke="#000000" d="M624,-476.5C624,-476.5 740.4209,-476.5 740.4209,-476.5 746.4209,-476.5 752.4209,-482.5 752.4209,-488.5 752.4209,-488.5 752.4209,-610.5 752.4209,-610.5 752.4209,-616.5 746.4209,-622.5 740.4209,-622.5 740.4209,-622.5 624,-622.5 624,-622.5 618,-622.5 612,-616.5 612,-610.5 612,-610.5 612,-488.5 612,-488.5 612,-482.5 618,-476.5 624,-476.5"/>
<text text-anchor="middle" x="682.2104" y="-607.3" font-family="Times,serif" font-size="14.00" fill="#000000">UsageRolesController</text>
<polyline fill="none" stroke="#000000" points="612,-600.5 752.4209,-600.5 "/>
<text text-anchor="start" x="620" y="-585.3" font-family="Times,serif" font-size="14.00" fill="#000000">create</text>
<text text-anchor="start" x="620" y="-571.3" font-family="Times,serif" font-size="14.00" fill="#000000">destroy</text>
<text text-anchor="start" x="620" y="-557.3" font-family="Times,serif" font-size="14.00" fill="#000000">index</text>
<text text-anchor="start" x="620" y="-543.3" font-family="Times,serif" font-size="14.00" fill="#000000">update</text>
<polyline fill="none" stroke="#000000" points="612,-536.5 752.4209,-536.5 "/>
<polyline fill="none" stroke="#000000" points="612,-512.5 752.4209,-512.5 "/>
<text text-anchor="start" x="620" y="-497.3" font-family="Times,serif" font-size="14.00" fill="#000000">_layout</text>
<text text-anchor="start" x="620" y="-483.3" font-family="Times,serif" font-size="14.00" fill="#000000">usage_role_params</text>
</g>
<!-- ActivitiesController -->
<g id="node14" class="node">
<title>ActivitiesController</title>
<path fill="none" stroke="#000000" d="M641,-68.5C641,-68.5 744.9795,-68.5 744.9795,-68.5 750.9795,-68.5 756.9795,-74.5 756.9795,-80.5 756.9795,-80.5 756.9795,-202.5 756.9795,-202.5 756.9795,-208.5 750.9795,-214.5 744.9795,-214.5 744.9795,-214.5 641,-214.5 641,-214.5 635,-214.5 629,-208.5 629,-202.5 629,-202.5 629,-80.5 629,-80.5 629,-74.5 635,-68.5 641,-68.5"/>
<text text-anchor="middle" x="692.9897" y="-199.3" font-family="Times,serif" font-size="14.00" fill="#000000">ActivitiesController</text>
<polyline fill="none" stroke="#000000" points="629,-192.5 756.9795,-192.5 "/>
<text text-anchor="start" x="637" y="-177.3" font-family="Times,serif" font-size="14.00" fill="#000000">create</text>
<text text-anchor="start" x="637" y="-163.3" font-family="Times,serif" font-size="14.00" fill="#000000">destroy</text>
<text text-anchor="start" x="637" y="-149.3" font-family="Times,serif" font-size="14.00" fill="#000000">index</text>
<text text-anchor="start" x="637" y="-135.3" font-family="Times,serif" font-size="14.00" fill="#000000">update</text>
<polyline fill="none" stroke="#000000" points="629,-128.5 756.9795,-128.5 "/>
<polyline fill="none" stroke="#000000" points="629,-104.5 756.9795,-104.5 "/>
<text text-anchor="start" x="637" y="-89.3" font-family="Times,serif" font-size="14.00" fill="#000000">_layout</text>
<text text-anchor="start" x="637" y="-75.3" font-family="Times,serif" font-size="14.00" fill="#000000">activity_params</text>
</g>
<!-- AssetsController -->
<g id="node15" class="node">
<title>AssetsController</title>
<path fill="none" stroke="#000000" d="M46,-663.5C46,-663.5 132.1035,-663.5 132.1035,-663.5 138.1035,-663.5 144.1035,-669.5 144.1035,-675.5 144.1035,-675.5 144.1035,-797.5 144.1035,-797.5 144.1035,-803.5 138.1035,-809.5 132.1035,-809.5 132.1035,-809.5 46,-809.5 46,-809.5 40,-809.5 34,-803.5 34,-797.5 34,-797.5 34,-675.5 34,-675.5 34,-669.5 40,-663.5 46,-663.5"/>
<text text-anchor="middle" x="89.0518" y="-794.3" font-family="Times,serif" font-size="14.00" fill="#000000">AssetsController</text>
<polyline fill="none" stroke="#000000" points="34,-787.5 144.1035,-787.5 "/>
<text text-anchor="start" x="42" y="-772.3" font-family="Times,serif" font-size="14.00" fill="#000000">create</text>
<text text-anchor="start" x="42" y="-758.3" font-family="Times,serif" font-size="14.00" fill="#000000">destroy</text>
<text text-anchor="start" x="42" y="-744.3" font-family="Times,serif" font-size="14.00" fill="#000000">index</text>
<text text-anchor="start" x="42" y="-730.3" font-family="Times,serif" font-size="14.00" fill="#000000">update</text>
<polyline fill="none" stroke="#000000" points="34,-723.5 144.1035,-723.5 "/>
<polyline fill="none" stroke="#000000" points="34,-699.5 144.1035,-699.5 "/>
<text text-anchor="start" x="42" y="-684.3" font-family="Times,serif" font-size="14.00" fill="#000000">_layout</text>
<text text-anchor="start" x="42" y="-670.3" font-family="Times,serif" font-size="14.00" fill="#000000">asset_params</text>
</g>
<!-- CapabilitiesController -->
<g id="node16" class="node">
<title>CapabilitiesController</title>
<path fill="none" stroke="#000000" d="M471,-238.5C471,-238.5 587.4209,-238.5 587.4209,-238.5 593.4209,-238.5 599.4209,-244.5 599.4209,-250.5 599.4209,-250.5 599.4209,-428.5 599.4209,-428.5 599.4209,-434.5 593.4209,-440.5 587.4209,-440.5 587.4209,-440.5 471,-440.5 471,-440.5 465,-440.5 459,-434.5 459,-428.5 459,-428.5 459,-250.5 459,-250.5 459,-244.5 465,-238.5 471,-238.5"/>
<text text-anchor="middle" x="529.2104" y="-425.3" font-family="Times,serif" font-size="14.00" fill="#000000">CapabilitiesController</text>
<polyline fill="none" stroke="#000000" points="459,-418.5 599.4209,-418.5 "/>
<text text-anchor="start" x="467" y="-403.3" font-family="Times,serif" font-size="14.00" fill="#000000">create</text>
<text text-anchor="start" x="467" y="-389.3" font-family="Times,serif" font-size="14.00" fill="#000000">destroy</text>
<text text-anchor="start" x="467" y="-375.3" font-family="Times,serif" font-size="14.00" fill="#000000">edit</text>
<text text-anchor="start" x="467" y="-361.3" font-family="Times,serif" font-size="14.00" fill="#000000">index</text>
<text text-anchor="start" x="467" y="-347.3" font-family="Times,serif" font-size="14.00" fill="#000000">new</text>
<text text-anchor="start" x="467" y="-333.3" font-family="Times,serif" font-size="14.00" fill="#000000">show</text>
<text text-anchor="start" x="467" y="-319.3" font-family="Times,serif" font-size="14.00" fill="#000000">update</text>
<polyline fill="none" stroke="#000000" points="459,-312.5 599.4209,-312.5 "/>
<polyline fill="none" stroke="#000000" points="459,-288.5 599.4209,-288.5 "/>
<text text-anchor="start" x="467" y="-273.3" font-family="Times,serif" font-size="14.00" fill="#000000">_layout</text>
<text text-anchor="start" x="467" y="-259.3" font-family="Times,serif" font-size="14.00" fill="#000000">capability_params</text>
<text text-anchor="start" x="467" y="-245.3" font-family="Times,serif" font-size="14.00" fill="#000000">set_capability</text>
</g>
<!-- IdentitiesController -->
<g id="node17" class="node">
<title>IdentitiesController</title>
<path fill="none" stroke="#000000" d="M29,-544.5C29,-544.5 130.6416,-544.5 130.6416,-544.5 136.6416,-544.5 142.6416,-550.5 142.6416,-556.5 142.6416,-556.5 142.6416,-622.5 142.6416,-622.5 142.6416,-628.5 136.6416,-634.5 130.6416,-634.5 130.6416,-634.5 29,-634.5 29,-634.5 23,-634.5 17,-628.5 17,-622.5 17,-622.5 17,-556.5 17,-556.5 17,-550.5 23,-544.5 29,-544.5"/>
<text text-anchor="middle" x="79.8208" y="-619.3" font-family="Times,serif" font-size="14.00" fill="#000000">IdentitiesController</text>
<polyline fill="none" stroke="#000000" points="17,-612.5 142.6416,-612.5 "/>
<text text-anchor="start" x="25" y="-597.3" font-family="Times,serif" font-size="14.00" fill="#000000">destroy</text>
<polyline fill="none" stroke="#000000" points="17,-590.5 142.6416,-590.5 "/>
<polyline fill="none" stroke="#000000" points="17,-566.5 142.6416,-566.5 "/>
<text text-anchor="start" x="25" y="-551.3" font-family="Times,serif" font-size="14.00" fill="#000000">_layout</text>
</g>
<!-- MembersController -->
<g id="node18" class="node">
<title>MembersController</title>
<path fill="none" stroke="#000000" d="M471,-476.5C471,-476.5 573.4209,-476.5 573.4209,-476.5 579.4209,-476.5 585.4209,-482.5 585.4209,-488.5 585.4209,-488.5 585.4209,-666.5 585.4209,-666.5 585.4209,-672.5 579.4209,-678.5 573.4209,-678.5 573.4209,-678.5 471,-678.5 471,-678.5 465,-678.5 459,-672.5 459,-666.5 459,-666.5 459,-488.5 459,-488.5 459,-482.5 465,-476.5 471,-476.5"/>
<text text-anchor="middle" x="522.2104" y="-663.3" font-family="Times,serif" font-size="14.00" fill="#000000">MembersController</text>
<polyline fill="none" stroke="#000000" points="459,-656.5 585.4209,-656.5 "/>
<text text-anchor="start" x="467" y="-641.3" font-family="Times,serif" font-size="14.00" fill="#000000">create</text>
<text text-anchor="start" x="467" y="-627.3" font-family="Times,serif" font-size="14.00" fill="#000000">destroy</text>
<text text-anchor="start" x="467" y="-613.3" font-family="Times,serif" font-size="14.00" fill="#000000">edit</text>
<text text-anchor="start" x="467" y="-599.3" font-family="Times,serif" font-size="14.00" fill="#000000">index</text>
<text text-anchor="start" x="467" y="-585.3" font-family="Times,serif" font-size="14.00" fill="#000000">new</text>
<text text-anchor="start" x="467" y="-571.3" font-family="Times,serif" font-size="14.00" fill="#000000">show</text>
<text text-anchor="start" x="467" y="-557.3" font-family="Times,serif" font-size="14.00" fill="#000000">update</text>
<polyline fill="none" stroke="#000000" points="459,-550.5 585.4209,-550.5 "/>
<polyline fill="none" stroke="#000000" points="459,-526.5 585.4209,-526.5 "/>
<text text-anchor="start" x="467" y="-511.3" font-family="Times,serif" font-size="14.00" fill="#000000">_layout</text>
<text text-anchor="start" x="467" y="-497.3" font-family="Times,serif" font-size="14.00" fill="#000000">member_params</text>
<text text-anchor="start" x="467" y="-483.3" font-family="Times,serif" font-size="14.00" fill="#000000">set_member</text>
</g>
<!-- RolesController -->
<g id="node19" class="node">
<title>RolesController</title>
<path fill="none" stroke="#000000" d="M335,-544.5C335,-544.5 416.4346,-544.5 416.4346,-544.5 422.4346,-544.5 428.4346,-550.5 428.4346,-556.5 428.4346,-556.5 428.4346,-734.5 428.4346,-734.5 428.4346,-740.5 422.4346,-746.5 416.4346,-746.5 416.4346,-746.5 335,-746.5 335,-746.5 329,-746.5 323,-740.5 323,-734.5 323,-734.5 323,-556.5 323,-556.5 323,-550.5 329,-544.5 335,-544.5"/>
<text text-anchor="middle" x="375.7173" y="-731.3" font-family="Times,serif" font-size="14.00" fill="#000000">RolesController</text>
<polyline fill="none" stroke="#000000" points="323,-724.5 428.4346,-724.5 "/>
<text text-anchor="start" x="331" y="-709.3" font-family="Times,serif" font-size="14.00" fill="#000000">create</text>
<text text-anchor="start" x="331" y="-695.3" font-family="Times,serif" font-size="14.00" fill="#000000">destroy</text>
<text text-anchor="start" x="331" y="-681.3" font-family="Times,serif" font-size="14.00" fill="#000000">edit</text>
<text text-anchor="start" x="331" y="-667.3" font-family="Times,serif" font-size="14.00" fill="#000000">index</text>
<text text-anchor="start" x="331" y="-653.3" font-family="Times,serif" font-size="14.00" fill="#000000">new</text>
<text text-anchor="start" x="331" y="-639.3" font-family="Times,serif" font-size="14.00" fill="#000000">show</text>
<text text-anchor="start" x="331" y="-625.3" font-family="Times,serif" font-size="14.00" fill="#000000">update</text>
<polyline fill="none" stroke="#000000" points="323,-618.5 428.4346,-618.5 "/>
<polyline fill="none" stroke="#000000" points="323,-594.5 428.4346,-594.5 "/>
<text text-anchor="start" x="331" y="-579.3" font-family="Times,serif" font-size="14.00" fill="#000000">_layout</text>
<text text-anchor="start" x="331" y="-565.3" font-family="Times,serif" font-size="14.00" fill="#000000">role_params</text>
<text text-anchor="start" x="331" y="-551.3" font-family="Times,serif" font-size="14.00" fill="#000000">set_role</text>
</g>
</g>
</svg>
