<?xml version="1.0" encoding="UTF-8" standalone="no"?>
<!DOCTYPE svg PUBLIC "-//W3C//DTD SVG 1.1//EN"
 "http://www.w3.org/Graphics/SVG/1.1/DTD/svg11.dtd">
<!-- Generated by graphviz version 2.40.1 (20161225.0304)
 -->
<!-- Title: controllers_diagram Pages: 1 -->
<svg width="787pt" height="743pt"
 viewBox="0.00 0.00 787.32 743.00" xmlns="http://www.w3.org/2000/svg" xmlns:xlink="http://www.w3.org/1999/xlink">
<g id="graph0" class="graph" transform="scale(1 1) rotate(0) translate(4 739)">
<title>controllers_diagram</title>
<polygon fill="transparent" stroke="transparent" points="-4,4 -4,-739 783.3242,-739 783.3242,4 -4,4"/>
<!-- _diagram_info -->
<g id="node1" class="node">
<title>_diagram_info</title>
<text text-anchor="start" x="600" y="-426.6" font-family="Times,serif" font-size="13.00" fill="#000000">Controllers diagram</text>
<text text-anchor="start" x="600" y="-413.6" font-family="Times,serif" font-size="13.00" fill="#000000">Date: May 22 2018 &#45; 09:13</text>
<text text-anchor="start" x="600" y="-400.6" font-family="Times,serif" font-size="13.00" fill="#000000">Migration version: 1</text>
<text text-anchor="start" x="600" y="-387.6" font-family="Times,serif" font-size="13.00" fill="#000000">Generated by RailRoady 1.5.3</text>
<text text-anchor="start" x="600" y="-374.6" font-family="Times,serif" font-size="13.00" fill="#000000">http://railroady.prestonlee.com</text>
</g>
<!-- ApplicationController -->
<g id="node2" class="node">
<title>ApplicationController</title>
<path fill="none" stroke="#000000" d="M252,-176.5C252,-176.5 367.6416,-176.5 367.6416,-176.5 373.6416,-176.5 379.6416,-182.5 379.6416,-188.5 379.6416,-188.5 379.6416,-396.5 379.6416,-396.5 379.6416,-402.5 373.6416,-408.5 367.6416,-408.5 367.6416,-408.5 252,-408.5 252,-408.5 246,-408.5 240,-402.5 240,-396.5 240,-396.5 240,-188.5 240,-188.5 240,-182.5 246,-176.5 252,-176.5"/>
<text text-anchor="middle" x="309.8208" y="-393.3" font-family="Times,serif" font-size="14.00" fill="#000000">ApplicationController</text>
<polyline fill="none" stroke="#000000" points="240,-386.5 379.6416,-386.5 "/>
<text text-anchor="start" x="248" y="-371.3" font-family="Times,serif" font-size="14.00" fill="#000000">unauthenticate!</text>
<text text-anchor="start" x="248" y="-357.3" font-family="Times,serif" font-size="14.00" fill="#000000">_cancan_skipper=</text>
<text text-anchor="start" x="248" y="-343.3" font-family="Times,serif" font-size="14.00" fill="#000000">_cancan_skipper?</text>
<text text-anchor="start" x="248" y="-329.3" font-family="Times,serif" font-size="14.00" fill="#000000">authenticate_identity!</text>
<text text-anchor="start" x="248" y="-315.3" font-family="Times,serif" font-size="14.00" fill="#000000">build_oauth_request</text>
<text text-anchor="start" x="248" y="-301.3" font-family="Times,serif" font-size="14.00" fill="#000000">current_identity</text>
<text text-anchor="start" x="248" y="-287.3" font-family="Times,serif" font-size="14.00" fill="#000000">current_person</text>
<text text-anchor="start" x="248" y="-273.3" font-family="Times,serif" font-size="14.00" fill="#000000">current_user</text>
<text text-anchor="start" x="248" y="-259.3" font-family="Times,serif" font-size="14.00" fill="#000000">new_nonce</text>
<text text-anchor="start" x="248" y="-245.3" font-family="Times,serif" font-size="14.00" fill="#000000">stored_nonce</text>
<text text-anchor="start" x="248" y="-231.3" font-family="Times,serif" font-size="14.00" fill="#000000">_cancan_skipper</text>
<polyline fill="none" stroke="#000000" points="240,-224.5 379.6416,-224.5 "/>
<polyline fill="none" stroke="#000000" points="240,-200.5 379.6416,-200.5 "/>
</g>
<!-- EventsController -->
<g id="node3" class="node">
<title>EventsController</title>
<path fill="none" stroke="#000000" d="M604,-208.5C604,-208.5 691.6484,-208.5 691.6484,-208.5 697.6484,-208.5 703.6484,-214.5 703.6484,-220.5 703.6484,-220.5 703.6484,-328.5 703.6484,-328.5 703.6484,-334.5 697.6484,-340.5 691.6484,-340.5 691.6484,-340.5 604,-340.5 604,-340.5 598,-340.5 592,-334.5 592,-328.5 592,-328.5 592,-220.5 592,-220.5 592,-214.5 598,-208.5 604,-208.5"/>
<text text-anchor="middle" x="647.8242" y="-325.3" font-family="Times,serif" font-size="14.00" fill="#000000">EventsController</text>
<polyline fill="none" stroke="#000000" points="592,-318.5 703.6484,-318.5 "/>
<text text-anchor="start" x="600" y="-303.3" font-family="Times,serif" font-size="14.00" fill="#000000">create</text>
<text text-anchor="start" x="600" y="-289.3" font-family="Times,serif" font-size="14.00" fill="#000000">destroy</text>
<text text-anchor="start" x="600" y="-275.3" font-family="Times,serif" font-size="14.00" fill="#000000">index</text>
<text text-anchor="start" x="600" y="-261.3" font-family="Times,serif" font-size="14.00" fill="#000000">update</text>
<polyline fill="none" stroke="#000000" points="592,-254.5 703.6484,-254.5 "/>
<polyline fill="none" stroke="#000000" points="592,-230.5 703.6484,-230.5 "/>
<text text-anchor="start" x="600" y="-215.3" font-family="Times,serif" font-size="14.00" fill="#000000">event_params</text>
</g>
<!-- PeopleController -->
<g id="node4" class="node">
<title>PeopleController</title>
<path fill="none" stroke="#000000" d="M12,-496.5C12,-496.5 99.6484,-496.5 99.6484,-496.5 105.6484,-496.5 111.6484,-502.5 111.6484,-508.5 111.6484,-508.5 111.6484,-576.5 111.6484,-576.5 111.6484,-582.5 105.6484,-588.5 99.6484,-588.5 99.6484,-588.5 12,-588.5 12,-588.5 6,-588.5 0,-582.5 0,-576.5 0,-576.5 0,-508.5 0,-508.5 0,-502.5 6,-496.5 12,-496.5"/>
<text text-anchor="middle" x="55.8242" y="-573.3" font-family="Times,serif" font-size="14.00" fill="#000000">PeopleController</text>
<polyline fill="none" stroke="#000000" points="0,-566.5 111.6484,-566.5 "/>
<text text-anchor="start" x="8" y="-551.3" font-family="Times,serif" font-size="14.00" fill="#000000">index</text>
<polyline fill="none" stroke="#000000" points="0,-544.5 111.6484,-544.5 "/>
<polyline fill="none" stroke="#000000" points="0,-520.5 111.6484,-520.5 "/>
</g>
<!-- ClientsController -->
<g id="node5" class="node">
<title>ClientsController</title>
<path fill="none" stroke="#000000" d="M12,-624.5C12,-624.5 101.2139,-624.5 101.2139,-624.5 107.2139,-624.5 113.2139,-630.5 113.2139,-636.5 113.2139,-636.5 113.2139,-718.5 113.2139,-718.5 113.2139,-724.5 107.2139,-730.5 101.2139,-730.5 101.2139,-730.5 12,-730.5 12,-730.5 6,-730.5 0,-724.5 0,-718.5 0,-718.5 0,-636.5 0,-636.5 0,-630.5 6,-624.5 12,-624.5"/>
<text text-anchor="middle" x="56.6069" y="-715.3" font-family="Times,serif" font-size="14.00" fill="#000000">ClientsController</text>
<polyline fill="none" stroke="#000000" points="0,-708.5 113.2139,-708.5 "/>
<text text-anchor="start" x="8" y="-693.3" font-family="Times,serif" font-size="14.00" fill="#000000">index</text>
<text text-anchor="start" x="8" y="-679.3" font-family="Times,serif" font-size="14.00" fill="#000000">launch</text>
<polyline fill="none" stroke="#000000" points="0,-672.5 113.2139,-672.5 "/>
<polyline fill="none" stroke="#000000" points="0,-648.5 113.2139,-648.5 "/>
</g>
<!-- ContextsController -->
<g id="node6" class="node">
<title>ContextsController</title>
<path fill="none" stroke="#000000" d="M668,-640.5C668,-640.5 767.3242,-640.5 767.3242,-640.5 773.3242,-640.5 779.3242,-646.5 779.3242,-652.5 779.3242,-652.5 779.3242,-722.5 779.3242,-722.5 779.3242,-728.5 773.3242,-734.5 767.3242,-734.5 767.3242,-734.5 668,-734.5 668,-734.5 662,-734.5 656,-728.5 656,-722.5 656,-722.5 656,-652.5 656,-652.5 656,-646.5 662,-640.5 668,-640.5"/>
<text text-anchor="middle" x="717.6621" y="-719.3" font-family="Times,serif" font-size="14.00" fill="#000000">ContextsController</text>
<polyline fill="none" stroke="#000000" points="656,-712.5 779.3242,-712.5 "/>
<polyline fill="none" stroke="#000000" points="656,-688.5 779.3242,-688.5 "/>
<polyline fill="none" stroke="#000000" points="656,-664.5 779.3242,-664.5 "/>
</g>
<!-- ObjectivesController -->
<g id="node7" class="node">
<title>ObjectivesController</title>
<path fill="none" stroke="#000000" d="M92,-304.5C92,-304.5 201.4141,-304.5 201.4141,-304.5 207.4141,-304.5 213.4141,-310.5 213.4141,-316.5 213.4141,-316.5 213.4141,-438.5 213.4141,-438.5 213.4141,-444.5 207.4141,-450.5 201.4141,-450.5 201.4141,-450.5 92,-450.5 92,-450.5 86,-450.5 80,-444.5 80,-438.5 80,-438.5 80,-316.5 80,-316.5 80,-310.5 86,-304.5 92,-304.5"/>
<text text-anchor="middle" x="146.707" y="-435.3" font-family="Times,serif" font-size="14.00" fill="#000000">ObjectivesController</text>
<polyline fill="none" stroke="#000000" points="80,-428.5 213.4141,-428.5 "/>
<text text-anchor="start" x="88" y="-413.3" font-family="Times,serif" font-size="14.00" fill="#000000">create</text>
<text text-anchor="start" x="88" y="-399.3" font-family="Times,serif" font-size="14.00" fill="#000000">destroy</text>
<text text-anchor="start" x="88" y="-385.3" font-family="Times,serif" font-size="14.00" fill="#000000">index</text>
<text text-anchor="start" x="88" y="-371.3" font-family="Times,serif" font-size="14.00" fill="#000000">show</text>
<text text-anchor="start" x="88" y="-357.3" font-family="Times,serif" font-size="14.00" fill="#000000">update</text>
<polyline fill="none" stroke="#000000" points="80,-350.5 213.4141,-350.5 "/>
<polyline fill="none" stroke="#000000" points="80,-326.5 213.4141,-326.5 "/>
<text text-anchor="start" x="88" y="-311.3" font-family="Times,serif" font-size="14.00" fill="#000000">objective_params</text>
</g>
<!-- PlacesController -->
<g id="node8" class="node">
<title>PlacesController</title>
<path fill="none" stroke="#000000" d="M636,-.5C636,-.5 721.3105,-.5 721.3105,-.5 727.3105,-.5 733.3105,-6.5 733.3105,-12.5 733.3105,-12.5 733.3105,-120.5 733.3105,-120.5 733.3105,-126.5 727.3105,-132.5 721.3105,-132.5 721.3105,-132.5 636,-132.5 636,-132.5 630,-132.5 624,-126.5 624,-120.5 624,-120.5 624,-12.5 624,-12.5 624,-6.5 630,-.5 636,-.5"/>
<text text-anchor="middle" x="678.6553" y="-117.3" font-family="Times,serif" font-size="14.00" fill="#000000">PlacesController</text>
<polyline fill="none" stroke="#000000" points="624,-110.5 733.3105,-110.5 "/>
<text text-anchor="start" x="632" y="-95.3" font-family="Times,serif" font-size="14.00" fill="#000000">create</text>
<text text-anchor="start" x="632" y="-81.3" font-family="Times,serif" font-size="14.00" fill="#000000">destroy</text>
<text text-anchor="start" x="632" y="-67.3" font-family="Times,serif" font-size="14.00" fill="#000000">index</text>
<text text-anchor="start" x="632" y="-53.3" font-family="Times,serif" font-size="14.00" fill="#000000">update</text>
<polyline fill="none" stroke="#000000" points="624,-46.5 733.3105,-46.5 "/>
<polyline fill="none" stroke="#000000" points="624,-22.5 733.3105,-22.5 "/>
<text text-anchor="start" x="632" y="-7.3" font-family="Times,serif" font-size="14.00" fill="#000000">place_params</text>
</g>
<!-- GroupsController -->
<g id="node9" class="node">
<title>GroupsController</title>
<path fill="none" stroke="#000000" d="M460,-432.5C460,-432.5 550.7656,-432.5 550.7656,-432.5 556.7656,-432.5 562.7656,-438.5 562.7656,-444.5 562.7656,-444.5 562.7656,-608.5 562.7656,-608.5 562.7656,-614.5 556.7656,-620.5 550.7656,-620.5 550.7656,-620.5 460,-620.5 460,-620.5 454,-620.5 448,-614.5 448,-608.5 448,-608.5 448,-444.5 448,-444.5 448,-438.5 454,-432.5 460,-432.5"/>
<text text-anchor="middle" x="505.3828" y="-605.3" font-family="Times,serif" font-size="14.00" fill="#000000">GroupsController</text>
<polyline fill="none" stroke="#000000" points="448,-598.5 562.7656,-598.5 "/>
<text text-anchor="start" x="456" y="-583.3" font-family="Times,serif" font-size="14.00" fill="#000000">create</text>
<text text-anchor="start" x="456" y="-569.3" font-family="Times,serif" font-size="14.00" fill="#000000">destroy</text>
<text text-anchor="start" x="456" y="-555.3" font-family="Times,serif" font-size="14.00" fill="#000000">edit</text>
<text text-anchor="start" x="456" y="-541.3" font-family="Times,serif" font-size="14.00" fill="#000000">index</text>
<text text-anchor="start" x="456" y="-527.3" font-family="Times,serif" font-size="14.00" fill="#000000">new</text>
<text text-anchor="start" x="456" y="-513.3" font-family="Times,serif" font-size="14.00" fill="#000000">show</text>
<text text-anchor="start" x="456" y="-499.3" font-family="Times,serif" font-size="14.00" fill="#000000">update</text>
<polyline fill="none" stroke="#000000" points="448,-492.5 562.7656,-492.5 "/>
<polyline fill="none" stroke="#000000" points="448,-468.5 562.7656,-468.5 "/>
<text text-anchor="start" x="456" y="-453.3" font-family="Times,serif" font-size="14.00" fill="#000000">group_params</text>
<text text-anchor="start" x="456" y="-439.3" font-family="Times,serif" font-size="14.00" fill="#000000">set_group</text>
</g>
<!-- IdentityProvidersController -->
<g id="node10" class="node">
<title>IdentityProvidersController</title>
<path fill="none" stroke="#000000" d="M428,-80.5C428,-80.5 574.752,-80.5 574.752,-80.5 580.752,-80.5 586.752,-86.5 586.752,-92.5 586.752,-92.5 586.752,-160.5 586.752,-160.5 586.752,-166.5 580.752,-172.5 574.752,-172.5 574.752,-172.5 428,-172.5 428,-172.5 422,-172.5 416,-166.5 416,-160.5 416,-160.5 416,-92.5 416,-92.5 416,-86.5 422,-80.5 428,-80.5"/>
<text text-anchor="middle" x="501.376" y="-157.3" font-family="Times,serif" font-size="14.00" fill="#000000">IdentityProvidersController</text>
<polyline fill="none" stroke="#000000" points="416,-150.5 586.752,-150.5 "/>
<text text-anchor="start" x="424" y="-135.3" font-family="Times,serif" font-size="14.00" fill="#000000">launch</text>
<polyline fill="none" stroke="#000000" points="416,-128.5 586.752,-128.5 "/>
<polyline fill="none" stroke="#000000" points="416,-104.5 586.752,-104.5 "/>
</g>
<!-- SessionsController -->
<g id="node11" class="node">
<title>SessionsController</title>
<path fill="none" stroke="#000000" d="M76,-128.5C76,-128.5 192.4141,-128.5 192.4141,-128.5 198.4141,-128.5 204.4141,-134.5 204.4141,-140.5 204.4141,-140.5 204.4141,-264.5 204.4141,-264.5 204.4141,-270.5 198.4141,-276.5 192.4141,-276.5 192.4141,-276.5 76,-276.5 76,-276.5 70,-276.5 64,-270.5 64,-264.5 64,-264.5 64,-140.5 64,-140.5 64,-134.5 70,-128.5 76,-128.5"/>
<text text-anchor="middle" x="134.207" y="-261.3" font-family="Times,serif" font-size="14.00" fill="#000000">SessionsController</text>
<polyline fill="none" stroke="#000000" points="64,-254.5 204.4141,-254.5 "/>
<text text-anchor="start" x="72" y="-239.3" font-family="Times,serif" font-size="14.00" fill="#000000">callback</text>
<text text-anchor="start" x="72" y="-225.3" font-family="Times,serif" font-size="14.00" fill="#000000">cleanse_session</text>
<text text-anchor="start" x="72" y="-211.3" font-family="Times,serif" font-size="14.00" fill="#000000">destroy</text>
<text text-anchor="start" x="72" y="-197.3" font-family="Times,serif" font-size="14.00" fill="#000000">openid_connect_login</text>
<text text-anchor="start" x="72" y="-183.3" font-family="Times,serif" font-size="14.00" fill="#000000">public_keys_for</text>
<polyline fill="none" stroke="#000000" points="64,-176.5 204.4141,-176.5 "/>
<polyline fill="none" stroke="#000000" points="64,-152.5 204.4141,-152.5 "/>
</g>
<!-- WelcomeController -->
<g id="node12" class="node">
<title>WelcomeController</title>
<path fill="none" stroke="#000000" d="M604,-480.5C604,-480.5 706.0654,-480.5 706.0654,-480.5 712.0654,-480.5 718.0654,-486.5 718.0654,-492.5 718.0654,-492.5 718.0654,-588.5 718.0654,-588.5 718.0654,-594.5 712.0654,-600.5 706.0654,-600.5 706.0654,-600.5 604,-600.5 604,-600.5 598,-600.5 592,-594.5 592,-588.5 592,-588.5 592,-492.5 592,-492.5 592,-486.5 598,-480.5 604,-480.5"/>
<text text-anchor="middle" x="655.0327" y="-585.3" font-family="Times,serif" font-size="14.00" fill="#000000">WelcomeController</text>
<polyline fill="none" stroke="#000000" points="592,-578.5 718.0654,-578.5 "/>
<text text-anchor="start" x="600" y="-563.3" font-family="Times,serif" font-size="14.00" fill="#000000">landing</text>
<text text-anchor="start" x="600" y="-549.3" font-family="Times,serif" font-size="14.00" fill="#000000">status</text>
<text text-anchor="start" x="600" y="-535.3" font-family="Times,serif" font-size="14.00" fill="#000000">stream</text>
<polyline fill="none" stroke="#000000" points="592,-528.5 718.0654,-528.5 "/>
<polyline fill="none" stroke="#000000" points="592,-504.5 718.0654,-504.5 "/>
</g>
<!-- AssetsController -->
<g id="node13" class="node">
<title>AssetsController</title>
<path fill="none" stroke="#000000" d="M252,-16.5C252,-16.5 338.1035,-16.5 338.1035,-16.5 344.1035,-16.5 350.1035,-22.5 350.1035,-28.5 350.1035,-28.5 350.1035,-136.5 350.1035,-136.5 350.1035,-142.5 344.1035,-148.5 338.1035,-148.5 338.1035,-148.5 252,-148.5 252,-148.5 246,-148.5 240,-142.5 240,-136.5 240,-136.5 240,-28.5 240,-28.5 240,-22.5 246,-16.5 252,-16.5"/>
<text text-anchor="middle" x="295.0518" y="-133.3" font-family="Times,serif" font-size="14.00" fill="#000000">AssetsController</text>
<polyline fill="none" stroke="#000000" points="240,-126.5 350.1035,-126.5 "/>
<text text-anchor="start" x="248" y="-111.3" font-family="Times,serif" font-size="14.00" fill="#000000">create</text>
<text text-anchor="start" x="248" y="-97.3" font-family="Times,serif" font-size="14.00" fill="#000000">destroy</text>
<text text-anchor="start" x="248" y="-83.3" font-family="Times,serif" font-size="14.00" fill="#000000">index</text>
<text text-anchor="start" x="248" y="-69.3" font-family="Times,serif" font-size="14.00" fill="#000000">update</text>
<polyline fill="none" stroke="#000000" points="240,-62.5 350.1035,-62.5 "/>
<polyline fill="none" stroke="#000000" points="240,-38.5 350.1035,-38.5 "/>
<text text-anchor="start" x="248" y="-23.3" font-family="Times,serif" font-size="14.00" fill="#000000">asset_params</text>
</g>
<!-- CapabilitiesController -->
<g id="node14" class="node">
<title>CapabilitiesController</title>
<path fill="none" stroke="#000000" d="M428,-208.5C428,-208.5 544.4209,-208.5 544.4209,-208.5 550.4209,-208.5 556.4209,-214.5 556.4209,-220.5 556.4209,-220.5 556.4209,-384.5 556.4209,-384.5 556.4209,-390.5 550.4209,-396.5 544.4209,-396.5 544.4209,-396.5 428,-396.5 428,-396.5 422,-396.5 416,-390.5 416,-384.5 416,-384.5 416,-220.5 416,-220.5 416,-214.5 422,-208.5 428,-208.5"/>
<text text-anchor="middle" x="486.2104" y="-381.3" font-family="Times,serif" font-size="14.00" fill="#000000">CapabilitiesController</text>
<polyline fill="none" stroke="#000000" points="416,-374.5 556.4209,-374.5 "/>
<text text-anchor="start" x="424" y="-359.3" font-family="Times,serif" font-size="14.00" fill="#000000">create</text>
<text text-anchor="start" x="424" y="-345.3" font-family="Times,serif" font-size="14.00" fill="#000000">destroy</text>
<text text-anchor="start" x="424" y="-331.3" font-family="Times,serif" font-size="14.00" fill="#000000">edit</text>
<text text-anchor="start" x="424" y="-317.3" font-family="Times,serif" font-size="14.00" fill="#000000">index</text>
<text text-anchor="start" x="424" y="-303.3" font-family="Times,serif" font-size="14.00" fill="#000000">new</text>
<text text-anchor="start" x="424" y="-289.3" font-family="Times,serif" font-size="14.00" fill="#000000">show</text>
<text text-anchor="start" x="424" y="-275.3" font-family="Times,serif" font-size="14.00" fill="#000000">update</text>
<polyline fill="none" stroke="#000000" points="416,-268.5 556.4209,-268.5 "/>
<polyline fill="none" stroke="#000000" points="416,-244.5 556.4209,-244.5 "/>
<text text-anchor="start" x="424" y="-229.3" font-family="Times,serif" font-size="14.00" fill="#000000">capability_params</text>
<text text-anchor="start" x="424" y="-215.3" font-family="Times,serif" font-size="14.00" fill="#000000">set_capability</text>
</g>
<!-- IdentitiesController -->
<g id="node15" class="node">
<title>IdentitiesController</title>
<path fill="none" stroke="#000000" d="M28,-.5C28,-.5 129.6416,-.5 129.6416,-.5 135.6416,-.5 141.6416,-6.5 141.6416,-12.5 141.6416,-12.5 141.6416,-80.5 141.6416,-80.5 141.6416,-86.5 135.6416,-92.5 129.6416,-92.5 129.6416,-92.5 28,-92.5 28,-92.5 22,-92.5 16,-86.5 16,-80.5 16,-80.5 16,-12.5 16,-12.5 16,-6.5 22,-.5 28,-.5"/>
<text text-anchor="middle" x="78.8208" y="-77.3" font-family="Times,serif" font-size="14.00" fill="#000000">IdentitiesController</text>
<polyline fill="none" stroke="#000000" points="16,-70.5 141.6416,-70.5 "/>
<text text-anchor="start" x="24" y="-55.3" font-family="Times,serif" font-size="14.00" fill="#000000">destroy</text>
<polyline fill="none" stroke="#000000" points="16,-48.5 141.6416,-48.5 "/>
<polyline fill="none" stroke="#000000" points="16,-24.5 141.6416,-24.5 "/>
</g>
<!-- MembersController -->
<g id="node16" class="node">
<title>MembersController</title>
<path fill="none" stroke="#000000" d="M300,-448.5C300,-448.5 402.4209,-448.5 402.4209,-448.5 408.4209,-448.5 414.4209,-454.5 414.4209,-460.5 414.4209,-460.5 414.4209,-624.5 414.4209,-624.5 414.4209,-630.5 408.4209,-636.5 402.4209,-636.5 402.4209,-636.5 300,-636.5 300,-636.5 294,-636.5 288,-630.5 288,-624.5 288,-624.5 288,-460.5 288,-460.5 288,-454.5 294,-448.5 300,-448.5"/>
<text text-anchor="middle" x="351.2104" y="-621.3" font-family="Times,serif" font-size="14.00" fill="#000000">MembersController</text>
<polyline fill="none" stroke="#000000" points="288,-614.5 414.4209,-614.5 "/>
<text text-anchor="start" x="296" y="-599.3" font-family="Times,serif" font-size="14.00" fill="#000000">create</text>
<text text-anchor="start" x="296" y="-585.3" font-family="Times,serif" font-size="14.00" fill="#000000">destroy</text>
<text text-anchor="start" x="296" y="-571.3" font-family="Times,serif" font-size="14.00" fill="#000000">edit</text>
<text text-anchor="start" x="296" y="-557.3" font-family="Times,serif" font-size="14.00" fill="#000000">index</text>
<text text-anchor="start" x="296" y="-543.3" font-family="Times,serif" font-size="14.00" fill="#000000">new</text>
<text text-anchor="start" x="296" y="-529.3" font-family="Times,serif" font-size="14.00" fill="#000000">show</text>
<text text-anchor="start" x="296" y="-515.3" font-family="Times,serif" font-size="14.00" fill="#000000">update</text>
<polyline fill="none" stroke="#000000" points="288,-508.5 414.4209,-508.5 "/>
<polyline fill="none" stroke="#000000" points="288,-484.5 414.4209,-484.5 "/>
<text text-anchor="start" x="296" y="-469.3" font-family="Times,serif" font-size="14.00" fill="#000000">member_params</text>
<text text-anchor="start" x="296" y="-455.3" font-family="Times,serif" font-size="14.00" fill="#000000">set_member</text>
</g>
<!-- RolesController -->
<g id="node17" class="node">
<title>RolesController</title>
<path fill="none" stroke="#000000" d="M156,-480.5C156,-480.5 237.4346,-480.5 237.4346,-480.5 243.4346,-480.5 249.4346,-486.5 249.4346,-492.5 249.4346,-492.5 249.4346,-656.5 249.4346,-656.5 249.4346,-662.5 243.4346,-668.5 237.4346,-668.5 237.4346,-668.5 156,-668.5 156,-668.5 150,-668.5 144,-662.5 144,-656.5 144,-656.5 144,-492.5 144,-492.5 144,-486.5 150,-480.5 156,-480.5"/>
<text text-anchor="middle" x="196.7173" y="-653.3" font-family="Times,serif" font-size="14.00" fill="#000000">RolesController</text>
<polyline fill="none" stroke="#000000" points="144,-646.5 249.4346,-646.5 "/>
<text text-anchor="start" x="152" y="-631.3" font-family="Times,serif" font-size="14.00" fill="#000000">create</text>
<text text-anchor="start" x="152" y="-617.3" font-family="Times,serif" font-size="14.00" fill="#000000">destroy</text>
<text text-anchor="start" x="152" y="-603.3" font-family="Times,serif" font-size="14.00" fill="#000000">edit</text>
<text text-anchor="start" x="152" y="-589.3" font-family="Times,serif" font-size="14.00" fill="#000000">index</text>
<text text-anchor="start" x="152" y="-575.3" font-family="Times,serif" font-size="14.00" fill="#000000">new</text>
<text text-anchor="start" x="152" y="-561.3" font-family="Times,serif" font-size="14.00" fill="#000000">show</text>
<text text-anchor="start" x="152" y="-547.3" font-family="Times,serif" font-size="14.00" fill="#000000">update</text>
<polyline fill="none" stroke="#000000" points="144,-540.5 249.4346,-540.5 "/>
<polyline fill="none" stroke="#000000" points="144,-516.5 249.4346,-516.5 "/>
<text text-anchor="start" x="152" y="-501.3" font-family="Times,serif" font-size="14.00" fill="#000000">role_params</text>
<text text-anchor="start" x="152" y="-487.3" font-family="Times,serif" font-size="14.00" fill="#000000">set_role</text>
</g>
</g>
</svg>
