<?xml version="1.0" encoding="UTF-8" standalone="no"?>
<!DOCTYPE svg PUBLIC "-//W3C//DTD SVG 1.1//EN"
 "http://www.w3.org/Graphics/SVG/1.1/DTD/svg11.dtd">
<!-- Generated by graphviz version 2.38.0 (20140413.2041)
 -->
<!-- Title: controllers_diagram Pages: 1 -->
<svg width="958pt" height="949pt"
 viewBox="0.00 0.00 957.70 949.00" xmlns="http://www.w3.org/2000/svg" xmlns:xlink="http://www.w3.org/1999/xlink">
<g id="graph0" class="graph" transform="scale(1 1) rotate(0) translate(419.883 513.5)">
<title>controllers_diagram</title>
<polygon fill="none" stroke="none" points="-419.883,435.5 -419.883,-513.5 537.821,-513.5 537.821,435.5 -419.883,435.5"/>
<!-- _diagram_info -->
<g id="node1" class="node"><title>_diagram_info</title>
<text text-anchor="start" x="312.312" y="4.9" font-family="Times,serif" font-size="13.00">Controllers diagram</text>
<text text-anchor="start" x="312.312" y="17.9" font-family="Times,serif" font-size="13.00">Date: Jun 18 2016 &#45; 15:41</text>
<text text-anchor="start" x="312.312" y="30.9" font-family="Times,serif" font-size="13.00">Migration version: 20160618223020</text>
<text text-anchor="start" x="312.312" y="43.9" font-family="Times,serif" font-size="13.00">Generated by RailRoady 1.4.2</text>
<text text-anchor="start" x="312.312" y="56.9" font-family="Times,serif" font-size="13.00">http://railroady.prestonlee.com</text>
</g>
<!-- ActivitiesController -->
<g id="node2" class="node"><title>ActivitiesController</title>
<path fill="none" stroke="black" d="M-371.99,383C-371.99,383 -268.01,383 -268.01,383 -262.01,383 -256.01,377 -256.01,371 -256.01,371 -256.01,303 -256.01,303 -256.01,297 -262.01,291 -268.01,291 -268.01,291 -371.99,291 -371.99,291 -377.99,291 -383.99,297 -383.99,303 -383.99,303 -383.99,371 -383.99,371 -383.99,377 -377.99,383 -371.99,383"/>
<text text-anchor="middle" x="-320" y="306.2" font-family="Times,serif" font-size="14.00">ActivitiesController</text>
<polyline fill="none" stroke="black" points="-383.99,313 -256.01,313 "/>
<polyline fill="none" stroke="black" points="-383.99,337 -256.01,337 "/>
<polyline fill="none" stroke="black" points="-383.99,361 -256.01,361 "/>
<text text-anchor="start" x="-375.99" y="376.2" font-family="Times,serif" font-size="14.00">_layout</text>
</g>
<!-- ActorsController -->
<g id="node3" class="node"><title>ActorsController</title>
<path fill="none" stroke="black" d="M219.565,431C219.565,431 306.435,431 306.435,431 312.435,431 318.435,425 318.435,419 318.435,419 318.435,351 318.435,351 318.435,345 312.435,339 306.435,339 306.435,339 219.565,339 219.565,339 213.565,339 207.565,345 207.565,351 207.565,351 207.565,419 207.565,419 207.565,425 213.565,431 219.565,431"/>
<text text-anchor="middle" x="263" y="354.2" font-family="Times,serif" font-size="14.00">ActorsController</text>
<polyline fill="none" stroke="black" points="207.565,361 318.435,361 "/>
<polyline fill="none" stroke="black" points="207.565,385 318.435,385 "/>
<polyline fill="none" stroke="black" points="207.565,409 318.435,409 "/>
<text text-anchor="start" x="215.565" y="424.2" font-family="Times,serif" font-size="14.00">_layout</text>
</g>
<!-- ApplicationController -->
<g id="node4" class="node"><title>ApplicationController</title>
<path fill="none" stroke="black" d="M-99.5176,111C-99.5176,111 77.5176,111 77.5176,111 83.5176,111 89.5176,105 89.5176,99 89.5176,99 89.5176,-93 89.5176,-93 89.5176,-99 83.5176,-105 77.5176,-105 77.5176,-105 -99.5176,-105 -99.5176,-105 -105.518,-105 -111.518,-99 -111.518,-93 -111.518,-93 -111.518,99 -111.518,99 -111.518,105 -105.518,111 -99.5176,111"/>
<text text-anchor="middle" x="-11" y="-89.8" font-family="Times,serif" font-size="14.00">ApplicationController</text>
<polyline fill="none" stroke="black" points="-111.518,-83 89.5176,-83 "/>
<text text-anchor="start" x="-103.518" y="-67.8" font-family="Times,serif" font-size="14.00">unauthenticate!</text>
<text text-anchor="start" x="-103.518" y="-53.8" font-family="Times,serif" font-size="14.00">build_oauth_request</text>
<text text-anchor="start" x="-103.518" y="-39.8" font-family="Times,serif" font-size="14.00">cors_preflight_check</text>
<text text-anchor="start" x="-103.518" y="-25.8" font-family="Times,serif" font-size="14.00">cors_set_access_control_headers</text>
<text text-anchor="start" x="-103.518" y="-11.8" font-family="Times,serif" font-size="14.00">current_identity</text>
<text text-anchor="start" x="-103.518" y="2.2" font-family="Times,serif" font-size="14.00">current_user</text>
<text text-anchor="start" x="-103.518" y="16.2" font-family="Times,serif" font-size="14.00">new_nonce</text>
<text text-anchor="start" x="-103.518" y="30.2" font-family="Times,serif" font-size="14.00">set_options_from</text>
<text text-anchor="start" x="-103.518" y="44.2" font-family="Times,serif" font-size="14.00">stored_nonce</text>
<text text-anchor="start" x="-103.518" y="58.2" font-family="Times,serif" font-size="14.00">authenticate_identity!</text>
<polyline fill="none" stroke="black" points="-111.518,65 89.5176,65 "/>
<polyline fill="none" stroke="black" points="-111.518,89 89.5176,89 "/>
<text text-anchor="start" x="-103.518" y="104.2" font-family="Times,serif" font-size="14.00">_layout</text>
</g>
<!-- AssetsController -->
<g id="node5" class="node"><title>AssetsController</title>
<path fill="none" stroke="black" d="M-116.052,-417C-116.052,-417 -29.9482,-417 -29.9482,-417 -23.9482,-417 -17.9482,-423 -17.9482,-429 -17.9482,-429 -17.9482,-497 -17.9482,-497 -17.9482,-503 -23.9482,-509 -29.9482,-509 -29.9482,-509 -116.052,-509 -116.052,-509 -122.052,-509 -128.052,-503 -128.052,-497 -128.052,-497 -128.052,-429 -128.052,-429 -128.052,-423 -122.052,-417 -116.052,-417"/>
<text text-anchor="middle" x="-73" y="-493.8" font-family="Times,serif" font-size="14.00">AssetsController</text>
<polyline fill="none" stroke="black" points="-128.052,-487 -17.9482,-487 "/>
<polyline fill="none" stroke="black" points="-128.052,-463 -17.9482,-463 "/>
<polyline fill="none" stroke="black" points="-128.052,-439 -17.9482,-439 "/>
<text text-anchor="start" x="-120.052" y="-423.8" font-family="Times,serif" font-size="14.00">_layout</text>
</g>
<!-- CapabilitiesController -->
<g id="node6" class="node"><title>CapabilitiesController</title>
<path fill="none" stroke="black" d="M139.79,127C139.79,127 256.21,127 256.21,127 262.21,127 268.21,121 268.21,115 268.21,115 268.21,-63 268.21,-63 268.21,-69 262.21,-75 256.21,-75 256.21,-75 139.79,-75 139.79,-75 133.79,-75 127.79,-69 127.79,-63 127.79,-63 127.79,115 127.79,115 127.79,121 133.79,127 139.79,127"/>
<text text-anchor="middle" x="198" y="-59.8" font-family="Times,serif" font-size="14.00">CapabilitiesController</text>
<polyline fill="none" stroke="black" points="127.79,-53 268.21,-53 "/>
<text text-anchor="start" x="135.79" y="-37.8" font-family="Times,serif" font-size="14.00">index</text>
<text text-anchor="start" x="135.79" y="-23.8" font-family="Times,serif" font-size="14.00">destroy</text>
<text text-anchor="start" x="135.79" y="-9.8" font-family="Times,serif" font-size="14.00">edit</text>
<text text-anchor="start" x="135.79" y="4.2" font-family="Times,serif" font-size="14.00">create</text>
<text text-anchor="start" x="135.79" y="18.2" font-family="Times,serif" font-size="14.00">new</text>
<text text-anchor="start" x="135.79" y="32.2" font-family="Times,serif" font-size="14.00">show</text>
<text text-anchor="start" x="135.79" y="46.2" font-family="Times,serif" font-size="14.00">update</text>
<polyline fill="none" stroke="black" points="127.79,53 268.21,53 "/>
<polyline fill="none" stroke="black" points="127.79,77 268.21,77 "/>
<text text-anchor="start" x="135.79" y="92.2" font-family="Times,serif" font-size="14.00">_layout</text>
<text text-anchor="start" x="135.79" y="106.2" font-family="Times,serif" font-size="14.00">capability_params</text>
<text text-anchor="start" x="135.79" y="120.2" font-family="Times,serif" font-size="14.00">set_capability</text>
</g>
<!-- ClientsController -->
<g id="node7" class="node"><title>ClientsController</title>
<path fill="none" stroke="black" d="M28.3931,-385C28.3931,-385 117.607,-385 117.607,-385 123.607,-385 129.607,-391 129.607,-397 129.607,-397 129.607,-477 129.607,-477 129.607,-483 123.607,-489 117.607,-489 117.607,-489 28.3931,-489 28.3931,-489 22.3931,-489 16.3931,-483 16.3931,-477 16.3931,-477 16.3931,-397 16.3931,-397 16.3931,-391 22.3931,-385 28.3931,-385"/>
<text text-anchor="middle" x="73" y="-473.8" font-family="Times,serif" font-size="14.00">ClientsController</text>
<polyline fill="none" stroke="black" points="16.3931,-467 129.607,-467 "/>
<text text-anchor="start" x="24.3931" y="-451.8" font-family="Times,serif" font-size="14.00">index</text>
<text text-anchor="start" x="24.3931" y="-437.8" font-family="Times,serif" font-size="14.00">launch</text>
<polyline fill="none" stroke="black" points="16.3931,-431 129.607,-431 "/>
<polyline fill="none" stroke="black" points="16.3931,-407 129.607,-407 "/>
<text text-anchor="start" x="24.3931" y="-391.8" font-family="Times,serif" font-size="14.00">_layout</text>
</g>
<!-- ContextsController -->
<g id="node8" class="node"><title>ContextsController</title>
<path fill="none" stroke="black" d="M412.338,-193C412.338,-193 511.662,-193 511.662,-193 517.662,-193 523.662,-199 523.662,-205 523.662,-205 523.662,-273 523.662,-273 523.662,-279 517.662,-285 511.662,-285 511.662,-285 412.338,-285 412.338,-285 406.338,-285 400.338,-279 400.338,-273 400.338,-273 400.338,-205 400.338,-205 400.338,-199 406.338,-193 412.338,-193"/>
<text text-anchor="middle" x="462" y="-269.8" font-family="Times,serif" font-size="14.00">ContextsController</text>
<polyline fill="none" stroke="black" points="400.338,-263 523.662,-263 "/>
<polyline fill="none" stroke="black" points="400.338,-239 523.662,-239 "/>
<polyline fill="none" stroke="black" points="400.338,-215 523.662,-215 "/>
<text text-anchor="start" x="408.338" y="-199.8" font-family="Times,serif" font-size="14.00">_layout</text>
</g>
<!-- FociController -->
<g id="node9" class="node"><title>FociController</title>
<path fill="none" stroke="black" d="M283.783,-113C283.783,-113 358.217,-113 358.217,-113 364.217,-113 370.217,-119 370.217,-125 370.217,-125 370.217,-303 370.217,-303 370.217,-309 364.217,-315 358.217,-315 358.217,-315 283.783,-315 283.783,-315 277.783,-315 271.783,-309 271.783,-303 271.783,-303 271.783,-125 271.783,-125 271.783,-119 277.783,-113 283.783,-113"/>
<text text-anchor="middle" x="321" y="-299.8" font-family="Times,serif" font-size="14.00">FociController</text>
<polyline fill="none" stroke="black" points="271.783,-293 370.217,-293 "/>
<text text-anchor="start" x="279.783" y="-277.8" font-family="Times,serif" font-size="14.00">index</text>
<text text-anchor="start" x="279.783" y="-263.8" font-family="Times,serif" font-size="14.00">destroy</text>
<text text-anchor="start" x="279.783" y="-249.8" font-family="Times,serif" font-size="14.00">edit</text>
<text text-anchor="start" x="279.783" y="-235.8" font-family="Times,serif" font-size="14.00">create</text>
<text text-anchor="start" x="279.783" y="-221.8" font-family="Times,serif" font-size="14.00">new</text>
<text text-anchor="start" x="279.783" y="-207.8" font-family="Times,serif" font-size="14.00">show</text>
<text text-anchor="start" x="279.783" y="-193.8" font-family="Times,serif" font-size="14.00">update</text>
<polyline fill="none" stroke="black" points="271.783,-187 370.217,-187 "/>
<polyline fill="none" stroke="black" points="271.783,-163 370.217,-163 "/>
<text text-anchor="start" x="279.783" y="-147.8" font-family="Times,serif" font-size="14.00">_layout</text>
<text text-anchor="start" x="279.783" y="-133.8" font-family="Times,serif" font-size="14.00">focus_params</text>
<text text-anchor="start" x="279.783" y="-119.8" font-family="Times,serif" font-size="14.00">set_focus</text>
</g>
<!-- GroupsController -->
<g id="node10" class="node"><title>GroupsController</title>
<path fill="none" stroke="black" d="M139.617,-113C139.617,-113 230.383,-113 230.383,-113 236.383,-113 242.383,-119 242.383,-125 242.383,-125 242.383,-303 242.383,-303 242.383,-309 236.383,-315 230.383,-315 230.383,-315 139.617,-315 139.617,-315 133.617,-315 127.617,-309 127.617,-303 127.617,-303 127.617,-125 127.617,-125 127.617,-119 133.617,-113 139.617,-113"/>
<text text-anchor="middle" x="185" y="-299.8" font-family="Times,serif" font-size="14.00">GroupsController</text>
<polyline fill="none" stroke="black" points="127.617,-293 242.383,-293 "/>
<text text-anchor="start" x="135.617" y="-277.8" font-family="Times,serif" font-size="14.00">index</text>
<text text-anchor="start" x="135.617" y="-263.8" font-family="Times,serif" font-size="14.00">destroy</text>
<text text-anchor="start" x="135.617" y="-249.8" font-family="Times,serif" font-size="14.00">edit</text>
<text text-anchor="start" x="135.617" y="-235.8" font-family="Times,serif" font-size="14.00">create</text>
<text text-anchor="start" x="135.617" y="-221.8" font-family="Times,serif" font-size="14.00">new</text>
<text text-anchor="start" x="135.617" y="-207.8" font-family="Times,serif" font-size="14.00">show</text>
<text text-anchor="start" x="135.617" y="-193.8" font-family="Times,serif" font-size="14.00">update</text>
<polyline fill="none" stroke="black" points="127.617,-187 242.383,-187 "/>
<polyline fill="none" stroke="black" points="127.617,-163 242.383,-163 "/>
<text text-anchor="start" x="135.617" y="-147.8" font-family="Times,serif" font-size="14.00">_layout</text>
<text text-anchor="start" x="135.617" y="-133.8" font-family="Times,serif" font-size="14.00">group_params</text>
<text text-anchor="start" x="135.617" y="-119.8" font-family="Times,serif" font-size="14.00">set_group</text>
</g>
<!-- IdentitiesController -->
<g id="node11" class="node"><title>IdentitiesController</title>
<path fill="none" stroke="black" d="M60.1792,399C60.1792,399 161.821,399 161.821,399 167.821,399 173.821,393 173.821,387 173.821,387 173.821,321 173.821,321 173.821,315 167.821,309 161.821,309 161.821,309 60.1792,309 60.1792,309 54.1792,309 48.1792,315 48.1792,321 48.1792,321 48.1792,387 48.1792,387 48.1792,393 54.1792,399 60.1792,399"/>
<text text-anchor="middle" x="111" y="324.2" font-family="Times,serif" font-size="14.00">IdentitiesController</text>
<polyline fill="none" stroke="black" points="48.1792,331 173.821,331 "/>
<text text-anchor="start" x="56.1792" y="346.2" font-family="Times,serif" font-size="14.00">destroy</text>
<polyline fill="none" stroke="black" points="48.1792,353 173.821,353 "/>
<polyline fill="none" stroke="black" points="48.1792,377 173.821,377 "/>
<text text-anchor="start" x="56.1792" y="392.2" font-family="Times,serif" font-size="14.00">_layout</text>
</g>
<!-- InterestsController -->
<g id="node12" class="node"><title>InterestsController</title>
<path fill="none" stroke="black" d="M-260.486,63C-260.486,63 -163.514,63 -163.514,63 -157.514,63 -151.514,57 -151.514,51 -151.514,51 -151.514,-127 -151.514,-127 -151.514,-133 -157.514,-139 -163.514,-139 -163.514,-139 -260.486,-139 -260.486,-139 -266.486,-139 -272.486,-133 -272.486,-127 -272.486,-127 -272.486,51 -272.486,51 -272.486,57 -266.486,63 -260.486,63"/>
<text text-anchor="middle" x="-212" y="-123.8" font-family="Times,serif" font-size="14.00">InterestsController</text>
<polyline fill="none" stroke="black" points="-272.486,-117 -151.514,-117 "/>
<text text-anchor="start" x="-264.486" y="-101.8" font-family="Times,serif" font-size="14.00">index</text>
<text text-anchor="start" x="-264.486" y="-87.8" font-family="Times,serif" font-size="14.00">destroy</text>
<text text-anchor="start" x="-264.486" y="-73.8" font-family="Times,serif" font-size="14.00">edit</text>
<text text-anchor="start" x="-264.486" y="-59.8" font-family="Times,serif" font-size="14.00">create</text>
<text text-anchor="start" x="-264.486" y="-45.8" font-family="Times,serif" font-size="14.00">new</text>
<text text-anchor="start" x="-264.486" y="-31.8" font-family="Times,serif" font-size="14.00">show</text>
<text text-anchor="start" x="-264.486" y="-17.8" font-family="Times,serif" font-size="14.00">update</text>
<polyline fill="none" stroke="black" points="-272.486,-11 -151.514,-11 "/>
<polyline fill="none" stroke="black" points="-272.486,13 -151.514,13 "/>
<text text-anchor="start" x="-264.486" y="28.2" font-family="Times,serif" font-size="14.00">_layout</text>
<text text-anchor="start" x="-264.486" y="42.2" font-family="Times,serif" font-size="14.00">interest_params</text>
<text text-anchor="start" x="-264.486" y="56.2" font-family="Times,serif" font-size="14.00">set_interest</text>
</g>
<!-- IssuesController -->
<g id="node13" class="node"><title>IssuesController</title>
<path fill="none" stroke="black" d="M-403.883,47C-403.883,47 -320.117,47 -320.117,47 -314.117,47 -308.117,41 -308.117,35 -308.117,35 -308.117,-33 -308.117,-33 -308.117,-39 -314.117,-45 -320.117,-45 -320.117,-45 -403.883,-45 -403.883,-45 -409.883,-45 -415.883,-39 -415.883,-33 -415.883,-33 -415.883,35 -415.883,35 -415.883,41 -409.883,47 -403.883,47"/>
<text text-anchor="middle" x="-362" y="-29.8" font-family="Times,serif" font-size="14.00">IssuesController</text>
<polyline fill="none" stroke="black" points="-415.883,-23 -308.117,-23 "/>
<polyline fill="none" stroke="black" points="-415.883,1 -308.117,1 "/>
<polyline fill="none" stroke="black" points="-415.883,25 -308.117,25 "/>
<text text-anchor="start" x="-407.883" y="40.2" font-family="Times,serif" font-size="14.00">_layout</text>
</g>
<!-- MembersController -->
<g id="node14" class="node"><title>MembersController</title>
<path fill="none" stroke="black" d="M-164.21,-177C-164.21,-177 -61.7896,-177 -61.7896,-177 -55.7896,-177 -49.7896,-183 -49.7896,-189 -49.7896,-189 -49.7896,-367 -49.7896,-367 -49.7896,-373 -55.7896,-379 -61.7896,-379 -61.7896,-379 -164.21,-379 -164.21,-379 -170.21,-379 -176.21,-373 -176.21,-367 -176.21,-367 -176.21,-189 -176.21,-189 -176.21,-183 -170.21,-177 -164.21,-177"/>
<text text-anchor="middle" x="-113" y="-363.8" font-family="Times,serif" font-size="14.00">MembersController</text>
<polyline fill="none" stroke="black" points="-176.21,-357 -49.7896,-357 "/>
<text text-anchor="start" x="-168.21" y="-341.8" font-family="Times,serif" font-size="14.00">index</text>
<text text-anchor="start" x="-168.21" y="-327.8" font-family="Times,serif" font-size="14.00">destroy</text>
<text text-anchor="start" x="-168.21" y="-313.8" font-family="Times,serif" font-size="14.00">edit</text>
<text text-anchor="start" x="-168.21" y="-299.8" font-family="Times,serif" font-size="14.00">create</text>
<text text-anchor="start" x="-168.21" y="-285.8" font-family="Times,serif" font-size="14.00">new</text>
<text text-anchor="start" x="-168.21" y="-271.8" font-family="Times,serif" font-size="14.00">show</text>
<text text-anchor="start" x="-168.21" y="-257.8" font-family="Times,serif" font-size="14.00">update</text>
<polyline fill="none" stroke="black" points="-176.21,-251 -49.7896,-251 "/>
<polyline fill="none" stroke="black" points="-176.21,-227 -49.7896,-227 "/>
<text text-anchor="start" x="-168.21" y="-211.8" font-family="Times,serif" font-size="14.00">_layout</text>
<text text-anchor="start" x="-168.21" y="-197.8" font-family="Times,serif" font-size="14.00">member_params</text>
<text text-anchor="start" x="-168.21" y="-183.8" font-family="Times,serif" font-size="14.00">set_member</text>
</g>
<!-- ObjectivesController -->
<g id="node15" class="node"><title>ObjectivesController</title>
<path fill="none" stroke="black" d="M-323.707,-337C-323.707,-337 -214.293,-337 -214.293,-337 -208.293,-337 -202.293,-343 -202.293,-349 -202.293,-349 -202.293,-417 -202.293,-417 -202.293,-423 -208.293,-429 -214.293,-429 -214.293,-429 -323.707,-429 -323.707,-429 -329.707,-429 -335.707,-423 -335.707,-417 -335.707,-417 -335.707,-349 -335.707,-349 -335.707,-343 -329.707,-337 -323.707,-337"/>
<text text-anchor="middle" x="-269" y="-413.8" font-family="Times,serif" font-size="14.00">ObjectivesController</text>
<polyline fill="none" stroke="black" points="-335.707,-407 -202.293,-407 "/>
<polyline fill="none" stroke="black" points="-335.707,-383 -202.293,-383 "/>
<polyline fill="none" stroke="black" points="-335.707,-359 -202.293,-359 "/>
<text text-anchor="start" x="-327.707" y="-343.8" font-family="Times,serif" font-size="14.00">_layout</text>
</g>
<!-- ParticipantsController -->
<g id="node16" class="node"><title>ParticipantsController</title>
<path fill="none" stroke="black" d="M-339.821,-209C-339.821,-209 -224.179,-209 -224.179,-209 -218.179,-209 -212.179,-215 -212.179,-221 -212.179,-221 -212.179,-289 -212.179,-289 -212.179,-295 -218.179,-301 -224.179,-301 -224.179,-301 -339.821,-301 -339.821,-301 -345.821,-301 -351.821,-295 -351.821,-289 -351.821,-289 -351.821,-221 -351.821,-221 -351.821,-215 -345.821,-209 -339.821,-209"/>
<text text-anchor="middle" x="-282" y="-285.8" font-family="Times,serif" font-size="14.00">ParticipantsController</text>
<polyline fill="none" stroke="black" points="-351.821,-279 -212.179,-279 "/>
<polyline fill="none" stroke="black" points="-351.821,-255 -212.179,-255 "/>
<polyline fill="none" stroke="black" points="-351.821,-231 -212.179,-231 "/>
<text text-anchor="start" x="-343.821" y="-215.8" font-family="Times,serif" font-size="14.00">_layout</text>
</g>
<!-- PlacesController -->
<g id="node17" class="node"><title>PlacesController</title>
<path fill="none" stroke="black" d="M-403.655,-81C-403.655,-81 -318.345,-81 -318.345,-81 -312.345,-81 -306.345,-87 -306.345,-93 -306.345,-93 -306.345,-161 -306.345,-161 -306.345,-167 -312.345,-173 -318.345,-173 -318.345,-173 -403.655,-173 -403.655,-173 -409.655,-173 -415.655,-167 -415.655,-161 -415.655,-161 -415.655,-93 -415.655,-93 -415.655,-87 -409.655,-81 -403.655,-81"/>
<text text-anchor="middle" x="-361" y="-157.8" font-family="Times,serif" font-size="14.00">PlacesController</text>
<polyline fill="none" stroke="black" points="-415.655,-151 -306.345,-151 "/>
<polyline fill="none" stroke="black" points="-415.655,-127 -306.345,-127 "/>
<polyline fill="none" stroke="black" points="-415.655,-103 -306.345,-103 "/>
<text text-anchor="start" x="-407.655" y="-87.8" font-family="Times,serif" font-size="14.00">_layout</text>
</g>
<!-- ProvidersController -->
<g id="node18" class="node"><title>ProvidersController</title>
<path fill="none" stroke="black" d="M-99.6035,367C-99.6035,367 3.60352,367 3.60352,367 9.60352,367 15.6035,361 15.6035,355 15.6035,355 15.6035,287 15.6035,287 15.6035,281 9.60352,275 3.60352,275 3.60352,275 -99.6035,275 -99.6035,275 -105.604,275 -111.604,281 -111.604,287 -111.604,287 -111.604,355 -111.604,355 -111.604,361 -105.604,367 -99.6035,367"/>
<text text-anchor="middle" x="-48" y="290.2" font-family="Times,serif" font-size="14.00">ProvidersController</text>
<polyline fill="none" stroke="black" points="-111.604,297 15.6035,297 "/>
<polyline fill="none" stroke="black" points="-111.604,321 15.6035,321 "/>
<polyline fill="none" stroke="black" points="-111.604,345 15.6035,345 "/>
<text text-anchor="start" x="-103.604" y="360.2" font-family="Times,serif" font-size="14.00">_layout</text>
</g>
<!-- ResultsController -->
<g id="node19" class="node"><title>ResultsController</title>
<path fill="none" stroke="black" d="M-4.38623,-145C-4.38623,-145 86.3862,-145 86.3862,-145 92.3862,-145 98.3862,-151 98.3862,-157 98.3862,-157 98.3862,-335 98.3862,-335 98.3862,-341 92.3862,-347 86.3862,-347 86.3862,-347 -4.38623,-347 -4.38623,-347 -10.3862,-347 -16.3862,-341 -16.3862,-335 -16.3862,-335 -16.3862,-157 -16.3862,-157 -16.3862,-151 -10.3862,-145 -4.38623,-145"/>
<text text-anchor="middle" x="41" y="-331.8" font-family="Times,serif" font-size="14.00">ResultsController</text>
<polyline fill="none" stroke="black" points="-16.3862,-325 98.3862,-325 "/>
<text text-anchor="start" x="-8.38623" y="-309.8" font-family="Times,serif" font-size="14.00">index</text>
<text text-anchor="start" x="-8.38623" y="-295.8" font-family="Times,serif" font-size="14.00">destroy</text>
<text text-anchor="start" x="-8.38623" y="-281.8" font-family="Times,serif" font-size="14.00">edit</text>
<text text-anchor="start" x="-8.38623" y="-267.8" font-family="Times,serif" font-size="14.00">create</text>
<text text-anchor="start" x="-8.38623" y="-253.8" font-family="Times,serif" font-size="14.00">new</text>
<text text-anchor="start" x="-8.38623" y="-239.8" font-family="Times,serif" font-size="14.00">show</text>
<text text-anchor="start" x="-8.38623" y="-225.8" font-family="Times,serif" font-size="14.00">update</text>
<polyline fill="none" stroke="black" points="-16.3862,-219 98.3862,-219 "/>
<polyline fill="none" stroke="black" points="-16.3862,-195 98.3862,-195 "/>
<text text-anchor="start" x="-8.38623" y="-179.8" font-family="Times,serif" font-size="14.00">_layout</text>
<text text-anchor="start" x="-8.38623" y="-165.8" font-family="Times,serif" font-size="14.00">result_params</text>
<text text-anchor="start" x="-8.38623" y="-151.8" font-family="Times,serif" font-size="14.00">set_result</text>
</g>
<!-- RolesController -->
<g id="node20" class="node"><title>RolesController</title>
<path fill="none" stroke="black" d="M316.283,303C316.283,303 397.717,303 397.717,303 403.717,303 409.717,297 409.717,291 409.717,291 409.717,113 409.717,113 409.717,107 403.717,101 397.717,101 397.717,101 316.283,101 316.283,101 310.283,101 304.283,107 304.283,113 304.283,113 304.283,291 304.283,291 304.283,297 310.283,303 316.283,303"/>
<text text-anchor="middle" x="357" y="116.2" font-family="Times,serif" font-size="14.00">RolesController</text>
<polyline fill="none" stroke="black" points="304.283,123 409.717,123 "/>
<text text-anchor="start" x="312.283" y="138.2" font-family="Times,serif" font-size="14.00">index</text>
<text text-anchor="start" x="312.283" y="152.2" font-family="Times,serif" font-size="14.00">destroy</text>
<text text-anchor="start" x="312.283" y="166.2" font-family="Times,serif" font-size="14.00">edit</text>
<text text-anchor="start" x="312.283" y="180.2" font-family="Times,serif" font-size="14.00">create</text>
<text text-anchor="start" x="312.283" y="194.2" font-family="Times,serif" font-size="14.00">new</text>
<text text-anchor="start" x="312.283" y="208.2" font-family="Times,serif" font-size="14.00">show</text>
<text text-anchor="start" x="312.283" y="222.2" font-family="Times,serif" font-size="14.00">update</text>
<polyline fill="none" stroke="black" points="304.283,229 409.717,229 "/>
<polyline fill="none" stroke="black" points="304.283,253 409.717,253 "/>
<text text-anchor="start" x="312.283" y="268.2" font-family="Times,serif" font-size="14.00">_layout</text>
<text text-anchor="start" x="312.283" y="282.2" font-family="Times,serif" font-size="14.00">role_params</text>
<text text-anchor="start" x="312.283" y="296.2" font-family="Times,serif" font-size="14.00">set_role</text>
</g>
<!-- SessionsController -->
<g id="node21" class="node"><title>SessionsController</title>
<path fill="none" stroke="black" d="M-276.207,255C-276.207,255 -159.793,255 -159.793,255 -153.793,255 -147.793,249 -147.793,243 -147.793,243 -147.793,107 -147.793,107 -147.793,101 -153.793,95 -159.793,95 -159.793,95 -276.207,95 -276.207,95 -282.207,95 -288.207,101 -288.207,107 -288.207,107 -288.207,243 -288.207,243 -288.207,249 -282.207,255 -276.207,255"/>
<text text-anchor="middle" x="-218" y="110.2" font-family="Times,serif" font-size="14.00">SessionsController</text>
<polyline fill="none" stroke="black" points="-288.207,117 -147.793,117 "/>
<text text-anchor="start" x="-280.207" y="132.2" font-family="Times,serif" font-size="14.00">authenticate</text>
<text text-anchor="start" x="-280.207" y="146.2" font-family="Times,serif" font-size="14.00">callback</text>
<text text-anchor="start" x="-280.207" y="160.2" font-family="Times,serif" font-size="14.00">cleanse_session</text>
<text text-anchor="start" x="-280.207" y="174.2" font-family="Times,serif" font-size="14.00">destroy</text>
<text text-anchor="start" x="-280.207" y="188.2" font-family="Times,serif" font-size="14.00">openid_connect_login</text>
<text text-anchor="start" x="-280.207" y="202.2" font-family="Times,serif" font-size="14.00">public_keys_for</text>
<polyline fill="none" stroke="black" points="-288.207,209 -147.793,209 "/>
<polyline fill="none" stroke="black" points="-288.207,233 -147.793,233 "/>
<text text-anchor="start" x="-280.207" y="248.2" font-family="Times,serif" font-size="14.00">_layout</text>
</g>
<!-- Smart::LaunchController -->
<g id="node22" class="node"><title>Smart::LaunchController</title>
<path fill="none" stroke="black" d="M171.627,-353C171.627,-353 304.373,-353 304.373,-353 310.373,-353 316.373,-359 316.373,-365 316.373,-365 316.373,-431 316.373,-431 316.373,-437 310.373,-443 304.373,-443 304.373,-443 171.627,-443 171.627,-443 165.627,-443 159.627,-437 159.627,-431 159.627,-431 159.627,-365 159.627,-365 159.627,-359 165.627,-353 171.627,-353"/>
<text text-anchor="middle" x="238" y="-427.8" font-family="Times,serif" font-size="14.00">Smart::LaunchController</text>
<polyline fill="none" stroke="black" points="159.627,-421 316.373,-421 "/>
<text text-anchor="start" x="167.627" y="-405.8" font-family="Times,serif" font-size="14.00">launch</text>
<polyline fill="none" stroke="black" points="159.627,-399 316.373,-399 "/>
<polyline fill="none" stroke="black" points="159.627,-375 316.373,-375 "/>
<text text-anchor="start" x="167.627" y="-359.8" font-family="Times,serif" font-size="14.00">_layout</text>
</g>
<!-- SnomedctConceptsController -->
<g id="node23" class="node"><title>SnomedctConceptsController</title>
<path fill="none" stroke="black" d="M364.179,-353C364.179,-353 521.821,-353 521.821,-353 527.821,-353 533.821,-359 533.821,-365 533.821,-365 533.821,-431 533.821,-431 533.821,-437 527.821,-443 521.821,-443 521.821,-443 364.179,-443 364.179,-443 358.179,-443 352.179,-437 352.179,-431 352.179,-431 352.179,-365 352.179,-365 352.179,-359 358.179,-353 364.179,-353"/>
<text text-anchor="middle" x="443" y="-427.8" font-family="Times,serif" font-size="14.00">SnomedctConceptsController</text>
<polyline fill="none" stroke="black" points="352.179,-421 533.821,-421 "/>
<text text-anchor="start" x="360.179" y="-405.8" font-family="Times,serif" font-size="14.00">index</text>
<polyline fill="none" stroke="black" points="352.179,-399 533.821,-399 "/>
<polyline fill="none" stroke="black" points="352.179,-375 533.821,-375 "/>
<text text-anchor="start" x="360.179" y="-359.8" font-family="Times,serif" font-size="14.00">_layout</text>
</g>
<!-- SnomedctDescriptionsController -->
<g id="node24" class="node"><title>SnomedctDescriptionsController</title>
<path fill="none" stroke="black" d="M-100.152,239C-100.152,239 76.1519,239 76.1519,239 82.1519,239 88.1519,233 88.1519,227 88.1519,227 88.1519,159 88.1519,159 88.1519,153 82.1519,147 76.1519,147 76.1519,147 -100.152,147 -100.152,147 -106.152,147 -112.152,153 -112.152,159 -112.152,159 -112.152,227 -112.152,227 -112.152,233 -106.152,239 -100.152,239"/>
<text text-anchor="middle" x="-12" y="162.2" font-family="Times,serif" font-size="14.00">SnomedctDescriptionsController</text>
<polyline fill="none" stroke="black" points="-112.152,169 88.1519,169 "/>
<polyline fill="none" stroke="black" points="-112.152,193 88.1519,193 "/>
<polyline fill="none" stroke="black" points="-112.152,217 88.1519,217 "/>
<text text-anchor="start" x="-104.152" y="232.2" font-family="Times,serif" font-size="14.00">_layout</text>
</g>
<!-- UsersController -->
<g id="node25" class="node"><title>UsersController</title>
<path fill="none" stroke="black" d="M412.286,-49C412.286,-49 493.714,-49 493.714,-49 499.714,-49 505.714,-55 505.714,-61 505.714,-61 505.714,-141 505.714,-141 505.714,-147 499.714,-153 493.714,-153 493.714,-153 412.286,-153 412.286,-153 406.286,-153 400.286,-147 400.286,-141 400.286,-141 400.286,-61 400.286,-61 400.286,-55 406.286,-49 412.286,-49"/>
<text text-anchor="middle" x="453" y="-137.8" font-family="Times,serif" font-size="14.00">UsersController</text>
<polyline fill="none" stroke="black" points="400.286,-131 505.714,-131 "/>
<text text-anchor="start" x="408.286" y="-115.8" font-family="Times,serif" font-size="14.00">edit</text>
<text text-anchor="start" x="408.286" y="-101.8" font-family="Times,serif" font-size="14.00">index</text>
<polyline fill="none" stroke="black" points="400.286,-95 505.714,-95 "/>
<polyline fill="none" stroke="black" points="400.286,-71 505.714,-71 "/>
<text text-anchor="start" x="408.286" y="-55.8" font-family="Times,serif" font-size="14.00">_layout</text>
</g>
<!-- WelcomeController -->
<g id="node26" class="node"><title>WelcomeController</title>
<path fill="none" stroke="black" d="M139.967,271C139.967,271 242.033,271 242.033,271 248.033,271 254.033,265 254.033,259 254.033,259 254.033,165 254.033,165 254.033,159 248.033,153 242.033,153 242.033,153 139.967,153 139.967,153 133.967,153 127.967,159 127.967,165 127.967,165 127.967,259 127.967,259 127.967,265 133.967,271 139.967,271"/>
<text text-anchor="middle" x="191" y="168.2" font-family="Times,serif" font-size="14.00">WelcomeController</text>
<polyline fill="none" stroke="black" points="127.967,175 254.033,175 "/>
<text text-anchor="start" x="135.967" y="190.2" font-family="Times,serif" font-size="14.00">dashboard</text>
<text text-anchor="start" x="135.967" y="204.2" font-family="Times,serif" font-size="14.00">landing</text>
<text text-anchor="start" x="135.967" y="218.2" font-family="Times,serif" font-size="14.00">status</text>
<polyline fill="none" stroke="black" points="127.967,225 254.033,225 "/>
<polyline fill="none" stroke="black" points="127.967,249 254.033,249 "/>
<text text-anchor="start" x="135.967" y="264.2" font-family="Times,serif" font-size="14.00">_layout</text>
</g>
</g>
</svg>
