<?xml version="1.0" encoding="UTF-8" standalone="no"?>
<!DOCTYPE svg PUBLIC "-//W3C//DTD SVG 1.1//EN"
 "http://www.w3.org/Graphics/SVG/1.1/DTD/svg11.dtd">
<!-- Generated by graphviz version 2.40.1 (20161225.0304)
 -->
<!-- Title: controllers_diagram Pages: 1 -->
<svg width="759pt" height="757pt"
 viewBox="0.00 0.00 759.44 757.00" xmlns="http://www.w3.org/2000/svg" xmlns:xlink="http://www.w3.org/1999/xlink">
<g id="graph0" class="graph" transform="scale(1 1) rotate(0) translate(4 753)">
<title>controllers_diagram</title>
<polygon fill="transparent" stroke="transparent" points="-4,4 -4,-753 755.4404,-753 755.4404,4 -4,4"/>
<!-- _diagram_info -->
<g id="node1" class="node">
<title>_diagram_info</title>
<text text-anchor="start" x="584" y="-218.6" font-family="Times,serif" font-size="13.00" fill="#000000">Controllers diagram</text>
<text text-anchor="start" x="584" y="-205.6" font-family="Times,serif" font-size="13.00" fill="#000000">Date: May 23 2018 &#45; 15:54</text>
<text text-anchor="start" x="584" y="-192.6" font-family="Times,serif" font-size="13.00" fill="#000000">Migration version: 1</text>
<text text-anchor="start" x="584" y="-179.6" font-family="Times,serif" font-size="13.00" fill="#000000">Generated by RailRoady 1.5.3</text>
<text text-anchor="start" x="584" y="-166.6" font-family="Times,serif" font-size="13.00" fill="#000000">http://railroady.prestonlee.com</text>
</g>
<!-- ApplicationController -->
<g id="node2" class="node">
<title>ApplicationController</title>
<path fill="none" stroke="#000000" d="M236,-176.5C236,-176.5 351.6416,-176.5 351.6416,-176.5 357.6416,-176.5 363.6416,-182.5 363.6416,-188.5 363.6416,-188.5 363.6416,-396.5 363.6416,-396.5 363.6416,-402.5 357.6416,-408.5 351.6416,-408.5 351.6416,-408.5 236,-408.5 236,-408.5 230,-408.5 224,-402.5 224,-396.5 224,-396.5 224,-188.5 224,-188.5 224,-182.5 230,-176.5 236,-176.5"/>
<text text-anchor="middle" x="293.8208" y="-393.3" font-family="Times,serif" font-size="14.00" fill="#000000">ApplicationController</text>
<polyline fill="none" stroke="#000000" points="224,-386.5 363.6416,-386.5 "/>
<text text-anchor="start" x="232" y="-371.3" font-family="Times,serif" font-size="14.00" fill="#000000">unauthenticate!</text>
<text text-anchor="start" x="232" y="-357.3" font-family="Times,serif" font-size="14.00" fill="#000000">_cancan_skipper=</text>
<text text-anchor="start" x="232" y="-343.3" font-family="Times,serif" font-size="14.00" fill="#000000">_cancan_skipper?</text>
<text text-anchor="start" x="232" y="-329.3" font-family="Times,serif" font-size="14.00" fill="#000000">authenticate_identity!</text>
<text text-anchor="start" x="232" y="-315.3" font-family="Times,serif" font-size="14.00" fill="#000000">build_oauth_request</text>
<text text-anchor="start" x="232" y="-301.3" font-family="Times,serif" font-size="14.00" fill="#000000">current_identity</text>
<text text-anchor="start" x="232" y="-287.3" font-family="Times,serif" font-size="14.00" fill="#000000">current_person</text>
<text text-anchor="start" x="232" y="-273.3" font-family="Times,serif" font-size="14.00" fill="#000000">current_user</text>
<text text-anchor="start" x="232" y="-259.3" font-family="Times,serif" font-size="14.00" fill="#000000">new_nonce</text>
<text text-anchor="start" x="232" y="-245.3" font-family="Times,serif" font-size="14.00" fill="#000000">stored_nonce</text>
<text text-anchor="start" x="232" y="-231.3" font-family="Times,serif" font-size="14.00" fill="#000000">_cancan_skipper</text>
<polyline fill="none" stroke="#000000" points="224,-224.5 363.6416,-224.5 "/>
<polyline fill="none" stroke="#000000" points="224,-200.5 363.6416,-200.5 "/>
</g>
<!-- EventsController -->
<g id="node3" class="node">
<title>EventsController</title>
<path fill="none" stroke="#000000" d="M252,-448.5C252,-448.5 387.0488,-448.5 387.0488,-448.5 393.0488,-448.5 399.0488,-454.5 399.0488,-460.5 399.0488,-460.5 399.0488,-582.5 399.0488,-582.5 399.0488,-588.5 393.0488,-594.5 387.0488,-594.5 387.0488,-594.5 252,-594.5 252,-594.5 246,-594.5 240,-588.5 240,-582.5 240,-582.5 240,-460.5 240,-460.5 240,-454.5 246,-448.5 252,-448.5"/>
<text text-anchor="middle" x="319.5244" y="-579.3" font-family="Times,serif" font-size="14.00" fill="#000000">EventsController</text>
<polyline fill="none" stroke="#000000" points="240,-572.5 399.0488,-572.5 "/>
<text text-anchor="start" x="248" y="-557.3" font-family="Times,serif" font-size="14.00" fill="#000000">create</text>
<text text-anchor="start" x="248" y="-543.3" font-family="Times,serif" font-size="14.00" fill="#000000">destroy</text>
<text text-anchor="start" x="248" y="-529.3" font-family="Times,serif" font-size="14.00" fill="#000000">index</text>
<text text-anchor="start" x="248" y="-515.3" font-family="Times,serif" font-size="14.00" fill="#000000">update</text>
<polyline fill="none" stroke="#000000" points="240,-508.5 399.0488,-508.5 "/>
<polyline fill="none" stroke="#000000" points="240,-484.5 399.0488,-484.5 "/>
<text text-anchor="start" x="248" y="-469.3" font-family="Times,serif" font-size="14.00" fill="#000000">event_params</text>
<text text-anchor="start" x="248" y="-455.3" font-family="Times,serif" font-size="14.00" fill="#000000">parameters_from_params</text>
</g>
<!-- PeopleController -->
<g id="node4" class="node">
<title>PeopleController</title>
<path fill="none" stroke="#000000" d="M460,-656.5C460,-656.5 547.6484,-656.5 547.6484,-656.5 553.6484,-656.5 559.6484,-662.5 559.6484,-668.5 559.6484,-668.5 559.6484,-736.5 559.6484,-736.5 559.6484,-742.5 553.6484,-748.5 547.6484,-748.5 547.6484,-748.5 460,-748.5 460,-748.5 454,-748.5 448,-742.5 448,-736.5 448,-736.5 448,-668.5 448,-668.5 448,-662.5 454,-656.5 460,-656.5"/>
<text text-anchor="middle" x="503.8242" y="-733.3" font-family="Times,serif" font-size="14.00" fill="#000000">PeopleController</text>
<polyline fill="none" stroke="#000000" points="448,-726.5 559.6484,-726.5 "/>
<text text-anchor="start" x="456" y="-711.3" font-family="Times,serif" font-size="14.00" fill="#000000">index</text>
<polyline fill="none" stroke="#000000" points="448,-704.5 559.6484,-704.5 "/>
<polyline fill="none" stroke="#000000" points="448,-680.5 559.6484,-680.5 "/>
</g>
<!-- ClientsController -->
<g id="node5" class="node">
<title>ClientsController</title>
<path fill="none" stroke="#000000" d="M604,-592.5C604,-592.5 693.2139,-592.5 693.2139,-592.5 699.2139,-592.5 705.2139,-598.5 705.2139,-604.5 705.2139,-604.5 705.2139,-686.5 705.2139,-686.5 705.2139,-692.5 699.2139,-698.5 693.2139,-698.5 693.2139,-698.5 604,-698.5 604,-698.5 598,-698.5 592,-692.5 592,-686.5 592,-686.5 592,-604.5 592,-604.5 592,-598.5 598,-592.5 604,-592.5"/>
<text text-anchor="middle" x="648.6069" y="-683.3" font-family="Times,serif" font-size="14.00" fill="#000000">ClientsController</text>
<polyline fill="none" stroke="#000000" points="592,-676.5 705.2139,-676.5 "/>
<text text-anchor="start" x="600" y="-661.3" font-family="Times,serif" font-size="14.00" fill="#000000">index</text>
<text text-anchor="start" x="600" y="-647.3" font-family="Times,serif" font-size="14.00" fill="#000000">launch</text>
<polyline fill="none" stroke="#000000" points="592,-640.5 705.2139,-640.5 "/>
<polyline fill="none" stroke="#000000" points="592,-616.5 705.2139,-616.5 "/>
</g>
<!-- ContextsController -->
<g id="node6" class="node">
<title>ContextsController</title>
<path fill="none" stroke="#000000" d="M284,-624.5C284,-624.5 383.3242,-624.5 383.3242,-624.5 389.3242,-624.5 395.3242,-630.5 395.3242,-636.5 395.3242,-636.5 395.3242,-706.5 395.3242,-706.5 395.3242,-712.5 389.3242,-718.5 383.3242,-718.5 383.3242,-718.5 284,-718.5 284,-718.5 278,-718.5 272,-712.5 272,-706.5 272,-706.5 272,-636.5 272,-636.5 272,-630.5 278,-624.5 284,-624.5"/>
<text text-anchor="middle" x="333.6621" y="-703.3" font-family="Times,serif" font-size="14.00" fill="#000000">ContextsController</text>
<polyline fill="none" stroke="#000000" points="272,-696.5 395.3242,-696.5 "/>
<polyline fill="none" stroke="#000000" points="272,-672.5 395.3242,-672.5 "/>
<polyline fill="none" stroke="#000000" points="272,-648.5 395.3242,-648.5 "/>
</g>
<!-- ObjectivesController -->
<g id="node7" class="node">
<title>ObjectivesController</title>
<path fill="none" stroke="#000000" d="M76,-128.5C76,-128.5 185.4141,-128.5 185.4141,-128.5 191.4141,-128.5 197.4141,-134.5 197.4141,-140.5 197.4141,-140.5 197.4141,-262.5 197.4141,-262.5 197.4141,-268.5 191.4141,-274.5 185.4141,-274.5 185.4141,-274.5 76,-274.5 76,-274.5 70,-274.5 64,-268.5 64,-262.5 64,-262.5 64,-140.5 64,-140.5 64,-134.5 70,-128.5 76,-128.5"/>
<text text-anchor="middle" x="130.707" y="-259.3" font-family="Times,serif" font-size="14.00" fill="#000000">ObjectivesController</text>
<polyline fill="none" stroke="#000000" points="64,-252.5 197.4141,-252.5 "/>
<text text-anchor="start" x="72" y="-237.3" font-family="Times,serif" font-size="14.00" fill="#000000">create</text>
<text text-anchor="start" x="72" y="-223.3" font-family="Times,serif" font-size="14.00" fill="#000000">destroy</text>
<text text-anchor="start" x="72" y="-209.3" font-family="Times,serif" font-size="14.00" fill="#000000">index</text>
<text text-anchor="start" x="72" y="-195.3" font-family="Times,serif" font-size="14.00" fill="#000000">show</text>
<text text-anchor="start" x="72" y="-181.3" font-family="Times,serif" font-size="14.00" fill="#000000">update</text>
<polyline fill="none" stroke="#000000" points="64,-174.5 197.4141,-174.5 "/>
<polyline fill="none" stroke="#000000" points="64,-150.5 197.4141,-150.5 "/>
<text text-anchor="start" x="72" y="-135.3" font-family="Times,serif" font-size="14.00" fill="#000000">objective_params</text>
</g>
<!-- PlacesController -->
<g id="node8" class="node">
<title>PlacesController</title>
<path fill="none" stroke="#000000" d="M236,-16.5C236,-16.5 321.3105,-16.5 321.3105,-16.5 327.3105,-16.5 333.3105,-22.5 333.3105,-28.5 333.3105,-28.5 333.3105,-136.5 333.3105,-136.5 333.3105,-142.5 327.3105,-148.5 321.3105,-148.5 321.3105,-148.5 236,-148.5 236,-148.5 230,-148.5 224,-142.5 224,-136.5 224,-136.5 224,-28.5 224,-28.5 224,-22.5 230,-16.5 236,-16.5"/>
<text text-anchor="middle" x="278.6553" y="-133.3" font-family="Times,serif" font-size="14.00" fill="#000000">PlacesController</text>
<polyline fill="none" stroke="#000000" points="224,-126.5 333.3105,-126.5 "/>
<text text-anchor="start" x="232" y="-111.3" font-family="Times,serif" font-size="14.00" fill="#000000">create</text>
<text text-anchor="start" x="232" y="-97.3" font-family="Times,serif" font-size="14.00" fill="#000000">destroy</text>
<text text-anchor="start" x="232" y="-83.3" font-family="Times,serif" font-size="14.00" fill="#000000">index</text>
<text text-anchor="start" x="232" y="-69.3" font-family="Times,serif" font-size="14.00" fill="#000000">update</text>
<polyline fill="none" stroke="#000000" points="224,-62.5 333.3105,-62.5 "/>
<polyline fill="none" stroke="#000000" points="224,-38.5 333.3105,-38.5 "/>
<text text-anchor="start" x="232" y="-23.3" font-family="Times,serif" font-size="14.00" fill="#000000">place_params</text>
</g>
<!-- GroupsController -->
<g id="node9" class="node">
<title>GroupsController</title>
<path fill="none" stroke="#000000" d="M444,-432.5C444,-432.5 534.7656,-432.5 534.7656,-432.5 540.7656,-432.5 546.7656,-438.5 546.7656,-444.5 546.7656,-444.5 546.7656,-608.5 546.7656,-608.5 546.7656,-614.5 540.7656,-620.5 534.7656,-620.5 534.7656,-620.5 444,-620.5 444,-620.5 438,-620.5 432,-614.5 432,-608.5 432,-608.5 432,-444.5 432,-444.5 432,-438.5 438,-432.5 444,-432.5"/>
<text text-anchor="middle" x="489.3828" y="-605.3" font-family="Times,serif" font-size="14.00" fill="#000000">GroupsController</text>
<polyline fill="none" stroke="#000000" points="432,-598.5 546.7656,-598.5 "/>
<text text-anchor="start" x="440" y="-583.3" font-family="Times,serif" font-size="14.00" fill="#000000">create</text>
<text text-anchor="start" x="440" y="-569.3" font-family="Times,serif" font-size="14.00" fill="#000000">destroy</text>
<text text-anchor="start" x="440" y="-555.3" font-family="Times,serif" font-size="14.00" fill="#000000">edit</text>
<text text-anchor="start" x="440" y="-541.3" font-family="Times,serif" font-size="14.00" fill="#000000">index</text>
<text text-anchor="start" x="440" y="-527.3" font-family="Times,serif" font-size="14.00" fill="#000000">new</text>
<text text-anchor="start" x="440" y="-513.3" font-family="Times,serif" font-size="14.00" fill="#000000">show</text>
<text text-anchor="start" x="440" y="-499.3" font-family="Times,serif" font-size="14.00" fill="#000000">update</text>
<polyline fill="none" stroke="#000000" points="432,-492.5 546.7656,-492.5 "/>
<polyline fill="none" stroke="#000000" points="432,-468.5 546.7656,-468.5 "/>
<text text-anchor="start" x="440" y="-453.3" font-family="Times,serif" font-size="14.00" fill="#000000">group_params</text>
<text text-anchor="start" x="440" y="-439.3" font-family="Times,serif" font-size="14.00" fill="#000000">set_group</text>
</g>
<!-- IdentityProvidersController -->
<g id="node10" class="node">
<title>IdentityProvidersController</title>
<path fill="none" stroke="#000000" d="M588,-32.5C588,-32.5 734.752,-32.5 734.752,-32.5 740.752,-32.5 746.752,-38.5 746.752,-44.5 746.752,-44.5 746.752,-112.5 746.752,-112.5 746.752,-118.5 740.752,-124.5 734.752,-124.5 734.752,-124.5 588,-124.5 588,-124.5 582,-124.5 576,-118.5 576,-112.5 576,-112.5 576,-44.5 576,-44.5 576,-38.5 582,-32.5 588,-32.5"/>
<text text-anchor="middle" x="661.376" y="-109.3" font-family="Times,serif" font-size="14.00" fill="#000000">IdentityProvidersController</text>
<polyline fill="none" stroke="#000000" points="576,-102.5 746.752,-102.5 "/>
<text text-anchor="start" x="584" y="-87.3" font-family="Times,serif" font-size="14.00" fill="#000000">launch</text>
<polyline fill="none" stroke="#000000" points="576,-80.5 746.752,-80.5 "/>
<polyline fill="none" stroke="#000000" points="576,-56.5 746.752,-56.5 "/>
</g>
<!-- SessionsController -->
<g id="node11" class="node">
<title>SessionsController</title>
<path fill="none" stroke="#000000" d="M412,-32.5C412,-32.5 528.4141,-32.5 528.4141,-32.5 534.4141,-32.5 540.4141,-38.5 540.4141,-44.5 540.4141,-44.5 540.4141,-168.5 540.4141,-168.5 540.4141,-174.5 534.4141,-180.5 528.4141,-180.5 528.4141,-180.5 412,-180.5 412,-180.5 406,-180.5 400,-174.5 400,-168.5 400,-168.5 400,-44.5 400,-44.5 400,-38.5 406,-32.5 412,-32.5"/>
<text text-anchor="middle" x="470.207" y="-165.3" font-family="Times,serif" font-size="14.00" fill="#000000">SessionsController</text>
<polyline fill="none" stroke="#000000" points="400,-158.5 540.4141,-158.5 "/>
<text text-anchor="start" x="408" y="-143.3" font-family="Times,serif" font-size="14.00" fill="#000000">callback</text>
<text text-anchor="start" x="408" y="-129.3" font-family="Times,serif" font-size="14.00" fill="#000000">cleanse_session</text>
<text text-anchor="start" x="408" y="-115.3" font-family="Times,serif" font-size="14.00" fill="#000000">destroy</text>
<text text-anchor="start" x="408" y="-101.3" font-family="Times,serif" font-size="14.00" fill="#000000">openid_connect_login</text>
<text text-anchor="start" x="408" y="-87.3" font-family="Times,serif" font-size="14.00" fill="#000000">public_keys_for</text>
<polyline fill="none" stroke="#000000" points="400,-80.5 540.4141,-80.5 "/>
<polyline fill="none" stroke="#000000" points="400,-56.5 540.4141,-56.5 "/>
</g>
<!-- WelcomeController -->
<g id="node12" class="node">
<title>WelcomeController</title>
<path fill="none" stroke="#000000" d="M588,-272.5C588,-272.5 690.0654,-272.5 690.0654,-272.5 696.0654,-272.5 702.0654,-278.5 702.0654,-284.5 702.0654,-284.5 702.0654,-380.5 702.0654,-380.5 702.0654,-386.5 696.0654,-392.5 690.0654,-392.5 690.0654,-392.5 588,-392.5 588,-392.5 582,-392.5 576,-386.5 576,-380.5 576,-380.5 576,-284.5 576,-284.5 576,-278.5 582,-272.5 588,-272.5"/>
<text text-anchor="middle" x="639.0327" y="-377.3" font-family="Times,serif" font-size="14.00" fill="#000000">WelcomeController</text>
<polyline fill="none" stroke="#000000" points="576,-370.5 702.0654,-370.5 "/>
<text text-anchor="start" x="584" y="-355.3" font-family="Times,serif" font-size="14.00" fill="#000000">landing</text>
<text text-anchor="start" x="584" y="-341.3" font-family="Times,serif" font-size="14.00" fill="#000000">status</text>
<text text-anchor="start" x="584" y="-327.3" font-family="Times,serif" font-size="14.00" fill="#000000">stream</text>
<polyline fill="none" stroke="#000000" points="576,-320.5 702.0654,-320.5 "/>
<polyline fill="none" stroke="#000000" points="576,-296.5 702.0654,-296.5 "/>
</g>
<!-- AssetsController -->
<g id="node13" class="node">
<title>AssetsController</title>
<path fill="none" stroke="#000000" d="M588,-432.5C588,-432.5 674.1035,-432.5 674.1035,-432.5 680.1035,-432.5 686.1035,-438.5 686.1035,-444.5 686.1035,-444.5 686.1035,-552.5 686.1035,-552.5 686.1035,-558.5 680.1035,-564.5 674.1035,-564.5 674.1035,-564.5 588,-564.5 588,-564.5 582,-564.5 576,-558.5 576,-552.5 576,-552.5 576,-444.5 576,-444.5 576,-438.5 582,-432.5 588,-432.5"/>
<text text-anchor="middle" x="631.0518" y="-549.3" font-family="Times,serif" font-size="14.00" fill="#000000">AssetsController</text>
<polyline fill="none" stroke="#000000" points="576,-542.5 686.1035,-542.5 "/>
<text text-anchor="start" x="584" y="-527.3" font-family="Times,serif" font-size="14.00" fill="#000000">create</text>
<text text-anchor="start" x="584" y="-513.3" font-family="Times,serif" font-size="14.00" fill="#000000">destroy</text>
<text text-anchor="start" x="584" y="-499.3" font-family="Times,serif" font-size="14.00" fill="#000000">index</text>
<text text-anchor="start" x="584" y="-485.3" font-family="Times,serif" font-size="14.00" fill="#000000">update</text>
<polyline fill="none" stroke="#000000" points="576,-478.5 686.1035,-478.5 "/>
<polyline fill="none" stroke="#000000" points="576,-454.5 686.1035,-454.5 "/>
<text text-anchor="start" x="584" y="-439.3" font-family="Times,serif" font-size="14.00" fill="#000000">asset_params</text>
</g>
<!-- CapabilitiesController -->
<g id="node14" class="node">
<title>CapabilitiesController</title>
<path fill="none" stroke="#000000" d="M412,-208.5C412,-208.5 528.4209,-208.5 528.4209,-208.5 534.4209,-208.5 540.4209,-214.5 540.4209,-220.5 540.4209,-220.5 540.4209,-384.5 540.4209,-384.5 540.4209,-390.5 534.4209,-396.5 528.4209,-396.5 528.4209,-396.5 412,-396.5 412,-396.5 406,-396.5 400,-390.5 400,-384.5 400,-384.5 400,-220.5 400,-220.5 400,-214.5 406,-208.5 412,-208.5"/>
<text text-anchor="middle" x="470.2104" y="-381.3" font-family="Times,serif" font-size="14.00" fill="#000000">CapabilitiesController</text>
<polyline fill="none" stroke="#000000" points="400,-374.5 540.4209,-374.5 "/>
<text text-anchor="start" x="408" y="-359.3" font-family="Times,serif" font-size="14.00" fill="#000000">create</text>
<text text-anchor="start" x="408" y="-345.3" font-family="Times,serif" font-size="14.00" fill="#000000">destroy</text>
<text text-anchor="start" x="408" y="-331.3" font-family="Times,serif" font-size="14.00" fill="#000000">edit</text>
<text text-anchor="start" x="408" y="-317.3" font-family="Times,serif" font-size="14.00" fill="#000000">index</text>
<text text-anchor="start" x="408" y="-303.3" font-family="Times,serif" font-size="14.00" fill="#000000">new</text>
<text text-anchor="start" x="408" y="-289.3" font-family="Times,serif" font-size="14.00" fill="#000000">show</text>
<text text-anchor="start" x="408" y="-275.3" font-family="Times,serif" font-size="14.00" fill="#000000">update</text>
<polyline fill="none" stroke="#000000" points="400,-268.5 540.4209,-268.5 "/>
<polyline fill="none" stroke="#000000" points="400,-244.5 540.4209,-244.5 "/>
<text text-anchor="start" x="408" y="-229.3" font-family="Times,serif" font-size="14.00" fill="#000000">capability_params</text>
<text text-anchor="start" x="408" y="-215.3" font-family="Times,serif" font-size="14.00" fill="#000000">set_capability</text>
</g>
<!-- IdentitiesController -->
<g id="node15" class="node">
<title>IdentitiesController</title>
<path fill="none" stroke="#000000" d="M12,-.5C12,-.5 113.6416,-.5 113.6416,-.5 119.6416,-.5 125.6416,-6.5 125.6416,-12.5 125.6416,-12.5 125.6416,-80.5 125.6416,-80.5 125.6416,-86.5 119.6416,-92.5 113.6416,-92.5 113.6416,-92.5 12,-92.5 12,-92.5 6,-92.5 0,-86.5 0,-80.5 0,-80.5 0,-12.5 0,-12.5 0,-6.5 6,-.5 12,-.5"/>
<text text-anchor="middle" x="62.8208" y="-77.3" font-family="Times,serif" font-size="14.00" fill="#000000">IdentitiesController</text>
<polyline fill="none" stroke="#000000" points="0,-70.5 125.6416,-70.5 "/>
<text text-anchor="start" x="8" y="-55.3" font-family="Times,serif" font-size="14.00" fill="#000000">destroy</text>
<polyline fill="none" stroke="#000000" points="0,-48.5 125.6416,-48.5 "/>
<polyline fill="none" stroke="#000000" points="0,-24.5 125.6416,-24.5 "/>
</g>
<!-- MembersController -->
<g id="node16" class="node">
<title>MembersController</title>
<path fill="none" stroke="#000000" d="M92,-528.5C92,-528.5 194.4209,-528.5 194.4209,-528.5 200.4209,-528.5 206.4209,-534.5 206.4209,-540.5 206.4209,-540.5 206.4209,-704.5 206.4209,-704.5 206.4209,-710.5 200.4209,-716.5 194.4209,-716.5 194.4209,-716.5 92,-716.5 92,-716.5 86,-716.5 80,-710.5 80,-704.5 80,-704.5 80,-540.5 80,-540.5 80,-534.5 86,-528.5 92,-528.5"/>
<text text-anchor="middle" x="143.2104" y="-701.3" font-family="Times,serif" font-size="14.00" fill="#000000">MembersController</text>
<polyline fill="none" stroke="#000000" points="80,-694.5 206.4209,-694.5 "/>
<text text-anchor="start" x="88" y="-679.3" font-family="Times,serif" font-size="14.00" fill="#000000">create</text>
<text text-anchor="start" x="88" y="-665.3" font-family="Times,serif" font-size="14.00" fill="#000000">destroy</text>
<text text-anchor="start" x="88" y="-651.3" font-family="Times,serif" font-size="14.00" fill="#000000">edit</text>
<text text-anchor="start" x="88" y="-637.3" font-family="Times,serif" font-size="14.00" fill="#000000">index</text>
<text text-anchor="start" x="88" y="-623.3" font-family="Times,serif" font-size="14.00" fill="#000000">new</text>
<text text-anchor="start" x="88" y="-609.3" font-family="Times,serif" font-size="14.00" fill="#000000">show</text>
<text text-anchor="start" x="88" y="-595.3" font-family="Times,serif" font-size="14.00" fill="#000000">update</text>
<polyline fill="none" stroke="#000000" points="80,-588.5 206.4209,-588.5 "/>
<polyline fill="none" stroke="#000000" points="80,-564.5 206.4209,-564.5 "/>
<text text-anchor="start" x="88" y="-549.3" font-family="Times,serif" font-size="14.00" fill="#000000">member_params</text>
<text text-anchor="start" x="88" y="-535.3" font-family="Times,serif" font-size="14.00" fill="#000000">set_member</text>
</g>
<!-- RolesController -->
<g id="node17" class="node">
<title>RolesController</title>
<path fill="none" stroke="#000000" d="M92,-304.5C92,-304.5 173.4346,-304.5 173.4346,-304.5 179.4346,-304.5 185.4346,-310.5 185.4346,-316.5 185.4346,-316.5 185.4346,-480.5 185.4346,-480.5 185.4346,-486.5 179.4346,-492.5 173.4346,-492.5 173.4346,-492.5 92,-492.5 92,-492.5 86,-492.5 80,-486.5 80,-480.5 80,-480.5 80,-316.5 80,-316.5 80,-310.5 86,-304.5 92,-304.5"/>
<text text-anchor="middle" x="132.7173" y="-477.3" font-family="Times,serif" font-size="14.00" fill="#000000">RolesController</text>
<polyline fill="none" stroke="#000000" points="80,-470.5 185.4346,-470.5 "/>
<text text-anchor="start" x="88" y="-455.3" font-family="Times,serif" font-size="14.00" fill="#000000">create</text>
<text text-anchor="start" x="88" y="-441.3" font-family="Times,serif" font-size="14.00" fill="#000000">destroy</text>
<text text-anchor="start" x="88" y="-427.3" font-family="Times,serif" font-size="14.00" fill="#000000">edit</text>
<text text-anchor="start" x="88" y="-413.3" font-family="Times,serif" font-size="14.00" fill="#000000">index</text>
<text text-anchor="start" x="88" y="-399.3" font-family="Times,serif" font-size="14.00" fill="#000000">new</text>
<text text-anchor="start" x="88" y="-385.3" font-family="Times,serif" font-size="14.00" fill="#000000">show</text>
<text text-anchor="start" x="88" y="-371.3" font-family="Times,serif" font-size="14.00" fill="#000000">update</text>
<polyline fill="none" stroke="#000000" points="80,-364.5 185.4346,-364.5 "/>
<polyline fill="none" stroke="#000000" points="80,-340.5 185.4346,-340.5 "/>
<text text-anchor="start" x="88" y="-325.3" font-family="Times,serif" font-size="14.00" fill="#000000">role_params</text>
<text text-anchor="start" x="88" y="-311.3" font-family="Times,serif" font-size="14.00" fill="#000000">set_role</text>
</g>
</g>
</svg>
