<?xml version="1.0" encoding="UTF-8" standalone="no"?>
<!DOCTYPE svg PUBLIC "-//W3C//DTD SVG 1.1//EN"
 "http://www.w3.org/Graphics/SVG/1.1/DTD/svg11.dtd">
<!-- Generated by graphviz version 2.40.1 (20161225.0304)
 -->
<!-- Title: controllers_diagram Pages: 1 -->
<svg width="833pt" height="858pt"
 viewBox="0.00 0.00 832.98 858.00" xmlns="http://www.w3.org/2000/svg" xmlns:xlink="http://www.w3.org/1999/xlink">
<g id="graph0" class="graph" transform="scale(1 1) rotate(0) translate(4 854)">
<title>controllers_diagram</title>
<polygon fill="transparent" stroke="transparent" points="-4,4 -4,-854 828.9795,-854 828.9795,4 -4,4"/>
<!-- _diagram_info -->
<g id="node1" class="node">
<title>_diagram_info</title>
<text text-anchor="start" x="297" y="-228.6" font-family="Times,serif" font-size="13.00" fill="#000000">Controllers diagram</text>
<text text-anchor="start" x="297" y="-215.6" font-family="Times,serif" font-size="13.00" fill="#000000">Date: Feb 27 2017 &#45; 15:01</text>
<text text-anchor="start" x="297" y="-202.6" font-family="Times,serif" font-size="13.00" fill="#000000">Migration version: 20160630211533</text>
<text text-anchor="start" x="297" y="-189.6" font-family="Times,serif" font-size="13.00" fill="#000000">Generated by RailRoady 1.5.2</text>
<text text-anchor="start" x="297" y="-176.6" font-family="Times,serif" font-size="13.00" fill="#000000">http://railroady.prestonlee.com</text>
</g>
<!-- ActivitiesController -->
<g id="node2" class="node">
<title>ActivitiesController</title>
<path fill="none" stroke="#000000" d="M709,-85.5C709,-85.5 812.9795,-85.5 812.9795,-85.5 818.9795,-85.5 824.9795,-91.5 824.9795,-97.5 824.9795,-97.5 824.9795,-219.5 824.9795,-219.5 824.9795,-225.5 818.9795,-231.5 812.9795,-231.5 812.9795,-231.5 709,-231.5 709,-231.5 703,-231.5 697,-225.5 697,-219.5 697,-219.5 697,-97.5 697,-97.5 697,-91.5 703,-85.5 709,-85.5"/>
<text text-anchor="middle" x="760.9897" y="-216.3" font-family="Times,serif" font-size="14.00" fill="#000000">ActivitiesController</text>
<polyline fill="none" stroke="#000000" points="697,-209.5 824.9795,-209.5 "/>
<text text-anchor="start" x="705" y="-194.3" font-family="Times,serif" font-size="14.00" fill="#000000">create</text>
<text text-anchor="start" x="705" y="-180.3" font-family="Times,serif" font-size="14.00" fill="#000000">destroy</text>
<text text-anchor="start" x="705" y="-166.3" font-family="Times,serif" font-size="14.00" fill="#000000">index</text>
<text text-anchor="start" x="705" y="-152.3" font-family="Times,serif" font-size="14.00" fill="#000000">update</text>
<polyline fill="none" stroke="#000000" points="697,-145.5 824.9795,-145.5 "/>
<polyline fill="none" stroke="#000000" points="697,-121.5 824.9795,-121.5 "/>
<text text-anchor="start" x="705" y="-106.3" font-family="Times,serif" font-size="14.00" fill="#000000">_layout</text>
<text text-anchor="start" x="705" y="-92.3" font-family="Times,serif" font-size="14.00" fill="#000000">activity_params</text>
</g>
<!-- ActorRolesController -->
<g id="node3" class="node">
<title>ActorRolesController</title>
<path fill="none" stroke="#000000" d="M692,-493.5C692,-493.5 805.3105,-493.5 805.3105,-493.5 811.3105,-493.5 817.3105,-499.5 817.3105,-505.5 817.3105,-505.5 817.3105,-627.5 817.3105,-627.5 817.3105,-633.5 811.3105,-639.5 805.3105,-639.5 805.3105,-639.5 692,-639.5 692,-639.5 686,-639.5 680,-633.5 680,-627.5 680,-627.5 680,-505.5 680,-505.5 680,-499.5 686,-493.5 692,-493.5"/>
<text text-anchor="middle" x="748.6553" y="-624.3" font-family="Times,serif" font-size="14.00" fill="#000000">ActorRolesController</text>
<polyline fill="none" stroke="#000000" points="680,-617.5 817.3105,-617.5 "/>
<text text-anchor="start" x="688" y="-602.3" font-family="Times,serif" font-size="14.00" fill="#000000">create</text>
<text text-anchor="start" x="688" y="-588.3" font-family="Times,serif" font-size="14.00" fill="#000000">destroy</text>
<text text-anchor="start" x="688" y="-574.3" font-family="Times,serif" font-size="14.00" fill="#000000">index</text>
<text text-anchor="start" x="688" y="-560.3" font-family="Times,serif" font-size="14.00" fill="#000000">update</text>
<polyline fill="none" stroke="#000000" points="680,-553.5 817.3105,-553.5 "/>
<polyline fill="none" stroke="#000000" points="680,-529.5 817.3105,-529.5 "/>
<text text-anchor="start" x="688" y="-514.3" font-family="Times,serif" font-size="14.00" fill="#000000">_layout</text>
<text text-anchor="start" x="688" y="-500.3" font-family="Times,serif" font-size="14.00" fill="#000000">actor_role_params</text>
</g>
<!-- ApplicationController -->
<g id="node4" class="node">
<title>ApplicationController</title>
<path fill="none" stroke="#000000" d="M301,-272.5C301,-272.5 478.0352,-272.5 478.0352,-272.5 484.0352,-272.5 490.0352,-278.5 490.0352,-284.5 490.0352,-284.5 490.0352,-490.5 490.0352,-490.5 490.0352,-496.5 484.0352,-502.5 478.0352,-502.5 478.0352,-502.5 301,-502.5 301,-502.5 295,-502.5 289,-496.5 289,-490.5 289,-490.5 289,-284.5 289,-284.5 289,-278.5 295,-272.5 301,-272.5"/>
<text text-anchor="middle" x="389.5176" y="-487.3" font-family="Times,serif" font-size="14.00" fill="#000000">ApplicationController</text>
<polyline fill="none" stroke="#000000" points="289,-480.5 490.0352,-480.5 "/>
<text text-anchor="start" x="297" y="-465.3" font-family="Times,serif" font-size="14.00" fill="#000000">unauthenticate!</text>
<text text-anchor="start" x="297" y="-451.3" font-family="Times,serif" font-size="14.00" fill="#000000">build_oauth_request</text>
<text text-anchor="start" x="297" y="-437.3" font-family="Times,serif" font-size="14.00" fill="#000000">cors_preflight_check</text>
<text text-anchor="start" x="297" y="-423.3" font-family="Times,serif" font-size="14.00" fill="#000000">cors_set_access_control_headers</text>
<text text-anchor="start" x="297" y="-409.3" font-family="Times,serif" font-size="14.00" fill="#000000">current_identity</text>
<text text-anchor="start" x="297" y="-395.3" font-family="Times,serif" font-size="14.00" fill="#000000">current_person</text>
<text text-anchor="start" x="297" y="-381.3" font-family="Times,serif" font-size="14.00" fill="#000000">current_user</text>
<text text-anchor="start" x="297" y="-367.3" font-family="Times,serif" font-size="14.00" fill="#000000">new_nonce</text>
<text text-anchor="start" x="297" y="-353.3" font-family="Times,serif" font-size="14.00" fill="#000000">set_options_from</text>
<text text-anchor="start" x="297" y="-339.3" font-family="Times,serif" font-size="14.00" fill="#000000">stored_nonce</text>
<text text-anchor="start" x="297" y="-325.3" font-family="Times,serif" font-size="14.00" fill="#000000">authenticate_identity!</text>
<polyline fill="none" stroke="#000000" points="289,-318.5 490.0352,-318.5 "/>
<polyline fill="none" stroke="#000000" points="289,-294.5 490.0352,-294.5 "/>
<text text-anchor="start" x="297" y="-279.3" font-family="Times,serif" font-size="14.00" fill="#000000">_layout</text>
</g>
<!-- AssetsController -->
<g id="node5" class="node">
<title>AssetsController</title>
<path fill="none" stroke="#000000" d="M709,-272.5C709,-272.5 795.1035,-272.5 795.1035,-272.5 801.1035,-272.5 807.1035,-278.5 807.1035,-284.5 807.1035,-284.5 807.1035,-406.5 807.1035,-406.5 807.1035,-412.5 801.1035,-418.5 795.1035,-418.5 795.1035,-418.5 709,-418.5 709,-418.5 703,-418.5 697,-412.5 697,-406.5 697,-406.5 697,-284.5 697,-284.5 697,-278.5 703,-272.5 709,-272.5"/>
<text text-anchor="middle" x="752.0518" y="-403.3" font-family="Times,serif" font-size="14.00" fill="#000000">AssetsController</text>
<polyline fill="none" stroke="#000000" points="697,-396.5 807.1035,-396.5 "/>
<text text-anchor="start" x="705" y="-381.3" font-family="Times,serif" font-size="14.00" fill="#000000">create</text>
<text text-anchor="start" x="705" y="-367.3" font-family="Times,serif" font-size="14.00" fill="#000000">destroy</text>
<text text-anchor="start" x="705" y="-353.3" font-family="Times,serif" font-size="14.00" fill="#000000">index</text>
<text text-anchor="start" x="705" y="-339.3" font-family="Times,serif" font-size="14.00" fill="#000000">update</text>
<polyline fill="none" stroke="#000000" points="697,-332.5 807.1035,-332.5 "/>
<polyline fill="none" stroke="#000000" points="697,-308.5 807.1035,-308.5 "/>
<text text-anchor="start" x="705" y="-293.3" font-family="Times,serif" font-size="14.00" fill="#000000">_layout</text>
<text text-anchor="start" x="705" y="-279.3" font-family="Times,serif" font-size="14.00" fill="#000000">asset_params</text>
</g>
<!-- CapabilitiesController -->
<g id="node6" class="node">
<title>CapabilitiesController</title>
<path fill="none" stroke="#000000" d="M539,-255.5C539,-255.5 655.4209,-255.5 655.4209,-255.5 661.4209,-255.5 667.4209,-261.5 667.4209,-267.5 667.4209,-267.5 667.4209,-445.5 667.4209,-445.5 667.4209,-451.5 661.4209,-457.5 655.4209,-457.5 655.4209,-457.5 539,-457.5 539,-457.5 533,-457.5 527,-451.5 527,-445.5 527,-445.5 527,-267.5 527,-267.5 527,-261.5 533,-255.5 539,-255.5"/>
<text text-anchor="middle" x="597.2104" y="-442.3" font-family="Times,serif" font-size="14.00" fill="#000000">CapabilitiesController</text>
<polyline fill="none" stroke="#000000" points="527,-435.5 667.4209,-435.5 "/>
<text text-anchor="start" x="535" y="-420.3" font-family="Times,serif" font-size="14.00" fill="#000000">index</text>
<text text-anchor="start" x="535" y="-406.3" font-family="Times,serif" font-size="14.00" fill="#000000">destroy</text>
<text text-anchor="start" x="535" y="-392.3" font-family="Times,serif" font-size="14.00" fill="#000000">edit</text>
<text text-anchor="start" x="535" y="-378.3" font-family="Times,serif" font-size="14.00" fill="#000000">create</text>
<text text-anchor="start" x="535" y="-364.3" font-family="Times,serif" font-size="14.00" fill="#000000">new</text>
<text text-anchor="start" x="535" y="-350.3" font-family="Times,serif" font-size="14.00" fill="#000000">show</text>
<text text-anchor="start" x="535" y="-336.3" font-family="Times,serif" font-size="14.00" fill="#000000">update</text>
<polyline fill="none" stroke="#000000" points="527,-329.5 667.4209,-329.5 "/>
<polyline fill="none" stroke="#000000" points="527,-305.5 667.4209,-305.5 "/>
<text text-anchor="start" x="535" y="-290.3" font-family="Times,serif" font-size="14.00" fill="#000000">_layout</text>
<text text-anchor="start" x="535" y="-276.3" font-family="Times,serif" font-size="14.00" fill="#000000">capability_params</text>
<text text-anchor="start" x="535" y="-262.3" font-family="Times,serif" font-size="14.00" fill="#000000">set_capability</text>
</g>
<!-- ClientsController -->
<g id="node7" class="node">
<title>ClientsController</title>
<path fill="none" stroke="#000000" d="M12,-.5C12,-.5 101.2139,-.5 101.2139,-.5 107.2139,-.5 113.2139,-6.5 113.2139,-12.5 113.2139,-12.5 113.2139,-92.5 113.2139,-92.5 113.2139,-98.5 107.2139,-104.5 101.2139,-104.5 101.2139,-104.5 12,-104.5 12,-104.5 6,-104.5 0,-98.5 0,-92.5 0,-92.5 0,-12.5 0,-12.5 0,-6.5 6,-.5 12,-.5"/>
<text text-anchor="middle" x="56.6069" y="-89.3" font-family="Times,serif" font-size="14.00" fill="#000000">ClientsController</text>
<polyline fill="none" stroke="#000000" points="0,-82.5 113.2139,-82.5 "/>
<text text-anchor="start" x="8" y="-67.3" font-family="Times,serif" font-size="14.00" fill="#000000">index</text>
<text text-anchor="start" x="8" y="-53.3" font-family="Times,serif" font-size="14.00" fill="#000000">launch</text>
<polyline fill="none" stroke="#000000" points="0,-46.5 113.2139,-46.5 "/>
<polyline fill="none" stroke="#000000" points="0,-22.5 113.2139,-22.5 "/>
<text text-anchor="start" x="8" y="-7.3" font-family="Times,serif" font-size="14.00" fill="#000000">_layout</text>
</g>
<!-- ContextsController -->
<g id="node8" class="node">
<title>ContextsController</title>
<path fill="none" stroke="#000000" d="M386,-731.5C386,-731.5 485.3242,-731.5 485.3242,-731.5 491.3242,-731.5 497.3242,-737.5 497.3242,-743.5 497.3242,-743.5 497.3242,-811.5 497.3242,-811.5 497.3242,-817.5 491.3242,-823.5 485.3242,-823.5 485.3242,-823.5 386,-823.5 386,-823.5 380,-823.5 374,-817.5 374,-811.5 374,-811.5 374,-743.5 374,-743.5 374,-737.5 380,-731.5 386,-731.5"/>
<text text-anchor="middle" x="435.6621" y="-808.3" font-family="Times,serif" font-size="14.00" fill="#000000">ContextsController</text>
<polyline fill="none" stroke="#000000" points="374,-801.5 497.3242,-801.5 "/>
<polyline fill="none" stroke="#000000" points="374,-777.5 497.3242,-777.5 "/>
<polyline fill="none" stroke="#000000" points="374,-753.5 497.3242,-753.5 "/>
<text text-anchor="start" x="382" y="-738.3" font-family="Times,serif" font-size="14.00" fill="#000000">_layout</text>
</g>
<!-- GroupsController -->
<g id="node9" class="node">
<title>GroupsController</title>
<path fill="none" stroke="#000000" d="M148,-323.5C148,-323.5 238.7656,-323.5 238.7656,-323.5 244.7656,-323.5 250.7656,-329.5 250.7656,-335.5 250.7656,-335.5 250.7656,-513.5 250.7656,-513.5 250.7656,-519.5 244.7656,-525.5 238.7656,-525.5 238.7656,-525.5 148,-525.5 148,-525.5 142,-525.5 136,-519.5 136,-513.5 136,-513.5 136,-335.5 136,-335.5 136,-329.5 142,-323.5 148,-323.5"/>
<text text-anchor="middle" x="193.3828" y="-510.3" font-family="Times,serif" font-size="14.00" fill="#000000">GroupsController</text>
<polyline fill="none" stroke="#000000" points="136,-503.5 250.7656,-503.5 "/>
<text text-anchor="start" x="144" y="-488.3" font-family="Times,serif" font-size="14.00" fill="#000000">index</text>
<text text-anchor="start" x="144" y="-474.3" font-family="Times,serif" font-size="14.00" fill="#000000">destroy</text>
<text text-anchor="start" x="144" y="-460.3" font-family="Times,serif" font-size="14.00" fill="#000000">edit</text>
<text text-anchor="start" x="144" y="-446.3" font-family="Times,serif" font-size="14.00" fill="#000000">create</text>
<text text-anchor="start" x="144" y="-432.3" font-family="Times,serif" font-size="14.00" fill="#000000">new</text>
<text text-anchor="start" x="144" y="-418.3" font-family="Times,serif" font-size="14.00" fill="#000000">show</text>
<text text-anchor="start" x="144" y="-404.3" font-family="Times,serif" font-size="14.00" fill="#000000">update</text>
<polyline fill="none" stroke="#000000" points="136,-397.5 250.7656,-397.5 "/>
<polyline fill="none" stroke="#000000" points="136,-373.5 250.7656,-373.5 "/>
<text text-anchor="start" x="144" y="-358.3" font-family="Times,serif" font-size="14.00" fill="#000000">_layout</text>
<text text-anchor="start" x="144" y="-344.3" font-family="Times,serif" font-size="14.00" fill="#000000">group_params</text>
<text text-anchor="start" x="144" y="-330.3" font-family="Times,serif" font-size="14.00" fill="#000000">set_group</text>
</g>
<!-- IdentitiesController -->
<g id="node10" class="node">
<title>IdentitiesController</title>
<path fill="none" stroke="#000000" d="M80,-578.5C80,-578.5 181.6416,-578.5 181.6416,-578.5 187.6416,-578.5 193.6416,-584.5 193.6416,-590.5 193.6416,-590.5 193.6416,-656.5 193.6416,-656.5 193.6416,-662.5 187.6416,-668.5 181.6416,-668.5 181.6416,-668.5 80,-668.5 80,-668.5 74,-668.5 68,-662.5 68,-656.5 68,-656.5 68,-590.5 68,-590.5 68,-584.5 74,-578.5 80,-578.5"/>
<text text-anchor="middle" x="130.8208" y="-653.3" font-family="Times,serif" font-size="14.00" fill="#000000">IdentitiesController</text>
<polyline fill="none" stroke="#000000" points="68,-646.5 193.6416,-646.5 "/>
<text text-anchor="start" x="76" y="-631.3" font-family="Times,serif" font-size="14.00" fill="#000000">destroy</text>
<polyline fill="none" stroke="#000000" points="68,-624.5 193.6416,-624.5 "/>
<polyline fill="none" stroke="#000000" points="68,-600.5 193.6416,-600.5 "/>
<text text-anchor="start" x="76" y="-585.3" font-family="Times,serif" font-size="14.00" fill="#000000">_layout</text>
</g>
<!-- MembersController -->
<g id="node11" class="node">
<title>MembersController</title>
<path fill="none" stroke="#000000" d="M539,-493.5C539,-493.5 641.4209,-493.5 641.4209,-493.5 647.4209,-493.5 653.4209,-499.5 653.4209,-505.5 653.4209,-505.5 653.4209,-683.5 653.4209,-683.5 653.4209,-689.5 647.4209,-695.5 641.4209,-695.5 641.4209,-695.5 539,-695.5 539,-695.5 533,-695.5 527,-689.5 527,-683.5 527,-683.5 527,-505.5 527,-505.5 527,-499.5 533,-493.5 539,-493.5"/>
<text text-anchor="middle" x="590.2104" y="-680.3" font-family="Times,serif" font-size="14.00" fill="#000000">MembersController</text>
<polyline fill="none" stroke="#000000" points="527,-673.5 653.4209,-673.5 "/>
<text text-anchor="start" x="535" y="-658.3" font-family="Times,serif" font-size="14.00" fill="#000000">index</text>
<text text-anchor="start" x="535" y="-644.3" font-family="Times,serif" font-size="14.00" fill="#000000">destroy</text>
<text text-anchor="start" x="535" y="-630.3" font-family="Times,serif" font-size="14.00" fill="#000000">edit</text>
<text text-anchor="start" x="535" y="-616.3" font-family="Times,serif" font-size="14.00" fill="#000000">create</text>
<text text-anchor="start" x="535" y="-602.3" font-family="Times,serif" font-size="14.00" fill="#000000">new</text>
<text text-anchor="start" x="535" y="-588.3" font-family="Times,serif" font-size="14.00" fill="#000000">show</text>
<text text-anchor="start" x="535" y="-574.3" font-family="Times,serif" font-size="14.00" fill="#000000">update</text>
<polyline fill="none" stroke="#000000" points="527,-567.5 653.4209,-567.5 "/>
<polyline fill="none" stroke="#000000" points="527,-543.5 653.4209,-543.5 "/>
<text text-anchor="start" x="535" y="-528.3" font-family="Times,serif" font-size="14.00" fill="#000000">_layout</text>
<text text-anchor="start" x="535" y="-514.3" font-family="Times,serif" font-size="14.00" fill="#000000">member_params</text>
<text text-anchor="start" x="535" y="-500.3" font-family="Times,serif" font-size="14.00" fill="#000000">set_member</text>
</g>
<!-- ObjectivesController -->
<g id="node12" class="node">
<title>ObjectivesController</title>
<path fill="none" stroke="#000000" d="M692,-680.5C692,-680.5 801.4141,-680.5 801.4141,-680.5 807.4141,-680.5 813.4141,-686.5 813.4141,-692.5 813.4141,-692.5 813.4141,-828.5 813.4141,-828.5 813.4141,-834.5 807.4141,-840.5 801.4141,-840.5 801.4141,-840.5 692,-840.5 692,-840.5 686,-840.5 680,-834.5 680,-828.5 680,-828.5 680,-692.5 680,-692.5 680,-686.5 686,-680.5 692,-680.5"/>
<text text-anchor="middle" x="746.707" y="-825.3" font-family="Times,serif" font-size="14.00" fill="#000000">ObjectivesController</text>
<polyline fill="none" stroke="#000000" points="680,-818.5 813.4141,-818.5 "/>
<text text-anchor="start" x="688" y="-803.3" font-family="Times,serif" font-size="14.00" fill="#000000">create</text>
<text text-anchor="start" x="688" y="-789.3" font-family="Times,serif" font-size="14.00" fill="#000000">destroy</text>
<text text-anchor="start" x="688" y="-775.3" font-family="Times,serif" font-size="14.00" fill="#000000">index</text>
<text text-anchor="start" x="688" y="-761.3" font-family="Times,serif" font-size="14.00" fill="#000000">show</text>
<text text-anchor="start" x="688" y="-747.3" font-family="Times,serif" font-size="14.00" fill="#000000">update</text>
<polyline fill="none" stroke="#000000" points="680,-740.5 813.4141,-740.5 "/>
<polyline fill="none" stroke="#000000" points="680,-716.5 813.4141,-716.5 "/>
<text text-anchor="start" x="688" y="-701.3" font-family="Times,serif" font-size="14.00" fill="#000000">_layout</text>
<text text-anchor="start" x="688" y="-687.3" font-family="Times,serif" font-size="14.00" fill="#000000">objective_params</text>
</g>
<!-- PeopleController -->
<g id="node13" class="node">
<title>PeopleController</title>
<path fill="none" stroke="#000000" d="M165,-17.5C165,-17.5 252.6484,-17.5 252.6484,-17.5 258.6484,-17.5 264.6484,-23.5 264.6484,-29.5 264.6484,-29.5 264.6484,-95.5 264.6484,-95.5 264.6484,-101.5 258.6484,-107.5 252.6484,-107.5 252.6484,-107.5 165,-107.5 165,-107.5 159,-107.5 153,-101.5 153,-95.5 153,-95.5 153,-29.5 153,-29.5 153,-23.5 159,-17.5 165,-17.5"/>
<text text-anchor="middle" x="208.8242" y="-92.3" font-family="Times,serif" font-size="14.00" fill="#000000">PeopleController</text>
<polyline fill="none" stroke="#000000" points="153,-85.5 264.6484,-85.5 "/>
<text text-anchor="start" x="161" y="-70.3" font-family="Times,serif" font-size="14.00" fill="#000000">index</text>
<polyline fill="none" stroke="#000000" points="153,-63.5 264.6484,-63.5 "/>
<polyline fill="none" stroke="#000000" points="153,-39.5 264.6484,-39.5 "/>
<text text-anchor="start" x="161" y="-24.3" font-family="Times,serif" font-size="14.00" fill="#000000">_layout</text>
</g>
<!-- PlacesController -->
<g id="node14" class="node">
<title>PlacesController</title>
<path fill="none" stroke="#000000" d="M97,-697.5C97,-697.5 182.3105,-697.5 182.3105,-697.5 188.3105,-697.5 194.3105,-703.5 194.3105,-709.5 194.3105,-709.5 194.3105,-831.5 194.3105,-831.5 194.3105,-837.5 188.3105,-843.5 182.3105,-843.5 182.3105,-843.5 97,-843.5 97,-843.5 91,-843.5 85,-837.5 85,-831.5 85,-831.5 85,-709.5 85,-709.5 85,-703.5 91,-697.5 97,-697.5"/>
<text text-anchor="middle" x="139.6553" y="-828.3" font-family="Times,serif" font-size="14.00" fill="#000000">PlacesController</text>
<polyline fill="none" stroke="#000000" points="85,-821.5 194.3105,-821.5 "/>
<text text-anchor="start" x="93" y="-806.3" font-family="Times,serif" font-size="14.00" fill="#000000">create</text>
<text text-anchor="start" x="93" y="-792.3" font-family="Times,serif" font-size="14.00" fill="#000000">destroy</text>
<text text-anchor="start" x="93" y="-778.3" font-family="Times,serif" font-size="14.00" fill="#000000">index</text>
<text text-anchor="start" x="93" y="-764.3" font-family="Times,serif" font-size="14.00" fill="#000000">update</text>
<polyline fill="none" stroke="#000000" points="85,-757.5 194.3105,-757.5 "/>
<polyline fill="none" stroke="#000000" points="85,-733.5 194.3105,-733.5 "/>
<text text-anchor="start" x="93" y="-718.3" font-family="Times,serif" font-size="14.00" fill="#000000">_layout</text>
<text text-anchor="start" x="93" y="-704.3" font-family="Times,serif" font-size="14.00" fill="#000000">place_params</text>
</g>
<!-- RolesController -->
<g id="node15" class="node">
<title>RolesController</title>
<path fill="none" stroke="#000000" d="M233,-561.5C233,-561.5 314.4346,-561.5 314.4346,-561.5 320.4346,-561.5 326.4346,-567.5 326.4346,-573.5 326.4346,-573.5 326.4346,-751.5 326.4346,-751.5 326.4346,-757.5 320.4346,-763.5 314.4346,-763.5 314.4346,-763.5 233,-763.5 233,-763.5 227,-763.5 221,-757.5 221,-751.5 221,-751.5 221,-573.5 221,-573.5 221,-567.5 227,-561.5 233,-561.5"/>
<text text-anchor="middle" x="273.7173" y="-748.3" font-family="Times,serif" font-size="14.00" fill="#000000">RolesController</text>
<polyline fill="none" stroke="#000000" points="221,-741.5 326.4346,-741.5 "/>
<text text-anchor="start" x="229" y="-726.3" font-family="Times,serif" font-size="14.00" fill="#000000">index</text>
<text text-anchor="start" x="229" y="-712.3" font-family="Times,serif" font-size="14.00" fill="#000000">destroy</text>
<text text-anchor="start" x="229" y="-698.3" font-family="Times,serif" font-size="14.00" fill="#000000">edit</text>
<text text-anchor="start" x="229" y="-684.3" font-family="Times,serif" font-size="14.00" fill="#000000">create</text>
<text text-anchor="start" x="229" y="-670.3" font-family="Times,serif" font-size="14.00" fill="#000000">new</text>
<text text-anchor="start" x="229" y="-656.3" font-family="Times,serif" font-size="14.00" fill="#000000">show</text>
<text text-anchor="start" x="229" y="-642.3" font-family="Times,serif" font-size="14.00" fill="#000000">update</text>
<polyline fill="none" stroke="#000000" points="221,-635.5 326.4346,-635.5 "/>
<polyline fill="none" stroke="#000000" points="221,-611.5 326.4346,-611.5 "/>
<text text-anchor="start" x="229" y="-596.3" font-family="Times,serif" font-size="14.00" fill="#000000">_layout</text>
<text text-anchor="start" x="229" y="-582.3" font-family="Times,serif" font-size="14.00" fill="#000000">role_params</text>
<text text-anchor="start" x="229" y="-568.3" font-family="Times,serif" font-size="14.00" fill="#000000">set_role</text>
</g>
<!-- SessionsController -->
<g id="node16" class="node">
<title>SessionsController</title>
<path fill="none" stroke="#000000" d="M369,-544.5C369,-544.5 485.4141,-544.5 485.4141,-544.5 491.4141,-544.5 497.4141,-550.5 497.4141,-556.5 497.4141,-556.5 497.4141,-692.5 497.4141,-692.5 497.4141,-698.5 491.4141,-704.5 485.4141,-704.5 485.4141,-704.5 369,-704.5 369,-704.5 363,-704.5 357,-698.5 357,-692.5 357,-692.5 357,-556.5 357,-556.5 357,-550.5 363,-544.5 369,-544.5"/>
<text text-anchor="middle" x="427.207" y="-689.3" font-family="Times,serif" font-size="14.00" fill="#000000">SessionsController</text>
<polyline fill="none" stroke="#000000" points="357,-682.5 497.4141,-682.5 "/>
<text text-anchor="start" x="365" y="-667.3" font-family="Times,serif" font-size="14.00" fill="#000000">authenticate</text>
<text text-anchor="start" x="365" y="-653.3" font-family="Times,serif" font-size="14.00" fill="#000000">callback</text>
<text text-anchor="start" x="365" y="-639.3" font-family="Times,serif" font-size="14.00" fill="#000000">cleanse_session</text>
<text text-anchor="start" x="365" y="-625.3" font-family="Times,serif" font-size="14.00" fill="#000000">destroy</text>
<text text-anchor="start" x="365" y="-611.3" font-family="Times,serif" font-size="14.00" fill="#000000">openid_connect_login</text>
<text text-anchor="start" x="365" y="-597.3" font-family="Times,serif" font-size="14.00" fill="#000000">public_keys_for</text>
<polyline fill="none" stroke="#000000" points="357,-590.5 497.4141,-590.5 "/>
<polyline fill="none" stroke="#000000" points="357,-566.5 497.4141,-566.5 "/>
<text text-anchor="start" x="365" y="-551.3" font-family="Times,serif" font-size="14.00" fill="#000000">_layout</text>
</g>
<!-- Smart::LaunchController -->
<g id="node17" class="node">
<title>Smart::LaunchController</title>
<path fill="none" stroke="#000000" d="M403,-51.5C403,-51.5 535.7451,-51.5 535.7451,-51.5 541.7451,-51.5 547.7451,-57.5 547.7451,-63.5 547.7451,-63.5 547.7451,-129.5 547.7451,-129.5 547.7451,-135.5 541.7451,-141.5 535.7451,-141.5 535.7451,-141.5 403,-141.5 403,-141.5 397,-141.5 391,-135.5 391,-129.5 391,-129.5 391,-63.5 391,-63.5 391,-57.5 397,-51.5 403,-51.5"/>
<text text-anchor="middle" x="469.3726" y="-126.3" font-family="Times,serif" font-size="14.00" fill="#000000">Smart::LaunchController</text>
<polyline fill="none" stroke="#000000" points="391,-119.5 547.7451,-119.5 "/>
<text text-anchor="start" x="399" y="-104.3" font-family="Times,serif" font-size="14.00" fill="#000000">launch</text>
<polyline fill="none" stroke="#000000" points="391,-97.5 547.7451,-97.5 "/>
<polyline fill="none" stroke="#000000" points="391,-73.5 547.7451,-73.5 "/>
<text text-anchor="start" x="399" y="-58.3" font-family="Times,serif" font-size="14.00" fill="#000000">_layout</text>
</g>
<!-- UsageRolesController -->
<g id="node18" class="node">
<title>UsageRolesController</title>
<path fill="none" stroke="#000000" d="M131,-136.5C131,-136.5 247.4209,-136.5 247.4209,-136.5 253.4209,-136.5 259.4209,-142.5 259.4209,-148.5 259.4209,-148.5 259.4209,-270.5 259.4209,-270.5 259.4209,-276.5 253.4209,-282.5 247.4209,-282.5 247.4209,-282.5 131,-282.5 131,-282.5 125,-282.5 119,-276.5 119,-270.5 119,-270.5 119,-148.5 119,-148.5 119,-142.5 125,-136.5 131,-136.5"/>
<text text-anchor="middle" x="189.2104" y="-267.3" font-family="Times,serif" font-size="14.00" fill="#000000">UsageRolesController</text>
<polyline fill="none" stroke="#000000" points="119,-260.5 259.4209,-260.5 "/>
<text text-anchor="start" x="127" y="-245.3" font-family="Times,serif" font-size="14.00" fill="#000000">create</text>
<text text-anchor="start" x="127" y="-231.3" font-family="Times,serif" font-size="14.00" fill="#000000">destroy</text>
<text text-anchor="start" x="127" y="-217.3" font-family="Times,serif" font-size="14.00" fill="#000000">index</text>
<text text-anchor="start" x="127" y="-203.3" font-family="Times,serif" font-size="14.00" fill="#000000">update</text>
<polyline fill="none" stroke="#000000" points="119,-196.5 259.4209,-196.5 "/>
<polyline fill="none" stroke="#000000" points="119,-172.5 259.4209,-172.5 "/>
<text text-anchor="start" x="127" y="-157.3" font-family="Times,serif" font-size="14.00" fill="#000000">_layout</text>
<text text-anchor="start" x="127" y="-143.3" font-family="Times,serif" font-size="14.00" fill="#000000">usage_role_params</text>
</g>
<!-- WelcomeController -->
<g id="node19" class="node">
<title>WelcomeController</title>
<path fill="none" stroke="#000000" d="M539,-731.5C539,-731.5 641.0654,-731.5 641.0654,-731.5 647.0654,-731.5 653.0654,-737.5 653.0654,-743.5 653.0654,-743.5 653.0654,-837.5 653.0654,-837.5 653.0654,-843.5 647.0654,-849.5 641.0654,-849.5 641.0654,-849.5 539,-849.5 539,-849.5 533,-849.5 527,-843.5 527,-837.5 527,-837.5 527,-743.5 527,-743.5 527,-737.5 533,-731.5 539,-731.5"/>
<text text-anchor="middle" x="590.0327" y="-834.3" font-family="Times,serif" font-size="14.00" fill="#000000">WelcomeController</text>
<polyline fill="none" stroke="#000000" points="527,-827.5 653.0654,-827.5 "/>
<text text-anchor="start" x="535" y="-812.3" font-family="Times,serif" font-size="14.00" fill="#000000">dashboard</text>
<text text-anchor="start" x="535" y="-798.3" font-family="Times,serif" font-size="14.00" fill="#000000">landing</text>
<text text-anchor="start" x="535" y="-784.3" font-family="Times,serif" font-size="14.00" fill="#000000">status</text>
<polyline fill="none" stroke="#000000" points="527,-777.5 653.0654,-777.5 "/>
<polyline fill="none" stroke="#000000" points="527,-753.5 653.0654,-753.5 "/>
<text text-anchor="start" x="535" y="-738.3" font-family="Times,serif" font-size="14.00" fill="#000000">_layout</text>
</g>
</g>
</svg>
