<?xml version="1.0" encoding="UTF-8" standalone="no"?>
<!DOCTYPE svg PUBLIC "-//W3C//DTD SVG 1.1//EN"
 "http://www.w3.org/Graphics/SVG/1.1/DTD/svg11.dtd">
<!-- Generated by graphviz version 2.38.0 (20140413.2041)
 -->
<!-- Title: controllers_diagram Pages: 1 -->
<svg width="1000pt" height="965pt"
 viewBox="0.00 0.00 999.87 965.00" xmlns="http://www.w3.org/2000/svg" xmlns:xlink="http://www.w3.org/1999/xlink">
<g id="graph0" class="graph" transform="scale(1 1) rotate(0) translate(435.883 529.5)">
<title>controllers_diagram</title>
<polygon fill="none" stroke="none" points="-435.883,435.5 -435.883,-529.5 563.99,-529.5 563.99,435.5 -435.883,435.5"/>
<!-- _diagram_info -->
<g id="node1" class="node"><title>_diagram_info</title>
<text text-anchor="start" x="71.5503" y="180.9" font-family="Times,serif" font-size="13.00">Controllers diagram</text>
<text text-anchor="start" x="71.5503" y="193.9" font-family="Times,serif" font-size="13.00">Date: Jun 21 2016 &#45; 10:39</text>
<text text-anchor="start" x="71.5503" y="206.9" font-family="Times,serif" font-size="13.00">Migration version: 20160621172318</text>
<text text-anchor="start" x="71.5503" y="219.9" font-family="Times,serif" font-size="13.00">Generated by RailRoady 1.4.2</text>
<text text-anchor="start" x="71.5503" y="232.9" font-family="Times,serif" font-size="13.00">http://railroady.prestonlee.com</text>
</g>
<!-- ActivitiesController -->
<g id="node2" class="node"><title>ActivitiesController</title>
<path fill="none" stroke="black" d="M444.01,-433C444.01,-433 547.99,-433 547.99,-433 553.99,-433 559.99,-439 559.99,-445 559.99,-445 559.99,-513 559.99,-513 559.99,-519 553.99,-525 547.99,-525 547.99,-525 444.01,-525 444.01,-525 438.01,-525 432.01,-519 432.01,-513 432.01,-513 432.01,-445 432.01,-445 432.01,-439 438.01,-433 444.01,-433"/>
<text text-anchor="middle" x="496" y="-509.8" font-family="Times,serif" font-size="14.00">ActivitiesController</text>
<polyline fill="none" stroke="black" points="432.01,-503 559.99,-503 "/>
<polyline fill="none" stroke="black" points="432.01,-479 559.99,-479 "/>
<polyline fill="none" stroke="black" points="432.01,-455 559.99,-455 "/>
<text text-anchor="start" x="440.01" y="-439.8" font-family="Times,serif" font-size="14.00">_layout</text>
</g>
<!-- ApplicationController -->
<g id="node3" class="node"><title>ApplicationController</title>
<path fill="none" stroke="black" d="M-99.5176,111C-99.5176,111 77.5176,111 77.5176,111 83.5176,111 89.5176,105 89.5176,99 89.5176,99 89.5176,-93 89.5176,-93 89.5176,-99 83.5176,-105 77.5176,-105 77.5176,-105 -99.5176,-105 -99.5176,-105 -105.518,-105 -111.518,-99 -111.518,-93 -111.518,-93 -111.518,99 -111.518,99 -111.518,105 -105.518,111 -99.5176,111"/>
<text text-anchor="middle" x="-11" y="-89.8" font-family="Times,serif" font-size="14.00">ApplicationController</text>
<polyline fill="none" stroke="black" points="-111.518,-83 89.5176,-83 "/>
<text text-anchor="start" x="-103.518" y="-67.8" font-family="Times,serif" font-size="14.00">unauthenticate!</text>
<text text-anchor="start" x="-103.518" y="-53.8" font-family="Times,serif" font-size="14.00">build_oauth_request</text>
<text text-anchor="start" x="-103.518" y="-39.8" font-family="Times,serif" font-size="14.00">cors_preflight_check</text>
<text text-anchor="start" x="-103.518" y="-25.8" font-family="Times,serif" font-size="14.00">cors_set_access_control_headers</text>
<text text-anchor="start" x="-103.518" y="-11.8" font-family="Times,serif" font-size="14.00">current_identity</text>
<text text-anchor="start" x="-103.518" y="2.2" font-family="Times,serif" font-size="14.00">current_user</text>
<text text-anchor="start" x="-103.518" y="16.2" font-family="Times,serif" font-size="14.00">new_nonce</text>
<text text-anchor="start" x="-103.518" y="30.2" font-family="Times,serif" font-size="14.00">set_options_from</text>
<text text-anchor="start" x="-103.518" y="44.2" font-family="Times,serif" font-size="14.00">stored_nonce</text>
<text text-anchor="start" x="-103.518" y="58.2" font-family="Times,serif" font-size="14.00">authenticate_identity!</text>
<polyline fill="none" stroke="black" points="-111.518,65 89.5176,65 "/>
<polyline fill="none" stroke="black" points="-111.518,89 89.5176,89 "/>
<text text-anchor="start" x="-103.518" y="104.2" font-family="Times,serif" font-size="14.00">_layout</text>
</g>
<!-- AssetsController -->
<g id="node4" class="node"><title>AssetsController</title>
<path fill="none" stroke="black" d="M-404.052,63C-404.052,63 -317.948,63 -317.948,63 -311.948,63 -305.948,57 -305.948,51 -305.948,51 -305.948,-17 -305.948,-17 -305.948,-23 -311.948,-29 -317.948,-29 -317.948,-29 -404.052,-29 -404.052,-29 -410.052,-29 -416.052,-23 -416.052,-17 -416.052,-17 -416.052,51 -416.052,51 -416.052,57 -410.052,63 -404.052,63"/>
<text text-anchor="middle" x="-361" y="-13.8" font-family="Times,serif" font-size="14.00">AssetsController</text>
<polyline fill="none" stroke="black" points="-416.052,-7 -305.948,-7 "/>
<polyline fill="none" stroke="black" points="-416.052,17 -305.948,17 "/>
<polyline fill="none" stroke="black" points="-416.052,41 -305.948,41 "/>
<text text-anchor="start" x="-408.052" y="56.2" font-family="Times,serif" font-size="14.00">_layout</text>
</g>
<!-- CapabilitiesController -->
<g id="node5" class="node"><title>CapabilitiesController</title>
<path fill="none" stroke="black" d="M139.79,127C139.79,127 256.21,127 256.21,127 262.21,127 268.21,121 268.21,115 268.21,115 268.21,-63 268.21,-63 268.21,-69 262.21,-75 256.21,-75 256.21,-75 139.79,-75 139.79,-75 133.79,-75 127.79,-69 127.79,-63 127.79,-63 127.79,115 127.79,115 127.79,121 133.79,127 139.79,127"/>
<text text-anchor="middle" x="198" y="-59.8" font-family="Times,serif" font-size="14.00">CapabilitiesController</text>
<polyline fill="none" stroke="black" points="127.79,-53 268.21,-53 "/>
<text text-anchor="start" x="135.79" y="-37.8" font-family="Times,serif" font-size="14.00">index</text>
<text text-anchor="start" x="135.79" y="-23.8" font-family="Times,serif" font-size="14.00">destroy</text>
<text text-anchor="start" x="135.79" y="-9.8" font-family="Times,serif" font-size="14.00">edit</text>
<text text-anchor="start" x="135.79" y="4.2" font-family="Times,serif" font-size="14.00">create</text>
<text text-anchor="start" x="135.79" y="18.2" font-family="Times,serif" font-size="14.00">new</text>
<text text-anchor="start" x="135.79" y="32.2" font-family="Times,serif" font-size="14.00">show</text>
<text text-anchor="start" x="135.79" y="46.2" font-family="Times,serif" font-size="14.00">update</text>
<polyline fill="none" stroke="black" points="127.79,53 268.21,53 "/>
<polyline fill="none" stroke="black" points="127.79,77 268.21,77 "/>
<text text-anchor="start" x="135.79" y="92.2" font-family="Times,serif" font-size="14.00">_layout</text>
<text text-anchor="start" x="135.79" y="106.2" font-family="Times,serif" font-size="14.00">capability_params</text>
<text text-anchor="start" x="135.79" y="120.2" font-family="Times,serif" font-size="14.00">set_capability</text>
</g>
<!-- ClientsController -->
<g id="node6" class="node"><title>ClientsController</title>
<path fill="none" stroke="black" d="M-3.60693,-385C-3.60693,-385 85.6069,-385 85.6069,-385 91.6069,-385 97.6069,-391 97.6069,-397 97.6069,-397 97.6069,-477 97.6069,-477 97.6069,-483 91.6069,-489 85.6069,-489 85.6069,-489 -3.60693,-489 -3.60693,-489 -9.60693,-489 -15.6069,-483 -15.6069,-477 -15.6069,-477 -15.6069,-397 -15.6069,-397 -15.6069,-391 -9.60693,-385 -3.60693,-385"/>
<text text-anchor="middle" x="41" y="-473.8" font-family="Times,serif" font-size="14.00">ClientsController</text>
<polyline fill="none" stroke="black" points="-15.6069,-467 97.6069,-467 "/>
<text text-anchor="start" x="-7.60693" y="-451.8" font-family="Times,serif" font-size="14.00">index</text>
<text text-anchor="start" x="-7.60693" y="-437.8" font-family="Times,serif" font-size="14.00">launch</text>
<polyline fill="none" stroke="black" points="-15.6069,-431 97.6069,-431 "/>
<polyline fill="none" stroke="black" points="-15.6069,-407 97.6069,-407 "/>
<text text-anchor="start" x="-7.60693" y="-391.8" font-family="Times,serif" font-size="14.00">_layout</text>
</g>
<!-- ContextsController -->
<g id="node7" class="node"><title>ContextsController</title>
<path fill="none" stroke="black" d="M-163.662,-417C-163.662,-417 -64.3379,-417 -64.3379,-417 -58.3379,-417 -52.3379,-423 -52.3379,-429 -52.3379,-429 -52.3379,-497 -52.3379,-497 -52.3379,-503 -58.3379,-509 -64.3379,-509 -64.3379,-509 -163.662,-509 -163.662,-509 -169.662,-509 -175.662,-503 -175.662,-497 -175.662,-497 -175.662,-429 -175.662,-429 -175.662,-423 -169.662,-417 -163.662,-417"/>
<text text-anchor="middle" x="-114" y="-493.8" font-family="Times,serif" font-size="14.00">ContextsController</text>
<polyline fill="none" stroke="black" points="-175.662,-487 -52.3379,-487 "/>
<polyline fill="none" stroke="black" points="-175.662,-463 -52.3379,-463 "/>
<polyline fill="none" stroke="black" points="-175.662,-439 -52.3379,-439 "/>
<text text-anchor="start" x="-167.662" y="-423.8" font-family="Times,serif" font-size="14.00">_layout</text>
</g>
<!-- FociController -->
<g id="node8" class="node"><title>FociController</title>
<path fill="none" stroke="black" d="M-292.217,303C-292.217,303 -217.783,303 -217.783,303 -211.783,303 -205.783,297 -205.783,291 -205.783,291 -205.783,113 -205.783,113 -205.783,107 -211.783,101 -217.783,101 -217.783,101 -292.217,101 -292.217,101 -298.217,101 -304.217,107 -304.217,113 -304.217,113 -304.217,291 -304.217,291 -304.217,297 -298.217,303 -292.217,303"/>
<text text-anchor="middle" x="-255" y="116.2" font-family="Times,serif" font-size="14.00">FociController</text>
<polyline fill="none" stroke="black" points="-304.217,123 -205.783,123 "/>
<text text-anchor="start" x="-296.217" y="138.2" font-family="Times,serif" font-size="14.00">index</text>
<text text-anchor="start" x="-296.217" y="152.2" font-family="Times,serif" font-size="14.00">destroy</text>
<text text-anchor="start" x="-296.217" y="166.2" font-family="Times,serif" font-size="14.00">edit</text>
<text text-anchor="start" x="-296.217" y="180.2" font-family="Times,serif" font-size="14.00">create</text>
<text text-anchor="start" x="-296.217" y="194.2" font-family="Times,serif" font-size="14.00">new</text>
<text text-anchor="start" x="-296.217" y="208.2" font-family="Times,serif" font-size="14.00">show</text>
<text text-anchor="start" x="-296.217" y="222.2" font-family="Times,serif" font-size="14.00">update</text>
<polyline fill="none" stroke="black" points="-304.217,229 -205.783,229 "/>
<polyline fill="none" stroke="black" points="-304.217,253 -205.783,253 "/>
<text text-anchor="start" x="-296.217" y="268.2" font-family="Times,serif" font-size="14.00">_layout</text>
<text text-anchor="start" x="-296.217" y="282.2" font-family="Times,serif" font-size="14.00">focus_params</text>
<text text-anchor="start" x="-296.217" y="296.2" font-family="Times,serif" font-size="14.00">set_focus</text>
</g>
<!-- GroupsController -->
<g id="node9" class="node"><title>GroupsController</title>
<path fill="none" stroke="black" d="M139.617,-113C139.617,-113 230.383,-113 230.383,-113 236.383,-113 242.383,-119 242.383,-125 242.383,-125 242.383,-303 242.383,-303 242.383,-309 236.383,-315 230.383,-315 230.383,-315 139.617,-315 139.617,-315 133.617,-315 127.617,-309 127.617,-303 127.617,-303 127.617,-125 127.617,-125 127.617,-119 133.617,-113 139.617,-113"/>
<text text-anchor="middle" x="185" y="-299.8" font-family="Times,serif" font-size="14.00">GroupsController</text>
<polyline fill="none" stroke="black" points="127.617,-293 242.383,-293 "/>
<text text-anchor="start" x="135.617" y="-277.8" font-family="Times,serif" font-size="14.00">index</text>
<text text-anchor="start" x="135.617" y="-263.8" font-family="Times,serif" font-size="14.00">destroy</text>
<text text-anchor="start" x="135.617" y="-249.8" font-family="Times,serif" font-size="14.00">edit</text>
<text text-anchor="start" x="135.617" y="-235.8" font-family="Times,serif" font-size="14.00">create</text>
<text text-anchor="start" x="135.617" y="-221.8" font-family="Times,serif" font-size="14.00">new</text>
<text text-anchor="start" x="135.617" y="-207.8" font-family="Times,serif" font-size="14.00">show</text>
<text text-anchor="start" x="135.617" y="-193.8" font-family="Times,serif" font-size="14.00">update</text>
<polyline fill="none" stroke="black" points="127.617,-187 242.383,-187 "/>
<polyline fill="none" stroke="black" points="127.617,-163 242.383,-163 "/>
<text text-anchor="start" x="135.617" y="-147.8" font-family="Times,serif" font-size="14.00">_layout</text>
<text text-anchor="start" x="135.617" y="-133.8" font-family="Times,serif" font-size="14.00">group_params</text>
<text text-anchor="start" x="135.617" y="-119.8" font-family="Times,serif" font-size="14.00">set_group</text>
</g>
<!-- IdentitiesController -->
<g id="node10" class="node"><title>IdentitiesController</title>
<path fill="none" stroke="black" d="M364.179,431C364.179,431 465.821,431 465.821,431 471.821,431 477.821,425 477.821,419 477.821,419 477.821,353 477.821,353 477.821,347 471.821,341 465.821,341 465.821,341 364.179,341 364.179,341 358.179,341 352.179,347 352.179,353 352.179,353 352.179,419 352.179,419 352.179,425 358.179,431 364.179,431"/>
<text text-anchor="middle" x="415" y="356.2" font-family="Times,serif" font-size="14.00">IdentitiesController</text>
<polyline fill="none" stroke="black" points="352.179,363 477.821,363 "/>
<text text-anchor="start" x="360.179" y="378.2" font-family="Times,serif" font-size="14.00">destroy</text>
<polyline fill="none" stroke="black" points="352.179,385 477.821,385 "/>
<polyline fill="none" stroke="black" points="352.179,409 477.821,409 "/>
<text text-anchor="start" x="360.179" y="424.2" font-family="Times,serif" font-size="14.00">_layout</text>
</g>
<!-- InterestsController -->
<g id="node11" class="node"><title>InterestsController</title>
<path fill="none" stroke="black" d="M-260.486,63C-260.486,63 -163.514,63 -163.514,63 -157.514,63 -151.514,57 -151.514,51 -151.514,51 -151.514,-127 -151.514,-127 -151.514,-133 -157.514,-139 -163.514,-139 -163.514,-139 -260.486,-139 -260.486,-139 -266.486,-139 -272.486,-133 -272.486,-127 -272.486,-127 -272.486,51 -272.486,51 -272.486,57 -266.486,63 -260.486,63"/>
<text text-anchor="middle" x="-212" y="-123.8" font-family="Times,serif" font-size="14.00">InterestsController</text>
<polyline fill="none" stroke="black" points="-272.486,-117 -151.514,-117 "/>
<text text-anchor="start" x="-264.486" y="-101.8" font-family="Times,serif" font-size="14.00">index</text>
<text text-anchor="start" x="-264.486" y="-87.8" font-family="Times,serif" font-size="14.00">destroy</text>
<text text-anchor="start" x="-264.486" y="-73.8" font-family="Times,serif" font-size="14.00">edit</text>
<text text-anchor="start" x="-264.486" y="-59.8" font-family="Times,serif" font-size="14.00">create</text>
<text text-anchor="start" x="-264.486" y="-45.8" font-family="Times,serif" font-size="14.00">new</text>
<text text-anchor="start" x="-264.486" y="-31.8" font-family="Times,serif" font-size="14.00">show</text>
<text text-anchor="start" x="-264.486" y="-17.8" font-family="Times,serif" font-size="14.00">update</text>
<polyline fill="none" stroke="black" points="-272.486,-11 -151.514,-11 "/>
<polyline fill="none" stroke="black" points="-272.486,13 -151.514,13 "/>
<text text-anchor="start" x="-264.486" y="28.2" font-family="Times,serif" font-size="14.00">_layout</text>
<text text-anchor="start" x="-264.486" y="42.2" font-family="Times,serif" font-size="14.00">interest_params</text>
<text text-anchor="start" x="-264.486" y="56.2" font-family="Times,serif" font-size="14.00">set_interest</text>
</g>
<!-- IssuesController -->
<g id="node12" class="node"><title>IssuesController</title>
<path fill="none" stroke="black" d="M-419.883,431C-419.883,431 -336.117,431 -336.117,431 -330.117,431 -324.117,425 -324.117,419 -324.117,419 -324.117,351 -324.117,351 -324.117,345 -330.117,339 -336.117,339 -336.117,339 -419.883,339 -419.883,339 -425.883,339 -431.883,345 -431.883,351 -431.883,351 -431.883,419 -431.883,419 -431.883,425 -425.883,431 -419.883,431"/>
<text text-anchor="middle" x="-378" y="354.2" font-family="Times,serif" font-size="14.00">IssuesController</text>
<polyline fill="none" stroke="black" points="-431.883,361 -324.117,361 "/>
<polyline fill="none" stroke="black" points="-431.883,385 -324.117,385 "/>
<polyline fill="none" stroke="black" points="-431.883,409 -324.117,409 "/>
<text text-anchor="start" x="-423.883" y="424.2" font-family="Times,serif" font-size="14.00">_layout</text>
</g>
<!-- MembersController -->
<g id="node13" class="node"><title>MembersController</title>
<path fill="none" stroke="black" d="M-20.2104,-145C-20.2104,-145 82.2104,-145 82.2104,-145 88.2104,-145 94.2104,-151 94.2104,-157 94.2104,-157 94.2104,-335 94.2104,-335 94.2104,-341 88.2104,-347 82.2104,-347 82.2104,-347 -20.2104,-347 -20.2104,-347 -26.2104,-347 -32.2104,-341 -32.2104,-335 -32.2104,-335 -32.2104,-157 -32.2104,-157 -32.2104,-151 -26.2104,-145 -20.2104,-145"/>
<text text-anchor="middle" x="31" y="-331.8" font-family="Times,serif" font-size="14.00">MembersController</text>
<polyline fill="none" stroke="black" points="-32.2104,-325 94.2104,-325 "/>
<text text-anchor="start" x="-24.2104" y="-309.8" font-family="Times,serif" font-size="14.00">index</text>
<text text-anchor="start" x="-24.2104" y="-295.8" font-family="Times,serif" font-size="14.00">destroy</text>
<text text-anchor="start" x="-24.2104" y="-281.8" font-family="Times,serif" font-size="14.00">edit</text>
<text text-anchor="start" x="-24.2104" y="-267.8" font-family="Times,serif" font-size="14.00">create</text>
<text text-anchor="start" x="-24.2104" y="-253.8" font-family="Times,serif" font-size="14.00">new</text>
<text text-anchor="start" x="-24.2104" y="-239.8" font-family="Times,serif" font-size="14.00">show</text>
<text text-anchor="start" x="-24.2104" y="-225.8" font-family="Times,serif" font-size="14.00">update</text>
<polyline fill="none" stroke="black" points="-32.2104,-219 94.2104,-219 "/>
<polyline fill="none" stroke="black" points="-32.2104,-195 94.2104,-195 "/>
<text text-anchor="start" x="-24.2104" y="-179.8" font-family="Times,serif" font-size="14.00">_layout</text>
<text text-anchor="start" x="-24.2104" y="-165.8" font-family="Times,serif" font-size="14.00">member_params</text>
<text text-anchor="start" x="-24.2104" y="-151.8" font-family="Times,serif" font-size="14.00">set_member</text>
</g>
<!-- ObjectivesController -->
<g id="node14" class="node"><title>ObjectivesController</title>
<path fill="none" stroke="black" d="M-163.707,367C-163.707,367 -54.293,367 -54.293,367 -48.293,367 -42.293,361 -42.293,355 -42.293,355 -42.293,287 -42.293,287 -42.293,281 -48.293,275 -54.293,275 -54.293,275 -163.707,275 -163.707,275 -169.707,275 -175.707,281 -175.707,287 -175.707,287 -175.707,355 -175.707,355 -175.707,361 -169.707,367 -163.707,367"/>
<text text-anchor="middle" x="-109" y="290.2" font-family="Times,serif" font-size="14.00">ObjectivesController</text>
<polyline fill="none" stroke="black" points="-175.707,297 -42.293,297 "/>
<polyline fill="none" stroke="black" points="-175.707,321 -42.293,321 "/>
<polyline fill="none" stroke="black" points="-175.707,345 -42.293,345 "/>
<text text-anchor="start" x="-167.707" y="360.2" font-family="Times,serif" font-size="14.00">_layout</text>
</g>
<!-- ParticipantsController -->
<g id="node15" class="node"><title>ParticipantsController</title>
<path fill="none" stroke="black" d="M140.179,-353C140.179,-353 255.821,-353 255.821,-353 261.821,-353 267.821,-359 267.821,-365 267.821,-365 267.821,-433 267.821,-433 267.821,-439 261.821,-445 255.821,-445 255.821,-445 140.179,-445 140.179,-445 134.179,-445 128.179,-439 128.179,-433 128.179,-433 128.179,-365 128.179,-365 128.179,-359 134.179,-353 140.179,-353"/>
<text text-anchor="middle" x="198" y="-429.8" font-family="Times,serif" font-size="14.00">ParticipantsController</text>
<polyline fill="none" stroke="black" points="128.179,-423 267.821,-423 "/>
<polyline fill="none" stroke="black" points="128.179,-399 267.821,-399 "/>
<polyline fill="none" stroke="black" points="128.179,-375 267.821,-375 "/>
<text text-anchor="start" x="136.179" y="-359.8" font-family="Times,serif" font-size="14.00">_layout</text>
</g>
<!-- PlacesController -->
<g id="node16" class="node"><title>PlacesController</title>
<path fill="none" stroke="black" d="M460.345,303C460.345,303 545.655,303 545.655,303 551.655,303 557.655,297 557.655,291 557.655,291 557.655,223 557.655,223 557.655,217 551.655,211 545.655,211 545.655,211 460.345,211 460.345,211 454.345,211 448.345,217 448.345,223 448.345,223 448.345,291 448.345,291 448.345,297 454.345,303 460.345,303"/>
<text text-anchor="middle" x="503" y="226.2" font-family="Times,serif" font-size="14.00">PlacesController</text>
<polyline fill="none" stroke="black" points="448.345,233 557.655,233 "/>
<polyline fill="none" stroke="black" points="448.345,257 557.655,257 "/>
<polyline fill="none" stroke="black" points="448.345,281 557.655,281 "/>
<text text-anchor="start" x="456.345" y="296.2" font-family="Times,serif" font-size="14.00">_layout</text>
</g>
<!-- ProvidersController -->
<g id="node17" class="node"><title>ProvidersController</title>
<path fill="none" stroke="black" d="M204.396,431C204.396,431 307.604,431 307.604,431 313.604,431 319.604,425 319.604,419 319.604,419 319.604,351 319.604,351 319.604,345 313.604,339 307.604,339 307.604,339 204.396,339 204.396,339 198.396,339 192.396,345 192.396,351 192.396,351 192.396,419 192.396,419 192.396,425 198.396,431 204.396,431"/>
<text text-anchor="middle" x="256" y="354.2" font-family="Times,serif" font-size="14.00">ProvidersController</text>
<polyline fill="none" stroke="black" points="192.396,361 319.604,361 "/>
<polyline fill="none" stroke="black" points="192.396,385 319.604,385 "/>
<polyline fill="none" stroke="black" points="192.396,409 319.604,409 "/>
<text text-anchor="start" x="200.396" y="424.2" font-family="Times,serif" font-size="14.00">_layout</text>
</g>
<!-- ReferencesController -->
<g id="node18" class="node"><title>ReferencesController</title>
<path fill="none" stroke="black" d="M-323.862,-209C-323.862,-209 -212.138,-209 -212.138,-209 -206.138,-209 -200.138,-215 -200.138,-221 -200.138,-221 -200.138,-289 -200.138,-289 -200.138,-295 -206.138,-301 -212.138,-301 -212.138,-301 -323.862,-301 -323.862,-301 -329.862,-301 -335.862,-295 -335.862,-289 -335.862,-289 -335.862,-221 -335.862,-221 -335.862,-215 -329.862,-209 -323.862,-209"/>
<text text-anchor="middle" x="-268" y="-285.8" font-family="Times,serif" font-size="14.00">ReferencesController</text>
<polyline fill="none" stroke="black" points="-335.862,-279 -200.138,-279 "/>
<polyline fill="none" stroke="black" points="-335.862,-255 -200.138,-255 "/>
<polyline fill="none" stroke="black" points="-335.862,-231 -200.138,-231 "/>
<text text-anchor="start" x="-327.862" y="-215.8" font-family="Times,serif" font-size="14.00">_layout</text>
</g>
<!-- ResponsibilitiesController -->
<g id="node19" class="node"><title>ResponsibilitiesController</title>
<path fill="none" stroke="black" d="M315.503,-305C315.503,-305 454.497,-305 454.497,-305 460.497,-305 466.497,-311 466.497,-317 466.497,-317 466.497,-385 466.497,-385 466.497,-391 460.497,-397 454.497,-397 454.497,-397 315.503,-397 315.503,-397 309.503,-397 303.503,-391 303.503,-385 303.503,-385 303.503,-317 303.503,-317 303.503,-311 309.503,-305 315.503,-305"/>
<text text-anchor="middle" x="385" y="-381.8" font-family="Times,serif" font-size="14.00">ResponsibilitiesController</text>
<polyline fill="none" stroke="black" points="303.503,-375 466.497,-375 "/>
<polyline fill="none" stroke="black" points="303.503,-351 466.497,-351 "/>
<polyline fill="none" stroke="black" points="303.503,-327 466.497,-327 "/>
<text text-anchor="start" x="311.503" y="-311.8" font-family="Times,serif" font-size="14.00">_layout</text>
</g>
<!-- ResultsController -->
<g id="node20" class="node"><title>ResultsController</title>
<path fill="none" stroke="black" d="M-164.386,-177C-164.386,-177 -73.6138,-177 -73.6138,-177 -67.6138,-177 -61.6138,-183 -61.6138,-189 -61.6138,-189 -61.6138,-367 -61.6138,-367 -61.6138,-373 -67.6138,-379 -73.6138,-379 -73.6138,-379 -164.386,-379 -164.386,-379 -170.386,-379 -176.386,-373 -176.386,-367 -176.386,-367 -176.386,-189 -176.386,-189 -176.386,-183 -170.386,-177 -164.386,-177"/>
<text text-anchor="middle" x="-119" y="-363.8" font-family="Times,serif" font-size="14.00">ResultsController</text>
<polyline fill="none" stroke="black" points="-176.386,-357 -61.6138,-357 "/>
<text text-anchor="start" x="-168.386" y="-341.8" font-family="Times,serif" font-size="14.00">index</text>
<text text-anchor="start" x="-168.386" y="-327.8" font-family="Times,serif" font-size="14.00">destroy</text>
<text text-anchor="start" x="-168.386" y="-313.8" font-family="Times,serif" font-size="14.00">edit</text>
<text text-anchor="start" x="-168.386" y="-299.8" font-family="Times,serif" font-size="14.00">create</text>
<text text-anchor="start" x="-168.386" y="-285.8" font-family="Times,serif" font-size="14.00">new</text>
<text text-anchor="start" x="-168.386" y="-271.8" font-family="Times,serif" font-size="14.00">show</text>
<text text-anchor="start" x="-168.386" y="-257.8" font-family="Times,serif" font-size="14.00">update</text>
<polyline fill="none" stroke="black" points="-176.386,-251 -61.6138,-251 "/>
<polyline fill="none" stroke="black" points="-176.386,-227 -61.6138,-227 "/>
<text text-anchor="start" x="-168.386" y="-211.8" font-family="Times,serif" font-size="14.00">_layout</text>
<text text-anchor="start" x="-168.386" y="-197.8" font-family="Times,serif" font-size="14.00">result_params</text>
<text text-anchor="start" x="-168.386" y="-183.8" font-family="Times,serif" font-size="14.00">set_result</text>
</g>
<!-- RolesController -->
<g id="node21" class="node"><title>RolesController</title>
<path fill="none" stroke="black" d="M316.283,303C316.283,303 397.717,303 397.717,303 403.717,303 409.717,297 409.717,291 409.717,291 409.717,113 409.717,113 409.717,107 403.717,101 397.717,101 397.717,101 316.283,101 316.283,101 310.283,101 304.283,107 304.283,113 304.283,113 304.283,291 304.283,291 304.283,297 310.283,303 316.283,303"/>
<text text-anchor="middle" x="357" y="116.2" font-family="Times,serif" font-size="14.00">RolesController</text>
<polyline fill="none" stroke="black" points="304.283,123 409.717,123 "/>
<text text-anchor="start" x="312.283" y="138.2" font-family="Times,serif" font-size="14.00">index</text>
<text text-anchor="start" x="312.283" y="152.2" font-family="Times,serif" font-size="14.00">destroy</text>
<text text-anchor="start" x="312.283" y="166.2" font-family="Times,serif" font-size="14.00">edit</text>
<text text-anchor="start" x="312.283" y="180.2" font-family="Times,serif" font-size="14.00">create</text>
<text text-anchor="start" x="312.283" y="194.2" font-family="Times,serif" font-size="14.00">new</text>
<text text-anchor="start" x="312.283" y="208.2" font-family="Times,serif" font-size="14.00">show</text>
<text text-anchor="start" x="312.283" y="222.2" font-family="Times,serif" font-size="14.00">update</text>
<polyline fill="none" stroke="black" points="304.283,229 409.717,229 "/>
<polyline fill="none" stroke="black" points="304.283,253 409.717,253 "/>
<text text-anchor="start" x="312.283" y="268.2" font-family="Times,serif" font-size="14.00">_layout</text>
<text text-anchor="start" x="312.283" y="282.2" font-family="Times,serif" font-size="14.00">role_params</text>
<text text-anchor="start" x="312.283" y="296.2" font-family="Times,serif" font-size="14.00">set_role</text>
</g>
<!-- SessionsController -->
<g id="node22" class="node"><title>SessionsController</title>
<path fill="none" stroke="black" d="M283.793,-113C283.793,-113 400.207,-113 400.207,-113 406.207,-113 412.207,-119 412.207,-125 412.207,-125 412.207,-261 412.207,-261 412.207,-267 406.207,-273 400.207,-273 400.207,-273 283.793,-273 283.793,-273 277.793,-273 271.793,-267 271.793,-261 271.793,-261 271.793,-125 271.793,-125 271.793,-119 277.793,-113 283.793,-113"/>
<text text-anchor="middle" x="342" y="-257.8" font-family="Times,serif" font-size="14.00">SessionsController</text>
<polyline fill="none" stroke="black" points="271.793,-251 412.207,-251 "/>
<text text-anchor="start" x="279.793" y="-235.8" font-family="Times,serif" font-size="14.00">authenticate</text>
<text text-anchor="start" x="279.793" y="-221.8" font-family="Times,serif" font-size="14.00">callback</text>
<text text-anchor="start" x="279.793" y="-207.8" font-family="Times,serif" font-size="14.00">cleanse_session</text>
<text text-anchor="start" x="279.793" y="-193.8" font-family="Times,serif" font-size="14.00">destroy</text>
<text text-anchor="start" x="279.793" y="-179.8" font-family="Times,serif" font-size="14.00">openid_connect_login</text>
<text text-anchor="start" x="279.793" y="-165.8" font-family="Times,serif" font-size="14.00">public_keys_for</text>
<polyline fill="none" stroke="black" points="271.793,-159 412.207,-159 "/>
<polyline fill="none" stroke="black" points="271.793,-135 412.207,-135 "/>
<text text-anchor="start" x="279.793" y="-119.8" font-family="Times,serif" font-size="14.00">_layout</text>
</g>
<!-- Smart::LaunchController -->
<g id="node23" class="node"><title>Smart::LaunchController</title>
<path fill="none" stroke="black" d="M11.6274,367C11.6274,367 144.373,367 144.373,367 150.373,367 156.373,361 156.373,355 156.373,355 156.373,289 156.373,289 156.373,283 150.373,277 144.373,277 144.373,277 11.6274,277 11.6274,277 5.62744,277 -0.372559,283 -0.372559,289 -0.372559,289 -0.372559,355 -0.372559,355 -0.372559,361 5.62744,367 11.6274,367"/>
<text text-anchor="middle" x="78" y="292.2" font-family="Times,serif" font-size="14.00">Smart::LaunchController</text>
<polyline fill="none" stroke="black" points="-0.372559,299 156.373,299 "/>
<text text-anchor="start" x="7.62744" y="314.2" font-family="Times,serif" font-size="14.00">launch</text>
<polyline fill="none" stroke="black" points="-0.372559,321 156.373,321 "/>
<polyline fill="none" stroke="black" points="-0.372559,345 156.373,345 "/>
<text text-anchor="start" x="7.62744" y="360.2" font-family="Times,serif" font-size="14.00">_layout</text>
</g>
<!-- SnomedctConceptsController -->
<g id="node24" class="node"><title>SnomedctConceptsController</title>
<path fill="none" stroke="black" d="M316.179,63C316.179,63 473.821,63 473.821,63 479.821,63 485.821,57 485.821,51 485.821,51 485.821,-15 485.821,-15 485.821,-21 479.821,-27 473.821,-27 473.821,-27 316.179,-27 316.179,-27 310.179,-27 304.179,-21 304.179,-15 304.179,-15 304.179,51 304.179,51 304.179,57 310.179,63 316.179,63"/>
<text text-anchor="middle" x="395" y="-11.8" font-family="Times,serif" font-size="14.00">SnomedctConceptsController</text>
<polyline fill="none" stroke="black" points="304.179,-5 485.821,-5 "/>
<text text-anchor="start" x="312.179" y="10.2" font-family="Times,serif" font-size="14.00">index</text>
<polyline fill="none" stroke="black" points="304.179,17 485.821,17 "/>
<polyline fill="none" stroke="black" points="304.179,41 485.821,41 "/>
<text text-anchor="start" x="312.179" y="56.2" font-family="Times,serif" font-size="14.00">_layout</text>
</g>
<!-- SnomedctDescriptionsController -->
<g id="node25" class="node"><title>SnomedctDescriptionsController</title>
<path fill="none" stroke="black" d="M-164.152,239C-164.152,239 12.1519,239 12.1519,239 18.1519,239 24.1519,233 24.1519,227 24.1519,227 24.1519,159 24.1519,159 24.1519,153 18.1519,147 12.1519,147 12.1519,147 -164.152,147 -164.152,147 -170.152,147 -176.152,153 -176.152,159 -176.152,159 -176.152,227 -176.152,227 -176.152,233 -170.152,239 -164.152,239"/>
<text text-anchor="middle" x="-76" y="162.2" font-family="Times,serif" font-size="14.00">SnomedctDescriptionsController</text>
<polyline fill="none" stroke="black" points="-176.152,169 24.1519,169 "/>
<polyline fill="none" stroke="black" points="-176.152,193 24.1519,193 "/>
<polyline fill="none" stroke="black" points="-176.152,217 24.1519,217 "/>
<text text-anchor="start" x="-168.152" y="232.2" font-family="Times,serif" font-size="14.00">_layout</text>
</g>
<!-- UsersController -->
<g id="node26" class="node"><title>UsersController</title>
<path fill="none" stroke="black" d="M-403.714,-65C-403.714,-65 -322.286,-65 -322.286,-65 -316.286,-65 -310.286,-71 -310.286,-77 -310.286,-77 -310.286,-157 -310.286,-157 -310.286,-163 -316.286,-169 -322.286,-169 -322.286,-169 -403.714,-169 -403.714,-169 -409.714,-169 -415.714,-163 -415.714,-157 -415.714,-157 -415.714,-77 -415.714,-77 -415.714,-71 -409.714,-65 -403.714,-65"/>
<text text-anchor="middle" x="-363" y="-153.8" font-family="Times,serif" font-size="14.00">UsersController</text>
<polyline fill="none" stroke="black" points="-415.714,-147 -310.286,-147 "/>
<text text-anchor="start" x="-407.714" y="-131.8" font-family="Times,serif" font-size="14.00">edit</text>
<text text-anchor="start" x="-407.714" y="-117.8" font-family="Times,serif" font-size="14.00">index</text>
<polyline fill="none" stroke="black" points="-415.714,-111 -310.286,-111 "/>
<polyline fill="none" stroke="black" points="-415.714,-87 -310.286,-87 "/>
<text text-anchor="start" x="-407.714" y="-71.8" font-family="Times,serif" font-size="14.00">_layout</text>
</g>
<!-- WelcomeController -->
<g id="node27" class="node"><title>WelcomeController</title>
<path fill="none" stroke="black" d="M-324.033,-337C-324.033,-337 -221.967,-337 -221.967,-337 -215.967,-337 -209.967,-343 -209.967,-349 -209.967,-349 -209.967,-443 -209.967,-443 -209.967,-449 -215.967,-455 -221.967,-455 -221.967,-455 -324.033,-455 -324.033,-455 -330.033,-455 -336.033,-449 -336.033,-443 -336.033,-443 -336.033,-349 -336.033,-349 -336.033,-343 -330.033,-337 -324.033,-337"/>
<text text-anchor="middle" x="-273" y="-439.8" font-family="Times,serif" font-size="14.00">WelcomeController</text>
<polyline fill="none" stroke="black" points="-336.033,-433 -209.967,-433 "/>
<text text-anchor="start" x="-328.033" y="-417.8" font-family="Times,serif" font-size="14.00">dashboard</text>
<text text-anchor="start" x="-328.033" y="-403.8" font-family="Times,serif" font-size="14.00">landing</text>
<text text-anchor="start" x="-328.033" y="-389.8" font-family="Times,serif" font-size="14.00">status</text>
<polyline fill="none" stroke="black" points="-336.033,-383 -209.967,-383 "/>
<polyline fill="none" stroke="black" points="-336.033,-359 -209.967,-359 "/>
<text text-anchor="start" x="-328.033" y="-343.8" font-family="Times,serif" font-size="14.00">_layout</text>
</g>
</g>
</svg>
