<?xml version="1.0" encoding="UTF-8" standalone="no"?>
<!DOCTYPE svg PUBLIC "-//W3C//DTD SVG 1.1//EN"
 "http://www.w3.org/Graphics/SVG/1.1/DTD/svg11.dtd">
<!-- Generated by graphviz version 2.40.1 (20161225.0304)
 -->
<!-- Title: controllers_diagram Pages: 1 -->
<svg width="691pt" height="759pt"
 viewBox="0.00 0.00 690.75 759.00" xmlns="http://www.w3.org/2000/svg" xmlns:xlink="http://www.w3.org/1999/xlink">
<g id="graph0" class="graph" transform="scale(1 1) rotate(0) translate(4 755)">
<title>controllers_diagram</title>
<polygon fill="transparent" stroke="transparent" points="-4,4 -4,-755 686.752,-755 686.752,4 -4,4"/>
<!-- _diagram_info -->
<g id="node1" class="node">
<title>_diagram_info</title>
<text text-anchor="start" x="344" y="-186.6" font-family="Times,serif" font-size="13.00" fill="#000000">Controllers diagram</text>
<text text-anchor="start" x="344" y="-173.6" font-family="Times,serif" font-size="13.00" fill="#000000">Date: May 25 2018 &#45; 13:49</text>
<text text-anchor="start" x="344" y="-160.6" font-family="Times,serif" font-size="13.00" fill="#000000">Migration version: 20180525204850</text>
<text text-anchor="start" x="344" y="-147.6" font-family="Times,serif" font-size="13.00" fill="#000000">Generated by RailRoady 1.5.3</text>
<text text-anchor="start" x="344" y="-134.6" font-family="Times,serif" font-size="13.00" fill="#000000">http://railroady.prestonlee.com</text>
</g>
<!-- ApplicationController -->
<g id="node2" class="node">
<title>ApplicationController</title>
<path fill="none" stroke="#000000" d="M172,-208.5C172,-208.5 287.6416,-208.5 287.6416,-208.5 293.6416,-208.5 299.6416,-214.5 299.6416,-220.5 299.6416,-220.5 299.6416,-428.5 299.6416,-428.5 299.6416,-434.5 293.6416,-440.5 287.6416,-440.5 287.6416,-440.5 172,-440.5 172,-440.5 166,-440.5 160,-434.5 160,-428.5 160,-428.5 160,-220.5 160,-220.5 160,-214.5 166,-208.5 172,-208.5"/>
<text text-anchor="middle" x="229.8208" y="-425.3" font-family="Times,serif" font-size="14.00" fill="#000000">ApplicationController</text>
<polyline fill="none" stroke="#000000" points="160,-418.5 299.6416,-418.5 "/>
<text text-anchor="start" x="168" y="-403.3" font-family="Times,serif" font-size="14.00" fill="#000000">unauthenticate!</text>
<text text-anchor="start" x="168" y="-389.3" font-family="Times,serif" font-size="14.00" fill="#000000">_cancan_skipper=</text>
<text text-anchor="start" x="168" y="-375.3" font-family="Times,serif" font-size="14.00" fill="#000000">_cancan_skipper?</text>
<text text-anchor="start" x="168" y="-361.3" font-family="Times,serif" font-size="14.00" fill="#000000">authenticate_identity!</text>
<text text-anchor="start" x="168" y="-347.3" font-family="Times,serif" font-size="14.00" fill="#000000">build_oauth_request</text>
<text text-anchor="start" x="168" y="-333.3" font-family="Times,serif" font-size="14.00" fill="#000000">current_identity</text>
<text text-anchor="start" x="168" y="-319.3" font-family="Times,serif" font-size="14.00" fill="#000000">current_person</text>
<text text-anchor="start" x="168" y="-305.3" font-family="Times,serif" font-size="14.00" fill="#000000">current_user</text>
<text text-anchor="start" x="168" y="-291.3" font-family="Times,serif" font-size="14.00" fill="#000000">new_nonce</text>
<text text-anchor="start" x="168" y="-277.3" font-family="Times,serif" font-size="14.00" fill="#000000">stored_nonce</text>
<text text-anchor="start" x="168" y="-263.3" font-family="Times,serif" font-size="14.00" fill="#000000">_cancan_skipper</text>
<polyline fill="none" stroke="#000000" points="160,-256.5 299.6416,-256.5 "/>
<polyline fill="none" stroke="#000000" points="160,-232.5 299.6416,-232.5 "/>
</g>
<!-- EventsController -->
<g id="node3" class="node">
<title>EventsController</title>
<path fill="none" stroke="#000000" d="M348,-240.5C348,-240.5 483.0488,-240.5 483.0488,-240.5 489.0488,-240.5 495.0488,-246.5 495.0488,-252.5 495.0488,-252.5 495.0488,-388.5 495.0488,-388.5 495.0488,-394.5 489.0488,-400.5 483.0488,-400.5 483.0488,-400.5 348,-400.5 348,-400.5 342,-400.5 336,-394.5 336,-388.5 336,-388.5 336,-252.5 336,-252.5 336,-246.5 342,-240.5 348,-240.5"/>
<text text-anchor="middle" x="415.5244" y="-385.3" font-family="Times,serif" font-size="14.00" fill="#000000">EventsController</text>
<polyline fill="none" stroke="#000000" points="336,-378.5 495.0488,-378.5 "/>
<text text-anchor="start" x="344" y="-363.3" font-family="Times,serif" font-size="14.00" fill="#000000">create</text>
<text text-anchor="start" x="344" y="-349.3" font-family="Times,serif" font-size="14.00" fill="#000000">destroy</text>
<text text-anchor="start" x="344" y="-335.3" font-family="Times,serif" font-size="14.00" fill="#000000">index</text>
<text text-anchor="start" x="344" y="-321.3" font-family="Times,serif" font-size="14.00" fill="#000000">stream</text>
<text text-anchor="start" x="344" y="-307.3" font-family="Times,serif" font-size="14.00" fill="#000000">update</text>
<polyline fill="none" stroke="#000000" points="336,-300.5 495.0488,-300.5 "/>
<polyline fill="none" stroke="#000000" points="336,-276.5 495.0488,-276.5 "/>
<text text-anchor="start" x="344" y="-261.3" font-family="Times,serif" font-size="14.00" fill="#000000">event_params</text>
<text text-anchor="start" x="344" y="-247.3" font-family="Times,serif" font-size="14.00" fill="#000000">parameters_from_params</text>
</g>
<!-- PeopleController -->
<g id="node4" class="node">
<title>PeopleController</title>
<path fill="none" stroke="#000000" d="M492,-.5C492,-.5 579.6484,-.5 579.6484,-.5 585.6484,-.5 591.6484,-6.5 591.6484,-12.5 591.6484,-12.5 591.6484,-80.5 591.6484,-80.5 591.6484,-86.5 585.6484,-92.5 579.6484,-92.5 579.6484,-92.5 492,-92.5 492,-92.5 486,-92.5 480,-86.5 480,-80.5 480,-80.5 480,-12.5 480,-12.5 480,-6.5 486,-.5 492,-.5"/>
<text text-anchor="middle" x="535.8242" y="-77.3" font-family="Times,serif" font-size="14.00" fill="#000000">PeopleController</text>
<polyline fill="none" stroke="#000000" points="480,-70.5 591.6484,-70.5 "/>
<text text-anchor="start" x="488" y="-55.3" font-family="Times,serif" font-size="14.00" fill="#000000">index</text>
<polyline fill="none" stroke="#000000" points="480,-48.5 591.6484,-48.5 "/>
<polyline fill="none" stroke="#000000" points="480,-24.5 591.6484,-24.5 "/>
</g>
<!-- ClientsController -->
<g id="node5" class="node">
<title>ClientsController</title>
<path fill="none" stroke="#000000" d="M540,-240.5C540,-240.5 629.2139,-240.5 629.2139,-240.5 635.2139,-240.5 641.2139,-246.5 641.2139,-252.5 641.2139,-252.5 641.2139,-334.5 641.2139,-334.5 641.2139,-340.5 635.2139,-346.5 629.2139,-346.5 629.2139,-346.5 540,-346.5 540,-346.5 534,-346.5 528,-340.5 528,-334.5 528,-334.5 528,-252.5 528,-252.5 528,-246.5 534,-240.5 540,-240.5"/>
<text text-anchor="middle" x="584.6069" y="-331.3" font-family="Times,serif" font-size="14.00" fill="#000000">ClientsController</text>
<polyline fill="none" stroke="#000000" points="528,-324.5 641.2139,-324.5 "/>
<text text-anchor="start" x="536" y="-309.3" font-family="Times,serif" font-size="14.00" fill="#000000">index</text>
<text text-anchor="start" x="536" y="-295.3" font-family="Times,serif" font-size="14.00" fill="#000000">launch</text>
<polyline fill="none" stroke="#000000" points="528,-288.5 641.2139,-288.5 "/>
<polyline fill="none" stroke="#000000" points="528,-264.5 641.2139,-264.5 "/>
</g>
<!-- ContextsController -->
<g id="node6" class="node">
<title>ContextsController</title>
<path fill="none" stroke="#000000" d="M364,-656.5C364,-656.5 463.3242,-656.5 463.3242,-656.5 469.3242,-656.5 475.3242,-662.5 475.3242,-668.5 475.3242,-668.5 475.3242,-738.5 475.3242,-738.5 475.3242,-744.5 469.3242,-750.5 463.3242,-750.5 463.3242,-750.5 364,-750.5 364,-750.5 358,-750.5 352,-744.5 352,-738.5 352,-738.5 352,-668.5 352,-668.5 352,-662.5 358,-656.5 364,-656.5"/>
<text text-anchor="middle" x="413.6621" y="-735.3" font-family="Times,serif" font-size="14.00" fill="#000000">ContextsController</text>
<polyline fill="none" stroke="#000000" points="352,-728.5 475.3242,-728.5 "/>
<polyline fill="none" stroke="#000000" points="352,-704.5 475.3242,-704.5 "/>
<polyline fill="none" stroke="#000000" points="352,-680.5 475.3242,-680.5 "/>
</g>
<!-- GroupsController -->
<g id="node7" class="node">
<title>GroupsController</title>
<path fill="none" stroke="#000000" d="M28,-112.5C28,-112.5 118.7656,-112.5 118.7656,-112.5 124.7656,-112.5 130.7656,-118.5 130.7656,-124.5 130.7656,-124.5 130.7656,-288.5 130.7656,-288.5 130.7656,-294.5 124.7656,-300.5 118.7656,-300.5 118.7656,-300.5 28,-300.5 28,-300.5 22,-300.5 16,-294.5 16,-288.5 16,-288.5 16,-124.5 16,-124.5 16,-118.5 22,-112.5 28,-112.5"/>
<text text-anchor="middle" x="73.3828" y="-285.3" font-family="Times,serif" font-size="14.00" fill="#000000">GroupsController</text>
<polyline fill="none" stroke="#000000" points="16,-278.5 130.7656,-278.5 "/>
<text text-anchor="start" x="24" y="-263.3" font-family="Times,serif" font-size="14.00" fill="#000000">create</text>
<text text-anchor="start" x="24" y="-249.3" font-family="Times,serif" font-size="14.00" fill="#000000">destroy</text>
<text text-anchor="start" x="24" y="-235.3" font-family="Times,serif" font-size="14.00" fill="#000000">edit</text>
<text text-anchor="start" x="24" y="-221.3" font-family="Times,serif" font-size="14.00" fill="#000000">index</text>
<text text-anchor="start" x="24" y="-207.3" font-family="Times,serif" font-size="14.00" fill="#000000">new</text>
<text text-anchor="start" x="24" y="-193.3" font-family="Times,serif" font-size="14.00" fill="#000000">show</text>
<text text-anchor="start" x="24" y="-179.3" font-family="Times,serif" font-size="14.00" fill="#000000">update</text>
<polyline fill="none" stroke="#000000" points="16,-172.5 130.7656,-172.5 "/>
<polyline fill="none" stroke="#000000" points="16,-148.5 130.7656,-148.5 "/>
<text text-anchor="start" x="24" y="-133.3" font-family="Times,serif" font-size="14.00" fill="#000000">group_params</text>
<text text-anchor="start" x="24" y="-119.3" font-family="Times,serif" font-size="14.00" fill="#000000">set_group</text>
</g>
<!-- IdentityProvidersController -->
<g id="node8" class="node">
<title>IdentityProvidersController</title>
<path fill="none" stroke="#000000" d="M524,-432.5C524,-432.5 670.752,-432.5 670.752,-432.5 676.752,-432.5 682.752,-438.5 682.752,-444.5 682.752,-444.5 682.752,-512.5 682.752,-512.5 682.752,-518.5 676.752,-524.5 670.752,-524.5 670.752,-524.5 524,-524.5 524,-524.5 518,-524.5 512,-518.5 512,-512.5 512,-512.5 512,-444.5 512,-444.5 512,-438.5 518,-432.5 524,-432.5"/>
<text text-anchor="middle" x="597.376" y="-509.3" font-family="Times,serif" font-size="14.00" fill="#000000">IdentityProvidersController</text>
<polyline fill="none" stroke="#000000" points="512,-502.5 682.752,-502.5 "/>
<text text-anchor="start" x="520" y="-487.3" font-family="Times,serif" font-size="14.00" fill="#000000">launch</text>
<polyline fill="none" stroke="#000000" points="512,-480.5 682.752,-480.5 "/>
<polyline fill="none" stroke="#000000" points="512,-456.5 682.752,-456.5 "/>
</g>
<!-- SessionsController -->
<g id="node9" class="node">
<title>SessionsController</title>
<path fill="none" stroke="#000000" d="M172,-480.5C172,-480.5 288.4141,-480.5 288.4141,-480.5 294.4141,-480.5 300.4141,-486.5 300.4141,-492.5 300.4141,-492.5 300.4141,-630.5 300.4141,-630.5 300.4141,-636.5 294.4141,-642.5 288.4141,-642.5 288.4141,-642.5 172,-642.5 172,-642.5 166,-642.5 160,-636.5 160,-630.5 160,-630.5 160,-492.5 160,-492.5 160,-486.5 166,-480.5 172,-480.5"/>
<text text-anchor="middle" x="230.207" y="-627.3" font-family="Times,serif" font-size="14.00" fill="#000000">SessionsController</text>
<polyline fill="none" stroke="#000000" points="160,-620.5 300.4141,-620.5 "/>
<text text-anchor="start" x="168" y="-605.3" font-family="Times,serif" font-size="14.00" fill="#000000">callback</text>
<text text-anchor="start" x="168" y="-591.3" font-family="Times,serif" font-size="14.00" fill="#000000">cleanse_session</text>
<text text-anchor="start" x="168" y="-577.3" font-family="Times,serif" font-size="14.00" fill="#000000">create</text>
<text text-anchor="start" x="168" y="-563.3" font-family="Times,serif" font-size="14.00" fill="#000000">destroy</text>
<text text-anchor="start" x="168" y="-549.3" font-family="Times,serif" font-size="14.00" fill="#000000">openid_connect_login</text>
<text text-anchor="start" x="168" y="-535.3" font-family="Times,serif" font-size="14.00" fill="#000000">public_keys_for</text>
<polyline fill="none" stroke="#000000" points="160,-528.5 300.4141,-528.5 "/>
<polyline fill="none" stroke="#000000" points="160,-504.5 300.4141,-504.5 "/>
</g>
<!-- WelcomeController -->
<g id="node10" class="node">
<title>WelcomeController</title>
<path fill="none" stroke="#000000" d="M172,-64.5C172,-64.5 274.0654,-64.5 274.0654,-64.5 280.0654,-64.5 286.0654,-70.5 286.0654,-76.5 286.0654,-76.5 286.0654,-158.5 286.0654,-158.5 286.0654,-164.5 280.0654,-170.5 274.0654,-170.5 274.0654,-170.5 172,-170.5 172,-170.5 166,-170.5 160,-164.5 160,-158.5 160,-158.5 160,-76.5 160,-76.5 160,-70.5 166,-64.5 172,-64.5"/>
<text text-anchor="middle" x="223.0327" y="-155.3" font-family="Times,serif" font-size="14.00" fill="#000000">WelcomeController</text>
<polyline fill="none" stroke="#000000" points="160,-148.5 286.0654,-148.5 "/>
<text text-anchor="start" x="168" y="-133.3" font-family="Times,serif" font-size="14.00" fill="#000000">landing</text>
<text text-anchor="start" x="168" y="-119.3" font-family="Times,serif" font-size="14.00" fill="#000000">status</text>
<polyline fill="none" stroke="#000000" points="160,-112.5 286.0654,-112.5 "/>
<polyline fill="none" stroke="#000000" points="160,-88.5 286.0654,-88.5 "/>
</g>
<!-- AssetsController -->
<g id="node11" class="node">
<title>AssetsController</title>
<path fill="none" stroke="#000000" d="M524,-560.5C524,-560.5 610.1035,-560.5 610.1035,-560.5 616.1035,-560.5 622.1035,-566.5 622.1035,-572.5 622.1035,-572.5 622.1035,-680.5 622.1035,-680.5 622.1035,-686.5 616.1035,-692.5 610.1035,-692.5 610.1035,-692.5 524,-692.5 524,-692.5 518,-692.5 512,-686.5 512,-680.5 512,-680.5 512,-572.5 512,-572.5 512,-566.5 518,-560.5 524,-560.5"/>
<text text-anchor="middle" x="567.0518" y="-677.3" font-family="Times,serif" font-size="14.00" fill="#000000">AssetsController</text>
<polyline fill="none" stroke="#000000" points="512,-670.5 622.1035,-670.5 "/>
<text text-anchor="start" x="520" y="-655.3" font-family="Times,serif" font-size="14.00" fill="#000000">create</text>
<text text-anchor="start" x="520" y="-641.3" font-family="Times,serif" font-size="14.00" fill="#000000">destroy</text>
<text text-anchor="start" x="520" y="-627.3" font-family="Times,serif" font-size="14.00" fill="#000000">index</text>
<text text-anchor="start" x="520" y="-613.3" font-family="Times,serif" font-size="14.00" fill="#000000">update</text>
<polyline fill="none" stroke="#000000" points="512,-606.5 622.1035,-606.5 "/>
<polyline fill="none" stroke="#000000" points="512,-582.5 622.1035,-582.5 "/>
<text text-anchor="start" x="520" y="-567.3" font-family="Times,serif" font-size="14.00" fill="#000000">asset_params</text>
</g>
<!-- CapabilitiesController -->
<g id="node12" class="node">
<title>CapabilitiesController</title>
<path fill="none" stroke="#000000" d="M348,-432.5C348,-432.5 464.4209,-432.5 464.4209,-432.5 470.4209,-432.5 476.4209,-438.5 476.4209,-444.5 476.4209,-444.5 476.4209,-608.5 476.4209,-608.5 476.4209,-614.5 470.4209,-620.5 464.4209,-620.5 464.4209,-620.5 348,-620.5 348,-620.5 342,-620.5 336,-614.5 336,-608.5 336,-608.5 336,-444.5 336,-444.5 336,-438.5 342,-432.5 348,-432.5"/>
<text text-anchor="middle" x="406.2104" y="-605.3" font-family="Times,serif" font-size="14.00" fill="#000000">CapabilitiesController</text>
<polyline fill="none" stroke="#000000" points="336,-598.5 476.4209,-598.5 "/>
<text text-anchor="start" x="344" y="-583.3" font-family="Times,serif" font-size="14.00" fill="#000000">create</text>
<text text-anchor="start" x="344" y="-569.3" font-family="Times,serif" font-size="14.00" fill="#000000">destroy</text>
<text text-anchor="start" x="344" y="-555.3" font-family="Times,serif" font-size="14.00" fill="#000000">edit</text>
<text text-anchor="start" x="344" y="-541.3" font-family="Times,serif" font-size="14.00" fill="#000000">index</text>
<text text-anchor="start" x="344" y="-527.3" font-family="Times,serif" font-size="14.00" fill="#000000">new</text>
<text text-anchor="start" x="344" y="-513.3" font-family="Times,serif" font-size="14.00" fill="#000000">show</text>
<text text-anchor="start" x="344" y="-499.3" font-family="Times,serif" font-size="14.00" fill="#000000">update</text>
<polyline fill="none" stroke="#000000" points="336,-492.5 476.4209,-492.5 "/>
<polyline fill="none" stroke="#000000" points="336,-468.5 476.4209,-468.5 "/>
<text text-anchor="start" x="344" y="-453.3" font-family="Times,serif" font-size="14.00" fill="#000000">capability_params</text>
<text text-anchor="start" x="344" y="-439.3" font-family="Times,serif" font-size="14.00" fill="#000000">set_capability</text>
</g>
<!-- IdentitiesController -->
<g id="node13" class="node">
<title>IdentitiesController</title>
<path fill="none" stroke="#000000" d="M332,-.5C332,-.5 433.6416,-.5 433.6416,-.5 439.6416,-.5 445.6416,-6.5 445.6416,-12.5 445.6416,-12.5 445.6416,-80.5 445.6416,-80.5 445.6416,-86.5 439.6416,-92.5 433.6416,-92.5 433.6416,-92.5 332,-92.5 332,-92.5 326,-92.5 320,-86.5 320,-80.5 320,-80.5 320,-12.5 320,-12.5 320,-6.5 326,-.5 332,-.5"/>
<text text-anchor="middle" x="382.8208" y="-77.3" font-family="Times,serif" font-size="14.00" fill="#000000">IdentitiesController</text>
<polyline fill="none" stroke="#000000" points="320,-70.5 445.6416,-70.5 "/>
<text text-anchor="start" x="328" y="-55.3" font-family="Times,serif" font-size="14.00" fill="#000000">destroy</text>
<polyline fill="none" stroke="#000000" points="320,-48.5 445.6416,-48.5 "/>
<polyline fill="none" stroke="#000000" points="320,-24.5 445.6416,-24.5 "/>
</g>
<!-- MembersController -->
<g id="node14" class="node">
<title>MembersController</title>
<path fill="none" stroke="#000000" d="M12,-336.5C12,-336.5 114.4209,-336.5 114.4209,-336.5 120.4209,-336.5 126.4209,-342.5 126.4209,-348.5 126.4209,-348.5 126.4209,-512.5 126.4209,-512.5 126.4209,-518.5 120.4209,-524.5 114.4209,-524.5 114.4209,-524.5 12,-524.5 12,-524.5 6,-524.5 0,-518.5 0,-512.5 0,-512.5 0,-348.5 0,-348.5 0,-342.5 6,-336.5 12,-336.5"/>
<text text-anchor="middle" x="63.2104" y="-509.3" font-family="Times,serif" font-size="14.00" fill="#000000">MembersController</text>
<polyline fill="none" stroke="#000000" points="0,-502.5 126.4209,-502.5 "/>
<text text-anchor="start" x="8" y="-487.3" font-family="Times,serif" font-size="14.00" fill="#000000">create</text>
<text text-anchor="start" x="8" y="-473.3" font-family="Times,serif" font-size="14.00" fill="#000000">destroy</text>
<text text-anchor="start" x="8" y="-459.3" font-family="Times,serif" font-size="14.00" fill="#000000">edit</text>
<text text-anchor="start" x="8" y="-445.3" font-family="Times,serif" font-size="14.00" fill="#000000">index</text>
<text text-anchor="start" x="8" y="-431.3" font-family="Times,serif" font-size="14.00" fill="#000000">new</text>
<text text-anchor="start" x="8" y="-417.3" font-family="Times,serif" font-size="14.00" fill="#000000">show</text>
<text text-anchor="start" x="8" y="-403.3" font-family="Times,serif" font-size="14.00" fill="#000000">update</text>
<polyline fill="none" stroke="#000000" points="0,-396.5 126.4209,-396.5 "/>
<polyline fill="none" stroke="#000000" points="0,-372.5 126.4209,-372.5 "/>
<text text-anchor="start" x="8" y="-357.3" font-family="Times,serif" font-size="14.00" fill="#000000">member_params</text>
<text text-anchor="start" x="8" y="-343.3" font-family="Times,serif" font-size="14.00" fill="#000000">set_member</text>
</g>
<!-- RolesController -->
<g id="node15" class="node">
<title>RolesController</title>
<path fill="none" stroke="#000000" d="M28,-560.5C28,-560.5 109.4346,-560.5 109.4346,-560.5 115.4346,-560.5 121.4346,-566.5 121.4346,-572.5 121.4346,-572.5 121.4346,-736.5 121.4346,-736.5 121.4346,-742.5 115.4346,-748.5 109.4346,-748.5 109.4346,-748.5 28,-748.5 28,-748.5 22,-748.5 16,-742.5 16,-736.5 16,-736.5 16,-572.5 16,-572.5 16,-566.5 22,-560.5 28,-560.5"/>
<text text-anchor="middle" x="68.7173" y="-733.3" font-family="Times,serif" font-size="14.00" fill="#000000">RolesController</text>
<polyline fill="none" stroke="#000000" points="16,-726.5 121.4346,-726.5 "/>
<text text-anchor="start" x="24" y="-711.3" font-family="Times,serif" font-size="14.00" fill="#000000">create</text>
<text text-anchor="start" x="24" y="-697.3" font-family="Times,serif" font-size="14.00" fill="#000000">destroy</text>
<text text-anchor="start" x="24" y="-683.3" font-family="Times,serif" font-size="14.00" fill="#000000">edit</text>
<text text-anchor="start" x="24" y="-669.3" font-family="Times,serif" font-size="14.00" fill="#000000">index</text>
<text text-anchor="start" x="24" y="-655.3" font-family="Times,serif" font-size="14.00" fill="#000000">new</text>
<text text-anchor="start" x="24" y="-641.3" font-family="Times,serif" font-size="14.00" fill="#000000">show</text>
<text text-anchor="start" x="24" y="-627.3" font-family="Times,serif" font-size="14.00" fill="#000000">update</text>
<polyline fill="none" stroke="#000000" points="16,-620.5 121.4346,-620.5 "/>
<polyline fill="none" stroke="#000000" points="16,-596.5 121.4346,-596.5 "/>
<text text-anchor="start" x="24" y="-581.3" font-family="Times,serif" font-size="14.00" fill="#000000">role_params</text>
<text text-anchor="start" x="24" y="-567.3" font-family="Times,serif" font-size="14.00" fill="#000000">set_role</text>
</g>
</g>
</svg>
