<?xml version="1.0" encoding="UTF-8" standalone="no"?>
<!DOCTYPE svg PUBLIC "-//W3C//DTD SVG 1.1//EN"
 "http://www.w3.org/Graphics/SVG/1.1/DTD/svg11.dtd">
<!-- Generated by graphviz version 2.38.0 (20140413.2041)
 -->
<!-- Title: controllers_diagram Pages: 1 -->
<svg width="846pt" height="841pt"
 viewBox="0.00 0.00 846.33 841.00" xmlns="http://www.w3.org/2000/svg" xmlns:xlink="http://www.w3.org/1999/xlink">
<g id="graph0" class="graph" transform="scale(1 1) rotate(0) translate(360.607 463.5)">
<title>controllers_diagram</title>
<polygon fill="none" stroke="none" points="-360.607,377.5 -360.607,-463.5 485.72,-463.5 485.72,377.5 -360.607,377.5"/>
<!-- _diagram_info -->
<g id="node1" class="node"><title>_diagram_info</title>
<text text-anchor="start" x="314.28" y="59.9" font-family="Times,serif" font-size="13.00">Controllers diagram</text>
<text text-anchor="start" x="314.28" y="72.9" font-family="Times,serif" font-size="13.00">Date: Jun 29 2016 &#45; 10:53</text>
<text text-anchor="start" x="314.28" y="85.9" font-family="Times,serif" font-size="13.00">Migration version: 1</text>
<text text-anchor="start" x="314.28" y="98.9" font-family="Times,serif" font-size="13.00">Generated by RailRoady 1.5.1</text>
<text text-anchor="start" x="314.28" y="111.9" font-family="Times,serif" font-size="13.00">http://railroady.prestonlee.com</text>
</g>
<!-- ActivitiesController -->
<g id="node2" class="node"><title>ActivitiesController</title>
<path fill="none" stroke="black" d="M-89.9897,305C-89.9897,305 13.9897,305 13.9897,305 19.9897,305 25.9897,299 25.9897,293 25.9897,293 25.9897,171 25.9897,171 25.9897,165 19.9897,159 13.9897,159 13.9897,159 -89.9897,159 -89.9897,159 -95.9897,159 -101.99,165 -101.99,171 -101.99,171 -101.99,293 -101.99,293 -101.99,299 -95.9897,305 -89.9897,305"/>
<text text-anchor="middle" x="-38" y="174.2" font-family="Times,serif" font-size="14.00">ActivitiesController</text>
<polyline fill="none" stroke="black" points="-101.99,181 25.9897,181 "/>
<text text-anchor="start" x="-93.9897" y="196.2" font-family="Times,serif" font-size="14.00">create</text>
<text text-anchor="start" x="-93.9897" y="210.2" font-family="Times,serif" font-size="14.00">destroy</text>
<text text-anchor="start" x="-93.9897" y="224.2" font-family="Times,serif" font-size="14.00">index</text>
<text text-anchor="start" x="-93.9897" y="238.2" font-family="Times,serif" font-size="14.00">update</text>
<polyline fill="none" stroke="black" points="-101.99,245 25.9897,245 "/>
<polyline fill="none" stroke="black" points="-101.99,269 25.9897,269 "/>
<text text-anchor="start" x="-93.9897" y="284.2" font-family="Times,serif" font-size="14.00">_layout</text>
<text text-anchor="start" x="-93.9897" y="298.2" font-family="Times,serif" font-size="14.00">activity_params</text>
</g>
<!-- ActorRolesController -->
<g id="node3" class="node"><title>ActorRolesController</title>
<path fill="none" stroke="black" d="M301.345,-103C301.345,-103 414.655,-103 414.655,-103 420.655,-103 426.655,-109 426.655,-115 426.655,-115 426.655,-237 426.655,-237 426.655,-243 420.655,-249 414.655,-249 414.655,-249 301.345,-249 301.345,-249 295.345,-249 289.345,-243 289.345,-237 289.345,-237 289.345,-115 289.345,-115 289.345,-109 295.345,-103 301.345,-103"/>
<text text-anchor="middle" x="358" y="-233.8" font-family="Times,serif" font-size="14.00">ActorRolesController</text>
<polyline fill="none" stroke="black" points="289.345,-227 426.655,-227 "/>
<text text-anchor="start" x="297.345" y="-211.8" font-family="Times,serif" font-size="14.00">create</text>
<text text-anchor="start" x="297.345" y="-197.8" font-family="Times,serif" font-size="14.00">destroy</text>
<text text-anchor="start" x="297.345" y="-183.8" font-family="Times,serif" font-size="14.00">index</text>
<text text-anchor="start" x="297.345" y="-169.8" font-family="Times,serif" font-size="14.00">update</text>
<polyline fill="none" stroke="black" points="289.345,-163 426.655,-163 "/>
<polyline fill="none" stroke="black" points="289.345,-139 426.655,-139 "/>
<text text-anchor="start" x="297.345" y="-123.8" font-family="Times,serif" font-size="14.00">_layout</text>
<text text-anchor="start" x="297.345" y="-109.8" font-family="Times,serif" font-size="14.00">actor_role_params</text>
</g>
<!-- ApplicationController -->
<g id="node4" class="node"><title>ApplicationController</title>
<path fill="none" stroke="black" d="M-89.5176,118C-89.5176,118 87.5176,118 87.5176,118 93.5176,118 99.5176,112 99.5176,106 99.5176,106 99.5176,-100 99.5176,-100 99.5176,-106 93.5176,-112 87.5176,-112 87.5176,-112 -89.5176,-112 -89.5176,-112 -95.5176,-112 -101.518,-106 -101.518,-100 -101.518,-100 -101.518,106 -101.518,106 -101.518,112 -95.5176,118 -89.5176,118"/>
<text text-anchor="middle" x="-1" y="-96.8" font-family="Times,serif" font-size="14.00">ApplicationController</text>
<polyline fill="none" stroke="black" points="-101.518,-90 99.5176,-90 "/>
<text text-anchor="start" x="-93.5176" y="-74.8" font-family="Times,serif" font-size="14.00">unauthenticate!</text>
<text text-anchor="start" x="-93.5176" y="-60.8" font-family="Times,serif" font-size="14.00">build_oauth_request</text>
<text text-anchor="start" x="-93.5176" y="-46.8" font-family="Times,serif" font-size="14.00">cors_preflight_check</text>
<text text-anchor="start" x="-93.5176" y="-32.8" font-family="Times,serif" font-size="14.00">cors_set_access_control_headers</text>
<text text-anchor="start" x="-93.5176" y="-18.8" font-family="Times,serif" font-size="14.00">current_identity</text>
<text text-anchor="start" x="-93.5176" y="-4.8" font-family="Times,serif" font-size="14.00">current_person</text>
<text text-anchor="start" x="-93.5176" y="9.2" font-family="Times,serif" font-size="14.00">current_user</text>
<text text-anchor="start" x="-93.5176" y="23.2" font-family="Times,serif" font-size="14.00">new_nonce</text>
<text text-anchor="start" x="-93.5176" y="37.2" font-family="Times,serif" font-size="14.00">set_options_from</text>
<text text-anchor="start" x="-93.5176" y="51.2" font-family="Times,serif" font-size="14.00">stored_nonce</text>
<text text-anchor="start" x="-93.5176" y="65.2" font-family="Times,serif" font-size="14.00">authenticate_identity!</text>
<polyline fill="none" stroke="black" points="-101.518,72 99.5176,72 "/>
<polyline fill="none" stroke="black" points="-101.518,96 99.5176,96 "/>
<text text-anchor="start" x="-93.5176" y="111.2" font-family="Times,serif" font-size="14.00">_layout</text>
</g>
<!-- AssetsController -->
<g id="node5" class="node"><title>AssetsController</title>
<path fill="none" stroke="black" d="M-277.052,-290C-277.052,-290 -190.948,-290 -190.948,-290 -184.948,-290 -178.948,-296 -178.948,-302 -178.948,-302 -178.948,-424 -178.948,-424 -178.948,-430 -184.948,-436 -190.948,-436 -190.948,-436 -277.052,-436 -277.052,-436 -283.052,-436 -289.052,-430 -289.052,-424 -289.052,-424 -289.052,-302 -289.052,-302 -289.052,-296 -283.052,-290 -277.052,-290"/>
<text text-anchor="middle" x="-234" y="-420.8" font-family="Times,serif" font-size="14.00">AssetsController</text>
<polyline fill="none" stroke="black" points="-289.052,-414 -178.948,-414 "/>
<text text-anchor="start" x="-281.052" y="-398.8" font-family="Times,serif" font-size="14.00">create</text>
<text text-anchor="start" x="-281.052" y="-384.8" font-family="Times,serif" font-size="14.00">destroy</text>
<text text-anchor="start" x="-281.052" y="-370.8" font-family="Times,serif" font-size="14.00">index</text>
<text text-anchor="start" x="-281.052" y="-356.8" font-family="Times,serif" font-size="14.00">update</text>
<polyline fill="none" stroke="black" points="-289.052,-350 -178.948,-350 "/>
<polyline fill="none" stroke="black" points="-289.052,-326 -178.948,-326 "/>
<text text-anchor="start" x="-281.052" y="-310.8" font-family="Times,serif" font-size="14.00">_layout</text>
<text text-anchor="start" x="-281.052" y="-296.8" font-family="Times,serif" font-size="14.00">asset_params</text>
</g>
<!-- CapabilitiesController -->
<g id="node6" class="node"><title>CapabilitiesController</title>
<path fill="none" stroke="black" d="M147.79,135C147.79,135 264.21,135 264.21,135 270.21,135 276.21,129 276.21,123 276.21,123 276.21,-55 276.21,-55 276.21,-61 270.21,-67 264.21,-67 264.21,-67 147.79,-67 147.79,-67 141.79,-67 135.79,-61 135.79,-55 135.79,-55 135.79,123 135.79,123 135.79,129 141.79,135 147.79,135"/>
<text text-anchor="middle" x="206" y="-51.8" font-family="Times,serif" font-size="14.00">CapabilitiesController</text>
<polyline fill="none" stroke="black" points="135.79,-45 276.21,-45 "/>
<text text-anchor="start" x="143.79" y="-29.8" font-family="Times,serif" font-size="14.00">index</text>
<text text-anchor="start" x="143.79" y="-15.8" font-family="Times,serif" font-size="14.00">destroy</text>
<text text-anchor="start" x="143.79" y="-1.8" font-family="Times,serif" font-size="14.00">edit</text>
<text text-anchor="start" x="143.79" y="12.2" font-family="Times,serif" font-size="14.00">create</text>
<text text-anchor="start" x="143.79" y="26.2" font-family="Times,serif" font-size="14.00">new</text>
<text text-anchor="start" x="143.79" y="40.2" font-family="Times,serif" font-size="14.00">show</text>
<text text-anchor="start" x="143.79" y="54.2" font-family="Times,serif" font-size="14.00">update</text>
<polyline fill="none" stroke="black" points="135.79,61 276.21,61 "/>
<polyline fill="none" stroke="black" points="135.79,85 276.21,85 "/>
<text text-anchor="start" x="143.79" y="100.2" font-family="Times,serif" font-size="14.00">_layout</text>
<text text-anchor="start" x="143.79" y="114.2" font-family="Times,serif" font-size="14.00">capability_params</text>
<text text-anchor="start" x="143.79" y="128.2" font-family="Times,serif" font-size="14.00">set_capability</text>
</g>
<!-- ClientsController -->
<g id="node7" class="node"><title>ClientsController</title>
<path fill="none" stroke="black" d="M-344.607,356C-344.607,356 -255.393,356 -255.393,356 -249.393,356 -243.393,350 -243.393,344 -243.393,344 -243.393,264 -243.393,264 -243.393,258 -249.393,252 -255.393,252 -255.393,252 -344.607,252 -344.607,252 -350.607,252 -356.607,258 -356.607,264 -356.607,264 -356.607,344 -356.607,344 -356.607,350 -350.607,356 -344.607,356"/>
<text text-anchor="middle" x="-300" y="267.2" font-family="Times,serif" font-size="14.00">ClientsController</text>
<polyline fill="none" stroke="black" points="-356.607,274 -243.393,274 "/>
<text text-anchor="start" x="-348.607" y="289.2" font-family="Times,serif" font-size="14.00">index</text>
<text text-anchor="start" x="-348.607" y="303.2" font-family="Times,serif" font-size="14.00">launch</text>
<polyline fill="none" stroke="black" points="-356.607,310 -243.393,310 "/>
<polyline fill="none" stroke="black" points="-356.607,334 -243.393,334 "/>
<text text-anchor="start" x="-348.607" y="349.2" font-family="Times,serif" font-size="14.00">_layout</text>
</g>
<!-- ContextsController -->
<g id="node8" class="node"><title>ContextsController</title>
<path fill="none" stroke="black" d="M-293.662,-171C-293.662,-171 -194.338,-171 -194.338,-171 -188.338,-171 -182.338,-177 -182.338,-183 -182.338,-183 -182.338,-251 -182.338,-251 -182.338,-257 -188.338,-263 -194.338,-263 -194.338,-263 -293.662,-263 -293.662,-263 -299.662,-263 -305.662,-257 -305.662,-251 -305.662,-251 -305.662,-183 -305.662,-183 -305.662,-177 -299.662,-171 -293.662,-171"/>
<text text-anchor="middle" x="-244" y="-247.8" font-family="Times,serif" font-size="14.00">ContextsController</text>
<polyline fill="none" stroke="black" points="-305.662,-241 -182.338,-241 "/>
<polyline fill="none" stroke="black" points="-305.662,-217 -182.338,-217 "/>
<polyline fill="none" stroke="black" points="-305.662,-193 -182.338,-193 "/>
<text text-anchor="start" x="-297.662" y="-177.8" font-family="Times,serif" font-size="14.00">_layout</text>
</g>
<!-- GroupsController -->
<g id="node9" class="node"><title>GroupsController</title>
<path fill="none" stroke="black" d="M-5.38281,-154C-5.38281,-154 85.3828,-154 85.3828,-154 91.3828,-154 97.3828,-160 97.3828,-166 97.3828,-166 97.3828,-344 97.3828,-344 97.3828,-350 91.3828,-356 85.3828,-356 85.3828,-356 -5.38281,-356 -5.38281,-356 -11.3828,-356 -17.3828,-350 -17.3828,-344 -17.3828,-344 -17.3828,-166 -17.3828,-166 -17.3828,-160 -11.3828,-154 -5.38281,-154"/>
<text text-anchor="middle" x="40" y="-340.8" font-family="Times,serif" font-size="14.00">GroupsController</text>
<polyline fill="none" stroke="black" points="-17.3828,-334 97.3828,-334 "/>
<text text-anchor="start" x="-9.38281" y="-318.8" font-family="Times,serif" font-size="14.00">index</text>
<text text-anchor="start" x="-9.38281" y="-304.8" font-family="Times,serif" font-size="14.00">destroy</text>
<text text-anchor="start" x="-9.38281" y="-290.8" font-family="Times,serif" font-size="14.00">edit</text>
<text text-anchor="start" x="-9.38281" y="-276.8" font-family="Times,serif" font-size="14.00">create</text>
<text text-anchor="start" x="-9.38281" y="-262.8" font-family="Times,serif" font-size="14.00">new</text>
<text text-anchor="start" x="-9.38281" y="-248.8" font-family="Times,serif" font-size="14.00">show</text>
<text text-anchor="start" x="-9.38281" y="-234.8" font-family="Times,serif" font-size="14.00">update</text>
<polyline fill="none" stroke="black" points="-17.3828,-228 97.3828,-228 "/>
<polyline fill="none" stroke="black" points="-17.3828,-204 97.3828,-204 "/>
<text text-anchor="start" x="-9.38281" y="-188.8" font-family="Times,serif" font-size="14.00">_layout</text>
<text text-anchor="start" x="-9.38281" y="-174.8" font-family="Times,serif" font-size="14.00">group_params</text>
<text text-anchor="start" x="-9.38281" y="-160.8" font-family="Times,serif" font-size="14.00">set_group</text>
</g>
<!-- IdentitiesController -->
<g id="node10" class="node"><title>IdentitiesController</title>
<path fill="none" stroke="black" d="M318.179,16C318.179,16 419.821,16 419.821,16 425.821,16 431.821,10 431.821,4 431.821,4 431.821,-62 431.821,-62 431.821,-68 425.821,-74 419.821,-74 419.821,-74 318.179,-74 318.179,-74 312.179,-74 306.179,-68 306.179,-62 306.179,-62 306.179,4 306.179,4 306.179,10 312.179,16 318.179,16"/>
<text text-anchor="middle" x="369" y="-58.8" font-family="Times,serif" font-size="14.00">IdentitiesController</text>
<polyline fill="none" stroke="black" points="306.179,-52 431.821,-52 "/>
<text text-anchor="start" x="314.179" y="-36.8" font-family="Times,serif" font-size="14.00">destroy</text>
<polyline fill="none" stroke="black" points="306.179,-30 431.821,-30 "/>
<polyline fill="none" stroke="black" points="306.179,-6 431.821,-6 "/>
<text text-anchor="start" x="314.179" y="9.2" font-family="Times,serif" font-size="14.00">_layout</text>
</g>
<!-- MembersController -->
<g id="node11" class="node"><title>MembersController</title>
<path fill="none" stroke="black" d="M147.79,-103C147.79,-103 250.21,-103 250.21,-103 256.21,-103 262.21,-109 262.21,-115 262.21,-115 262.21,-293 262.21,-293 262.21,-299 256.21,-305 250.21,-305 250.21,-305 147.79,-305 147.79,-305 141.79,-305 135.79,-299 135.79,-293 135.79,-293 135.79,-115 135.79,-115 135.79,-109 141.79,-103 147.79,-103"/>
<text text-anchor="middle" x="199" y="-289.8" font-family="Times,serif" font-size="14.00">MembersController</text>
<polyline fill="none" stroke="black" points="135.79,-283 262.21,-283 "/>
<text text-anchor="start" x="143.79" y="-267.8" font-family="Times,serif" font-size="14.00">index</text>
<text text-anchor="start" x="143.79" y="-253.8" font-family="Times,serif" font-size="14.00">destroy</text>
<text text-anchor="start" x="143.79" y="-239.8" font-family="Times,serif" font-size="14.00">edit</text>
<text text-anchor="start" x="143.79" y="-225.8" font-family="Times,serif" font-size="14.00">create</text>
<text text-anchor="start" x="143.79" y="-211.8" font-family="Times,serif" font-size="14.00">new</text>
<text text-anchor="start" x="143.79" y="-197.8" font-family="Times,serif" font-size="14.00">show</text>
<text text-anchor="start" x="143.79" y="-183.8" font-family="Times,serif" font-size="14.00">update</text>
<polyline fill="none" stroke="black" points="135.79,-177 262.21,-177 "/>
<polyline fill="none" stroke="black" points="135.79,-153 262.21,-153 "/>
<text text-anchor="start" x="143.79" y="-137.8" font-family="Times,serif" font-size="14.00">_layout</text>
<text text-anchor="start" x="143.79" y="-123.8" font-family="Times,serif" font-size="14.00">member_params</text>
<text text-anchor="start" x="143.79" y="-109.8" font-family="Times,serif" font-size="14.00">set_member</text>
</g>
<!-- ObjectivesController -->
<g id="node12" class="node"><title>ObjectivesController</title>
<path fill="none" stroke="black" d="M301.293,-290C301.293,-290 410.707,-290 410.707,-290 416.707,-290 422.707,-296 422.707,-302 422.707,-302 422.707,-438 422.707,-438 422.707,-444 416.707,-450 410.707,-450 410.707,-450 301.293,-450 301.293,-450 295.293,-450 289.293,-444 289.293,-438 289.293,-438 289.293,-302 289.293,-302 289.293,-296 295.293,-290 301.293,-290"/>
<text text-anchor="middle" x="356" y="-434.8" font-family="Times,serif" font-size="14.00">ObjectivesController</text>
<polyline fill="none" stroke="black" points="289.293,-428 422.707,-428 "/>
<text text-anchor="start" x="297.293" y="-412.8" font-family="Times,serif" font-size="14.00">create</text>
<text text-anchor="start" x="297.293" y="-398.8" font-family="Times,serif" font-size="14.00">destroy</text>
<text text-anchor="start" x="297.293" y="-384.8" font-family="Times,serif" font-size="14.00">index</text>
<text text-anchor="start" x="297.293" y="-370.8" font-family="Times,serif" font-size="14.00">show</text>
<text text-anchor="start" x="297.293" y="-356.8" font-family="Times,serif" font-size="14.00">update</text>
<polyline fill="none" stroke="black" points="289.293,-350 422.707,-350 "/>
<polyline fill="none" stroke="black" points="289.293,-326 422.707,-326 "/>
<text text-anchor="start" x="297.293" y="-310.8" font-family="Times,serif" font-size="14.00">_layout</text>
<text text-anchor="start" x="297.293" y="-296.8" font-family="Times,serif" font-size="14.00">objective_params</text>
</g>
<!-- PeopleController -->
<g id="node13" class="node"><title>PeopleController</title>
<path fill="none" stroke="black" d="M63.1758,373C63.1758,373 150.824,373 150.824,373 156.824,373 162.824,367 162.824,361 162.824,361 162.824,295 162.824,295 162.824,289 156.824,283 150.824,283 150.824,283 63.1758,283 63.1758,283 57.1758,283 51.1758,289 51.1758,295 51.1758,295 51.1758,361 51.1758,361 51.1758,367 57.1758,373 63.1758,373"/>
<text text-anchor="middle" x="107" y="298.2" font-family="Times,serif" font-size="14.00">PeopleController</text>
<polyline fill="none" stroke="black" points="51.1758,305 162.824,305 "/>
<text text-anchor="start" x="59.1758" y="320.2" font-family="Times,serif" font-size="14.00">index</text>
<polyline fill="none" stroke="black" points="51.1758,327 162.824,327 "/>
<polyline fill="none" stroke="black" points="51.1758,351 162.824,351 "/>
<text text-anchor="start" x="59.1758" y="366.2" font-family="Times,serif" font-size="14.00">_layout</text>
</g>
<!-- PlacesController -->
<g id="node14" class="node"><title>PlacesController</title>
<path fill="none" stroke="black" d="M318.345,305C318.345,305 403.655,305 403.655,305 409.655,305 415.655,299 415.655,293 415.655,293 415.655,171 415.655,171 415.655,165 409.655,159 403.655,159 403.655,159 318.345,159 318.345,159 312.345,159 306.345,165 306.345,171 306.345,171 306.345,293 306.345,293 306.345,299 312.345,305 318.345,305"/>
<text text-anchor="middle" x="361" y="174.2" font-family="Times,serif" font-size="14.00">PlacesController</text>
<polyline fill="none" stroke="black" points="306.345,181 415.655,181 "/>
<text text-anchor="start" x="314.345" y="196.2" font-family="Times,serif" font-size="14.00">create</text>
<text text-anchor="start" x="314.345" y="210.2" font-family="Times,serif" font-size="14.00">destroy</text>
<text text-anchor="start" x="314.345" y="224.2" font-family="Times,serif" font-size="14.00">index</text>
<text text-anchor="start" x="314.345" y="238.2" font-family="Times,serif" font-size="14.00">update</text>
<polyline fill="none" stroke="black" points="306.345,245 415.655,245 "/>
<polyline fill="none" stroke="black" points="306.345,269 415.655,269 "/>
<text text-anchor="start" x="314.345" y="284.2" font-family="Times,serif" font-size="14.00">_layout</text>
<text text-anchor="start" x="314.345" y="298.2" font-family="Times,serif" font-size="14.00">place_params</text>
</g>
<!-- RolesController -->
<g id="node15" class="node"><title>RolesController</title>
<path fill="none" stroke="black" d="M-140.717,-154C-140.717,-154 -59.2827,-154 -59.2827,-154 -53.2827,-154 -47.2827,-160 -47.2827,-166 -47.2827,-166 -47.2827,-344 -47.2827,-344 -47.2827,-350 -53.2827,-356 -59.2827,-356 -59.2827,-356 -140.717,-356 -140.717,-356 -146.717,-356 -152.717,-350 -152.717,-344 -152.717,-344 -152.717,-166 -152.717,-166 -152.717,-160 -146.717,-154 -140.717,-154"/>
<text text-anchor="middle" x="-100" y="-340.8" font-family="Times,serif" font-size="14.00">RolesController</text>
<polyline fill="none" stroke="black" points="-152.717,-334 -47.2827,-334 "/>
<text text-anchor="start" x="-144.717" y="-318.8" font-family="Times,serif" font-size="14.00">index</text>
<text text-anchor="start" x="-144.717" y="-304.8" font-family="Times,serif" font-size="14.00">destroy</text>
<text text-anchor="start" x="-144.717" y="-290.8" font-family="Times,serif" font-size="14.00">edit</text>
<text text-anchor="start" x="-144.717" y="-276.8" font-family="Times,serif" font-size="14.00">create</text>
<text text-anchor="start" x="-144.717" y="-262.8" font-family="Times,serif" font-size="14.00">new</text>
<text text-anchor="start" x="-144.717" y="-248.8" font-family="Times,serif" font-size="14.00">show</text>
<text text-anchor="start" x="-144.717" y="-234.8" font-family="Times,serif" font-size="14.00">update</text>
<polyline fill="none" stroke="black" points="-152.717,-228 -47.2827,-228 "/>
<polyline fill="none" stroke="black" points="-152.717,-204 -47.2827,-204 "/>
<text text-anchor="start" x="-144.717" y="-188.8" font-family="Times,serif" font-size="14.00">_layout</text>
<text text-anchor="start" x="-144.717" y="-174.8" font-family="Times,serif" font-size="14.00">role_params</text>
<text text-anchor="start" x="-144.717" y="-160.8" font-family="Times,serif" font-size="14.00">set_role</text>
</g>
<!-- SessionsController -->
<g id="node16" class="node"><title>SessionsController</title>
<path fill="none" stroke="black" d="M-260.207,33C-260.207,33 -143.793,33 -143.793,33 -137.793,33 -131.793,27 -131.793,21 -131.793,21 -131.793,-115 -131.793,-115 -131.793,-121 -137.793,-127 -143.793,-127 -143.793,-127 -260.207,-127 -260.207,-127 -266.207,-127 -272.207,-121 -272.207,-115 -272.207,-115 -272.207,21 -272.207,21 -272.207,27 -266.207,33 -260.207,33"/>
<text text-anchor="middle" x="-202" y="-111.8" font-family="Times,serif" font-size="14.00">SessionsController</text>
<polyline fill="none" stroke="black" points="-272.207,-105 -131.793,-105 "/>
<text text-anchor="start" x="-264.207" y="-89.8" font-family="Times,serif" font-size="14.00">authenticate</text>
<text text-anchor="start" x="-264.207" y="-75.8" font-family="Times,serif" font-size="14.00">callback</text>
<text text-anchor="start" x="-264.207" y="-61.8" font-family="Times,serif" font-size="14.00">cleanse_session</text>
<text text-anchor="start" x="-264.207" y="-47.8" font-family="Times,serif" font-size="14.00">destroy</text>
<text text-anchor="start" x="-264.207" y="-33.8" font-family="Times,serif" font-size="14.00">openid_connect_login</text>
<text text-anchor="start" x="-264.207" y="-19.8" font-family="Times,serif" font-size="14.00">public_keys_for</text>
<polyline fill="none" stroke="black" points="-272.207,-13 -131.793,-13 "/>
<polyline fill="none" stroke="black" points="-272.207,11 -131.793,11 "/>
<text text-anchor="start" x="-264.207" y="26.2" font-family="Times,serif" font-size="14.00">_layout</text>
</g>
<!-- Smart::LaunchController -->
<g id="node17" class="node"><title>Smart::LaunchController</title>
<path fill="none" stroke="black" d="M62.6274,254C62.6274,254 195.373,254 195.373,254 201.373,254 207.373,248 207.373,242 207.373,242 207.373,176 207.373,176 207.373,170 201.373,164 195.373,164 195.373,164 62.6274,164 62.6274,164 56.6274,164 50.6274,170 50.6274,176 50.6274,176 50.6274,242 50.6274,242 50.6274,248 56.6274,254 62.6274,254"/>
<text text-anchor="middle" x="129" y="179.2" font-family="Times,serif" font-size="14.00">Smart::LaunchController</text>
<polyline fill="none" stroke="black" points="50.6274,186 207.373,186 "/>
<text text-anchor="start" x="58.6274" y="201.2" font-family="Times,serif" font-size="14.00">launch</text>
<polyline fill="none" stroke="black" points="50.6274,208 207.373,208 "/>
<polyline fill="none" stroke="black" points="50.6274,232 207.373,232 "/>
<text text-anchor="start" x="58.6274" y="247.2" font-family="Times,serif" font-size="14.00">_layout</text>
</g>
<!-- UsageRolesController -->
<g id="node18" class="node"><title>UsageRolesController</title>
<path fill="none" stroke="black" d="M-260.21,220C-260.21,220 -143.79,220 -143.79,220 -137.79,220 -131.79,214 -131.79,208 -131.79,208 -131.79,86 -131.79,86 -131.79,80 -137.79,74 -143.79,74 -143.79,74 -260.21,74 -260.21,74 -266.21,74 -272.21,80 -272.21,86 -272.21,86 -272.21,208 -272.21,208 -272.21,214 -266.21,220 -260.21,220"/>
<text text-anchor="middle" x="-202" y="89.2" font-family="Times,serif" font-size="14.00">UsageRolesController</text>
<polyline fill="none" stroke="black" points="-272.21,96 -131.79,96 "/>
<text text-anchor="start" x="-264.21" y="111.2" font-family="Times,serif" font-size="14.00">create</text>
<text text-anchor="start" x="-264.21" y="125.2" font-family="Times,serif" font-size="14.00">destroy</text>
<text text-anchor="start" x="-264.21" y="139.2" font-family="Times,serif" font-size="14.00">index</text>
<text text-anchor="start" x="-264.21" y="153.2" font-family="Times,serif" font-size="14.00">update</text>
<polyline fill="none" stroke="black" points="-272.21,160 -131.79,160 "/>
<polyline fill="none" stroke="black" points="-272.21,184 -131.79,184 "/>
<text text-anchor="start" x="-264.21" y="199.2" font-family="Times,serif" font-size="14.00">_layout</text>
<text text-anchor="start" x="-264.21" y="213.2" font-family="Times,serif" font-size="14.00">usage_role_params</text>
</g>
<!-- WelcomeController -->
<g id="node19" class="node"><title>WelcomeController</title>
<path fill="none" stroke="black" d="M147.967,-341C147.967,-341 250.033,-341 250.033,-341 256.033,-341 262.033,-347 262.033,-353 262.033,-353 262.033,-447 262.033,-447 262.033,-453 256.033,-459 250.033,-459 250.033,-459 147.967,-459 147.967,-459 141.967,-459 135.967,-453 135.967,-447 135.967,-447 135.967,-353 135.967,-353 135.967,-347 141.967,-341 147.967,-341"/>
<text text-anchor="middle" x="199" y="-443.8" font-family="Times,serif" font-size="14.00">WelcomeController</text>
<polyline fill="none" stroke="black" points="135.967,-437 262.033,-437 "/>
<text text-anchor="start" x="143.967" y="-421.8" font-family="Times,serif" font-size="14.00">dashboard</text>
<text text-anchor="start" x="143.967" y="-407.8" font-family="Times,serif" font-size="14.00">landing</text>
<text text-anchor="start" x="143.967" y="-393.8" font-family="Times,serif" font-size="14.00">status</text>
<polyline fill="none" stroke="black" points="135.967,-387 262.033,-387 "/>
<polyline fill="none" stroke="black" points="135.967,-363 262.033,-363 "/>
<text text-anchor="start" x="143.967" y="-347.8" font-family="Times,serif" font-size="14.00">_layout</text>
</g>
</g>
</svg>
