<?xml version="1.0" encoding="UTF-8" standalone="no"?>
<!DOCTYPE svg PUBLIC "-//W3C//DTD SVG 1.1//EN"
 "http://www.w3.org/Graphics/SVG/1.1/DTD/svg11.dtd">
<!-- Generated by graphviz version 2.38.0 (20140413.2041)
 -->
<!-- Title: controllers_diagram Pages: 1 -->
<svg width="598pt" height="549pt"
 viewBox="0.00 0.00 598.27 549.00" xmlns="http://www.w3.org/2000/svg" xmlns:xlink="http://www.w3.org/1999/xlink">
<g id="graph0" class="graph" transform="scale(1 1) rotate(0) translate(241.89 293.5)">
<title>controllers_diagram</title>
<polygon fill="none" stroke="none" points="-241.89,255.5 -241.89,-293.5 356.379,-293.5 356.379,255.5 -241.89,255.5"/>
<!-- _diagram_info -->
<g id="node1" class="node"><title>_diagram_info</title>
<text text-anchor="start" x="106.312" y="38.9" font-family="Times,serif" font-size="13.00">Controllers diagram</text>
<text text-anchor="start" x="106.312" y="51.9" font-family="Times,serif" font-size="13.00">Date: Apr 26 2016 &#45; 18:46</text>
<text text-anchor="start" x="106.312" y="64.9" font-family="Times,serif" font-size="13.00">Migration version: 20160427014458</text>
<text text-anchor="start" x="106.312" y="77.9" font-family="Times,serif" font-size="13.00">Generated by RailRoady 1.4.2</text>
<text text-anchor="start" x="106.312" y="90.9" font-family="Times,serif" font-size="13.00">http://railroady.prestonlee.com</text>
</g>
<!-- ApplicationController -->
<g id="node2" class="node"><title>ApplicationController</title>
<path fill="none" stroke="black" d="M-85.8071,111C-85.8071,111 57.8071,111 57.8071,111 63.8071,111 69.8071,105 69.8071,99 69.8071,99 69.8071,-79 69.8071,-79 69.8071,-85 63.8071,-91 57.8071,-91 57.8071,-91 -85.8071,-91 -85.8071,-91 -91.8071,-91 -97.8071,-85 -97.8071,-79 -97.8071,-79 -97.8071,99 -97.8071,99 -97.8071,105 -91.8071,111 -85.8071,111"/>
<text text-anchor="middle" x="-14" y="-75.8" font-family="Times,serif" font-size="14.00">ApplicationController</text>
<polyline fill="none" stroke="black" points="-97.8071,-69 69.8071,-69 "/>
<text text-anchor="start" x="-89.8071" y="-53.8" font-family="Times,serif" font-size="14.00">cors_preflight_check</text>
<text text-anchor="start" x="-89.8071" y="-39.8" font-family="Times,serif" font-size="14.00">current_user</text>
<text text-anchor="start" x="-89.8071" y="-25.8" font-family="Times,serif" font-size="14.00">current_user=</text>
<text text-anchor="start" x="-89.8071" y="-11.8" font-family="Times,serif" font-size="14.00">ensure_json_request</text>
<polyline fill="none" stroke="black" points="-97.8071,-5 69.8071,-5 "/>
<polyline fill="none" stroke="black" points="-97.8071,19 69.8071,19 "/>
<text text-anchor="start" x="-89.8071" y="34.2" font-family="Times,serif" font-size="14.00">_layout</text>
<text text-anchor="start" x="-89.8071" y="48.2" font-family="Times,serif" font-size="14.00">after_sign_in_path_for</text>
<text text-anchor="start" x="-89.8071" y="62.2" font-family="Times,serif" font-size="14.00">authenticate_request</text>
<text text-anchor="start" x="-89.8071" y="76.2" font-family="Times,serif" font-size="14.00">decode_auth_token</text>
<text text-anchor="start" x="-89.8071" y="90.2" font-family="Times,serif" font-size="14.00">http_auth_header</text>
<text text-anchor="start" x="-89.8071" y="104.2" font-family="Times,serif" font-size="14.00">set_cors_response_headers</text>
</g>
<!-- ContextsController -->
<g id="node3" class="node"><title>ContextsController</title>
<path fill="none" stroke="black" d="M-71.6621,237C-71.6621,237 27.6621,237 27.6621,237 33.6621,237 39.6621,231 39.6621,225 39.6621,225 39.6621,157 39.6621,157 39.6621,151 33.6621,145 27.6621,145 27.6621,145 -71.6621,145 -71.6621,145 -77.6621,145 -83.6621,151 -83.6621,157 -83.6621,157 -83.6621,225 -83.6621,225 -83.6621,231 -77.6621,237 -71.6621,237"/>
<text text-anchor="middle" x="-22" y="160.2" font-family="Times,serif" font-size="14.00">ContextsController</text>
<polyline fill="none" stroke="black" points="-83.6621,167 39.6621,167 "/>
<polyline fill="none" stroke="black" points="-83.6621,191 39.6621,191 "/>
<polyline fill="none" stroke="black" points="-83.6621,215 39.6621,215 "/>
<text text-anchor="start" x="-75.6621" y="230.2" font-family="Times,serif" font-size="14.00">_layout</text>
</g>
<!-- EncountersController -->
<g id="node4" class="node"><title>EncountersController</title>
<path fill="none" stroke="black" d="M-30.2622,-127C-30.2622,-127 82.2622,-127 82.2622,-127 88.2622,-127 94.2622,-133 94.2622,-139 94.2622,-139 94.2622,-207 94.2622,-207 94.2622,-213 88.2622,-219 82.2622,-219 82.2622,-219 -30.2622,-219 -30.2622,-219 -36.2622,-219 -42.2622,-213 -42.2622,-207 -42.2622,-207 -42.2622,-139 -42.2622,-139 -42.2622,-133 -36.2622,-127 -30.2622,-127"/>
<text text-anchor="middle" x="26" y="-203.8" font-family="Times,serif" font-size="14.00">EncountersController</text>
<polyline fill="none" stroke="black" points="-42.2622,-197 94.2622,-197 "/>
<polyline fill="none" stroke="black" points="-42.2622,-173 94.2622,-173 "/>
<polyline fill="none" stroke="black" points="-42.2622,-149 94.2622,-149 "/>
<text text-anchor="start" x="-34.2622" y="-133.8" font-family="Times,serif" font-size="14.00">_layout</text>
</g>
<!-- IdentitiesController -->
<g id="node5" class="node"><title>IdentitiesController</title>
<path fill="none" stroke="black" d="M-183.821,-197C-183.821,-197 -82.1792,-197 -82.1792,-197 -76.1792,-197 -70.1792,-203 -70.1792,-209 -70.1792,-209 -70.1792,-277 -70.1792,-277 -70.1792,-283 -76.1792,-289 -82.1792,-289 -82.1792,-289 -183.821,-289 -183.821,-289 -189.821,-289 -195.821,-283 -195.821,-277 -195.821,-277 -195.821,-209 -195.821,-209 -195.821,-203 -189.821,-197 -183.821,-197"/>
<text text-anchor="middle" x="-133" y="-273.8" font-family="Times,serif" font-size="14.00">IdentitiesController</text>
<polyline fill="none" stroke="black" points="-195.821,-267 -70.1792,-267 "/>
<polyline fill="none" stroke="black" points="-195.821,-243 -70.1792,-243 "/>
<polyline fill="none" stroke="black" points="-195.821,-219 -70.1792,-219 "/>
<text text-anchor="start" x="-187.821" y="-203.8" font-family="Times,serif" font-size="14.00">_layout</text>
</g>
<!-- IssuesController -->
<g id="node6" class="node"><title>IssuesController</title>
<path fill="none" stroke="black" d="M-225.883,55C-225.883,55 -142.117,55 -142.117,55 -136.117,55 -130.117,49 -130.117,43 -130.117,43 -130.117,-25 -130.117,-25 -130.117,-31 -136.117,-37 -142.117,-37 -142.117,-37 -225.883,-37 -225.883,-37 -231.883,-37 -237.883,-31 -237.883,-25 -237.883,-25 -237.883,43 -237.883,43 -237.883,49 -231.883,55 -225.883,55"/>
<text text-anchor="middle" x="-184" y="-21.8" font-family="Times,serif" font-size="14.00">IssuesController</text>
<polyline fill="none" stroke="black" points="-237.883,-15 -130.117,-15 "/>
<polyline fill="none" stroke="black" points="-237.883,9 -130.117,9 "/>
<polyline fill="none" stroke="black" points="-237.883,33 -130.117,33 "/>
<text text-anchor="start" x="-229.883" y="48.2" font-family="Times,serif" font-size="14.00">_layout</text>
</g>
<!-- LabsController -->
<g id="node7" class="node"><title>LabsController</title>
<path fill="none" stroke="black" d="M263.621,251C263.621,251 340.379,251 340.379,251 346.379,251 352.379,245 352.379,239 352.379,239 352.379,171 352.379,171 352.379,165 346.379,159 340.379,159 340.379,159 263.621,159 263.621,159 257.621,159 251.621,165 251.621,171 251.621,171 251.621,239 251.621,239 251.621,245 257.621,251 263.621,251"/>
<text text-anchor="middle" x="302" y="174.2" font-family="Times,serif" font-size="14.00">LabsController</text>
<polyline fill="none" stroke="black" points="251.621,181 352.379,181 "/>
<polyline fill="none" stroke="black" points="251.621,205 352.379,205 "/>
<polyline fill="none" stroke="black" points="251.621,229 352.379,229 "/>
<text text-anchor="start" x="259.621" y="244.2" font-family="Times,serif" font-size="14.00">_layout</text>
</g>
<!-- ParticipantsController -->
<g id="node8" class="node"><title>ParticipantsController</title>
<path fill="none" stroke="black" d="M110.179,-1C110.179,-1 225.821,-1 225.821,-1 231.821,-1 237.821,-7 237.821,-13 237.821,-13 237.821,-81 237.821,-81 237.821,-87 231.821,-93 225.821,-93 225.821,-93 110.179,-93 110.179,-93 104.179,-93 98.1792,-87 98.1792,-81 98.1792,-81 98.1792,-13 98.1792,-13 98.1792,-7 104.179,-1 110.179,-1"/>
<text text-anchor="middle" x="168" y="-77.8" font-family="Times,serif" font-size="14.00">ParticipantsController</text>
<polyline fill="none" stroke="black" points="98.1792,-71 237.821,-71 "/>
<polyline fill="none" stroke="black" points="98.1792,-47 237.821,-47 "/>
<polyline fill="none" stroke="black" points="98.1792,-23 237.821,-23 "/>
<text text-anchor="start" x="106.179" y="-7.8" font-family="Times,serif" font-size="14.00">_layout</text>
</g>
<!-- ProblemsController -->
<g id="node9" class="node"><title>ProblemsController</title>
<path fill="none" stroke="black" d="M137.783,-127C137.783,-127 240.217,-127 240.217,-127 246.217,-127 252.217,-133 252.217,-139 252.217,-139 252.217,-207 252.217,-207 252.217,-213 246.217,-219 240.217,-219 240.217,-219 137.783,-219 137.783,-219 131.783,-219 125.783,-213 125.783,-207 125.783,-207 125.783,-139 125.783,-139 125.783,-133 131.783,-127 137.783,-127"/>
<text text-anchor="middle" x="189" y="-203.8" font-family="Times,serif" font-size="14.00">ProblemsController</text>
<polyline fill="none" stroke="black" points="125.783,-197 252.217,-197 "/>
<polyline fill="none" stroke="black" points="125.783,-173 252.217,-173 "/>
<polyline fill="none" stroke="black" points="125.783,-149 252.217,-149 "/>
<text text-anchor="start" x="133.783" y="-133.8" font-family="Times,serif" font-size="14.00">_layout</text>
</g>
<!-- ProvidersController -->
<g id="node10" class="node"><title>ProvidersController</title>
<path fill="none" stroke="black" d="M110.396,223C110.396,223 213.604,223 213.604,223 219.604,223 225.604,217 225.604,211 225.604,211 225.604,143 225.604,143 225.604,137 219.604,131 213.604,131 213.604,131 110.396,131 110.396,131 104.396,131 98.3965,137 98.3965,143 98.3965,143 98.3965,211 98.3965,211 98.3965,217 104.396,223 110.396,223"/>
<text text-anchor="middle" x="162" y="146.2" font-family="Times,serif" font-size="14.00">ProvidersController</text>
<polyline fill="none" stroke="black" points="98.3965,153 225.604,153 "/>
<polyline fill="none" stroke="black" points="98.3965,177 225.604,177 "/>
<polyline fill="none" stroke="black" points="98.3965,201 225.604,201 "/>
<text text-anchor="start" x="106.396" y="216.2" font-family="Times,serif" font-size="14.00">_layout</text>
</g>
<!-- SessionsController -->
<g id="node11" class="node"><title>SessionsController</title>
<path fill="none" stroke="black" d="M-225.89,237C-225.89,237 -128.11,237 -128.11,237 -122.11,237 -116.11,231 -116.11,225 -116.11,225 -116.11,157 -116.11,157 -116.11,151 -122.11,145 -128.11,145 -128.11,145 -225.89,145 -225.89,145 -231.89,145 -237.89,151 -237.89,157 -237.89,157 -237.89,225 -237.89,225 -237.89,231 -231.89,237 -225.89,237"/>
<text text-anchor="middle" x="-177" y="160.2" font-family="Times,serif" font-size="14.00">SessionsController</text>
<polyline fill="none" stroke="black" points="-237.89,167 -116.11,167 "/>
<polyline fill="none" stroke="black" points="-237.89,191 -116.11,191 "/>
<polyline fill="none" stroke="black" points="-237.89,215 -116.11,215 "/>
<text text-anchor="start" x="-229.89" y="230.2" font-family="Times,serif" font-size="14.00">_layout</text>
</g>
<!-- UsersController -->
<g id="node12" class="node"><title>UsersController</title>
<path fill="none" stroke="black" d="M-225.714,-71C-225.714,-71 -144.286,-71 -144.286,-71 -138.286,-71 -132.286,-77 -132.286,-83 -132.286,-83 -132.286,-151 -132.286,-151 -132.286,-157 -138.286,-163 -144.286,-163 -144.286,-163 -225.714,-163 -225.714,-163 -231.714,-163 -237.714,-157 -237.714,-151 -237.714,-151 -237.714,-83 -237.714,-83 -237.714,-77 -231.714,-71 -225.714,-71"/>
<text text-anchor="middle" x="-185" y="-147.8" font-family="Times,serif" font-size="14.00">UsersController</text>
<polyline fill="none" stroke="black" points="-237.714,-141 -132.286,-141 "/>
<polyline fill="none" stroke="black" points="-237.714,-117 -132.286,-117 "/>
<polyline fill="none" stroke="black" points="-237.714,-93 -132.286,-93 "/>
<text text-anchor="start" x="-229.714" y="-77.8" font-family="Times,serif" font-size="14.00">_layout</text>
</g>
</g>
</svg>
