<?xml version="1.0" encoding="UTF-8" standalone="no"?>
<!DOCTYPE svg PUBLIC "-//W3C//DTD SVG 1.1//EN"
 "http://www.w3.org/Graphics/SVG/1.1/DTD/svg11.dtd">
<!-- Generated by graphviz version 2.40.1 (20161225.0304)
 -->
<!-- Title: controllers_diagram Pages: 1 -->
<svg width="852pt" height="869pt"
 viewBox="0.00 0.00 852.21 869.00" xmlns="http://www.w3.org/2000/svg" xmlns:xlink="http://www.w3.org/1999/xlink">
<g id="graph0" class="graph" transform="scale(1 1) rotate(0) translate(4 865)">
<title>controllers_diagram</title>
<polygon fill="transparent" stroke="transparent" points="-4,4 -4,-865 848.2139,-865 848.2139,4 -4,4"/>
<!-- _diagram_info -->
<g id="node1" class="node">
<title>_diagram_info</title>
<text text-anchor="start" x="467" y="-806.6" font-family="Times,serif" font-size="13.00" fill="#000000">Controllers diagram</text>
<text text-anchor="start" x="467" y="-793.6" font-family="Times,serif" font-size="13.00" fill="#000000">Date: Oct 26 2017 &#45; 14:58</text>
<text text-anchor="start" x="467" y="-780.6" font-family="Times,serif" font-size="13.00" fill="#000000">Migration version: 1</text>
<text text-anchor="start" x="467" y="-767.6" font-family="Times,serif" font-size="13.00" fill="#000000">Generated by RailRoady 1.5.3</text>
<text text-anchor="start" x="467" y="-754.6" font-family="Times,serif" font-size="13.00" fill="#000000">http://railroady.prestonlee.com</text>
</g>
<!-- ApplicationController -->
<g id="node2" class="node">
<title>ApplicationController</title>
<path fill="none" stroke="#000000" d="M284,-289.5C284,-289.5 461.0352,-289.5 461.0352,-289.5 467.0352,-289.5 473.0352,-295.5 473.0352,-301.5 473.0352,-301.5 473.0352,-507.5 473.0352,-507.5 473.0352,-513.5 467.0352,-519.5 461.0352,-519.5 461.0352,-519.5 284,-519.5 284,-519.5 278,-519.5 272,-513.5 272,-507.5 272,-507.5 272,-301.5 272,-301.5 272,-295.5 278,-289.5 284,-289.5"/>
<text text-anchor="middle" x="372.5176" y="-504.3" font-family="Times,serif" font-size="14.00" fill="#000000">ApplicationController</text>
<polyline fill="none" stroke="#000000" points="272,-497.5 473.0352,-497.5 "/>
<text text-anchor="start" x="280" y="-482.3" font-family="Times,serif" font-size="14.00" fill="#000000">unauthenticate!</text>
<text text-anchor="start" x="280" y="-468.3" font-family="Times,serif" font-size="14.00" fill="#000000">build_oauth_request</text>
<text text-anchor="start" x="280" y="-454.3" font-family="Times,serif" font-size="14.00" fill="#000000">cors_preflight_check</text>
<text text-anchor="start" x="280" y="-440.3" font-family="Times,serif" font-size="14.00" fill="#000000">cors_set_access_control_headers</text>
<text text-anchor="start" x="280" y="-426.3" font-family="Times,serif" font-size="14.00" fill="#000000">current_identity</text>
<text text-anchor="start" x="280" y="-412.3" font-family="Times,serif" font-size="14.00" fill="#000000">current_person</text>
<text text-anchor="start" x="280" y="-398.3" font-family="Times,serif" font-size="14.00" fill="#000000">current_user</text>
<text text-anchor="start" x="280" y="-384.3" font-family="Times,serif" font-size="14.00" fill="#000000">new_nonce</text>
<text text-anchor="start" x="280" y="-370.3" font-family="Times,serif" font-size="14.00" fill="#000000">set_options_from</text>
<text text-anchor="start" x="280" y="-356.3" font-family="Times,serif" font-size="14.00" fill="#000000">stored_nonce</text>
<text text-anchor="start" x="280" y="-342.3" font-family="Times,serif" font-size="14.00" fill="#000000">authenticate_identity!</text>
<polyline fill="none" stroke="#000000" points="272,-335.5 473.0352,-335.5 "/>
<polyline fill="none" stroke="#000000" points="272,-311.5 473.0352,-311.5 "/>
<text text-anchor="start" x="280" y="-296.3" font-family="Times,serif" font-size="14.00" fill="#000000">_layout</text>
</g>
<!-- PeopleController -->
<g id="node3" class="node">
<title>PeopleController</title>
<path fill="none" stroke="#000000" d="M12,-34.5C12,-34.5 99.6484,-34.5 99.6484,-34.5 105.6484,-34.5 111.6484,-40.5 111.6484,-46.5 111.6484,-46.5 111.6484,-112.5 111.6484,-112.5 111.6484,-118.5 105.6484,-124.5 99.6484,-124.5 99.6484,-124.5 12,-124.5 12,-124.5 6,-124.5 0,-118.5 0,-112.5 0,-112.5 0,-46.5 0,-46.5 0,-40.5 6,-34.5 12,-34.5"/>
<text text-anchor="middle" x="55.8242" y="-109.3" font-family="Times,serif" font-size="14.00" fill="#000000">PeopleController</text>
<polyline fill="none" stroke="#000000" points="0,-102.5 111.6484,-102.5 "/>
<text text-anchor="start" x="8" y="-87.3" font-family="Times,serif" font-size="14.00" fill="#000000">index</text>
<polyline fill="none" stroke="#000000" points="0,-80.5 111.6484,-80.5 "/>
<polyline fill="none" stroke="#000000" points="0,-56.5 111.6484,-56.5 "/>
<text text-anchor="start" x="8" y="-41.3" font-family="Times,serif" font-size="14.00" fill="#000000">_layout</text>
</g>
<!-- Smart::LaunchController -->
<g id="node4" class="node">
<title>Smart::LaunchController</title>
<path fill="none" stroke="#000000" d="M641,-153.5C641,-153.5 773.7451,-153.5 773.7451,-153.5 779.7451,-153.5 785.7451,-159.5 785.7451,-165.5 785.7451,-165.5 785.7451,-231.5 785.7451,-231.5 785.7451,-237.5 779.7451,-243.5 773.7451,-243.5 773.7451,-243.5 641,-243.5 641,-243.5 635,-243.5 629,-237.5 629,-231.5 629,-231.5 629,-165.5 629,-165.5 629,-159.5 635,-153.5 641,-153.5"/>
<text text-anchor="middle" x="707.3726" y="-228.3" font-family="Times,serif" font-size="14.00" fill="#000000">Smart::LaunchController</text>
<polyline fill="none" stroke="#000000" points="629,-221.5 785.7451,-221.5 "/>
<text text-anchor="start" x="637" y="-206.3" font-family="Times,serif" font-size="14.00" fill="#000000">launch</text>
<polyline fill="none" stroke="#000000" points="629,-199.5 785.7451,-199.5 "/>
<polyline fill="none" stroke="#000000" points="629,-175.5 785.7451,-175.5 "/>
<text text-anchor="start" x="637" y="-160.3" font-family="Times,serif" font-size="14.00" fill="#000000">_layout</text>
</g>
<!-- ActorRolesController -->
<g id="node5" class="node">
<title>ActorRolesController</title>
<path fill="none" stroke="#000000" d="M675,-510.5C675,-510.5 788.3105,-510.5 788.3105,-510.5 794.3105,-510.5 800.3105,-516.5 800.3105,-522.5 800.3105,-522.5 800.3105,-644.5 800.3105,-644.5 800.3105,-650.5 794.3105,-656.5 788.3105,-656.5 788.3105,-656.5 675,-656.5 675,-656.5 669,-656.5 663,-650.5 663,-644.5 663,-644.5 663,-522.5 663,-522.5 663,-516.5 669,-510.5 675,-510.5"/>
<text text-anchor="middle" x="731.6553" y="-641.3" font-family="Times,serif" font-size="14.00" fill="#000000">ActorRolesController</text>
<polyline fill="none" stroke="#000000" points="663,-634.5 800.3105,-634.5 "/>
<text text-anchor="start" x="671" y="-619.3" font-family="Times,serif" font-size="14.00" fill="#000000">create</text>
<text text-anchor="start" x="671" y="-605.3" font-family="Times,serif" font-size="14.00" fill="#000000">destroy</text>
<text text-anchor="start" x="671" y="-591.3" font-family="Times,serif" font-size="14.00" fill="#000000">index</text>
<text text-anchor="start" x="671" y="-577.3" font-family="Times,serif" font-size="14.00" fill="#000000">update</text>
<polyline fill="none" stroke="#000000" points="663,-570.5 800.3105,-570.5 "/>
<polyline fill="none" stroke="#000000" points="663,-546.5 800.3105,-546.5 "/>
<text text-anchor="start" x="671" y="-531.3" font-family="Times,serif" font-size="14.00" fill="#000000">_layout</text>
<text text-anchor="start" x="671" y="-517.3" font-family="Times,serif" font-size="14.00" fill="#000000">actor_role_params</text>
</g>
<!-- ClientsController -->
<g id="node6" class="node">
<title>ClientsController</title>
<path fill="none" stroke="#000000" d="M743,-17.5C743,-17.5 832.2139,-17.5 832.2139,-17.5 838.2139,-17.5 844.2139,-23.5 844.2139,-29.5 844.2139,-29.5 844.2139,-109.5 844.2139,-109.5 844.2139,-115.5 838.2139,-121.5 832.2139,-121.5 832.2139,-121.5 743,-121.5 743,-121.5 737,-121.5 731,-115.5 731,-109.5 731,-109.5 731,-29.5 731,-29.5 731,-23.5 737,-17.5 743,-17.5"/>
<text text-anchor="middle" x="787.6069" y="-106.3" font-family="Times,serif" font-size="14.00" fill="#000000">ClientsController</text>
<polyline fill="none" stroke="#000000" points="731,-99.5 844.2139,-99.5 "/>
<text text-anchor="start" x="739" y="-84.3" font-family="Times,serif" font-size="14.00" fill="#000000">index</text>
<text text-anchor="start" x="739" y="-70.3" font-family="Times,serif" font-size="14.00" fill="#000000">launch</text>
<polyline fill="none" stroke="#000000" points="731,-63.5 844.2139,-63.5 "/>
<polyline fill="none" stroke="#000000" points="731,-39.5 844.2139,-39.5 "/>
<text text-anchor="start" x="739" y="-24.3" font-family="Times,serif" font-size="14.00" fill="#000000">_layout</text>
</g>
<!-- ContextsController -->
<g id="node7" class="node">
<title>ContextsController</title>
<path fill="none" stroke="#000000" d="M63,-595.5C63,-595.5 162.3242,-595.5 162.3242,-595.5 168.3242,-595.5 174.3242,-601.5 174.3242,-607.5 174.3242,-607.5 174.3242,-675.5 174.3242,-675.5 174.3242,-681.5 168.3242,-687.5 162.3242,-687.5 162.3242,-687.5 63,-687.5 63,-687.5 57,-687.5 51,-681.5 51,-675.5 51,-675.5 51,-607.5 51,-607.5 51,-601.5 57,-595.5 63,-595.5"/>
<text text-anchor="middle" x="112.6621" y="-672.3" font-family="Times,serif" font-size="14.00" fill="#000000">ContextsController</text>
<polyline fill="none" stroke="#000000" points="51,-665.5 174.3242,-665.5 "/>
<polyline fill="none" stroke="#000000" points="51,-641.5 174.3242,-641.5 "/>
<polyline fill="none" stroke="#000000" points="51,-617.5 174.3242,-617.5 "/>
<text text-anchor="start" x="59" y="-602.3" font-family="Times,serif" font-size="14.00" fill="#000000">_layout</text>
</g>
<!-- ObjectivesController -->
<g id="node8" class="node">
<title>ObjectivesController</title>
<path fill="none" stroke="#000000" d="M675,-697.5C675,-697.5 784.4141,-697.5 784.4141,-697.5 790.4141,-697.5 796.4141,-703.5 796.4141,-709.5 796.4141,-709.5 796.4141,-845.5 796.4141,-845.5 796.4141,-851.5 790.4141,-857.5 784.4141,-857.5 784.4141,-857.5 675,-857.5 675,-857.5 669,-857.5 663,-851.5 663,-845.5 663,-845.5 663,-709.5 663,-709.5 663,-703.5 669,-697.5 675,-697.5"/>
<text text-anchor="middle" x="729.707" y="-842.3" font-family="Times,serif" font-size="14.00" fill="#000000">ObjectivesController</text>
<polyline fill="none" stroke="#000000" points="663,-835.5 796.4141,-835.5 "/>
<text text-anchor="start" x="671" y="-820.3" font-family="Times,serif" font-size="14.00" fill="#000000">create</text>
<text text-anchor="start" x="671" y="-806.3" font-family="Times,serif" font-size="14.00" fill="#000000">destroy</text>
<text text-anchor="start" x="671" y="-792.3" font-family="Times,serif" font-size="14.00" fill="#000000">index</text>
<text text-anchor="start" x="671" y="-778.3" font-family="Times,serif" font-size="14.00" fill="#000000">show</text>
<text text-anchor="start" x="671" y="-764.3" font-family="Times,serif" font-size="14.00" fill="#000000">update</text>
<polyline fill="none" stroke="#000000" points="663,-757.5 796.4141,-757.5 "/>
<polyline fill="none" stroke="#000000" points="663,-733.5 796.4141,-733.5 "/>
<text text-anchor="start" x="671" y="-718.3" font-family="Times,serif" font-size="14.00" fill="#000000">_layout</text>
<text text-anchor="start" x="671" y="-704.3" font-family="Times,serif" font-size="14.00" fill="#000000">objective_params</text>
</g>
<!-- PlacesController -->
<g id="node9" class="node">
<title>PlacesController</title>
<path fill="none" stroke="#000000" d="M692,-272.5C692,-272.5 777.3105,-272.5 777.3105,-272.5 783.3105,-272.5 789.3105,-278.5 789.3105,-284.5 789.3105,-284.5 789.3105,-406.5 789.3105,-406.5 789.3105,-412.5 783.3105,-418.5 777.3105,-418.5 777.3105,-418.5 692,-418.5 692,-418.5 686,-418.5 680,-412.5 680,-406.5 680,-406.5 680,-284.5 680,-284.5 680,-278.5 686,-272.5 692,-272.5"/>
<text text-anchor="middle" x="734.6553" y="-403.3" font-family="Times,serif" font-size="14.00" fill="#000000">PlacesController</text>
<polyline fill="none" stroke="#000000" points="680,-396.5 789.3105,-396.5 "/>
<text text-anchor="start" x="688" y="-381.3" font-family="Times,serif" font-size="14.00" fill="#000000">create</text>
<text text-anchor="start" x="688" y="-367.3" font-family="Times,serif" font-size="14.00" fill="#000000">destroy</text>
<text text-anchor="start" x="688" y="-353.3" font-family="Times,serif" font-size="14.00" fill="#000000">index</text>
<text text-anchor="start" x="688" y="-339.3" font-family="Times,serif" font-size="14.00" fill="#000000">update</text>
<polyline fill="none" stroke="#000000" points="680,-332.5 789.3105,-332.5 "/>
<polyline fill="none" stroke="#000000" points="680,-308.5 789.3105,-308.5 "/>
<text text-anchor="start" x="688" y="-293.3" font-family="Times,serif" font-size="14.00" fill="#000000">_layout</text>
<text text-anchor="start" x="688" y="-279.3" font-family="Times,serif" font-size="14.00" fill="#000000">place_params</text>
</g>
<!-- GroupsController -->
<g id="node10" class="node">
<title>GroupsController</title>
<path fill="none" stroke="#000000" d="M131,-340.5C131,-340.5 221.7656,-340.5 221.7656,-340.5 227.7656,-340.5 233.7656,-346.5 233.7656,-352.5 233.7656,-352.5 233.7656,-530.5 233.7656,-530.5 233.7656,-536.5 227.7656,-542.5 221.7656,-542.5 221.7656,-542.5 131,-542.5 131,-542.5 125,-542.5 119,-536.5 119,-530.5 119,-530.5 119,-352.5 119,-352.5 119,-346.5 125,-340.5 131,-340.5"/>
<text text-anchor="middle" x="176.3828" y="-527.3" font-family="Times,serif" font-size="14.00" fill="#000000">GroupsController</text>
<polyline fill="none" stroke="#000000" points="119,-520.5 233.7656,-520.5 "/>
<text text-anchor="start" x="127" y="-505.3" font-family="Times,serif" font-size="14.00" fill="#000000">create</text>
<text text-anchor="start" x="127" y="-491.3" font-family="Times,serif" font-size="14.00" fill="#000000">destroy</text>
<text text-anchor="start" x="127" y="-477.3" font-family="Times,serif" font-size="14.00" fill="#000000">edit</text>
<text text-anchor="start" x="127" y="-463.3" font-family="Times,serif" font-size="14.00" fill="#000000">index</text>
<text text-anchor="start" x="127" y="-449.3" font-family="Times,serif" font-size="14.00" fill="#000000">new</text>
<text text-anchor="start" x="127" y="-435.3" font-family="Times,serif" font-size="14.00" fill="#000000">show</text>
<text text-anchor="start" x="127" y="-421.3" font-family="Times,serif" font-size="14.00" fill="#000000">update</text>
<polyline fill="none" stroke="#000000" points="119,-414.5 233.7656,-414.5 "/>
<polyline fill="none" stroke="#000000" points="119,-390.5 233.7656,-390.5 "/>
<text text-anchor="start" x="127" y="-375.3" font-family="Times,serif" font-size="14.00" fill="#000000">_layout</text>
<text text-anchor="start" x="127" y="-361.3" font-family="Times,serif" font-size="14.00" fill="#000000">group_params</text>
<text text-anchor="start" x="127" y="-347.3" font-family="Times,serif" font-size="14.00" fill="#000000">set_group</text>
</g>
<!-- IdentityProvidersController -->
<g id="node11" class="node">
<title>IdentityProvidersController</title>
<path fill="none" stroke="#000000" d="M437,-153.5C437,-153.5 583.752,-153.5 583.752,-153.5 589.752,-153.5 595.752,-159.5 595.752,-165.5 595.752,-165.5 595.752,-233.5 595.752,-233.5 595.752,-239.5 589.752,-245.5 583.752,-245.5 583.752,-245.5 437,-245.5 437,-245.5 431,-245.5 425,-239.5 425,-233.5 425,-233.5 425,-165.5 425,-165.5 425,-159.5 431,-153.5 437,-153.5"/>
<text text-anchor="middle" x="510.376" y="-230.3" font-family="Times,serif" font-size="14.00" fill="#000000">IdentityProvidersController</text>
<polyline fill="none" stroke="#000000" points="425,-223.5 595.752,-223.5 "/>
<polyline fill="none" stroke="#000000" points="425,-199.5 595.752,-199.5 "/>
<polyline fill="none" stroke="#000000" points="425,-175.5 595.752,-175.5 "/>
<text text-anchor="start" x="433" y="-160.3" font-family="Times,serif" font-size="14.00" fill="#000000">_layout</text>
</g>
<!-- SessionsController -->
<g id="node12" class="node">
<title>SessionsController</title>
<path fill="none" stroke="#000000" d="M352,-561.5C352,-561.5 468.4141,-561.5 468.4141,-561.5 474.4141,-561.5 480.4141,-567.5 480.4141,-573.5 480.4141,-573.5 480.4141,-709.5 480.4141,-709.5 480.4141,-715.5 474.4141,-721.5 468.4141,-721.5 468.4141,-721.5 352,-721.5 352,-721.5 346,-721.5 340,-715.5 340,-709.5 340,-709.5 340,-573.5 340,-573.5 340,-567.5 346,-561.5 352,-561.5"/>
<text text-anchor="middle" x="410.207" y="-706.3" font-family="Times,serif" font-size="14.00" fill="#000000">SessionsController</text>
<polyline fill="none" stroke="#000000" points="340,-699.5 480.4141,-699.5 "/>
<text text-anchor="start" x="348" y="-684.3" font-family="Times,serif" font-size="14.00" fill="#000000">authenticate</text>
<text text-anchor="start" x="348" y="-670.3" font-family="Times,serif" font-size="14.00" fill="#000000">callback</text>
<text text-anchor="start" x="348" y="-656.3" font-family="Times,serif" font-size="14.00" fill="#000000">cleanse_session</text>
<text text-anchor="start" x="348" y="-642.3" font-family="Times,serif" font-size="14.00" fill="#000000">destroy</text>
<text text-anchor="start" x="348" y="-628.3" font-family="Times,serif" font-size="14.00" fill="#000000">openid_connect_login</text>
<text text-anchor="start" x="348" y="-614.3" font-family="Times,serif" font-size="14.00" fill="#000000">public_keys_for</text>
<polyline fill="none" stroke="#000000" points="340,-607.5 480.4141,-607.5 "/>
<polyline fill="none" stroke="#000000" points="340,-583.5 480.4141,-583.5 "/>
<text text-anchor="start" x="348" y="-568.3" font-family="Times,serif" font-size="14.00" fill="#000000">_layout</text>
</g>
<!-- WelcomeController -->
<g id="node13" class="node">
<title>WelcomeController</title>
<path fill="none" stroke="#000000" d="M437,-.5C437,-.5 539.0654,-.5 539.0654,-.5 545.0654,-.5 551.0654,-6.5 551.0654,-12.5 551.0654,-12.5 551.0654,-106.5 551.0654,-106.5 551.0654,-112.5 545.0654,-118.5 539.0654,-118.5 539.0654,-118.5 437,-118.5 437,-118.5 431,-118.5 425,-112.5 425,-106.5 425,-106.5 425,-12.5 425,-12.5 425,-6.5 431,-.5 437,-.5"/>
<text text-anchor="middle" x="488.0327" y="-103.3" font-family="Times,serif" font-size="14.00" fill="#000000">WelcomeController</text>
<polyline fill="none" stroke="#000000" points="425,-96.5 551.0654,-96.5 "/>
<text text-anchor="start" x="433" y="-81.3" font-family="Times,serif" font-size="14.00" fill="#000000">dashboard</text>
<text text-anchor="start" x="433" y="-67.3" font-family="Times,serif" font-size="14.00" fill="#000000">landing</text>
<text text-anchor="start" x="433" y="-53.3" font-family="Times,serif" font-size="14.00" fill="#000000">status</text>
<polyline fill="none" stroke="#000000" points="425,-46.5 551.0654,-46.5 "/>
<polyline fill="none" stroke="#000000" points="425,-22.5 551.0654,-22.5 "/>
<text text-anchor="start" x="433" y="-7.3" font-family="Times,serif" font-size="14.00" fill="#000000">_layout</text>
</g>
<!-- UsageRolesController -->
<g id="node14" class="node">
<title>UsageRolesController</title>
<path fill="none" stroke="#000000" d="M114,-153.5C114,-153.5 230.4209,-153.5 230.4209,-153.5 236.4209,-153.5 242.4209,-159.5 242.4209,-165.5 242.4209,-165.5 242.4209,-287.5 242.4209,-287.5 242.4209,-293.5 236.4209,-299.5 230.4209,-299.5 230.4209,-299.5 114,-299.5 114,-299.5 108,-299.5 102,-293.5 102,-287.5 102,-287.5 102,-165.5 102,-165.5 102,-159.5 108,-153.5 114,-153.5"/>
<text text-anchor="middle" x="172.2104" y="-284.3" font-family="Times,serif" font-size="14.00" fill="#000000">UsageRolesController</text>
<polyline fill="none" stroke="#000000" points="102,-277.5 242.4209,-277.5 "/>
<text text-anchor="start" x="110" y="-262.3" font-family="Times,serif" font-size="14.00" fill="#000000">create</text>
<text text-anchor="start" x="110" y="-248.3" font-family="Times,serif" font-size="14.00" fill="#000000">destroy</text>
<text text-anchor="start" x="110" y="-234.3" font-family="Times,serif" font-size="14.00" fill="#000000">index</text>
<text text-anchor="start" x="110" y="-220.3" font-family="Times,serif" font-size="14.00" fill="#000000">update</text>
<polyline fill="none" stroke="#000000" points="102,-213.5 242.4209,-213.5 "/>
<polyline fill="none" stroke="#000000" points="102,-189.5 242.4209,-189.5 "/>
<text text-anchor="start" x="110" y="-174.3" font-family="Times,serif" font-size="14.00" fill="#000000">_layout</text>
<text text-anchor="start" x="110" y="-160.3" font-family="Times,serif" font-size="14.00" fill="#000000">usage_role_params</text>
</g>
<!-- ActivitiesController -->
<g id="node15" class="node">
<title>ActivitiesController</title>
<path fill="none" stroke="#000000" d="M284,-102.5C284,-102.5 387.9795,-102.5 387.9795,-102.5 393.9795,-102.5 399.9795,-108.5 399.9795,-114.5 399.9795,-114.5 399.9795,-236.5 399.9795,-236.5 399.9795,-242.5 393.9795,-248.5 387.9795,-248.5 387.9795,-248.5 284,-248.5 284,-248.5 278,-248.5 272,-242.5 272,-236.5 272,-236.5 272,-114.5 272,-114.5 272,-108.5 278,-102.5 284,-102.5"/>
<text text-anchor="middle" x="335.9897" y="-233.3" font-family="Times,serif" font-size="14.00" fill="#000000">ActivitiesController</text>
<polyline fill="none" stroke="#000000" points="272,-226.5 399.9795,-226.5 "/>
<text text-anchor="start" x="280" y="-211.3" font-family="Times,serif" font-size="14.00" fill="#000000">create</text>
<text text-anchor="start" x="280" y="-197.3" font-family="Times,serif" font-size="14.00" fill="#000000">destroy</text>
<text text-anchor="start" x="280" y="-183.3" font-family="Times,serif" font-size="14.00" fill="#000000">index</text>
<text text-anchor="start" x="280" y="-169.3" font-family="Times,serif" font-size="14.00" fill="#000000">update</text>
<polyline fill="none" stroke="#000000" points="272,-162.5 399.9795,-162.5 "/>
<polyline fill="none" stroke="#000000" points="272,-138.5 399.9795,-138.5 "/>
<text text-anchor="start" x="280" y="-123.3" font-family="Times,serif" font-size="14.00" fill="#000000">_layout</text>
<text text-anchor="start" x="280" y="-109.3" font-family="Times,serif" font-size="14.00" fill="#000000">activity_params</text>
</g>
<!-- AssetsController -->
<g id="node16" class="node">
<title>AssetsController</title>
<path fill="none" stroke="#000000" d="M80,-714.5C80,-714.5 166.1035,-714.5 166.1035,-714.5 172.1035,-714.5 178.1035,-720.5 178.1035,-726.5 178.1035,-726.5 178.1035,-848.5 178.1035,-848.5 178.1035,-854.5 172.1035,-860.5 166.1035,-860.5 166.1035,-860.5 80,-860.5 80,-860.5 74,-860.5 68,-854.5 68,-848.5 68,-848.5 68,-726.5 68,-726.5 68,-720.5 74,-714.5 80,-714.5"/>
<text text-anchor="middle" x="123.0518" y="-845.3" font-family="Times,serif" font-size="14.00" fill="#000000">AssetsController</text>
<polyline fill="none" stroke="#000000" points="68,-838.5 178.1035,-838.5 "/>
<text text-anchor="start" x="76" y="-823.3" font-family="Times,serif" font-size="14.00" fill="#000000">create</text>
<text text-anchor="start" x="76" y="-809.3" font-family="Times,serif" font-size="14.00" fill="#000000">destroy</text>
<text text-anchor="start" x="76" y="-795.3" font-family="Times,serif" font-size="14.00" fill="#000000">index</text>
<text text-anchor="start" x="76" y="-781.3" font-family="Times,serif" font-size="14.00" fill="#000000">update</text>
<polyline fill="none" stroke="#000000" points="68,-774.5 178.1035,-774.5 "/>
<polyline fill="none" stroke="#000000" points="68,-750.5 178.1035,-750.5 "/>
<text text-anchor="start" x="76" y="-735.3" font-family="Times,serif" font-size="14.00" fill="#000000">_layout</text>
<text text-anchor="start" x="76" y="-721.3" font-family="Times,serif" font-size="14.00" fill="#000000">asset_params</text>
</g>
<!-- CapabilitiesController -->
<g id="node17" class="node">
<title>CapabilitiesController</title>
<path fill="none" stroke="#000000" d="M522,-272.5C522,-272.5 638.4209,-272.5 638.4209,-272.5 644.4209,-272.5 650.4209,-278.5 650.4209,-284.5 650.4209,-284.5 650.4209,-462.5 650.4209,-462.5 650.4209,-468.5 644.4209,-474.5 638.4209,-474.5 638.4209,-474.5 522,-474.5 522,-474.5 516,-474.5 510,-468.5 510,-462.5 510,-462.5 510,-284.5 510,-284.5 510,-278.5 516,-272.5 522,-272.5"/>
<text text-anchor="middle" x="580.2104" y="-459.3" font-family="Times,serif" font-size="14.00" fill="#000000">CapabilitiesController</text>
<polyline fill="none" stroke="#000000" points="510,-452.5 650.4209,-452.5 "/>
<text text-anchor="start" x="518" y="-437.3" font-family="Times,serif" font-size="14.00" fill="#000000">create</text>
<text text-anchor="start" x="518" y="-423.3" font-family="Times,serif" font-size="14.00" fill="#000000">destroy</text>
<text text-anchor="start" x="518" y="-409.3" font-family="Times,serif" font-size="14.00" fill="#000000">edit</text>
<text text-anchor="start" x="518" y="-395.3" font-family="Times,serif" font-size="14.00" fill="#000000">index</text>
<text text-anchor="start" x="518" y="-381.3" font-family="Times,serif" font-size="14.00" fill="#000000">new</text>
<text text-anchor="start" x="518" y="-367.3" font-family="Times,serif" font-size="14.00" fill="#000000">show</text>
<text text-anchor="start" x="518" y="-353.3" font-family="Times,serif" font-size="14.00" fill="#000000">update</text>
<polyline fill="none" stroke="#000000" points="510,-346.5 650.4209,-346.5 "/>
<polyline fill="none" stroke="#000000" points="510,-322.5 650.4209,-322.5 "/>
<text text-anchor="start" x="518" y="-307.3" font-family="Times,serif" font-size="14.00" fill="#000000">_layout</text>
<text text-anchor="start" x="518" y="-293.3" font-family="Times,serif" font-size="14.00" fill="#000000">capability_params</text>
<text text-anchor="start" x="518" y="-279.3" font-family="Times,serif" font-size="14.00" fill="#000000">set_capability</text>
</g>
<!-- IdentitiesController -->
<g id="node18" class="node">
<title>IdentitiesController</title>
<path fill="none" stroke="#000000" d="M590,-34.5C590,-34.5 691.6416,-34.5 691.6416,-34.5 697.6416,-34.5 703.6416,-40.5 703.6416,-46.5 703.6416,-46.5 703.6416,-112.5 703.6416,-112.5 703.6416,-118.5 697.6416,-124.5 691.6416,-124.5 691.6416,-124.5 590,-124.5 590,-124.5 584,-124.5 578,-118.5 578,-112.5 578,-112.5 578,-46.5 578,-46.5 578,-40.5 584,-34.5 590,-34.5"/>
<text text-anchor="middle" x="640.8208" y="-109.3" font-family="Times,serif" font-size="14.00" fill="#000000">IdentitiesController</text>
<polyline fill="none" stroke="#000000" points="578,-102.5 703.6416,-102.5 "/>
<text text-anchor="start" x="586" y="-87.3" font-family="Times,serif" font-size="14.00" fill="#000000">destroy</text>
<polyline fill="none" stroke="#000000" points="578,-80.5 703.6416,-80.5 "/>
<polyline fill="none" stroke="#000000" points="578,-56.5 703.6416,-56.5 "/>
<text text-anchor="start" x="586" y="-41.3" font-family="Times,serif" font-size="14.00" fill="#000000">_layout</text>
</g>
<!-- MembersController -->
<g id="node19" class="node">
<title>MembersController</title>
<path fill="none" stroke="#000000" d="M522,-510.5C522,-510.5 624.4209,-510.5 624.4209,-510.5 630.4209,-510.5 636.4209,-516.5 636.4209,-522.5 636.4209,-522.5 636.4209,-700.5 636.4209,-700.5 636.4209,-706.5 630.4209,-712.5 624.4209,-712.5 624.4209,-712.5 522,-712.5 522,-712.5 516,-712.5 510,-706.5 510,-700.5 510,-700.5 510,-522.5 510,-522.5 510,-516.5 516,-510.5 522,-510.5"/>
<text text-anchor="middle" x="573.2104" y="-697.3" font-family="Times,serif" font-size="14.00" fill="#000000">MembersController</text>
<polyline fill="none" stroke="#000000" points="510,-690.5 636.4209,-690.5 "/>
<text text-anchor="start" x="518" y="-675.3" font-family="Times,serif" font-size="14.00" fill="#000000">create</text>
<text text-anchor="start" x="518" y="-661.3" font-family="Times,serif" font-size="14.00" fill="#000000">destroy</text>
<text text-anchor="start" x="518" y="-647.3" font-family="Times,serif" font-size="14.00" fill="#000000">edit</text>
<text text-anchor="start" x="518" y="-633.3" font-family="Times,serif" font-size="14.00" fill="#000000">index</text>
<text text-anchor="start" x="518" y="-619.3" font-family="Times,serif" font-size="14.00" fill="#000000">new</text>
<text text-anchor="start" x="518" y="-605.3" font-family="Times,serif" font-size="14.00" fill="#000000">show</text>
<text text-anchor="start" x="518" y="-591.3" font-family="Times,serif" font-size="14.00" fill="#000000">update</text>
<polyline fill="none" stroke="#000000" points="510,-584.5 636.4209,-584.5 "/>
<polyline fill="none" stroke="#000000" points="510,-560.5 636.4209,-560.5 "/>
<text text-anchor="start" x="518" y="-545.3" font-family="Times,serif" font-size="14.00" fill="#000000">_layout</text>
<text text-anchor="start" x="518" y="-531.3" font-family="Times,serif" font-size="14.00" fill="#000000">member_params</text>
<text text-anchor="start" x="518" y="-517.3" font-family="Times,serif" font-size="14.00" fill="#000000">set_member</text>
</g>
<!-- RolesController -->
<g id="node20" class="node">
<title>RolesController</title>
<path fill="none" stroke="#000000" d="M216,-578.5C216,-578.5 297.4346,-578.5 297.4346,-578.5 303.4346,-578.5 309.4346,-584.5 309.4346,-590.5 309.4346,-590.5 309.4346,-768.5 309.4346,-768.5 309.4346,-774.5 303.4346,-780.5 297.4346,-780.5 297.4346,-780.5 216,-780.5 216,-780.5 210,-780.5 204,-774.5 204,-768.5 204,-768.5 204,-590.5 204,-590.5 204,-584.5 210,-578.5 216,-578.5"/>
<text text-anchor="middle" x="256.7173" y="-765.3" font-family="Times,serif" font-size="14.00" fill="#000000">RolesController</text>
<polyline fill="none" stroke="#000000" points="204,-758.5 309.4346,-758.5 "/>
<text text-anchor="start" x="212" y="-743.3" font-family="Times,serif" font-size="14.00" fill="#000000">create</text>
<text text-anchor="start" x="212" y="-729.3" font-family="Times,serif" font-size="14.00" fill="#000000">destroy</text>
<text text-anchor="start" x="212" y="-715.3" font-family="Times,serif" font-size="14.00" fill="#000000">edit</text>
<text text-anchor="start" x="212" y="-701.3" font-family="Times,serif" font-size="14.00" fill="#000000">index</text>
<text text-anchor="start" x="212" y="-687.3" font-family="Times,serif" font-size="14.00" fill="#000000">new</text>
<text text-anchor="start" x="212" y="-673.3" font-family="Times,serif" font-size="14.00" fill="#000000">show</text>
<text text-anchor="start" x="212" y="-659.3" font-family="Times,serif" font-size="14.00" fill="#000000">update</text>
<polyline fill="none" stroke="#000000" points="204,-652.5 309.4346,-652.5 "/>
<polyline fill="none" stroke="#000000" points="204,-628.5 309.4346,-628.5 "/>
<text text-anchor="start" x="212" y="-613.3" font-family="Times,serif" font-size="14.00" fill="#000000">_layout</text>
<text text-anchor="start" x="212" y="-599.3" font-family="Times,serif" font-size="14.00" fill="#000000">role_params</text>
<text text-anchor="start" x="212" y="-585.3" font-family="Times,serif" font-size="14.00" fill="#000000">set_role</text>
</g>
</g>
</svg>
