<?xml version="1.0" encoding="UTF-8" standalone="no"?>
<!DOCTYPE svg PUBLIC "-//W3C//DTD SVG 1.1//EN"
 "http://www.w3.org/Graphics/SVG/1.1/DTD/svg11.dtd">
<!-- Generated by graphviz version 2.40.1 (20161225.0304)
 -->
<!-- Title: controllers_diagram Pages: 1 -->
<svg width="829pt" height="807pt"
 viewBox="0.00 0.00 829.44 807.00" xmlns="http://www.w3.org/2000/svg" xmlns:xlink="http://www.w3.org/1999/xlink">
<g id="graph0" class="graph" transform="scale(1 1) rotate(0) translate(4 803)">
<title>controllers_diagram</title>
<polygon fill="transparent" stroke="transparent" points="-4,4 -4,-803 825.4404,-803 825.4404,4 -4,4"/>
<!-- _diagram_info -->
<g id="node1" class="node">
<title>_diagram_info</title>
<text text-anchor="start" x="654" y="-262.6" font-family="Times,serif" font-size="13.00" fill="#000000">Controllers diagram</text>
<text text-anchor="start" x="654" y="-249.6" font-family="Times,serif" font-size="13.00" fill="#000000">Date: May 21 2018 &#45; 20:32</text>
<text text-anchor="start" x="654" y="-236.6" font-family="Times,serif" font-size="13.00" fill="#000000">Migration version: 1</text>
<text text-anchor="start" x="654" y="-223.6" font-family="Times,serif" font-size="13.00" fill="#000000">Generated by RailRoady 1.5.3</text>
<text text-anchor="start" x="654" y="-210.6" font-family="Times,serif" font-size="13.00" fill="#000000">http://railroady.prestonlee.com</text>
</g>
<!-- ApplicationController -->
<g id="node2" class="node">
<title>ApplicationController</title>
<path fill="none" stroke="#000000" d="M250,-204.5C250,-204.5 427.0352,-204.5 427.0352,-204.5 433.0352,-204.5 439.0352,-210.5 439.0352,-216.5 439.0352,-216.5 439.0352,-464.5 439.0352,-464.5 439.0352,-470.5 433.0352,-476.5 427.0352,-476.5 427.0352,-476.5 250,-476.5 250,-476.5 244,-476.5 238,-470.5 238,-464.5 238,-464.5 238,-216.5 238,-216.5 238,-210.5 244,-204.5 250,-204.5"/>
<text text-anchor="middle" x="338.5176" y="-461.3" font-family="Times,serif" font-size="14.00" fill="#000000">ApplicationController</text>
<polyline fill="none" stroke="#000000" points="238,-454.5 439.0352,-454.5 "/>
<text text-anchor="start" x="246" y="-439.3" font-family="Times,serif" font-size="14.00" fill="#000000">unauthenticate!</text>
<text text-anchor="start" x="246" y="-425.3" font-family="Times,serif" font-size="14.00" fill="#000000">_cancan_skipper=</text>
<text text-anchor="start" x="246" y="-411.3" font-family="Times,serif" font-size="14.00" fill="#000000">_cancan_skipper?</text>
<text text-anchor="start" x="246" y="-397.3" font-family="Times,serif" font-size="14.00" fill="#000000">authenticate_identity!</text>
<text text-anchor="start" x="246" y="-383.3" font-family="Times,serif" font-size="14.00" fill="#000000">build_oauth_request</text>
<text text-anchor="start" x="246" y="-369.3" font-family="Times,serif" font-size="14.00" fill="#000000">cors_preflight_check</text>
<text text-anchor="start" x="246" y="-355.3" font-family="Times,serif" font-size="14.00" fill="#000000">cors_set_access_control_headers</text>
<text text-anchor="start" x="246" y="-341.3" font-family="Times,serif" font-size="14.00" fill="#000000">current_identity</text>
<text text-anchor="start" x="246" y="-327.3" font-family="Times,serif" font-size="14.00" fill="#000000">current_person</text>
<text text-anchor="start" x="246" y="-313.3" font-family="Times,serif" font-size="14.00" fill="#000000">current_user</text>
<text text-anchor="start" x="246" y="-299.3" font-family="Times,serif" font-size="14.00" fill="#000000">new_nonce</text>
<text text-anchor="start" x="246" y="-285.3" font-family="Times,serif" font-size="14.00" fill="#000000">set_options_from</text>
<text text-anchor="start" x="246" y="-271.3" font-family="Times,serif" font-size="14.00" fill="#000000">stored_nonce</text>
<text text-anchor="start" x="246" y="-257.3" font-family="Times,serif" font-size="14.00" fill="#000000">_cancan_skipper</text>
<polyline fill="none" stroke="#000000" points="238,-250.5 439.0352,-250.5 "/>
<polyline fill="none" stroke="#000000" points="238,-226.5 439.0352,-226.5 "/>
<text text-anchor="start" x="246" y="-211.3" font-family="Times,serif" font-size="14.00" fill="#000000">_layout</text>
</g>
<!-- PeopleController -->
<g id="node3" class="node">
<title>PeopleController</title>
<path fill="none" stroke="#000000" d="M165,-17.5C165,-17.5 252.6484,-17.5 252.6484,-17.5 258.6484,-17.5 264.6484,-23.5 264.6484,-29.5 264.6484,-29.5 264.6484,-95.5 264.6484,-95.5 264.6484,-101.5 258.6484,-107.5 252.6484,-107.5 252.6484,-107.5 165,-107.5 165,-107.5 159,-107.5 153,-101.5 153,-95.5 153,-95.5 153,-29.5 153,-29.5 153,-23.5 159,-17.5 165,-17.5"/>
<text text-anchor="middle" x="208.8242" y="-92.3" font-family="Times,serif" font-size="14.00" fill="#000000">PeopleController</text>
<polyline fill="none" stroke="#000000" points="153,-85.5 264.6484,-85.5 "/>
<text text-anchor="start" x="161" y="-70.3" font-family="Times,serif" font-size="14.00" fill="#000000">index</text>
<polyline fill="none" stroke="#000000" points="153,-63.5 264.6484,-63.5 "/>
<polyline fill="none" stroke="#000000" points="153,-39.5 264.6484,-39.5 "/>
<text text-anchor="start" x="161" y="-24.3" font-family="Times,serif" font-size="14.00" fill="#000000">_layout</text>
</g>
<!-- Smart::LaunchController -->
<g id="node4" class="node">
<title>Smart::LaunchController</title>
<path fill="none" stroke="#000000" d="M556,-85.5C556,-85.5 688.7451,-85.5 688.7451,-85.5 694.7451,-85.5 700.7451,-91.5 700.7451,-97.5 700.7451,-97.5 700.7451,-163.5 700.7451,-163.5 700.7451,-169.5 694.7451,-175.5 688.7451,-175.5 688.7451,-175.5 556,-175.5 556,-175.5 550,-175.5 544,-169.5 544,-163.5 544,-163.5 544,-97.5 544,-97.5 544,-91.5 550,-85.5 556,-85.5"/>
<text text-anchor="middle" x="622.3726" y="-160.3" font-family="Times,serif" font-size="14.00" fill="#000000">Smart::LaunchController</text>
<polyline fill="none" stroke="#000000" points="544,-153.5 700.7451,-153.5 "/>
<text text-anchor="start" x="552" y="-138.3" font-family="Times,serif" font-size="14.00" fill="#000000">launch</text>
<polyline fill="none" stroke="#000000" points="544,-131.5 700.7451,-131.5 "/>
<polyline fill="none" stroke="#000000" points="544,-107.5 700.7451,-107.5 "/>
<text text-anchor="start" x="552" y="-92.3" font-family="Times,serif" font-size="14.00" fill="#000000">_layout</text>
</g>
<!-- ClientsController -->
<g id="node5" class="node">
<title>ClientsController</title>
<path fill="none" stroke="#000000" d="M12,-.5C12,-.5 101.2139,-.5 101.2139,-.5 107.2139,-.5 113.2139,-6.5 113.2139,-12.5 113.2139,-12.5 113.2139,-92.5 113.2139,-92.5 113.2139,-98.5 107.2139,-104.5 101.2139,-104.5 101.2139,-104.5 12,-104.5 12,-104.5 6,-104.5 0,-98.5 0,-92.5 0,-92.5 0,-12.5 0,-12.5 0,-6.5 6,-.5 12,-.5"/>
<text text-anchor="middle" x="56.6069" y="-89.3" font-family="Times,serif" font-size="14.00" fill="#000000">ClientsController</text>
<polyline fill="none" stroke="#000000" points="0,-82.5 113.2139,-82.5 "/>
<text text-anchor="start" x="8" y="-67.3" font-family="Times,serif" font-size="14.00" fill="#000000">index</text>
<text text-anchor="start" x="8" y="-53.3" font-family="Times,serif" font-size="14.00" fill="#000000">launch</text>
<polyline fill="none" stroke="#000000" points="0,-46.5 113.2139,-46.5 "/>
<polyline fill="none" stroke="#000000" points="0,-22.5 113.2139,-22.5 "/>
<text text-anchor="start" x="8" y="-7.3" font-family="Times,serif" font-size="14.00" fill="#000000">_layout</text>
</g>
<!-- ContextsController -->
<g id="node6" class="node">
<title>ContextsController</title>
<path fill="none" stroke="#000000" d="M658,-306.5C658,-306.5 757.3242,-306.5 757.3242,-306.5 763.3242,-306.5 769.3242,-312.5 769.3242,-318.5 769.3242,-318.5 769.3242,-386.5 769.3242,-386.5 769.3242,-392.5 763.3242,-398.5 757.3242,-398.5 757.3242,-398.5 658,-398.5 658,-398.5 652,-398.5 646,-392.5 646,-386.5 646,-386.5 646,-318.5 646,-318.5 646,-312.5 652,-306.5 658,-306.5"/>
<text text-anchor="middle" x="707.6621" y="-383.3" font-family="Times,serif" font-size="14.00" fill="#000000">ContextsController</text>
<polyline fill="none" stroke="#000000" points="646,-376.5 769.3242,-376.5 "/>
<polyline fill="none" stroke="#000000" points="646,-352.5 769.3242,-352.5 "/>
<polyline fill="none" stroke="#000000" points="646,-328.5 769.3242,-328.5 "/>
<text text-anchor="start" x="654" y="-313.3" font-family="Times,serif" font-size="14.00" fill="#000000">_layout</text>
</g>
<!-- ObjectivesController -->
<g id="node7" class="node">
<title>ObjectivesController</title>
<path fill="none" stroke="#000000" d="M80,-136.5C80,-136.5 189.4141,-136.5 189.4141,-136.5 195.4141,-136.5 201.4141,-142.5 201.4141,-148.5 201.4141,-148.5 201.4141,-284.5 201.4141,-284.5 201.4141,-290.5 195.4141,-296.5 189.4141,-296.5 189.4141,-296.5 80,-296.5 80,-296.5 74,-296.5 68,-290.5 68,-284.5 68,-284.5 68,-148.5 68,-148.5 68,-142.5 74,-136.5 80,-136.5"/>
<text text-anchor="middle" x="134.707" y="-281.3" font-family="Times,serif" font-size="14.00" fill="#000000">ObjectivesController</text>
<polyline fill="none" stroke="#000000" points="68,-274.5 201.4141,-274.5 "/>
<text text-anchor="start" x="76" y="-259.3" font-family="Times,serif" font-size="14.00" fill="#000000">create</text>
<text text-anchor="start" x="76" y="-245.3" font-family="Times,serif" font-size="14.00" fill="#000000">destroy</text>
<text text-anchor="start" x="76" y="-231.3" font-family="Times,serif" font-size="14.00" fill="#000000">index</text>
<text text-anchor="start" x="76" y="-217.3" font-family="Times,serif" font-size="14.00" fill="#000000">show</text>
<text text-anchor="start" x="76" y="-203.3" font-family="Times,serif" font-size="14.00" fill="#000000">update</text>
<polyline fill="none" stroke="#000000" points="68,-196.5 201.4141,-196.5 "/>
<polyline fill="none" stroke="#000000" points="68,-172.5 201.4141,-172.5 "/>
<text text-anchor="start" x="76" y="-157.3" font-family="Times,serif" font-size="14.00" fill="#000000">_layout</text>
<text text-anchor="start" x="76" y="-143.3" font-family="Times,serif" font-size="14.00" fill="#000000">objective_params</text>
</g>
<!-- PlacesController -->
<g id="node8" class="node">
<title>PlacesController</title>
<path fill="none" stroke="#000000" d="M641,-629.5C641,-629.5 726.3105,-629.5 726.3105,-629.5 732.3105,-629.5 738.3105,-635.5 738.3105,-641.5 738.3105,-641.5 738.3105,-763.5 738.3105,-763.5 738.3105,-769.5 732.3105,-775.5 726.3105,-775.5 726.3105,-775.5 641,-775.5 641,-775.5 635,-775.5 629,-769.5 629,-763.5 629,-763.5 629,-641.5 629,-641.5 629,-635.5 635,-629.5 641,-629.5"/>
<text text-anchor="middle" x="683.6553" y="-760.3" font-family="Times,serif" font-size="14.00" fill="#000000">PlacesController</text>
<polyline fill="none" stroke="#000000" points="629,-753.5 738.3105,-753.5 "/>
<text text-anchor="start" x="637" y="-738.3" font-family="Times,serif" font-size="14.00" fill="#000000">create</text>
<text text-anchor="start" x="637" y="-724.3" font-family="Times,serif" font-size="14.00" fill="#000000">destroy</text>
<text text-anchor="start" x="637" y="-710.3" font-family="Times,serif" font-size="14.00" fill="#000000">index</text>
<text text-anchor="start" x="637" y="-696.3" font-family="Times,serif" font-size="14.00" fill="#000000">update</text>
<polyline fill="none" stroke="#000000" points="629,-689.5 738.3105,-689.5 "/>
<polyline fill="none" stroke="#000000" points="629,-665.5 738.3105,-665.5 "/>
<text text-anchor="start" x="637" y="-650.3" font-family="Times,serif" font-size="14.00" fill="#000000">_layout</text>
<text text-anchor="start" x="637" y="-636.3" font-family="Times,serif" font-size="14.00" fill="#000000">place_params</text>
</g>
<!-- GroupsController -->
<g id="node9" class="node">
<title>GroupsController</title>
<path fill="none" stroke="#000000" d="M199,-510.5C199,-510.5 289.7656,-510.5 289.7656,-510.5 295.7656,-510.5 301.7656,-516.5 301.7656,-522.5 301.7656,-522.5 301.7656,-700.5 301.7656,-700.5 301.7656,-706.5 295.7656,-712.5 289.7656,-712.5 289.7656,-712.5 199,-712.5 199,-712.5 193,-712.5 187,-706.5 187,-700.5 187,-700.5 187,-522.5 187,-522.5 187,-516.5 193,-510.5 199,-510.5"/>
<text text-anchor="middle" x="244.3828" y="-697.3" font-family="Times,serif" font-size="14.00" fill="#000000">GroupsController</text>
<polyline fill="none" stroke="#000000" points="187,-690.5 301.7656,-690.5 "/>
<text text-anchor="start" x="195" y="-675.3" font-family="Times,serif" font-size="14.00" fill="#000000">create</text>
<text text-anchor="start" x="195" y="-661.3" font-family="Times,serif" font-size="14.00" fill="#000000">destroy</text>
<text text-anchor="start" x="195" y="-647.3" font-family="Times,serif" font-size="14.00" fill="#000000">edit</text>
<text text-anchor="start" x="195" y="-633.3" font-family="Times,serif" font-size="14.00" fill="#000000">index</text>
<text text-anchor="start" x="195" y="-619.3" font-family="Times,serif" font-size="14.00" fill="#000000">new</text>
<text text-anchor="start" x="195" y="-605.3" font-family="Times,serif" font-size="14.00" fill="#000000">show</text>
<text text-anchor="start" x="195" y="-591.3" font-family="Times,serif" font-size="14.00" fill="#000000">update</text>
<polyline fill="none" stroke="#000000" points="187,-584.5 301.7656,-584.5 "/>
<polyline fill="none" stroke="#000000" points="187,-560.5 301.7656,-560.5 "/>
<text text-anchor="start" x="195" y="-545.3" font-family="Times,serif" font-size="14.00" fill="#000000">_layout</text>
<text text-anchor="start" x="195" y="-531.3" font-family="Times,serif" font-size="14.00" fill="#000000">group_params</text>
<text text-anchor="start" x="195" y="-517.3" font-family="Times,serif" font-size="14.00" fill="#000000">set_group</text>
</g>
<!-- IdentityProvidersController -->
<g id="node10" class="node">
<title>IdentityProvidersController</title>
<path fill="none" stroke="#000000" d="M352,-85.5C352,-85.5 498.752,-85.5 498.752,-85.5 504.752,-85.5 510.752,-91.5 510.752,-97.5 510.752,-97.5 510.752,-163.5 510.752,-163.5 510.752,-169.5 504.752,-175.5 498.752,-175.5 498.752,-175.5 352,-175.5 352,-175.5 346,-175.5 340,-169.5 340,-163.5 340,-163.5 340,-97.5 340,-97.5 340,-91.5 346,-85.5 352,-85.5"/>
<text text-anchor="middle" x="425.376" y="-160.3" font-family="Times,serif" font-size="14.00" fill="#000000">IdentityProvidersController</text>
<polyline fill="none" stroke="#000000" points="340,-153.5 510.752,-153.5 "/>
<text text-anchor="start" x="348" y="-138.3" font-family="Times,serif" font-size="14.00" fill="#000000">launch</text>
<polyline fill="none" stroke="#000000" points="340,-131.5 510.752,-131.5 "/>
<polyline fill="none" stroke="#000000" points="340,-107.5 510.752,-107.5 "/>
<text text-anchor="start" x="348" y="-92.3" font-family="Times,serif" font-size="14.00" fill="#000000">_layout</text>
</g>
<!-- SessionsController -->
<g id="node11" class="node">
<title>SessionsController</title>
<path fill="none" stroke="#000000" d="M80,-323.5C80,-323.5 196.4141,-323.5 196.4141,-323.5 202.4141,-323.5 208.4141,-329.5 208.4141,-335.5 208.4141,-335.5 208.4141,-457.5 208.4141,-457.5 208.4141,-463.5 202.4141,-469.5 196.4141,-469.5 196.4141,-469.5 80,-469.5 80,-469.5 74,-469.5 68,-463.5 68,-457.5 68,-457.5 68,-335.5 68,-335.5 68,-329.5 74,-323.5 80,-323.5"/>
<text text-anchor="middle" x="138.207" y="-454.3" font-family="Times,serif" font-size="14.00" fill="#000000">SessionsController</text>
<polyline fill="none" stroke="#000000" points="68,-447.5 208.4141,-447.5 "/>
<text text-anchor="start" x="76" y="-432.3" font-family="Times,serif" font-size="14.00" fill="#000000">callback</text>
<text text-anchor="start" x="76" y="-418.3" font-family="Times,serif" font-size="14.00" fill="#000000">cleanse_session</text>
<text text-anchor="start" x="76" y="-404.3" font-family="Times,serif" font-size="14.00" fill="#000000">destroy</text>
<text text-anchor="start" x="76" y="-390.3" font-family="Times,serif" font-size="14.00" fill="#000000">openid_connect_login</text>
<text text-anchor="start" x="76" y="-376.3" font-family="Times,serif" font-size="14.00" fill="#000000">public_keys_for</text>
<polyline fill="none" stroke="#000000" points="68,-369.5 208.4141,-369.5 "/>
<polyline fill="none" stroke="#000000" points="68,-345.5 208.4141,-345.5 "/>
<text text-anchor="start" x="76" y="-330.3" font-family="Times,serif" font-size="14.00" fill="#000000">_layout</text>
</g>
<!-- WelcomeController -->
<g id="node12" class="node">
<title>WelcomeController</title>
<path fill="none" stroke="#000000" d="M488,-680.5C488,-680.5 590.0654,-680.5 590.0654,-680.5 596.0654,-680.5 602.0654,-686.5 602.0654,-692.5 602.0654,-692.5 602.0654,-786.5 602.0654,-786.5 602.0654,-792.5 596.0654,-798.5 590.0654,-798.5 590.0654,-798.5 488,-798.5 488,-798.5 482,-798.5 476,-792.5 476,-786.5 476,-786.5 476,-692.5 476,-692.5 476,-686.5 482,-680.5 488,-680.5"/>
<text text-anchor="middle" x="539.0327" y="-783.3" font-family="Times,serif" font-size="14.00" fill="#000000">WelcomeController</text>
<polyline fill="none" stroke="#000000" points="476,-776.5 602.0654,-776.5 "/>
<text text-anchor="start" x="484" y="-761.3" font-family="Times,serif" font-size="14.00" fill="#000000">dashboard</text>
<text text-anchor="start" x="484" y="-747.3" font-family="Times,serif" font-size="14.00" fill="#000000">landing</text>
<text text-anchor="start" x="484" y="-733.3" font-family="Times,serif" font-size="14.00" fill="#000000">status</text>
<polyline fill="none" stroke="#000000" points="476,-726.5 602.0654,-726.5 "/>
<polyline fill="none" stroke="#000000" points="476,-702.5 602.0654,-702.5 "/>
<text text-anchor="start" x="484" y="-687.3" font-family="Times,serif" font-size="14.00" fill="#000000">_layout</text>
</g>
<!-- ActivitiesController -->
<g id="node13" class="node">
<title>ActivitiesController</title>
<path fill="none" stroke="#000000" d="M641,-442.5C641,-442.5 744.9795,-442.5 744.9795,-442.5 750.9795,-442.5 756.9795,-448.5 756.9795,-454.5 756.9795,-454.5 756.9795,-576.5 756.9795,-576.5 756.9795,-582.5 750.9795,-588.5 744.9795,-588.5 744.9795,-588.5 641,-588.5 641,-588.5 635,-588.5 629,-582.5 629,-576.5 629,-576.5 629,-454.5 629,-454.5 629,-448.5 635,-442.5 641,-442.5"/>
<text text-anchor="middle" x="692.9897" y="-573.3" font-family="Times,serif" font-size="14.00" fill="#000000">ActivitiesController</text>
<polyline fill="none" stroke="#000000" points="629,-566.5 756.9795,-566.5 "/>
<text text-anchor="start" x="637" y="-551.3" font-family="Times,serif" font-size="14.00" fill="#000000">create</text>
<text text-anchor="start" x="637" y="-537.3" font-family="Times,serif" font-size="14.00" fill="#000000">destroy</text>
<text text-anchor="start" x="637" y="-523.3" font-family="Times,serif" font-size="14.00" fill="#000000">index</text>
<text text-anchor="start" x="637" y="-509.3" font-family="Times,serif" font-size="14.00" fill="#000000">update</text>
<polyline fill="none" stroke="#000000" points="629,-502.5 756.9795,-502.5 "/>
<polyline fill="none" stroke="#000000" points="629,-478.5 756.9795,-478.5 "/>
<text text-anchor="start" x="637" y="-463.3" font-family="Times,serif" font-size="14.00" fill="#000000">_layout</text>
<text text-anchor="start" x="637" y="-449.3" font-family="Times,serif" font-size="14.00" fill="#000000">event_params</text>
</g>
<!-- AssetsController -->
<g id="node14" class="node">
<title>AssetsController</title>
<path fill="none" stroke="#000000" d="M63,-629.5C63,-629.5 149.1035,-629.5 149.1035,-629.5 155.1035,-629.5 161.1035,-635.5 161.1035,-641.5 161.1035,-641.5 161.1035,-763.5 161.1035,-763.5 161.1035,-769.5 155.1035,-775.5 149.1035,-775.5 149.1035,-775.5 63,-775.5 63,-775.5 57,-775.5 51,-769.5 51,-763.5 51,-763.5 51,-641.5 51,-641.5 51,-635.5 57,-629.5 63,-629.5"/>
<text text-anchor="middle" x="106.0518" y="-760.3" font-family="Times,serif" font-size="14.00" fill="#000000">AssetsController</text>
<polyline fill="none" stroke="#000000" points="51,-753.5 161.1035,-753.5 "/>
<text text-anchor="start" x="59" y="-738.3" font-family="Times,serif" font-size="14.00" fill="#000000">create</text>
<text text-anchor="start" x="59" y="-724.3" font-family="Times,serif" font-size="14.00" fill="#000000">destroy</text>
<text text-anchor="start" x="59" y="-710.3" font-family="Times,serif" font-size="14.00" fill="#000000">index</text>
<text text-anchor="start" x="59" y="-696.3" font-family="Times,serif" font-size="14.00" fill="#000000">update</text>
<polyline fill="none" stroke="#000000" points="51,-689.5 161.1035,-689.5 "/>
<polyline fill="none" stroke="#000000" points="51,-665.5 161.1035,-665.5 "/>
<text text-anchor="start" x="59" y="-650.3" font-family="Times,serif" font-size="14.00" fill="#000000">_layout</text>
<text text-anchor="start" x="59" y="-636.3" font-family="Times,serif" font-size="14.00" fill="#000000">asset_params</text>
</g>
<!-- CapabilitiesController -->
<g id="node15" class="node">
<title>CapabilitiesController</title>
<path fill="none" stroke="#000000" d="M488,-204.5C488,-204.5 604.4209,-204.5 604.4209,-204.5 610.4209,-204.5 616.4209,-210.5 616.4209,-216.5 616.4209,-216.5 616.4209,-394.5 616.4209,-394.5 616.4209,-400.5 610.4209,-406.5 604.4209,-406.5 604.4209,-406.5 488,-406.5 488,-406.5 482,-406.5 476,-400.5 476,-394.5 476,-394.5 476,-216.5 476,-216.5 476,-210.5 482,-204.5 488,-204.5"/>
<text text-anchor="middle" x="546.2104" y="-391.3" font-family="Times,serif" font-size="14.00" fill="#000000">CapabilitiesController</text>
<polyline fill="none" stroke="#000000" points="476,-384.5 616.4209,-384.5 "/>
<text text-anchor="start" x="484" y="-369.3" font-family="Times,serif" font-size="14.00" fill="#000000">create</text>
<text text-anchor="start" x="484" y="-355.3" font-family="Times,serif" font-size="14.00" fill="#000000">destroy</text>
<text text-anchor="start" x="484" y="-341.3" font-family="Times,serif" font-size="14.00" fill="#000000">edit</text>
<text text-anchor="start" x="484" y="-327.3" font-family="Times,serif" font-size="14.00" fill="#000000">index</text>
<text text-anchor="start" x="484" y="-313.3" font-family="Times,serif" font-size="14.00" fill="#000000">new</text>
<text text-anchor="start" x="484" y="-299.3" font-family="Times,serif" font-size="14.00" fill="#000000">show</text>
<text text-anchor="start" x="484" y="-285.3" font-family="Times,serif" font-size="14.00" fill="#000000">update</text>
<polyline fill="none" stroke="#000000" points="476,-278.5 616.4209,-278.5 "/>
<polyline fill="none" stroke="#000000" points="476,-254.5 616.4209,-254.5 "/>
<text text-anchor="start" x="484" y="-239.3" font-family="Times,serif" font-size="14.00" fill="#000000">_layout</text>
<text text-anchor="start" x="484" y="-225.3" font-family="Times,serif" font-size="14.00" fill="#000000">capability_params</text>
<text text-anchor="start" x="484" y="-211.3" font-family="Times,serif" font-size="14.00" fill="#000000">set_capability</text>
</g>
<!-- IdentitiesController -->
<g id="node16" class="node">
<title>IdentitiesController</title>
<path fill="none" stroke="#000000" d="M46,-510.5C46,-510.5 147.6416,-510.5 147.6416,-510.5 153.6416,-510.5 159.6416,-516.5 159.6416,-522.5 159.6416,-522.5 159.6416,-588.5 159.6416,-588.5 159.6416,-594.5 153.6416,-600.5 147.6416,-600.5 147.6416,-600.5 46,-600.5 46,-600.5 40,-600.5 34,-594.5 34,-588.5 34,-588.5 34,-522.5 34,-522.5 34,-516.5 40,-510.5 46,-510.5"/>
<text text-anchor="middle" x="96.8208" y="-585.3" font-family="Times,serif" font-size="14.00" fill="#000000">IdentitiesController</text>
<polyline fill="none" stroke="#000000" points="34,-578.5 159.6416,-578.5 "/>
<text text-anchor="start" x="42" y="-563.3" font-family="Times,serif" font-size="14.00" fill="#000000">destroy</text>
<polyline fill="none" stroke="#000000" points="34,-556.5 159.6416,-556.5 "/>
<polyline fill="none" stroke="#000000" points="34,-532.5 159.6416,-532.5 "/>
<text text-anchor="start" x="42" y="-517.3" font-family="Times,serif" font-size="14.00" fill="#000000">_layout</text>
</g>
<!-- MembersController -->
<g id="node17" class="node">
<title>MembersController</title>
<path fill="none" stroke="#000000" d="M488,-442.5C488,-442.5 590.4209,-442.5 590.4209,-442.5 596.4209,-442.5 602.4209,-448.5 602.4209,-454.5 602.4209,-454.5 602.4209,-632.5 602.4209,-632.5 602.4209,-638.5 596.4209,-644.5 590.4209,-644.5 590.4209,-644.5 488,-644.5 488,-644.5 482,-644.5 476,-638.5 476,-632.5 476,-632.5 476,-454.5 476,-454.5 476,-448.5 482,-442.5 488,-442.5"/>
<text text-anchor="middle" x="539.2104" y="-629.3" font-family="Times,serif" font-size="14.00" fill="#000000">MembersController</text>
<polyline fill="none" stroke="#000000" points="476,-622.5 602.4209,-622.5 "/>
<text text-anchor="start" x="484" y="-607.3" font-family="Times,serif" font-size="14.00" fill="#000000">create</text>
<text text-anchor="start" x="484" y="-593.3" font-family="Times,serif" font-size="14.00" fill="#000000">destroy</text>
<text text-anchor="start" x="484" y="-579.3" font-family="Times,serif" font-size="14.00" fill="#000000">edit</text>
<text text-anchor="start" x="484" y="-565.3" font-family="Times,serif" font-size="14.00" fill="#000000">index</text>
<text text-anchor="start" x="484" y="-551.3" font-family="Times,serif" font-size="14.00" fill="#000000">new</text>
<text text-anchor="start" x="484" y="-537.3" font-family="Times,serif" font-size="14.00" fill="#000000">show</text>
<text text-anchor="start" x="484" y="-523.3" font-family="Times,serif" font-size="14.00" fill="#000000">update</text>
<polyline fill="none" stroke="#000000" points="476,-516.5 602.4209,-516.5 "/>
<polyline fill="none" stroke="#000000" points="476,-492.5 602.4209,-492.5 "/>
<text text-anchor="start" x="484" y="-477.3" font-family="Times,serif" font-size="14.00" fill="#000000">_layout</text>
<text text-anchor="start" x="484" y="-463.3" font-family="Times,serif" font-size="14.00" fill="#000000">member_params</text>
<text text-anchor="start" x="484" y="-449.3" font-family="Times,serif" font-size="14.00" fill="#000000">set_member</text>
</g>
<!-- RolesController -->
<g id="node18" class="node">
<title>RolesController</title>
<path fill="none" stroke="#000000" d="M352,-510.5C352,-510.5 433.4346,-510.5 433.4346,-510.5 439.4346,-510.5 445.4346,-516.5 445.4346,-522.5 445.4346,-522.5 445.4346,-700.5 445.4346,-700.5 445.4346,-706.5 439.4346,-712.5 433.4346,-712.5 433.4346,-712.5 352,-712.5 352,-712.5 346,-712.5 340,-706.5 340,-700.5 340,-700.5 340,-522.5 340,-522.5 340,-516.5 346,-510.5 352,-510.5"/>
<text text-anchor="middle" x="392.7173" y="-697.3" font-family="Times,serif" font-size="14.00" fill="#000000">RolesController</text>
<polyline fill="none" stroke="#000000" points="340,-690.5 445.4346,-690.5 "/>
<text text-anchor="start" x="348" y="-675.3" font-family="Times,serif" font-size="14.00" fill="#000000">create</text>
<text text-anchor="start" x="348" y="-661.3" font-family="Times,serif" font-size="14.00" fill="#000000">destroy</text>
<text text-anchor="start" x="348" y="-647.3" font-family="Times,serif" font-size="14.00" fill="#000000">edit</text>
<text text-anchor="start" x="348" y="-633.3" font-family="Times,serif" font-size="14.00" fill="#000000">index</text>
<text text-anchor="start" x="348" y="-619.3" font-family="Times,serif" font-size="14.00" fill="#000000">new</text>
<text text-anchor="start" x="348" y="-605.3" font-family="Times,serif" font-size="14.00" fill="#000000">show</text>
<text text-anchor="start" x="348" y="-591.3" font-family="Times,serif" font-size="14.00" fill="#000000">update</text>
<polyline fill="none" stroke="#000000" points="340,-584.5 445.4346,-584.5 "/>
<polyline fill="none" stroke="#000000" points="340,-560.5 445.4346,-560.5 "/>
<text text-anchor="start" x="348" y="-545.3" font-family="Times,serif" font-size="14.00" fill="#000000">_layout</text>
<text text-anchor="start" x="348" y="-531.3" font-family="Times,serif" font-size="14.00" fill="#000000">role_params</text>
<text text-anchor="start" x="348" y="-517.3" font-family="Times,serif" font-size="14.00" fill="#000000">set_role</text>
</g>
</g>
</svg>
