<?xml version="1.0" encoding="UTF-8" standalone="no"?>
<!DOCTYPE svg PUBLIC "-//W3C//DTD SVG 1.1//EN"
 "http://www.w3.org/Graphics/SVG/1.1/DTD/svg11.dtd">
<!-- Generated by graphviz version 2.40.1 (20161225.0304)
 -->
<!-- Title: controllers_diagram Pages: 1 -->
<svg width="801pt" height="770pt"
 viewBox="0.00 0.00 801.21 770.00" xmlns="http://www.w3.org/2000/svg" xmlns:xlink="http://www.w3.org/1999/xlink">
<g id="graph0" class="graph" transform="scale(1 1) rotate(0) translate(4 766)">
<title>controllers_diagram</title>
<polygon fill="transparent" stroke="transparent" points="-4,4 -4,-766 797.2139,-766 797.2139,4 -4,4"/>
<!-- _diagram_info -->
<g id="node1" class="node">
<title>_diagram_info</title>
<text text-anchor="start" x="246" y="-143.6" font-family="Times,serif" font-size="13.00" fill="#000000">Controllers diagram</text>
<text text-anchor="start" x="246" y="-130.6" font-family="Times,serif" font-size="13.00" fill="#000000">Date: May 21 2018 &#45; 20:44</text>
<text text-anchor="start" x="246" y="-117.6" font-family="Times,serif" font-size="13.00" fill="#000000">Migration version: 1</text>
<text text-anchor="start" x="246" y="-104.6" font-family="Times,serif" font-size="13.00" fill="#000000">Generated by RailRoady 1.5.3</text>
<text text-anchor="start" x="246" y="-91.6" font-family="Times,serif" font-size="13.00" fill="#000000">http://railroady.prestonlee.com</text>
</g>
<!-- ApplicationController -->
<g id="node2" class="node">
<title>ApplicationController</title>
<path fill="none" stroke="#000000" d="M250,-187.5C250,-187.5 427.0352,-187.5 427.0352,-187.5 433.0352,-187.5 439.0352,-193.5 439.0352,-199.5 439.0352,-199.5 439.0352,-449.5 439.0352,-449.5 439.0352,-455.5 433.0352,-461.5 427.0352,-461.5 427.0352,-461.5 250,-461.5 250,-461.5 244,-461.5 238,-455.5 238,-449.5 238,-449.5 238,-199.5 238,-199.5 238,-193.5 244,-187.5 250,-187.5"/>
<text text-anchor="middle" x="338.5176" y="-446.3" font-family="Times,serif" font-size="14.00" fill="#000000">ApplicationController</text>
<polyline fill="none" stroke="#000000" points="238,-439.5 439.0352,-439.5 "/>
<text text-anchor="start" x="246" y="-424.3" font-family="Times,serif" font-size="14.00" fill="#000000">unauthenticate!</text>
<text text-anchor="start" x="246" y="-410.3" font-family="Times,serif" font-size="14.00" fill="#000000">_cancan_skipper=</text>
<text text-anchor="start" x="246" y="-396.3" font-family="Times,serif" font-size="14.00" fill="#000000">_cancan_skipper?</text>
<text text-anchor="start" x="246" y="-382.3" font-family="Times,serif" font-size="14.00" fill="#000000">authenticate_identity!</text>
<text text-anchor="start" x="246" y="-368.3" font-family="Times,serif" font-size="14.00" fill="#000000">build_oauth_request</text>
<text text-anchor="start" x="246" y="-354.3" font-family="Times,serif" font-size="14.00" fill="#000000">cors_preflight_check</text>
<text text-anchor="start" x="246" y="-340.3" font-family="Times,serif" font-size="14.00" fill="#000000">cors_set_access_control_headers</text>
<text text-anchor="start" x="246" y="-326.3" font-family="Times,serif" font-size="14.00" fill="#000000">current_identity</text>
<text text-anchor="start" x="246" y="-312.3" font-family="Times,serif" font-size="14.00" fill="#000000">current_person</text>
<text text-anchor="start" x="246" y="-298.3" font-family="Times,serif" font-size="14.00" fill="#000000">current_user</text>
<text text-anchor="start" x="246" y="-284.3" font-family="Times,serif" font-size="14.00" fill="#000000">new_nonce</text>
<text text-anchor="start" x="246" y="-270.3" font-family="Times,serif" font-size="14.00" fill="#000000">set_options_from</text>
<text text-anchor="start" x="246" y="-256.3" font-family="Times,serif" font-size="14.00" fill="#000000">stored_nonce</text>
<text text-anchor="start" x="246" y="-242.3" font-family="Times,serif" font-size="14.00" fill="#000000">_cancan_skipper</text>
<polyline fill="none" stroke="#000000" points="238,-235.5 439.0352,-235.5 "/>
<polyline fill="none" stroke="#000000" points="238,-211.5 439.0352,-211.5 "/>
</g>
<!-- PeopleController -->
<g id="node3" class="node">
<title>PeopleController</title>
<path fill="none" stroke="#000000" d="M12,-.5C12,-.5 99.6484,-.5 99.6484,-.5 105.6484,-.5 111.6484,-6.5 111.6484,-12.5 111.6484,-12.5 111.6484,-80.5 111.6484,-80.5 111.6484,-86.5 105.6484,-92.5 99.6484,-92.5 99.6484,-92.5 12,-92.5 12,-92.5 6,-92.5 0,-86.5 0,-80.5 0,-80.5 0,-12.5 0,-12.5 0,-6.5 6,-.5 12,-.5"/>
<text text-anchor="middle" x="55.8242" y="-77.3" font-family="Times,serif" font-size="14.00" fill="#000000">PeopleController</text>
<polyline fill="none" stroke="#000000" points="0,-70.5 111.6484,-70.5 "/>
<text text-anchor="start" x="8" y="-55.3" font-family="Times,serif" font-size="14.00" fill="#000000">index</text>
<polyline fill="none" stroke="#000000" points="0,-48.5 111.6484,-48.5 "/>
<polyline fill="none" stroke="#000000" points="0,-24.5 111.6484,-24.5 "/>
</g>
<!-- ClientsController -->
<g id="node4" class="node">
<title>ClientsController</title>
<path fill="none" stroke="#000000" d="M692,-.5C692,-.5 781.2139,-.5 781.2139,-.5 787.2139,-.5 793.2139,-6.5 793.2139,-12.5 793.2139,-12.5 793.2139,-94.5 793.2139,-94.5 793.2139,-100.5 787.2139,-106.5 781.2139,-106.5 781.2139,-106.5 692,-106.5 692,-106.5 686,-106.5 680,-100.5 680,-94.5 680,-94.5 680,-12.5 680,-12.5 680,-6.5 686,-.5 692,-.5"/>
<text text-anchor="middle" x="736.6069" y="-91.3" font-family="Times,serif" font-size="14.00" fill="#000000">ClientsController</text>
<polyline fill="none" stroke="#000000" points="680,-84.5 793.2139,-84.5 "/>
<text text-anchor="start" x="688" y="-69.3" font-family="Times,serif" font-size="14.00" fill="#000000">index</text>
<text text-anchor="start" x="688" y="-55.3" font-family="Times,serif" font-size="14.00" fill="#000000">launch</text>
<polyline fill="none" stroke="#000000" points="680,-48.5 793.2139,-48.5 "/>
<polyline fill="none" stroke="#000000" points="680,-24.5 793.2139,-24.5 "/>
</g>
<!-- ContextsController -->
<g id="node5" class="node">
<title>ContextsController</title>
<path fill="none" stroke="#000000" d="M488,-646.5C488,-646.5 587.3242,-646.5 587.3242,-646.5 593.3242,-646.5 599.3242,-652.5 599.3242,-658.5 599.3242,-658.5 599.3242,-728.5 599.3242,-728.5 599.3242,-734.5 593.3242,-740.5 587.3242,-740.5 587.3242,-740.5 488,-740.5 488,-740.5 482,-740.5 476,-734.5 476,-728.5 476,-728.5 476,-658.5 476,-658.5 476,-652.5 482,-646.5 488,-646.5"/>
<text text-anchor="middle" x="537.6621" y="-725.3" font-family="Times,serif" font-size="14.00" fill="#000000">ContextsController</text>
<polyline fill="none" stroke="#000000" points="476,-718.5 599.3242,-718.5 "/>
<polyline fill="none" stroke="#000000" points="476,-694.5 599.3242,-694.5 "/>
<polyline fill="none" stroke="#000000" points="476,-670.5 599.3242,-670.5 "/>
</g>
<!-- ObjectivesController -->
<g id="node6" class="node">
<title>ObjectivesController</title>
<path fill="none" stroke="#000000" d="M80,-119.5C80,-119.5 189.4141,-119.5 189.4141,-119.5 195.4141,-119.5 201.4141,-125.5 201.4141,-131.5 201.4141,-131.5 201.4141,-253.5 201.4141,-253.5 201.4141,-259.5 195.4141,-265.5 189.4141,-265.5 189.4141,-265.5 80,-265.5 80,-265.5 74,-265.5 68,-259.5 68,-253.5 68,-253.5 68,-131.5 68,-131.5 68,-125.5 74,-119.5 80,-119.5"/>
<text text-anchor="middle" x="134.707" y="-250.3" font-family="Times,serif" font-size="14.00" fill="#000000">ObjectivesController</text>
<polyline fill="none" stroke="#000000" points="68,-243.5 201.4141,-243.5 "/>
<text text-anchor="start" x="76" y="-228.3" font-family="Times,serif" font-size="14.00" fill="#000000">create</text>
<text text-anchor="start" x="76" y="-214.3" font-family="Times,serif" font-size="14.00" fill="#000000">destroy</text>
<text text-anchor="start" x="76" y="-200.3" font-family="Times,serif" font-size="14.00" fill="#000000">index</text>
<text text-anchor="start" x="76" y="-186.3" font-family="Times,serif" font-size="14.00" fill="#000000">show</text>
<text text-anchor="start" x="76" y="-172.3" font-family="Times,serif" font-size="14.00" fill="#000000">update</text>
<polyline fill="none" stroke="#000000" points="68,-165.5 201.4141,-165.5 "/>
<polyline fill="none" stroke="#000000" points="68,-141.5 201.4141,-141.5 "/>
<text text-anchor="start" x="76" y="-126.3" font-family="Times,serif" font-size="14.00" fill="#000000">objective_params</text>
</g>
<!-- PlacesController -->
<g id="node7" class="node">
<title>PlacesController</title>
<path fill="none" stroke="#000000" d="M658,-204.5C658,-204.5 743.3105,-204.5 743.3105,-204.5 749.3105,-204.5 755.3105,-210.5 755.3105,-216.5 755.3105,-216.5 755.3105,-324.5 755.3105,-324.5 755.3105,-330.5 749.3105,-336.5 743.3105,-336.5 743.3105,-336.5 658,-336.5 658,-336.5 652,-336.5 646,-330.5 646,-324.5 646,-324.5 646,-216.5 646,-216.5 646,-210.5 652,-204.5 658,-204.5"/>
<text text-anchor="middle" x="700.6553" y="-321.3" font-family="Times,serif" font-size="14.00" fill="#000000">PlacesController</text>
<polyline fill="none" stroke="#000000" points="646,-314.5 755.3105,-314.5 "/>
<text text-anchor="start" x="654" y="-299.3" font-family="Times,serif" font-size="14.00" fill="#000000">create</text>
<text text-anchor="start" x="654" y="-285.3" font-family="Times,serif" font-size="14.00" fill="#000000">destroy</text>
<text text-anchor="start" x="654" y="-271.3" font-family="Times,serif" font-size="14.00" fill="#000000">index</text>
<text text-anchor="start" x="654" y="-257.3" font-family="Times,serif" font-size="14.00" fill="#000000">update</text>
<polyline fill="none" stroke="#000000" points="646,-250.5 755.3105,-250.5 "/>
<polyline fill="none" stroke="#000000" points="646,-226.5 755.3105,-226.5 "/>
<text text-anchor="start" x="654" y="-211.3" font-family="Times,serif" font-size="14.00" fill="#000000">place_params</text>
</g>
<!-- GroupsController -->
<g id="node8" class="node">
<title>GroupsController</title>
<path fill="none" stroke="#000000" d="M335,-493.5C335,-493.5 425.7656,-493.5 425.7656,-493.5 431.7656,-493.5 437.7656,-499.5 437.7656,-505.5 437.7656,-505.5 437.7656,-669.5 437.7656,-669.5 437.7656,-675.5 431.7656,-681.5 425.7656,-681.5 425.7656,-681.5 335,-681.5 335,-681.5 329,-681.5 323,-675.5 323,-669.5 323,-669.5 323,-505.5 323,-505.5 323,-499.5 329,-493.5 335,-493.5"/>
<text text-anchor="middle" x="380.3828" y="-666.3" font-family="Times,serif" font-size="14.00" fill="#000000">GroupsController</text>
<polyline fill="none" stroke="#000000" points="323,-659.5 437.7656,-659.5 "/>
<text text-anchor="start" x="331" y="-644.3" font-family="Times,serif" font-size="14.00" fill="#000000">create</text>
<text text-anchor="start" x="331" y="-630.3" font-family="Times,serif" font-size="14.00" fill="#000000">destroy</text>
<text text-anchor="start" x="331" y="-616.3" font-family="Times,serif" font-size="14.00" fill="#000000">edit</text>
<text text-anchor="start" x="331" y="-602.3" font-family="Times,serif" font-size="14.00" fill="#000000">index</text>
<text text-anchor="start" x="331" y="-588.3" font-family="Times,serif" font-size="14.00" fill="#000000">new</text>
<text text-anchor="start" x="331" y="-574.3" font-family="Times,serif" font-size="14.00" fill="#000000">show</text>
<text text-anchor="start" x="331" y="-560.3" font-family="Times,serif" font-size="14.00" fill="#000000">update</text>
<polyline fill="none" stroke="#000000" points="323,-553.5 437.7656,-553.5 "/>
<polyline fill="none" stroke="#000000" points="323,-529.5 437.7656,-529.5 "/>
<text text-anchor="start" x="331" y="-514.3" font-family="Times,serif" font-size="14.00" fill="#000000">group_params</text>
<text text-anchor="start" x="331" y="-500.3" font-family="Times,serif" font-size="14.00" fill="#000000">set_group</text>
</g>
<!-- IdentityProvidersController -->
<g id="node9" class="node">
<title>IdentityProvidersController</title>
<path fill="none" stroke="#000000" d="M488,-85.5C488,-85.5 634.752,-85.5 634.752,-85.5 640.752,-85.5 646.752,-91.5 646.752,-97.5 646.752,-97.5 646.752,-165.5 646.752,-165.5 646.752,-171.5 640.752,-177.5 634.752,-177.5 634.752,-177.5 488,-177.5 488,-177.5 482,-177.5 476,-171.5 476,-165.5 476,-165.5 476,-97.5 476,-97.5 476,-91.5 482,-85.5 488,-85.5"/>
<text text-anchor="middle" x="561.376" y="-162.3" font-family="Times,serif" font-size="14.00" fill="#000000">IdentityProvidersController</text>
<polyline fill="none" stroke="#000000" points="476,-155.5 646.752,-155.5 "/>
<text text-anchor="start" x="484" y="-140.3" font-family="Times,serif" font-size="14.00" fill="#000000">launch</text>
<polyline fill="none" stroke="#000000" points="476,-133.5 646.752,-133.5 "/>
<polyline fill="none" stroke="#000000" points="476,-109.5 646.752,-109.5 "/>
</g>
<!-- SessionsController -->
<g id="node10" class="node">
<title>SessionsController</title>
<path fill="none" stroke="#000000" d="M80,-306.5C80,-306.5 196.4141,-306.5 196.4141,-306.5 202.4141,-306.5 208.4141,-312.5 208.4141,-318.5 208.4141,-318.5 208.4141,-442.5 208.4141,-442.5 208.4141,-448.5 202.4141,-454.5 196.4141,-454.5 196.4141,-454.5 80,-454.5 80,-454.5 74,-454.5 68,-448.5 68,-442.5 68,-442.5 68,-318.5 68,-318.5 68,-312.5 74,-306.5 80,-306.5"/>
<text text-anchor="middle" x="138.207" y="-439.3" font-family="Times,serif" font-size="14.00" fill="#000000">SessionsController</text>
<polyline fill="none" stroke="#000000" points="68,-432.5 208.4141,-432.5 "/>
<text text-anchor="start" x="76" y="-417.3" font-family="Times,serif" font-size="14.00" fill="#000000">callback</text>
<text text-anchor="start" x="76" y="-403.3" font-family="Times,serif" font-size="14.00" fill="#000000">cleanse_session</text>
<text text-anchor="start" x="76" y="-389.3" font-family="Times,serif" font-size="14.00" fill="#000000">destroy</text>
<text text-anchor="start" x="76" y="-375.3" font-family="Times,serif" font-size="14.00" fill="#000000">openid_connect_login</text>
<text text-anchor="start" x="76" y="-361.3" font-family="Times,serif" font-size="14.00" fill="#000000">public_keys_for</text>
<polyline fill="none" stroke="#000000" points="68,-354.5 208.4141,-354.5 "/>
<polyline fill="none" stroke="#000000" points="68,-330.5 208.4141,-330.5 "/>
</g>
<!-- WelcomeController -->
<g id="node11" class="node">
<title>WelcomeController</title>
<path fill="none" stroke="#000000" d="M641,-425.5C641,-425.5 743.0654,-425.5 743.0654,-425.5 749.0654,-425.5 755.0654,-431.5 755.0654,-437.5 755.0654,-437.5 755.0654,-533.5 755.0654,-533.5 755.0654,-539.5 749.0654,-545.5 743.0654,-545.5 743.0654,-545.5 641,-545.5 641,-545.5 635,-545.5 629,-539.5 629,-533.5 629,-533.5 629,-437.5 629,-437.5 629,-431.5 635,-425.5 641,-425.5"/>
<text text-anchor="middle" x="692.0327" y="-530.3" font-family="Times,serif" font-size="14.00" fill="#000000">WelcomeController</text>
<polyline fill="none" stroke="#000000" points="629,-523.5 755.0654,-523.5 "/>
<text text-anchor="start" x="637" y="-508.3" font-family="Times,serif" font-size="14.00" fill="#000000">dashboard</text>
<text text-anchor="start" x="637" y="-494.3" font-family="Times,serif" font-size="14.00" fill="#000000">landing</text>
<text text-anchor="start" x="637" y="-480.3" font-family="Times,serif" font-size="14.00" fill="#000000">status</text>
<polyline fill="none" stroke="#000000" points="629,-473.5 755.0654,-473.5 "/>
<polyline fill="none" stroke="#000000" points="629,-449.5 755.0654,-449.5 "/>
</g>
<!-- ActivitiesController -->
<g id="node12" class="node">
<title>ActivitiesController</title>
<path fill="none" stroke="#000000" d="M641,-578.5C641,-578.5 744.9795,-578.5 744.9795,-578.5 750.9795,-578.5 756.9795,-584.5 756.9795,-590.5 756.9795,-590.5 756.9795,-698.5 756.9795,-698.5 756.9795,-704.5 750.9795,-710.5 744.9795,-710.5 744.9795,-710.5 641,-710.5 641,-710.5 635,-710.5 629,-704.5 629,-698.5 629,-698.5 629,-590.5 629,-590.5 629,-584.5 635,-578.5 641,-578.5"/>
<text text-anchor="middle" x="692.9897" y="-695.3" font-family="Times,serif" font-size="14.00" fill="#000000">ActivitiesController</text>
<polyline fill="none" stroke="#000000" points="629,-688.5 756.9795,-688.5 "/>
<text text-anchor="start" x="637" y="-673.3" font-family="Times,serif" font-size="14.00" fill="#000000">create</text>
<text text-anchor="start" x="637" y="-659.3" font-family="Times,serif" font-size="14.00" fill="#000000">destroy</text>
<text text-anchor="start" x="637" y="-645.3" font-family="Times,serif" font-size="14.00" fill="#000000">index</text>
<text text-anchor="start" x="637" y="-631.3" font-family="Times,serif" font-size="14.00" fill="#000000">update</text>
<polyline fill="none" stroke="#000000" points="629,-624.5 756.9795,-624.5 "/>
<polyline fill="none" stroke="#000000" points="629,-600.5 756.9795,-600.5 "/>
<text text-anchor="start" x="637" y="-585.3" font-family="Times,serif" font-size="14.00" fill="#000000">event_params</text>
</g>
<!-- AssetsController -->
<g id="node13" class="node">
<title>AssetsController</title>
<path fill="none" stroke="#000000" d="M63,-629.5C63,-629.5 149.1035,-629.5 149.1035,-629.5 155.1035,-629.5 161.1035,-635.5 161.1035,-641.5 161.1035,-641.5 161.1035,-749.5 161.1035,-749.5 161.1035,-755.5 155.1035,-761.5 149.1035,-761.5 149.1035,-761.5 63,-761.5 63,-761.5 57,-761.5 51,-755.5 51,-749.5 51,-749.5 51,-641.5 51,-641.5 51,-635.5 57,-629.5 63,-629.5"/>
<text text-anchor="middle" x="106.0518" y="-746.3" font-family="Times,serif" font-size="14.00" fill="#000000">AssetsController</text>
<polyline fill="none" stroke="#000000" points="51,-739.5 161.1035,-739.5 "/>
<text text-anchor="start" x="59" y="-724.3" font-family="Times,serif" font-size="14.00" fill="#000000">create</text>
<text text-anchor="start" x="59" y="-710.3" font-family="Times,serif" font-size="14.00" fill="#000000">destroy</text>
<text text-anchor="start" x="59" y="-696.3" font-family="Times,serif" font-size="14.00" fill="#000000">index</text>
<text text-anchor="start" x="59" y="-682.3" font-family="Times,serif" font-size="14.00" fill="#000000">update</text>
<polyline fill="none" stroke="#000000" points="51,-675.5 161.1035,-675.5 "/>
<polyline fill="none" stroke="#000000" points="51,-651.5 161.1035,-651.5 "/>
<text text-anchor="start" x="59" y="-636.3" font-family="Times,serif" font-size="14.00" fill="#000000">asset_params</text>
</g>
<!-- CapabilitiesController -->
<g id="node14" class="node">
<title>CapabilitiesController</title>
<path fill="none" stroke="#000000" d="M488,-204.5C488,-204.5 604.4209,-204.5 604.4209,-204.5 610.4209,-204.5 616.4209,-210.5 616.4209,-216.5 616.4209,-216.5 616.4209,-380.5 616.4209,-380.5 616.4209,-386.5 610.4209,-392.5 604.4209,-392.5 604.4209,-392.5 488,-392.5 488,-392.5 482,-392.5 476,-386.5 476,-380.5 476,-380.5 476,-216.5 476,-216.5 476,-210.5 482,-204.5 488,-204.5"/>
<text text-anchor="middle" x="546.2104" y="-377.3" font-family="Times,serif" font-size="14.00" fill="#000000">CapabilitiesController</text>
<polyline fill="none" stroke="#000000" points="476,-370.5 616.4209,-370.5 "/>
<text text-anchor="start" x="484" y="-355.3" font-family="Times,serif" font-size="14.00" fill="#000000">create</text>
<text text-anchor="start" x="484" y="-341.3" font-family="Times,serif" font-size="14.00" fill="#000000">destroy</text>
<text text-anchor="start" x="484" y="-327.3" font-family="Times,serif" font-size="14.00" fill="#000000">edit</text>
<text text-anchor="start" x="484" y="-313.3" font-family="Times,serif" font-size="14.00" fill="#000000">index</text>
<text text-anchor="start" x="484" y="-299.3" font-family="Times,serif" font-size="14.00" fill="#000000">new</text>
<text text-anchor="start" x="484" y="-285.3" font-family="Times,serif" font-size="14.00" fill="#000000">show</text>
<text text-anchor="start" x="484" y="-271.3" font-family="Times,serif" font-size="14.00" fill="#000000">update</text>
<polyline fill="none" stroke="#000000" points="476,-264.5 616.4209,-264.5 "/>
<polyline fill="none" stroke="#000000" points="476,-240.5 616.4209,-240.5 "/>
<text text-anchor="start" x="484" y="-225.3" font-family="Times,serif" font-size="14.00" fill="#000000">capability_params</text>
<text text-anchor="start" x="484" y="-211.3" font-family="Times,serif" font-size="14.00" fill="#000000">set_capability</text>
</g>
<!-- IdentitiesController -->
<g id="node15" class="node">
<title>IdentitiesController</title>
<path fill="none" stroke="#000000" d="M46,-510.5C46,-510.5 147.6416,-510.5 147.6416,-510.5 153.6416,-510.5 159.6416,-516.5 159.6416,-522.5 159.6416,-522.5 159.6416,-590.5 159.6416,-590.5 159.6416,-596.5 153.6416,-602.5 147.6416,-602.5 147.6416,-602.5 46,-602.5 46,-602.5 40,-602.5 34,-596.5 34,-590.5 34,-590.5 34,-522.5 34,-522.5 34,-516.5 40,-510.5 46,-510.5"/>
<text text-anchor="middle" x="96.8208" y="-587.3" font-family="Times,serif" font-size="14.00" fill="#000000">IdentitiesController</text>
<polyline fill="none" stroke="#000000" points="34,-580.5 159.6416,-580.5 "/>
<text text-anchor="start" x="42" y="-565.3" font-family="Times,serif" font-size="14.00" fill="#000000">destroy</text>
<polyline fill="none" stroke="#000000" points="34,-558.5 159.6416,-558.5 "/>
<polyline fill="none" stroke="#000000" points="34,-534.5 159.6416,-534.5 "/>
</g>
<!-- MembersController -->
<g id="node16" class="node">
<title>MembersController</title>
<path fill="none" stroke="#000000" d="M488,-425.5C488,-425.5 590.4209,-425.5 590.4209,-425.5 596.4209,-425.5 602.4209,-431.5 602.4209,-437.5 602.4209,-437.5 602.4209,-601.5 602.4209,-601.5 602.4209,-607.5 596.4209,-613.5 590.4209,-613.5 590.4209,-613.5 488,-613.5 488,-613.5 482,-613.5 476,-607.5 476,-601.5 476,-601.5 476,-437.5 476,-437.5 476,-431.5 482,-425.5 488,-425.5"/>
<text text-anchor="middle" x="539.2104" y="-598.3" font-family="Times,serif" font-size="14.00" fill="#000000">MembersController</text>
<polyline fill="none" stroke="#000000" points="476,-591.5 602.4209,-591.5 "/>
<text text-anchor="start" x="484" y="-576.3" font-family="Times,serif" font-size="14.00" fill="#000000">create</text>
<text text-anchor="start" x="484" y="-562.3" font-family="Times,serif" font-size="14.00" fill="#000000">destroy</text>
<text text-anchor="start" x="484" y="-548.3" font-family="Times,serif" font-size="14.00" fill="#000000">edit</text>
<text text-anchor="start" x="484" y="-534.3" font-family="Times,serif" font-size="14.00" fill="#000000">index</text>
<text text-anchor="start" x="484" y="-520.3" font-family="Times,serif" font-size="14.00" fill="#000000">new</text>
<text text-anchor="start" x="484" y="-506.3" font-family="Times,serif" font-size="14.00" fill="#000000">show</text>
<text text-anchor="start" x="484" y="-492.3" font-family="Times,serif" font-size="14.00" fill="#000000">update</text>
<polyline fill="none" stroke="#000000" points="476,-485.5 602.4209,-485.5 "/>
<polyline fill="none" stroke="#000000" points="476,-461.5 602.4209,-461.5 "/>
<text text-anchor="start" x="484" y="-446.3" font-family="Times,serif" font-size="14.00" fill="#000000">member_params</text>
<text text-anchor="start" x="484" y="-432.3" font-family="Times,serif" font-size="14.00" fill="#000000">set_member</text>
</g>
<!-- RolesController -->
<g id="node17" class="node">
<title>RolesController</title>
<path fill="none" stroke="#000000" d="M199,-493.5C199,-493.5 280.4346,-493.5 280.4346,-493.5 286.4346,-493.5 292.4346,-499.5 292.4346,-505.5 292.4346,-505.5 292.4346,-669.5 292.4346,-669.5 292.4346,-675.5 286.4346,-681.5 280.4346,-681.5 280.4346,-681.5 199,-681.5 199,-681.5 193,-681.5 187,-675.5 187,-669.5 187,-669.5 187,-505.5 187,-505.5 187,-499.5 193,-493.5 199,-493.5"/>
<text text-anchor="middle" x="239.7173" y="-666.3" font-family="Times,serif" font-size="14.00" fill="#000000">RolesController</text>
<polyline fill="none" stroke="#000000" points="187,-659.5 292.4346,-659.5 "/>
<text text-anchor="start" x="195" y="-644.3" font-family="Times,serif" font-size="14.00" fill="#000000">create</text>
<text text-anchor="start" x="195" y="-630.3" font-family="Times,serif" font-size="14.00" fill="#000000">destroy</text>
<text text-anchor="start" x="195" y="-616.3" font-family="Times,serif" font-size="14.00" fill="#000000">edit</text>
<text text-anchor="start" x="195" y="-602.3" font-family="Times,serif" font-size="14.00" fill="#000000">index</text>
<text text-anchor="start" x="195" y="-588.3" font-family="Times,serif" font-size="14.00" fill="#000000">new</text>
<text text-anchor="start" x="195" y="-574.3" font-family="Times,serif" font-size="14.00" fill="#000000">show</text>
<text text-anchor="start" x="195" y="-560.3" font-family="Times,serif" font-size="14.00" fill="#000000">update</text>
<polyline fill="none" stroke="#000000" points="187,-553.5 292.4346,-553.5 "/>
<polyline fill="none" stroke="#000000" points="187,-529.5 292.4346,-529.5 "/>
<text text-anchor="start" x="195" y="-514.3" font-family="Times,serif" font-size="14.00" fill="#000000">role_params</text>
<text text-anchor="start" x="195" y="-500.3" font-family="Times,serif" font-size="14.00" fill="#000000">set_role</text>
</g>
</g>
</svg>
