<?xml version="1.0" encoding="UTF-8" standalone="no"?>
<!DOCTYPE svg PUBLIC "-//W3C//DTD SVG 1.1//EN"
 "http://www.w3.org/Graphics/SVG/1.1/DTD/svg11.dtd">
<!-- Generated by graphviz version 2.38.0 (20140413.2041)
 -->
<!-- Title: controllers_diagram Pages: 1 -->
<svg width="833pt" height="858pt"
 viewBox="0.00 0.00 832.60 858.00" xmlns="http://www.w3.org/2000/svg" xmlns:xlink="http://www.w3.org/1999/xlink">
<g id="graph0" class="graph" transform="scale(1 1) rotate(0) translate(394.607 463.5)">
<title>controllers_diagram</title>
<polygon fill="none" stroke="none" points="-394.607,394.5 -394.607,-463.5 437.99,-463.5 437.99,394.5 -394.607,394.5"/>
<!-- _diagram_info -->
<g id="node1" class="node"><title>_diagram_info</title>
<text text-anchor="start" x="-94.4497" y="161.9" font-family="Times,serif" font-size="13.00">Controllers diagram</text>
<text text-anchor="start" x="-94.4497" y="174.9" font-family="Times,serif" font-size="13.00">Date: Jun 30 2016 &#45; 14:21</text>
<text text-anchor="start" x="-94.4497" y="187.9" font-family="Times,serif" font-size="13.00">Migration version: 20160630211533</text>
<text text-anchor="start" x="-94.4497" y="200.9" font-family="Times,serif" font-size="13.00">Generated by RailRoady 1.5.1</text>
<text text-anchor="start" x="-94.4497" y="213.9" font-family="Times,serif" font-size="13.00">http://railroady.prestonlee.com</text>
</g>
<!-- ActivitiesController -->
<g id="node2" class="node"><title>ActivitiesController</title>
<path fill="none" stroke="black" d="M318.01,305C318.01,305 421.99,305 421.99,305 427.99,305 433.99,299 433.99,293 433.99,293 433.99,171 433.99,171 433.99,165 427.99,159 421.99,159 421.99,159 318.01,159 318.01,159 312.01,159 306.01,165 306.01,171 306.01,171 306.01,293 306.01,293 306.01,299 312.01,305 318.01,305"/>
<text text-anchor="middle" x="370" y="174.2" font-family="Times,serif" font-size="14.00">ActivitiesController</text>
<polyline fill="none" stroke="black" points="306.01,181 433.99,181 "/>
<text text-anchor="start" x="314.01" y="196.2" font-family="Times,serif" font-size="14.00">create</text>
<text text-anchor="start" x="314.01" y="210.2" font-family="Times,serif" font-size="14.00">destroy</text>
<text text-anchor="start" x="314.01" y="224.2" font-family="Times,serif" font-size="14.00">index</text>
<text text-anchor="start" x="314.01" y="238.2" font-family="Times,serif" font-size="14.00">update</text>
<polyline fill="none" stroke="black" points="306.01,245 433.99,245 "/>
<polyline fill="none" stroke="black" points="306.01,269 433.99,269 "/>
<text text-anchor="start" x="314.01" y="284.2" font-family="Times,serif" font-size="14.00">_layout</text>
<text text-anchor="start" x="314.01" y="298.2" font-family="Times,serif" font-size="14.00">activity_params</text>
</g>
<!-- ActorRolesController -->
<g id="node3" class="node"><title>ActorRolesController</title>
<path fill="none" stroke="black" d="M301.345,-103C301.345,-103 414.655,-103 414.655,-103 420.655,-103 426.655,-109 426.655,-115 426.655,-115 426.655,-237 426.655,-237 426.655,-243 420.655,-249 414.655,-249 414.655,-249 301.345,-249 301.345,-249 295.345,-249 289.345,-243 289.345,-237 289.345,-237 289.345,-115 289.345,-115 289.345,-109 295.345,-103 301.345,-103"/>
<text text-anchor="middle" x="358" y="-233.8" font-family="Times,serif" font-size="14.00">ActorRolesController</text>
<polyline fill="none" stroke="black" points="289.345,-227 426.655,-227 "/>
<text text-anchor="start" x="297.345" y="-211.8" font-family="Times,serif" font-size="14.00">create</text>
<text text-anchor="start" x="297.345" y="-197.8" font-family="Times,serif" font-size="14.00">destroy</text>
<text text-anchor="start" x="297.345" y="-183.8" font-family="Times,serif" font-size="14.00">index</text>
<text text-anchor="start" x="297.345" y="-169.8" font-family="Times,serif" font-size="14.00">update</text>
<polyline fill="none" stroke="black" points="289.345,-163 426.655,-163 "/>
<polyline fill="none" stroke="black" points="289.345,-139 426.655,-139 "/>
<text text-anchor="start" x="297.345" y="-123.8" font-family="Times,serif" font-size="14.00">_layout</text>
<text text-anchor="start" x="297.345" y="-109.8" font-family="Times,serif" font-size="14.00">actor_role_params</text>
</g>
<!-- ApplicationController -->
<g id="node4" class="node"><title>ApplicationController</title>
<path fill="none" stroke="black" d="M-89.5176,118C-89.5176,118 87.5176,118 87.5176,118 93.5176,118 99.5176,112 99.5176,106 99.5176,106 99.5176,-100 99.5176,-100 99.5176,-106 93.5176,-112 87.5176,-112 87.5176,-112 -89.5176,-112 -89.5176,-112 -95.5176,-112 -101.518,-106 -101.518,-100 -101.518,-100 -101.518,106 -101.518,106 -101.518,112 -95.5176,118 -89.5176,118"/>
<text text-anchor="middle" x="-1" y="-96.8" font-family="Times,serif" font-size="14.00">ApplicationController</text>
<polyline fill="none" stroke="black" points="-101.518,-90 99.5176,-90 "/>
<text text-anchor="start" x="-93.5176" y="-74.8" font-family="Times,serif" font-size="14.00">unauthenticate!</text>
<text text-anchor="start" x="-93.5176" y="-60.8" font-family="Times,serif" font-size="14.00">build_oauth_request</text>
<text text-anchor="start" x="-93.5176" y="-46.8" font-family="Times,serif" font-size="14.00">cors_preflight_check</text>
<text text-anchor="start" x="-93.5176" y="-32.8" font-family="Times,serif" font-size="14.00">cors_set_access_control_headers</text>
<text text-anchor="start" x="-93.5176" y="-18.8" font-family="Times,serif" font-size="14.00">current_identity</text>
<text text-anchor="start" x="-93.5176" y="-4.8" font-family="Times,serif" font-size="14.00">current_person</text>
<text text-anchor="start" x="-93.5176" y="9.2" font-family="Times,serif" font-size="14.00">current_user</text>
<text text-anchor="start" x="-93.5176" y="23.2" font-family="Times,serif" font-size="14.00">new_nonce</text>
<text text-anchor="start" x="-93.5176" y="37.2" font-family="Times,serif" font-size="14.00">set_options_from</text>
<text text-anchor="start" x="-93.5176" y="51.2" font-family="Times,serif" font-size="14.00">stored_nonce</text>
<text text-anchor="start" x="-93.5176" y="65.2" font-family="Times,serif" font-size="14.00">authenticate_identity!</text>
<polyline fill="none" stroke="black" points="-101.518,72 99.5176,72 "/>
<polyline fill="none" stroke="black" points="-101.518,96 99.5176,96 "/>
<text text-anchor="start" x="-93.5176" y="111.2" font-family="Times,serif" font-size="14.00">_layout</text>
</g>
<!-- AssetsController -->
<g id="node5" class="node"><title>AssetsController</title>
<path fill="none" stroke="black" d="M317.948,118C317.948,118 404.052,118 404.052,118 410.052,118 416.052,112 416.052,106 416.052,106 416.052,-16 416.052,-16 416.052,-22 410.052,-28 404.052,-28 404.052,-28 317.948,-28 317.948,-28 311.948,-28 305.948,-22 305.948,-16 305.948,-16 305.948,106 305.948,106 305.948,112 311.948,118 317.948,118"/>
<text text-anchor="middle" x="361" y="-12.8" font-family="Times,serif" font-size="14.00">AssetsController</text>
<polyline fill="none" stroke="black" points="305.948,-6 416.052,-6 "/>
<text text-anchor="start" x="313.948" y="9.2" font-family="Times,serif" font-size="14.00">create</text>
<text text-anchor="start" x="313.948" y="23.2" font-family="Times,serif" font-size="14.00">destroy</text>
<text text-anchor="start" x="313.948" y="37.2" font-family="Times,serif" font-size="14.00">index</text>
<text text-anchor="start" x="313.948" y="51.2" font-family="Times,serif" font-size="14.00">update</text>
<polyline fill="none" stroke="black" points="305.948,58 416.052,58 "/>
<polyline fill="none" stroke="black" points="305.948,82 416.052,82 "/>
<text text-anchor="start" x="313.948" y="97.2" font-family="Times,serif" font-size="14.00">_layout</text>
<text text-anchor="start" x="313.948" y="111.2" font-family="Times,serif" font-size="14.00">asset_params</text>
</g>
<!-- CapabilitiesController -->
<g id="node6" class="node"><title>CapabilitiesController</title>
<path fill="none" stroke="black" d="M147.79,135C147.79,135 264.21,135 264.21,135 270.21,135 276.21,129 276.21,123 276.21,123 276.21,-55 276.21,-55 276.21,-61 270.21,-67 264.21,-67 264.21,-67 147.79,-67 147.79,-67 141.79,-67 135.79,-61 135.79,-55 135.79,-55 135.79,123 135.79,123 135.79,129 141.79,135 147.79,135"/>
<text text-anchor="middle" x="206" y="-51.8" font-family="Times,serif" font-size="14.00">CapabilitiesController</text>
<polyline fill="none" stroke="black" points="135.79,-45 276.21,-45 "/>
<text text-anchor="start" x="143.79" y="-29.8" font-family="Times,serif" font-size="14.00">index</text>
<text text-anchor="start" x="143.79" y="-15.8" font-family="Times,serif" font-size="14.00">destroy</text>
<text text-anchor="start" x="143.79" y="-1.8" font-family="Times,serif" font-size="14.00">edit</text>
<text text-anchor="start" x="143.79" y="12.2" font-family="Times,serif" font-size="14.00">create</text>
<text text-anchor="start" x="143.79" y="26.2" font-family="Times,serif" font-size="14.00">new</text>
<text text-anchor="start" x="143.79" y="40.2" font-family="Times,serif" font-size="14.00">show</text>
<text text-anchor="start" x="143.79" y="54.2" font-family="Times,serif" font-size="14.00">update</text>
<polyline fill="none" stroke="black" points="135.79,61 276.21,61 "/>
<polyline fill="none" stroke="black" points="135.79,85 276.21,85 "/>
<text text-anchor="start" x="143.79" y="100.2" font-family="Times,serif" font-size="14.00">_layout</text>
<text text-anchor="start" x="143.79" y="114.2" font-family="Times,serif" font-size="14.00">capability_params</text>
<text text-anchor="start" x="143.79" y="128.2" font-family="Times,serif" font-size="14.00">set_capability</text>
</g>
<!-- ClientsController -->
<g id="node7" class="node"><title>ClientsController</title>
<path fill="none" stroke="black" d="M-378.607,390C-378.607,390 -289.393,390 -289.393,390 -283.393,390 -277.393,384 -277.393,378 -277.393,378 -277.393,298 -277.393,298 -277.393,292 -283.393,286 -289.393,286 -289.393,286 -378.607,286 -378.607,286 -384.607,286 -390.607,292 -390.607,298 -390.607,298 -390.607,378 -390.607,378 -390.607,384 -384.607,390 -378.607,390"/>
<text text-anchor="middle" x="-334" y="301.2" font-family="Times,serif" font-size="14.00">ClientsController</text>
<polyline fill="none" stroke="black" points="-390.607,308 -277.393,308 "/>
<text text-anchor="start" x="-382.607" y="323.2" font-family="Times,serif" font-size="14.00">index</text>
<text text-anchor="start" x="-382.607" y="337.2" font-family="Times,serif" font-size="14.00">launch</text>
<polyline fill="none" stroke="black" points="-390.607,344 -277.393,344 "/>
<polyline fill="none" stroke="black" points="-390.607,368 -277.393,368 "/>
<text text-anchor="start" x="-382.607" y="383.2" font-family="Times,serif" font-size="14.00">_layout</text>
</g>
<!-- ContextsController -->
<g id="node8" class="node"><title>ContextsController</title>
<path fill="none" stroke="black" d="M-4.66211,-341C-4.66211,-341 94.6621,-341 94.6621,-341 100.662,-341 106.662,-347 106.662,-353 106.662,-353 106.662,-421 106.662,-421 106.662,-427 100.662,-433 94.6621,-433 94.6621,-433 -4.66211,-433 -4.66211,-433 -10.6621,-433 -16.6621,-427 -16.6621,-421 -16.6621,-421 -16.6621,-353 -16.6621,-353 -16.6621,-347 -10.6621,-341 -4.66211,-341"/>
<text text-anchor="middle" x="45" y="-417.8" font-family="Times,serif" font-size="14.00">ContextsController</text>
<polyline fill="none" stroke="black" points="-16.6621,-411 106.662,-411 "/>
<polyline fill="none" stroke="black" points="-16.6621,-387 106.662,-387 "/>
<polyline fill="none" stroke="black" points="-16.6621,-363 106.662,-363 "/>
<text text-anchor="start" x="-8.66211" y="-347.8" font-family="Times,serif" font-size="14.00">_layout</text>
</g>
<!-- GroupsController -->
<g id="node9" class="node"><title>GroupsController</title>
<path fill="none" stroke="black" d="M-243.383,67C-243.383,67 -152.617,67 -152.617,67 -146.617,67 -140.617,61 -140.617,55 -140.617,55 -140.617,-123 -140.617,-123 -140.617,-129 -146.617,-135 -152.617,-135 -152.617,-135 -243.383,-135 -243.383,-135 -249.383,-135 -255.383,-129 -255.383,-123 -255.383,-123 -255.383,55 -255.383,55 -255.383,61 -249.383,67 -243.383,67"/>
<text text-anchor="middle" x="-198" y="-119.8" font-family="Times,serif" font-size="14.00">GroupsController</text>
<polyline fill="none" stroke="black" points="-255.383,-113 -140.617,-113 "/>
<text text-anchor="start" x="-247.383" y="-97.8" font-family="Times,serif" font-size="14.00">index</text>
<text text-anchor="start" x="-247.383" y="-83.8" font-family="Times,serif" font-size="14.00">destroy</text>
<text text-anchor="start" x="-247.383" y="-69.8" font-family="Times,serif" font-size="14.00">edit</text>
<text text-anchor="start" x="-247.383" y="-55.8" font-family="Times,serif" font-size="14.00">create</text>
<text text-anchor="start" x="-247.383" y="-41.8" font-family="Times,serif" font-size="14.00">new</text>
<text text-anchor="start" x="-247.383" y="-27.8" font-family="Times,serif" font-size="14.00">show</text>
<text text-anchor="start" x="-247.383" y="-13.8" font-family="Times,serif" font-size="14.00">update</text>
<polyline fill="none" stroke="black" points="-255.383,-7 -140.617,-7 "/>
<polyline fill="none" stroke="black" points="-255.383,17 -140.617,17 "/>
<text text-anchor="start" x="-247.383" y="32.2" font-family="Times,serif" font-size="14.00">_layout</text>
<text text-anchor="start" x="-247.383" y="46.2" font-family="Times,serif" font-size="14.00">group_params</text>
<text text-anchor="start" x="-247.383" y="60.2" font-family="Times,serif" font-size="14.00">set_group</text>
</g>
<!-- IdentitiesController -->
<g id="node10" class="node"><title>IdentitiesController</title>
<path fill="none" stroke="black" d="M-310.821,-188C-310.821,-188 -209.179,-188 -209.179,-188 -203.179,-188 -197.179,-194 -197.179,-200 -197.179,-200 -197.179,-266 -197.179,-266 -197.179,-272 -203.179,-278 -209.179,-278 -209.179,-278 -310.821,-278 -310.821,-278 -316.821,-278 -322.821,-272 -322.821,-266 -322.821,-266 -322.821,-200 -322.821,-200 -322.821,-194 -316.821,-188 -310.821,-188"/>
<text text-anchor="middle" x="-260" y="-262.8" font-family="Times,serif" font-size="14.00">IdentitiesController</text>
<polyline fill="none" stroke="black" points="-322.821,-256 -197.179,-256 "/>
<text text-anchor="start" x="-314.821" y="-240.8" font-family="Times,serif" font-size="14.00">destroy</text>
<polyline fill="none" stroke="black" points="-322.821,-234 -197.179,-234 "/>
<polyline fill="none" stroke="black" points="-322.821,-210 -197.179,-210 "/>
<text text-anchor="start" x="-314.821" y="-194.8" font-family="Times,serif" font-size="14.00">_layout</text>
</g>
<!-- MembersController -->
<g id="node11" class="node"><title>MembersController</title>
<path fill="none" stroke="black" d="M147.79,-103C147.79,-103 250.21,-103 250.21,-103 256.21,-103 262.21,-109 262.21,-115 262.21,-115 262.21,-293 262.21,-293 262.21,-299 256.21,-305 250.21,-305 250.21,-305 147.79,-305 147.79,-305 141.79,-305 135.79,-299 135.79,-293 135.79,-293 135.79,-115 135.79,-115 135.79,-109 141.79,-103 147.79,-103"/>
<text text-anchor="middle" x="199" y="-289.8" font-family="Times,serif" font-size="14.00">MembersController</text>
<polyline fill="none" stroke="black" points="135.79,-283 262.21,-283 "/>
<text text-anchor="start" x="143.79" y="-267.8" font-family="Times,serif" font-size="14.00">index</text>
<text text-anchor="start" x="143.79" y="-253.8" font-family="Times,serif" font-size="14.00">destroy</text>
<text text-anchor="start" x="143.79" y="-239.8" font-family="Times,serif" font-size="14.00">edit</text>
<text text-anchor="start" x="143.79" y="-225.8" font-family="Times,serif" font-size="14.00">create</text>
<text text-anchor="start" x="143.79" y="-211.8" font-family="Times,serif" font-size="14.00">new</text>
<text text-anchor="start" x="143.79" y="-197.8" font-family="Times,serif" font-size="14.00">show</text>
<text text-anchor="start" x="143.79" y="-183.8" font-family="Times,serif" font-size="14.00">update</text>
<polyline fill="none" stroke="black" points="135.79,-177 262.21,-177 "/>
<polyline fill="none" stroke="black" points="135.79,-153 262.21,-153 "/>
<text text-anchor="start" x="143.79" y="-137.8" font-family="Times,serif" font-size="14.00">_layout</text>
<text text-anchor="start" x="143.79" y="-123.8" font-family="Times,serif" font-size="14.00">member_params</text>
<text text-anchor="start" x="143.79" y="-109.8" font-family="Times,serif" font-size="14.00">set_member</text>
</g>
<!-- ObjectivesController -->
<g id="node12" class="node"><title>ObjectivesController</title>
<path fill="none" stroke="black" d="M301.293,-290C301.293,-290 410.707,-290 410.707,-290 416.707,-290 422.707,-296 422.707,-302 422.707,-302 422.707,-438 422.707,-438 422.707,-444 416.707,-450 410.707,-450 410.707,-450 301.293,-450 301.293,-450 295.293,-450 289.293,-444 289.293,-438 289.293,-438 289.293,-302 289.293,-302 289.293,-296 295.293,-290 301.293,-290"/>
<text text-anchor="middle" x="356" y="-434.8" font-family="Times,serif" font-size="14.00">ObjectivesController</text>
<polyline fill="none" stroke="black" points="289.293,-428 422.707,-428 "/>
<text text-anchor="start" x="297.293" y="-412.8" font-family="Times,serif" font-size="14.00">create</text>
<text text-anchor="start" x="297.293" y="-398.8" font-family="Times,serif" font-size="14.00">destroy</text>
<text text-anchor="start" x="297.293" y="-384.8" font-family="Times,serif" font-size="14.00">index</text>
<text text-anchor="start" x="297.293" y="-370.8" font-family="Times,serif" font-size="14.00">show</text>
<text text-anchor="start" x="297.293" y="-356.8" font-family="Times,serif" font-size="14.00">update</text>
<polyline fill="none" stroke="black" points="289.293,-350 422.707,-350 "/>
<polyline fill="none" stroke="black" points="289.293,-326 422.707,-326 "/>
<text text-anchor="start" x="297.293" y="-310.8" font-family="Times,serif" font-size="14.00">_layout</text>
<text text-anchor="start" x="297.293" y="-296.8" font-family="Times,serif" font-size="14.00">objective_params</text>
</g>
<!-- PeopleController -->
<g id="node13" class="node"><title>PeopleController</title>
<path fill="none" stroke="black" d="M-225.824,373C-225.824,373 -138.176,373 -138.176,373 -132.176,373 -126.176,367 -126.176,361 -126.176,361 -126.176,295 -126.176,295 -126.176,289 -132.176,283 -138.176,283 -138.176,283 -225.824,283 -225.824,283 -231.824,283 -237.824,289 -237.824,295 -237.824,295 -237.824,361 -237.824,361 -237.824,367 -231.824,373 -225.824,373"/>
<text text-anchor="middle" x="-182" y="298.2" font-family="Times,serif" font-size="14.00">PeopleController</text>
<polyline fill="none" stroke="black" points="-237.824,305 -126.176,305 "/>
<text text-anchor="start" x="-229.824" y="320.2" font-family="Times,serif" font-size="14.00">index</text>
<polyline fill="none" stroke="black" points="-237.824,327 -126.176,327 "/>
<polyline fill="none" stroke="black" points="-237.824,351 -126.176,351 "/>
<text text-anchor="start" x="-229.824" y="366.2" font-family="Times,serif" font-size="14.00">_layout</text>
</g>
<!-- PlacesController -->
<g id="node14" class="node"><title>PlacesController</title>
<path fill="none" stroke="black" d="M-293.655,-307C-293.655,-307 -208.345,-307 -208.345,-307 -202.345,-307 -196.345,-313 -196.345,-319 -196.345,-319 -196.345,-441 -196.345,-441 -196.345,-447 -202.345,-453 -208.345,-453 -208.345,-453 -293.655,-453 -293.655,-453 -299.655,-453 -305.655,-447 -305.655,-441 -305.655,-441 -305.655,-319 -305.655,-319 -305.655,-313 -299.655,-307 -293.655,-307"/>
<text text-anchor="middle" x="-251" y="-437.8" font-family="Times,serif" font-size="14.00">PlacesController</text>
<polyline fill="none" stroke="black" points="-305.655,-431 -196.345,-431 "/>
<text text-anchor="start" x="-297.655" y="-415.8" font-family="Times,serif" font-size="14.00">create</text>
<text text-anchor="start" x="-297.655" y="-401.8" font-family="Times,serif" font-size="14.00">destroy</text>
<text text-anchor="start" x="-297.655" y="-387.8" font-family="Times,serif" font-size="14.00">index</text>
<text text-anchor="start" x="-297.655" y="-373.8" font-family="Times,serif" font-size="14.00">update</text>
<polyline fill="none" stroke="black" points="-305.655,-367 -196.345,-367 "/>
<polyline fill="none" stroke="black" points="-305.655,-343 -196.345,-343 "/>
<text text-anchor="start" x="-297.655" y="-327.8" font-family="Times,serif" font-size="14.00">_layout</text>
<text text-anchor="start" x="-297.655" y="-313.8" font-family="Times,serif" font-size="14.00">place_params</text>
</g>
<!-- RolesController -->
<g id="node15" class="node"><title>RolesController</title>
<path fill="none" stroke="black" d="M-157.717,-171C-157.717,-171 -76.2827,-171 -76.2827,-171 -70.2827,-171 -64.2827,-177 -64.2827,-183 -64.2827,-183 -64.2827,-361 -64.2827,-361 -64.2827,-367 -70.2827,-373 -76.2827,-373 -76.2827,-373 -157.717,-373 -157.717,-373 -163.717,-373 -169.717,-367 -169.717,-361 -169.717,-361 -169.717,-183 -169.717,-183 -169.717,-177 -163.717,-171 -157.717,-171"/>
<text text-anchor="middle" x="-117" y="-357.8" font-family="Times,serif" font-size="14.00">RolesController</text>
<polyline fill="none" stroke="black" points="-169.717,-351 -64.2827,-351 "/>
<text text-anchor="start" x="-161.717" y="-335.8" font-family="Times,serif" font-size="14.00">index</text>
<text text-anchor="start" x="-161.717" y="-321.8" font-family="Times,serif" font-size="14.00">destroy</text>
<text text-anchor="start" x="-161.717" y="-307.8" font-family="Times,serif" font-size="14.00">edit</text>
<text text-anchor="start" x="-161.717" y="-293.8" font-family="Times,serif" font-size="14.00">create</text>
<text text-anchor="start" x="-161.717" y="-279.8" font-family="Times,serif" font-size="14.00">new</text>
<text text-anchor="start" x="-161.717" y="-265.8" font-family="Times,serif" font-size="14.00">show</text>
<text text-anchor="start" x="-161.717" y="-251.8" font-family="Times,serif" font-size="14.00">update</text>
<polyline fill="none" stroke="black" points="-169.717,-245 -64.2827,-245 "/>
<polyline fill="none" stroke="black" points="-169.717,-221 -64.2827,-221 "/>
<text text-anchor="start" x="-161.717" y="-205.8" font-family="Times,serif" font-size="14.00">_layout</text>
<text text-anchor="start" x="-161.717" y="-191.8" font-family="Times,serif" font-size="14.00">role_params</text>
<text text-anchor="start" x="-161.717" y="-177.8" font-family="Times,serif" font-size="14.00">set_role</text>
</g>
<!-- SessionsController -->
<g id="node16" class="node"><title>SessionsController</title>
<path fill="none" stroke="black" d="M-22.207,-154C-22.207,-154 94.207,-154 94.207,-154 100.207,-154 106.207,-160 106.207,-166 106.207,-166 106.207,-302 106.207,-302 106.207,-308 100.207,-314 94.207,-314 94.207,-314 -22.207,-314 -22.207,-314 -28.207,-314 -34.207,-308 -34.207,-302 -34.207,-302 -34.207,-166 -34.207,-166 -34.207,-160 -28.207,-154 -22.207,-154"/>
<text text-anchor="middle" x="36" y="-298.8" font-family="Times,serif" font-size="14.00">SessionsController</text>
<polyline fill="none" stroke="black" points="-34.207,-292 106.207,-292 "/>
<text text-anchor="start" x="-26.207" y="-276.8" font-family="Times,serif" font-size="14.00">authenticate</text>
<text text-anchor="start" x="-26.207" y="-262.8" font-family="Times,serif" font-size="14.00">callback</text>
<text text-anchor="start" x="-26.207" y="-248.8" font-family="Times,serif" font-size="14.00">cleanse_session</text>
<text text-anchor="start" x="-26.207" y="-234.8" font-family="Times,serif" font-size="14.00">destroy</text>
<text text-anchor="start" x="-26.207" y="-220.8" font-family="Times,serif" font-size="14.00">openid_connect_login</text>
<text text-anchor="start" x="-26.207" y="-206.8" font-family="Times,serif" font-size="14.00">public_keys_for</text>
<polyline fill="none" stroke="black" points="-34.207,-200 106.207,-200 "/>
<polyline fill="none" stroke="black" points="-34.207,-176 106.207,-176 "/>
<text text-anchor="start" x="-26.207" y="-160.8" font-family="Times,serif" font-size="14.00">_layout</text>
</g>
<!-- Smart::LaunchController -->
<g id="node17" class="node"><title>Smart::LaunchController</title>
<path fill="none" stroke="black" d="M11.6274,339C11.6274,339 144.373,339 144.373,339 150.373,339 156.373,333 156.373,327 156.373,327 156.373,261 156.373,261 156.373,255 150.373,249 144.373,249 144.373,249 11.6274,249 11.6274,249 5.62744,249 -0.372559,255 -0.372559,261 -0.372559,261 -0.372559,327 -0.372559,327 -0.372559,333 5.62744,339 11.6274,339"/>
<text text-anchor="middle" x="78" y="264.2" font-family="Times,serif" font-size="14.00">Smart::LaunchController</text>
<polyline fill="none" stroke="black" points="-0.372559,271 156.373,271 "/>
<text text-anchor="start" x="7.62744" y="286.2" font-family="Times,serif" font-size="14.00">launch</text>
<polyline fill="none" stroke="black" points="-0.372559,293 156.373,293 "/>
<polyline fill="none" stroke="black" points="-0.372559,317 156.373,317 "/>
<text text-anchor="start" x="7.62744" y="332.2" font-family="Times,serif" font-size="14.00">_layout</text>
</g>
<!-- UsageRolesController -->
<g id="node18" class="node"><title>UsageRolesController</title>
<path fill="none" stroke="black" d="M-260.21,254C-260.21,254 -143.79,254 -143.79,254 -137.79,254 -131.79,248 -131.79,242 -131.79,242 -131.79,120 -131.79,120 -131.79,114 -137.79,108 -143.79,108 -143.79,108 -260.21,108 -260.21,108 -266.21,108 -272.21,114 -272.21,120 -272.21,120 -272.21,242 -272.21,242 -272.21,248 -266.21,254 -260.21,254"/>
<text text-anchor="middle" x="-202" y="123.2" font-family="Times,serif" font-size="14.00">UsageRolesController</text>
<polyline fill="none" stroke="black" points="-272.21,130 -131.79,130 "/>
<text text-anchor="start" x="-264.21" y="145.2" font-family="Times,serif" font-size="14.00">create</text>
<text text-anchor="start" x="-264.21" y="159.2" font-family="Times,serif" font-size="14.00">destroy</text>
<text text-anchor="start" x="-264.21" y="173.2" font-family="Times,serif" font-size="14.00">index</text>
<text text-anchor="start" x="-264.21" y="187.2" font-family="Times,serif" font-size="14.00">update</text>
<polyline fill="none" stroke="black" points="-272.21,194 -131.79,194 "/>
<polyline fill="none" stroke="black" points="-272.21,218 -131.79,218 "/>
<text text-anchor="start" x="-264.21" y="233.2" font-family="Times,serif" font-size="14.00">_layout</text>
<text text-anchor="start" x="-264.21" y="247.2" font-family="Times,serif" font-size="14.00">usage_role_params</text>
</g>
<!-- WelcomeController -->
<g id="node19" class="node"><title>WelcomeController</title>
<path fill="none" stroke="black" d="M147.967,-341C147.967,-341 250.033,-341 250.033,-341 256.033,-341 262.033,-347 262.033,-353 262.033,-353 262.033,-447 262.033,-447 262.033,-453 256.033,-459 250.033,-459 250.033,-459 147.967,-459 147.967,-459 141.967,-459 135.967,-453 135.967,-447 135.967,-447 135.967,-353 135.967,-353 135.967,-347 141.967,-341 147.967,-341"/>
<text text-anchor="middle" x="199" y="-443.8" font-family="Times,serif" font-size="14.00">WelcomeController</text>
<polyline fill="none" stroke="black" points="135.967,-437 262.033,-437 "/>
<text text-anchor="start" x="143.967" y="-421.8" font-family="Times,serif" font-size="14.00">dashboard</text>
<text text-anchor="start" x="143.967" y="-407.8" font-family="Times,serif" font-size="14.00">landing</text>
<text text-anchor="start" x="143.967" y="-393.8" font-family="Times,serif" font-size="14.00">status</text>
<polyline fill="none" stroke="black" points="135.967,-387 262.033,-387 "/>
<polyline fill="none" stroke="black" points="135.967,-363 262.033,-363 "/>
<text text-anchor="start" x="143.967" y="-347.8" font-family="Times,serif" font-size="14.00">_layout</text>
</g>
</g>
</svg>
