<?xml version="1.0" encoding="UTF-8" standalone="no"?>
<!DOCTYPE svg PUBLIC "-//W3C//DTD SVG 1.1//EN"
 "http://www.w3.org/Graphics/SVG/1.1/DTD/svg11.dtd">
<!-- Generated by graphviz version 2.38.0 (20140413.2041)
 -->
<!-- Title: controllers_diagram Pages: 1 -->
<svg width="905pt" height="849pt"
 viewBox="0.00 0.00 904.87 849.00" xmlns="http://www.w3.org/2000/svg" xmlns:xlink="http://www.w3.org/1999/xlink">
<g id="graph0" class="graph" transform="scale(1 1) rotate(0) translate(394.714 471.5)">
<title>controllers_diagram</title>
<polygon fill="none" stroke="none" points="-394.714,377.5 -394.714,-471.5 510.152,-471.5 510.152,377.5 -394.714,377.5"/>
<!-- _diagram_info -->
<g id="node1" class="node"><title>_diagram_info</title>
<text text-anchor="start" x="-110.688" y="161.9" font-family="Times,serif" font-size="13.00">Controllers diagram</text>
<text text-anchor="start" x="-110.688" y="174.9" font-family="Times,serif" font-size="13.00">Date: Jun 17 2016 &#45; 12:53</text>
<text text-anchor="start" x="-110.688" y="187.9" font-family="Times,serif" font-size="13.00">Migration version: 20160616223349</text>
<text text-anchor="start" x="-110.688" y="200.9" font-family="Times,serif" font-size="13.00">Generated by RailRoady 1.4.2</text>
<text text-anchor="start" x="-110.688" y="213.9" font-family="Times,serif" font-size="13.00">http://railroady.prestonlee.com</text>
</g>
<!-- ApplicationController -->
<g id="node2" class="node"><title>ApplicationController</title>
<path fill="none" stroke="black" d="M-89.5176,118C-89.5176,118 87.5176,118 87.5176,118 93.5176,118 99.5176,112 99.5176,106 99.5176,106 99.5176,-86 99.5176,-86 99.5176,-92 93.5176,-98 87.5176,-98 87.5176,-98 -89.5176,-98 -89.5176,-98 -95.5176,-98 -101.518,-92 -101.518,-86 -101.518,-86 -101.518,106 -101.518,106 -101.518,112 -95.5176,118 -89.5176,118"/>
<text text-anchor="middle" x="-1" y="-82.8" font-family="Times,serif" font-size="14.00">ApplicationController</text>
<polyline fill="none" stroke="black" points="-101.518,-76 99.5176,-76 "/>
<text text-anchor="start" x="-93.5176" y="-60.8" font-family="Times,serif" font-size="14.00">unauthenticate!</text>
<text text-anchor="start" x="-93.5176" y="-46.8" font-family="Times,serif" font-size="14.00">build_oauth_request</text>
<text text-anchor="start" x="-93.5176" y="-32.8" font-family="Times,serif" font-size="14.00">cors_preflight_check</text>
<text text-anchor="start" x="-93.5176" y="-18.8" font-family="Times,serif" font-size="14.00">cors_set_access_control_headers</text>
<text text-anchor="start" x="-93.5176" y="-4.8" font-family="Times,serif" font-size="14.00">current_identity</text>
<text text-anchor="start" x="-93.5176" y="9.2" font-family="Times,serif" font-size="14.00">current_user</text>
<text text-anchor="start" x="-93.5176" y="23.2" font-family="Times,serif" font-size="14.00">new_nonce</text>
<text text-anchor="start" x="-93.5176" y="37.2" font-family="Times,serif" font-size="14.00">set_options_from</text>
<text text-anchor="start" x="-93.5176" y="51.2" font-family="Times,serif" font-size="14.00">stored_nonce</text>
<text text-anchor="start" x="-93.5176" y="65.2" font-family="Times,serif" font-size="14.00">authenticate_identity!</text>
<polyline fill="none" stroke="black" points="-101.518,72 99.5176,72 "/>
<polyline fill="none" stroke="black" points="-101.518,96 99.5176,96 "/>
<text text-anchor="start" x="-93.5176" y="111.2" font-family="Times,serif" font-size="14.00">_layout</text>
</g>
<!-- CapabilitiesController -->
<g id="node3" class="node"><title>CapabilitiesController</title>
<path fill="none" stroke="black" d="M147.79,135C147.79,135 264.21,135 264.21,135 270.21,135 276.21,129 276.21,123 276.21,123 276.21,-55 276.21,-55 276.21,-61 270.21,-67 264.21,-67 264.21,-67 147.79,-67 147.79,-67 141.79,-67 135.79,-61 135.79,-55 135.79,-55 135.79,123 135.79,123 135.79,129 141.79,135 147.79,135"/>
<text text-anchor="middle" x="206" y="-51.8" font-family="Times,serif" font-size="14.00">CapabilitiesController</text>
<polyline fill="none" stroke="black" points="135.79,-45 276.21,-45 "/>
<text text-anchor="start" x="143.79" y="-29.8" font-family="Times,serif" font-size="14.00">index</text>
<text text-anchor="start" x="143.79" y="-15.8" font-family="Times,serif" font-size="14.00">destroy</text>
<text text-anchor="start" x="143.79" y="-1.8" font-family="Times,serif" font-size="14.00">edit</text>
<text text-anchor="start" x="143.79" y="12.2" font-family="Times,serif" font-size="14.00">create</text>
<text text-anchor="start" x="143.79" y="26.2" font-family="Times,serif" font-size="14.00">new</text>
<text text-anchor="start" x="143.79" y="40.2" font-family="Times,serif" font-size="14.00">show</text>
<text text-anchor="start" x="143.79" y="54.2" font-family="Times,serif" font-size="14.00">update</text>
<polyline fill="none" stroke="black" points="135.79,61 276.21,61 "/>
<polyline fill="none" stroke="black" points="135.79,85 276.21,85 "/>
<text text-anchor="start" x="143.79" y="100.2" font-family="Times,serif" font-size="14.00">_layout</text>
<text text-anchor="start" x="143.79" y="114.2" font-family="Times,serif" font-size="14.00">capability_params</text>
<text text-anchor="start" x="143.79" y="128.2" font-family="Times,serif" font-size="14.00">set_capability</text>
</g>
<!-- ClientsController -->
<g id="node4" class="node"><title>ClientsController</title>
<path fill="none" stroke="black" d="M-310.607,-188C-310.607,-188 -221.393,-188 -221.393,-188 -215.393,-188 -209.393,-194 -209.393,-200 -209.393,-200 -209.393,-280 -209.393,-280 -209.393,-286 -215.393,-292 -221.393,-292 -221.393,-292 -310.607,-292 -310.607,-292 -316.607,-292 -322.607,-286 -322.607,-280 -322.607,-280 -322.607,-200 -322.607,-200 -322.607,-194 -316.607,-188 -310.607,-188"/>
<text text-anchor="middle" x="-266" y="-276.8" font-family="Times,serif" font-size="14.00">ClientsController</text>
<polyline fill="none" stroke="black" points="-322.607,-270 -209.393,-270 "/>
<text text-anchor="start" x="-314.607" y="-254.8" font-family="Times,serif" font-size="14.00">index</text>
<text text-anchor="start" x="-314.607" y="-240.8" font-family="Times,serif" font-size="14.00">launch</text>
<polyline fill="none" stroke="black" points="-322.607,-234 -209.393,-234 "/>
<polyline fill="none" stroke="black" points="-322.607,-210 -209.393,-210 "/>
<text text-anchor="start" x="-314.607" y="-194.8" font-family="Times,serif" font-size="14.00">_layout</text>
</g>
<!-- ContextsController -->
<g id="node5" class="node"><title>ContextsController</title>
<path fill="none" stroke="black" d="M-361.662,373C-361.662,373 -262.338,373 -262.338,373 -256.338,373 -250.338,367 -250.338,361 -250.338,361 -250.338,293 -250.338,293 -250.338,287 -256.338,281 -262.338,281 -262.338,281 -361.662,281 -361.662,281 -367.662,281 -373.662,287 -373.662,293 -373.662,293 -373.662,361 -373.662,361 -373.662,367 -367.662,373 -361.662,373"/>
<text text-anchor="middle" x="-312" y="296.2" font-family="Times,serif" font-size="14.00">ContextsController</text>
<polyline fill="none" stroke="black" points="-373.662,303 -250.338,303 "/>
<polyline fill="none" stroke="black" points="-373.662,327 -250.338,327 "/>
<polyline fill="none" stroke="black" points="-373.662,351 -250.338,351 "/>
<text text-anchor="start" x="-365.662" y="366.2" font-family="Times,serif" font-size="14.00">_layout</text>
</g>
<!-- FociController -->
<g id="node6" class="node"><title>FociController</title>
<path fill="none" stroke="black" d="M317.783,305C317.783,305 392.217,305 392.217,305 398.217,305 404.217,299 404.217,293 404.217,293 404.217,115 404.217,115 404.217,109 398.217,103 392.217,103 392.217,103 317.783,103 317.783,103 311.783,103 305.783,109 305.783,115 305.783,115 305.783,293 305.783,293 305.783,299 311.783,305 317.783,305"/>
<text text-anchor="middle" x="355" y="118.2" font-family="Times,serif" font-size="14.00">FociController</text>
<polyline fill="none" stroke="black" points="305.783,125 404.217,125 "/>
<text text-anchor="start" x="313.783" y="140.2" font-family="Times,serif" font-size="14.00">index</text>
<text text-anchor="start" x="313.783" y="154.2" font-family="Times,serif" font-size="14.00">destroy</text>
<text text-anchor="start" x="313.783" y="168.2" font-family="Times,serif" font-size="14.00">edit</text>
<text text-anchor="start" x="313.783" y="182.2" font-family="Times,serif" font-size="14.00">create</text>
<text text-anchor="start" x="313.783" y="196.2" font-family="Times,serif" font-size="14.00">new</text>
<text text-anchor="start" x="313.783" y="210.2" font-family="Times,serif" font-size="14.00">show</text>
<text text-anchor="start" x="313.783" y="224.2" font-family="Times,serif" font-size="14.00">update</text>
<polyline fill="none" stroke="black" points="305.783,231 404.217,231 "/>
<polyline fill="none" stroke="black" points="305.783,255 404.217,255 "/>
<text text-anchor="start" x="313.783" y="270.2" font-family="Times,serif" font-size="14.00">_layout</text>
<text text-anchor="start" x="313.783" y="284.2" font-family="Times,serif" font-size="14.00">focus_params</text>
<text text-anchor="start" x="313.783" y="298.2" font-family="Times,serif" font-size="14.00">set_focus</text>
</g>
<!-- GroupsController -->
<g id="node7" class="node"><title>GroupsController</title>
<path fill="none" stroke="black" d="M300.617,-103C300.617,-103 391.383,-103 391.383,-103 397.383,-103 403.383,-109 403.383,-115 403.383,-115 403.383,-293 403.383,-293 403.383,-299 397.383,-305 391.383,-305 391.383,-305 300.617,-305 300.617,-305 294.617,-305 288.617,-299 288.617,-293 288.617,-293 288.617,-115 288.617,-115 288.617,-109 294.617,-103 300.617,-103"/>
<text text-anchor="middle" x="346" y="-289.8" font-family="Times,serif" font-size="14.00">GroupsController</text>
<polyline fill="none" stroke="black" points="288.617,-283 403.383,-283 "/>
<text text-anchor="start" x="296.617" y="-267.8" font-family="Times,serif" font-size="14.00">index</text>
<text text-anchor="start" x="296.617" y="-253.8" font-family="Times,serif" font-size="14.00">destroy</text>
<text text-anchor="start" x="296.617" y="-239.8" font-family="Times,serif" font-size="14.00">edit</text>
<text text-anchor="start" x="296.617" y="-225.8" font-family="Times,serif" font-size="14.00">create</text>
<text text-anchor="start" x="296.617" y="-211.8" font-family="Times,serif" font-size="14.00">new</text>
<text text-anchor="start" x="296.617" y="-197.8" font-family="Times,serif" font-size="14.00">show</text>
<text text-anchor="start" x="296.617" y="-183.8" font-family="Times,serif" font-size="14.00">update</text>
<polyline fill="none" stroke="black" points="288.617,-177 403.383,-177 "/>
<polyline fill="none" stroke="black" points="288.617,-153 403.383,-153 "/>
<text text-anchor="start" x="296.617" y="-137.8" font-family="Times,serif" font-size="14.00">_layout</text>
<text text-anchor="start" x="296.617" y="-123.8" font-family="Times,serif" font-size="14.00">group_params</text>
<text text-anchor="start" x="296.617" y="-109.8" font-family="Times,serif" font-size="14.00">set_group</text>
</g>
<!-- IdentitiesController -->
<g id="node8" class="node"><title>IdentitiesController</title>
<path fill="none" stroke="black" d="M199.179,-341C199.179,-341 300.821,-341 300.821,-341 306.821,-341 312.821,-347 312.821,-353 312.821,-353 312.821,-419 312.821,-419 312.821,-425 306.821,-431 300.821,-431 300.821,-431 199.179,-431 199.179,-431 193.179,-431 187.179,-425 187.179,-419 187.179,-419 187.179,-353 187.179,-353 187.179,-347 193.179,-341 199.179,-341"/>
<text text-anchor="middle" x="250" y="-415.8" font-family="Times,serif" font-size="14.00">IdentitiesController</text>
<polyline fill="none" stroke="black" points="187.179,-409 312.821,-409 "/>
<text text-anchor="start" x="195.179" y="-393.8" font-family="Times,serif" font-size="14.00">destroy</text>
<polyline fill="none" stroke="black" points="187.179,-387 312.821,-387 "/>
<polyline fill="none" stroke="black" points="187.179,-363 312.821,-363 "/>
<text text-anchor="start" x="195.179" y="-347.8" font-family="Times,serif" font-size="14.00">_layout</text>
</g>
<!-- InterestsController -->
<g id="node9" class="node"><title>InterestsController</title>
<path fill="none" stroke="black" d="M-5.48633,-137C-5.48633,-137 91.4863,-137 91.4863,-137 97.4863,-137 103.486,-143 103.486,-149 103.486,-149 103.486,-327 103.486,-327 103.486,-333 97.4863,-339 91.4863,-339 91.4863,-339 -5.48633,-339 -5.48633,-339 -11.4863,-339 -17.4863,-333 -17.4863,-327 -17.4863,-327 -17.4863,-149 -17.4863,-149 -17.4863,-143 -11.4863,-137 -5.48633,-137"/>
<text text-anchor="middle" x="43" y="-323.8" font-family="Times,serif" font-size="14.00">InterestsController</text>
<polyline fill="none" stroke="black" points="-17.4863,-317 103.486,-317 "/>
<text text-anchor="start" x="-9.48633" y="-301.8" font-family="Times,serif" font-size="14.00">index</text>
<text text-anchor="start" x="-9.48633" y="-287.8" font-family="Times,serif" font-size="14.00">destroy</text>
<text text-anchor="start" x="-9.48633" y="-273.8" font-family="Times,serif" font-size="14.00">edit</text>
<text text-anchor="start" x="-9.48633" y="-259.8" font-family="Times,serif" font-size="14.00">create</text>
<text text-anchor="start" x="-9.48633" y="-245.8" font-family="Times,serif" font-size="14.00">new</text>
<text text-anchor="start" x="-9.48633" y="-231.8" font-family="Times,serif" font-size="14.00">show</text>
<text text-anchor="start" x="-9.48633" y="-217.8" font-family="Times,serif" font-size="14.00">update</text>
<polyline fill="none" stroke="black" points="-17.4863,-211 103.486,-211 "/>
<polyline fill="none" stroke="black" points="-17.4863,-187 103.486,-187 "/>
<text text-anchor="start" x="-9.48633" y="-171.8" font-family="Times,serif" font-size="14.00">_layout</text>
<text text-anchor="start" x="-9.48633" y="-157.8" font-family="Times,serif" font-size="14.00">interest_params</text>
<text text-anchor="start" x="-9.48633" y="-143.8" font-family="Times,serif" font-size="14.00">set_interest</text>
</g>
<!-- MembersController -->
<g id="node10" class="node"><title>MembersController</title>
<path fill="none" stroke="black" d="M147.79,-103C147.79,-103 250.21,-103 250.21,-103 256.21,-103 262.21,-109 262.21,-115 262.21,-115 262.21,-293 262.21,-293 262.21,-299 256.21,-305 250.21,-305 250.21,-305 147.79,-305 147.79,-305 141.79,-305 135.79,-299 135.79,-293 135.79,-293 135.79,-115 135.79,-115 135.79,-109 141.79,-103 147.79,-103"/>
<text text-anchor="middle" x="199" y="-289.8" font-family="Times,serif" font-size="14.00">MembersController</text>
<polyline fill="none" stroke="black" points="135.79,-283 262.21,-283 "/>
<text text-anchor="start" x="143.79" y="-267.8" font-family="Times,serif" font-size="14.00">index</text>
<text text-anchor="start" x="143.79" y="-253.8" font-family="Times,serif" font-size="14.00">destroy</text>
<text text-anchor="start" x="143.79" y="-239.8" font-family="Times,serif" font-size="14.00">edit</text>
<text text-anchor="start" x="143.79" y="-225.8" font-family="Times,serif" font-size="14.00">create</text>
<text text-anchor="start" x="143.79" y="-211.8" font-family="Times,serif" font-size="14.00">new</text>
<text text-anchor="start" x="143.79" y="-197.8" font-family="Times,serif" font-size="14.00">show</text>
<text text-anchor="start" x="143.79" y="-183.8" font-family="Times,serif" font-size="14.00">update</text>
<polyline fill="none" stroke="black" points="135.79,-177 262.21,-177 "/>
<polyline fill="none" stroke="black" points="135.79,-153 262.21,-153 "/>
<text text-anchor="start" x="143.79" y="-137.8" font-family="Times,serif" font-size="14.00">_layout</text>
<text text-anchor="start" x="143.79" y="-123.8" font-family="Times,serif" font-size="14.00">member_params</text>
<text text-anchor="start" x="143.79" y="-109.8" font-family="Times,serif" font-size="14.00">set_member</text>
</g>
<!-- ParticipantsController -->
<g id="node11" class="node"><title>ParticipantsController</title>
<path fill="none" stroke="black" d="M352.179,-341C352.179,-341 467.821,-341 467.821,-341 473.821,-341 479.821,-347 479.821,-353 479.821,-353 479.821,-421 479.821,-421 479.821,-427 473.821,-433 467.821,-433 467.821,-433 352.179,-433 352.179,-433 346.179,-433 340.179,-427 340.179,-421 340.179,-421 340.179,-353 340.179,-353 340.179,-347 346.179,-341 352.179,-341"/>
<text text-anchor="middle" x="410" y="-417.8" font-family="Times,serif" font-size="14.00">ParticipantsController</text>
<polyline fill="none" stroke="black" points="340.179,-411 479.821,-411 "/>
<polyline fill="none" stroke="black" points="340.179,-387 479.821,-387 "/>
<polyline fill="none" stroke="black" points="340.179,-363 479.821,-363 "/>
<text text-anchor="start" x="348.179" y="-347.8" font-family="Times,serif" font-size="14.00">_layout</text>
</g>
<!-- ProvidersController -->
<g id="node12" class="node"><title>ProvidersController</title>
<path fill="none" stroke="black" d="M46.3965,-375C46.3965,-375 149.604,-375 149.604,-375 155.604,-375 161.604,-381 161.604,-387 161.604,-387 161.604,-455 161.604,-455 161.604,-461 155.604,-467 149.604,-467 149.604,-467 46.3965,-467 46.3965,-467 40.3965,-467 34.3965,-461 34.3965,-455 34.3965,-455 34.3965,-387 34.3965,-387 34.3965,-381 40.3965,-375 46.3965,-375"/>
<text text-anchor="middle" x="98" y="-451.8" font-family="Times,serif" font-size="14.00">ProvidersController</text>
<polyline fill="none" stroke="black" points="34.3965,-445 161.604,-445 "/>
<polyline fill="none" stroke="black" points="34.3965,-421 161.604,-421 "/>
<polyline fill="none" stroke="black" points="34.3965,-397 161.604,-397 "/>
<text text-anchor="start" x="42.3965" y="-381.8" font-family="Times,serif" font-size="14.00">_layout</text>
</g>
<!-- ResultsController -->
<g id="node13" class="node"><title>ResultsController</title>
<path fill="none" stroke="black" d="M-158.386,-171C-158.386,-171 -67.6138,-171 -67.6138,-171 -61.6138,-171 -55.6138,-177 -55.6138,-183 -55.6138,-183 -55.6138,-361 -55.6138,-361 -55.6138,-367 -61.6138,-373 -67.6138,-373 -67.6138,-373 -158.386,-373 -158.386,-373 -164.386,-373 -170.386,-367 -170.386,-361 -170.386,-361 -170.386,-183 -170.386,-183 -170.386,-177 -164.386,-171 -158.386,-171"/>
<text text-anchor="middle" x="-113" y="-357.8" font-family="Times,serif" font-size="14.00">ResultsController</text>
<polyline fill="none" stroke="black" points="-170.386,-351 -55.6138,-351 "/>
<text text-anchor="start" x="-162.386" y="-335.8" font-family="Times,serif" font-size="14.00">index</text>
<text text-anchor="start" x="-162.386" y="-321.8" font-family="Times,serif" font-size="14.00">destroy</text>
<text text-anchor="start" x="-162.386" y="-307.8" font-family="Times,serif" font-size="14.00">edit</text>
<text text-anchor="start" x="-162.386" y="-293.8" font-family="Times,serif" font-size="14.00">create</text>
<text text-anchor="start" x="-162.386" y="-279.8" font-family="Times,serif" font-size="14.00">new</text>
<text text-anchor="start" x="-162.386" y="-265.8" font-family="Times,serif" font-size="14.00">show</text>
<text text-anchor="start" x="-162.386" y="-251.8" font-family="Times,serif" font-size="14.00">update</text>
<polyline fill="none" stroke="black" points="-170.386,-245 -55.6138,-245 "/>
<polyline fill="none" stroke="black" points="-170.386,-221 -55.6138,-221 "/>
<text text-anchor="start" x="-162.386" y="-205.8" font-family="Times,serif" font-size="14.00">_layout</text>
<text text-anchor="start" x="-162.386" y="-191.8" font-family="Times,serif" font-size="14.00">result_params</text>
<text text-anchor="start" x="-162.386" y="-177.8" font-family="Times,serif" font-size="14.00">set_result</text>
</g>
<!-- RolesController -->
<g id="node14" class="node"><title>RolesController</title>
<path fill="none" stroke="black" d="M-242.717,254C-242.717,254 -161.283,254 -161.283,254 -155.283,254 -149.283,248 -149.283,242 -149.283,242 -149.283,64 -149.283,64 -149.283,58 -155.283,52 -161.283,52 -161.283,52 -242.717,52 -242.717,52 -248.717,52 -254.717,58 -254.717,64 -254.717,64 -254.717,242 -254.717,242 -254.717,248 -248.717,254 -242.717,254"/>
<text text-anchor="middle" x="-202" y="67.2" font-family="Times,serif" font-size="14.00">RolesController</text>
<polyline fill="none" stroke="black" points="-254.717,74 -149.283,74 "/>
<text text-anchor="start" x="-246.717" y="89.2" font-family="Times,serif" font-size="14.00">index</text>
<text text-anchor="start" x="-246.717" y="103.2" font-family="Times,serif" font-size="14.00">destroy</text>
<text text-anchor="start" x="-246.717" y="117.2" font-family="Times,serif" font-size="14.00">edit</text>
<text text-anchor="start" x="-246.717" y="131.2" font-family="Times,serif" font-size="14.00">create</text>
<text text-anchor="start" x="-246.717" y="145.2" font-family="Times,serif" font-size="14.00">new</text>
<text text-anchor="start" x="-246.717" y="159.2" font-family="Times,serif" font-size="14.00">show</text>
<text text-anchor="start" x="-246.717" y="173.2" font-family="Times,serif" font-size="14.00">update</text>
<polyline fill="none" stroke="black" points="-254.717,180 -149.283,180 "/>
<polyline fill="none" stroke="black" points="-254.717,204 -149.283,204 "/>
<text text-anchor="start" x="-246.717" y="219.2" font-family="Times,serif" font-size="14.00">_layout</text>
<text text-anchor="start" x="-246.717" y="233.2" font-family="Times,serif" font-size="14.00">role_params</text>
<text text-anchor="start" x="-246.717" y="247.2" font-family="Times,serif" font-size="14.00">set_role</text>
</g>
<!-- SessionsController -->
<g id="node15" class="node"><title>SessionsController</title>
<path fill="none" stroke="black" d="M-260.207,16C-260.207,16 -143.793,16 -143.793,16 -137.793,16 -131.793,10 -131.793,4 -131.793,4 -131.793,-132 -131.793,-132 -131.793,-138 -137.793,-144 -143.793,-144 -143.793,-144 -260.207,-144 -260.207,-144 -266.207,-144 -272.207,-138 -272.207,-132 -272.207,-132 -272.207,4 -272.207,4 -272.207,10 -266.207,16 -260.207,16"/>
<text text-anchor="middle" x="-202" y="-128.8" font-family="Times,serif" font-size="14.00">SessionsController</text>
<polyline fill="none" stroke="black" points="-272.207,-122 -131.793,-122 "/>
<text text-anchor="start" x="-264.207" y="-106.8" font-family="Times,serif" font-size="14.00">authenticate</text>
<text text-anchor="start" x="-264.207" y="-92.8" font-family="Times,serif" font-size="14.00">callback</text>
<text text-anchor="start" x="-264.207" y="-78.8" font-family="Times,serif" font-size="14.00">cleanse_session</text>
<text text-anchor="start" x="-264.207" y="-64.8" font-family="Times,serif" font-size="14.00">destroy</text>
<text text-anchor="start" x="-264.207" y="-50.8" font-family="Times,serif" font-size="14.00">openid_connect_login</text>
<text text-anchor="start" x="-264.207" y="-36.8" font-family="Times,serif" font-size="14.00">public_keys_for</text>
<polyline fill="none" stroke="black" points="-272.207,-30 -131.793,-30 "/>
<polyline fill="none" stroke="black" points="-272.207,-6 -131.793,-6 "/>
<text text-anchor="start" x="-264.207" y="9.2" font-family="Times,serif" font-size="14.00">_layout</text>
</g>
<!-- SnomedctConceptsController -->
<g id="node16" class="node"><title>SnomedctConceptsController</title>
<path fill="none" stroke="black" d="M12.1792,339C12.1792,339 169.821,339 169.821,339 175.821,339 181.821,333 181.821,327 181.821,327 181.821,261 181.821,261 181.821,255 175.821,249 169.821,249 169.821,249 12.1792,249 12.1792,249 6.1792,249 0.179199,255 0.179199,261 0.179199,261 0.179199,327 0.179199,327 0.179199,333 6.1792,339 12.1792,339"/>
<text text-anchor="middle" x="91" y="264.2" font-family="Times,serif" font-size="14.00">SnomedctConceptsController</text>
<polyline fill="none" stroke="black" points="0.179199,271 181.821,271 "/>
<text text-anchor="start" x="8.1792" y="286.2" font-family="Times,serif" font-size="14.00">index</text>
<polyline fill="none" stroke="black" points="0.179199,293 181.821,293 "/>
<polyline fill="none" stroke="black" points="0.179199,317 181.821,317 "/>
<text text-anchor="start" x="8.1792" y="332.2" font-family="Times,serif" font-size="14.00">_layout</text>
</g>
<!-- SnomedctDescriptionsController -->
<g id="node17" class="node"><title>SnomedctDescriptionsController</title>
<path fill="none" stroke="black" d="M317.848,67C317.848,67 494.152,67 494.152,67 500.152,67 506.152,61 506.152,55 506.152,55 506.152,-13 506.152,-13 506.152,-19 500.152,-25 494.152,-25 494.152,-25 317.848,-25 317.848,-25 311.848,-25 305.848,-19 305.848,-13 305.848,-13 305.848,55 305.848,55 305.848,61 311.848,67 317.848,67"/>
<text text-anchor="middle" x="406" y="-9.8" font-family="Times,serif" font-size="14.00">SnomedctDescriptionsController</text>
<polyline fill="none" stroke="black" points="305.848,-3 506.152,-3 "/>
<polyline fill="none" stroke="black" points="305.848,21 506.152,21 "/>
<polyline fill="none" stroke="black" points="305.848,45 506.152,45 "/>
<text text-anchor="start" x="313.848" y="60.2" font-family="Times,serif" font-size="14.00">_layout</text>
</g>
<!-- UsersController -->
<g id="node18" class="node"><title>UsersController</title>
<path fill="none" stroke="black" d="M-378.714,152C-378.714,152 -297.286,152 -297.286,152 -291.286,152 -285.286,146 -285.286,140 -285.286,140 -285.286,60 -285.286,60 -285.286,54 -291.286,48 -297.286,48 -297.286,48 -378.714,48 -378.714,48 -384.714,48 -390.714,54 -390.714,60 -390.714,60 -390.714,140 -390.714,140 -390.714,146 -384.714,152 -378.714,152"/>
<text text-anchor="middle" x="-338" y="63.2" font-family="Times,serif" font-size="14.00">UsersController</text>
<polyline fill="none" stroke="black" points="-390.714,70 -285.286,70 "/>
<text text-anchor="start" x="-382.714" y="85.2" font-family="Times,serif" font-size="14.00">edit</text>
<text text-anchor="start" x="-382.714" y="99.2" font-family="Times,serif" font-size="14.00">index</text>
<polyline fill="none" stroke="black" points="-390.714,106 -285.286,106 "/>
<polyline fill="none" stroke="black" points="-390.714,130 -285.286,130 "/>
<text text-anchor="start" x="-382.714" y="145.2" font-family="Times,serif" font-size="14.00">_layout</text>
</g>
<!-- WelcomeController -->
<g id="node19" class="node"><title>WelcomeController</title>
<path fill="none" stroke="black" d="M-311.033,-324C-311.033,-324 -208.967,-324 -208.967,-324 -202.967,-324 -196.967,-330 -196.967,-336 -196.967,-336 -196.967,-430 -196.967,-430 -196.967,-436 -202.967,-442 -208.967,-442 -208.967,-442 -311.033,-442 -311.033,-442 -317.033,-442 -323.033,-436 -323.033,-430 -323.033,-430 -323.033,-336 -323.033,-336 -323.033,-330 -317.033,-324 -311.033,-324"/>
<text text-anchor="middle" x="-260" y="-426.8" font-family="Times,serif" font-size="14.00">WelcomeController</text>
<polyline fill="none" stroke="black" points="-323.033,-420 -196.967,-420 "/>
<text text-anchor="start" x="-315.033" y="-404.8" font-family="Times,serif" font-size="14.00">dashboard</text>
<text text-anchor="start" x="-315.033" y="-390.8" font-family="Times,serif" font-size="14.00">landing</text>
<text text-anchor="start" x="-315.033" y="-376.8" font-family="Times,serif" font-size="14.00">status</text>
<polyline fill="none" stroke="black" points="-323.033,-370 -196.967,-370 "/>
<polyline fill="none" stroke="black" points="-323.033,-346 -196.967,-346 "/>
<text text-anchor="start" x="-315.033" y="-330.8" font-family="Times,serif" font-size="14.00">_layout</text>
</g>
</g>
</svg>
