<?xml version="1.0" encoding="UTF-8" standalone="no"?>
<!DOCTYPE svg PUBLIC "-//W3C//DTD SVG 1.1//EN"
 "http://www.w3.org/Graphics/SVG/1.1/DTD/svg11.dtd">
<!-- Generated by graphviz version 2.38.0 (20140413.2041)
 -->
<!-- Title: controllers_diagram Pages: 1 -->
<svg width="836pt" height="869pt"
 viewBox="0.00 0.00 835.54 869.00" xmlns="http://www.w3.org/2000/svg" xmlns:xlink="http://www.w3.org/1999/xlink">
<g id="graph0" class="graph" transform="scale(1 1) rotate(0) translate(339.662 481.5)">
<title>controllers_diagram</title>
<polygon fill="none" stroke="none" points="-339.662,387.5 -339.662,-481.5 495.883,-481.5 495.883,387.5 -339.662,387.5"/>
<!-- _diagram_info -->
<g id="node1" class="node"><title>_diagram_info</title>
<text text-anchor="start" x="-104.45" y="164.9" font-family="Times,serif" font-size="13.00">Controllers diagram</text>
<text text-anchor="start" x="-104.45" y="177.9" font-family="Times,serif" font-size="13.00">Date: Jun 10 2016 &#45; 17:08</text>
<text text-anchor="start" x="-104.45" y="190.9" font-family="Times,serif" font-size="13.00">Migration version: 20160611000504</text>
<text text-anchor="start" x="-104.45" y="203.9" font-family="Times,serif" font-size="13.00">Generated by RailRoady 1.4.2</text>
<text text-anchor="start" x="-104.45" y="216.9" font-family="Times,serif" font-size="13.00">http://railroady.prestonlee.com</text>
</g>
<!-- ApplicationController -->
<g id="node2" class="node"><title>ApplicationController</title>
<path fill="none" stroke="black" d="M316.179,-257C316.179,-257 431.821,-257 431.821,-257 437.821,-257 443.821,-263 443.821,-269 443.821,-269 443.821,-337 443.821,-337 443.821,-343 437.821,-349 431.821,-349 431.821,-349 316.179,-349 316.179,-349 310.179,-349 304.179,-343 304.179,-337 304.179,-337 304.179,-269 304.179,-269 304.179,-263 310.179,-257 316.179,-257"/>
<text text-anchor="middle" x="374" y="-333.8" font-family="Times,serif" font-size="14.00">ApplicationController</text>
<polyline fill="none" stroke="black" points="304.179,-327 443.821,-327 "/>
<polyline fill="none" stroke="black" points="304.179,-303 443.821,-303 "/>
<polyline fill="none" stroke="black" points="304.179,-279 443.821,-279 "/>
<text text-anchor="start" x="312.179" y="-263.8" font-family="Times,serif" font-size="14.00">_layout</text>
</g>
<!-- CapabilitiesController -->
<g id="node3" class="node"><title>CapabilitiesController</title>
<path fill="none" stroke="black" d="M139.79,-113C139.79,-113 256.21,-113 256.21,-113 262.21,-113 268.21,-119 268.21,-125 268.21,-125 268.21,-303 268.21,-303 268.21,-309 262.21,-315 256.21,-315 256.21,-315 139.79,-315 139.79,-315 133.79,-315 127.79,-309 127.79,-303 127.79,-303 127.79,-125 127.79,-125 127.79,-119 133.79,-113 139.79,-113"/>
<text text-anchor="middle" x="198" y="-299.8" font-family="Times,serif" font-size="14.00">CapabilitiesController</text>
<polyline fill="none" stroke="black" points="127.79,-293 268.21,-293 "/>
<text text-anchor="start" x="135.79" y="-277.8" font-family="Times,serif" font-size="14.00">index</text>
<text text-anchor="start" x="135.79" y="-263.8" font-family="Times,serif" font-size="14.00">destroy</text>
<text text-anchor="start" x="135.79" y="-249.8" font-family="Times,serif" font-size="14.00">edit</text>
<text text-anchor="start" x="135.79" y="-235.8" font-family="Times,serif" font-size="14.00">create</text>
<text text-anchor="start" x="135.79" y="-221.8" font-family="Times,serif" font-size="14.00">new</text>
<text text-anchor="start" x="135.79" y="-207.8" font-family="Times,serif" font-size="14.00">show</text>
<text text-anchor="start" x="135.79" y="-193.8" font-family="Times,serif" font-size="14.00">update</text>
<polyline fill="none" stroke="black" points="127.79,-187 268.21,-187 "/>
<polyline fill="none" stroke="black" points="127.79,-163 268.21,-163 "/>
<text text-anchor="start" x="135.79" y="-147.8" font-family="Times,serif" font-size="14.00">_layout</text>
<text text-anchor="start" x="135.79" y="-133.8" font-family="Times,serif" font-size="14.00">capability_params</text>
<text text-anchor="start" x="135.79" y="-119.8" font-family="Times,serif" font-size="14.00">set_capability</text>
</g>
<!-- ClientsController -->
<g id="node4" class="node"><title>ClientsController</title>
<path fill="none" stroke="black" d="M332.393,319C332.393,319 421.607,319 421.607,319 427.607,319 433.607,313 433.607,307 433.607,307 433.607,227 433.607,227 433.607,221 427.607,215 421.607,215 421.607,215 332.393,215 332.393,215 326.393,215 320.393,221 320.393,227 320.393,227 320.393,307 320.393,307 320.393,313 326.393,319 332.393,319"/>
<text text-anchor="middle" x="377" y="230.2" font-family="Times,serif" font-size="14.00">ClientsController</text>
<polyline fill="none" stroke="black" points="320.393,237 433.607,237 "/>
<text text-anchor="start" x="328.393" y="252.2" font-family="Times,serif" font-size="14.00">index</text>
<text text-anchor="start" x="328.393" y="266.2" font-family="Times,serif" font-size="14.00">launch</text>
<polyline fill="none" stroke="black" points="320.393,273 433.607,273 "/>
<polyline fill="none" stroke="black" points="320.393,297 433.607,297 "/>
<text text-anchor="start" x="328.393" y="312.2" font-family="Times,serif" font-size="14.00">_layout</text>
</g>
<!-- ContextsController -->
<g id="node5" class="node"><title>ContextsController</title>
<path fill="none" stroke="black" d="M-323.662,-193C-323.662,-193 -224.338,-193 -224.338,-193 -218.338,-193 -212.338,-199 -212.338,-205 -212.338,-205 -212.338,-273 -212.338,-273 -212.338,-279 -218.338,-285 -224.338,-285 -224.338,-285 -323.662,-285 -323.662,-285 -329.662,-285 -335.662,-279 -335.662,-273 -335.662,-273 -335.662,-205 -335.662,-205 -335.662,-199 -329.662,-193 -323.662,-193"/>
<text text-anchor="middle" x="-274" y="-269.8" font-family="Times,serif" font-size="14.00">ContextsController</text>
<polyline fill="none" stroke="black" points="-335.662,-263 -212.338,-263 "/>
<polyline fill="none" stroke="black" points="-335.662,-239 -212.338,-239 "/>
<polyline fill="none" stroke="black" points="-335.662,-215 -212.338,-215 "/>
<text text-anchor="start" x="-327.662" y="-199.8" font-family="Times,serif" font-size="14.00">_layout</text>
</g>
<!-- EncountersController -->
<g id="node6" class="node"><title>EncountersController</title>
<path fill="none" stroke="black" d="M331.738,175C331.738,175 444.262,175 444.262,175 450.262,175 456.262,169 456.262,163 456.262,163 456.262,95 456.262,95 456.262,89 450.262,83 444.262,83 444.262,83 331.738,83 331.738,83 325.738,83 319.738,89 319.738,95 319.738,95 319.738,163 319.738,163 319.738,169 325.738,175 331.738,175"/>
<text text-anchor="middle" x="388" y="98.2" font-family="Times,serif" font-size="14.00">EncountersController</text>
<polyline fill="none" stroke="black" points="319.738,105 456.262,105 "/>
<polyline fill="none" stroke="black" points="319.738,129 456.262,129 "/>
<polyline fill="none" stroke="black" points="319.738,153 456.262,153 "/>
<text text-anchor="start" x="327.738" y="168.2" font-family="Times,serif" font-size="14.00">_layout</text>
</g>
<!-- GroupsController -->
<g id="node7" class="node"><title>GroupsController</title>
<path fill="none" stroke="black" d="M-4.38281,-145C-4.38281,-145 86.3828,-145 86.3828,-145 92.3828,-145 98.3828,-151 98.3828,-157 98.3828,-157 98.3828,-335 98.3828,-335 98.3828,-341 92.3828,-347 86.3828,-347 86.3828,-347 -4.38281,-347 -4.38281,-347 -10.3828,-347 -16.3828,-341 -16.3828,-335 -16.3828,-335 -16.3828,-157 -16.3828,-157 -16.3828,-151 -10.3828,-145 -4.38281,-145"/>
<text text-anchor="middle" x="41" y="-331.8" font-family="Times,serif" font-size="14.00">GroupsController</text>
<polyline fill="none" stroke="black" points="-16.3828,-325 98.3828,-325 "/>
<text text-anchor="start" x="-8.38281" y="-309.8" font-family="Times,serif" font-size="14.00">index</text>
<text text-anchor="start" x="-8.38281" y="-295.8" font-family="Times,serif" font-size="14.00">destroy</text>
<text text-anchor="start" x="-8.38281" y="-281.8" font-family="Times,serif" font-size="14.00">edit</text>
<text text-anchor="start" x="-8.38281" y="-267.8" font-family="Times,serif" font-size="14.00">create</text>
<text text-anchor="start" x="-8.38281" y="-253.8" font-family="Times,serif" font-size="14.00">new</text>
<text text-anchor="start" x="-8.38281" y="-239.8" font-family="Times,serif" font-size="14.00">show</text>
<text text-anchor="start" x="-8.38281" y="-225.8" font-family="Times,serif" font-size="14.00">update</text>
<polyline fill="none" stroke="black" points="-16.3828,-219 98.3828,-219 "/>
<polyline fill="none" stroke="black" points="-16.3828,-195 98.3828,-195 "/>
<text text-anchor="start" x="-8.38281" y="-179.8" font-family="Times,serif" font-size="14.00">_layout</text>
<text text-anchor="start" x="-8.38281" y="-165.8" font-family="Times,serif" font-size="14.00">group_params</text>
<text text-anchor="start" x="-8.38281" y="-151.8" font-family="Times,serif" font-size="14.00">set_group</text>
</g>
<!-- IdentitiesController -->
<g id="node8" class="node"><title>IdentitiesController</title>
<path fill="none" stroke="black" d="M60.1792,383C60.1792,383 161.821,383 161.821,383 167.821,383 173.821,377 173.821,371 173.821,371 173.821,305 173.821,305 173.821,299 167.821,293 161.821,293 161.821,293 60.1792,293 60.1792,293 54.1792,293 48.1792,299 48.1792,305 48.1792,305 48.1792,371 48.1792,371 48.1792,377 54.1792,383 60.1792,383"/>
<text text-anchor="middle" x="111" y="308.2" font-family="Times,serif" font-size="14.00">IdentitiesController</text>
<polyline fill="none" stroke="black" points="48.1792,315 173.821,315 "/>
<text text-anchor="start" x="56.1792" y="330.2" font-family="Times,serif" font-size="14.00">destroy</text>
<polyline fill="none" stroke="black" points="48.1792,337 173.821,337 "/>
<polyline fill="none" stroke="black" points="48.1792,361 173.821,361 "/>
<text text-anchor="start" x="56.1792" y="376.2" font-family="Times,serif" font-size="14.00">_layout</text>
</g>
<!-- IssuesController -->
<g id="node9" class="node"><title>IssuesController</title>
<path fill="none" stroke="black" d="M396.117,-385C396.117,-385 479.883,-385 479.883,-385 485.883,-385 491.883,-391 491.883,-397 491.883,-397 491.883,-465 491.883,-465 491.883,-471 485.883,-477 479.883,-477 479.883,-477 396.117,-477 396.117,-477 390.117,-477 384.117,-471 384.117,-465 384.117,-465 384.117,-397 384.117,-397 384.117,-391 390.117,-385 396.117,-385"/>
<text text-anchor="middle" x="438" y="-461.8" font-family="Times,serif" font-size="14.00">IssuesController</text>
<polyline fill="none" stroke="black" points="384.117,-455 491.883,-455 "/>
<polyline fill="none" stroke="black" points="384.117,-431 491.883,-431 "/>
<polyline fill="none" stroke="black" points="384.117,-407 491.883,-407 "/>
<text text-anchor="start" x="392.117" y="-391.8" font-family="Times,serif" font-size="14.00">_layout</text>
</g>
<!-- JwtController -->
<g id="node10" class="node"><title>JwtController</title>
<path fill="none" stroke="black" d="M140.193,127C140.193,127 283.807,127 283.807,127 289.807,127 295.807,121 295.807,115 295.807,115 295.807,-63 295.807,-63 295.807,-69 289.807,-75 283.807,-75 283.807,-75 140.193,-75 140.193,-75 134.193,-75 128.193,-69 128.193,-63 128.193,-63 128.193,115 128.193,115 128.193,121 134.193,127 140.193,127"/>
<text text-anchor="middle" x="212" y="-59.8" font-family="Times,serif" font-size="14.00">JwtController</text>
<polyline fill="none" stroke="black" points="128.193,-53 295.807,-53 "/>
<text text-anchor="start" x="136.193" y="-37.8" font-family="Times,serif" font-size="14.00">cors_preflight_check</text>
<text text-anchor="start" x="136.193" y="-23.8" font-family="Times,serif" font-size="14.00">current_user</text>
<text text-anchor="start" x="136.193" y="-9.8" font-family="Times,serif" font-size="14.00">current_user=</text>
<text text-anchor="start" x="136.193" y="4.2" font-family="Times,serif" font-size="14.00">ensure_json_request</text>
<polyline fill="none" stroke="black" points="128.193,11 295.807,11 "/>
<polyline fill="none" stroke="black" points="128.193,35 295.807,35 "/>
<text text-anchor="start" x="136.193" y="50.2" font-family="Times,serif" font-size="14.00">_layout</text>
<text text-anchor="start" x="136.193" y="64.2" font-family="Times,serif" font-size="14.00">after_sign_in_path_for</text>
<text text-anchor="start" x="136.193" y="78.2" font-family="Times,serif" font-size="14.00">authenticate_request</text>
<text text-anchor="start" x="136.193" y="92.2" font-family="Times,serif" font-size="14.00">decode_auth_token</text>
<text text-anchor="start" x="136.193" y="106.2" font-family="Times,serif" font-size="14.00">http_auth_header</text>
<text text-anchor="start" x="136.193" y="120.2" font-family="Times,serif" font-size="14.00">set_cors_response_headers</text>
</g>
<!-- LabsController -->
<g id="node11" class="node"><title>LabsController</title>
<path fill="none" stroke="black" d="M27.6206,-385C27.6206,-385 104.379,-385 104.379,-385 110.379,-385 116.379,-391 116.379,-397 116.379,-397 116.379,-465 116.379,-465 116.379,-471 110.379,-477 104.379,-477 104.379,-477 27.6206,-477 27.6206,-477 21.6206,-477 15.6206,-471 15.6206,-465 15.6206,-465 15.6206,-397 15.6206,-397 15.6206,-391 21.6206,-385 27.6206,-385"/>
<text text-anchor="middle" x="66" y="-461.8" font-family="Times,serif" font-size="14.00">LabsController</text>
<polyline fill="none" stroke="black" points="15.6206,-455 116.379,-455 "/>
<polyline fill="none" stroke="black" points="15.6206,-431 116.379,-431 "/>
<polyline fill="none" stroke="black" points="15.6206,-407 116.379,-407 "/>
<text text-anchor="start" x="23.6206" y="-391.8" font-family="Times,serif" font-size="14.00">_layout</text>
</g>
<!-- MembersController -->
<g id="node12" class="node"><title>MembersController</title>
<path fill="none" stroke="black" d="M-164.21,-177C-164.21,-177 -61.7896,-177 -61.7896,-177 -55.7896,-177 -49.7896,-183 -49.7896,-189 -49.7896,-189 -49.7896,-367 -49.7896,-367 -49.7896,-373 -55.7896,-379 -61.7896,-379 -61.7896,-379 -164.21,-379 -164.21,-379 -170.21,-379 -176.21,-373 -176.21,-367 -176.21,-367 -176.21,-189 -176.21,-189 -176.21,-183 -170.21,-177 -164.21,-177"/>
<text text-anchor="middle" x="-113" y="-363.8" font-family="Times,serif" font-size="14.00">MembersController</text>
<polyline fill="none" stroke="black" points="-176.21,-357 -49.7896,-357 "/>
<text text-anchor="start" x="-168.21" y="-341.8" font-family="Times,serif" font-size="14.00">index</text>
<text text-anchor="start" x="-168.21" y="-327.8" font-family="Times,serif" font-size="14.00">destroy</text>
<text text-anchor="start" x="-168.21" y="-313.8" font-family="Times,serif" font-size="14.00">edit</text>
<text text-anchor="start" x="-168.21" y="-299.8" font-family="Times,serif" font-size="14.00">create</text>
<text text-anchor="start" x="-168.21" y="-285.8" font-family="Times,serif" font-size="14.00">new</text>
<text text-anchor="start" x="-168.21" y="-271.8" font-family="Times,serif" font-size="14.00">show</text>
<text text-anchor="start" x="-168.21" y="-257.8" font-family="Times,serif" font-size="14.00">update</text>
<polyline fill="none" stroke="black" points="-176.21,-251 -49.7896,-251 "/>
<polyline fill="none" stroke="black" points="-176.21,-227 -49.7896,-227 "/>
<text text-anchor="start" x="-168.21" y="-211.8" font-family="Times,serif" font-size="14.00">_layout</text>
<text text-anchor="start" x="-168.21" y="-197.8" font-family="Times,serif" font-size="14.00">member_params</text>
<text text-anchor="start" x="-168.21" y="-183.8" font-family="Times,serif" font-size="14.00">set_member</text>
</g>
<!-- OpenIdConnectController -->
<g id="node13" class="node"><title>OpenIdConnectController</title>
<path fill="none" stroke="black" d="M-99.5176,111C-99.5176,111 77.5176,111 77.5176,111 83.5176,111 89.5176,105 89.5176,99 89.5176,99 89.5176,-93 89.5176,-93 89.5176,-99 83.5176,-105 77.5176,-105 77.5176,-105 -99.5176,-105 -99.5176,-105 -105.518,-105 -111.518,-99 -111.518,-93 -111.518,-93 -111.518,99 -111.518,99 -111.518,105 -105.518,111 -99.5176,111"/>
<text text-anchor="middle" x="-11" y="-89.8" font-family="Times,serif" font-size="14.00">OpenIdConnectController</text>
<polyline fill="none" stroke="black" points="-111.518,-83 89.5176,-83 "/>
<text text-anchor="start" x="-103.518" y="-67.8" font-family="Times,serif" font-size="14.00">unauthenticate!</text>
<text text-anchor="start" x="-103.518" y="-53.8" font-family="Times,serif" font-size="14.00">cors_preflight_check</text>
<text text-anchor="start" x="-103.518" y="-39.8" font-family="Times,serif" font-size="14.00">cors_set_access_control_headers</text>
<text text-anchor="start" x="-103.518" y="-25.8" font-family="Times,serif" font-size="14.00">current_identity</text>
<text text-anchor="start" x="-103.518" y="-11.8" font-family="Times,serif" font-size="14.00">current_user</text>
<text text-anchor="start" x="-103.518" y="2.2" font-family="Times,serif" font-size="14.00">new_nonce</text>
<text text-anchor="start" x="-103.518" y="16.2" font-family="Times,serif" font-size="14.00">set_options_from</text>
<text text-anchor="start" x="-103.518" y="30.2" font-family="Times,serif" font-size="14.00">set_user_from_session</text>
<text text-anchor="start" x="-103.518" y="44.2" font-family="Times,serif" font-size="14.00">stored_nonce</text>
<text text-anchor="start" x="-103.518" y="58.2" font-family="Times,serif" font-size="14.00">build_oauth_request</text>
<polyline fill="none" stroke="black" points="-111.518,65 89.5176,65 "/>
<polyline fill="none" stroke="black" points="-111.518,89 89.5176,89 "/>
<text text-anchor="start" x="-103.518" y="104.2" font-family="Times,serif" font-size="14.00">_layout</text>
</g>
<!-- ParticipantsController -->
<g id="node14" class="node"><title>ParticipantsController</title>
<path fill="none" stroke="black" d="M332.179,47C332.179,47 447.821,47 447.821,47 453.821,47 459.821,41 459.821,35 459.821,35 459.821,-33 459.821,-33 459.821,-39 453.821,-45 447.821,-45 447.821,-45 332.179,-45 332.179,-45 326.179,-45 320.179,-39 320.179,-33 320.179,-33 320.179,35 320.179,35 320.179,41 326.179,47 332.179,47"/>
<text text-anchor="middle" x="390" y="-29.8" font-family="Times,serif" font-size="14.00">ParticipantsController</text>
<polyline fill="none" stroke="black" points="320.179,-23 459.821,-23 "/>
<polyline fill="none" stroke="black" points="320.179,1 459.821,1 "/>
<polyline fill="none" stroke="black" points="320.179,25 459.821,25 "/>
<text text-anchor="start" x="328.179" y="40.2" font-family="Times,serif" font-size="14.00">_layout</text>
</g>
<!-- ProblemsController -->
<g id="node15" class="node"><title>ProblemsController</title>
<path fill="none" stroke="black" d="M-100.217,351C-100.217,351 2.21729,351 2.21729,351 8.21729,351 14.2173,345 14.2173,339 14.2173,339 14.2173,271 14.2173,271 14.2173,265 8.21729,259 2.21729,259 2.21729,259 -100.217,259 -100.217,259 -106.217,259 -112.217,265 -112.217,271 -112.217,271 -112.217,339 -112.217,339 -112.217,345 -106.217,351 -100.217,351"/>
<text text-anchor="middle" x="-49" y="274.2" font-family="Times,serif" font-size="14.00">ProblemsController</text>
<polyline fill="none" stroke="black" points="-112.217,281 14.2173,281 "/>
<polyline fill="none" stroke="black" points="-112.217,305 14.2173,305 "/>
<polyline fill="none" stroke="black" points="-112.217,329 14.2173,329 "/>
<text text-anchor="start" x="-104.217" y="344.2" font-family="Times,serif" font-size="14.00">_layout</text>
</g>
<!-- ProvidersController -->
<g id="node16" class="node"><title>ProvidersController</title>
<path fill="none" stroke="black" d="M156.396,-353C156.396,-353 259.604,-353 259.604,-353 265.604,-353 271.604,-359 271.604,-365 271.604,-365 271.604,-433 271.604,-433 271.604,-439 265.604,-445 259.604,-445 259.604,-445 156.396,-445 156.396,-445 150.396,-445 144.396,-439 144.396,-433 144.396,-433 144.396,-365 144.396,-365 144.396,-359 150.396,-353 156.396,-353"/>
<text text-anchor="middle" x="208" y="-429.8" font-family="Times,serif" font-size="14.00">ProvidersController</text>
<polyline fill="none" stroke="black" points="144.396,-423 271.604,-423 "/>
<polyline fill="none" stroke="black" points="144.396,-399 271.604,-399 "/>
<polyline fill="none" stroke="black" points="144.396,-375 271.604,-375 "/>
<text text-anchor="start" x="152.396" y="-359.8" font-family="Times,serif" font-size="14.00">_layout</text>
</g>
<!-- RolesController -->
<g id="node17" class="node"><title>RolesController</title>
<path fill="none" stroke="black" d="M-243.717,255C-243.717,255 -162.283,255 -162.283,255 -156.283,255 -150.283,249 -150.283,243 -150.283,243 -150.283,65 -150.283,65 -150.283,59 -156.283,53 -162.283,53 -162.283,53 -243.717,53 -243.717,53 -249.717,53 -255.717,59 -255.717,65 -255.717,65 -255.717,243 -255.717,243 -255.717,249 -249.717,255 -243.717,255"/>
<text text-anchor="middle" x="-203" y="68.2" font-family="Times,serif" font-size="14.00">RolesController</text>
<polyline fill="none" stroke="black" points="-255.717,75 -150.283,75 "/>
<text text-anchor="start" x="-247.717" y="90.2" font-family="Times,serif" font-size="14.00">index</text>
<text text-anchor="start" x="-247.717" y="104.2" font-family="Times,serif" font-size="14.00">destroy</text>
<text text-anchor="start" x="-247.717" y="118.2" font-family="Times,serif" font-size="14.00">edit</text>
<text text-anchor="start" x="-247.717" y="132.2" font-family="Times,serif" font-size="14.00">create</text>
<text text-anchor="start" x="-247.717" y="146.2" font-family="Times,serif" font-size="14.00">new</text>
<text text-anchor="start" x="-247.717" y="160.2" font-family="Times,serif" font-size="14.00">show</text>
<text text-anchor="start" x="-247.717" y="174.2" font-family="Times,serif" font-size="14.00">update</text>
<polyline fill="none" stroke="black" points="-255.717,181 -150.283,181 "/>
<polyline fill="none" stroke="black" points="-255.717,205 -150.283,205 "/>
<text text-anchor="start" x="-247.717" y="220.2" font-family="Times,serif" font-size="14.00">_layout</text>
<text text-anchor="start" x="-247.717" y="234.2" font-family="Times,serif" font-size="14.00">role_params</text>
<text text-anchor="start" x="-247.717" y="248.2" font-family="Times,serif" font-size="14.00">set_role</text>
</g>
<!-- SessionsController -->
<g id="node18" class="node"><title>SessionsController</title>
<path fill="none" stroke="black" d="M-276.207,15C-276.207,15 -159.793,15 -159.793,15 -153.793,15 -147.793,9 -147.793,3 -147.793,3 -147.793,-133 -147.793,-133 -147.793,-139 -153.793,-145 -159.793,-145 -159.793,-145 -276.207,-145 -276.207,-145 -282.207,-145 -288.207,-139 -288.207,-133 -288.207,-133 -288.207,3 -288.207,3 -288.207,9 -282.207,15 -276.207,15"/>
<text text-anchor="middle" x="-218" y="-129.8" font-family="Times,serif" font-size="14.00">SessionsController</text>
<polyline fill="none" stroke="black" points="-288.207,-123 -147.793,-123 "/>
<text text-anchor="start" x="-280.207" y="-107.8" font-family="Times,serif" font-size="14.00">authenticate</text>
<text text-anchor="start" x="-280.207" y="-93.8" font-family="Times,serif" font-size="14.00">callback</text>
<text text-anchor="start" x="-280.207" y="-79.8" font-family="Times,serif" font-size="14.00">cleanse_session</text>
<text text-anchor="start" x="-280.207" y="-65.8" font-family="Times,serif" font-size="14.00">destroy</text>
<text text-anchor="start" x="-280.207" y="-51.8" font-family="Times,serif" font-size="14.00">openid_connect_login</text>
<text text-anchor="start" x="-280.207" y="-37.8" font-family="Times,serif" font-size="14.00">public_keys_for</text>
<polyline fill="none" stroke="black" points="-288.207,-31 -147.793,-31 "/>
<polyline fill="none" stroke="black" points="-288.207,-7 -147.793,-7 "/>
<text text-anchor="start" x="-280.207" y="8.2" font-family="Times,serif" font-size="14.00">_layout</text>
</g>
<!-- Smart::LaunchController -->
<g id="node19" class="node"><title>Smart::LaunchController</title>
<path fill="none" stroke="black" d="M139.627,255C139.627,255 272.373,255 272.373,255 278.373,255 284.373,249 284.373,243 284.373,243 284.373,177 284.373,177 284.373,171 278.373,165 272.373,165 272.373,165 139.627,165 139.627,165 133.627,165 127.627,171 127.627,177 127.627,177 127.627,243 127.627,243 127.627,249 133.627,255 139.627,255"/>
<text text-anchor="middle" x="206" y="180.2" font-family="Times,serif" font-size="14.00">Smart::LaunchController</text>
<polyline fill="none" stroke="black" points="127.627,187 284.373,187 "/>
<text text-anchor="start" x="135.627" y="202.2" font-family="Times,serif" font-size="14.00">launch</text>
<polyline fill="none" stroke="black" points="127.627,209 284.373,209 "/>
<polyline fill="none" stroke="black" points="127.627,233 284.373,233 "/>
<text text-anchor="start" x="135.627" y="248.2" font-family="Times,serif" font-size="14.00">_layout</text>
</g>
<!-- UsersController -->
<g id="node20" class="node"><title>UsersController</title>
<path fill="none" stroke="black" d="M-307.714,-321C-307.714,-321 -226.286,-321 -226.286,-321 -220.286,-321 -214.286,-327 -214.286,-333 -214.286,-333 -214.286,-413 -214.286,-413 -214.286,-419 -220.286,-425 -226.286,-425 -226.286,-425 -307.714,-425 -307.714,-425 -313.714,-425 -319.714,-419 -319.714,-413 -319.714,-413 -319.714,-333 -319.714,-333 -319.714,-327 -313.714,-321 -307.714,-321"/>
<text text-anchor="middle" x="-267" y="-409.8" font-family="Times,serif" font-size="14.00">UsersController</text>
<polyline fill="none" stroke="black" points="-319.714,-403 -214.286,-403 "/>
<text text-anchor="start" x="-311.714" y="-387.8" font-family="Times,serif" font-size="14.00">edit</text>
<text text-anchor="start" x="-311.714" y="-373.8" font-family="Times,serif" font-size="14.00">index</text>
<polyline fill="none" stroke="black" points="-319.714,-367 -214.286,-367 "/>
<polyline fill="none" stroke="black" points="-319.714,-343 -214.286,-343 "/>
<text text-anchor="start" x="-311.714" y="-327.8" font-family="Times,serif" font-size="14.00">_layout</text>
</g>
<!-- WelcomeController -->
<g id="node21" class="node"><title>WelcomeController</title>
<path fill="none" stroke="black" d="M315.967,-113C315.967,-113 418.033,-113 418.033,-113 424.033,-113 430.033,-119 430.033,-125 430.033,-125 430.033,-205 430.033,-205 430.033,-211 424.033,-217 418.033,-217 418.033,-217 315.967,-217 315.967,-217 309.967,-217 303.967,-211 303.967,-205 303.967,-205 303.967,-125 303.967,-125 303.967,-119 309.967,-113 315.967,-113"/>
<text text-anchor="middle" x="367" y="-201.8" font-family="Times,serif" font-size="14.00">WelcomeController</text>
<polyline fill="none" stroke="black" points="303.967,-195 430.033,-195 "/>
<text text-anchor="start" x="311.967" y="-179.8" font-family="Times,serif" font-size="14.00">dashboard</text>
<text text-anchor="start" x="311.967" y="-165.8" font-family="Times,serif" font-size="14.00">landing</text>
<polyline fill="none" stroke="black" points="303.967,-159 430.033,-159 "/>
<polyline fill="none" stroke="black" points="303.967,-135 430.033,-135 "/>
<text text-anchor="start" x="311.967" y="-119.8" font-family="Times,serif" font-size="14.00">_layout</text>
</g>
</g>
</svg>
