<?xml version="1.0" encoding="UTF-8" standalone="no"?>
<!DOCTYPE svg PUBLIC "-//W3C//DTD SVG 1.1//EN"
 "http://www.w3.org/Graphics/SVG/1.1/DTD/svg11.dtd">
<!-- Generated by graphviz version 2.38.0 (20140413.2041)
 -->
<!-- Title: controllers_diagram Pages: 1 -->
<svg width="966pt" height="908pt"
 viewBox="0.00 0.00 965.60 908.00" xmlns="http://www.w3.org/2000/svg" xmlns:xlink="http://www.w3.org/1999/xlink">
<g id="graph0" class="graph" transform="scale(1 1) rotate(0) translate(411.714 530.5)">
<title>controllers_diagram</title>
<polygon fill="none" stroke="none" points="-411.714,377.5 -411.714,-530.5 553.883,-530.5 553.883,377.5 -411.714,377.5"/>
<!-- _diagram_info -->
<g id="node1" class="node"><title>_diagram_info</title>
<text text-anchor="start" x="-93.6877" y="161.9" font-family="Times,serif" font-size="13.00">Controllers diagram</text>
<text text-anchor="start" x="-93.6877" y="174.9" font-family="Times,serif" font-size="13.00">Date: Jun 16 2016 &#45; 14:22</text>
<text text-anchor="start" x="-93.6877" y="187.9" font-family="Times,serif" font-size="13.00">Migration version: 20160616191450</text>
<text text-anchor="start" x="-93.6877" y="200.9" font-family="Times,serif" font-size="13.00">Generated by RailRoady 1.4.2</text>
<text text-anchor="start" x="-93.6877" y="213.9" font-family="Times,serif" font-size="13.00">http://railroady.prestonlee.com</text>
</g>
<!-- ApplicationController -->
<g id="node2" class="node"><title>ApplicationController</title>
<path fill="none" stroke="black" d="M182.179,-341C182.179,-341 297.821,-341 297.821,-341 303.821,-341 309.821,-347 309.821,-353 309.821,-353 309.821,-421 309.821,-421 309.821,-427 303.821,-433 297.821,-433 297.821,-433 182.179,-433 182.179,-433 176.179,-433 170.179,-427 170.179,-421 170.179,-421 170.179,-353 170.179,-353 170.179,-347 176.179,-341 182.179,-341"/>
<text text-anchor="middle" x="240" y="-417.8" font-family="Times,serif" font-size="14.00">ApplicationController</text>
<polyline fill="none" stroke="black" points="170.179,-411 309.821,-411 "/>
<polyline fill="none" stroke="black" points="170.179,-387 309.821,-387 "/>
<polyline fill="none" stroke="black" points="170.179,-363 309.821,-363 "/>
<text text-anchor="start" x="178.179" y="-347.8" font-family="Times,serif" font-size="14.00">_layout</text>
</g>
<!-- CapabilitiesController -->
<g id="node3" class="node"><title>CapabilitiesController</title>
<path fill="none" stroke="black" d="M147.79,-103C147.79,-103 264.21,-103 264.21,-103 270.21,-103 276.21,-109 276.21,-115 276.21,-115 276.21,-293 276.21,-293 276.21,-299 270.21,-305 264.21,-305 264.21,-305 147.79,-305 147.79,-305 141.79,-305 135.79,-299 135.79,-293 135.79,-293 135.79,-115 135.79,-115 135.79,-109 141.79,-103 147.79,-103"/>
<text text-anchor="middle" x="206" y="-289.8" font-family="Times,serif" font-size="14.00">CapabilitiesController</text>
<polyline fill="none" stroke="black" points="135.79,-283 276.21,-283 "/>
<text text-anchor="start" x="143.79" y="-267.8" font-family="Times,serif" font-size="14.00">index</text>
<text text-anchor="start" x="143.79" y="-253.8" font-family="Times,serif" font-size="14.00">destroy</text>
<text text-anchor="start" x="143.79" y="-239.8" font-family="Times,serif" font-size="14.00">edit</text>
<text text-anchor="start" x="143.79" y="-225.8" font-family="Times,serif" font-size="14.00">create</text>
<text text-anchor="start" x="143.79" y="-211.8" font-family="Times,serif" font-size="14.00">new</text>
<text text-anchor="start" x="143.79" y="-197.8" font-family="Times,serif" font-size="14.00">show</text>
<text text-anchor="start" x="143.79" y="-183.8" font-family="Times,serif" font-size="14.00">update</text>
<polyline fill="none" stroke="black" points="135.79,-177 276.21,-177 "/>
<polyline fill="none" stroke="black" points="135.79,-153 276.21,-153 "/>
<text text-anchor="start" x="143.79" y="-137.8" font-family="Times,serif" font-size="14.00">_layout</text>
<text text-anchor="start" x="143.79" y="-123.8" font-family="Times,serif" font-size="14.00">capability_params</text>
<text text-anchor="start" x="143.79" y="-109.8" font-family="Times,serif" font-size="14.00">set_capability</text>
</g>
<!-- ClientsController -->
<g id="node4" class="node"><title>ClientsController</title>
<path fill="none" stroke="black" d="M-395.607,152C-395.607,152 -306.393,152 -306.393,152 -300.393,152 -294.393,146 -294.393,140 -294.393,140 -294.393,60 -294.393,60 -294.393,54 -300.393,48 -306.393,48 -306.393,48 -395.607,48 -395.607,48 -401.607,48 -407.607,54 -407.607,60 -407.607,60 -407.607,140 -407.607,140 -407.607,146 -401.607,152 -395.607,152"/>
<text text-anchor="middle" x="-351" y="63.2" font-family="Times,serif" font-size="14.00">ClientsController</text>
<polyline fill="none" stroke="black" points="-407.607,70 -294.393,70 "/>
<text text-anchor="start" x="-399.607" y="85.2" font-family="Times,serif" font-size="14.00">index</text>
<text text-anchor="start" x="-399.607" y="99.2" font-family="Times,serif" font-size="14.00">launch</text>
<polyline fill="none" stroke="black" points="-407.607,106 -294.393,106 "/>
<polyline fill="none" stroke="black" points="-407.607,130 -294.393,130 "/>
<text text-anchor="start" x="-399.607" y="145.2" font-family="Times,serif" font-size="14.00">_layout</text>
</g>
<!-- ContextsController -->
<g id="node5" class="node"><title>ContextsController</title>
<path fill="none" stroke="black" d="M-140.662,-409C-140.662,-409 -41.3379,-409 -41.3379,-409 -35.3379,-409 -29.3379,-415 -29.3379,-421 -29.3379,-421 -29.3379,-489 -29.3379,-489 -29.3379,-495 -35.3379,-501 -41.3379,-501 -41.3379,-501 -140.662,-501 -140.662,-501 -146.662,-501 -152.662,-495 -152.662,-489 -152.662,-489 -152.662,-421 -152.662,-421 -152.662,-415 -146.662,-409 -140.662,-409"/>
<text text-anchor="middle" x="-91" y="-485.8" font-family="Times,serif" font-size="14.00">ContextsController</text>
<polyline fill="none" stroke="black" points="-152.662,-479 -29.3379,-479 "/>
<polyline fill="none" stroke="black" points="-152.662,-455 -29.3379,-455 "/>
<polyline fill="none" stroke="black" points="-152.662,-431 -29.3379,-431 "/>
<text text-anchor="start" x="-144.662" y="-415.8" font-family="Times,serif" font-size="14.00">_layout</text>
</g>
<!-- FociController -->
<g id="node6" class="node"><title>FociController</title>
<path fill="none" stroke="black" d="M351.783,339C351.783,339 426.217,339 426.217,339 432.217,339 438.217,333 438.217,327 438.217,327 438.217,149 438.217,149 438.217,143 432.217,137 426.217,137 426.217,137 351.783,137 351.783,137 345.783,137 339.783,143 339.783,149 339.783,149 339.783,327 339.783,327 339.783,333 345.783,339 351.783,339"/>
<text text-anchor="middle" x="389" y="152.2" font-family="Times,serif" font-size="14.00">FociController</text>
<polyline fill="none" stroke="black" points="339.783,159 438.217,159 "/>
<text text-anchor="start" x="347.783" y="174.2" font-family="Times,serif" font-size="14.00">index</text>
<text text-anchor="start" x="347.783" y="188.2" font-family="Times,serif" font-size="14.00">destroy</text>
<text text-anchor="start" x="347.783" y="202.2" font-family="Times,serif" font-size="14.00">edit</text>
<text text-anchor="start" x="347.783" y="216.2" font-family="Times,serif" font-size="14.00">create</text>
<text text-anchor="start" x="347.783" y="230.2" font-family="Times,serif" font-size="14.00">new</text>
<text text-anchor="start" x="347.783" y="244.2" font-family="Times,serif" font-size="14.00">show</text>
<text text-anchor="start" x="347.783" y="258.2" font-family="Times,serif" font-size="14.00">update</text>
<polyline fill="none" stroke="black" points="339.783,265 438.217,265 "/>
<polyline fill="none" stroke="black" points="339.783,289 438.217,289 "/>
<text text-anchor="start" x="347.783" y="304.2" font-family="Times,serif" font-size="14.00">_layout</text>
<text text-anchor="start" x="347.783" y="318.2" font-family="Times,serif" font-size="14.00">focus_params</text>
<text text-anchor="start" x="347.783" y="332.2" font-family="Times,serif" font-size="14.00">set_focus</text>
</g>
<!-- GroupsController -->
<g id="node7" class="node"><title>GroupsController</title>
<path fill="none" stroke="black" d="M-243.383,254C-243.383,254 -152.617,254 -152.617,254 -146.617,254 -140.617,248 -140.617,242 -140.617,242 -140.617,64 -140.617,64 -140.617,58 -146.617,52 -152.617,52 -152.617,52 -243.383,52 -243.383,52 -249.383,52 -255.383,58 -255.383,64 -255.383,64 -255.383,242 -255.383,242 -255.383,248 -249.383,254 -243.383,254"/>
<text text-anchor="middle" x="-198" y="67.2" font-family="Times,serif" font-size="14.00">GroupsController</text>
<polyline fill="none" stroke="black" points="-255.383,74 -140.617,74 "/>
<text text-anchor="start" x="-247.383" y="89.2" font-family="Times,serif" font-size="14.00">index</text>
<text text-anchor="start" x="-247.383" y="103.2" font-family="Times,serif" font-size="14.00">destroy</text>
<text text-anchor="start" x="-247.383" y="117.2" font-family="Times,serif" font-size="14.00">edit</text>
<text text-anchor="start" x="-247.383" y="131.2" font-family="Times,serif" font-size="14.00">create</text>
<text text-anchor="start" x="-247.383" y="145.2" font-family="Times,serif" font-size="14.00">new</text>
<text text-anchor="start" x="-247.383" y="159.2" font-family="Times,serif" font-size="14.00">show</text>
<text text-anchor="start" x="-247.383" y="173.2" font-family="Times,serif" font-size="14.00">update</text>
<polyline fill="none" stroke="black" points="-255.383,180 -140.617,180 "/>
<polyline fill="none" stroke="black" points="-255.383,204 -140.617,204 "/>
<text text-anchor="start" x="-247.383" y="219.2" font-family="Times,serif" font-size="14.00">_layout</text>
<text text-anchor="start" x="-247.383" y="233.2" font-family="Times,serif" font-size="14.00">group_params</text>
<text text-anchor="start" x="-247.383" y="247.2" font-family="Times,serif" font-size="14.00">set_group</text>
</g>
<!-- IdentitiesController -->
<g id="node8" class="node"><title>IdentitiesController</title>
<path fill="none" stroke="black" d="M-361.821,373C-361.821,373 -260.179,373 -260.179,373 -254.179,373 -248.179,367 -248.179,361 -248.179,361 -248.179,295 -248.179,295 -248.179,289 -254.179,283 -260.179,283 -260.179,283 -361.821,283 -361.821,283 -367.821,283 -373.821,289 -373.821,295 -373.821,295 -373.821,361 -373.821,361 -373.821,367 -367.821,373 -361.821,373"/>
<text text-anchor="middle" x="-311" y="298.2" font-family="Times,serif" font-size="14.00">IdentitiesController</text>
<polyline fill="none" stroke="black" points="-373.821,305 -248.179,305 "/>
<text text-anchor="start" x="-365.821" y="320.2" font-family="Times,serif" font-size="14.00">destroy</text>
<polyline fill="none" stroke="black" points="-373.821,327 -248.179,327 "/>
<polyline fill="none" stroke="black" points="-373.821,351 -248.179,351 "/>
<text text-anchor="start" x="-365.821" y="366.2" font-family="Times,serif" font-size="14.00">_layout</text>
</g>
<!-- InterestsController -->
<g id="node9" class="node"><title>InterestsController</title>
<path fill="none" stroke="black" d="M-158.486,-171C-158.486,-171 -61.5137,-171 -61.5137,-171 -55.5137,-171 -49.5137,-177 -49.5137,-183 -49.5137,-183 -49.5137,-361 -49.5137,-361 -49.5137,-367 -55.5137,-373 -61.5137,-373 -61.5137,-373 -158.486,-373 -158.486,-373 -164.486,-373 -170.486,-367 -170.486,-361 -170.486,-361 -170.486,-183 -170.486,-183 -170.486,-177 -164.486,-171 -158.486,-171"/>
<text text-anchor="middle" x="-110" y="-357.8" font-family="Times,serif" font-size="14.00">InterestsController</text>
<polyline fill="none" stroke="black" points="-170.486,-351 -49.5137,-351 "/>
<text text-anchor="start" x="-162.486" y="-335.8" font-family="Times,serif" font-size="14.00">index</text>
<text text-anchor="start" x="-162.486" y="-321.8" font-family="Times,serif" font-size="14.00">destroy</text>
<text text-anchor="start" x="-162.486" y="-307.8" font-family="Times,serif" font-size="14.00">edit</text>
<text text-anchor="start" x="-162.486" y="-293.8" font-family="Times,serif" font-size="14.00">create</text>
<text text-anchor="start" x="-162.486" y="-279.8" font-family="Times,serif" font-size="14.00">new</text>
<text text-anchor="start" x="-162.486" y="-265.8" font-family="Times,serif" font-size="14.00">show</text>
<text text-anchor="start" x="-162.486" y="-251.8" font-family="Times,serif" font-size="14.00">update</text>
<polyline fill="none" stroke="black" points="-170.486,-245 -49.5137,-245 "/>
<polyline fill="none" stroke="black" points="-170.486,-221 -49.5137,-221 "/>
<text text-anchor="start" x="-162.486" y="-205.8" font-family="Times,serif" font-size="14.00">_layout</text>
<text text-anchor="start" x="-162.486" y="-191.8" font-family="Times,serif" font-size="14.00">interest_params</text>
<text text-anchor="start" x="-162.486" y="-177.8" font-family="Times,serif" font-size="14.00">set_interest</text>
</g>
<!-- IssuesController -->
<g id="node10" class="node"><title>IssuesController</title>
<path fill="none" stroke="black" d="M454.117,-18C454.117,-18 537.883,-18 537.883,-18 543.883,-18 549.883,-24 549.883,-30 549.883,-30 549.883,-98 549.883,-98 549.883,-104 543.883,-110 537.883,-110 537.883,-110 454.117,-110 454.117,-110 448.117,-110 442.117,-104 442.117,-98 442.117,-98 442.117,-30 442.117,-30 442.117,-24 448.117,-18 454.117,-18"/>
<text text-anchor="middle" x="496" y="-94.8" font-family="Times,serif" font-size="14.00">IssuesController</text>
<polyline fill="none" stroke="black" points="442.117,-88 549.883,-88 "/>
<polyline fill="none" stroke="black" points="442.117,-64 549.883,-64 "/>
<polyline fill="none" stroke="black" points="442.117,-40 549.883,-40 "/>
<text text-anchor="start" x="450.117" y="-24.8" font-family="Times,serif" font-size="14.00">_layout</text>
</g>
<!-- JwtController -->
<g id="node11" class="node"><title>JwtController</title>
<path fill="none" stroke="black" d="M148.193,135C148.193,135 291.807,135 291.807,135 297.807,135 303.807,129 303.807,123 303.807,123 303.807,-55 303.807,-55 303.807,-61 297.807,-67 291.807,-67 291.807,-67 148.193,-67 148.193,-67 142.193,-67 136.193,-61 136.193,-55 136.193,-55 136.193,123 136.193,123 136.193,129 142.193,135 148.193,135"/>
<text text-anchor="middle" x="220" y="-51.8" font-family="Times,serif" font-size="14.00">JwtController</text>
<polyline fill="none" stroke="black" points="136.193,-45 303.807,-45 "/>
<text text-anchor="start" x="144.193" y="-29.8" font-family="Times,serif" font-size="14.00">cors_preflight_check</text>
<text text-anchor="start" x="144.193" y="-15.8" font-family="Times,serif" font-size="14.00">current_user</text>
<text text-anchor="start" x="144.193" y="-1.8" font-family="Times,serif" font-size="14.00">current_user=</text>
<text text-anchor="start" x="144.193" y="12.2" font-family="Times,serif" font-size="14.00">ensure_json_request</text>
<polyline fill="none" stroke="black" points="136.193,19 303.807,19 "/>
<polyline fill="none" stroke="black" points="136.193,43 303.807,43 "/>
<text text-anchor="start" x="144.193" y="58.2" font-family="Times,serif" font-size="14.00">_layout</text>
<text text-anchor="start" x="144.193" y="72.2" font-family="Times,serif" font-size="14.00">after_sign_in_path_for</text>
<text text-anchor="start" x="144.193" y="86.2" font-family="Times,serif" font-size="14.00">authenticate_request</text>
<text text-anchor="start" x="144.193" y="100.2" font-family="Times,serif" font-size="14.00">decode_auth_token</text>
<text text-anchor="start" x="144.193" y="114.2" font-family="Times,serif" font-size="14.00">http_auth_header</text>
<text text-anchor="start" x="144.193" y="128.2" font-family="Times,serif" font-size="14.00">set_cors_response_headers</text>
</g>
<!-- MembersController -->
<g id="node12" class="node"><title>MembersController</title>
<path fill="none" stroke="black" d="M-5.21045,-137C-5.21045,-137 97.2104,-137 97.2104,-137 103.21,-137 109.21,-143 109.21,-149 109.21,-149 109.21,-327 109.21,-327 109.21,-333 103.21,-339 97.2104,-339 97.2104,-339 -5.21045,-339 -5.21045,-339 -11.2104,-339 -17.2104,-333 -17.2104,-327 -17.2104,-327 -17.2104,-149 -17.2104,-149 -17.2104,-143 -11.2104,-137 -5.21045,-137"/>
<text text-anchor="middle" x="46" y="-323.8" font-family="Times,serif" font-size="14.00">MembersController</text>
<polyline fill="none" stroke="black" points="-17.2104,-317 109.21,-317 "/>
<text text-anchor="start" x="-9.21045" y="-301.8" font-family="Times,serif" font-size="14.00">index</text>
<text text-anchor="start" x="-9.21045" y="-287.8" font-family="Times,serif" font-size="14.00">destroy</text>
<text text-anchor="start" x="-9.21045" y="-273.8" font-family="Times,serif" font-size="14.00">edit</text>
<text text-anchor="start" x="-9.21045" y="-259.8" font-family="Times,serif" font-size="14.00">create</text>
<text text-anchor="start" x="-9.21045" y="-245.8" font-family="Times,serif" font-size="14.00">new</text>
<text text-anchor="start" x="-9.21045" y="-231.8" font-family="Times,serif" font-size="14.00">show</text>
<text text-anchor="start" x="-9.21045" y="-217.8" font-family="Times,serif" font-size="14.00">update</text>
<polyline fill="none" stroke="black" points="-17.2104,-211 109.21,-211 "/>
<polyline fill="none" stroke="black" points="-17.2104,-187 109.21,-187 "/>
<text text-anchor="start" x="-9.21045" y="-171.8" font-family="Times,serif" font-size="14.00">_layout</text>
<text text-anchor="start" x="-9.21045" y="-157.8" font-family="Times,serif" font-size="14.00">member_params</text>
<text text-anchor="start" x="-9.21045" y="-143.8" font-family="Times,serif" font-size="14.00">set_member</text>
</g>
<!-- OpenIdConnectController -->
<g id="node13" class="node"><title>OpenIdConnectController</title>
<path fill="none" stroke="black" d="M-89.5176,118C-89.5176,118 87.5176,118 87.5176,118 93.5176,118 99.5176,112 99.5176,106 99.5176,106 99.5176,-86 99.5176,-86 99.5176,-92 93.5176,-98 87.5176,-98 87.5176,-98 -89.5176,-98 -89.5176,-98 -95.5176,-98 -101.518,-92 -101.518,-86 -101.518,-86 -101.518,106 -101.518,106 -101.518,112 -95.5176,118 -89.5176,118"/>
<text text-anchor="middle" x="-1" y="-82.8" font-family="Times,serif" font-size="14.00">OpenIdConnectController</text>
<polyline fill="none" stroke="black" points="-101.518,-76 99.5176,-76 "/>
<text text-anchor="start" x="-93.5176" y="-60.8" font-family="Times,serif" font-size="14.00">unauthenticate!</text>
<text text-anchor="start" x="-93.5176" y="-46.8" font-family="Times,serif" font-size="14.00">cors_preflight_check</text>
<text text-anchor="start" x="-93.5176" y="-32.8" font-family="Times,serif" font-size="14.00">cors_set_access_control_headers</text>
<text text-anchor="start" x="-93.5176" y="-18.8" font-family="Times,serif" font-size="14.00">current_identity</text>
<text text-anchor="start" x="-93.5176" y="-4.8" font-family="Times,serif" font-size="14.00">current_user</text>
<text text-anchor="start" x="-93.5176" y="9.2" font-family="Times,serif" font-size="14.00">new_nonce</text>
<text text-anchor="start" x="-93.5176" y="23.2" font-family="Times,serif" font-size="14.00">set_options_from</text>
<text text-anchor="start" x="-93.5176" y="37.2" font-family="Times,serif" font-size="14.00">set_user_from_session</text>
<text text-anchor="start" x="-93.5176" y="51.2" font-family="Times,serif" font-size="14.00">stored_nonce</text>
<text text-anchor="start" x="-93.5176" y="65.2" font-family="Times,serif" font-size="14.00">build_oauth_request</text>
<polyline fill="none" stroke="black" points="-101.518,72 99.5176,72 "/>
<polyline fill="none" stroke="black" points="-101.518,96 99.5176,96 "/>
<text text-anchor="start" x="-93.5176" y="111.2" font-family="Times,serif" font-size="14.00">_layout</text>
</g>
<!-- ParticipantsController -->
<g id="node14" class="node"><title>ParticipantsController</title>
<path fill="none" stroke="black" d="M12.1792,-375C12.1792,-375 127.821,-375 127.821,-375 133.821,-375 139.821,-381 139.821,-387 139.821,-387 139.821,-455 139.821,-455 139.821,-461 133.821,-467 127.821,-467 127.821,-467 12.1792,-467 12.1792,-467 6.1792,-467 0.179199,-461 0.179199,-455 0.179199,-455 0.179199,-387 0.179199,-387 0.179199,-381 6.1792,-375 12.1792,-375"/>
<text text-anchor="middle" x="70" y="-451.8" font-family="Times,serif" font-size="14.00">ParticipantsController</text>
<polyline fill="none" stroke="black" points="0.179199,-445 139.821,-445 "/>
<polyline fill="none" stroke="black" points="0.179199,-421 139.821,-421 "/>
<polyline fill="none" stroke="black" points="0.179199,-397 139.821,-397 "/>
<text text-anchor="start" x="8.1792" y="-381.8" font-family="Times,serif" font-size="14.00">_layout</text>
</g>
<!-- ProvidersController -->
<g id="node15" class="node"><title>ProvidersController</title>
<path fill="none" stroke="black" d="M-208.604,373C-208.604,373 -105.396,373 -105.396,373 -99.3965,373 -93.3965,367 -93.3965,361 -93.3965,361 -93.3965,293 -93.3965,293 -93.3965,287 -99.3965,281 -105.396,281 -105.396,281 -208.604,281 -208.604,281 -214.604,281 -220.604,287 -220.604,293 -220.604,293 -220.604,361 -220.604,361 -220.604,367 -214.604,373 -208.604,373"/>
<text text-anchor="middle" x="-157" y="296.2" font-family="Times,serif" font-size="14.00">ProvidersController</text>
<polyline fill="none" stroke="black" points="-220.604,303 -93.3965,303 "/>
<polyline fill="none" stroke="black" points="-220.604,327 -93.3965,327 "/>
<polyline fill="none" stroke="black" points="-220.604,351 -93.3965,351 "/>
<text text-anchor="start" x="-212.604" y="366.2" font-family="Times,serif" font-size="14.00">_layout</text>
</g>
<!-- ResultsController -->
<g id="node16" class="node"><title>ResultsController</title>
<path fill="none" stroke="black" d="M-311.386,-324C-311.386,-324 -220.614,-324 -220.614,-324 -214.614,-324 -208.614,-330 -208.614,-336 -208.614,-336 -208.614,-514 -208.614,-514 -208.614,-520 -214.614,-526 -220.614,-526 -220.614,-526 -311.386,-526 -311.386,-526 -317.386,-526 -323.386,-520 -323.386,-514 -323.386,-514 -323.386,-336 -323.386,-336 -323.386,-330 -317.386,-324 -311.386,-324"/>
<text text-anchor="middle" x="-266" y="-510.8" font-family="Times,serif" font-size="14.00">ResultsController</text>
<polyline fill="none" stroke="black" points="-323.386,-504 -208.614,-504 "/>
<text text-anchor="start" x="-315.386" y="-488.8" font-family="Times,serif" font-size="14.00">index</text>
<text text-anchor="start" x="-315.386" y="-474.8" font-family="Times,serif" font-size="14.00">destroy</text>
<text text-anchor="start" x="-315.386" y="-460.8" font-family="Times,serif" font-size="14.00">edit</text>
<text text-anchor="start" x="-315.386" y="-446.8" font-family="Times,serif" font-size="14.00">create</text>
<text text-anchor="start" x="-315.386" y="-432.8" font-family="Times,serif" font-size="14.00">new</text>
<text text-anchor="start" x="-315.386" y="-418.8" font-family="Times,serif" font-size="14.00">show</text>
<text text-anchor="start" x="-315.386" y="-404.8" font-family="Times,serif" font-size="14.00">update</text>
<polyline fill="none" stroke="black" points="-323.386,-398 -208.614,-398 "/>
<polyline fill="none" stroke="black" points="-323.386,-374 -208.614,-374 "/>
<text text-anchor="start" x="-315.386" y="-358.8" font-family="Times,serif" font-size="14.00">_layout</text>
<text text-anchor="start" x="-315.386" y="-344.8" font-family="Times,serif" font-size="14.00">result_params</text>
<text text-anchor="start" x="-315.386" y="-330.8" font-family="Times,serif" font-size="14.00">set_result</text>
</g>
<!-- RolesController -->
<g id="node17" class="node"><title>RolesController</title>
<path fill="none" stroke="black" d="M318.283,-103C318.283,-103 399.717,-103 399.717,-103 405.717,-103 411.717,-109 411.717,-115 411.717,-115 411.717,-293 411.717,-293 411.717,-299 405.717,-305 399.717,-305 399.717,-305 318.283,-305 318.283,-305 312.283,-305 306.283,-299 306.283,-293 306.283,-293 306.283,-115 306.283,-115 306.283,-109 312.283,-103 318.283,-103"/>
<text text-anchor="middle" x="359" y="-289.8" font-family="Times,serif" font-size="14.00">RolesController</text>
<polyline fill="none" stroke="black" points="306.283,-283 411.717,-283 "/>
<text text-anchor="start" x="314.283" y="-267.8" font-family="Times,serif" font-size="14.00">index</text>
<text text-anchor="start" x="314.283" y="-253.8" font-family="Times,serif" font-size="14.00">destroy</text>
<text text-anchor="start" x="314.283" y="-239.8" font-family="Times,serif" font-size="14.00">edit</text>
<text text-anchor="start" x="314.283" y="-225.8" font-family="Times,serif" font-size="14.00">create</text>
<text text-anchor="start" x="314.283" y="-211.8" font-family="Times,serif" font-size="14.00">new</text>
<text text-anchor="start" x="314.283" y="-197.8" font-family="Times,serif" font-size="14.00">show</text>
<text text-anchor="start" x="314.283" y="-183.8" font-family="Times,serif" font-size="14.00">update</text>
<polyline fill="none" stroke="black" points="306.283,-177 411.717,-177 "/>
<polyline fill="none" stroke="black" points="306.283,-153 411.717,-153 "/>
<text text-anchor="start" x="314.283" y="-137.8" font-family="Times,serif" font-size="14.00">_layout</text>
<text text-anchor="start" x="314.283" y="-123.8" font-family="Times,serif" font-size="14.00">role_params</text>
<text text-anchor="start" x="314.283" y="-109.8" font-family="Times,serif" font-size="14.00">set_role</text>
</g>
<!-- SessionsController -->
<g id="node18" class="node"><title>SessionsController</title>
<path fill="none" stroke="black" d="M-260.207,16C-260.207,16 -143.793,16 -143.793,16 -137.793,16 -131.793,10 -131.793,4 -131.793,4 -131.793,-132 -131.793,-132 -131.793,-138 -137.793,-144 -143.793,-144 -143.793,-144 -260.207,-144 -260.207,-144 -266.207,-144 -272.207,-138 -272.207,-132 -272.207,-132 -272.207,4 -272.207,4 -272.207,10 -266.207,16 -260.207,16"/>
<text text-anchor="middle" x="-202" y="-128.8" font-family="Times,serif" font-size="14.00">SessionsController</text>
<polyline fill="none" stroke="black" points="-272.207,-122 -131.793,-122 "/>
<text text-anchor="start" x="-264.207" y="-106.8" font-family="Times,serif" font-size="14.00">authenticate</text>
<text text-anchor="start" x="-264.207" y="-92.8" font-family="Times,serif" font-size="14.00">callback</text>
<text text-anchor="start" x="-264.207" y="-78.8" font-family="Times,serif" font-size="14.00">cleanse_session</text>
<text text-anchor="start" x="-264.207" y="-64.8" font-family="Times,serif" font-size="14.00">destroy</text>
<text text-anchor="start" x="-264.207" y="-50.8" font-family="Times,serif" font-size="14.00">openid_connect_login</text>
<text text-anchor="start" x="-264.207" y="-36.8" font-family="Times,serif" font-size="14.00">public_keys_for</text>
<polyline fill="none" stroke="black" points="-272.207,-30 -131.793,-30 "/>
<polyline fill="none" stroke="black" points="-272.207,-6 -131.793,-6 "/>
<text text-anchor="start" x="-264.207" y="9.2" font-family="Times,serif" font-size="14.00">_layout</text>
</g>
<!-- Smart::LaunchController -->
<g id="node19" class="node"><title>Smart::LaunchController</title>
<path fill="none" stroke="black" d="M351.627,-341C351.627,-341 484.373,-341 484.373,-341 490.373,-341 496.373,-347 496.373,-353 496.373,-353 496.373,-419 496.373,-419 496.373,-425 490.373,-431 484.373,-431 484.373,-431 351.627,-431 351.627,-431 345.627,-431 339.627,-425 339.627,-419 339.627,-419 339.627,-353 339.627,-353 339.627,-347 345.627,-341 351.627,-341"/>
<text text-anchor="middle" x="418" y="-415.8" font-family="Times,serif" font-size="14.00">Smart::LaunchController</text>
<polyline fill="none" stroke="black" points="339.627,-409 496.373,-409 "/>
<text text-anchor="start" x="347.627" y="-393.8" font-family="Times,serif" font-size="14.00">launch</text>
<polyline fill="none" stroke="black" points="339.627,-387 496.373,-387 "/>
<polyline fill="none" stroke="black" points="339.627,-363 496.373,-363 "/>
<text text-anchor="start" x="347.627" y="-347.8" font-family="Times,serif" font-size="14.00">_layout</text>
</g>
<!-- SnomedctConceptsController -->
<g id="node20" class="node"><title>SnomedctConceptsController</title>
<path fill="none" stroke="black" d="M352.179,101C352.179,101 509.821,101 509.821,101 515.821,101 521.821,95 521.821,89 521.821,89 521.821,21 521.821,21 521.821,15 515.821,9 509.821,9 509.821,9 352.179,9 352.179,9 346.179,9 340.179,15 340.179,21 340.179,21 340.179,89 340.179,89 340.179,95 346.179,101 352.179,101"/>
<text text-anchor="middle" x="431" y="24.2" font-family="Times,serif" font-size="14.00">SnomedctConceptsController</text>
<polyline fill="none" stroke="black" points="340.179,31 521.821,31 "/>
<polyline fill="none" stroke="black" points="340.179,55 521.821,55 "/>
<polyline fill="none" stroke="black" points="340.179,79 521.821,79 "/>
<text text-anchor="start" x="348.179" y="94.2" font-family="Times,serif" font-size="14.00">_layout</text>
</g>
<!-- SnomedctDescriptionsController -->
<g id="node21" class="node"><title>SnomedctDescriptionsController</title>
<path fill="none" stroke="black" d="M11.8481,339C11.8481,339 188.152,339 188.152,339 194.152,339 200.152,333 200.152,327 200.152,327 200.152,259 200.152,259 200.152,253 194.152,247 188.152,247 188.152,247 11.8481,247 11.8481,247 5.84814,247 -0.151855,253 -0.151855,259 -0.151855,259 -0.151855,327 -0.151855,327 -0.151855,333 5.84814,339 11.8481,339"/>
<text text-anchor="middle" x="100" y="262.2" font-family="Times,serif" font-size="14.00">SnomedctDescriptionsController</text>
<polyline fill="none" stroke="black" points="-0.151855,269 200.152,269 "/>
<polyline fill="none" stroke="black" points="-0.151855,293 200.152,293 "/>
<polyline fill="none" stroke="black" points="-0.151855,317 200.152,317 "/>
<text text-anchor="start" x="7.84814" y="332.2" font-family="Times,serif" font-size="14.00">_layout</text>
</g>
<!-- UsersController -->
<g id="node22" class="node"><title>UsersController</title>
<path fill="none" stroke="black" d="M-395.714,-52C-395.714,-52 -314.286,-52 -314.286,-52 -308.286,-52 -302.286,-58 -302.286,-64 -302.286,-64 -302.286,-144 -302.286,-144 -302.286,-150 -308.286,-156 -314.286,-156 -314.286,-156 -395.714,-156 -395.714,-156 -401.714,-156 -407.714,-150 -407.714,-144 -407.714,-144 -407.714,-64 -407.714,-64 -407.714,-58 -401.714,-52 -395.714,-52"/>
<text text-anchor="middle" x="-355" y="-140.8" font-family="Times,serif" font-size="14.00">UsersController</text>
<polyline fill="none" stroke="black" points="-407.714,-134 -302.286,-134 "/>
<text text-anchor="start" x="-399.714" y="-118.8" font-family="Times,serif" font-size="14.00">edit</text>
<text text-anchor="start" x="-399.714" y="-104.8" font-family="Times,serif" font-size="14.00">index</text>
<polyline fill="none" stroke="black" points="-407.714,-98 -302.286,-98 "/>
<polyline fill="none" stroke="black" points="-407.714,-74 -302.286,-74 "/>
<text text-anchor="start" x="-399.714" y="-58.8" font-family="Times,serif" font-size="14.00">_layout</text>
</g>
<!-- WelcomeController -->
<g id="node23" class="node"><title>WelcomeController</title>
<path fill="none" stroke="black" d="M-311.033,-188C-311.033,-188 -208.967,-188 -208.967,-188 -202.967,-188 -196.967,-194 -196.967,-200 -196.967,-200 -196.967,-280 -196.967,-280 -196.967,-286 -202.967,-292 -208.967,-292 -208.967,-292 -311.033,-292 -311.033,-292 -317.033,-292 -323.033,-286 -323.033,-280 -323.033,-280 -323.033,-200 -323.033,-200 -323.033,-194 -317.033,-188 -311.033,-188"/>
<text text-anchor="middle" x="-260" y="-276.8" font-family="Times,serif" font-size="14.00">WelcomeController</text>
<polyline fill="none" stroke="black" points="-323.033,-270 -196.967,-270 "/>
<text text-anchor="start" x="-315.033" y="-254.8" font-family="Times,serif" font-size="14.00">dashboard</text>
<text text-anchor="start" x="-315.033" y="-240.8" font-family="Times,serif" font-size="14.00">landing</text>
<polyline fill="none" stroke="black" points="-323.033,-234 -196.967,-234 "/>
<polyline fill="none" stroke="black" points="-323.033,-210 -196.967,-210 "/>
<text text-anchor="start" x="-315.033" y="-194.8" font-family="Times,serif" font-size="14.00">_layout</text>
</g>
</g>
</svg>
