<?xml version="1.0" encoding="UTF-8" standalone="no"?>
<!DOCTYPE svg PUBLIC "-//W3C//DTD SVG 1.1//EN"
 "http://www.w3.org/Graphics/SVG/1.1/DTD/svg11.dtd">
<!-- Generated by graphviz version 2.40.1 (20161225.0304)
 -->
<!-- Title: controllers_diagram Pages: 1 -->
<svg width="823pt" height="807pt"
 viewBox="0.00 0.00 823.38 807.00" xmlns="http://www.w3.org/2000/svg" xmlns:xlink="http://www.w3.org/1999/xlink">
<g id="graph0" class="graph" transform="scale(1 1) rotate(0) translate(4 803)">
<title>controllers_diagram</title>
<polygon fill="transparent" stroke="transparent" points="-4,4 -4,-803 819.3755,-803 819.3755,4 -4,4"/>
<!-- _diagram_info -->
<g id="node1" class="node">
<title>_diagram_info</title>
<text text-anchor="start" x="616" y="-154.6" font-family="Times,serif" font-size="13.00" fill="#000000">Controllers diagram</text>
<text text-anchor="start" x="616" y="-141.6" font-family="Times,serif" font-size="13.00" fill="#000000">Date: May 24 2018 &#45; 17:32</text>
<text text-anchor="start" x="616" y="-128.6" font-family="Times,serif" font-size="13.00" fill="#000000">Migration version: 20180525003031</text>
<text text-anchor="start" x="616" y="-115.6" font-family="Times,serif" font-size="13.00" fill="#000000">Generated by RailRoady 1.5.3</text>
<text text-anchor="start" x="616" y="-102.6" font-family="Times,serif" font-size="13.00" fill="#000000">http://railroady.prestonlee.com</text>
</g>
<!-- ApplicationController -->
<g id="node2" class="node">
<title>ApplicationController</title>
<path fill="none" stroke="#000000" d="M284,-224.5C284,-224.5 399.6416,-224.5 399.6416,-224.5 405.6416,-224.5 411.6416,-230.5 411.6416,-236.5 411.6416,-236.5 411.6416,-444.5 411.6416,-444.5 411.6416,-450.5 405.6416,-456.5 399.6416,-456.5 399.6416,-456.5 284,-456.5 284,-456.5 278,-456.5 272,-450.5 272,-444.5 272,-444.5 272,-236.5 272,-236.5 272,-230.5 278,-224.5 284,-224.5"/>
<text text-anchor="middle" x="341.8208" y="-441.3" font-family="Times,serif" font-size="14.00" fill="#000000">ApplicationController</text>
<polyline fill="none" stroke="#000000" points="272,-434.5 411.6416,-434.5 "/>
<text text-anchor="start" x="280" y="-419.3" font-family="Times,serif" font-size="14.00" fill="#000000">unauthenticate!</text>
<text text-anchor="start" x="280" y="-405.3" font-family="Times,serif" font-size="14.00" fill="#000000">_cancan_skipper=</text>
<text text-anchor="start" x="280" y="-391.3" font-family="Times,serif" font-size="14.00" fill="#000000">_cancan_skipper?</text>
<text text-anchor="start" x="280" y="-377.3" font-family="Times,serif" font-size="14.00" fill="#000000">authenticate_identity!</text>
<text text-anchor="start" x="280" y="-363.3" font-family="Times,serif" font-size="14.00" fill="#000000">build_oauth_request</text>
<text text-anchor="start" x="280" y="-349.3" font-family="Times,serif" font-size="14.00" fill="#000000">current_identity</text>
<text text-anchor="start" x="280" y="-335.3" font-family="Times,serif" font-size="14.00" fill="#000000">current_person</text>
<text text-anchor="start" x="280" y="-321.3" font-family="Times,serif" font-size="14.00" fill="#000000">current_user</text>
<text text-anchor="start" x="280" y="-307.3" font-family="Times,serif" font-size="14.00" fill="#000000">new_nonce</text>
<text text-anchor="start" x="280" y="-293.3" font-family="Times,serif" font-size="14.00" fill="#000000">stored_nonce</text>
<text text-anchor="start" x="280" y="-279.3" font-family="Times,serif" font-size="14.00" fill="#000000">_cancan_skipper</text>
<polyline fill="none" stroke="#000000" points="272,-272.5 411.6416,-272.5 "/>
<polyline fill="none" stroke="#000000" points="272,-248.5 411.6416,-248.5 "/>
</g>
<!-- EventsController -->
<g id="node3" class="node">
<title>EventsController</title>
<path fill="none" stroke="#000000" d="M300,-496.5C300,-496.5 435.0488,-496.5 435.0488,-496.5 441.0488,-496.5 447.0488,-502.5 447.0488,-508.5 447.0488,-508.5 447.0488,-630.5 447.0488,-630.5 447.0488,-636.5 441.0488,-642.5 435.0488,-642.5 435.0488,-642.5 300,-642.5 300,-642.5 294,-642.5 288,-636.5 288,-630.5 288,-630.5 288,-508.5 288,-508.5 288,-502.5 294,-496.5 300,-496.5"/>
<text text-anchor="middle" x="367.5244" y="-627.3" font-family="Times,serif" font-size="14.00" fill="#000000">EventsController</text>
<polyline fill="none" stroke="#000000" points="288,-620.5 447.0488,-620.5 "/>
<text text-anchor="start" x="296" y="-605.3" font-family="Times,serif" font-size="14.00" fill="#000000">create</text>
<text text-anchor="start" x="296" y="-591.3" font-family="Times,serif" font-size="14.00" fill="#000000">destroy</text>
<text text-anchor="start" x="296" y="-577.3" font-family="Times,serif" font-size="14.00" fill="#000000">index</text>
<text text-anchor="start" x="296" y="-563.3" font-family="Times,serif" font-size="14.00" fill="#000000">update</text>
<polyline fill="none" stroke="#000000" points="288,-556.5 447.0488,-556.5 "/>
<polyline fill="none" stroke="#000000" points="288,-532.5 447.0488,-532.5 "/>
<text text-anchor="start" x="296" y="-517.3" font-family="Times,serif" font-size="14.00" fill="#000000">event_params</text>
<text text-anchor="start" x="296" y="-503.3" font-family="Times,serif" font-size="14.00" fill="#000000">parameters_from_params</text>
</g>
<!-- PeopleController -->
<g id="node4" class="node">
<title>PeopleController</title>
<path fill="none" stroke="#000000" d="M12,-.5C12,-.5 99.6484,-.5 99.6484,-.5 105.6484,-.5 111.6484,-6.5 111.6484,-12.5 111.6484,-12.5 111.6484,-80.5 111.6484,-80.5 111.6484,-86.5 105.6484,-92.5 99.6484,-92.5 99.6484,-92.5 12,-92.5 12,-92.5 6,-92.5 0,-86.5 0,-80.5 0,-80.5 0,-12.5 0,-12.5 0,-6.5 6,-.5 12,-.5"/>
<text text-anchor="middle" x="55.8242" y="-77.3" font-family="Times,serif" font-size="14.00" fill="#000000">PeopleController</text>
<polyline fill="none" stroke="#000000" points="0,-70.5 111.6484,-70.5 "/>
<text text-anchor="start" x="8" y="-55.3" font-family="Times,serif" font-size="14.00" fill="#000000">index</text>
<polyline fill="none" stroke="#000000" points="0,-48.5 111.6484,-48.5 "/>
<polyline fill="none" stroke="#000000" points="0,-24.5 111.6484,-24.5 "/>
</g>
<!-- ClientsController -->
<g id="node5" class="node">
<title>ClientsController</title>
<path fill="none" stroke="#000000" d="M668,-656.5C668,-656.5 757.2139,-656.5 757.2139,-656.5 763.2139,-656.5 769.2139,-662.5 769.2139,-668.5 769.2139,-668.5 769.2139,-750.5 769.2139,-750.5 769.2139,-756.5 763.2139,-762.5 757.2139,-762.5 757.2139,-762.5 668,-762.5 668,-762.5 662,-762.5 656,-756.5 656,-750.5 656,-750.5 656,-668.5 656,-668.5 656,-662.5 662,-656.5 668,-656.5"/>
<text text-anchor="middle" x="712.6069" y="-747.3" font-family="Times,serif" font-size="14.00" fill="#000000">ClientsController</text>
<polyline fill="none" stroke="#000000" points="656,-740.5 769.2139,-740.5 "/>
<text text-anchor="start" x="664" y="-725.3" font-family="Times,serif" font-size="14.00" fill="#000000">index</text>
<text text-anchor="start" x="664" y="-711.3" font-family="Times,serif" font-size="14.00" fill="#000000">launch</text>
<polyline fill="none" stroke="#000000" points="656,-704.5 769.2139,-704.5 "/>
<polyline fill="none" stroke="#000000" points="656,-680.5 769.2139,-680.5 "/>
</g>
<!-- ContextsController -->
<g id="node6" class="node">
<title>ContextsController</title>
<path fill="none" stroke="#000000" d="M508,-704.5C508,-704.5 607.3242,-704.5 607.3242,-704.5 613.3242,-704.5 619.3242,-710.5 619.3242,-716.5 619.3242,-716.5 619.3242,-786.5 619.3242,-786.5 619.3242,-792.5 613.3242,-798.5 607.3242,-798.5 607.3242,-798.5 508,-798.5 508,-798.5 502,-798.5 496,-792.5 496,-786.5 496,-786.5 496,-716.5 496,-716.5 496,-710.5 502,-704.5 508,-704.5"/>
<text text-anchor="middle" x="557.6621" y="-783.3" font-family="Times,serif" font-size="14.00" fill="#000000">ContextsController</text>
<polyline fill="none" stroke="#000000" points="496,-776.5 619.3242,-776.5 "/>
<polyline fill="none" stroke="#000000" points="496,-752.5 619.3242,-752.5 "/>
<polyline fill="none" stroke="#000000" points="496,-728.5 619.3242,-728.5 "/>
</g>
<!-- ObjectivesController -->
<g id="node7" class="node">
<title>ObjectivesController</title>
<path fill="none" stroke="#000000" d="M460,-80.5C460,-80.5 569.4141,-80.5 569.4141,-80.5 575.4141,-80.5 581.4141,-86.5 581.4141,-92.5 581.4141,-92.5 581.4141,-214.5 581.4141,-214.5 581.4141,-220.5 575.4141,-226.5 569.4141,-226.5 569.4141,-226.5 460,-226.5 460,-226.5 454,-226.5 448,-220.5 448,-214.5 448,-214.5 448,-92.5 448,-92.5 448,-86.5 454,-80.5 460,-80.5"/>
<text text-anchor="middle" x="514.707" y="-211.3" font-family="Times,serif" font-size="14.00" fill="#000000">ObjectivesController</text>
<polyline fill="none" stroke="#000000" points="448,-204.5 581.4141,-204.5 "/>
<text text-anchor="start" x="456" y="-189.3" font-family="Times,serif" font-size="14.00" fill="#000000">create</text>
<text text-anchor="start" x="456" y="-175.3" font-family="Times,serif" font-size="14.00" fill="#000000">destroy</text>
<text text-anchor="start" x="456" y="-161.3" font-family="Times,serif" font-size="14.00" fill="#000000">index</text>
<text text-anchor="start" x="456" y="-147.3" font-family="Times,serif" font-size="14.00" fill="#000000">show</text>
<text text-anchor="start" x="456" y="-133.3" font-family="Times,serif" font-size="14.00" fill="#000000">update</text>
<polyline fill="none" stroke="#000000" points="448,-126.5 581.4141,-126.5 "/>
<polyline fill="none" stroke="#000000" points="448,-102.5 581.4141,-102.5 "/>
<text text-anchor="start" x="456" y="-87.3" font-family="Times,serif" font-size="14.00" fill="#000000">objective_params</text>
</g>
<!-- PlacesController -->
<g id="node8" class="node">
<title>PlacesController</title>
<path fill="none" stroke="#000000" d="M636,-336.5C636,-336.5 721.3105,-336.5 721.3105,-336.5 727.3105,-336.5 733.3105,-342.5 733.3105,-348.5 733.3105,-348.5 733.3105,-456.5 733.3105,-456.5 733.3105,-462.5 727.3105,-468.5 721.3105,-468.5 721.3105,-468.5 636,-468.5 636,-468.5 630,-468.5 624,-462.5 624,-456.5 624,-456.5 624,-348.5 624,-348.5 624,-342.5 630,-336.5 636,-336.5"/>
<text text-anchor="middle" x="678.6553" y="-453.3" font-family="Times,serif" font-size="14.00" fill="#000000">PlacesController</text>
<polyline fill="none" stroke="#000000" points="624,-446.5 733.3105,-446.5 "/>
<text text-anchor="start" x="632" y="-431.3" font-family="Times,serif" font-size="14.00" fill="#000000">create</text>
<text text-anchor="start" x="632" y="-417.3" font-family="Times,serif" font-size="14.00" fill="#000000">destroy</text>
<text text-anchor="start" x="632" y="-403.3" font-family="Times,serif" font-size="14.00" fill="#000000">index</text>
<text text-anchor="start" x="632" y="-389.3" font-family="Times,serif" font-size="14.00" fill="#000000">update</text>
<polyline fill="none" stroke="#000000" points="624,-382.5 733.3105,-382.5 "/>
<polyline fill="none" stroke="#000000" points="624,-358.5 733.3105,-358.5 "/>
<text text-anchor="start" x="632" y="-343.3" font-family="Times,serif" font-size="14.00" fill="#000000">place_params</text>
</g>
<!-- GroupsController -->
<g id="node9" class="node">
<title>GroupsController</title>
<path fill="none" stroke="#000000" d="M492,-480.5C492,-480.5 582.7656,-480.5 582.7656,-480.5 588.7656,-480.5 594.7656,-486.5 594.7656,-492.5 594.7656,-492.5 594.7656,-656.5 594.7656,-656.5 594.7656,-662.5 588.7656,-668.5 582.7656,-668.5 582.7656,-668.5 492,-668.5 492,-668.5 486,-668.5 480,-662.5 480,-656.5 480,-656.5 480,-492.5 480,-492.5 480,-486.5 486,-480.5 492,-480.5"/>
<text text-anchor="middle" x="537.3828" y="-653.3" font-family="Times,serif" font-size="14.00" fill="#000000">GroupsController</text>
<polyline fill="none" stroke="#000000" points="480,-646.5 594.7656,-646.5 "/>
<text text-anchor="start" x="488" y="-631.3" font-family="Times,serif" font-size="14.00" fill="#000000">create</text>
<text text-anchor="start" x="488" y="-617.3" font-family="Times,serif" font-size="14.00" fill="#000000">destroy</text>
<text text-anchor="start" x="488" y="-603.3" font-family="Times,serif" font-size="14.00" fill="#000000">edit</text>
<text text-anchor="start" x="488" y="-589.3" font-family="Times,serif" font-size="14.00" fill="#000000">index</text>
<text text-anchor="start" x="488" y="-575.3" font-family="Times,serif" font-size="14.00" fill="#000000">new</text>
<text text-anchor="start" x="488" y="-561.3" font-family="Times,serif" font-size="14.00" fill="#000000">show</text>
<text text-anchor="start" x="488" y="-547.3" font-family="Times,serif" font-size="14.00" fill="#000000">update</text>
<polyline fill="none" stroke="#000000" points="480,-540.5 594.7656,-540.5 "/>
<polyline fill="none" stroke="#000000" points="480,-516.5 594.7656,-516.5 "/>
<text text-anchor="start" x="488" y="-501.3" font-family="Times,serif" font-size="14.00" fill="#000000">group_params</text>
<text text-anchor="start" x="488" y="-487.3" font-family="Times,serif" font-size="14.00" fill="#000000">set_group</text>
</g>
<!-- IdentityProvidersController -->
<g id="node10" class="node">
<title>IdentityProvidersController</title>
<path fill="none" stroke="#000000" d="M636,-208.5C636,-208.5 782.752,-208.5 782.752,-208.5 788.752,-208.5 794.752,-214.5 794.752,-220.5 794.752,-220.5 794.752,-288.5 794.752,-288.5 794.752,-294.5 788.752,-300.5 782.752,-300.5 782.752,-300.5 636,-300.5 636,-300.5 630,-300.5 624,-294.5 624,-288.5 624,-288.5 624,-220.5 624,-220.5 624,-214.5 630,-208.5 636,-208.5"/>
<text text-anchor="middle" x="709.376" y="-285.3" font-family="Times,serif" font-size="14.00" fill="#000000">IdentityProvidersController</text>
<polyline fill="none" stroke="#000000" points="624,-278.5 794.752,-278.5 "/>
<text text-anchor="start" x="632" y="-263.3" font-family="Times,serif" font-size="14.00" fill="#000000">launch</text>
<polyline fill="none" stroke="#000000" points="624,-256.5 794.752,-256.5 "/>
<polyline fill="none" stroke="#000000" points="624,-232.5 794.752,-232.5 "/>
</g>
<!-- SessionsController -->
<g id="node11" class="node">
<title>SessionsController</title>
<path fill="none" stroke="#000000" d="M108,-352.5C108,-352.5 224.4141,-352.5 224.4141,-352.5 230.4141,-352.5 236.4141,-358.5 236.4141,-364.5 236.4141,-364.5 236.4141,-502.5 236.4141,-502.5 236.4141,-508.5 230.4141,-514.5 224.4141,-514.5 224.4141,-514.5 108,-514.5 108,-514.5 102,-514.5 96,-508.5 96,-502.5 96,-502.5 96,-364.5 96,-364.5 96,-358.5 102,-352.5 108,-352.5"/>
<text text-anchor="middle" x="166.207" y="-499.3" font-family="Times,serif" font-size="14.00" fill="#000000">SessionsController</text>
<polyline fill="none" stroke="#000000" points="96,-492.5 236.4141,-492.5 "/>
<text text-anchor="start" x="104" y="-477.3" font-family="Times,serif" font-size="14.00" fill="#000000">callback</text>
<text text-anchor="start" x="104" y="-463.3" font-family="Times,serif" font-size="14.00" fill="#000000">cleanse_session</text>
<text text-anchor="start" x="104" y="-449.3" font-family="Times,serif" font-size="14.00" fill="#000000">create</text>
<text text-anchor="start" x="104" y="-435.3" font-family="Times,serif" font-size="14.00" fill="#000000">destroy</text>
<text text-anchor="start" x="104" y="-421.3" font-family="Times,serif" font-size="14.00" fill="#000000">openid_connect_login</text>
<text text-anchor="start" x="104" y="-407.3" font-family="Times,serif" font-size="14.00" fill="#000000">public_keys_for</text>
<polyline fill="none" stroke="#000000" points="96,-400.5 236.4141,-400.5 "/>
<polyline fill="none" stroke="#000000" points="96,-376.5 236.4141,-376.5 "/>
</g>
<!-- WelcomeController -->
<g id="node12" class="node">
<title>WelcomeController</title>
<path fill="none" stroke="#000000" d="M284,-64.5C284,-64.5 386.0654,-64.5 386.0654,-64.5 392.0654,-64.5 398.0654,-70.5 398.0654,-76.5 398.0654,-76.5 398.0654,-172.5 398.0654,-172.5 398.0654,-178.5 392.0654,-184.5 386.0654,-184.5 386.0654,-184.5 284,-184.5 284,-184.5 278,-184.5 272,-178.5 272,-172.5 272,-172.5 272,-76.5 272,-76.5 272,-70.5 278,-64.5 284,-64.5"/>
<text text-anchor="middle" x="335.0327" y="-169.3" font-family="Times,serif" font-size="14.00" fill="#000000">WelcomeController</text>
<polyline fill="none" stroke="#000000" points="272,-162.5 398.0654,-162.5 "/>
<text text-anchor="start" x="280" y="-147.3" font-family="Times,serif" font-size="14.00" fill="#000000">landing</text>
<text text-anchor="start" x="280" y="-133.3" font-family="Times,serif" font-size="14.00" fill="#000000">status</text>
<text text-anchor="start" x="280" y="-119.3" font-family="Times,serif" font-size="14.00" fill="#000000">stream</text>
<polyline fill="none" stroke="#000000" points="272,-112.5 398.0654,-112.5 "/>
<polyline fill="none" stroke="#000000" points="272,-88.5 398.0654,-88.5 "/>
</g>
<!-- AssetsController -->
<g id="node13" class="node">
<title>AssetsController</title>
<path fill="none" stroke="#000000" d="M636,-496.5C636,-496.5 722.1035,-496.5 722.1035,-496.5 728.1035,-496.5 734.1035,-502.5 734.1035,-508.5 734.1035,-508.5 734.1035,-616.5 734.1035,-616.5 734.1035,-622.5 728.1035,-628.5 722.1035,-628.5 722.1035,-628.5 636,-628.5 636,-628.5 630,-628.5 624,-622.5 624,-616.5 624,-616.5 624,-508.5 624,-508.5 624,-502.5 630,-496.5 636,-496.5"/>
<text text-anchor="middle" x="679.0518" y="-613.3" font-family="Times,serif" font-size="14.00" fill="#000000">AssetsController</text>
<polyline fill="none" stroke="#000000" points="624,-606.5 734.1035,-606.5 "/>
<text text-anchor="start" x="632" y="-591.3" font-family="Times,serif" font-size="14.00" fill="#000000">create</text>
<text text-anchor="start" x="632" y="-577.3" font-family="Times,serif" font-size="14.00" fill="#000000">destroy</text>
<text text-anchor="start" x="632" y="-563.3" font-family="Times,serif" font-size="14.00" fill="#000000">index</text>
<text text-anchor="start" x="632" y="-549.3" font-family="Times,serif" font-size="14.00" fill="#000000">update</text>
<polyline fill="none" stroke="#000000" points="624,-542.5 734.1035,-542.5 "/>
<polyline fill="none" stroke="#000000" points="624,-518.5 734.1035,-518.5 "/>
<text text-anchor="start" x="632" y="-503.3" font-family="Times,serif" font-size="14.00" fill="#000000">asset_params</text>
</g>
<!-- CapabilitiesController -->
<g id="node14" class="node">
<title>CapabilitiesController</title>
<path fill="none" stroke="#000000" d="M460,-256.5C460,-256.5 576.4209,-256.5 576.4209,-256.5 582.4209,-256.5 588.4209,-262.5 588.4209,-268.5 588.4209,-268.5 588.4209,-432.5 588.4209,-432.5 588.4209,-438.5 582.4209,-444.5 576.4209,-444.5 576.4209,-444.5 460,-444.5 460,-444.5 454,-444.5 448,-438.5 448,-432.5 448,-432.5 448,-268.5 448,-268.5 448,-262.5 454,-256.5 460,-256.5"/>
<text text-anchor="middle" x="518.2104" y="-429.3" font-family="Times,serif" font-size="14.00" fill="#000000">CapabilitiesController</text>
<polyline fill="none" stroke="#000000" points="448,-422.5 588.4209,-422.5 "/>
<text text-anchor="start" x="456" y="-407.3" font-family="Times,serif" font-size="14.00" fill="#000000">create</text>
<text text-anchor="start" x="456" y="-393.3" font-family="Times,serif" font-size="14.00" fill="#000000">destroy</text>
<text text-anchor="start" x="456" y="-379.3" font-family="Times,serif" font-size="14.00" fill="#000000">edit</text>
<text text-anchor="start" x="456" y="-365.3" font-family="Times,serif" font-size="14.00" fill="#000000">index</text>
<text text-anchor="start" x="456" y="-351.3" font-family="Times,serif" font-size="14.00" fill="#000000">new</text>
<text text-anchor="start" x="456" y="-337.3" font-family="Times,serif" font-size="14.00" fill="#000000">show</text>
<text text-anchor="start" x="456" y="-323.3" font-family="Times,serif" font-size="14.00" fill="#000000">update</text>
<polyline fill="none" stroke="#000000" points="448,-316.5 588.4209,-316.5 "/>
<polyline fill="none" stroke="#000000" points="448,-292.5 588.4209,-292.5 "/>
<text text-anchor="start" x="456" y="-277.3" font-family="Times,serif" font-size="14.00" fill="#000000">capability_params</text>
<text text-anchor="start" x="456" y="-263.3" font-family="Times,serif" font-size="14.00" fill="#000000">set_capability</text>
</g>
<!-- IdentitiesController -->
<g id="node15" class="node">
<title>IdentitiesController</title>
<path fill="none" stroke="#000000" d="M332,-672.5C332,-672.5 433.6416,-672.5 433.6416,-672.5 439.6416,-672.5 445.6416,-678.5 445.6416,-684.5 445.6416,-684.5 445.6416,-752.5 445.6416,-752.5 445.6416,-758.5 439.6416,-764.5 433.6416,-764.5 433.6416,-764.5 332,-764.5 332,-764.5 326,-764.5 320,-758.5 320,-752.5 320,-752.5 320,-684.5 320,-684.5 320,-678.5 326,-672.5 332,-672.5"/>
<text text-anchor="middle" x="382.8208" y="-749.3" font-family="Times,serif" font-size="14.00" fill="#000000">IdentitiesController</text>
<polyline fill="none" stroke="#000000" points="320,-742.5 445.6416,-742.5 "/>
<text text-anchor="start" x="328" y="-727.3" font-family="Times,serif" font-size="14.00" fill="#000000">destroy</text>
<polyline fill="none" stroke="#000000" points="320,-720.5 445.6416,-720.5 "/>
<polyline fill="none" stroke="#000000" points="320,-696.5 445.6416,-696.5 "/>
</g>
<!-- MembersController -->
<g id="node16" class="node">
<title>MembersController</title>
<path fill="none" stroke="#000000" d="M140,-576.5C140,-576.5 242.4209,-576.5 242.4209,-576.5 248.4209,-576.5 254.4209,-582.5 254.4209,-588.5 254.4209,-588.5 254.4209,-752.5 254.4209,-752.5 254.4209,-758.5 248.4209,-764.5 242.4209,-764.5 242.4209,-764.5 140,-764.5 140,-764.5 134,-764.5 128,-758.5 128,-752.5 128,-752.5 128,-588.5 128,-588.5 128,-582.5 134,-576.5 140,-576.5"/>
<text text-anchor="middle" x="191.2104" y="-749.3" font-family="Times,serif" font-size="14.00" fill="#000000">MembersController</text>
<polyline fill="none" stroke="#000000" points="128,-742.5 254.4209,-742.5 "/>
<text text-anchor="start" x="136" y="-727.3" font-family="Times,serif" font-size="14.00" fill="#000000">create</text>
<text text-anchor="start" x="136" y="-713.3" font-family="Times,serif" font-size="14.00" fill="#000000">destroy</text>
<text text-anchor="start" x="136" y="-699.3" font-family="Times,serif" font-size="14.00" fill="#000000">edit</text>
<text text-anchor="start" x="136" y="-685.3" font-family="Times,serif" font-size="14.00" fill="#000000">index</text>
<text text-anchor="start" x="136" y="-671.3" font-family="Times,serif" font-size="14.00" fill="#000000">new</text>
<text text-anchor="start" x="136" y="-657.3" font-family="Times,serif" font-size="14.00" fill="#000000">show</text>
<text text-anchor="start" x="136" y="-643.3" font-family="Times,serif" font-size="14.00" fill="#000000">update</text>
<polyline fill="none" stroke="#000000" points="128,-636.5 254.4209,-636.5 "/>
<polyline fill="none" stroke="#000000" points="128,-612.5 254.4209,-612.5 "/>
<text text-anchor="start" x="136" y="-597.3" font-family="Times,serif" font-size="14.00" fill="#000000">member_params</text>
<text text-anchor="start" x="136" y="-583.3" font-family="Times,serif" font-size="14.00" fill="#000000">set_member</text>
</g>
<!-- RolesController -->
<g id="node17" class="node">
<title>RolesController</title>
<path fill="none" stroke="#000000" d="M140,-128.5C140,-128.5 221.4346,-128.5 221.4346,-128.5 227.4346,-128.5 233.4346,-134.5 233.4346,-140.5 233.4346,-140.5 233.4346,-304.5 233.4346,-304.5 233.4346,-310.5 227.4346,-316.5 221.4346,-316.5 221.4346,-316.5 140,-316.5 140,-316.5 134,-316.5 128,-310.5 128,-304.5 128,-304.5 128,-140.5 128,-140.5 128,-134.5 134,-128.5 140,-128.5"/>
<text text-anchor="middle" x="180.7173" y="-301.3" font-family="Times,serif" font-size="14.00" fill="#000000">RolesController</text>
<polyline fill="none" stroke="#000000" points="128,-294.5 233.4346,-294.5 "/>
<text text-anchor="start" x="136" y="-279.3" font-family="Times,serif" font-size="14.00" fill="#000000">create</text>
<text text-anchor="start" x="136" y="-265.3" font-family="Times,serif" font-size="14.00" fill="#000000">destroy</text>
<text text-anchor="start" x="136" y="-251.3" font-family="Times,serif" font-size="14.00" fill="#000000">edit</text>
<text text-anchor="start" x="136" y="-237.3" font-family="Times,serif" font-size="14.00" fill="#000000">index</text>
<text text-anchor="start" x="136" y="-223.3" font-family="Times,serif" font-size="14.00" fill="#000000">new</text>
<text text-anchor="start" x="136" y="-209.3" font-family="Times,serif" font-size="14.00" fill="#000000">show</text>
<text text-anchor="start" x="136" y="-195.3" font-family="Times,serif" font-size="14.00" fill="#000000">update</text>
<polyline fill="none" stroke="#000000" points="128,-188.5 233.4346,-188.5 "/>
<polyline fill="none" stroke="#000000" points="128,-164.5 233.4346,-164.5 "/>
<text text-anchor="start" x="136" y="-149.3" font-family="Times,serif" font-size="14.00" fill="#000000">role_params</text>
<text text-anchor="start" x="136" y="-135.3" font-family="Times,serif" font-size="14.00" fill="#000000">set_role</text>
</g>
</g>
</svg>
