<?xml version="1.0" encoding="UTF-8" standalone="no"?>
<!DOCTYPE svg PUBLIC "-//W3C//DTD SVG 1.1//EN"
 "http://www.w3.org/Graphics/SVG/1.1/DTD/svg11.dtd">
<!-- Generated by graphviz version 2.38.0 (20140413.2041)
 -->
<!-- Title: controllers_diagram Pages: 1 -->
<svg width="854pt" height="869pt"
 viewBox="0.00 0.00 854.04 869.00" xmlns="http://www.w3.org/2000/svg" xmlns:xlink="http://www.w3.org/1999/xlink">
<g id="graph0" class="graph" transform="scale(1 1) rotate(0) translate(355.99 481.5)">
<title>controllers_diagram</title>
<polygon fill="none" stroke="none" points="-355.99,387.5 -355.99,-481.5 498.052,-481.5 498.052,387.5 -355.99,387.5"/>
<!-- _diagram_info -->
<g id="node1" class="node"><title>_diagram_info</title>
<text text-anchor="start" x="-151.72" y="164.9" font-family="Times,serif" font-size="13.00">Controllers diagram</text>
<text text-anchor="start" x="-151.72" y="177.9" font-family="Times,serif" font-size="13.00">Date: Jun 28 2016 &#45; 15:14</text>
<text text-anchor="start" x="-151.72" y="190.9" font-family="Times,serif" font-size="13.00">Migration version: 1</text>
<text text-anchor="start" x="-151.72" y="203.9" font-family="Times,serif" font-size="13.00">Generated by RailRoady 1.5.1</text>
<text text-anchor="start" x="-151.72" y="216.9" font-family="Times,serif" font-size="13.00">http://railroady.prestonlee.com</text>
</g>
<!-- ActivitiesController -->
<g id="node2" class="node"><title>ActivitiesController</title>
<path fill="none" stroke="black" d="M-339.99,-353C-339.99,-353 -236.01,-353 -236.01,-353 -230.01,-353 -224.01,-359 -224.01,-365 -224.01,-365 -224.01,-431 -224.01,-431 -224.01,-437 -230.01,-443 -236.01,-443 -236.01,-443 -339.99,-443 -339.99,-443 -345.99,-443 -351.99,-437 -351.99,-431 -351.99,-431 -351.99,-365 -351.99,-365 -351.99,-359 -345.99,-353 -339.99,-353"/>
<text text-anchor="middle" x="-288" y="-427.8" font-family="Times,serif" font-size="14.00">ActivitiesController</text>
<polyline fill="none" stroke="black" points="-351.99,-421 -224.01,-421 "/>
<text text-anchor="start" x="-343.99" y="-405.8" font-family="Times,serif" font-size="14.00">index</text>
<polyline fill="none" stroke="black" points="-351.99,-399 -224.01,-399 "/>
<polyline fill="none" stroke="black" points="-351.99,-375 -224.01,-375 "/>
<text text-anchor="start" x="-343.99" y="-359.8" font-family="Times,serif" font-size="14.00">_layout</text>
</g>
<!-- ActorRolesController -->
<g id="node3" class="node"><title>ActorRolesController</title>
<path fill="none" stroke="black" d="M316.345,127C316.345,127 429.655,127 429.655,127 435.655,127 441.655,121 441.655,115 441.655,115 441.655,47 441.655,47 441.655,41 435.655,35 429.655,35 429.655,35 316.345,35 316.345,35 310.345,35 304.345,41 304.345,47 304.345,47 304.345,115 304.345,115 304.345,121 310.345,127 316.345,127"/>
<text text-anchor="middle" x="373" y="50.2" font-family="Times,serif" font-size="14.00">ActorRolesController</text>
<polyline fill="none" stroke="black" points="304.345,57 441.655,57 "/>
<polyline fill="none" stroke="black" points="304.345,81 441.655,81 "/>
<polyline fill="none" stroke="black" points="304.345,105 441.655,105 "/>
<text text-anchor="start" x="312.345" y="120.2" font-family="Times,serif" font-size="14.00">_layout</text>
</g>
<!-- ApplicationController -->
<g id="node4" class="node"><title>ApplicationController</title>
<path fill="none" stroke="black" d="M-99.5176,111C-99.5176,111 77.5176,111 77.5176,111 83.5176,111 89.5176,105 89.5176,99 89.5176,99 89.5176,-93 89.5176,-93 89.5176,-99 83.5176,-105 77.5176,-105 77.5176,-105 -99.5176,-105 -99.5176,-105 -105.518,-105 -111.518,-99 -111.518,-93 -111.518,-93 -111.518,99 -111.518,99 -111.518,105 -105.518,111 -99.5176,111"/>
<text text-anchor="middle" x="-11" y="-89.8" font-family="Times,serif" font-size="14.00">ApplicationController</text>
<polyline fill="none" stroke="black" points="-111.518,-83 89.5176,-83 "/>
<text text-anchor="start" x="-103.518" y="-67.8" font-family="Times,serif" font-size="14.00">unauthenticate!</text>
<text text-anchor="start" x="-103.518" y="-53.8" font-family="Times,serif" font-size="14.00">build_oauth_request</text>
<text text-anchor="start" x="-103.518" y="-39.8" font-family="Times,serif" font-size="14.00">cors_preflight_check</text>
<text text-anchor="start" x="-103.518" y="-25.8" font-family="Times,serif" font-size="14.00">cors_set_access_control_headers</text>
<text text-anchor="start" x="-103.518" y="-11.8" font-family="Times,serif" font-size="14.00">current_identity</text>
<text text-anchor="start" x="-103.518" y="2.2" font-family="Times,serif" font-size="14.00">current_person</text>
<text text-anchor="start" x="-103.518" y="16.2" font-family="Times,serif" font-size="14.00">new_nonce</text>
<text text-anchor="start" x="-103.518" y="30.2" font-family="Times,serif" font-size="14.00">set_options_from</text>
<text text-anchor="start" x="-103.518" y="44.2" font-family="Times,serif" font-size="14.00">stored_nonce</text>
<text text-anchor="start" x="-103.518" y="58.2" font-family="Times,serif" font-size="14.00">authenticate_identity!</text>
<polyline fill="none" stroke="black" points="-111.518,65 89.5176,65 "/>
<polyline fill="none" stroke="black" points="-111.518,89 89.5176,89 "/>
<text text-anchor="start" x="-103.518" y="104.2" font-family="Times,serif" font-size="14.00">_layout</text>
</g>
<!-- AssetsController -->
<g id="node5" class="node"><title>AssetsController</title>
<path fill="none" stroke="black" d="M395.948,-385C395.948,-385 482.052,-385 482.052,-385 488.052,-385 494.052,-391 494.052,-397 494.052,-397 494.052,-465 494.052,-465 494.052,-471 488.052,-477 482.052,-477 482.052,-477 395.948,-477 395.948,-477 389.948,-477 383.948,-471 383.948,-465 383.948,-465 383.948,-397 383.948,-397 383.948,-391 389.948,-385 395.948,-385"/>
<text text-anchor="middle" x="439" y="-461.8" font-family="Times,serif" font-size="14.00">AssetsController</text>
<polyline fill="none" stroke="black" points="383.948,-455 494.052,-455 "/>
<polyline fill="none" stroke="black" points="383.948,-431 494.052,-431 "/>
<polyline fill="none" stroke="black" points="383.948,-407 494.052,-407 "/>
<text text-anchor="start" x="391.948" y="-391.8" font-family="Times,serif" font-size="14.00">_layout</text>
</g>
<!-- CapabilitiesController -->
<g id="node6" class="node"><title>CapabilitiesController</title>
<path fill="none" stroke="black" d="M139.79,127C139.79,127 256.21,127 256.21,127 262.21,127 268.21,121 268.21,115 268.21,115 268.21,-63 268.21,-63 268.21,-69 262.21,-75 256.21,-75 256.21,-75 139.79,-75 139.79,-75 133.79,-75 127.79,-69 127.79,-63 127.79,-63 127.79,115 127.79,115 127.79,121 133.79,127 139.79,127"/>
<text text-anchor="middle" x="198" y="-59.8" font-family="Times,serif" font-size="14.00">CapabilitiesController</text>
<polyline fill="none" stroke="black" points="127.79,-53 268.21,-53 "/>
<text text-anchor="start" x="135.79" y="-37.8" font-family="Times,serif" font-size="14.00">index</text>
<text text-anchor="start" x="135.79" y="-23.8" font-family="Times,serif" font-size="14.00">destroy</text>
<text text-anchor="start" x="135.79" y="-9.8" font-family="Times,serif" font-size="14.00">edit</text>
<text text-anchor="start" x="135.79" y="4.2" font-family="Times,serif" font-size="14.00">create</text>
<text text-anchor="start" x="135.79" y="18.2" font-family="Times,serif" font-size="14.00">new</text>
<text text-anchor="start" x="135.79" y="32.2" font-family="Times,serif" font-size="14.00">show</text>
<text text-anchor="start" x="135.79" y="46.2" font-family="Times,serif" font-size="14.00">update</text>
<polyline fill="none" stroke="black" points="127.79,53 268.21,53 "/>
<polyline fill="none" stroke="black" points="127.79,77 268.21,77 "/>
<text text-anchor="start" x="135.79" y="92.2" font-family="Times,serif" font-size="14.00">_layout</text>
<text text-anchor="start" x="135.79" y="106.2" font-family="Times,serif" font-size="14.00">capability_params</text>
<text text-anchor="start" x="135.79" y="120.2" font-family="Times,serif" font-size="14.00">set_capability</text>
</g>
<!-- ClientsController -->
<g id="node7" class="node"><title>ClientsController</title>
<path fill="none" stroke="black" d="M300.393,-113C300.393,-113 389.607,-113 389.607,-113 395.607,-113 401.607,-119 401.607,-125 401.607,-125 401.607,-205 401.607,-205 401.607,-211 395.607,-217 389.607,-217 389.607,-217 300.393,-217 300.393,-217 294.393,-217 288.393,-211 288.393,-205 288.393,-205 288.393,-125 288.393,-125 288.393,-119 294.393,-113 300.393,-113"/>
<text text-anchor="middle" x="345" y="-201.8" font-family="Times,serif" font-size="14.00">ClientsController</text>
<polyline fill="none" stroke="black" points="288.393,-195 401.607,-195 "/>
<text text-anchor="start" x="296.393" y="-179.8" font-family="Times,serif" font-size="14.00">index</text>
<text text-anchor="start" x="296.393" y="-165.8" font-family="Times,serif" font-size="14.00">launch</text>
<polyline fill="none" stroke="black" points="288.393,-159 401.607,-159 "/>
<polyline fill="none" stroke="black" points="288.393,-135 401.607,-135 "/>
<text text-anchor="start" x="296.393" y="-119.8" font-family="Times,serif" font-size="14.00">_layout</text>
</g>
<!-- ContextsController -->
<g id="node8" class="node"><title>ContextsController</title>
<path fill="none" stroke="black" d="M140.338,-353C140.338,-353 239.662,-353 239.662,-353 245.662,-353 251.662,-359 251.662,-365 251.662,-365 251.662,-433 251.662,-433 251.662,-439 245.662,-445 239.662,-445 239.662,-445 140.338,-445 140.338,-445 134.338,-445 128.338,-439 128.338,-433 128.338,-433 128.338,-365 128.338,-365 128.338,-359 134.338,-353 140.338,-353"/>
<text text-anchor="middle" x="190" y="-429.8" font-family="Times,serif" font-size="14.00">ContextsController</text>
<polyline fill="none" stroke="black" points="128.338,-423 251.662,-423 "/>
<polyline fill="none" stroke="black" points="128.338,-399 251.662,-399 "/>
<polyline fill="none" stroke="black" points="128.338,-375 251.662,-375 "/>
<text text-anchor="start" x="136.338" y="-359.8" font-family="Times,serif" font-size="14.00">_layout</text>
</g>
<!-- FociController -->
<g id="node9" class="node"><title>FociController</title>
<path fill="none" stroke="black" d="M-276.217,287C-276.217,287 -201.783,287 -201.783,287 -195.783,287 -189.783,281 -189.783,275 -189.783,275 -189.783,97 -189.783,97 -189.783,91 -195.783,85 -201.783,85 -201.783,85 -276.217,85 -276.217,85 -282.217,85 -288.217,91 -288.217,97 -288.217,97 -288.217,275 -288.217,275 -288.217,281 -282.217,287 -276.217,287"/>
<text text-anchor="middle" x="-239" y="100.2" font-family="Times,serif" font-size="14.00">FociController</text>
<polyline fill="none" stroke="black" points="-288.217,107 -189.783,107 "/>
<text text-anchor="start" x="-280.217" y="122.2" font-family="Times,serif" font-size="14.00">index</text>
<text text-anchor="start" x="-280.217" y="136.2" font-family="Times,serif" font-size="14.00">destroy</text>
<text text-anchor="start" x="-280.217" y="150.2" font-family="Times,serif" font-size="14.00">edit</text>
<text text-anchor="start" x="-280.217" y="164.2" font-family="Times,serif" font-size="14.00">create</text>
<text text-anchor="start" x="-280.217" y="178.2" font-family="Times,serif" font-size="14.00">new</text>
<text text-anchor="start" x="-280.217" y="192.2" font-family="Times,serif" font-size="14.00">show</text>
<text text-anchor="start" x="-280.217" y="206.2" font-family="Times,serif" font-size="14.00">update</text>
<polyline fill="none" stroke="black" points="-288.217,213 -189.783,213 "/>
<polyline fill="none" stroke="black" points="-288.217,237 -189.783,237 "/>
<text text-anchor="start" x="-280.217" y="252.2" font-family="Times,serif" font-size="14.00">_layout</text>
<text text-anchor="start" x="-280.217" y="266.2" font-family="Times,serif" font-size="14.00">focus_params</text>
<text text-anchor="start" x="-280.217" y="280.2" font-family="Times,serif" font-size="14.00">set_focus</text>
</g>
<!-- GroupsController -->
<g id="node10" class="node"><title>GroupsController</title>
<path fill="none" stroke="black" d="M-4.38281,-145C-4.38281,-145 86.3828,-145 86.3828,-145 92.3828,-145 98.3828,-151 98.3828,-157 98.3828,-157 98.3828,-335 98.3828,-335 98.3828,-341 92.3828,-347 86.3828,-347 86.3828,-347 -4.38281,-347 -4.38281,-347 -10.3828,-347 -16.3828,-341 -16.3828,-335 -16.3828,-335 -16.3828,-157 -16.3828,-157 -16.3828,-151 -10.3828,-145 -4.38281,-145"/>
<text text-anchor="middle" x="41" y="-331.8" font-family="Times,serif" font-size="14.00">GroupsController</text>
<polyline fill="none" stroke="black" points="-16.3828,-325 98.3828,-325 "/>
<text text-anchor="start" x="-8.38281" y="-309.8" font-family="Times,serif" font-size="14.00">index</text>
<text text-anchor="start" x="-8.38281" y="-295.8" font-family="Times,serif" font-size="14.00">destroy</text>
<text text-anchor="start" x="-8.38281" y="-281.8" font-family="Times,serif" font-size="14.00">edit</text>
<text text-anchor="start" x="-8.38281" y="-267.8" font-family="Times,serif" font-size="14.00">create</text>
<text text-anchor="start" x="-8.38281" y="-253.8" font-family="Times,serif" font-size="14.00">new</text>
<text text-anchor="start" x="-8.38281" y="-239.8" font-family="Times,serif" font-size="14.00">show</text>
<text text-anchor="start" x="-8.38281" y="-225.8" font-family="Times,serif" font-size="14.00">update</text>
<polyline fill="none" stroke="black" points="-16.3828,-219 98.3828,-219 "/>
<polyline fill="none" stroke="black" points="-16.3828,-195 98.3828,-195 "/>
<text text-anchor="start" x="-8.38281" y="-179.8" font-family="Times,serif" font-size="14.00">_layout</text>
<text text-anchor="start" x="-8.38281" y="-165.8" font-family="Times,serif" font-size="14.00">group_params</text>
<text text-anchor="start" x="-8.38281" y="-151.8" font-family="Times,serif" font-size="14.00">set_group</text>
</g>
<!-- IdentitiesController -->
<g id="node11" class="node"><title>IdentitiesController</title>
<path fill="none" stroke="black" d="M-339.821,-225C-339.821,-225 -238.179,-225 -238.179,-225 -232.179,-225 -226.179,-231 -226.179,-237 -226.179,-237 -226.179,-303 -226.179,-303 -226.179,-309 -232.179,-315 -238.179,-315 -238.179,-315 -339.821,-315 -339.821,-315 -345.821,-315 -351.821,-309 -351.821,-303 -351.821,-303 -351.821,-237 -351.821,-237 -351.821,-231 -345.821,-225 -339.821,-225"/>
<text text-anchor="middle" x="-289" y="-299.8" font-family="Times,serif" font-size="14.00">IdentitiesController</text>
<polyline fill="none" stroke="black" points="-351.821,-293 -226.179,-293 "/>
<text text-anchor="start" x="-343.821" y="-277.8" font-family="Times,serif" font-size="14.00">destroy</text>
<polyline fill="none" stroke="black" points="-351.821,-271 -226.179,-271 "/>
<polyline fill="none" stroke="black" points="-351.821,-247 -226.179,-247 "/>
<text text-anchor="start" x="-343.821" y="-231.8" font-family="Times,serif" font-size="14.00">_layout</text>
</g>
<!-- MembersController -->
<g id="node12" class="node"><title>MembersController</title>
<path fill="none" stroke="black" d="M139.79,-113C139.79,-113 242.21,-113 242.21,-113 248.21,-113 254.21,-119 254.21,-125 254.21,-125 254.21,-303 254.21,-303 254.21,-309 248.21,-315 242.21,-315 242.21,-315 139.79,-315 139.79,-315 133.79,-315 127.79,-309 127.79,-303 127.79,-303 127.79,-125 127.79,-125 127.79,-119 133.79,-113 139.79,-113"/>
<text text-anchor="middle" x="191" y="-299.8" font-family="Times,serif" font-size="14.00">MembersController</text>
<polyline fill="none" stroke="black" points="127.79,-293 254.21,-293 "/>
<text text-anchor="start" x="135.79" y="-277.8" font-family="Times,serif" font-size="14.00">index</text>
<text text-anchor="start" x="135.79" y="-263.8" font-family="Times,serif" font-size="14.00">destroy</text>
<text text-anchor="start" x="135.79" y="-249.8" font-family="Times,serif" font-size="14.00">edit</text>
<text text-anchor="start" x="135.79" y="-235.8" font-family="Times,serif" font-size="14.00">create</text>
<text text-anchor="start" x="135.79" y="-221.8" font-family="Times,serif" font-size="14.00">new</text>
<text text-anchor="start" x="135.79" y="-207.8" font-family="Times,serif" font-size="14.00">show</text>
<text text-anchor="start" x="135.79" y="-193.8" font-family="Times,serif" font-size="14.00">update</text>
<polyline fill="none" stroke="black" points="127.79,-187 254.21,-187 "/>
<polyline fill="none" stroke="black" points="127.79,-163 254.21,-163 "/>
<text text-anchor="start" x="135.79" y="-147.8" font-family="Times,serif" font-size="14.00">_layout</text>
<text text-anchor="start" x="135.79" y="-133.8" font-family="Times,serif" font-size="14.00">member_params</text>
<text text-anchor="start" x="135.79" y="-119.8" font-family="Times,serif" font-size="14.00">set_member</text>
</g>
<!-- ObjectivesController -->
<g id="node13" class="node"><title>ObjectivesController</title>
<path fill="none" stroke="black" d="M300.293,-257C300.293,-257 409.707,-257 409.707,-257 415.707,-257 421.707,-263 421.707,-269 421.707,-269 421.707,-337 421.707,-337 421.707,-343 415.707,-349 409.707,-349 409.707,-349 300.293,-349 300.293,-349 294.293,-349 288.293,-343 288.293,-337 288.293,-337 288.293,-269 288.293,-269 288.293,-263 294.293,-257 300.293,-257"/>
<text text-anchor="middle" x="355" y="-333.8" font-family="Times,serif" font-size="14.00">ObjectivesController</text>
<polyline fill="none" stroke="black" points="288.293,-327 421.707,-327 "/>
<polyline fill="none" stroke="black" points="288.293,-303 421.707,-303 "/>
<polyline fill="none" stroke="black" points="288.293,-279 421.707,-279 "/>
<text text-anchor="start" x="296.293" y="-263.8" font-family="Times,serif" font-size="14.00">_layout</text>
</g>
<!-- PeopleController -->
<g id="node14" class="node"><title>PeopleController</title>
<path fill="none" stroke="black" d="M-3.82422,-385C-3.82422,-385 83.8242,-385 83.8242,-385 89.8242,-385 95.8242,-391 95.8242,-397 95.8242,-397 95.8242,-463 95.8242,-463 95.8242,-469 89.8242,-475 83.8242,-475 83.8242,-475 -3.82422,-475 -3.82422,-475 -9.82422,-475 -15.8242,-469 -15.8242,-463 -15.8242,-463 -15.8242,-397 -15.8242,-397 -15.8242,-391 -9.82422,-385 -3.82422,-385"/>
<text text-anchor="middle" x="40" y="-459.8" font-family="Times,serif" font-size="14.00">PeopleController</text>
<polyline fill="none" stroke="black" points="-15.8242,-453 95.8242,-453 "/>
<text text-anchor="start" x="-7.82422" y="-437.8" font-family="Times,serif" font-size="14.00">index</text>
<polyline fill="none" stroke="black" points="-15.8242,-431 95.8242,-431 "/>
<polyline fill="none" stroke="black" points="-15.8242,-407 95.8242,-407 "/>
<text text-anchor="start" x="-7.82422" y="-391.8" font-family="Times,serif" font-size="14.00">_layout</text>
</g>
<!-- PlacesController -->
<g id="node15" class="node"><title>PlacesController</title>
<path fill="none" stroke="black" d="M28.3447,383C28.3447,383 113.655,383 113.655,383 119.655,383 125.655,377 125.655,371 125.655,371 125.655,303 125.655,303 125.655,297 119.655,291 113.655,291 113.655,291 28.3447,291 28.3447,291 22.3447,291 16.3447,297 16.3447,303 16.3447,303 16.3447,371 16.3447,371 16.3447,377 22.3447,383 28.3447,383"/>
<text text-anchor="middle" x="71" y="306.2" font-family="Times,serif" font-size="14.00">PlacesController</text>
<polyline fill="none" stroke="black" points="16.3447,313 125.655,313 "/>
<polyline fill="none" stroke="black" points="16.3447,337 125.655,337 "/>
<polyline fill="none" stroke="black" points="16.3447,361 125.655,361 "/>
<text text-anchor="start" x="24.3447" y="376.2" font-family="Times,serif" font-size="14.00">_layout</text>
</g>
<!-- RolesController -->
<g id="node16" class="node"><title>RolesController</title>
<path fill="none" stroke="black" d="M-243.717,47C-243.717,47 -162.283,47 -162.283,47 -156.283,47 -150.283,41 -150.283,35 -150.283,35 -150.283,-143 -150.283,-143 -150.283,-149 -156.283,-155 -162.283,-155 -162.283,-155 -243.717,-155 -243.717,-155 -249.717,-155 -255.717,-149 -255.717,-143 -255.717,-143 -255.717,35 -255.717,35 -255.717,41 -249.717,47 -243.717,47"/>
<text text-anchor="middle" x="-203" y="-139.8" font-family="Times,serif" font-size="14.00">RolesController</text>
<polyline fill="none" stroke="black" points="-255.717,-133 -150.283,-133 "/>
<text text-anchor="start" x="-247.717" y="-117.8" font-family="Times,serif" font-size="14.00">index</text>
<text text-anchor="start" x="-247.717" y="-103.8" font-family="Times,serif" font-size="14.00">destroy</text>
<text text-anchor="start" x="-247.717" y="-89.8" font-family="Times,serif" font-size="14.00">edit</text>
<text text-anchor="start" x="-247.717" y="-75.8" font-family="Times,serif" font-size="14.00">create</text>
<text text-anchor="start" x="-247.717" y="-61.8" font-family="Times,serif" font-size="14.00">new</text>
<text text-anchor="start" x="-247.717" y="-47.8" font-family="Times,serif" font-size="14.00">show</text>
<text text-anchor="start" x="-247.717" y="-33.8" font-family="Times,serif" font-size="14.00">update</text>
<polyline fill="none" stroke="black" points="-255.717,-27 -150.283,-27 "/>
<polyline fill="none" stroke="black" points="-255.717,-3 -150.283,-3 "/>
<text text-anchor="start" x="-247.717" y="12.2" font-family="Times,serif" font-size="14.00">_layout</text>
<text text-anchor="start" x="-247.717" y="26.2" font-family="Times,serif" font-size="14.00">role_params</text>
<text text-anchor="start" x="-247.717" y="40.2" font-family="Times,serif" font-size="14.00">set_role</text>
</g>
<!-- SessionsController -->
<g id="node17" class="node"><title>SessionsController</title>
<path fill="none" stroke="black" d="M-180.207,-193C-180.207,-193 -63.793,-193 -63.793,-193 -57.793,-193 -51.793,-199 -51.793,-205 -51.793,-205 -51.793,-341 -51.793,-341 -51.793,-347 -57.793,-353 -63.793,-353 -63.793,-353 -180.207,-353 -180.207,-353 -186.207,-353 -192.207,-347 -192.207,-341 -192.207,-341 -192.207,-205 -192.207,-205 -192.207,-199 -186.207,-193 -180.207,-193"/>
<text text-anchor="middle" x="-122" y="-337.8" font-family="Times,serif" font-size="14.00">SessionsController</text>
<polyline fill="none" stroke="black" points="-192.207,-331 -51.793,-331 "/>
<text text-anchor="start" x="-184.207" y="-315.8" font-family="Times,serif" font-size="14.00">authenticate</text>
<text text-anchor="start" x="-184.207" y="-301.8" font-family="Times,serif" font-size="14.00">callback</text>
<text text-anchor="start" x="-184.207" y="-287.8" font-family="Times,serif" font-size="14.00">cleanse_session</text>
<text text-anchor="start" x="-184.207" y="-273.8" font-family="Times,serif" font-size="14.00">destroy</text>
<text text-anchor="start" x="-184.207" y="-259.8" font-family="Times,serif" font-size="14.00">openid_connect_login</text>
<text text-anchor="start" x="-184.207" y="-245.8" font-family="Times,serif" font-size="14.00">public_keys_for</text>
<polyline fill="none" stroke="black" points="-192.207,-239 -51.793,-239 "/>
<polyline fill="none" stroke="black" points="-192.207,-215 -51.793,-215 "/>
<text text-anchor="start" x="-184.207" y="-199.8" font-family="Times,serif" font-size="14.00">_layout</text>
</g>
<!-- Smart::LaunchController -->
<g id="node18" class="node"><title>Smart::LaunchController</title>
<path fill="none" stroke="black" d="M59.6274,255C59.6274,255 192.373,255 192.373,255 198.373,255 204.373,249 204.373,243 204.373,243 204.373,177 204.373,177 204.373,171 198.373,165 192.373,165 192.373,165 59.6274,165 59.6274,165 53.6274,165 47.6274,171 47.6274,177 47.6274,177 47.6274,243 47.6274,243 47.6274,249 53.6274,255 59.6274,255"/>
<text text-anchor="middle" x="126" y="180.2" font-family="Times,serif" font-size="14.00">Smart::LaunchController</text>
<polyline fill="none" stroke="black" points="47.6274,187 204.373,187 "/>
<text text-anchor="start" x="55.6274" y="202.2" font-family="Times,serif" font-size="14.00">launch</text>
<polyline fill="none" stroke="black" points="47.6274,209 204.373,209 "/>
<polyline fill="none" stroke="black" points="47.6274,233 204.373,233 "/>
<text text-anchor="start" x="55.6274" y="248.2" font-family="Times,serif" font-size="14.00">_layout</text>
</g>
<!-- UsageRolesController -->
<g id="node19" class="node"><title>UsageRolesController</title>
<path fill="none" stroke="black" d="M-148.21,351C-148.21,351 -31.7896,351 -31.7896,351 -25.7896,351 -19.7896,345 -19.7896,339 -19.7896,339 -19.7896,271 -19.7896,271 -19.7896,265 -25.7896,259 -31.7896,259 -31.7896,259 -148.21,259 -148.21,259 -154.21,259 -160.21,265 -160.21,271 -160.21,271 -160.21,339 -160.21,339 -160.21,345 -154.21,351 -148.21,351"/>
<text text-anchor="middle" x="-90" y="274.2" font-family="Times,serif" font-size="14.00">UsageRolesController</text>
<polyline fill="none" stroke="black" points="-160.21,281 -19.7896,281 "/>
<polyline fill="none" stroke="black" points="-160.21,305 -19.7896,305 "/>
<polyline fill="none" stroke="black" points="-160.21,329 -19.7896,329 "/>
<text text-anchor="start" x="-152.21" y="344.2" font-family="Times,serif" font-size="14.00">_layout</text>
</g>
<!-- WelcomeController -->
<g id="node20" class="node"><title>WelcomeController</title>
<path fill="none" stroke="black" d="M251.967,271C251.967,271 354.033,271 354.033,271 360.033,271 366.033,265 366.033,259 366.033,259 366.033,165 366.033,165 366.033,159 360.033,153 354.033,153 354.033,153 251.967,153 251.967,153 245.967,153 239.967,159 239.967,165 239.967,165 239.967,259 239.967,259 239.967,265 245.967,271 251.967,271"/>
<text text-anchor="middle" x="303" y="168.2" font-family="Times,serif" font-size="14.00">WelcomeController</text>
<polyline fill="none" stroke="black" points="239.967,175 366.033,175 "/>
<text text-anchor="start" x="247.967" y="190.2" font-family="Times,serif" font-size="14.00">dashboard</text>
<text text-anchor="start" x="247.967" y="204.2" font-family="Times,serif" font-size="14.00">landing</text>
<text text-anchor="start" x="247.967" y="218.2" font-family="Times,serif" font-size="14.00">status</text>
<polyline fill="none" stroke="black" points="239.967,225 366.033,225 "/>
<polyline fill="none" stroke="black" points="239.967,249 366.033,249 "/>
<text text-anchor="start" x="247.967" y="264.2" font-family="Times,serif" font-size="14.00">_layout</text>
</g>
</g>
</svg>
