<?xml version="1.0" encoding="UTF-8" standalone="no"?>
<!DOCTYPE svg PUBLIC "-//W3C//DTD SVG 1.1//EN"
 "http://www.w3.org/Graphics/SVG/1.1/DTD/svg11.dtd">
<!-- Generated by graphviz version 2.38.0 (20140413.2041)
 -->
<!-- Title: controllers_diagram Pages: 1 -->
<svg width="806pt" height="881pt"
 viewBox="0.00 0.00 806.02 881.00" xmlns="http://www.w3.org/2000/svg" xmlns:xlink="http://www.w3.org/1999/xlink">
<g id="graph0" class="graph" transform="scale(1 1) rotate(0) translate(371.99 493.5)">
<title>controllers_diagram</title>
<polygon fill="none" stroke="none" points="-371.99,387.5 -371.99,-493.5 434.033,-493.5 434.033,387.5 -371.99,387.5"/>
<!-- _diagram_info -->
<g id="node1" class="node"><title>_diagram_info</title>
<text text-anchor="start" x="8.27979" y="180.9" font-family="Times,serif" font-size="13.00">Controllers diagram</text>
<text text-anchor="start" x="8.27979" y="193.9" font-family="Times,serif" font-size="13.00">Date: Jun 24 2016 &#45; 12:16</text>
<text text-anchor="start" x="8.27979" y="206.9" font-family="Times,serif" font-size="13.00">Migration version: 1</text>
<text text-anchor="start" x="8.27979" y="219.9" font-family="Times,serif" font-size="13.00">Generated by RailRoady 1.4.2</text>
<text text-anchor="start" x="8.27979" y="232.9" font-family="Times,serif" font-size="13.00">http://railroady.prestonlee.com</text>
</g>
<!-- ActivitiesController -->
<g id="node2" class="node"><title>ActivitiesController</title>
<path fill="none" stroke="black" d="M-355.99,367C-355.99,367 -252.01,367 -252.01,367 -246.01,367 -240.01,361 -240.01,355 -240.01,355 -240.01,287 -240.01,287 -240.01,281 -246.01,275 -252.01,275 -252.01,275 -355.99,275 -355.99,275 -361.99,275 -367.99,281 -367.99,287 -367.99,287 -367.99,355 -367.99,355 -367.99,361 -361.99,367 -355.99,367"/>
<text text-anchor="middle" x="-304" y="290.2" font-family="Times,serif" font-size="14.00">ActivitiesController</text>
<polyline fill="none" stroke="black" points="-367.99,297 -240.01,297 "/>
<polyline fill="none" stroke="black" points="-367.99,321 -240.01,321 "/>
<polyline fill="none" stroke="black" points="-367.99,345 -240.01,345 "/>
<text text-anchor="start" x="-359.99" y="360.2" font-family="Times,serif" font-size="14.00">_layout</text>
</g>
<!-- ActorRolesController -->
<g id="node3" class="node"><title>ActorRolesController</title>
<path fill="none" stroke="black" d="M-323.655,-193C-323.655,-193 -210.345,-193 -210.345,-193 -204.345,-193 -198.345,-199 -198.345,-205 -198.345,-205 -198.345,-273 -198.345,-273 -198.345,-279 -204.345,-285 -210.345,-285 -210.345,-285 -323.655,-285 -323.655,-285 -329.655,-285 -335.655,-279 -335.655,-273 -335.655,-273 -335.655,-205 -335.655,-205 -335.655,-199 -329.655,-193 -323.655,-193"/>
<text text-anchor="middle" x="-267" y="-269.8" font-family="Times,serif" font-size="14.00">ActorRolesController</text>
<polyline fill="none" stroke="black" points="-335.655,-263 -198.345,-263 "/>
<polyline fill="none" stroke="black" points="-335.655,-239 -198.345,-239 "/>
<polyline fill="none" stroke="black" points="-335.655,-215 -198.345,-215 "/>
<text text-anchor="start" x="-327.655" y="-199.8" font-family="Times,serif" font-size="14.00">_layout</text>
</g>
<!-- ApplicationController -->
<g id="node4" class="node"><title>ApplicationController</title>
<path fill="none" stroke="black" d="M-99.5176,111C-99.5176,111 77.5176,111 77.5176,111 83.5176,111 89.5176,105 89.5176,99 89.5176,99 89.5176,-93 89.5176,-93 89.5176,-99 83.5176,-105 77.5176,-105 77.5176,-105 -99.5176,-105 -99.5176,-105 -105.518,-105 -111.518,-99 -111.518,-93 -111.518,-93 -111.518,99 -111.518,99 -111.518,105 -105.518,111 -99.5176,111"/>
<text text-anchor="middle" x="-11" y="-89.8" font-family="Times,serif" font-size="14.00">ApplicationController</text>
<polyline fill="none" stroke="black" points="-111.518,-83 89.5176,-83 "/>
<text text-anchor="start" x="-103.518" y="-67.8" font-family="Times,serif" font-size="14.00">unauthenticate!</text>
<text text-anchor="start" x="-103.518" y="-53.8" font-family="Times,serif" font-size="14.00">build_oauth_request</text>
<text text-anchor="start" x="-103.518" y="-39.8" font-family="Times,serif" font-size="14.00">cors_preflight_check</text>
<text text-anchor="start" x="-103.518" y="-25.8" font-family="Times,serif" font-size="14.00">cors_set_access_control_headers</text>
<text text-anchor="start" x="-103.518" y="-11.8" font-family="Times,serif" font-size="14.00">current_identity</text>
<text text-anchor="start" x="-103.518" y="2.2" font-family="Times,serif" font-size="14.00">current_person</text>
<text text-anchor="start" x="-103.518" y="16.2" font-family="Times,serif" font-size="14.00">new_nonce</text>
<text text-anchor="start" x="-103.518" y="30.2" font-family="Times,serif" font-size="14.00">set_options_from</text>
<text text-anchor="start" x="-103.518" y="44.2" font-family="Times,serif" font-size="14.00">stored_nonce</text>
<text text-anchor="start" x="-103.518" y="58.2" font-family="Times,serif" font-size="14.00">authenticate_identity!</text>
<polyline fill="none" stroke="black" points="-111.518,65 89.5176,65 "/>
<polyline fill="none" stroke="black" points="-111.518,89 89.5176,89 "/>
<text text-anchor="start" x="-103.518" y="104.2" font-family="Times,serif" font-size="14.00">_layout</text>
</g>
<!-- AssetsController -->
<g id="node5" class="node"><title>AssetsController</title>
<path fill="none" stroke="black" d="M315.948,383C315.948,383 402.052,383 402.052,383 408.052,383 414.052,377 414.052,371 414.052,371 414.052,303 414.052,303 414.052,297 408.052,291 402.052,291 402.052,291 315.948,291 315.948,291 309.948,291 303.948,297 303.948,303 303.948,303 303.948,371 303.948,371 303.948,377 309.948,383 315.948,383"/>
<text text-anchor="middle" x="359" y="306.2" font-family="Times,serif" font-size="14.00">AssetsController</text>
<polyline fill="none" stroke="black" points="303.948,313 414.052,313 "/>
<polyline fill="none" stroke="black" points="303.948,337 414.052,337 "/>
<polyline fill="none" stroke="black" points="303.948,361 414.052,361 "/>
<text text-anchor="start" x="311.948" y="376.2" font-family="Times,serif" font-size="14.00">_layout</text>
</g>
<!-- CapabilitiesController -->
<g id="node6" class="node"><title>CapabilitiesController</title>
<path fill="none" stroke="black" d="M139.79,127C139.79,127 256.21,127 256.21,127 262.21,127 268.21,121 268.21,115 268.21,115 268.21,-63 268.21,-63 268.21,-69 262.21,-75 256.21,-75 256.21,-75 139.79,-75 139.79,-75 133.79,-75 127.79,-69 127.79,-63 127.79,-63 127.79,115 127.79,115 127.79,121 133.79,127 139.79,127"/>
<text text-anchor="middle" x="198" y="-59.8" font-family="Times,serif" font-size="14.00">CapabilitiesController</text>
<polyline fill="none" stroke="black" points="127.79,-53 268.21,-53 "/>
<text text-anchor="start" x="135.79" y="-37.8" font-family="Times,serif" font-size="14.00">index</text>
<text text-anchor="start" x="135.79" y="-23.8" font-family="Times,serif" font-size="14.00">destroy</text>
<text text-anchor="start" x="135.79" y="-9.8" font-family="Times,serif" font-size="14.00">edit</text>
<text text-anchor="start" x="135.79" y="4.2" font-family="Times,serif" font-size="14.00">create</text>
<text text-anchor="start" x="135.79" y="18.2" font-family="Times,serif" font-size="14.00">new</text>
<text text-anchor="start" x="135.79" y="32.2" font-family="Times,serif" font-size="14.00">show</text>
<text text-anchor="start" x="135.79" y="46.2" font-family="Times,serif" font-size="14.00">update</text>
<polyline fill="none" stroke="black" points="127.79,53 268.21,53 "/>
<polyline fill="none" stroke="black" points="127.79,77 268.21,77 "/>
<text text-anchor="start" x="135.79" y="92.2" font-family="Times,serif" font-size="14.00">_layout</text>
<text text-anchor="start" x="135.79" y="106.2" font-family="Times,serif" font-size="14.00">capability_params</text>
<text text-anchor="start" x="135.79" y="120.2" font-family="Times,serif" font-size="14.00">set_capability</text>
</g>
<!-- ClientsController -->
<g id="node7" class="node"><title>ClientsController</title>
<path fill="none" stroke="black" d="M316.393,-305C316.393,-305 405.607,-305 405.607,-305 411.607,-305 417.607,-311 417.607,-317 417.607,-317 417.607,-397 417.607,-397 417.607,-403 411.607,-409 405.607,-409 405.607,-409 316.393,-409 316.393,-409 310.393,-409 304.393,-403 304.393,-397 304.393,-397 304.393,-317 304.393,-317 304.393,-311 310.393,-305 316.393,-305"/>
<text text-anchor="middle" x="361" y="-393.8" font-family="Times,serif" font-size="14.00">ClientsController</text>
<polyline fill="none" stroke="black" points="304.393,-387 417.607,-387 "/>
<text text-anchor="start" x="312.393" y="-371.8" font-family="Times,serif" font-size="14.00">index</text>
<text text-anchor="start" x="312.393" y="-357.8" font-family="Times,serif" font-size="14.00">launch</text>
<polyline fill="none" stroke="black" points="304.393,-351 417.607,-351 "/>
<polyline fill="none" stroke="black" points="304.393,-327 417.607,-327 "/>
<text text-anchor="start" x="312.393" y="-311.8" font-family="Times,serif" font-size="14.00">_layout</text>
</g>
<!-- ContextsController -->
<g id="node8" class="node"><title>ContextsController</title>
<path fill="none" stroke="black" d="M12.3379,367C12.3379,367 111.662,367 111.662,367 117.662,367 123.662,361 123.662,355 123.662,355 123.662,287 123.662,287 123.662,281 117.662,275 111.662,275 111.662,275 12.3379,275 12.3379,275 6.33789,275 0.337891,281 0.337891,287 0.337891,287 0.337891,355 0.337891,355 0.337891,361 6.33789,367 12.3379,367"/>
<text text-anchor="middle" x="62" y="290.2" font-family="Times,serif" font-size="14.00">ContextsController</text>
<polyline fill="none" stroke="black" points="0.337891,297 123.662,297 "/>
<polyline fill="none" stroke="black" points="0.337891,321 123.662,321 "/>
<polyline fill="none" stroke="black" points="0.337891,345 123.662,345 "/>
<text text-anchor="start" x="8.33789" y="360.2" font-family="Times,serif" font-size="14.00">_layout</text>
</g>
<!-- FociController -->
<g id="node9" class="node"><title>FociController</title>
<path fill="none" stroke="black" d="M-148.217,-161C-148.217,-161 -73.7827,-161 -73.7827,-161 -67.7827,-161 -61.7827,-167 -61.7827,-173 -61.7827,-173 -61.7827,-351 -61.7827,-351 -61.7827,-357 -67.7827,-363 -73.7827,-363 -73.7827,-363 -148.217,-363 -148.217,-363 -154.217,-363 -160.217,-357 -160.217,-351 -160.217,-351 -160.217,-173 -160.217,-173 -160.217,-167 -154.217,-161 -148.217,-161"/>
<text text-anchor="middle" x="-111" y="-347.8" font-family="Times,serif" font-size="14.00">FociController</text>
<polyline fill="none" stroke="black" points="-160.217,-341 -61.7827,-341 "/>
<text text-anchor="start" x="-152.217" y="-325.8" font-family="Times,serif" font-size="14.00">index</text>
<text text-anchor="start" x="-152.217" y="-311.8" font-family="Times,serif" font-size="14.00">destroy</text>
<text text-anchor="start" x="-152.217" y="-297.8" font-family="Times,serif" font-size="14.00">edit</text>
<text text-anchor="start" x="-152.217" y="-283.8" font-family="Times,serif" font-size="14.00">create</text>
<text text-anchor="start" x="-152.217" y="-269.8" font-family="Times,serif" font-size="14.00">new</text>
<text text-anchor="start" x="-152.217" y="-255.8" font-family="Times,serif" font-size="14.00">show</text>
<text text-anchor="start" x="-152.217" y="-241.8" font-family="Times,serif" font-size="14.00">update</text>
<polyline fill="none" stroke="black" points="-160.217,-235 -61.7827,-235 "/>
<polyline fill="none" stroke="black" points="-160.217,-211 -61.7827,-211 "/>
<text text-anchor="start" x="-152.217" y="-195.8" font-family="Times,serif" font-size="14.00">_layout</text>
<text text-anchor="start" x="-152.217" y="-181.8" font-family="Times,serif" font-size="14.00">focus_params</text>
<text text-anchor="start" x="-152.217" y="-167.8" font-family="Times,serif" font-size="14.00">set_focus</text>
</g>
<!-- GroupsController -->
<g id="node10" class="node"><title>GroupsController</title>
<path fill="none" stroke="black" d="M139.617,-113C139.617,-113 230.383,-113 230.383,-113 236.383,-113 242.383,-119 242.383,-125 242.383,-125 242.383,-303 242.383,-303 242.383,-309 236.383,-315 230.383,-315 230.383,-315 139.617,-315 139.617,-315 133.617,-315 127.617,-309 127.617,-303 127.617,-303 127.617,-125 127.617,-125 127.617,-119 133.617,-113 139.617,-113"/>
<text text-anchor="middle" x="185" y="-299.8" font-family="Times,serif" font-size="14.00">GroupsController</text>
<polyline fill="none" stroke="black" points="127.617,-293 242.383,-293 "/>
<text text-anchor="start" x="135.617" y="-277.8" font-family="Times,serif" font-size="14.00">index</text>
<text text-anchor="start" x="135.617" y="-263.8" font-family="Times,serif" font-size="14.00">destroy</text>
<text text-anchor="start" x="135.617" y="-249.8" font-family="Times,serif" font-size="14.00">edit</text>
<text text-anchor="start" x="135.617" y="-235.8" font-family="Times,serif" font-size="14.00">create</text>
<text text-anchor="start" x="135.617" y="-221.8" font-family="Times,serif" font-size="14.00">new</text>
<text text-anchor="start" x="135.617" y="-207.8" font-family="Times,serif" font-size="14.00">show</text>
<text text-anchor="start" x="135.617" y="-193.8" font-family="Times,serif" font-size="14.00">update</text>
<polyline fill="none" stroke="black" points="127.617,-187 242.383,-187 "/>
<polyline fill="none" stroke="black" points="127.617,-163 242.383,-163 "/>
<text text-anchor="start" x="135.617" y="-147.8" font-family="Times,serif" font-size="14.00">_layout</text>
<text text-anchor="start" x="135.617" y="-133.8" font-family="Times,serif" font-size="14.00">group_params</text>
<text text-anchor="start" x="135.617" y="-119.8" font-family="Times,serif" font-size="14.00">set_group</text>
</g>
<!-- IdentitiesController -->
<g id="node11" class="node"><title>IdentitiesController</title>
<path fill="none" stroke="black" d="M-195.821,367C-195.821,367 -94.1792,367 -94.1792,367 -88.1792,367 -82.1792,361 -82.1792,355 -82.1792,355 -82.1792,289 -82.1792,289 -82.1792,283 -88.1792,277 -94.1792,277 -94.1792,277 -195.821,277 -195.821,277 -201.821,277 -207.821,283 -207.821,289 -207.821,289 -207.821,355 -207.821,355 -207.821,361 -201.821,367 -195.821,367"/>
<text text-anchor="middle" x="-145" y="292.2" font-family="Times,serif" font-size="14.00">IdentitiesController</text>
<polyline fill="none" stroke="black" points="-207.821,299 -82.1792,299 "/>
<text text-anchor="start" x="-199.821" y="314.2" font-family="Times,serif" font-size="14.00">destroy</text>
<polyline fill="none" stroke="black" points="-207.821,321 -82.1792,321 "/>
<polyline fill="none" stroke="black" points="-207.821,345 -82.1792,345 "/>
<text text-anchor="start" x="-199.821" y="360.2" font-family="Times,serif" font-size="14.00">_layout</text>
</g>
<!-- IdentityProvidersController -->
<g id="node12" class="node"><title>IdentityProvidersController</title>
<path fill="none" stroke="black" d="M-228.376,239C-228.376,239 -81.624,239 -81.624,239 -75.624,239 -69.624,233 -69.624,227 -69.624,227 -69.624,159 -69.624,159 -69.624,153 -75.624,147 -81.624,147 -81.624,147 -228.376,147 -228.376,147 -234.376,147 -240.376,153 -240.376,159 -240.376,159 -240.376,227 -240.376,227 -240.376,233 -234.376,239 -228.376,239"/>
<text text-anchor="middle" x="-155" y="162.2" font-family="Times,serif" font-size="14.00">IdentityProvidersController</text>
<polyline fill="none" stroke="black" points="-240.376,169 -69.624,169 "/>
<polyline fill="none" stroke="black" points="-240.376,193 -69.624,193 "/>
<polyline fill="none" stroke="black" points="-240.376,217 -69.624,217 "/>
<text text-anchor="start" x="-232.376" y="232.2" font-family="Times,serif" font-size="14.00">_layout</text>
</g>
<!-- MembersController -->
<g id="node13" class="node"><title>MembersController</title>
<path fill="none" stroke="black" d="M-20.2104,-145C-20.2104,-145 82.2104,-145 82.2104,-145 88.2104,-145 94.2104,-151 94.2104,-157 94.2104,-157 94.2104,-335 94.2104,-335 94.2104,-341 88.2104,-347 82.2104,-347 82.2104,-347 -20.2104,-347 -20.2104,-347 -26.2104,-347 -32.2104,-341 -32.2104,-335 -32.2104,-335 -32.2104,-157 -32.2104,-157 -32.2104,-151 -26.2104,-145 -20.2104,-145"/>
<text text-anchor="middle" x="31" y="-331.8" font-family="Times,serif" font-size="14.00">MembersController</text>
<polyline fill="none" stroke="black" points="-32.2104,-325 94.2104,-325 "/>
<text text-anchor="start" x="-24.2104" y="-309.8" font-family="Times,serif" font-size="14.00">index</text>
<text text-anchor="start" x="-24.2104" y="-295.8" font-family="Times,serif" font-size="14.00">destroy</text>
<text text-anchor="start" x="-24.2104" y="-281.8" font-family="Times,serif" font-size="14.00">edit</text>
<text text-anchor="start" x="-24.2104" y="-267.8" font-family="Times,serif" font-size="14.00">create</text>
<text text-anchor="start" x="-24.2104" y="-253.8" font-family="Times,serif" font-size="14.00">new</text>
<text text-anchor="start" x="-24.2104" y="-239.8" font-family="Times,serif" font-size="14.00">show</text>
<text text-anchor="start" x="-24.2104" y="-225.8" font-family="Times,serif" font-size="14.00">update</text>
<polyline fill="none" stroke="black" points="-32.2104,-219 94.2104,-219 "/>
<polyline fill="none" stroke="black" points="-32.2104,-195 94.2104,-195 "/>
<text text-anchor="start" x="-24.2104" y="-179.8" font-family="Times,serif" font-size="14.00">_layout</text>
<text text-anchor="start" x="-24.2104" y="-165.8" font-family="Times,serif" font-size="14.00">member_params</text>
<text text-anchor="start" x="-24.2104" y="-151.8" font-family="Times,serif" font-size="14.00">set_member</text>
</g>
<!-- ObjectivesController -->
<g id="node14" class="node"><title>ObjectivesController</title>
<path fill="none" stroke="black" d="M-307.707,-321C-307.707,-321 -198.293,-321 -198.293,-321 -192.293,-321 -186.293,-327 -186.293,-333 -186.293,-333 -186.293,-401 -186.293,-401 -186.293,-407 -192.293,-413 -198.293,-413 -198.293,-413 -307.707,-413 -307.707,-413 -313.707,-413 -319.707,-407 -319.707,-401 -319.707,-401 -319.707,-333 -319.707,-333 -319.707,-327 -313.707,-321 -307.707,-321"/>
<text text-anchor="middle" x="-253" y="-397.8" font-family="Times,serif" font-size="14.00">ObjectivesController</text>
<polyline fill="none" stroke="black" points="-319.707,-391 -186.293,-391 "/>
<polyline fill="none" stroke="black" points="-319.707,-367 -186.293,-367 "/>
<polyline fill="none" stroke="black" points="-319.707,-343 -186.293,-343 "/>
<text text-anchor="start" x="-311.707" y="-327.8" font-family="Times,serif" font-size="14.00">_layout</text>
</g>
<!-- PeopleController -->
<g id="node15" class="node"><title>PeopleController</title>
<path fill="none" stroke="black" d="M-3.82422,-385C-3.82422,-385 83.8242,-385 83.8242,-385 89.8242,-385 95.8242,-391 95.8242,-397 95.8242,-397 95.8242,-477 95.8242,-477 95.8242,-483 89.8242,-489 83.8242,-489 83.8242,-489 -3.82422,-489 -3.82422,-489 -9.82422,-489 -15.8242,-483 -15.8242,-477 -15.8242,-477 -15.8242,-397 -15.8242,-397 -15.8242,-391 -9.82422,-385 -3.82422,-385"/>
<text text-anchor="middle" x="40" y="-473.8" font-family="Times,serif" font-size="14.00">PeopleController</text>
<polyline fill="none" stroke="black" points="-15.8242,-467 95.8242,-467 "/>
<text text-anchor="start" x="-7.82422" y="-451.8" font-family="Times,serif" font-size="14.00">edit</text>
<text text-anchor="start" x="-7.82422" y="-437.8" font-family="Times,serif" font-size="14.00">index</text>
<polyline fill="none" stroke="black" points="-15.8242,-431 95.8242,-431 "/>
<polyline fill="none" stroke="black" points="-15.8242,-407 95.8242,-407 "/>
<text text-anchor="start" x="-7.82422" y="-391.8" font-family="Times,serif" font-size="14.00">_layout</text>
</g>
<!-- PlacesController -->
<g id="node16" class="node"><title>PlacesController</title>
<path fill="none" stroke="black" d="M172.345,383C172.345,383 257.655,383 257.655,383 263.655,383 269.655,377 269.655,371 269.655,371 269.655,303 269.655,303 269.655,297 263.655,291 257.655,291 257.655,291 172.345,291 172.345,291 166.345,291 160.345,297 160.345,303 160.345,303 160.345,371 160.345,371 160.345,377 166.345,383 172.345,383"/>
<text text-anchor="middle" x="215" y="306.2" font-family="Times,serif" font-size="14.00">PlacesController</text>
<polyline fill="none" stroke="black" points="160.345,313 269.655,313 "/>
<polyline fill="none" stroke="black" points="160.345,337 269.655,337 "/>
<polyline fill="none" stroke="black" points="160.345,361 269.655,361 "/>
<text text-anchor="start" x="168.345" y="376.2" font-family="Times,serif" font-size="14.00">_layout</text>
</g>
<!-- RolesController -->
<g id="node17" class="node"><title>RolesController</title>
<path fill="none" stroke="black" d="M-243.717,79C-243.717,79 -162.283,79 -162.283,79 -156.283,79 -150.283,73 -150.283,67 -150.283,67 -150.283,-111 -150.283,-111 -150.283,-117 -156.283,-123 -162.283,-123 -162.283,-123 -243.717,-123 -243.717,-123 -249.717,-123 -255.717,-117 -255.717,-111 -255.717,-111 -255.717,67 -255.717,67 -255.717,73 -249.717,79 -243.717,79"/>
<text text-anchor="middle" x="-203" y="-107.8" font-family="Times,serif" font-size="14.00">RolesController</text>
<polyline fill="none" stroke="black" points="-255.717,-101 -150.283,-101 "/>
<text text-anchor="start" x="-247.717" y="-85.8" font-family="Times,serif" font-size="14.00">index</text>
<text text-anchor="start" x="-247.717" y="-71.8" font-family="Times,serif" font-size="14.00">destroy</text>
<text text-anchor="start" x="-247.717" y="-57.8" font-family="Times,serif" font-size="14.00">edit</text>
<text text-anchor="start" x="-247.717" y="-43.8" font-family="Times,serif" font-size="14.00">create</text>
<text text-anchor="start" x="-247.717" y="-29.8" font-family="Times,serif" font-size="14.00">new</text>
<text text-anchor="start" x="-247.717" y="-15.8" font-family="Times,serif" font-size="14.00">show</text>
<text text-anchor="start" x="-247.717" y="-1.8" font-family="Times,serif" font-size="14.00">update</text>
<polyline fill="none" stroke="black" points="-255.717,5 -150.283,5 "/>
<polyline fill="none" stroke="black" points="-255.717,29 -150.283,29 "/>
<text text-anchor="start" x="-247.717" y="44.2" font-family="Times,serif" font-size="14.00">_layout</text>
<text text-anchor="start" x="-247.717" y="58.2" font-family="Times,serif" font-size="14.00">role_params</text>
<text text-anchor="start" x="-247.717" y="72.2" font-family="Times,serif" font-size="14.00">set_role</text>
</g>
<!-- SessionsController -->
<g id="node18" class="node"><title>SessionsController</title>
<path fill="none" stroke="black" d="M283.793,-113C283.793,-113 400.207,-113 400.207,-113 406.207,-113 412.207,-119 412.207,-125 412.207,-125 412.207,-261 412.207,-261 412.207,-267 406.207,-273 400.207,-273 400.207,-273 283.793,-273 283.793,-273 277.793,-273 271.793,-267 271.793,-261 271.793,-261 271.793,-125 271.793,-125 271.793,-119 277.793,-113 283.793,-113"/>
<text text-anchor="middle" x="342" y="-257.8" font-family="Times,serif" font-size="14.00">SessionsController</text>
<polyline fill="none" stroke="black" points="271.793,-251 412.207,-251 "/>
<text text-anchor="start" x="279.793" y="-235.8" font-family="Times,serif" font-size="14.00">authenticate</text>
<text text-anchor="start" x="279.793" y="-221.8" font-family="Times,serif" font-size="14.00">callback</text>
<text text-anchor="start" x="279.793" y="-207.8" font-family="Times,serif" font-size="14.00">cleanse_session</text>
<text text-anchor="start" x="279.793" y="-193.8" font-family="Times,serif" font-size="14.00">destroy</text>
<text text-anchor="start" x="279.793" y="-179.8" font-family="Times,serif" font-size="14.00">openid_connect_login</text>
<text text-anchor="start" x="279.793" y="-165.8" font-family="Times,serif" font-size="14.00">public_keys_for</text>
<polyline fill="none" stroke="black" points="271.793,-159 412.207,-159 "/>
<polyline fill="none" stroke="black" points="271.793,-135 412.207,-135 "/>
<text text-anchor="start" x="279.793" y="-119.8" font-family="Times,serif" font-size="14.00">_layout</text>
</g>
<!-- Smart::LaunchController -->
<g id="node19" class="node"><title>Smart::LaunchController</title>
<path fill="none" stroke="black" d="M219.627,255C219.627,255 352.373,255 352.373,255 358.373,255 364.373,249 364.373,243 364.373,243 364.373,177 364.373,177 364.373,171 358.373,165 352.373,165 352.373,165 219.627,165 219.627,165 213.627,165 207.627,171 207.627,177 207.627,177 207.627,243 207.627,243 207.627,249 213.627,255 219.627,255"/>
<text text-anchor="middle" x="286" y="180.2" font-family="Times,serif" font-size="14.00">Smart::LaunchController</text>
<polyline fill="none" stroke="black" points="207.627,187 364.373,187 "/>
<text text-anchor="start" x="215.627" y="202.2" font-family="Times,serif" font-size="14.00">launch</text>
<polyline fill="none" stroke="black" points="207.627,209 364.373,209 "/>
<polyline fill="none" stroke="black" points="207.627,233 364.373,233 "/>
<text text-anchor="start" x="215.627" y="248.2" font-family="Times,serif" font-size="14.00">_layout</text>
</g>
<!-- UsageRolesController -->
<g id="node20" class="node"><title>UsageRolesController</title>
<path fill="none" stroke="black" d="M139.79,-353C139.79,-353 256.21,-353 256.21,-353 262.21,-353 268.21,-359 268.21,-365 268.21,-365 268.21,-433 268.21,-433 268.21,-439 262.21,-445 256.21,-445 256.21,-445 139.79,-445 139.79,-445 133.79,-445 127.79,-439 127.79,-433 127.79,-433 127.79,-365 127.79,-365 127.79,-359 133.79,-353 139.79,-353"/>
<text text-anchor="middle" x="198" y="-429.8" font-family="Times,serif" font-size="14.00">UsageRolesController</text>
<polyline fill="none" stroke="black" points="127.79,-423 268.21,-423 "/>
<polyline fill="none" stroke="black" points="127.79,-399 268.21,-399 "/>
<polyline fill="none" stroke="black" points="127.79,-375 268.21,-375 "/>
<text text-anchor="start" x="135.79" y="-359.8" font-family="Times,serif" font-size="14.00">_layout</text>
</g>
<!-- WelcomeController -->
<g id="node21" class="node"><title>WelcomeController</title>
<path fill="none" stroke="black" d="M315.967,127C315.967,127 418.033,127 418.033,127 424.033,127 430.033,121 430.033,115 430.033,115 430.033,21 430.033,21 430.033,15 424.033,9 418.033,9 418.033,9 315.967,9 315.967,9 309.967,9 303.967,15 303.967,21 303.967,21 303.967,115 303.967,115 303.967,121 309.967,127 315.967,127"/>
<text text-anchor="middle" x="367" y="24.2" font-family="Times,serif" font-size="14.00">WelcomeController</text>
<polyline fill="none" stroke="black" points="303.967,31 430.033,31 "/>
<text text-anchor="start" x="311.967" y="46.2" font-family="Times,serif" font-size="14.00">dashboard</text>
<text text-anchor="start" x="311.967" y="60.2" font-family="Times,serif" font-size="14.00">landing</text>
<text text-anchor="start" x="311.967" y="74.2" font-family="Times,serif" font-size="14.00">status</text>
<polyline fill="none" stroke="black" points="303.967,81 430.033,81 "/>
<polyline fill="none" stroke="black" points="303.967,105 430.033,105 "/>
<text text-anchor="start" x="311.967" y="120.2" font-family="Times,serif" font-size="14.00">_layout</text>
</g>
</g>
</svg>
