<?xml version="1.0" encoding="UTF-8" standalone="no"?>
<!DOCTYPE svg PUBLIC "-//W3C//DTD SVG 1.1//EN"
 "http://www.w3.org/Graphics/SVG/1.1/DTD/svg11.dtd">
<!-- Generated by graphviz version 2.40.1 (20161225.0304)
 -->
<!-- Title: controllers_diagram Pages: 1 -->
<svg width="707pt" height="773pt"
 viewBox="0.00 0.00 706.75 773.00" xmlns="http://www.w3.org/2000/svg" xmlns:xlink="http://www.w3.org/1999/xlink">
<g id="graph0" class="graph" transform="scale(1 1) rotate(0) translate(4 769)">
<title>controllers_diagram</title>
<polygon fill="transparent" stroke="transparent" points="-4,4 -4,-769 702.752,-769 702.752,4 -4,4"/>
<!-- _diagram_info -->
<g id="node1" class="node">
<title>_diagram_info</title>
<text text-anchor="start" x="344" y="-186.6" font-family="Times,serif" font-size="13.00" fill="#000000">Controllers diagram</text>
<text text-anchor="start" x="344" y="-173.6" font-family="Times,serif" font-size="13.00" fill="#000000">Date: Jun 04 2018 &#45; 21:00</text>
<text text-anchor="start" x="344" y="-160.6" font-family="Times,serif" font-size="13.00" fill="#000000">Migration version: 20180605013519</text>
<text text-anchor="start" x="344" y="-147.6" font-family="Times,serif" font-size="13.00" fill="#000000">Generated by RailRoady 1.5.3</text>
<text text-anchor="start" x="344" y="-134.6" font-family="Times,serif" font-size="13.00" fill="#000000">http://railroady.prestonlee.com</text>
</g>
<!-- ApplicationController -->
<g id="node2" class="node">
<title>ApplicationController</title>
<path fill="none" stroke="#000000" d="M172,-208.5C172,-208.5 287.6416,-208.5 287.6416,-208.5 293.6416,-208.5 299.6416,-214.5 299.6416,-220.5 299.6416,-220.5 299.6416,-428.5 299.6416,-428.5 299.6416,-434.5 293.6416,-440.5 287.6416,-440.5 287.6416,-440.5 172,-440.5 172,-440.5 166,-440.5 160,-434.5 160,-428.5 160,-428.5 160,-220.5 160,-220.5 160,-214.5 166,-208.5 172,-208.5"/>
<text text-anchor="middle" x="229.8208" y="-425.3" font-family="Times,serif" font-size="14.00" fill="#000000">ApplicationController</text>
<polyline fill="none" stroke="#000000" points="160,-418.5 299.6416,-418.5 "/>
<text text-anchor="start" x="168" y="-403.3" font-family="Times,serif" font-size="14.00" fill="#000000">unauthenticate!</text>
<text text-anchor="start" x="168" y="-389.3" font-family="Times,serif" font-size="14.00" fill="#000000">_cancan_skipper=</text>
<text text-anchor="start" x="168" y="-375.3" font-family="Times,serif" font-size="14.00" fill="#000000">_cancan_skipper?</text>
<text text-anchor="start" x="168" y="-361.3" font-family="Times,serif" font-size="14.00" fill="#000000">authenticate_identity!</text>
<text text-anchor="start" x="168" y="-347.3" font-family="Times,serif" font-size="14.00" fill="#000000">build_oauth_request</text>
<text text-anchor="start" x="168" y="-333.3" font-family="Times,serif" font-size="14.00" fill="#000000">current_identity</text>
<text text-anchor="start" x="168" y="-319.3" font-family="Times,serif" font-size="14.00" fill="#000000">current_person</text>
<text text-anchor="start" x="168" y="-305.3" font-family="Times,serif" font-size="14.00" fill="#000000">current_user</text>
<text text-anchor="start" x="168" y="-291.3" font-family="Times,serif" font-size="14.00" fill="#000000">new_nonce</text>
<text text-anchor="start" x="168" y="-277.3" font-family="Times,serif" font-size="14.00" fill="#000000">stored_nonce</text>
<text text-anchor="start" x="168" y="-263.3" font-family="Times,serif" font-size="14.00" fill="#000000">_cancan_skipper</text>
<polyline fill="none" stroke="#000000" points="160,-256.5 299.6416,-256.5 "/>
<polyline fill="none" stroke="#000000" points="160,-232.5 299.6416,-232.5 "/>
</g>
<!-- EventsController -->
<g id="node3" class="node">
<title>EventsController</title>
<path fill="none" stroke="#000000" d="M348,-240.5C348,-240.5 483.0488,-240.5 483.0488,-240.5 489.0488,-240.5 495.0488,-246.5 495.0488,-252.5 495.0488,-252.5 495.0488,-388.5 495.0488,-388.5 495.0488,-394.5 489.0488,-400.5 483.0488,-400.5 483.0488,-400.5 348,-400.5 348,-400.5 342,-400.5 336,-394.5 336,-388.5 336,-388.5 336,-252.5 336,-252.5 336,-246.5 342,-240.5 348,-240.5"/>
<text text-anchor="middle" x="415.5244" y="-385.3" font-family="Times,serif" font-size="14.00" fill="#000000">EventsController</text>
<polyline fill="none" stroke="#000000" points="336,-378.5 495.0488,-378.5 "/>
<text text-anchor="start" x="344" y="-363.3" font-family="Times,serif" font-size="14.00" fill="#000000">create</text>
<text text-anchor="start" x="344" y="-349.3" font-family="Times,serif" font-size="14.00" fill="#000000">destroy</text>
<text text-anchor="start" x="344" y="-335.3" font-family="Times,serif" font-size="14.00" fill="#000000">index</text>
<text text-anchor="start" x="344" y="-321.3" font-family="Times,serif" font-size="14.00" fill="#000000">stream</text>
<text text-anchor="start" x="344" y="-307.3" font-family="Times,serif" font-size="14.00" fill="#000000">update</text>
<polyline fill="none" stroke="#000000" points="336,-300.5 495.0488,-300.5 "/>
<polyline fill="none" stroke="#000000" points="336,-276.5 495.0488,-276.5 "/>
<text text-anchor="start" x="344" y="-261.3" font-family="Times,serif" font-size="14.00" fill="#000000">event_params</text>
<text text-anchor="start" x="344" y="-247.3" font-family="Times,serif" font-size="14.00" fill="#000000">parameters_from_params</text>
</g>
<!-- PeopleController -->
<g id="node4" class="node">
<title>PeopleController</title>
<path fill="none" stroke="#000000" d="M268,-672.5C268,-672.5 355.6484,-672.5 355.6484,-672.5 361.6484,-672.5 367.6484,-678.5 367.6484,-684.5 367.6484,-684.5 367.6484,-752.5 367.6484,-752.5 367.6484,-758.5 361.6484,-764.5 355.6484,-764.5 355.6484,-764.5 268,-764.5 268,-764.5 262,-764.5 256,-758.5 256,-752.5 256,-752.5 256,-684.5 256,-684.5 256,-678.5 262,-672.5 268,-672.5"/>
<text text-anchor="middle" x="311.8242" y="-749.3" font-family="Times,serif" font-size="14.00" fill="#000000">PeopleController</text>
<polyline fill="none" stroke="#000000" points="256,-742.5 367.6484,-742.5 "/>
<text text-anchor="start" x="264" y="-727.3" font-family="Times,serif" font-size="14.00" fill="#000000">index</text>
<polyline fill="none" stroke="#000000" points="256,-720.5 367.6484,-720.5 "/>
<polyline fill="none" stroke="#000000" points="256,-696.5 367.6484,-696.5 "/>
</g>
<!-- ClientsController -->
<g id="node5" class="node">
<title>ClientsController</title>
<path fill="none" stroke="#000000" d="M572,-656.5C572,-656.5 661.2139,-656.5 661.2139,-656.5 667.2139,-656.5 673.2139,-662.5 673.2139,-668.5 673.2139,-668.5 673.2139,-750.5 673.2139,-750.5 673.2139,-756.5 667.2139,-762.5 661.2139,-762.5 661.2139,-762.5 572,-762.5 572,-762.5 566,-762.5 560,-756.5 560,-750.5 560,-750.5 560,-668.5 560,-668.5 560,-662.5 566,-656.5 572,-656.5"/>
<text text-anchor="middle" x="616.6069" y="-747.3" font-family="Times,serif" font-size="14.00" fill="#000000">ClientsController</text>
<polyline fill="none" stroke="#000000" points="560,-740.5 673.2139,-740.5 "/>
<text text-anchor="start" x="568" y="-725.3" font-family="Times,serif" font-size="14.00" fill="#000000">index</text>
<text text-anchor="start" x="568" y="-711.3" font-family="Times,serif" font-size="14.00" fill="#000000">launch</text>
<polyline fill="none" stroke="#000000" points="560,-704.5 673.2139,-704.5 "/>
<polyline fill="none" stroke="#000000" points="560,-680.5 673.2139,-680.5 "/>
</g>
<!-- ContextsController -->
<g id="node6" class="node">
<title>ContextsController</title>
<path fill="none" stroke="#000000" d="M316,-.5C316,-.5 415.3242,-.5 415.3242,-.5 421.3242,-.5 427.3242,-6.5 427.3242,-12.5 427.3242,-12.5 427.3242,-82.5 427.3242,-82.5 427.3242,-88.5 421.3242,-94.5 415.3242,-94.5 415.3242,-94.5 316,-94.5 316,-94.5 310,-94.5 304,-88.5 304,-82.5 304,-82.5 304,-12.5 304,-12.5 304,-6.5 310,-.5 316,-.5"/>
<text text-anchor="middle" x="365.6621" y="-79.3" font-family="Times,serif" font-size="14.00" fill="#000000">ContextsController</text>
<polyline fill="none" stroke="#000000" points="304,-72.5 427.3242,-72.5 "/>
<polyline fill="none" stroke="#000000" points="304,-48.5 427.3242,-48.5 "/>
<polyline fill="none" stroke="#000000" points="304,-24.5 427.3242,-24.5 "/>
</g>
<!-- GroupsController -->
<g id="node7" class="node">
<title>GroupsController</title>
<path fill="none" stroke="#000000" d="M28,-560.5C28,-560.5 118.7656,-560.5 118.7656,-560.5 124.7656,-560.5 130.7656,-566.5 130.7656,-572.5 130.7656,-572.5 130.7656,-736.5 130.7656,-736.5 130.7656,-742.5 124.7656,-748.5 118.7656,-748.5 118.7656,-748.5 28,-748.5 28,-748.5 22,-748.5 16,-742.5 16,-736.5 16,-736.5 16,-572.5 16,-572.5 16,-566.5 22,-560.5 28,-560.5"/>
<text text-anchor="middle" x="73.3828" y="-733.3" font-family="Times,serif" font-size="14.00" fill="#000000">GroupsController</text>
<polyline fill="none" stroke="#000000" points="16,-726.5 130.7656,-726.5 "/>
<text text-anchor="start" x="24" y="-711.3" font-family="Times,serif" font-size="14.00" fill="#000000">create</text>
<text text-anchor="start" x="24" y="-697.3" font-family="Times,serif" font-size="14.00" fill="#000000">destroy</text>
<text text-anchor="start" x="24" y="-683.3" font-family="Times,serif" font-size="14.00" fill="#000000">edit</text>
<text text-anchor="start" x="24" y="-669.3" font-family="Times,serif" font-size="14.00" fill="#000000">index</text>
<text text-anchor="start" x="24" y="-655.3" font-family="Times,serif" font-size="14.00" fill="#000000">new</text>
<text text-anchor="start" x="24" y="-641.3" font-family="Times,serif" font-size="14.00" fill="#000000">show</text>
<text text-anchor="start" x="24" y="-627.3" font-family="Times,serif" font-size="14.00" fill="#000000">update</text>
<polyline fill="none" stroke="#000000" points="16,-620.5 130.7656,-620.5 "/>
<polyline fill="none" stroke="#000000" points="16,-596.5 130.7656,-596.5 "/>
<text text-anchor="start" x="24" y="-581.3" font-family="Times,serif" font-size="14.00" fill="#000000">group_params</text>
<text text-anchor="start" x="24" y="-567.3" font-family="Times,serif" font-size="14.00" fill="#000000">set_group</text>
</g>
<!-- IdentityProvidersController -->
<g id="node8" class="node">
<title>IdentityProvidersController</title>
<path fill="none" stroke="#000000" d="M540,-240.5C540,-240.5 686.752,-240.5 686.752,-240.5 692.752,-240.5 698.752,-246.5 698.752,-252.5 698.752,-252.5 698.752,-320.5 698.752,-320.5 698.752,-326.5 692.752,-332.5 686.752,-332.5 686.752,-332.5 540,-332.5 540,-332.5 534,-332.5 528,-326.5 528,-320.5 528,-320.5 528,-252.5 528,-252.5 528,-246.5 534,-240.5 540,-240.5"/>
<text text-anchor="middle" x="613.376" y="-317.3" font-family="Times,serif" font-size="14.00" fill="#000000">IdentityProvidersController</text>
<polyline fill="none" stroke="#000000" points="528,-310.5 698.752,-310.5 "/>
<text text-anchor="start" x="536" y="-295.3" font-family="Times,serif" font-size="14.00" fill="#000000">launch</text>
<polyline fill="none" stroke="#000000" points="528,-288.5 698.752,-288.5 "/>
<polyline fill="none" stroke="#000000" points="528,-264.5 698.752,-264.5 "/>
</g>
<!-- SessionsController -->
<g id="node9" class="node">
<title>SessionsController</title>
<path fill="none" stroke="#000000" d="M172,-480.5C172,-480.5 288.4141,-480.5 288.4141,-480.5 294.4141,-480.5 300.4141,-486.5 300.4141,-492.5 300.4141,-492.5 300.4141,-630.5 300.4141,-630.5 300.4141,-636.5 294.4141,-642.5 288.4141,-642.5 288.4141,-642.5 172,-642.5 172,-642.5 166,-642.5 160,-636.5 160,-630.5 160,-630.5 160,-492.5 160,-492.5 160,-486.5 166,-480.5 172,-480.5"/>
<text text-anchor="middle" x="230.207" y="-627.3" font-family="Times,serif" font-size="14.00" fill="#000000">SessionsController</text>
<polyline fill="none" stroke="#000000" points="160,-620.5 300.4141,-620.5 "/>
<text text-anchor="start" x="168" y="-605.3" font-family="Times,serif" font-size="14.00" fill="#000000">callback</text>
<text text-anchor="start" x="168" y="-591.3" font-family="Times,serif" font-size="14.00" fill="#000000">cleanse_session</text>
<text text-anchor="start" x="168" y="-577.3" font-family="Times,serif" font-size="14.00" fill="#000000">create</text>
<text text-anchor="start" x="168" y="-563.3" font-family="Times,serif" font-size="14.00" fill="#000000">destroy</text>
<text text-anchor="start" x="168" y="-549.3" font-family="Times,serif" font-size="14.00" fill="#000000">openid_connect_login</text>
<text text-anchor="start" x="168" y="-535.3" font-family="Times,serif" font-size="14.00" fill="#000000">public_keys_for</text>
<polyline fill="none" stroke="#000000" points="160,-528.5 300.4141,-528.5 "/>
<polyline fill="none" stroke="#000000" points="160,-504.5 300.4141,-504.5 "/>
</g>
<!-- WelcomeController -->
<g id="node10" class="node">
<title>WelcomeController</title>
<path fill="none" stroke="#000000" d="M412,-656.5C412,-656.5 514.0654,-656.5 514.0654,-656.5 520.0654,-656.5 526.0654,-662.5 526.0654,-668.5 526.0654,-668.5 526.0654,-750.5 526.0654,-750.5 526.0654,-756.5 520.0654,-762.5 514.0654,-762.5 514.0654,-762.5 412,-762.5 412,-762.5 406,-762.5 400,-756.5 400,-750.5 400,-750.5 400,-668.5 400,-668.5 400,-662.5 406,-656.5 412,-656.5"/>
<text text-anchor="middle" x="463.0327" y="-747.3" font-family="Times,serif" font-size="14.00" fill="#000000">WelcomeController</text>
<polyline fill="none" stroke="#000000" points="400,-740.5 526.0654,-740.5 "/>
<text text-anchor="start" x="408" y="-725.3" font-family="Times,serif" font-size="14.00" fill="#000000">landing</text>
<text text-anchor="start" x="408" y="-711.3" font-family="Times,serif" font-size="14.00" fill="#000000">status</text>
<polyline fill="none" stroke="#000000" points="400,-704.5 526.0654,-704.5 "/>
<polyline fill="none" stroke="#000000" points="400,-680.5 526.0654,-680.5 "/>
</g>
<!-- AssetsController -->
<g id="node11" class="node">
<title>AssetsController</title>
<path fill="none" stroke="#000000" d="M172,-48.5C172,-48.5 258.1035,-48.5 258.1035,-48.5 264.1035,-48.5 270.1035,-54.5 270.1035,-60.5 270.1035,-60.5 270.1035,-168.5 270.1035,-168.5 270.1035,-174.5 264.1035,-180.5 258.1035,-180.5 258.1035,-180.5 172,-180.5 172,-180.5 166,-180.5 160,-174.5 160,-168.5 160,-168.5 160,-60.5 160,-60.5 160,-54.5 166,-48.5 172,-48.5"/>
<text text-anchor="middle" x="215.0518" y="-165.3" font-family="Times,serif" font-size="14.00" fill="#000000">AssetsController</text>
<polyline fill="none" stroke="#000000" points="160,-158.5 270.1035,-158.5 "/>
<text text-anchor="start" x="168" y="-143.3" font-family="Times,serif" font-size="14.00" fill="#000000">create</text>
<text text-anchor="start" x="168" y="-129.3" font-family="Times,serif" font-size="14.00" fill="#000000">destroy</text>
<text text-anchor="start" x="168" y="-115.3" font-family="Times,serif" font-size="14.00" fill="#000000">index</text>
<text text-anchor="start" x="168" y="-101.3" font-family="Times,serif" font-size="14.00" fill="#000000">update</text>
<polyline fill="none" stroke="#000000" points="160,-94.5 270.1035,-94.5 "/>
<polyline fill="none" stroke="#000000" points="160,-70.5 270.1035,-70.5 "/>
<text text-anchor="start" x="168" y="-55.3" font-family="Times,serif" font-size="14.00" fill="#000000">asset_params</text>
</g>
<!-- CapabilitiesController -->
<g id="node12" class="node">
<title>CapabilitiesController</title>
<path fill="none" stroke="#000000" d="M348,-432.5C348,-432.5 464.4209,-432.5 464.4209,-432.5 470.4209,-432.5 476.4209,-438.5 476.4209,-444.5 476.4209,-444.5 476.4209,-608.5 476.4209,-608.5 476.4209,-614.5 470.4209,-620.5 464.4209,-620.5 464.4209,-620.5 348,-620.5 348,-620.5 342,-620.5 336,-614.5 336,-608.5 336,-608.5 336,-444.5 336,-444.5 336,-438.5 342,-432.5 348,-432.5"/>
<text text-anchor="middle" x="406.2104" y="-605.3" font-family="Times,serif" font-size="14.00" fill="#000000">CapabilitiesController</text>
<polyline fill="none" stroke="#000000" points="336,-598.5 476.4209,-598.5 "/>
<text text-anchor="start" x="344" y="-583.3" font-family="Times,serif" font-size="14.00" fill="#000000">create</text>
<text text-anchor="start" x="344" y="-569.3" font-family="Times,serif" font-size="14.00" fill="#000000">destroy</text>
<text text-anchor="start" x="344" y="-555.3" font-family="Times,serif" font-size="14.00" fill="#000000">edit</text>
<text text-anchor="start" x="344" y="-541.3" font-family="Times,serif" font-size="14.00" fill="#000000">index</text>
<text text-anchor="start" x="344" y="-527.3" font-family="Times,serif" font-size="14.00" fill="#000000">new</text>
<text text-anchor="start" x="344" y="-513.3" font-family="Times,serif" font-size="14.00" fill="#000000">show</text>
<text text-anchor="start" x="344" y="-499.3" font-family="Times,serif" font-size="14.00" fill="#000000">update</text>
<polyline fill="none" stroke="#000000" points="336,-492.5 476.4209,-492.5 "/>
<polyline fill="none" stroke="#000000" points="336,-468.5 476.4209,-468.5 "/>
<text text-anchor="start" x="344" y="-453.3" font-family="Times,serif" font-size="14.00" fill="#000000">capability_params</text>
<text text-anchor="start" x="344" y="-439.3" font-family="Times,serif" font-size="14.00" fill="#000000">set_capability</text>
</g>
<!-- IdentitiesController -->
<g id="node13" class="node">
<title>IdentitiesController</title>
<path fill="none" stroke="#000000" d="M476,-.5C476,-.5 577.6416,-.5 577.6416,-.5 583.6416,-.5 589.6416,-6.5 589.6416,-12.5 589.6416,-12.5 589.6416,-80.5 589.6416,-80.5 589.6416,-86.5 583.6416,-92.5 577.6416,-92.5 577.6416,-92.5 476,-92.5 476,-92.5 470,-92.5 464,-86.5 464,-80.5 464,-80.5 464,-12.5 464,-12.5 464,-6.5 470,-.5 476,-.5"/>
<text text-anchor="middle" x="526.8208" y="-77.3" font-family="Times,serif" font-size="14.00" fill="#000000">IdentitiesController</text>
<polyline fill="none" stroke="#000000" points="464,-70.5 589.6416,-70.5 "/>
<text text-anchor="start" x="472" y="-55.3" font-family="Times,serif" font-size="14.00" fill="#000000">destroy</text>
<polyline fill="none" stroke="#000000" points="464,-48.5 589.6416,-48.5 "/>
<polyline fill="none" stroke="#000000" points="464,-24.5 589.6416,-24.5 "/>
</g>
<!-- MembersController -->
<g id="node14" class="node">
<title>MembersController</title>
<path fill="none" stroke="#000000" d="M12,-112.5C12,-112.5 114.4209,-112.5 114.4209,-112.5 120.4209,-112.5 126.4209,-118.5 126.4209,-124.5 126.4209,-124.5 126.4209,-288.5 126.4209,-288.5 126.4209,-294.5 120.4209,-300.5 114.4209,-300.5 114.4209,-300.5 12,-300.5 12,-300.5 6,-300.5 0,-294.5 0,-288.5 0,-288.5 0,-124.5 0,-124.5 0,-118.5 6,-112.5 12,-112.5"/>
<text text-anchor="middle" x="63.2104" y="-285.3" font-family="Times,serif" font-size="14.00" fill="#000000">MembersController</text>
<polyline fill="none" stroke="#000000" points="0,-278.5 126.4209,-278.5 "/>
<text text-anchor="start" x="8" y="-263.3" font-family="Times,serif" font-size="14.00" fill="#000000">create</text>
<text text-anchor="start" x="8" y="-249.3" font-family="Times,serif" font-size="14.00" fill="#000000">destroy</text>
<text text-anchor="start" x="8" y="-235.3" font-family="Times,serif" font-size="14.00" fill="#000000">edit</text>
<text text-anchor="start" x="8" y="-221.3" font-family="Times,serif" font-size="14.00" fill="#000000">index</text>
<text text-anchor="start" x="8" y="-207.3" font-family="Times,serif" font-size="14.00" fill="#000000">new</text>
<text text-anchor="start" x="8" y="-193.3" font-family="Times,serif" font-size="14.00" fill="#000000">show</text>
<text text-anchor="start" x="8" y="-179.3" font-family="Times,serif" font-size="14.00" fill="#000000">update</text>
<polyline fill="none" stroke="#000000" points="0,-172.5 126.4209,-172.5 "/>
<polyline fill="none" stroke="#000000" points="0,-148.5 126.4209,-148.5 "/>
<text text-anchor="start" x="8" y="-133.3" font-family="Times,serif" font-size="14.00" fill="#000000">member_params</text>
<text text-anchor="start" x="8" y="-119.3" font-family="Times,serif" font-size="14.00" fill="#000000">set_member</text>
</g>
<!-- TimelinesController -->
<g id="node15" class="node">
<title>TimelinesController</title>
<path fill="none" stroke="#000000" d="M12,-336.5C12,-336.5 117.0459,-336.5 117.0459,-336.5 123.0459,-336.5 129.0459,-342.5 129.0459,-348.5 129.0459,-348.5 129.0459,-484.5 129.0459,-484.5 129.0459,-490.5 123.0459,-496.5 117.0459,-496.5 117.0459,-496.5 12,-496.5 12,-496.5 6,-496.5 0,-490.5 0,-484.5 0,-484.5 0,-348.5 0,-348.5 0,-342.5 6,-336.5 12,-336.5"/>
<text text-anchor="middle" x="64.5229" y="-481.3" font-family="Times,serif" font-size="14.00" fill="#000000">TimelinesController</text>
<polyline fill="none" stroke="#000000" points="0,-474.5 129.0459,-474.5 "/>
<text text-anchor="start" x="8" y="-459.3" font-family="Times,serif" font-size="14.00" fill="#000000">create</text>
<text text-anchor="start" x="8" y="-445.3" font-family="Times,serif" font-size="14.00" fill="#000000">destroy</text>
<text text-anchor="start" x="8" y="-431.3" font-family="Times,serif" font-size="14.00" fill="#000000">index</text>
<text text-anchor="start" x="8" y="-417.3" font-family="Times,serif" font-size="14.00" fill="#000000">show</text>
<text text-anchor="start" x="8" y="-403.3" font-family="Times,serif" font-size="14.00" fill="#000000">update</text>
<polyline fill="none" stroke="#000000" points="0,-396.5 129.0459,-396.5 "/>
<polyline fill="none" stroke="#000000" points="0,-372.5 129.0459,-372.5 "/>
<text text-anchor="start" x="8" y="-357.3" font-family="Times,serif" font-size="14.00" fill="#000000">set_timeline</text>
<text text-anchor="start" x="8" y="-343.3" font-family="Times,serif" font-size="14.00" fill="#000000">timeline_params</text>
</g>
<!-- RolesController -->
<g id="node16" class="node">
<title>RolesController</title>
<path fill="none" stroke="#000000" d="M524,-432.5C524,-432.5 605.4346,-432.5 605.4346,-432.5 611.4346,-432.5 617.4346,-438.5 617.4346,-444.5 617.4346,-444.5 617.4346,-608.5 617.4346,-608.5 617.4346,-614.5 611.4346,-620.5 605.4346,-620.5 605.4346,-620.5 524,-620.5 524,-620.5 518,-620.5 512,-614.5 512,-608.5 512,-608.5 512,-444.5 512,-444.5 512,-438.5 518,-432.5 524,-432.5"/>
<text text-anchor="middle" x="564.7173" y="-605.3" font-family="Times,serif" font-size="14.00" fill="#000000">RolesController</text>
<polyline fill="none" stroke="#000000" points="512,-598.5 617.4346,-598.5 "/>
<text text-anchor="start" x="520" y="-583.3" font-family="Times,serif" font-size="14.00" fill="#000000">create</text>
<text text-anchor="start" x="520" y="-569.3" font-family="Times,serif" font-size="14.00" fill="#000000">destroy</text>
<text text-anchor="start" x="520" y="-555.3" font-family="Times,serif" font-size="14.00" fill="#000000">edit</text>
<text text-anchor="start" x="520" y="-541.3" font-family="Times,serif" font-size="14.00" fill="#000000">index</text>
<text text-anchor="start" x="520" y="-527.3" font-family="Times,serif" font-size="14.00" fill="#000000">new</text>
<text text-anchor="start" x="520" y="-513.3" font-family="Times,serif" font-size="14.00" fill="#000000">show</text>
<text text-anchor="start" x="520" y="-499.3" font-family="Times,serif" font-size="14.00" fill="#000000">update</text>
<polyline fill="none" stroke="#000000" points="512,-492.5 617.4346,-492.5 "/>
<polyline fill="none" stroke="#000000" points="512,-468.5 617.4346,-468.5 "/>
<text text-anchor="start" x="520" y="-453.3" font-family="Times,serif" font-size="14.00" fill="#000000">role_params</text>
<text text-anchor="start" x="520" y="-439.3" font-family="Times,serif" font-size="14.00" fill="#000000">set_role</text>
</g>
</g>
</svg>
