<?xml version="1.0" encoding="UTF-8" standalone="no"?>
<!DOCTYPE svg PUBLIC "-//W3C//DTD SVG 1.1//EN"
 "http://www.w3.org/Graphics/SVG/1.1/DTD/svg11.dtd">
<!-- Generated by graphviz version 2.38.0 (20140413.2041)
 -->
<!-- Title: models_diagram Pages: 1 -->
<svg width="2462pt" height="774pt"
 viewBox="0.00 0.00 2461.55 774.00" xmlns="http://www.w3.org/2000/svg" xmlns:xlink="http://www.w3.org/1999/xlink">
<g id="graph0" class="graph" transform="scale(1 1) rotate(0) translate(4 770)">
<title>models_diagram</title>
<polygon fill="none" stroke="none" points="-4,4 -4,-770 2457.55,-770 2457.55,4 -4,4"/>
<!-- _diagram_info -->
<g id="node1" class="node"><title>_diagram_info</title>
<text text-anchor="start" x="8" y="-723.6" font-family="Times,serif" font-size="13.00">Models diagram</text>
<text text-anchor="start" x="8" y="-710.6" font-family="Times,serif" font-size="13.00">Date: Jun 16 2016 &#45; 15:01</text>
<text text-anchor="start" x="8" y="-697.6" font-family="Times,serif" font-size="13.00">Migration version: 20160616191454</text>
<text text-anchor="start" x="8" y="-684.6" font-family="Times,serif" font-size="13.00">Generated by RailRoady 1.4.2</text>
<text text-anchor="start" x="8" y="-671.6" font-family="Times,serif" font-size="13.00">http://railroady.prestonlee.com</text>
</g>
<!-- Ability -->
<g id="node2" class="node"><title>Ability</title>
<polygon fill="none" stroke="black" points="225.853,-679.5 225.853,-723.5 281.522,-723.5 281.522,-679.5 225.853,-679.5"/>
<text text-anchor="middle" x="253.688" y="-708.3" font-family="Times,serif" font-size="14.00">Ability</text>
<polyline fill="none" stroke="black" points="225.853,-701.5 281.522,-701.5 "/>
<text text-anchor="middle" x="253.688" y="-686.3" font-family="Times,serif" font-size="14.00"> </text>
</g>
<!-- Capability -->
<g id="node3" class="node"><title>Capability</title>
<path fill="none" stroke="black" d="M305.825,-0.5C305.825,-0.5 529.55,-0.5 529.55,-0.5 535.55,-0.5 541.55,-6.5 541.55,-12.5 541.55,-12.5 541.55,-102.5 541.55,-102.5 541.55,-108.5 535.55,-114.5 529.55,-114.5 529.55,-114.5 305.825,-114.5 305.825,-114.5 299.825,-114.5 293.825,-108.5 293.825,-102.5 293.825,-102.5 293.825,-12.5 293.825,-12.5 293.825,-6.5 299.825,-0.5 305.825,-0.5"/>
<text text-anchor="middle" x="417.688" y="-99.3" font-family="Times,serif" font-size="14.00">Capability</text>
<polyline fill="none" stroke="black" points="293.825,-92.5 541.55,-92.5 "/>
<text text-anchor="start" x="301.825" y="-77.3" font-family="Times,serif" font-size="14.00">id :uuid</text>
<text text-anchor="start" x="301.825" y="-63.3" font-family="Times,serif" font-size="14.00">entity_id :uuid</text>
<text text-anchor="start" x="301.825" y="-49.3" font-family="Times,serif" font-size="14.00">entity_type :character varying</text>
<text text-anchor="start" x="301.825" y="-35.3" font-family="Times,serif" font-size="14.00">role_id :uuid</text>
<text text-anchor="start" x="301.825" y="-21.3" font-family="Times,serif" font-size="14.00">created_at :timestamp without time zone</text>
<text text-anchor="start" x="301.825" y="-7.3" font-family="Times,serif" font-size="14.00">updated_at :timestamp without time zone</text>
</g>
<!-- Client -->
<g id="node4" class="node"><title>Client</title>
<path fill="none" stroke="black" d="M577.825,-637.5C577.825,-637.5 801.55,-637.5 801.55,-637.5 807.55,-637.5 813.55,-643.5 813.55,-649.5 813.55,-649.5 813.55,-753.5 813.55,-753.5 813.55,-759.5 807.55,-765.5 801.55,-765.5 801.55,-765.5 577.825,-765.5 577.825,-765.5 571.825,-765.5 565.825,-759.5 565.825,-753.5 565.825,-753.5 565.825,-649.5 565.825,-649.5 565.825,-643.5 571.825,-637.5 577.825,-637.5"/>
<text text-anchor="middle" x="689.688" y="-750.3" font-family="Times,serif" font-size="14.00">Client</text>
<polyline fill="none" stroke="black" points="565.825,-743.5 813.55,-743.5 "/>
<text text-anchor="start" x="573.825" y="-728.3" font-family="Times,serif" font-size="14.00">icon_url :character varying</text>
<text text-anchor="start" x="573.825" y="-714.3" font-family="Times,serif" font-size="14.00">name :character varying</text>
<text text-anchor="start" x="573.825" y="-700.3" font-family="Times,serif" font-size="14.00">launch_url :character varying</text>
<text text-anchor="start" x="573.825" y="-686.3" font-family="Times,serif" font-size="14.00">id :uuid</text>
<text text-anchor="start" x="573.825" y="-672.3" font-family="Times,serif" font-size="14.00">available :boolean</text>
<text text-anchor="start" x="573.825" y="-658.3" font-family="Times,serif" font-size="14.00">created_at :timestamp without time zone</text>
<text text-anchor="start" x="573.825" y="-644.3" font-family="Times,serif" font-size="14.00">updated_at :timestamp without time zone</text>
</g>
<!-- Context -->
<g id="node5" class="node"><title>Context</title>
<path fill="none" stroke="black" d="M1303.83,-457.5C1303.83,-457.5 1527.55,-457.5 1527.55,-457.5 1533.55,-457.5 1539.55,-463.5 1539.55,-469.5 1539.55,-469.5 1539.55,-545.5 1539.55,-545.5 1539.55,-551.5 1533.55,-557.5 1527.55,-557.5 1527.55,-557.5 1303.83,-557.5 1303.83,-557.5 1297.83,-557.5 1291.83,-551.5 1291.83,-545.5 1291.83,-545.5 1291.83,-469.5 1291.83,-469.5 1291.83,-463.5 1297.83,-457.5 1303.83,-457.5"/>
<text text-anchor="middle" x="1415.69" y="-542.3" font-family="Times,serif" font-size="14.00">Context</text>
<polyline fill="none" stroke="black" points="1291.83,-535.5 1539.55,-535.5 "/>
<text text-anchor="start" x="1299.83" y="-520.3" font-family="Times,serif" font-size="14.00">id :uuid</text>
<text text-anchor="start" x="1299.83" y="-506.3" font-family="Times,serif" font-size="14.00">name :character varying</text>
<text text-anchor="start" x="1299.83" y="-492.3" font-family="Times,serif" font-size="14.00">purpose :character varying</text>
<text text-anchor="start" x="1299.83" y="-478.3" font-family="Times,serif" font-size="14.00">created_at :timestamp without time zone</text>
<text text-anchor="start" x="1299.83" y="-464.3" font-family="Times,serif" font-size="14.00">updated_at :timestamp without time zone</text>
</g>
<!-- Focus -->
<g id="node6" class="node"><title>Focus</title>
<path fill="none" stroke="black" d="M1647.83,-201.5C1647.83,-201.5 1871.55,-201.5 1871.55,-201.5 1877.55,-201.5 1883.55,-207.5 1883.55,-213.5 1883.55,-213.5 1883.55,-303.5 1883.55,-303.5 1883.55,-309.5 1877.55,-315.5 1871.55,-315.5 1871.55,-315.5 1647.83,-315.5 1647.83,-315.5 1641.83,-315.5 1635.83,-309.5 1635.83,-303.5 1635.83,-303.5 1635.83,-213.5 1635.83,-213.5 1635.83,-207.5 1641.83,-201.5 1647.83,-201.5"/>
<text text-anchor="middle" x="1759.69" y="-300.3" font-family="Times,serif" font-size="14.00">Focus</text>
<polyline fill="none" stroke="black" points="1635.83,-293.5 1883.55,-293.5 "/>
<text text-anchor="start" x="1643.83" y="-278.3" font-family="Times,serif" font-size="14.00">id :uuid</text>
<text text-anchor="start" x="1643.83" y="-264.3" font-family="Times,serif" font-size="14.00">context_id :uuid</text>
<text text-anchor="start" x="1643.83" y="-250.3" font-family="Times,serif" font-size="14.00">user_id :uuid</text>
<text text-anchor="start" x="1643.83" y="-236.3" font-family="Times,serif" font-size="14.00">snomedct_concept_id :uuid</text>
<text text-anchor="start" x="1643.83" y="-222.3" font-family="Times,serif" font-size="14.00">created_at :timestamp without time zone</text>
<text text-anchor="start" x="1643.83" y="-208.3" font-family="Times,serif" font-size="14.00">updated_at :timestamp without time zone</text>
</g>
<!-- Context&#45;&gt;Focus -->
<g id="edge2" class="edge"><title>Context&#45;&gt;Focus</title>
<path fill="none" stroke="#7f7436" d="M1499.11,-452.766C1538.33,-426.942 1585.44,-395.118 1626.69,-365 1645.16,-351.511 1664.66,-336.504 1682.86,-322.139"/>
<ellipse fill="none" stroke="#7f7436" cx="1495.73" cy="-454.989" rx="4.00002" ry="4.00002"/>
<polygon fill="#7f7436" stroke="#7f7436" points="1683.29,-321.802 1693.92,-319.12 1687.21,-318.697 1691.12,-315.592 1691.12,-315.592 1691.12,-315.592 1687.21,-318.697 1688.33,-312.065 1683.29,-321.802 1683.29,-321.802"/>
</g>
<!-- Participant -->
<g id="node12" class="node"><title>Participant</title>
<path fill="none" stroke="black" d="M1115.83,-208.5C1115.83,-208.5 1339.55,-208.5 1339.55,-208.5 1345.55,-208.5 1351.55,-214.5 1351.55,-220.5 1351.55,-220.5 1351.55,-296.5 1351.55,-296.5 1351.55,-302.5 1345.55,-308.5 1339.55,-308.5 1339.55,-308.5 1115.83,-308.5 1115.83,-308.5 1109.83,-308.5 1103.83,-302.5 1103.83,-296.5 1103.83,-296.5 1103.83,-220.5 1103.83,-220.5 1103.83,-214.5 1109.83,-208.5 1115.83,-208.5"/>
<text text-anchor="middle" x="1227.69" y="-293.3" font-family="Times,serif" font-size="14.00">Participant</text>
<polyline fill="none" stroke="black" points="1103.83,-286.5 1351.55,-286.5 "/>
<text text-anchor="start" x="1111.83" y="-271.3" font-family="Times,serif" font-size="14.00">id :uuid</text>
<text text-anchor="start" x="1111.83" y="-257.3" font-family="Times,serif" font-size="14.00">context_id :uuid</text>
<text text-anchor="start" x="1111.83" y="-243.3" font-family="Times,serif" font-size="14.00">user_id :uuid</text>
<text text-anchor="start" x="1111.83" y="-229.3" font-family="Times,serif" font-size="14.00">created_at :timestamp without time zone</text>
<text text-anchor="start" x="1111.83" y="-215.3" font-family="Times,serif" font-size="14.00">updated_at :timestamp without time zone</text>
</g>
<!-- Context&#45;&gt;Participant -->
<g id="edge1" class="edge"><title>Context&#45;&gt;Participant</title>
<path fill="none" stroke="#a0f4e4" d="M1373.4,-450.945C1342.93,-410.91 1301.93,-357.045 1271.19,-316.65"/>
<ellipse fill="none" stroke="#a0f4e4" cx="1375.9" cy="-454.223" rx="4.00002" ry="4.00002"/>
<polygon fill="#a0f4e4" stroke="#a0f4e4" points="1271.04,-316.459 1268.57,-305.776 1268.01,-312.48 1264.98,-308.502 1264.98,-308.502 1264.98,-308.502 1268.01,-312.48 1261.4,-311.227 1271.04,-316.459 1271.04,-316.459"/>
</g>
<!-- Group -->
<g id="node7" class="node"><title>Group</title>
<path fill="none" stroke="black" d="M311.825,-651.5C311.825,-651.5 535.55,-651.5 535.55,-651.5 541.55,-651.5 547.55,-657.5 547.55,-663.5 547.55,-663.5 547.55,-739.5 547.55,-739.5 547.55,-745.5 541.55,-751.5 535.55,-751.5 535.55,-751.5 311.825,-751.5 311.825,-751.5 305.825,-751.5 299.825,-745.5 299.825,-739.5 299.825,-739.5 299.825,-663.5 299.825,-663.5 299.825,-657.5 305.825,-651.5 311.825,-651.5"/>
<text text-anchor="middle" x="423.688" y="-736.3" font-family="Times,serif" font-size="14.00">Group</text>
<polyline fill="none" stroke="black" points="299.825,-729.5 547.55,-729.5 "/>
<text text-anchor="start" x="307.825" y="-714.3" font-family="Times,serif" font-size="14.00">id :uuid</text>
<text text-anchor="start" x="307.825" y="-700.3" font-family="Times,serif" font-size="14.00">name :character varying</text>
<text text-anchor="start" x="307.825" y="-686.3" font-family="Times,serif" font-size="14.00">description :text</text>
<text text-anchor="start" x="307.825" y="-672.3" font-family="Times,serif" font-size="14.00">created_at :timestamp without time zone</text>
<text text-anchor="start" x="307.825" y="-658.3" font-family="Times,serif" font-size="14.00">updated_at :timestamp without time zone</text>
</g>
<!-- Group&#45;&gt;Capability -->
<g id="edge5" class="edge"><title>Group&#45;&gt;Capability</title>
<path fill="none" stroke="#902625" d="M349.09,-646.109C274.966,-586.768 166.49,-484.169 124.688,-365 93.3524,-275.67 68.8428,-228.44 124.688,-152 161.238,-101.971 224.852,-78.0849 283.486,-66.9214"/>
<ellipse fill="none" stroke="#902625" cx="352.572" cy="-648.875" rx="4.00002" ry="4.00002"/>
<polygon fill="#902625" stroke="#902625" points="283.762,-66.872 294.399,-69.5386 288.684,-65.9905 293.605,-65.1091 293.605,-65.1091 293.605,-65.1091 288.684,-65.9905 292.812,-60.6795 283.762,-66.872 283.762,-66.872"/>
</g>
<!-- Member -->
<g id="node11" class="node"><title>Member</title>
<path fill="none" stroke="black" d="M145.825,-208.5C145.825,-208.5 369.55,-208.5 369.55,-208.5 375.55,-208.5 381.55,-214.5 381.55,-220.5 381.55,-220.5 381.55,-296.5 381.55,-296.5 381.55,-302.5 375.55,-308.5 369.55,-308.5 369.55,-308.5 145.825,-308.5 145.825,-308.5 139.825,-308.5 133.825,-302.5 133.825,-296.5 133.825,-296.5 133.825,-220.5 133.825,-220.5 133.825,-214.5 139.825,-208.5 145.825,-208.5"/>
<text text-anchor="middle" x="257.688" y="-293.3" font-family="Times,serif" font-size="14.00">Member</text>
<polyline fill="none" stroke="black" points="133.825,-286.5 381.55,-286.5 "/>
<text text-anchor="start" x="141.825" y="-271.3" font-family="Times,serif" font-size="14.00">id :uuid</text>
<text text-anchor="start" x="141.825" y="-257.3" font-family="Times,serif" font-size="14.00">group_id :uuid</text>
<text text-anchor="start" x="141.825" y="-243.3" font-family="Times,serif" font-size="14.00">user_id :uuid</text>
<text text-anchor="start" x="141.825" y="-229.3" font-family="Times,serif" font-size="14.00">created_at :timestamp without time zone</text>
<text text-anchor="start" x="141.825" y="-215.3" font-family="Times,serif" font-size="14.00">updated_at :timestamp without time zone</text>
</g>
<!-- Group&#45;&gt;Member -->
<g id="edge3" class="edge"><title>Group&#45;&gt;Member</title>
<path fill="none" stroke="#509601" d="M402.238,-643.516C370.629,-559.543 311.834,-403.345 279.832,-318.328"/>
<ellipse fill="none" stroke="#509601" cx="403.719" cy="-647.452" rx="4.00001" ry="4.00001"/>
<polygon fill="#509601" stroke="#509601" points="279.777,-318.183 280.466,-307.239 278.016,-313.504 276.254,-308.824 276.254,-308.824 276.254,-308.824 278.016,-313.504 272.043,-310.409 279.777,-318.183 279.777,-318.183"/>
</g>
<!-- User -->
<g id="node19" class="node"><title>User</title>
<path fill="none" stroke="black" d="M712.825,-429.5C712.825,-429.5 936.55,-429.5 936.55,-429.5 942.55,-429.5 948.55,-435.5 948.55,-441.5 948.55,-441.5 948.55,-573.5 948.55,-573.5 948.55,-579.5 942.55,-585.5 936.55,-585.5 936.55,-585.5 712.825,-585.5 712.825,-585.5 706.825,-585.5 700.825,-579.5 700.825,-573.5 700.825,-573.5 700.825,-441.5 700.825,-441.5 700.825,-435.5 706.825,-429.5 712.825,-429.5"/>
<text text-anchor="middle" x="824.688" y="-570.3" font-family="Times,serif" font-size="14.00">User</text>
<polyline fill="none" stroke="black" points="700.825,-563.5 948.55,-563.5 "/>
<text text-anchor="start" x="708.825" y="-548.3" font-family="Times,serif" font-size="14.00">updated_at :timestamp without time zone</text>
<text text-anchor="start" x="708.825" y="-534.3" font-family="Times,serif" font-size="14.00">name :character varying</text>
<text text-anchor="start" x="708.825" y="-520.3" font-family="Times,serif" font-size="14.00">external_id :character varying</text>
<text text-anchor="start" x="708.825" y="-506.3" font-family="Times,serif" font-size="14.00">salutation :character varying</text>
<text text-anchor="start" x="708.825" y="-492.3" font-family="Times,serif" font-size="14.00">first_name :character varying</text>
<text text-anchor="start" x="708.825" y="-478.3" font-family="Times,serif" font-size="14.00">middle_name :character varying</text>
<text text-anchor="start" x="708.825" y="-464.3" font-family="Times,serif" font-size="14.00">last_name :character varying</text>
<text text-anchor="start" x="708.825" y="-450.3" font-family="Times,serif" font-size="14.00">created_at :timestamp without time zone</text>
<text text-anchor="start" x="708.825" y="-436.3" font-family="Times,serif" font-size="14.00">id :uuid</text>
</g>
<!-- Group&#45;&gt;User -->
<g id="edge4" class="edge"><title>Group&#45;&gt;User</title>
<path fill="none" stroke="#d0ec20" d="M535.317,-647.051C583.774,-623.85 640.912,-596.492 691.561,-572.242"/>
<polygon fill="#d0ec20" stroke="#d0ec20" points="535.194,-647.11 524.231,-647.37 530.684,-649.27 526.174,-651.429 526.174,-651.429 526.174,-651.429 530.684,-649.27 528.118,-655.488 535.194,-647.11 535.194,-647.11"/>
<polygon fill="#d0ec20" stroke="#d0ec20" points="691.591,-572.227 702.553,-571.967 696.1,-570.068 700.61,-567.909 700.61,-567.909 700.61,-567.909 696.1,-570.068 698.667,-563.85 691.591,-572.227 691.591,-572.227"/>
</g>
<!-- Identity -->
<g id="node8" class="node"><title>Identity</title>
<path fill="none" stroke="black" d="M1951.83,-152.5C1951.83,-152.5 2175.55,-152.5 2175.55,-152.5 2181.55,-152.5 2187.55,-158.5 2187.55,-164.5 2187.55,-164.5 2187.55,-352.5 2187.55,-352.5 2187.55,-358.5 2181.55,-364.5 2175.55,-364.5 2175.55,-364.5 1951.83,-364.5 1951.83,-364.5 1945.83,-364.5 1939.83,-358.5 1939.83,-352.5 1939.83,-352.5 1939.83,-164.5 1939.83,-164.5 1939.83,-158.5 1945.83,-152.5 1951.83,-152.5"/>
<text text-anchor="middle" x="2063.69" y="-349.3" font-family="Times,serif" font-size="14.00">Identity</text>
<polyline fill="none" stroke="black" points="1939.83,-342.5 2187.55,-342.5 "/>
<text text-anchor="start" x="1947.83" y="-327.3" font-family="Times,serif" font-size="14.00">updated_at :timestamp without time zone</text>
<text text-anchor="start" x="1947.83" y="-313.3" font-family="Times,serif" font-size="14.00">user_id :uuid</text>
<text text-anchor="start" x="1947.83" y="-299.3" font-family="Times,serif" font-size="14.00">provider_id :uuid</text>
<text text-anchor="start" x="1947.83" y="-285.3" font-family="Times,serif" font-size="14.00">sub :character varying</text>
<text text-anchor="start" x="1947.83" y="-271.3" font-family="Times,serif" font-size="14.00">iat :character varying</text>
<text text-anchor="start" x="1947.83" y="-257.3" font-family="Times,serif" font-size="14.00">hd :character varying</text>
<text text-anchor="start" x="1947.83" y="-243.3" font-family="Times,serif" font-size="14.00">locale :character varying</text>
<text text-anchor="start" x="1947.83" y="-229.3" font-family="Times,serif" font-size="14.00">email :character varying</text>
<text text-anchor="start" x="1947.83" y="-215.3" font-family="Times,serif" font-size="14.00">jwt :json</text>
<text text-anchor="start" x="1947.83" y="-201.3" font-family="Times,serif" font-size="14.00">notify_via_email :boolean</text>
<text text-anchor="start" x="1947.83" y="-187.3" font-family="Times,serif" font-size="14.00">notify_via_sms :boolean</text>
<text text-anchor="start" x="1947.83" y="-173.3" font-family="Times,serif" font-size="14.00">created_at :timestamp without time zone</text>
<text text-anchor="start" x="1947.83" y="-159.3" font-family="Times,serif" font-size="14.00">id :uuid</text>
</g>
<!-- Session -->
<g id="node16" class="node"><title>Session</title>
<path fill="none" stroke="black" d="M1951.83,-7.5C1951.83,-7.5 2175.55,-7.5 2175.55,-7.5 2181.55,-7.5 2187.55,-13.5 2187.55,-19.5 2187.55,-19.5 2187.55,-95.5 2187.55,-95.5 2187.55,-101.5 2181.55,-107.5 2175.55,-107.5 2175.55,-107.5 1951.83,-107.5 1951.83,-107.5 1945.83,-107.5 1939.83,-101.5 1939.83,-95.5 1939.83,-95.5 1939.83,-19.5 1939.83,-19.5 1939.83,-13.5 1945.83,-7.5 1951.83,-7.5"/>
<text text-anchor="middle" x="2063.69" y="-92.3" font-family="Times,serif" font-size="14.00">Session</text>
<polyline fill="none" stroke="black" points="1939.83,-85.5 2187.55,-85.5 "/>
<text text-anchor="start" x="1947.83" y="-70.3" font-family="Times,serif" font-size="14.00">id :uuid</text>
<text text-anchor="start" x="1947.83" y="-56.3" font-family="Times,serif" font-size="14.00">identity_id :uuid</text>
<text text-anchor="start" x="1947.83" y="-42.3" font-family="Times,serif" font-size="14.00">expires_at :timestamp without time zone</text>
<text text-anchor="start" x="1947.83" y="-28.3" font-family="Times,serif" font-size="14.00">created_at :timestamp without time zone</text>
<text text-anchor="start" x="1947.83" y="-14.3" font-family="Times,serif" font-size="14.00">updated_at :timestamp without time zone</text>
</g>
<!-- Identity&#45;&gt;Session -->
<g id="edge6" class="edge"><title>Identity&#45;&gt;Session</title>
<path fill="none" stroke="#cd82c8" d="M2063.69,-144.129C2063.69,-135.249 2063.69,-126.519 2063.69,-118.23"/>
<ellipse fill="none" stroke="#cd82c8" cx="2063.69" cy="-148.464" rx="4" ry="4"/>
<polygon fill="#cd82c8" stroke="#cd82c8" points="2063.69,-117.988 2068.19,-107.988 2063.69,-112.988 2063.69,-107.988 2063.69,-107.988 2063.69,-107.988 2063.69,-112.988 2059.19,-107.988 2063.69,-117.988 2063.69,-117.988"/>
</g>
<!-- Interest -->
<g id="node9" class="node"><title>Interest</title>
<path fill="none" stroke="black" d="M1335.83,-7.5C1335.83,-7.5 1559.55,-7.5 1559.55,-7.5 1565.55,-7.5 1571.55,-13.5 1571.55,-19.5 1571.55,-19.5 1571.55,-95.5 1571.55,-95.5 1571.55,-101.5 1565.55,-107.5 1559.55,-107.5 1559.55,-107.5 1335.83,-107.5 1335.83,-107.5 1329.83,-107.5 1323.83,-101.5 1323.83,-95.5 1323.83,-95.5 1323.83,-19.5 1323.83,-19.5 1323.83,-13.5 1329.83,-7.5 1335.83,-7.5"/>
<text text-anchor="middle" x="1447.69" y="-92.3" font-family="Times,serif" font-size="14.00">Interest</text>
<polyline fill="none" stroke="black" points="1323.83,-85.5 1571.55,-85.5 "/>
<text text-anchor="start" x="1331.83" y="-70.3" font-family="Times,serif" font-size="14.00">id :uuid</text>
<text text-anchor="start" x="1331.83" y="-56.3" font-family="Times,serif" font-size="14.00">role_id :uuid</text>
<text text-anchor="start" x="1331.83" y="-42.3" font-family="Times,serif" font-size="14.00">snomedct_concept_id :uuid</text>
<text text-anchor="start" x="1331.83" y="-28.3" font-family="Times,serif" font-size="14.00">created_at :timestamp without time zone</text>
<text text-anchor="start" x="1331.83" y="-14.3" font-family="Times,serif" font-size="14.00">updated_at :timestamp without time zone</text>
</g>
<!-- Issue -->
<g id="node10" class="node"><title>Issue</title>
<path fill="none" stroke="black" d="M1381.83,-208.5C1381.83,-208.5 1605.55,-208.5 1605.55,-208.5 1611.55,-208.5 1617.55,-214.5 1617.55,-220.5 1617.55,-220.5 1617.55,-296.5 1617.55,-296.5 1617.55,-302.5 1611.55,-308.5 1605.55,-308.5 1605.55,-308.5 1381.83,-308.5 1381.83,-308.5 1375.83,-308.5 1369.83,-302.5 1369.83,-296.5 1369.83,-296.5 1369.83,-220.5 1369.83,-220.5 1369.83,-214.5 1375.83,-208.5 1381.83,-208.5"/>
<text text-anchor="middle" x="1493.69" y="-293.3" font-family="Times,serif" font-size="14.00">Issue</text>
<polyline fill="none" stroke="black" points="1369.83,-286.5 1617.55,-286.5 "/>
<text text-anchor="start" x="1377.83" y="-271.3" font-family="Times,serif" font-size="14.00">id :uuid</text>
<text text-anchor="start" x="1377.83" y="-257.3" font-family="Times,serif" font-size="14.00">user_id :uuid</text>
<text text-anchor="start" x="1377.83" y="-243.3" font-family="Times,serif" font-size="14.00">snomedct_concept_id :uuid</text>
<text text-anchor="start" x="1377.83" y="-229.3" font-family="Times,serif" font-size="14.00">created_at :timestamp without time zone</text>
<text text-anchor="start" x="1377.83" y="-215.3" font-family="Times,serif" font-size="14.00">updated_at :timestamp without time zone</text>
</g>
<!-- Provider -->
<g id="node13" class="node"><title>Provider</title>
<path fill="none" stroke="black" d="M1951.83,-415.5C1951.83,-415.5 2175.55,-415.5 2175.55,-415.5 2181.55,-415.5 2187.55,-421.5 2187.55,-427.5 2187.55,-427.5 2187.55,-587.5 2187.55,-587.5 2187.55,-593.5 2181.55,-599.5 2175.55,-599.5 2175.55,-599.5 1951.83,-599.5 1951.83,-599.5 1945.83,-599.5 1939.83,-593.5 1939.83,-587.5 1939.83,-587.5 1939.83,-427.5 1939.83,-427.5 1939.83,-421.5 1945.83,-415.5 1951.83,-415.5"/>
<text text-anchor="middle" x="2063.69" y="-584.3" font-family="Times,serif" font-size="14.00">Provider</text>
<polyline fill="none" stroke="black" points="1939.83,-577.5 2187.55,-577.5 "/>
<text text-anchor="start" x="1947.83" y="-562.3" font-family="Times,serif" font-size="14.00">scopes :character varying</text>
<text text-anchor="start" x="1947.83" y="-548.3" font-family="Times,serif" font-size="14.00">name :character varying</text>
<text text-anchor="start" x="1947.83" y="-534.3" font-family="Times,serif" font-size="14.00">issuer :character varying</text>
<text text-anchor="start" x="1947.83" y="-520.3" font-family="Times,serif" font-size="14.00">client_id :character varying</text>
<text text-anchor="start" x="1947.83" y="-506.3" font-family="Times,serif" font-size="14.00">client_secret :character varying</text>
<text text-anchor="start" x="1947.83" y="-492.3" font-family="Times,serif" font-size="14.00">alternate_client_id :character varying</text>
<text text-anchor="start" x="1947.83" y="-478.3" font-family="Times,serif" font-size="14.00">configuration :json</text>
<text text-anchor="start" x="1947.83" y="-464.3" font-family="Times,serif" font-size="14.00">public_keys :json</text>
<text text-anchor="start" x="1947.83" y="-450.3" font-family="Times,serif" font-size="14.00">created_at :timestamp without time zone</text>
<text text-anchor="start" x="1947.83" y="-436.3" font-family="Times,serif" font-size="14.00">updated_at :timestamp without time zone</text>
<text text-anchor="start" x="1947.83" y="-422.3" font-family="Times,serif" font-size="14.00">id :uuid</text>
</g>
<!-- Provider&#45;&gt;Identity -->
<g id="edge7" class="edge"><title>Provider&#45;&gt;Identity</title>
<path fill="none" stroke="#0abe83" d="M2063.69,-407.051C2063.69,-396.455 2063.69,-385.613 2063.69,-374.854"/>
<ellipse fill="none" stroke="#0abe83" cx="2063.69" cy="-411.228" rx="4" ry="4"/>
<polygon fill="#0abe83" stroke="#0abe83" points="2063.69,-374.575 2068.19,-364.575 2063.69,-369.575 2063.69,-364.575 2063.69,-364.575 2063.69,-364.575 2063.69,-369.575 2059.19,-364.575 2063.69,-374.575 2063.69,-374.575"/>
</g>
<!-- Result -->
<g id="node14" class="node"><title>Result</title>
<path fill="none" stroke="black" d="M575.163,-201.5C575.163,-201.5 808.212,-201.5 808.212,-201.5 814.212,-201.5 820.212,-207.5 820.212,-213.5 820.212,-213.5 820.212,-303.5 820.212,-303.5 820.212,-309.5 814.212,-315.5 808.212,-315.5 808.212,-315.5 575.163,-315.5 575.163,-315.5 569.163,-315.5 563.163,-309.5 563.163,-303.5 563.163,-303.5 563.163,-213.5 563.163,-213.5 563.163,-207.5 569.163,-201.5 575.163,-201.5"/>
<text text-anchor="middle" x="691.688" y="-300.3" font-family="Times,serif" font-size="14.00">Result</text>
<polyline fill="none" stroke="black" points="563.163,-293.5 820.212,-293.5 "/>
<text text-anchor="start" x="571.163" y="-278.3" font-family="Times,serif" font-size="14.00">id :uuid</text>
<text text-anchor="start" x="571.163" y="-264.3" font-family="Times,serif" font-size="14.00">user_id :uuid</text>
<text text-anchor="start" x="571.163" y="-250.3" font-family="Times,serif" font-size="14.00">ordered_at :timestamp without time zone</text>
<text text-anchor="start" x="571.163" y="-236.3" font-family="Times,serif" font-size="14.00">requested_at :timestamp without time zone</text>
<text text-anchor="start" x="571.163" y="-222.3" font-family="Times,serif" font-size="14.00">created_at :timestamp without time zone</text>
<text text-anchor="start" x="571.163" y="-208.3" font-family="Times,serif" font-size="14.00">updated_at :timestamp without time zone</text>
</g>
<!-- Role -->
<g id="node15" class="node"><title>Role</title>
<path fill="none" stroke="black" d="M849.825,-201.5C849.825,-201.5 1073.55,-201.5 1073.55,-201.5 1079.55,-201.5 1085.55,-207.5 1085.55,-213.5 1085.55,-213.5 1085.55,-303.5 1085.55,-303.5 1085.55,-309.5 1079.55,-315.5 1073.55,-315.5 1073.55,-315.5 849.825,-315.5 849.825,-315.5 843.825,-315.5 837.825,-309.5 837.825,-303.5 837.825,-303.5 837.825,-213.5 837.825,-213.5 837.825,-207.5 843.825,-201.5 849.825,-201.5"/>
<text text-anchor="middle" x="961.688" y="-300.3" font-family="Times,serif" font-size="14.00">Role</text>
<polyline fill="none" stroke="black" points="837.825,-293.5 1085.55,-293.5 "/>
<text text-anchor="start" x="845.825" y="-278.3" font-family="Times,serif" font-size="14.00">id :uuid</text>
<text text-anchor="start" x="845.825" y="-264.3" font-family="Times,serif" font-size="14.00">name :character varying</text>
<text text-anchor="start" x="845.825" y="-250.3" font-family="Times,serif" font-size="14.00">code :character varying</text>
<text text-anchor="start" x="845.825" y="-236.3" font-family="Times,serif" font-size="14.00">description :text</text>
<text text-anchor="start" x="845.825" y="-222.3" font-family="Times,serif" font-size="14.00">created_at :timestamp without time zone</text>
<text text-anchor="start" x="845.825" y="-208.3" font-family="Times,serif" font-size="14.00">updated_at :timestamp without time zone</text>
</g>
<!-- Role&#45;&gt;Capability -->
<g id="edge9" class="edge"><title>Role&#45;&gt;Capability</title>
<path fill="none" stroke="#6a04ed" d="M896.978,-196.243C876.708,-179.791 853.403,-163.418 829.688,-152 742.211,-109.882 635.045,-86.3215 551.939,-73.3884"/>
<ellipse fill="none" stroke="#6a04ed" cx="900.082" cy="-198.802" rx="4.00002" ry="4.00002"/>
<polygon fill="#6a04ed" stroke="#6a04ed" points="551.813,-73.3692 542.604,-67.4146 546.87,-72.6162 541.927,-71.8633 541.927,-71.8633 541.927,-71.8633 546.87,-72.6162 541.249,-76.312 551.813,-73.3692 551.813,-73.3692"/>
</g>
<!-- Role&#45;&gt;Group -->
<g id="edge11" class="edge"><title>Role&#45;&gt;Group</title>
<path fill="none" stroke="#6eaa5a" d="M984.215,-325.746C1005.56,-402.179 1025.31,-526.716 957.688,-600 896.999,-665.767 642.966,-613.24 556.688,-637 546.3,-639.861 535.731,-643.498 525.321,-647.58"/>
<polygon fill="#6eaa5a" stroke="#6eaa5a" points="984.104,-325.361 985.662,-314.506 982.721,-320.556 981.338,-315.751 981.338,-315.751 981.338,-315.751 982.721,-320.556 977.013,-316.996 984.104,-325.361 984.104,-325.361"/>
<polygon fill="#6eaa5a" stroke="#6eaa5a" points="525.08,-647.678 514.122,-647.275 520.448,-649.561 515.816,-651.444 515.816,-651.444 515.816,-651.444 520.448,-649.561 517.511,-655.612 525.08,-647.678 525.08,-647.678"/>
</g>
<!-- Role&#45;&gt;Interest -->
<g id="edge8" class="edge"><title>Role&#45;&gt;Interest</title>
<path fill="none" stroke="#dbe571" d="M1028.1,-196.084C1048.32,-179.881 1071.39,-163.682 1094.69,-152 1163.15,-117.671 1245.61,-94.9204 1313.61,-80.4649"/>
<ellipse fill="none" stroke="#dbe571" cx="1024.74" cy="-198.815" rx="4.00002" ry="4.00002"/>
<polygon fill="#dbe571" stroke="#dbe571" points="1313.75,-80.4367 1324.45,-82.7968 1318.64,-79.4143 1323.53,-78.3919 1323.53,-78.3919 1323.53,-78.3919 1318.64,-79.4143 1322.61,-73.987 1313.75,-80.4367 1313.75,-80.4367"/>
</g>
<!-- Role&#45;&gt;User -->
<g id="edge10" class="edge"><title>Role&#45;&gt;User</title>
<path fill="none" stroke="#e7789b" d="M951.241,-325.59C945.785,-349.088 937.656,-375.121 925.688,-397 921.221,-405.165 916.015,-413.198 910.365,-420.974"/>
<polygon fill="#e7789b" stroke="#e7789b" points="951.27,-325.46 957.814,-316.661 952.345,-320.577 953.419,-315.694 953.419,-315.694 953.419,-315.694 952.345,-320.577 949.025,-314.727 951.27,-325.46 951.27,-325.46"/>
<polygon fill="#e7789b" stroke="#e7789b" points="910.1,-421.326 900.483,-426.595 907.087,-425.316 904.074,-429.307 904.074,-429.307 904.074,-429.307 907.087,-425.316 907.666,-432.018 910.1,-421.326 910.1,-421.326"/>
</g>
<!-- SnomedctConcept -->
<g id="node17" class="node"><title>SnomedctConcept</title>
<path fill="none" stroke="black" d="M1666.83,-436.5C1666.83,-436.5 1890.55,-436.5 1890.55,-436.5 1896.55,-436.5 1902.55,-442.5 1902.55,-448.5 1902.55,-448.5 1902.55,-566.5 1902.55,-566.5 1902.55,-572.5 1896.55,-578.5 1890.55,-578.5 1890.55,-578.5 1666.83,-578.5 1666.83,-578.5 1660.83,-578.5 1654.83,-572.5 1654.83,-566.5 1654.83,-566.5 1654.83,-448.5 1654.83,-448.5 1654.83,-442.5 1660.83,-436.5 1666.83,-436.5"/>
<text text-anchor="middle" x="1778.69" y="-563.3" font-family="Times,serif" font-size="14.00">SnomedctConcept</text>
<polyline fill="none" stroke="black" points="1654.83,-556.5 1902.55,-556.5 "/>
<text text-anchor="start" x="1662.83" y="-541.3" font-family="Times,serif" font-size="14.00">updated_at :timestamp without time zone</text>
<text text-anchor="start" x="1662.83" y="-527.3" font-family="Times,serif" font-size="14.00">snomedct_id :bigint</text>
<text text-anchor="start" x="1662.83" y="-513.3" font-family="Times,serif" font-size="14.00">effective_time :date</text>
<text text-anchor="start" x="1662.83" y="-499.3" font-family="Times,serif" font-size="14.00">active :boolean</text>
<text text-anchor="start" x="1662.83" y="-485.3" font-family="Times,serif" font-size="14.00">module_id :bigint</text>
<text text-anchor="start" x="1662.83" y="-471.3" font-family="Times,serif" font-size="14.00">definition_status_id :bigint</text>
<text text-anchor="start" x="1662.83" y="-457.3" font-family="Times,serif" font-size="14.00">created_at :timestamp without time zone</text>
<text text-anchor="start" x="1662.83" y="-443.3" font-family="Times,serif" font-size="14.00">id :uuid</text>
</g>
<!-- SnomedctConcept&#45;&gt;Focus -->
<g id="edge14" class="edge"><title>SnomedctConcept&#45;&gt;Focus</title>
<path fill="none" stroke="#d73206" d="M1772.66,-428.199C1770.13,-395.217 1767.21,-357.246 1764.78,-325.689"/>
<ellipse fill="none" stroke="#d73206" cx="1772.99" cy="-432.392" rx="4" ry="4"/>
<polygon fill="#d73206" stroke="#d73206" points="1764.78,-325.654 1768.5,-315.338 1764.39,-320.669 1764.01,-315.683 1764.01,-315.683 1764.01,-315.683 1764.39,-320.669 1759.52,-316.028 1764.78,-325.654 1764.78,-325.654"/>
</g>
<!-- SnomedctConcept&#45;&gt;Interest -->
<g id="edge12" class="edge"><title>SnomedctConcept&#45;&gt;Interest</title>
<path fill="none" stroke="#44a6bd" d="M1855.49,-430.1C1870.7,-410.436 1884.5,-388.221 1892.69,-365 1924.18,-275.724 1952.35,-225.5 1892.69,-152 1854.01,-104.354 1698.19,-80.0952 1581.77,-68.3895"/>
<ellipse fill="none" stroke="#44a6bd" cx="1852.98" cy="-433.257" rx="4.00002" ry="4.00002"/>
<polygon fill="#44a6bd" stroke="#44a6bd" points="1581.65,-68.3774 1572.14,-62.9193 1576.67,-67.8876 1571.7,-67.3977 1571.7,-67.3977 1571.7,-67.3977 1576.67,-67.8876 1571.26,-71.876 1581.65,-68.3774 1581.65,-68.3774"/>
</g>
<!-- SnomedctConcept&#45;&gt;Issue -->
<g id="edge13" class="edge"><title>SnomedctConcept&#45;&gt;Issue</title>
<path fill="none" stroke="#3b7b1a" d="M1691.65,-431.071C1648.61,-393.77 1597.58,-349.536 1558.1,-315.326"/>
<ellipse fill="none" stroke="#3b7b1a" cx="1694.76" cy="-433.761" rx="4.00002" ry="4.00002"/>
<polygon fill="#3b7b1a" stroke="#3b7b1a" points="1557.92,-315.172 1553.31,-305.222 1554.15,-311.897 1550.37,-308.622 1550.37,-308.622 1550.37,-308.622 1554.15,-311.897 1547.42,-312.023 1557.92,-315.172 1557.92,-315.172"/>
</g>
<!-- SnomedctDescription -->
<g id="node18" class="node"><title>SnomedctDescription</title>
<path fill="none" stroke="black" d="M2217.83,-152.5C2217.83,-152.5 2441.55,-152.5 2441.55,-152.5 2447.55,-152.5 2453.55,-158.5 2453.55,-164.5 2453.55,-164.5 2453.55,-352.5 2453.55,-352.5 2453.55,-358.5 2447.55,-364.5 2441.55,-364.5 2441.55,-364.5 2217.83,-364.5 2217.83,-364.5 2211.83,-364.5 2205.83,-358.5 2205.83,-352.5 2205.83,-352.5 2205.83,-164.5 2205.83,-164.5 2205.83,-158.5 2211.83,-152.5 2217.83,-152.5"/>
<text text-anchor="middle" x="2329.69" y="-349.3" font-family="Times,serif" font-size="14.00">SnomedctDescription</text>
<polyline fill="none" stroke="black" points="2205.83,-342.5 2453.55,-342.5 "/>
<text text-anchor="start" x="2213.83" y="-327.3" font-family="Times,serif" font-size="14.00">updated_at :timestamp without time zone</text>
<text text-anchor="start" x="2213.83" y="-313.3" font-family="Times,serif" font-size="14.00">snomedct_concept_id :uuid</text>
<text text-anchor="start" x="2213.83" y="-299.3" font-family="Times,serif" font-size="14.00">snomedct_id :bigint</text>
<text text-anchor="start" x="2213.83" y="-285.3" font-family="Times,serif" font-size="14.00">effective_time :date</text>
<text text-anchor="start" x="2213.83" y="-271.3" font-family="Times,serif" font-size="14.00">active :boolean</text>
<text text-anchor="start" x="2213.83" y="-257.3" font-family="Times,serif" font-size="14.00">module_id :bigint</text>
<text text-anchor="start" x="2213.83" y="-243.3" font-family="Times,serif" font-size="14.00">concept_id :bigint</text>
<text text-anchor="start" x="2213.83" y="-229.3" font-family="Times,serif" font-size="14.00">language_code :character varying</text>
<text text-anchor="start" x="2213.83" y="-215.3" font-family="Times,serif" font-size="14.00">type_id :bigint</text>
<text text-anchor="start" x="2213.83" y="-201.3" font-family="Times,serif" font-size="14.00">term :character varying</text>
<text text-anchor="start" x="2213.83" y="-187.3" font-family="Times,serif" font-size="14.00">case_significance_id :bigint</text>
<text text-anchor="start" x="2213.83" y="-173.3" font-family="Times,serif" font-size="14.00">created_at :timestamp without time zone</text>
<text text-anchor="start" x="2213.83" y="-159.3" font-family="Times,serif" font-size="14.00">id :uuid</text>
</g>
<!-- SnomedctConcept&#45;&gt;SnomedctDescription -->
<g id="edge15" class="edge"><title>SnomedctConcept&#45;&gt;SnomedctDescription</title>
<path fill="none" stroke="#3c0c44" d="M1891.73,-432.602C1904.56,-425.996 1917.69,-419.948 1930.69,-415 2040.14,-373.321 2084.88,-412.754 2196.31,-364.823"/>
<ellipse fill="none" stroke="#3c0c44" cx="1888.18" cy="-434.466" rx="4.00002" ry="4.00002"/>
<polygon fill="#3c0c44" stroke="#3c0c44" points="2196.37,-364.795 2207.33,-364.846 2200.94,-362.764 2205.51,-360.733 2205.51,-360.733 2205.51,-360.733 2200.94,-362.764 2203.68,-356.621 2196.37,-364.795 2196.37,-364.795"/>
</g>
<!-- User&#45;&gt;Capability -->
<g id="edge17" class="edge"><title>User&#45;&gt;Capability</title>
<path fill="none" stroke="#f82fd2" d="M692.521,-497.18C601.744,-483.151 487.036,-448.729 426.163,-365 399.351,-328.121 404.628,-203.35 411.053,-124.831"/>
<ellipse fill="none" stroke="#f82fd2" cx="696.716" cy="-497.806" rx="4.00001" ry="4.00001"/>
<polygon fill="#f82fd2" stroke="#f82fd2" points="411.08,-124.512 416.407,-114.926 411.502,-119.529 411.923,-114.547 411.923,-114.547 411.923,-114.547 411.502,-119.529 407.439,-114.168 411.08,-124.512 411.08,-124.512"/>
<text text-anchor="middle" x="489.45" y="-254.3" font-family="Times,serif" font-size="14.00">individual_capabilities</text>
</g>
<!-- User&#45;&gt;Focus -->
<g id="edge23" class="edge"><title>User&#45;&gt;Focus</title>
<path fill="none" stroke="#58608b" d="M956.664,-478.212C1047.98,-459.111 1172.43,-434.012 1282.69,-415 1434.94,-388.746 1484.84,-426.225 1626.69,-365 1650.82,-354.586 1674.27,-338.628 1694.59,-322.251"/>
<ellipse fill="none" stroke="#58608b" cx="952.68" cy="-479.046" rx="4.00001" ry="4.00001"/>
<polygon fill="#58608b" stroke="#58608b" points="1694.8,-322.081 1705.38,-319.191 1698.66,-318.9 1702.52,-315.719 1702.52,-315.719 1702.52,-315.719 1698.66,-318.9 1699.65,-312.247 1694.8,-322.081 1694.8,-322.081"/>
</g>
<!-- User&#45;&gt;Identity -->
<g id="edge19" class="edge"><title>User&#45;&gt;Identity</title>
<path fill="none" stroke="#f1fe6f" d="M956.713,-475.254C1047.79,-454.9 1171.95,-429.517 1282.69,-415 1552.4,-379.642 1634.92,-451.903 1892.69,-365 1905.32,-360.74 1918,-355.401 1930.42,-349.399"/>
<ellipse fill="none" stroke="#f1fe6f" cx="952.738" cy="-476.145" rx="4.00001" ry="4.00001"/>
<polygon fill="#f1fe6f" stroke="#f1fe6f" points="1930.46,-349.377 1941.42,-348.945 1934.93,-347.147 1939.41,-344.917 1939.41,-344.917 1939.41,-344.917 1934.93,-347.147 1937.4,-340.89 1930.46,-349.377 1930.46,-349.377"/>
</g>
<!-- User&#45;&gt;Issue -->
<g id="edge20" class="edge"><title>User&#45;&gt;Issue</title>
<path fill="none" stroke="#b08e13" d="M956.355,-465.228C1041.93,-439.35 1156.23,-406.553 1258.69,-383 1303.55,-372.687 1318.7,-383.882 1360.69,-365 1387.86,-352.781 1414.31,-333.763 1436.37,-315.22"/>
<ellipse fill="none" stroke="#b08e13" cx="952.514" cy="-466.391" rx="4.00001" ry="4.00001"/>
<polygon fill="#b08e13" stroke="#b08e13" points="1436.39,-315.201 1446.91,-312.11 1440.19,-311.947 1443.98,-308.693 1443.98,-308.693 1443.98,-308.693 1440.19,-311.947 1441.06,-305.276 1436.39,-315.201 1436.39,-315.201"/>
</g>
<!-- User&#45;&gt;Member -->
<g id="edge16" class="edge"><title>User&#45;&gt;Member</title>
<path fill="none" stroke="#868d11" d="M692.292,-490.086C565.383,-472.116 385.076,-440.03 329.032,-397 303.559,-377.441 286.326,-346.209 275.189,-318.451"/>
<ellipse fill="none" stroke="#868d11" cx="696.611" cy="-490.693" rx="4.00001" ry="4.00001"/>
<polygon fill="#868d11" stroke="#868d11" points="275.071,-318.143 275.704,-307.195 273.286,-313.472 271.5,-308.802 271.5,-308.802 271.5,-308.802 273.286,-313.472 267.297,-310.409 275.071,-318.143 275.071,-318.143"/>
<text text-anchor="middle" x="366.015" y="-385.8" font-family="Times,serif" font-size="14.00">memberships</text>
</g>
<!-- User&#45;&gt;Participant -->
<g id="edge22" class="edge"><title>User&#45;&gt;Participant</title>
<path fill="none" stroke="#f19815" d="M955.935,-443.986C1000.96,-420.91 1051,-393.416 1094.69,-365 1117.69,-350.039 1141.55,-332.005 1162.61,-315.113"/>
<ellipse fill="none" stroke="#f19815" cx="952.316" cy="-445.832" rx="4.00002" ry="4.00002"/>
<polygon fill="#f19815" stroke="#f19815" points="1162.76,-314.993 1173.36,-312.203 1166.65,-311.848 1170.53,-308.704 1170.53,-308.704 1170.53,-308.704 1166.65,-311.848 1167.7,-305.205 1162.76,-314.993 1162.76,-314.993"/>
</g>
<!-- User&#45;&gt;Result -->
<g id="edge21" class="edge"><title>User&#45;&gt;Result</title>
<path fill="none" stroke="#4b53d0" d="M779.162,-421.952C762.039,-390.152 742.849,-354.514 726.816,-324.737"/>
<ellipse fill="none" stroke="#4b53d0" cx="781.256" cy="-425.842" rx="4.00002" ry="4.00002"/>
<polygon fill="#4b53d0" stroke="#4b53d0" points="726.688,-324.5 725.909,-313.562 724.317,-320.098 721.947,-315.695 721.947,-315.695 721.947,-315.695 724.317,-320.098 717.985,-317.829 726.688,-324.5 726.688,-324.5"/>
</g>
<!-- User&#45;&gt;Role -->
<g id="edge18" class="edge"><title>User&#45;&gt;Role</title>
<path fill="none" stroke="#2982a2" d="M820.602,-419.179C822.377,-406.659 825.527,-394.23 830.701,-383 841.001,-360.645 857.358,-340.357 875.073,-322.98"/>
<polygon fill="#2982a2" stroke="#2982a2" points="820.591,-419.282 814.99,-428.71 820.026,-424.25 819.461,-429.218 819.461,-429.218 819.461,-429.218 820.026,-424.25 823.932,-429.727 820.591,-419.282 820.591,-419.282"/>
<polygon fill="#2982a2" stroke="#2982a2" points="875.479,-322.595 885.831,-318.978 879.106,-319.154 882.734,-315.713 882.734,-315.713 882.734,-315.713 879.106,-319.154 879.637,-312.449 875.479,-322.595 875.479,-322.595"/>
<text text-anchor="middle" x="876.181" y="-385.8" font-family="Times,serif" font-size="14.00">individual_roles</text>
</g>
</g>
</svg>
