<?xml version="1.0" encoding="UTF-8" standalone="no"?>
<!DOCTYPE svg PUBLIC "-//W3C//DTD SVG 1.1//EN"
 "http://www.w3.org/Graphics/SVG/1.1/DTD/svg11.dtd">
<!-- Generated by graphviz version 2.38.0 (20140413.2041)
 -->
<!-- Title: models_diagram Pages: 1 -->
<svg width="865pt" height="313pt"
 viewBox="0.00 0.00 864.67 313.00" xmlns="http://www.w3.org/2000/svg" xmlns:xlink="http://www.w3.org/1999/xlink">
<g id="graph0" class="graph" transform="scale(1 1) rotate(0) translate(4 309)">
<title>models_diagram</title>
<polygon fill="none" stroke="none" points="-4,4 -4,-309 860.672,-309 860.672,4 -4,4"/>
<!-- _diagram_info -->
<g id="node1" class="node"><title>_diagram_info</title>
<text text-anchor="start" x="325.113" y="-290.6" font-family="Times,serif" font-size="13.00">Models diagram</text>
<text text-anchor="start" x="325.113" y="-277.6" font-family="Times,serif" font-size="13.00">Date: Jun 10 2016 &#45; 17:08</text>
<text text-anchor="start" x="325.113" y="-264.6" font-family="Times,serif" font-size="13.00">Migration version: 20160611000504</text>
<text text-anchor="start" x="325.113" y="-251.6" font-family="Times,serif" font-size="13.00">Generated by RailRoady 1.4.2</text>
<text text-anchor="start" x="325.113" y="-238.6" font-family="Times,serif" font-size="13.00">http://railroady.prestonlee.com</text>
</g>
<!-- Ability -->
<g id="node2" class="node"><title>Ability</title>
<polygon fill="none" stroke="black" points="597.232,-286.5 541.892,-286.5 541.892,-250.5 597.232,-250.5 597.232,-286.5"/>
<text text-anchor="middle" x="569.562" y="-264.3" font-family="Times,serif" font-size="14.00">Ability</text>
</g>
<!-- Capability -->
<g id="node3" class="node"><title>Capability</title>
<ellipse fill="none" stroke="black" cx="741.562" cy="-18" rx="46.8977" ry="18"/>
<text text-anchor="middle" x="741.562" y="-13.8" font-family="Times,serif" font-size="14.00">Capability</text>
</g>
<!-- Client -->
<g id="node4" class="node"><title>Client</title>
<ellipse fill="none" stroke="black" cx="730.562" cy="-268.5" rx="31.948" ry="18"/>
<text text-anchor="middle" x="730.562" y="-264.3" font-family="Times,serif" font-size="14.00">Client</text>
</g>
<!-- Context -->
<g id="node5" class="node"><title>Context</title>
<ellipse fill="none" stroke="black" cx="818.562" cy="-268.5" rx="38.2197" ry="18"/>
<text text-anchor="middle" x="818.562" y="-264.3" font-family="Times,serif" font-size="14.00">Context</text>
</g>
<!-- Encounter -->
<g id="node6" class="node"><title>Encounter</title>
<ellipse fill="none" stroke="black" cx="241.562" cy="-91" rx="46.3959" ry="18"/>
<text text-anchor="middle" x="241.562" y="-86.8" font-family="Times,serif" font-size="14.00">Encounter</text>
</g>
<!-- Participant -->
<g id="node12" class="node"><title>Participant</title>
<ellipse fill="none" stroke="black" cx="241.562" cy="-18" rx="48.3341" ry="18"/>
<text text-anchor="middle" x="241.562" y="-13.8" font-family="Times,serif" font-size="14.00">Participant</text>
</g>
<!-- Encounter&#45;&gt;Participant -->
<g id="edge1" class="edge"><title>Encounter&#45;&gt;Participant</title>
<path fill="none" stroke="#47cec2" d="M241.562,-64.791C241.562,-58.832 241.562,-52.4496 241.562,-46.3988"/>
<ellipse fill="none" stroke="#47cec2" cx="241.562" cy="-68.8129" rx="4" ry="4"/>
<polygon fill="#47cec2" stroke="#47cec2" points="241.562,-46.0288 246.062,-36.0288 241.562,-41.0288 241.562,-36.0288 241.562,-36.0288 241.562,-36.0288 241.562,-41.0288 237.062,-36.0289 241.562,-46.0288 241.562,-46.0288"/>
</g>
<!-- Group -->
<g id="node7" class="node"><title>Group</title>
<ellipse fill="none" stroke="black" cx="648.562" cy="-268.5" rx="32.9081" ry="18"/>
<text text-anchor="middle" x="648.562" y="-264.3" font-family="Times,serif" font-size="14.00">Group</text>
</g>
<!-- Group&#45;&gt;Capability -->
<g id="edge4" class="edge"><title>Group&#45;&gt;Capability</title>
<path fill="none" stroke="#1e5a8c" d="M669.823,-246.863C683.937,-232.762 702.558,-213.369 717.562,-195 747.045,-158.906 763.586,-153.46 777.562,-109 782.361,-93.7364 782.199,-88.3135 777.562,-73 774.379,-62.4857 768.398,-52.1474 762.213,-43.3763"/>
<ellipse fill="none" stroke="#1e5a8c" cx="666.913" cy="-249.748" rx="4.00002" ry="4.00002"/>
<polygon fill="#1e5a8c" stroke="#1e5a8c" points="762.062,-43.1745 759.654,-32.4763 759.059,-39.1767 756.056,-35.179 756.056,-35.179 756.056,-35.179 759.059,-39.1767 752.458,-37.8816 762.062,-43.1745 762.062,-43.1745"/>
</g>
<!-- Member -->
<g id="node11" class="node"><title>Member</title>
<ellipse fill="none" stroke="black" cx="136.562" cy="-91" rx="40.1317" ry="18"/>
<text text-anchor="middle" x="136.562" y="-86.8" font-family="Times,serif" font-size="14.00">Member</text>
</g>
<!-- Group&#45;&gt;Member -->
<g id="edge2" class="edge"><title>Group&#45;&gt;Member</title>
<path fill="none" stroke="#6c9c53" d="M628.266,-246.749C621.809,-241.19 614.316,-235.703 606.562,-232 527.75,-194.359 498.707,-214.461 413.562,-195 322.55,-174.198 295.715,-179.276 210.562,-141 194.076,-133.59 177.161,-122.682 163.672,-113.038"/>
<ellipse fill="none" stroke="#6c9c53" cx="631.387" cy="-249.581" rx="4.00002" ry="4.00002"/>
<polygon fill="#6c9c53" stroke="#6c9c53" points="163.407,-112.844 158.001,-103.303 159.374,-109.888 155.341,-106.933 155.341,-106.933 155.341,-106.933 159.374,-109.888 152.681,-110.562 163.407,-112.844 163.407,-112.844"/>
</g>
<!-- User -->
<g id="node17" class="node"><title>User</title>
<ellipse fill="none" stroke="black" cx="449.562" cy="-177" rx="27" ry="18"/>
<text text-anchor="middle" x="449.562" y="-172.8" font-family="Times,serif" font-size="14.00">User</text>
</g>
<!-- Group&#45;&gt;User -->
<g id="edge3" class="edge"><title>Group&#45;&gt;User</title>
<path fill="none" stroke="#e7c3fa" d="M625.666,-245.536C619.755,-240.623 613.183,-235.76 606.562,-232 567.436,-209.779 517.648,-194.579 484.75,-186.1"/>
<polygon fill="#e7c3fa" stroke="#e7c3fa" points="625.727,-245.59 630.298,-255.557 629.493,-248.879 633.258,-252.168 633.258,-252.168 633.258,-252.168 629.493,-248.879 636.219,-248.779 625.727,-245.59 625.727,-245.59"/>
<polygon fill="#e7c3fa" stroke="#e7c3fa" points="484.398,-186.012 475.79,-179.217 479.548,-184.797 474.697,-183.583 474.697,-183.583 474.697,-183.583 479.548,-184.797 473.604,-187.948 484.398,-186.012 484.398,-186.012"/>
</g>
<!-- Identity -->
<g id="node8" class="node"><title>Identity</title>
<ellipse fill="none" stroke="black" cx="40.5624" cy="-91" rx="37.7266" ry="18"/>
<text text-anchor="middle" x="40.5624" y="-86.8" font-family="Times,serif" font-size="14.00">Identity</text>
</g>
<!-- Session -->
<g id="node16" class="node"><title>Session</title>
<ellipse fill="none" stroke="black" cx="40.5624" cy="-18" rx="37.2681" ry="18"/>
<text text-anchor="middle" x="40.5624" y="-13.8" font-family="Times,serif" font-size="14.00">Session</text>
</g>
<!-- Identity&#45;&gt;Session -->
<g id="edge5" class="edge"><title>Identity&#45;&gt;Session</title>
<path fill="none" stroke="#6e75af" d="M40.5624,-64.791C40.5624,-58.832 40.5624,-52.4496 40.5624,-46.3988"/>
<ellipse fill="none" stroke="#6e75af" cx="40.5624" cy="-68.8129" rx="4" ry="4"/>
<polygon fill="#6e75af" stroke="#6e75af" points="40.5625,-46.0288 45.0624,-36.0288 40.5624,-41.0288 40.5624,-36.0288 40.5624,-36.0288 40.5624,-36.0288 40.5624,-41.0288 36.0624,-36.0289 40.5625,-46.0288 40.5625,-46.0288"/>
</g>
<!-- Issue -->
<g id="node9" class="node"><title>Issue</title>
<ellipse fill="none" stroke="black" cx="334.562" cy="-91" rx="28.0651" ry="18"/>
<text text-anchor="middle" x="334.562" y="-86.8" font-family="Times,serif" font-size="14.00">Issue</text>
</g>
<!-- Lab -->
<g id="node10" class="node"><title>Lab</title>
<ellipse fill="none" stroke="black" cx="407.562" cy="-91" rx="27" ry="18"/>
<text text-anchor="middle" x="407.562" y="-86.8" font-family="Times,serif" font-size="14.00">Lab</text>
</g>
<!-- Problem -->
<g id="node13" class="node"><title>Problem</title>
<ellipse fill="none" stroke="black" cx="492.562" cy="-91" rx="40.149" ry="18"/>
<text text-anchor="middle" x="492.562" y="-86.8" font-family="Times,serif" font-size="14.00">Problem</text>
</g>
<!-- Provider -->
<g id="node14" class="node"><title>Provider</title>
<ellipse fill="none" stroke="black" cx="40.5624" cy="-177" rx="40.6248" ry="18"/>
<text text-anchor="middle" x="40.5624" y="-172.8" font-family="Times,serif" font-size="14.00">Provider</text>
</g>
<!-- Provider&#45;&gt;Identity -->
<g id="edge6" class="edge"><title>Provider&#45;&gt;Identity</title>
<path fill="none" stroke="#5ac15a" d="M40.5624,-150.257C40.5624,-140.441 40.5624,-129.226 40.5624,-119.273"/>
<ellipse fill="none" stroke="#5ac15a" cx="40.5624" cy="-154.595" rx="4" ry="4"/>
<polygon fill="#5ac15a" stroke="#5ac15a" points="40.5625,-119.095 45.0624,-109.095 40.5624,-114.095 40.5624,-109.095 40.5624,-109.095 40.5624,-109.095 40.5624,-114.095 36.0624,-109.095 40.5625,-119.095 40.5625,-119.095"/>
</g>
<!-- Role -->
<g id="node15" class="node"><title>Role</title>
<ellipse fill="none" stroke="black" cx="741.562" cy="-91" rx="27" ry="18"/>
<text text-anchor="middle" x="741.562" y="-86.8" font-family="Times,serif" font-size="14.00">Role</text>
</g>
<!-- Role&#45;&gt;Capability -->
<g id="edge7" class="edge"><title>Role&#45;&gt;Capability</title>
<path fill="none" stroke="#bcc3aa" d="M741.562,-64.791C741.562,-58.832 741.562,-52.4496 741.562,-46.3988"/>
<ellipse fill="none" stroke="#bcc3aa" cx="741.562" cy="-68.8129" rx="4" ry="4"/>
<polygon fill="#bcc3aa" stroke="#bcc3aa" points="741.562,-46.0288 746.062,-36.0288 741.562,-41.0288 741.562,-36.0288 741.562,-36.0288 741.562,-36.0288 741.562,-41.0288 737.062,-36.0289 741.562,-46.0288 741.562,-46.0288"/>
</g>
<!-- Role&#45;&gt;Group -->
<g id="edge9" class="edge"><title>Role&#45;&gt;Group</title>
<path fill="none" stroke="#1392e0" d="M732.775,-118.654C730.082,-126.007 726.932,-133.909 723.562,-141 706.093,-177.763 681.296,-217.796 665.072,-242.769"/>
<polygon fill="#1392e0" stroke="#1392e0" points="732.82,-118.527 740.387,-110.591 734.482,-113.811 736.143,-109.095 736.143,-109.095 736.143,-109.095 734.482,-113.811 731.899,-107.6 732.82,-118.527 732.82,-118.527"/>
<polygon fill="#1392e0" stroke="#1392e0" points="664.993,-242.89 655.749,-248.788 662.253,-247.072 659.513,-251.255 659.513,-251.255 659.513,-251.255 662.253,-247.072 663.277,-253.721 664.993,-242.89 664.993,-242.89"/>
</g>
<!-- Role&#45;&gt;User -->
<g id="edge8" class="edge"><title>Role&#45;&gt;User</title>
<path fill="none" stroke="#a5198b" d="M710.23,-105.727C706.996,-106.922 703.733,-108.039 700.562,-109 661.105,-120.954 648.573,-113.661 609.562,-127 596.397,-131.501 594.577,-136.08 581.562,-141 549.846,-152.99 512.37,-162.506 485.468,-168.571"/>
<polygon fill="#a5198b" stroke="#a5198b" points="710.419,-105.653 721.372,-106.179 715.072,-103.822 719.725,-101.992 719.725,-101.992 719.725,-101.992 715.072,-103.822 718.078,-97.8039 710.419,-105.653 710.419,-105.653"/>
<polygon fill="#a5198b" stroke="#a5198b" points="485.118,-168.649 474.383,-166.407 480.235,-169.725 475.352,-170.802 475.352,-170.802 475.352,-170.802 480.235,-169.725 476.321,-175.196 485.118,-168.649 485.118,-168.649"/>
</g>
<!-- User&#45;&gt;Capability -->
<g id="edge11" class="edge"><title>User&#45;&gt;Capability</title>
<path fill="none" stroke="#4985d8" d="M474.771,-159.16C493.701,-146.157 519.968,-127.342 541.562,-109 558.923,-94.2544 558.607,-84.884 578.038,-73 612.825,-51.7246 656.961,-37.7914 690.61,-29.4158"/>
<ellipse fill="none" stroke="#4985d8" cx="471.455" cy="-161.422" rx="4.00002" ry="4.00002"/>
<polygon fill="#4985d8" stroke="#4985d8" points="690.971,-29.3292 701.746,-31.3684 695.833,-28.1611 700.694,-26.993 700.694,-26.993 700.694,-26.993 695.833,-28.1611 699.643,-22.6175 690.971,-29.3292 690.971,-29.3292"/>
<text text-anchor="middle" x="641.325" y="-86.8" font-family="Times,serif" font-size="14.00">individual_capabilities</text>
</g>
<!-- User&#45;&gt;Encounter -->
<g id="edge16" class="edge"><title>User&#45;&gt;Encounter</title>
<path fill="none" stroke="#aab1ea" d="M419.479,-163.851C383.306,-149.243 322.442,-124.663 282.138,-108.386"/>
<ellipse fill="none" stroke="#aab1ea" cx="423.198" cy="-165.353" rx="4.00002" ry="4.00002"/>
<polygon fill="#aab1ea" stroke="#aab1ea" points="281.886,-108.285 274.298,-100.367 277.25,-106.412 272.613,-104.54 272.613,-104.54 272.613,-104.54 277.25,-106.412 270.928,-108.712 281.886,-108.285 281.886,-108.285"/>
</g>
<!-- User&#45;&gt;Identity -->
<g id="edge13" class="edge"><title>User&#45;&gt;Identity</title>
<path fill="none" stroke="#161184" d="M414.896,-172.127C368.215,-166.639 282.678,-155.616 210.562,-141 155.202,-129.78 141.513,-125.736 87.5624,-109 84.6721,-108.103 81.6971,-107.136 78.714,-106.133"/>
<ellipse fill="none" stroke="#161184" cx="418.9" cy="-172.593" rx="4.00001" ry="4.00001"/>
<polygon fill="#161184" stroke="#161184" points="78.7012,-106.128 70.7263,-98.6017 73.9769,-104.491 69.2526,-102.854 69.2526,-102.854 69.2526,-102.854 73.9769,-104.491 67.779,-107.105 78.7012,-106.128 78.7012,-106.128"/>
</g>
<!-- User&#45;&gt;Issue -->
<g id="edge14" class="edge"><title>User&#45;&gt;Issue</title>
<path fill="none" stroke="#db8d61" d="M425.404,-158.354C406.46,-144.516 380.138,-125.29 360.702,-111.093"/>
<ellipse fill="none" stroke="#db8d61" cx="428.866" cy="-160.883" rx="4.00002" ry="4.00002"/>
<polygon fill="#db8d61" stroke="#db8d61" points="360.648,-111.054 355.227,-101.521 356.61,-108.105 352.573,-105.155 352.573,-105.155 352.573,-105.155 356.61,-108.105 349.918,-108.789 360.648,-111.054 360.648,-111.054"/>
</g>
<!-- User&#45;&gt;Lab -->
<g id="edge15" class="edge"><title>User&#45;&gt;Lab</title>
<path fill="none" stroke="#a034fc" d="M437.772,-152.419C432.35,-141.576 425.907,-128.69 420.367,-117.609"/>
<ellipse fill="none" stroke="#a034fc" cx="439.675" cy="-156.226" rx="4.00002" ry="4.00002"/>
<polygon fill="#a034fc" stroke="#a034fc" points="420.251,-117.377 419.804,-106.42 418.015,-112.905 415.779,-108.433 415.779,-108.433 415.779,-108.433 418.015,-112.905 411.754,-110.445 420.251,-117.377 420.251,-117.377"/>
</g>
<!-- User&#45;&gt;Member -->
<g id="edge10" class="edge"><title>User&#45;&gt;Member</title>
<path fill="none" stroke="#c29e4c" d="M415.187,-172.161C375.697,-167.223 309.226,-157.285 253.907,-141 225.554,-132.654 194.765,-119.636 171.841,-109.116"/>
<ellipse fill="none" stroke="#c29e4c" cx="419.22" cy="-172.654" rx="4.00001" ry="4.00001"/>
<polygon fill="#c29e4c" stroke="#c29e4c" points="171.594,-109.001 164.427,-100.701 167.061,-106.891 162.528,-104.781 162.528,-104.781 162.528,-104.781 167.061,-106.891 160.629,-108.861 171.594,-109.001 171.594,-109.001"/>
<text text-anchor="middle" x="291.89" y="-129.8" font-family="Times,serif" font-size="14.00">memberships</text>
</g>
<!-- User&#45;&gt;Problem -->
<g id="edge17" class="edge"><title>User&#45;&gt;Problem</title>
<path fill="none" stroke="#046921" d="M462.608,-150.515C467.922,-140.134 474.056,-128.153 479.383,-117.745"/>
<polygon fill="#046921" stroke="#046921" points="462.41,-150.902 453.848,-157.753 460.132,-155.353 457.853,-159.804 457.853,-159.804 457.853,-159.804 460.132,-155.353 461.859,-161.854 462.41,-150.902 462.41,-150.902"/>
<polygon fill="#046921" stroke="#046921" points="479.446,-117.623 488.008,-110.772 481.724,-113.172 484.003,-108.721 484.003,-108.721 484.003,-108.721 481.724,-113.172 479.997,-106.671 479.446,-117.623 479.446,-117.623"/>
</g>
<!-- User&#45;&gt;Role -->
<g id="edge12" class="edge"><title>User&#45;&gt;Role</title>
<path fill="none" stroke="#660696" d="M485.958,-171.284C518.809,-166.263 568.055,-156.816 608.562,-141 620.07,-136.507 621.165,-131.735 632.576,-127 661.446,-115.02 670.951,-119.009 700.562,-109 703.701,-107.939 706.943,-106.755 710.163,-105.519"/>
<polygon fill="#660696" stroke="#660696" points="485.794,-171.308 475.247,-168.309 480.847,-172.034 475.9,-172.761 475.9,-172.761 475.9,-172.761 480.847,-172.034 476.554,-177.213 485.794,-171.308 485.794,-171.308"/>
<polygon fill="#660696" stroke="#660696" points="710.356,-105.442 721.312,-105.904 714.998,-103.584 719.64,-101.726 719.64,-101.726 719.64,-101.726 714.998,-103.584 717.968,-97.5484 710.356,-105.442 710.356,-105.442"/>
<text text-anchor="middle" x="678.056" y="-129.8" font-family="Times,serif" font-size="14.00">individual_roles</text>
</g>
</g>
</svg>
