<?xml version="1.0" encoding="UTF-8" standalone="no"?>
<!DOCTYPE svg PUBLIC "-//W3C//DTD SVG 1.1//EN"
 "http://www.w3.org/Graphics/SVG/1.1/DTD/svg11.dtd">
<!-- Generated by graphviz version 2.40.1 (20161225.0304)
 -->
<!-- Title: models_diagram Pages: 1 -->
<svg width="1214pt" height="412pt"
 viewBox="0.00 0.00 1213.58 412.00" xmlns="http://www.w3.org/2000/svg" xmlns:xlink="http://www.w3.org/1999/xlink">
<g id="graph0" class="graph" transform="scale(1 1) rotate(0) translate(4 408)">
<title>models_diagram</title>
<polygon fill="transparent" stroke="transparent" points="-4,4 -4,-408 1209.5806,-408 1209.5806,4 -4,4"/>
<!-- _diagram_info -->
<g id="node1" class="node">
<title>_diagram_info</title>
<text text-anchor="start" x="297.4556" y="-389.6" font-family="Times,serif" font-size="13.00" fill="#000000">Models diagram</text>
<text text-anchor="start" x="297.4556" y="-376.6" font-family="Times,serif" font-size="13.00" fill="#000000">Date: Feb 27 2017 &#45; 15:01</text>
<text text-anchor="start" x="297.4556" y="-363.6" font-family="Times,serif" font-size="13.00" fill="#000000">Migration version: 20160630211533</text>
<text text-anchor="start" x="297.4556" y="-350.6" font-family="Times,serif" font-size="13.00" fill="#000000">Generated by RailRoady 1.5.2</text>
<text text-anchor="start" x="297.4556" y="-337.6" font-family="Times,serif" font-size="13.00" fill="#000000">http://railroady.prestonlee.com</text>
</g>
<!-- Ability -->
<g id="node2" class="node">
<title>Ability</title>
<polygon fill="none" stroke="#000000" points="569.5752,-385.5 514.2354,-385.5 514.2354,-349.5 569.5752,-349.5 569.5752,-385.5"/>
<text text-anchor="middle" x="541.9053" y="-363.3" font-family="Times,serif" font-size="14.00" fill="#000000">Ability</text>
</g>
<!-- Context::Activity -->
<g id="node3" class="node">
<title>Context::Activity</title>
<ellipse fill="none" stroke="#000000" cx="649.9053" cy="-263" rx="72.0135" ry="18"/>
<text text-anchor="middle" x="649.9053" y="-258.8" font-family="Times,serif" font-size="14.00" fill="#000000">Context::Activity</text>
</g>
<!-- Context::Activity&#45;&gt;Context::Activity -->
<g id="edge4" class="edge">
<title>Context::Activity&#45;&gt;Context::Activity</title>
<path fill="none" stroke="#2ab99b" d="M729.8704,-264.9828C736.0808,-264.5453 739.9121,-263.8844 739.9121,-263 739.9121,-262.2117 736.8684,-261.601 731.8093,-261.1678"/>
<ellipse fill="none" stroke="#2ab99b" cx="725.5691" cy="-265.1957" rx="4" ry="4"/>
<polygon fill="#2ab99b" stroke="#2ab99b" points="731.559,-261.1542 721.8205,-256.1131 726.5665,-260.8803 721.574,-260.6064 721.574,-260.6064 721.574,-260.6064 726.5665,-260.8803 721.3275,-265.0996 731.559,-261.1542 731.559,-261.1542"/>
<text text-anchor="middle" x="782.6777" y="-258.8" font-family="Times,serif" font-size="14.00" fill="#000000">child_activities</text>
</g>
<!-- Context::Activity&#45;&gt;Context::Activity -->
<g id="edge5" class="edge">
<title>Context::Activity&#45;&gt;Context::Activity</title>
<path fill="none" stroke="#d1fb9f" d="M727.678,-268.0475C775.5104,-268.8699 825.4433,-267.1874 825.4433,-263 825.4433,-258.8645 776.7408,-257.1722 729.4578,-257.9231"/>
<ellipse fill="none" stroke="#d1fb9f" cx="723.4069" cy="-267.9608" rx="4" ry="4"/>
<polygon fill="#d1fb9f" stroke="#d1fb9f" points="729.4058,-257.924 719.3193,-253.6213 724.4067,-258.0222 719.4077,-258.1204 719.4077,-258.1204 719.4077,-258.1204 724.4067,-258.0222 719.4961,-262.6196 729.4058,-257.924 729.4058,-257.924"/>
<text text-anchor="middle" x="878.3193" y="-258.8" font-family="Times,serif" font-size="14.00" fill="#000000">previous_activities</text>
</g>
<!-- Context::Activity&#45;&gt;Context::Activity -->
<g id="edge6" class="edge">
<title>Context::Activity&#45;&gt;Context::Activity</title>
<path fill="none" stroke="#f83f99" d="M725.7423,-269.492C810.7287,-272.6141 931.1953,-270.4501 931.1953,-263 931.1953,-255.61 812.6639,-253.4211 727.8053,-256.4335"/>
<ellipse fill="none" stroke="#f83f99" cx="721.6307" cy="-269.3305" rx="4" ry="4"/>
<polygon fill="#f83f99" stroke="#f83f99" points="727.6263,-256.4403 717.46,-252.33 722.6301,-256.6335 717.6338,-256.8266 717.6338,-256.8266 717.6338,-256.8266 722.6301,-256.6335 717.8077,-261.3233 727.6263,-256.4403 727.6263,-256.4403"/>
<text text-anchor="middle" x="979.4023" y="-258.8" font-family="Times,serif" font-size="14.00" fill="#000000">scoped_activities</text>
</g>
<!-- Context::ActorRole -->
<g id="node4" class="node">
<title>Context::ActorRole</title>
<ellipse fill="none" stroke="#000000" cx="524.9053" cy="-177" rx="79.723" ry="18"/>
<text text-anchor="middle" x="524.9053" y="-172.8" font-family="Times,serif" font-size="14.00" fill="#000000">Context::ActorRole</text>
</g>
<!-- Context::Activity&#45;&gt;Context::ActorRole -->
<g id="edge1" class="edge">
<title>Context::Activity&#45;&gt;Context::ActorRole</title>
<path fill="none" stroke="#dc03bf" d="M618.5685,-241.4403C600.1791,-228.7884 576.9526,-212.8086 558.2297,-199.9272"/>
<ellipse fill="none" stroke="#dc03bf" cx="621.9139" cy="-243.7419" rx="4" ry="4"/>
<polygon fill="#dc03bf" stroke="#dc03bf" points="558.2163,-199.918 552.5285,-190.5426 554.0971,-197.084 549.9778,-194.2499 549.9778,-194.2499 549.9778,-194.2499 554.0971,-197.084 547.4272,-197.9572 558.2163,-199.918 558.2163,-199.918"/>
<text text-anchor="middle" x="626.002" y="-215.8" font-family="Times,serif" font-size="14.00" fill="#000000">actor_roles</text>
</g>
<!-- Context::Objective -->
<g id="node6" class="node">
<title>Context::Objective</title>
<ellipse fill="none" stroke="#000000" cx="699.9053" cy="-177" rx="77.3003" ry="18"/>
<text text-anchor="middle" x="699.9053" y="-172.8" font-family="Times,serif" font-size="14.00" fill="#000000">Context::Objective</text>
</g>
<!-- Context::Activity&#45;&gt;Context::Objective -->
<g id="edge3" class="edge">
<title>Context::Activity&#45;&gt;Context::Objective</title>
<path fill="none" stroke="#80bf0f" d="M664.4912,-237.9123C670.7201,-227.1986 677.9993,-214.6784 684.3327,-203.7849"/>
<ellipse fill="none" stroke="#80bf0f" cx="662.2758" cy="-241.7227" rx="4" ry="4"/>
<polygon fill="#80bf0f" stroke="#80bf0f" points="684.3602,-203.7374 693.2768,-197.3541 686.8734,-199.4149 689.3865,-195.0923 689.3865,-195.0923 689.3865,-195.0923 686.8734,-199.4149 685.4962,-192.8305 684.3602,-203.7374 684.3602,-203.7374"/>
<text text-anchor="middle" x="706.2847" y="-215.8" font-family="Times,serif" font-size="14.00" fill="#000000">objectives</text>
</g>
<!-- Context::UsageRole -->
<g id="node8" class="node">
<title>Context::UsageRole</title>
<ellipse fill="none" stroke="#000000" cx="1029.9053" cy="-177" rx="81.6526" ry="18"/>
<text text-anchor="middle" x="1029.9053" y="-172.8" font-family="Times,serif" font-size="14.00" fill="#000000">Context::UsageRole</text>
</g>
<!-- Context::Activity&#45;&gt;Context::UsageRole -->
<g id="edge2" class="edge">
<title>Context::Activity&#45;&gt;Context::UsageRole</title>
<path fill="none" stroke="#b53e85" d="M711.6877,-249.0177C780.5708,-233.4283 891.6059,-208.2993 962.6364,-192.224"/>
<ellipse fill="none" stroke="#b53e85" cx="707.4454" cy="-249.9777" rx="4" ry="4"/>
<polygon fill="#b53e85" stroke="#b53e85" points="963.063,-192.1275 973.8096,-194.3091 967.9396,-191.0238 972.8163,-189.9201 972.8163,-189.9201 972.8163,-189.9201 967.9396,-191.0238 971.823,-185.5311 963.063,-192.1275 963.063,-192.1275"/>
<text text-anchor="middle" x="894.9502" y="-215.8" font-family="Times,serif" font-size="14.00" fill="#000000">usage_roles</text>
</g>
<!-- Context::Asset -->
<g id="node5" class="node">
<title>Context::Asset</title>
<ellipse fill="none" stroke="#000000" cx="1142.9053" cy="-263" rx="62.8512" ry="18"/>
<text text-anchor="middle" x="1142.9053" y="-258.8" font-family="Times,serif" font-size="14.00" fill="#000000">Context::Asset</text>
</g>
<!-- Context::Asset&#45;&gt;Context::UsageRole -->
<g id="edge7" class="edge">
<title>Context::Asset&#45;&gt;Context::UsageRole</title>
<path fill="none" stroke="#9a1391" d="M1113.8729,-240.9046C1097.749,-228.6332 1077.6808,-213.3601 1061.207,-200.8226"/>
<ellipse fill="none" stroke="#9a1391" cx="1117.3971" cy="-243.5867" rx="4" ry="4"/>
<polygon fill="#9a1391" stroke="#9a1391" points="1060.9174,-200.6022 1055.6852,-190.9651 1056.9387,-197.5741 1052.9599,-194.546 1052.9599,-194.546 1052.9599,-194.546 1056.9387,-197.5741 1050.2346,-198.1269 1060.9174,-200.6022 1060.9174,-200.6022"/>
<text text-anchor="middle" x="1125.9502" y="-215.8" font-family="Times,serif" font-size="14.00" fill="#000000">usage_roles</text>
</g>
<!-- Context::Place -->
<g id="node7" class="node">
<title>Context::Place</title>
<ellipse fill="none" stroke="#000000" cx="649.9053" cy="-367.5" rx="62.3494" ry="18"/>
<text text-anchor="middle" x="649.9053" y="-363.3" font-family="Times,serif" font-size="14.00" fill="#000000">Context::Place</text>
</g>
<!-- Context::Place&#45;&gt;Context::Activity -->
<g id="edge8" class="edge">
<title>Context::Place&#45;&gt;Context::Activity</title>
<path fill="none" stroke="#0d9a34" d="M649.9053,-341.1853C649.9053,-326.0145 649.9053,-306.9357 649.9053,-291.4227"/>
<ellipse fill="none" stroke="#0d9a34" cx="649.9053" cy="-345.2975" rx="4" ry="4"/>
<polygon fill="#0d9a34" stroke="#0d9a34" points="649.9054,-291.3445 654.4053,-281.3445 649.9053,-286.3445 649.9053,-281.3445 649.9053,-281.3445 649.9053,-281.3445 649.9053,-286.3445 645.4053,-281.3446 649.9054,-291.3445 649.9054,-291.3445"/>
<text text-anchor="middle" x="675.1743" y="-301.8" font-family="Times,serif" font-size="14.00" fill="#000000">activities</text>
</g>
<!-- System::Capability -->
<g id="node9" class="node">
<title>System::Capability</title>
<ellipse fill="none" stroke="#000000" cx="77.9053" cy="-18" rx="77.8107" ry="18"/>
<text text-anchor="middle" x="77.9053" y="-13.8" font-family="Times,serif" font-size="14.00" fill="#000000">System::Capability</text>
</g>
<!-- System::Client -->
<g id="node10" class="node">
<title>System::Client</title>
<ellipse fill="none" stroke="#000000" cx="792.9053" cy="-367.5" rx="62.8599" ry="18"/>
<text text-anchor="middle" x="792.9053" y="-363.3" font-family="Times,serif" font-size="14.00" fill="#000000">System::Client</text>
</g>
<!-- System::Group -->
<g id="node11" class="node">
<title>System::Group</title>
<ellipse fill="none" stroke="#000000" cx="169.9053" cy="-91" rx="63.8202" ry="18"/>
<text text-anchor="middle" x="169.9053" y="-86.8" font-family="Times,serif" font-size="14.00" fill="#000000">System::Group</text>
</g>
<!-- System::Group&#45;&gt;System::Capability -->
<g id="edge11" class="edge">
<title>System::Group&#45;&gt;System::Capability</title>
<path fill="none" stroke="#1e2930" d="M141.7172,-68.6334C130.9981,-60.128 118.7528,-50.4116 107.8746,-41.78"/>
<ellipse fill="none" stroke="#1e2930" cx="144.9691" cy="-71.2137" rx="4" ry="4"/>
<polygon fill="#1e2930" stroke="#1e2930" points="107.7039,-41.6446 102.6674,-31.9037 103.7871,-38.5367 99.8703,-35.4288 99.8703,-35.4288 99.8703,-35.4288 103.7871,-38.5367 97.0732,-38.9539 107.7039,-41.6446 107.7039,-41.6446"/>
</g>
<!-- System::Member -->
<g id="node15" class="node">
<title>System::Member</title>
<ellipse fill="none" stroke="#000000" cx="253.9053" cy="-18" rx="71.0445" ry="18"/>
<text text-anchor="middle" x="253.9053" y="-13.8" font-family="Times,serif" font-size="14.00" fill="#000000">System::Member</text>
</g>
<!-- System::Group&#45;&gt;System::Member -->
<g id="edge9" class="edge">
<title>System::Group&#45;&gt;System::Member</title>
<path fill="none" stroke="#b966e6" d="M195.9777,-68.3418C205.5162,-60.0524 216.3413,-50.6449 226.0311,-42.224"/>
<ellipse fill="none" stroke="#b966e6" cx="192.8313" cy="-71.0762" rx="4" ry="4"/>
<polygon fill="#b966e6" stroke="#b966e6" points="226.3022,-41.9884 236.8021,-38.8254 230.0762,-38.7086 233.8502,-35.4288 233.8502,-35.4288 233.8502,-35.4288 230.0762,-38.7086 230.8984,-32.0322 226.3022,-41.9884 226.3022,-41.9884"/>
</g>
<!-- System::Person -->
<g id="node16" class="node">
<title>System::Person</title>
<ellipse fill="none" stroke="#000000" cx="221.9053" cy="-263" rx="65.2736" ry="18"/>
<text text-anchor="middle" x="221.9053" y="-258.8" font-family="Times,serif" font-size="14.00" fill="#000000">System::Person</text>
</g>
<!-- System::Group&#45;&gt;System::Person -->
<g id="edge10" class="edge">
<title>System::Group&#45;&gt;System::Person</title>
<path fill="none" stroke="#3a5170" d="M185.1362,-118.0677C191.4408,-130.2579 198.3325,-145.0261 202.9053,-159 211.1094,-184.0705 216.0901,-213.7696 218.8811,-234.9988"/>
<polygon fill="#3a5170" stroke="#3a5170" points="184.9598,-117.7361 184.2338,-106.7943 182.6106,-113.3223 180.2614,-108.9085 180.2614,-108.9085 180.2614,-108.9085 182.6106,-113.3223 176.289,-111.0228 184.9598,-117.7361 184.9598,-117.7361"/>
<polygon fill="#3a5170" stroke="#3a5170" points="218.8868,-235.0458 215.647,-245.5222 219.4999,-240.0081 220.1131,-244.9703 220.1131,-244.9703 220.1131,-244.9703 219.4999,-240.0081 224.5791,-244.4185 218.8868,-235.0458 218.8868,-235.0458"/>
</g>
<!-- System::Identity -->
<g id="node12" class="node">
<title>System::Identity</title>
<ellipse fill="none" stroke="#000000" cx="358.9053" cy="-177" rx="68.6392" ry="18"/>
<text text-anchor="middle" x="358.9053" y="-172.8" font-family="Times,serif" font-size="14.00" fill="#000000">System::Identity</text>
</g>
<!-- System::JsonWebToken -->
<g id="node14" class="node">
<title>System::JsonWebToken</title>
<ellipse fill="none" stroke="#000000" cx="538.9053" cy="-91" rx="94.5097" ry="18"/>
<text text-anchor="middle" x="538.9053" y="-86.8" font-family="Times,serif" font-size="14.00" fill="#000000">System::JsonWebToken</text>
</g>
<!-- System::Identity&#45;&gt;System::JsonWebToken -->
<g id="edge13" class="edge">
<title>System::Identity&#45;&gt;System::JsonWebToken</title>
<path fill="none" stroke="#88bb78" d="M399.6508,-157.5327C427.9618,-144.0063 465.6694,-125.9905 494.7058,-112.1175"/>
<ellipse fill="none" stroke="#88bb78" cx="395.9493" cy="-159.3012" rx="4" ry="4"/>
<polygon fill="#88bb78" stroke="#88bb78" points="494.7826,-112.0809 505.7456,-111.8302 499.2941,-109.9254 503.8056,-107.7698 503.8056,-107.7698 503.8056,-107.7698 499.2941,-109.9254 501.8656,-103.7095 494.7826,-112.0809 494.7826,-112.0809"/>
</g>
<!-- System::Session -->
<g id="node18" class="node">
<title>System::Session</title>
<ellipse fill="none" stroke="#000000" cx="357.9053" cy="-91" rx="68.1806" ry="18"/>
<text text-anchor="middle" x="357.9053" y="-86.8" font-family="Times,serif" font-size="14.00" fill="#000000">System::Session</text>
</g>
<!-- System::Identity&#45;&gt;System::Session -->
<g id="edge12" class="edge">
<title>System::Identity&#45;&gt;System::Session</title>
<path fill="none" stroke="#5e7c18" d="M358.596,-150.4021C358.4819,-140.585 358.3521,-129.4263 358.2361,-119.4515"/>
<ellipse fill="none" stroke="#5e7c18" cx="358.6467" cy="-154.7619" rx="4" ry="4"/>
<polygon fill="#5e7c18" stroke="#5e7c18" points="358.2334,-119.2114 362.6168,-109.1597 358.1752,-114.2118 358.1171,-109.2121 358.1171,-109.2121 358.1171,-109.2121 358.1752,-114.2118 353.6174,-109.2645 358.2334,-119.2114 358.2334,-119.2114"/>
</g>
<!-- System::IdentityProvider -->
<g id="node13" class="node">
<title>System::IdentityProvider</title>
<ellipse fill="none" stroke="#000000" cx="403.9053" cy="-263" rx="99.0502" ry="18"/>
<text text-anchor="middle" x="403.9053" y="-258.8" font-family="Times,serif" font-size="14.00" fill="#000000">System::IdentityProvider</text>
</g>
<!-- System::IdentityProvider&#45;&gt;System::Identity -->
<g id="edge14" class="edge">
<title>System::IdentityProvider&#45;&gt;System::Identity</title>
<path fill="none" stroke="#ef76ae" d="M398.8552,-236.7391C396.7345,-228.8289 393.824,-220.3122 389.9053,-213 387.9878,-209.4219 385.6617,-205.889 383.155,-202.5161"/>
<ellipse fill="none" stroke="#ef76ae" cx="399.8431" cy="-240.8001" rx="4" ry="4"/>
<polygon fill="#ef76ae" stroke="#ef76ae" points="382.9773,-202.2967 380.1783,-191.694 379.8296,-198.4118 376.6819,-194.527 376.6819,-194.527 376.6819,-194.527 379.8296,-198.4118 373.1855,-197.3599 382.9773,-202.2967 382.9773,-202.2967"/>
</g>
<!-- System::Person&#45;&gt;Context::ActorRole -->
<g id="edge19" class="edge">
<title>System::Person&#45;&gt;Context::ActorRole</title>
<path fill="none" stroke="#0acb4e" d="M275.3398,-247.8338C328.5718,-232.725 410.1275,-209.5772 465.397,-193.8901"/>
<ellipse fill="none" stroke="#0acb4e" cx="271.4435" cy="-248.9396" rx="4" ry="4"/>
<polygon fill="#0acb4e" stroke="#0acb4e" points="465.4363,-193.8791 476.2851,-195.4776 470.2463,-192.5138 475.0563,-191.1486 475.0563,-191.1486 475.0563,-191.1486 470.2463,-192.5138 473.8276,-186.8195 465.4363,-193.8791 465.4363,-193.8791"/>
<text text-anchor="middle" x="423.002" y="-215.8" font-family="Times,serif" font-size="14.00" fill="#000000">actor_roles</text>
</g>
<!-- System::Person&#45;&gt;System::Capability -->
<g id="edge16" class="edge">
<title>System::Person&#45;&gt;System::Capability</title>
<path fill="none" stroke="#a7a74b" d="M157.8921,-251.6298C125.3618,-242.2621 88.6282,-225.3488 68.9053,-195 39.4037,-149.604 54.7087,-82.993 67.1636,-45.7767"/>
<ellipse fill="none" stroke="#a7a74b" cx="161.7651" cy="-252.687" rx="4" ry="4"/>
<polygon fill="#a7a74b" stroke="#a7a74b" points="67.2479,-45.5364 74.8071,-37.5923 68.9046,-40.8189 70.5613,-36.1013 70.5613,-36.1013 70.5613,-36.1013 68.9046,-40.8189 66.3155,-34.6102 67.2479,-45.5364 67.2479,-45.5364"/>
</g>
<!-- System::Person&#45;&gt;System::Identity -->
<g id="edge18" class="edge">
<title>System::Person&#45;&gt;System::Identity</title>
<path fill="none" stroke="#2a9d4f" d="M255.3802,-241.9865C276.0243,-229.0275 302.4748,-212.4235 323.4719,-199.2429"/>
<ellipse fill="none" stroke="#2a9d4f" cx="251.7081" cy="-244.2917" rx="4" ry="4"/>
<polygon fill="#2a9d4f" stroke="#2a9d4f" points="323.6344,-199.1409 334.4965,-197.6355 327.8692,-196.4825 332.104,-193.8242 332.104,-193.8242 332.104,-193.8242 327.8692,-196.4825 329.7114,-190.0129 323.6344,-199.1409 323.6344,-199.1409"/>
</g>
<!-- System::Person&#45;&gt;System::Member -->
<g id="edge15" class="edge">
<title>System::Person&#45;&gt;System::Member</title>
<path fill="none" stroke="#7d278b" d="M228.8919,-236.8039C229.639,-233.5174 230.3336,-230.1905 230.9053,-227 242.405,-162.8179 249.0545,-86.4498 252.0236,-46.1483"/>
<ellipse fill="none" stroke="#7d278b" cx="227.9042" cy="-240.9008" rx="4" ry="4"/>
<polygon fill="#7d278b" stroke="#7d278b" points="252.0352,-45.9844 257.2369,-36.3308 252.3918,-40.9972 252.7483,-36.0099 252.7483,-36.0099 252.7483,-36.0099 252.3918,-40.9972 248.2598,-35.689 252.0352,-45.9844 252.0352,-45.9844"/>
<text text-anchor="middle" x="282.2329" y="-129.8" font-family="Times,serif" font-size="14.00" fill="#000000">memberships</text>
</g>
<!-- System::Role -->
<g id="node17" class="node">
<title>System::Role</title>
<ellipse fill="none" stroke="#000000" cx="135.9053" cy="-177" rx="57.5323" ry="18"/>
<text text-anchor="middle" x="135.9053" y="-172.8" font-family="Times,serif" font-size="14.00" fill="#000000">System::Role</text>
</g>
<!-- System::Person&#45;&gt;System::Role -->
<g id="edge17" class="edge">
<title>System::Person&#45;&gt;System::Role</title>
<path fill="none" stroke="#d5d065" d="M197.0837,-238.1784C185.5769,-226.6716 171.9415,-213.0362 160.467,-201.5617"/>
<polygon fill="#d5d065" stroke="#d5d065" points="197.4308,-238.5255 201.3199,-248.7786 200.9664,-242.0611 204.5019,-245.5966 204.5019,-245.5966 204.5019,-245.5966 200.9664,-242.0611 207.6839,-242.4146 197.4308,-238.5255 197.4308,-238.5255"/>
<polygon fill="#d5d065" stroke="#d5d065" points="160.3539,-201.4486 156.4648,-191.1955 156.8183,-197.913 153.2828,-194.3775 153.2828,-194.3775 153.2828,-194.3775 156.8183,-197.913 150.1008,-197.5595 160.3539,-201.4486 160.3539,-201.4486"/>
</g>
<!-- System::Role&#45;&gt;System::Capability -->
<g id="edge20" class="edge">
<title>System::Role&#45;&gt;System::Capability</title>
<path fill="none" stroke="#5937c4" d="M119.238,-152.3325C111.4478,-139.8174 102.6458,-124.1004 96.9053,-109 89.1868,-88.6964 84.3326,-64.5897 81.4642,-46.2904"/>
<ellipse fill="none" stroke="#5937c4" cx="121.5283" cy="-155.9285" rx="4" ry="4"/>
<polygon fill="#5937c4" stroke="#5937c4" points="81.4445,-46.1547 84.451,-35.609 80.7214,-41.2073 79.9983,-36.2598 79.9983,-36.2598 79.9983,-36.2598 80.7214,-41.2073 75.5456,-36.9106 81.4445,-46.1547 81.4445,-46.1547"/>
</g>
<!-- System::Role&#45;&gt;System::Group -->
<g id="edge21" class="edge">
<title>System::Role&#45;&gt;System::Group</title>
<path fill="none" stroke="#4eb3e2" d="M146.9029,-149.1825C150.8213,-139.2711 155.2279,-128.125 159.1277,-118.2609"/>
<polygon fill="#4eb3e2" stroke="#4eb3e2" points="146.7925,-149.462 138.931,-157.1071 144.9541,-154.1118 143.1158,-158.7616 143.1158,-158.7616 143.1158,-158.7616 144.9541,-154.1118 147.3006,-160.4161 146.7925,-149.462 146.7925,-149.462"/>
<polygon fill="#4eb3e2" stroke="#4eb3e2" points="159.1451,-118.2168 167.0066,-110.5717 160.9834,-113.567 162.8217,-108.9172 162.8217,-108.9172 162.8217,-108.9172 160.9834,-113.567 158.6369,-107.2627 159.1451,-118.2168 159.1451,-118.2168"/>
</g>
</g>
</svg>
