<?xml version="1.0" encoding="UTF-8" standalone="no"?>
<!DOCTYPE svg PUBLIC "-//W3C//DTD SVG 1.1//EN"
 "http://www.w3.org/Graphics/SVG/1.1/DTD/svg11.dtd">
<!-- Generated by graphviz version 2.40.1 (20161225.0304)
 -->
<!-- Title: models_diagram Pages: 1 -->
<svg width="1309pt" height="1370pt"
 viewBox="0.00 0.00 1308.55 1370.00" xmlns="http://www.w3.org/2000/svg" xmlns:xlink="http://www.w3.org/1999/xlink">
<g id="graph0" class="graph" transform="scale(1 1) rotate(0) translate(4 1366)">
<title>models_diagram</title>
<polygon fill="transparent" stroke="transparent" points="-4,4 -4,-1366 1304.55,-1366 1304.55,4 -4,4"/>
<!-- _diagram_info -->
<g id="node1" class="node">
<title>_diagram_info</title>
<text text-anchor="start" x="8" y="-1319.6" font-family="Times,serif" font-size="13.00" fill="#000000">Models diagram</text>
<text text-anchor="start" x="8" y="-1306.6" font-family="Times,serif" font-size="13.00" fill="#000000">Date: May 24 2018 &#45; 17:32</text>
<text text-anchor="start" x="8" y="-1293.6" font-family="Times,serif" font-size="13.00" fill="#000000">Migration version: 20180525003031</text>
<text text-anchor="start" x="8" y="-1280.6" font-family="Times,serif" font-size="13.00" fill="#000000">Generated by RailRoady 1.5.3</text>
<text text-anchor="start" x="8" y="-1267.6" font-family="Times,serif" font-size="13.00" fill="#000000">http://railroady.prestonlee.com</text>
</g>
<!-- Identity -->
<g id="node2" class="node">
<title>Identity</title>
<path fill="none" stroke="#000000" d="M617.8254,-610.5C617.8254,-610.5 841.55,-610.5 841.55,-610.5 847.55,-610.5 853.55,-616.5 853.55,-622.5 853.55,-622.5 853.55,-810.5 853.55,-810.5 853.55,-816.5 847.55,-822.5 841.55,-822.5 841.55,-822.5 617.8254,-822.5 617.8254,-822.5 611.8254,-822.5 605.8254,-816.5 605.8254,-810.5 605.8254,-810.5 605.8254,-622.5 605.8254,-622.5 605.8254,-616.5 611.8254,-610.5 617.8254,-610.5"/>
<text text-anchor="middle" x="729.6877" y="-807.3" font-family="Times,serif" font-size="14.00" fill="#000000">Identity</text>
<polyline fill="none" stroke="#000000" points="605.8254,-800.5 853.55,-800.5 "/>
<text text-anchor="start" x="613.8254" y="-785.3" font-family="Times,serif" font-size="14.00" fill="#000000">updated_at :timestamp without time zone</text>
<text text-anchor="start" x="613.8254" y="-771.3" font-family="Times,serif" font-size="14.00" fill="#000000">person_id :uuid</text>
<text text-anchor="start" x="613.8254" y="-757.3" font-family="Times,serif" font-size="14.00" fill="#000000">identity_provider_id :uuid</text>
<text text-anchor="start" x="613.8254" y="-743.3" font-family="Times,serif" font-size="14.00" fill="#000000">sub :character varying</text>
<text text-anchor="start" x="613.8254" y="-729.3" font-family="Times,serif" font-size="14.00" fill="#000000">iat :character varying</text>
<text text-anchor="start" x="613.8254" y="-715.3" font-family="Times,serif" font-size="14.00" fill="#000000">hd :character varying</text>
<text text-anchor="start" x="613.8254" y="-701.3" font-family="Times,serif" font-size="14.00" fill="#000000">locale :character varying</text>
<text text-anchor="start" x="613.8254" y="-687.3" font-family="Times,serif" font-size="14.00" fill="#000000">email :character varying</text>
<text text-anchor="start" x="613.8254" y="-673.3" font-family="Times,serif" font-size="14.00" fill="#000000">jwt :json</text>
<text text-anchor="start" x="613.8254" y="-659.3" font-family="Times,serif" font-size="14.00" fill="#000000">notify_via_email :boolean</text>
<text text-anchor="start" x="613.8254" y="-645.3" font-family="Times,serif" font-size="14.00" fill="#000000">notify_via_sms :boolean</text>
<text text-anchor="start" x="613.8254" y="-631.3" font-family="Times,serif" font-size="14.00" fill="#000000">created_at :timestamp without time zone</text>
<text text-anchor="start" x="613.8254" y="-617.3" font-family="Times,serif" font-size="14.00" fill="#000000">id :uuid</text>
</g>
<!-- JsonWebToken -->
<g id="node6" class="node">
<title>JsonWebToken</title>
<path fill="none" stroke="#000000" d="M525.8254,-465.5C525.8254,-465.5 749.55,-465.5 749.55,-465.5 755.55,-465.5 761.55,-471.5 761.55,-477.5 761.55,-477.5 761.55,-553.5 761.55,-553.5 761.55,-559.5 755.55,-565.5 749.55,-565.5 749.55,-565.5 525.8254,-565.5 525.8254,-565.5 519.8254,-565.5 513.8254,-559.5 513.8254,-553.5 513.8254,-553.5 513.8254,-477.5 513.8254,-477.5 513.8254,-471.5 519.8254,-465.5 525.8254,-465.5"/>
<text text-anchor="middle" x="637.6877" y="-550.3" font-family="Times,serif" font-size="14.00" fill="#000000">JsonWebToken</text>
<polyline fill="none" stroke="#000000" points="513.8254,-543.5 761.55,-543.5 "/>
<text text-anchor="start" x="521.8254" y="-528.3" font-family="Times,serif" font-size="14.00" fill="#000000">id :uuid</text>
<text text-anchor="start" x="521.8254" y="-514.3" font-family="Times,serif" font-size="14.00" fill="#000000">identity_id :uuid</text>
<text text-anchor="start" x="521.8254" y="-500.3" font-family="Times,serif" font-size="14.00" fill="#000000">expires_at :timestamp without time zone</text>
<text text-anchor="start" x="521.8254" y="-486.3" font-family="Times,serif" font-size="14.00" fill="#000000">created_at :timestamp without time zone</text>
<text text-anchor="start" x="521.8254" y="-472.3" font-family="Times,serif" font-size="14.00" fill="#000000">updated_at :timestamp without time zone</text>
</g>
<!-- Identity&#45;&gt;JsonWebToken -->
<g id="edge2" class="edge">
<title>Identity&#45;&gt;JsonWebToken</title>
<path fill="none" stroke="#c7820d" d="M677.6512,-602.8115C673.3299,-593.3704 669.0809,-584.0873 665.0604,-575.3032"/>
<ellipse fill="none" stroke="#c7820d" cx="679.4636" cy="-606.7712" rx="4" ry="4"/>
<polygon fill="#c7820d" stroke="#c7820d" points="664.9566,-575.0764 664.8864,-564.1108 662.8756,-570.53 660.7947,-565.9836 660.7947,-565.9836 660.7947,-565.9836 662.8756,-570.53 656.7029,-567.8565 664.9566,-575.0764 664.9566,-575.0764"/>
</g>
<!-- Session -->
<g id="node15" class="node">
<title>Session</title>
<ellipse fill="none" stroke="#000000" cx="816.6877" cy="-515.5" rx="37.2681" ry="18"/>
<text text-anchor="middle" x="816.6877" y="-511.3" font-family="Times,serif" font-size="14.00" fill="#000000">Session</text>
</g>
<!-- Identity&#45;&gt;Session -->
<g id="edge1" class="edge">
<title>Identity&#45;&gt;Session</title>
<path fill="none" stroke="#f95fec" d="M778.7963,-603.0424C788.6111,-580.3668 798.0385,-558.5863 805.0347,-542.4224"/>
<ellipse fill="none" stroke="#f95fec" cx="777.1969" cy="-606.7374" rx="4" ry="4"/>
<polygon fill="#f95fec" stroke="#f95fec" points="805.0862,-542.3035 813.1882,-534.9138 807.0723,-537.7149 809.0585,-533.1262 809.0585,-533.1262 809.0585,-533.1262 807.0723,-537.7149 804.9287,-531.3387 805.0862,-542.3035 805.0862,-542.3035"/>
</g>
<!-- Group -->
<g id="node3" class="node">
<title>Group</title>
<path fill="none" stroke="#000000" d="M237.8254,-1095.5C237.8254,-1095.5 461.55,-1095.5 461.55,-1095.5 467.55,-1095.5 473.55,-1101.5 473.55,-1107.5 473.55,-1107.5 473.55,-1183.5 473.55,-1183.5 473.55,-1189.5 467.55,-1195.5 461.55,-1195.5 461.55,-1195.5 237.8254,-1195.5 237.8254,-1195.5 231.8254,-1195.5 225.8254,-1189.5 225.8254,-1183.5 225.8254,-1183.5 225.8254,-1107.5 225.8254,-1107.5 225.8254,-1101.5 231.8254,-1095.5 237.8254,-1095.5"/>
<text text-anchor="middle" x="349.6877" y="-1180.3" font-family="Times,serif" font-size="14.00" fill="#000000">Group</text>
<polyline fill="none" stroke="#000000" points="225.8254,-1173.5 473.55,-1173.5 "/>
<text text-anchor="start" x="233.8254" y="-1158.3" font-family="Times,serif" font-size="14.00" fill="#000000">id :uuid</text>
<text text-anchor="start" x="233.8254" y="-1144.3" font-family="Times,serif" font-size="14.00" fill="#000000">name :character varying</text>
<text text-anchor="start" x="233.8254" y="-1130.3" font-family="Times,serif" font-size="14.00" fill="#000000">description :text</text>
<text text-anchor="start" x="233.8254" y="-1116.3" font-family="Times,serif" font-size="14.00" fill="#000000">created_at :timestamp without time zone</text>
<text text-anchor="start" x="233.8254" y="-1102.3" font-family="Times,serif" font-size="14.00" fill="#000000">updated_at :timestamp without time zone</text>
</g>
<!-- Capability -->
<g id="node4" class="node">
<title>Capability</title>
<path fill="none" stroke="#000000" d="M85.8254,-659.5C85.8254,-659.5 309.55,-659.5 309.55,-659.5 315.55,-659.5 321.55,-665.5 321.55,-671.5 321.55,-671.5 321.55,-761.5 321.55,-761.5 321.55,-767.5 315.55,-773.5 309.55,-773.5 309.55,-773.5 85.8254,-773.5 85.8254,-773.5 79.8254,-773.5 73.8254,-767.5 73.8254,-761.5 73.8254,-761.5 73.8254,-671.5 73.8254,-671.5 73.8254,-665.5 79.8254,-659.5 85.8254,-659.5"/>
<text text-anchor="middle" x="197.6877" y="-758.3" font-family="Times,serif" font-size="14.00" fill="#000000">Capability</text>
<polyline fill="none" stroke="#000000" points="73.8254,-751.5 321.55,-751.5 "/>
<text text-anchor="start" x="81.8254" y="-736.3" font-family="Times,serif" font-size="14.00" fill="#000000">id :uuid</text>
<text text-anchor="start" x="81.8254" y="-722.3" font-family="Times,serif" font-size="14.00" fill="#000000">entity_id :uuid</text>
<text text-anchor="start" x="81.8254" y="-708.3" font-family="Times,serif" font-size="14.00" fill="#000000">entity_type :character varying</text>
<text text-anchor="start" x="81.8254" y="-694.3" font-family="Times,serif" font-size="14.00" fill="#000000">role_id :uuid</text>
<text text-anchor="start" x="81.8254" y="-680.3" font-family="Times,serif" font-size="14.00" fill="#000000">created_at :timestamp without time zone</text>
<text text-anchor="start" x="81.8254" y="-666.3" font-family="Times,serif" font-size="14.00" fill="#000000">updated_at :timestamp without time zone</text>
</g>
<!-- Group&#45;&gt;Capability -->
<g id="edge5" class="edge">
<title>Group&#45;&gt;Capability</title>
<path fill="none" stroke="#a97147" d="M329.2108,-1087.7066C301.1857,-1008.6094 250.9915,-866.943 221.378,-783.3628"/>
<ellipse fill="none" stroke="#a97147" cx="330.618" cy="-1091.6783" rx="4" ry="4"/>
<polygon fill="#a97147" stroke="#a97147" points="221.2997,-783.1415 222.2016,-772.2127 219.6298,-778.4286 217.96,-773.7156 217.96,-773.7156 217.96,-773.7156 219.6298,-778.4286 213.7183,-775.2185 221.2997,-783.1415 221.2997,-783.1415"/>
</g>
<!-- Member -->
<g id="node5" class="node">
<title>Member</title>
<path fill="none" stroke="#000000" d="M351.8254,-666.5C351.8254,-666.5 575.55,-666.5 575.55,-666.5 581.55,-666.5 587.55,-672.5 587.55,-678.5 587.55,-678.5 587.55,-754.5 587.55,-754.5 587.55,-760.5 581.55,-766.5 575.55,-766.5 575.55,-766.5 351.8254,-766.5 351.8254,-766.5 345.8254,-766.5 339.8254,-760.5 339.8254,-754.5 339.8254,-754.5 339.8254,-678.5 339.8254,-678.5 339.8254,-672.5 345.8254,-666.5 351.8254,-666.5"/>
<text text-anchor="middle" x="463.6877" y="-751.3" font-family="Times,serif" font-size="14.00" fill="#000000">Member</text>
<polyline fill="none" stroke="#000000" points="339.8254,-744.5 587.55,-744.5 "/>
<text text-anchor="start" x="347.8254" y="-729.3" font-family="Times,serif" font-size="14.00" fill="#000000">id :uuid</text>
<text text-anchor="start" x="347.8254" y="-715.3" font-family="Times,serif" font-size="14.00" fill="#000000">group_id :uuid</text>
<text text-anchor="start" x="347.8254" y="-701.3" font-family="Times,serif" font-size="14.00" fill="#000000">person_id :uuid</text>
<text text-anchor="start" x="347.8254" y="-687.3" font-family="Times,serif" font-size="14.00" fill="#000000">created_at :timestamp without time zone</text>
<text text-anchor="start" x="347.8254" y="-673.3" font-family="Times,serif" font-size="14.00" fill="#000000">updated_at :timestamp without time zone</text>
</g>
<!-- Group&#45;&gt;Member -->
<g id="edge3" class="edge">
<title>Group&#45;&gt;Member</title>
<path fill="none" stroke="#10c117" d="M345.9264,-1087.3937C344.0876,-1031.1923 346.0387,-944.2964 368.6877,-873 379.7198,-838.2725 399.9223,-803.2638 418.8696,-775.1899"/>
<ellipse fill="none" stroke="#10c117" cx="346.076" cy="-1091.4602" rx="4" ry="4"/>
<polygon fill="#10c117" stroke="#10c117" points="419.0346,-774.9497 428.4068,-769.2564 421.8663,-770.8288 424.698,-766.7079 424.698,-766.7079 424.698,-766.7079 421.8663,-770.8288 420.9892,-764.1594 419.0346,-774.9497 419.0346,-774.9497"/>
</g>
<!-- Person -->
<g id="node10" class="node">
<title>Person</title>
<path fill="none" stroke="#000000" d="M389.8254,-887.5C389.8254,-887.5 613.55,-887.5 613.55,-887.5 619.55,-887.5 625.55,-893.5 625.55,-899.5 625.55,-899.5 625.55,-1031.5 625.55,-1031.5 625.55,-1037.5 619.55,-1043.5 613.55,-1043.5 613.55,-1043.5 389.8254,-1043.5 389.8254,-1043.5 383.8254,-1043.5 377.8254,-1037.5 377.8254,-1031.5 377.8254,-1031.5 377.8254,-899.5 377.8254,-899.5 377.8254,-893.5 383.8254,-887.5 389.8254,-887.5"/>
<text text-anchor="middle" x="501.6877" y="-1028.3" font-family="Times,serif" font-size="14.00" fill="#000000">Person</text>
<polyline fill="none" stroke="#000000" points="377.8254,-1021.5 625.55,-1021.5 "/>
<text text-anchor="start" x="385.8254" y="-1006.3" font-family="Times,serif" font-size="14.00" fill="#000000">updated_at :timestamp without time zone</text>
<text text-anchor="start" x="385.8254" y="-992.3" font-family="Times,serif" font-size="14.00" fill="#000000">name :character varying</text>
<text text-anchor="start" x="385.8254" y="-978.3" font-family="Times,serif" font-size="14.00" fill="#000000">external_id :character varying</text>
<text text-anchor="start" x="385.8254" y="-964.3" font-family="Times,serif" font-size="14.00" fill="#000000">salutation :character varying</text>
<text text-anchor="start" x="385.8254" y="-950.3" font-family="Times,serif" font-size="14.00" fill="#000000">first_name :character varying</text>
<text text-anchor="start" x="385.8254" y="-936.3" font-family="Times,serif" font-size="14.00" fill="#000000">middle_name :character varying</text>
<text text-anchor="start" x="385.8254" y="-922.3" font-family="Times,serif" font-size="14.00" fill="#000000">last_name :character varying</text>
<text text-anchor="start" x="385.8254" y="-908.3" font-family="Times,serif" font-size="14.00" fill="#000000">created_at :timestamp without time zone</text>
<text text-anchor="start" x="385.8254" y="-894.3" font-family="Times,serif" font-size="14.00" fill="#000000">id :uuid</text>
</g>
<!-- Group&#45;&gt;Person -->
<g id="edge4" class="edge">
<title>Group&#45;&gt;Person</title>
<path fill="none" stroke="#4d8e54" d="M398.4912,-1087.7064C408.2937,-1076.0983 418.7914,-1063.6667 429.2011,-1051.3394"/>
<polygon fill="#4d8e54" stroke="#4d8e54" points="398.4801,-1087.7196 388.5901,-1092.4566 395.2541,-1091.5398 392.0282,-1095.36 392.0282,-1095.36 392.0282,-1095.36 395.2541,-1091.5398 395.4664,-1098.2633 398.4801,-1087.7196 398.4801,-1087.7196"/>
<polygon fill="#4d8e54" stroke="#4d8e54" points="429.2124,-1051.3261 439.1024,-1046.5891 432.4383,-1047.5059 435.6642,-1043.6858 435.6642,-1043.6858 435.6642,-1043.6858 432.4383,-1047.5059 432.2261,-1040.7824 429.2124,-1051.3261 429.2124,-1051.3261"/>
</g>
<!-- Event -->
<g id="node11" class="node">
<title>Event</title>
<path fill="none" stroke="#000000" d="M769.8254,-180.5C769.8254,-180.5 993.55,-180.5 993.55,-180.5 999.55,-180.5 1005.55,-186.5 1005.55,-192.5 1005.55,-192.5 1005.55,-408.5 1005.55,-408.5 1005.55,-414.5 999.55,-420.5 993.55,-420.5 993.55,-420.5 769.8254,-420.5 769.8254,-420.5 763.8254,-420.5 757.8254,-414.5 757.8254,-408.5 757.8254,-408.5 757.8254,-192.5 757.8254,-192.5 757.8254,-186.5 763.8254,-180.5 769.8254,-180.5"/>
<text text-anchor="middle" x="881.6877" y="-405.3" font-family="Times,serif" font-size="14.00" fill="#000000">Event</text>
<polyline fill="none" stroke="#000000" points="757.8254,-398.5 1005.55,-398.5 "/>
<text text-anchor="start" x="765.8254" y="-383.3" font-family="Times,serif" font-size="14.00" fill="#000000">json_web_token_id :uuid</text>
<text text-anchor="start" x="765.8254" y="-369.3" font-family="Times,serif" font-size="14.00" fill="#000000">person_id :uuid</text>
<text text-anchor="start" x="765.8254" y="-355.3" font-family="Times,serif" font-size="14.00" fill="#000000">parent_id :uuid</text>
<text text-anchor="start" x="765.8254" y="-341.3" font-family="Times,serif" font-size="14.00" fill="#000000">next_id :uuid</text>
<text text-anchor="start" x="765.8254" y="-327.3" font-family="Times,serif" font-size="14.00" fill="#000000">topic_uri :character varying</text>
<text text-anchor="start" x="765.8254" y="-313.3" font-family="Times,serif" font-size="14.00" fill="#000000">model_uri :character varying</text>
<text text-anchor="start" x="765.8254" y="-299.3" font-family="Times,serif" font-size="14.00" fill="#000000">controller_uri :character varying</text>
<text text-anchor="start" x="765.8254" y="-285.3" font-family="Times,serif" font-size="14.00" fill="#000000">agent_uri :character varying</text>
<text text-anchor="start" x="765.8254" y="-271.3" font-family="Times,serif" font-size="14.00" fill="#000000">action_uri :character varying</text>
<text text-anchor="start" x="765.8254" y="-257.3" font-family="Times,serif" font-size="14.00" fill="#000000">created_at :timestamp without time zone</text>
<text text-anchor="start" x="765.8254" y="-243.3" font-family="Times,serif" font-size="14.00" fill="#000000">updated_at :timestamp without time zone</text>
<text text-anchor="start" x="765.8254" y="-229.3" font-family="Times,serif" font-size="14.00" fill="#000000">place_id :uuid</text>
<text text-anchor="start" x="765.8254" y="-215.3" font-family="Times,serif" font-size="14.00" fill="#000000">parameters :json</text>
<text text-anchor="start" x="765.8254" y="-201.3" font-family="Times,serif" font-size="14.00" fill="#000000">time_to_live :integer</text>
<text text-anchor="start" x="765.8254" y="-187.3" font-family="Times,serif" font-size="14.00" fill="#000000">id :uuid</text>
</g>
<!-- JsonWebToken&#45;&gt;Event -->
<g id="edge6" class="edge">
<title>JsonWebToken&#45;&gt;Event</title>
<path fill="none" stroke="#12816c" d="M700.9281,-459.7759C716.088,-446.4178 732.8382,-431.6584 749.8452,-416.6728"/>
<ellipse fill="none" stroke="#12816c" cx="697.5881" cy="-462.7189" rx="4" ry="4"/>
<polygon fill="#12816c" stroke="#12816c" points="750.1696,-416.3869 760.6475,-413.1521 753.921,-413.0814 757.6724,-409.7758 757.6724,-409.7758 757.6724,-409.7758 753.921,-413.0814 754.6974,-406.3995 750.1696,-416.3869 750.1696,-416.3869"/>
</g>
<!-- Role -->
<g id="node7" class="node">
<title>Role</title>
<path fill="none" stroke="#000000" d="M237.8254,-1240.5C237.8254,-1240.5 461.55,-1240.5 461.55,-1240.5 467.55,-1240.5 473.55,-1246.5 473.55,-1252.5 473.55,-1252.5 473.55,-1342.5 473.55,-1342.5 473.55,-1348.5 467.55,-1354.5 461.55,-1354.5 461.55,-1354.5 237.8254,-1354.5 237.8254,-1354.5 231.8254,-1354.5 225.8254,-1348.5 225.8254,-1342.5 225.8254,-1342.5 225.8254,-1252.5 225.8254,-1252.5 225.8254,-1246.5 231.8254,-1240.5 237.8254,-1240.5"/>
<text text-anchor="middle" x="349.6877" y="-1339.3" font-family="Times,serif" font-size="14.00" fill="#000000">Role</text>
<polyline fill="none" stroke="#000000" points="225.8254,-1332.5 473.55,-1332.5 "/>
<text text-anchor="start" x="233.8254" y="-1317.3" font-family="Times,serif" font-size="14.00" fill="#000000">id :uuid</text>
<text text-anchor="start" x="233.8254" y="-1303.3" font-family="Times,serif" font-size="14.00" fill="#000000">name :character varying</text>
<text text-anchor="start" x="233.8254" y="-1289.3" font-family="Times,serif" font-size="14.00" fill="#000000">code :character varying</text>
<text text-anchor="start" x="233.8254" y="-1275.3" font-family="Times,serif" font-size="14.00" fill="#000000">description :text</text>
<text text-anchor="start" x="233.8254" y="-1261.3" font-family="Times,serif" font-size="14.00" fill="#000000">created_at :timestamp without time zone</text>
<text text-anchor="start" x="233.8254" y="-1247.3" font-family="Times,serif" font-size="14.00" fill="#000000">updated_at :timestamp without time zone</text>
</g>
<!-- Role&#45;&gt;Group -->
<g id="edge9" class="edge">
<title>Role&#45;&gt;Group</title>
<path fill="none" stroke="#395acf" d="M349.6877,-1230.3785C349.6877,-1222.2258 349.6877,-1213.935 349.6877,-1205.8882"/>
<polygon fill="#395acf" stroke="#395acf" points="349.6878,-1230.4684 345.1877,-1240.4683 349.6878,-1235.4684 349.6877,-1240.4684 349.6877,-1240.4684 349.6877,-1240.4684 349.6878,-1235.4684 354.1877,-1240.4684 349.6878,-1230.4684 349.6878,-1230.4684"/>
<polygon fill="#395acf" stroke="#395acf" points="349.6878,-1205.8549 354.1877,-1195.8548 349.6878,-1200.8549 349.6877,-1195.8549 349.6877,-1195.8549 349.6877,-1195.8549 349.6878,-1200.8549 345.1877,-1195.8549 349.6878,-1205.8549 349.6878,-1205.8549"/>
</g>
<!-- Role&#45;&gt;Capability -->
<g id="edge7" class="edge">
<title>Role&#45;&gt;Capability</title>
<path fill="none" stroke="#bbb73e" d="M246.6402,-1234.7875C234.7186,-1223.3437 224.1695,-1210.397 216.6877,-1196 147.6737,-1063.1985 166.1619,-880.6613 183.3308,-783.5849"/>
<ellipse fill="none" stroke="#bbb73e" cx="249.6561" cy="-1237.5714" rx="4" ry="4"/>
<polygon fill="#bbb73e" stroke="#bbb73e" points="183.3562,-783.4444 189.5721,-774.4104 184.2505,-778.525 185.1447,-773.6056 185.1447,-773.6056 185.1447,-773.6056 184.2505,-778.525 180.7172,-772.8008 183.3562,-783.4444 183.3562,-783.4444"/>
</g>
<!-- Role&#45;&gt;Person -->
<g id="edge8" class="edge">
<title>Role&#45;&gt;Person</title>
<path fill="none" stroke="#83a35b" d="M453.5425,-1233.1793C464.9926,-1222.1073 475.1975,-1209.6917 482.6877,-1196 506.1578,-1153.0981 511.5968,-1098.848 510.849,-1053.7571"/>
<polygon fill="#83a35b" stroke="#83a35b" points="453.2095,-1233.486 442.8055,-1236.9513 449.5319,-1236.8736 445.8543,-1240.2611 445.8543,-1240.2611 445.8543,-1240.2611 449.5319,-1236.8736 448.9031,-1243.5709 453.2095,-1233.486 453.2095,-1233.486"/>
<polygon fill="#83a35b" stroke="#83a35b" points="510.8473,-1053.6888 515.0767,-1043.5714 510.7128,-1048.6906 510.5783,-1043.6924 510.5783,-1043.6924 510.5783,-1043.6924 510.7128,-1048.6906 506.08,-1043.8134 510.8473,-1053.6888 510.8473,-1053.6888"/>
</g>
<!-- Client -->
<g id="node8" class="node">
<title>Client</title>
<path fill="none" stroke="#000000" d="M503.8254,-1233.5C503.8254,-1233.5 727.55,-1233.5 727.55,-1233.5 733.55,-1233.5 739.55,-1239.5 739.55,-1245.5 739.55,-1245.5 739.55,-1349.5 739.55,-1349.5 739.55,-1355.5 733.55,-1361.5 727.55,-1361.5 727.55,-1361.5 503.8254,-1361.5 503.8254,-1361.5 497.8254,-1361.5 491.8254,-1355.5 491.8254,-1349.5 491.8254,-1349.5 491.8254,-1245.5 491.8254,-1245.5 491.8254,-1239.5 497.8254,-1233.5 503.8254,-1233.5"/>
<text text-anchor="middle" x="615.6877" y="-1346.3" font-family="Times,serif" font-size="14.00" fill="#000000">Client</text>
<polyline fill="none" stroke="#000000" points="491.8254,-1339.5 739.55,-1339.5 "/>
<text text-anchor="start" x="499.8254" y="-1324.3" font-family="Times,serif" font-size="14.00" fill="#000000">id :uuid</text>
<text text-anchor="start" x="499.8254" y="-1310.3" font-family="Times,serif" font-size="14.00" fill="#000000">name :character varying</text>
<text text-anchor="start" x="499.8254" y="-1296.3" font-family="Times,serif" font-size="14.00" fill="#000000">launch_url :character varying</text>
<text text-anchor="start" x="499.8254" y="-1282.3" font-family="Times,serif" font-size="14.00" fill="#000000">icon_url :character varying</text>
<text text-anchor="start" x="499.8254" y="-1268.3" font-family="Times,serif" font-size="14.00" fill="#000000">available :boolean</text>
<text text-anchor="start" x="499.8254" y="-1254.3" font-family="Times,serif" font-size="14.00" fill="#000000">created_at :timestamp without time zone</text>
<text text-anchor="start" x="499.8254" y="-1240.3" font-family="Times,serif" font-size="14.00" fill="#000000">updated_at :timestamp without time zone</text>
</g>
<!-- Ability -->
<g id="node9" class="node">
<title>Ability</title>
<polygon fill="none" stroke="#000000" points="757.8533,-1275.5 757.8533,-1319.5 813.5222,-1319.5 813.5222,-1275.5 757.8533,-1275.5"/>
<text text-anchor="middle" x="785.6877" y="-1304.3" font-family="Times,serif" font-size="14.00" fill="#000000">Ability</text>
<polyline fill="none" stroke="#000000" points="757.8533,-1297.5 813.5222,-1297.5 "/>
<text text-anchor="middle" x="785.6877" y="-1282.3" font-family="Times,serif" font-size="14.00" fill="#000000"> </text>
</g>
<!-- Person&#45;&gt;Identity -->
<g id="edge13" class="edge">
<title>Person&#45;&gt;Identity</title>
<path fill="none" stroke="#63557d" d="M578.9858,-881.0824C593.9024,-864.7919 609.7574,-847.4765 625.3686,-830.4275"/>
<ellipse fill="none" stroke="#63557d" cx="575.9041" cy="-884.4479" rx="4" ry="4"/>
<polygon fill="#63557d" stroke="#63557d" points="625.7667,-829.9927 635.8388,-825.6564 629.1433,-826.3051 632.5199,-822.6175 632.5199,-822.6175 632.5199,-822.6175 629.1433,-826.3051 629.2011,-819.5785 625.7667,-829.9927 625.7667,-829.9927"/>
</g>
<!-- Person&#45;&gt;Capability -->
<g id="edge12" class="edge">
<title>Person&#45;&gt;Capability</title>
<path fill="none" stroke="#590fbc" d="M399.968,-882.1835C359.3872,-848.9446 313.418,-811.2922 275.568,-780.29"/>
<ellipse fill="none" stroke="#590fbc" cx="403.2399" cy="-884.8634" rx="4" ry="4"/>
<polygon fill="#590fbc" stroke="#590fbc" points="275.3555,-780.116 270.4707,-770.2982 271.4874,-776.9477 267.6193,-773.7794 267.6193,-773.7794 267.6193,-773.7794 271.4874,-776.9477 264.7678,-777.2607 275.3555,-780.116 275.3555,-780.116"/>
</g>
<!-- Person&#45;&gt;Member -->
<g id="edge11" class="edge">
<title>Person&#45;&gt;Member</title>
<path fill="none" stroke="#69cdd5" d="M488.5581,-879.466C483.4073,-845.7149 477.6182,-807.7813 472.9222,-777.01"/>
<ellipse fill="none" stroke="#69cdd5" cx="489.1651" cy="-883.4438" rx="4" ry="4"/>
<polygon fill="#69cdd5" stroke="#69cdd5" points="472.8828,-776.751 475.8225,-766.1865 472.1284,-771.8082 471.374,-766.8654 471.374,-766.8654 471.374,-766.8654 472.1284,-771.8082 466.9255,-767.5444 472.8828,-776.751 472.8828,-776.751"/>
<text text-anchor="middle" x="522.0154" y="-843.8" font-family="Times,serif" font-size="14.00" fill="#000000">memberships</text>
</g>
<!-- Person&#45;&gt;Event -->
<g id="edge10" class="edge">
<title>Person&#45;&gt;Event</title>
<path fill="none" stroke="#5bd9b0" d="M633.5175,-921.341C730.675,-887.5045 848.3399,-843.286 862.6877,-823 905.6626,-762.2388 901.3788,-564.9407 892.7462,-430.9499"/>
<ellipse fill="none" stroke="#5bd9b0" cx="629.4502" cy="-922.7539" rx="4" ry="4"/>
<polygon fill="#5bd9b0" stroke="#5bd9b0" points="892.7225,-430.5884 896.5537,-420.3136 892.393,-425.5993 892.0635,-420.6101 892.0635,-420.6101 892.0635,-420.6101 892.393,-425.5993 887.5732,-420.9067 892.7225,-430.5884 892.7225,-430.5884"/>
</g>
<!-- Event&#45;&gt;Event -->
<g id="edge15" class="edge">
<title>Event&#45;&gt;Event</title>
<path fill="none" stroke="#2a536a" d="M1013.9334,-305.8888C1020.0007,-304.5241 1023.55,-302.7278 1023.55,-300.5 1023.55,-298.5143 1020.7304,-296.8715 1015.8213,-295.5715"/>
<ellipse fill="none" stroke="#2a536a" cx="1009.6589" cy="-306.6189" rx="4" ry="4"/>
<polygon fill="#2a536a" stroke="#2a536a" points="1015.5501,-295.5216 1006.5324,-289.2822 1010.6331,-294.6145 1005.716,-293.7075 1005.716,-293.7075 1005.716,-293.7075 1010.6331,-294.6145 1004.8997,-298.1328 1015.5501,-295.5216 1015.5501,-295.5216"/>
<text text-anchor="middle" x="1058.9294" y="-296.3" font-family="Times,serif" font-size="14.00" fill="#000000">child_events</text>
</g>
<!-- Event&#45;&gt;Event -->
<g id="edge16" class="edge">
<title>Event&#45;&gt;Event</title>
<path fill="none" stroke="#d7369b" d="M1014.0609,-317.7168C1057.8948,-317.2343 1094.3088,-311.4953 1094.3088,-300.5 1094.3088,-289.6644 1058.9448,-283.9335 1015.9659,-283.3076"/>
<ellipse fill="none" stroke="#d7369b" cx="1009.7969" cy="-317.7317" rx="4" ry="4"/>
<polygon fill="#d7369b" stroke="#d7369b" points="1015.7968,-283.3068 1005.8206,-278.7543 1010.7968,-283.2805 1005.7969,-283.2542 1005.7969,-283.2542 1005.7969,-283.2542 1010.7968,-283.2805 1005.7732,-287.7541 1015.7968,-283.3068 1015.7968,-283.3068"/>
<text text-anchor="middle" x="1139.7986" y="-296.3" font-family="Times,serif" font-size="14.00" fill="#000000">previous_events</text>
</g>
<!-- Event&#45;&gt;Event -->
<g id="edge17" class="edge">
<title>Event&#45;&gt;Event</title>
<path fill="none" stroke="#d5f3ef" d="M1013.8602,-325.3247C1097.1189,-329.5004 1185.2883,-321.2255 1185.2883,-300.5 1185.2883,-279.9417 1098.5353,-271.6339 1015.8755,-275.5767"/>
<ellipse fill="none" stroke="#d5f3ef" cx="1009.8153" cy="-325.1018" rx="4" ry="4"/>
<polygon fill="#d5f3ef" stroke="#d5f3ef" points="1015.8069,-275.5803 1005.5793,-271.6248 1010.8142,-275.8493 1005.8214,-276.1183 1005.8214,-276.1183 1005.8214,-276.1183 1010.8142,-275.8493 1006.0635,-280.6118 1015.8069,-275.5803 1015.8069,-275.5803"/>
<text text-anchor="middle" x="1226.1091" y="-296.3" font-family="Times,serif" font-size="14.00" fill="#000000">scoped_events</text>
</g>
<!-- Objective -->
<g id="node14" class="node">
<title>Objective</title>
<path fill="none" stroke="#000000" d="M769.8254,-.5C769.8254,-.5 993.55,-.5 993.55,-.5 999.55,-.5 1005.55,-6.5 1005.55,-12.5 1005.55,-12.5 1005.55,-130.5 1005.55,-130.5 1005.55,-136.5 999.55,-142.5 993.55,-142.5 993.55,-142.5 769.8254,-142.5 769.8254,-142.5 763.8254,-142.5 757.8254,-136.5 757.8254,-130.5 757.8254,-130.5 757.8254,-12.5 757.8254,-12.5 757.8254,-6.5 763.8254,-.5 769.8254,-.5"/>
<text text-anchor="middle" x="881.6877" y="-127.3" font-family="Times,serif" font-size="14.00" fill="#000000">Objective</text>
<polyline fill="none" stroke="#000000" points="757.8254,-120.5 1005.55,-120.5 "/>
<text text-anchor="start" x="765.8254" y="-105.3" font-family="Times,serif" font-size="14.00" fill="#000000">event_id :uuid</text>
<text text-anchor="start" x="765.8254" y="-91.3" font-family="Times,serif" font-size="14.00" fill="#000000">formalized :boolean</text>
<text text-anchor="start" x="765.8254" y="-77.3" font-family="Times,serif" font-size="14.00" fill="#000000">language :character varying</text>
<text text-anchor="start" x="765.8254" y="-63.3" font-family="Times,serif" font-size="14.00" fill="#000000">specification :character varying</text>
<text text-anchor="start" x="765.8254" y="-49.3" font-family="Times,serif" font-size="14.00" fill="#000000">comment :text</text>
<text text-anchor="start" x="765.8254" y="-35.3" font-family="Times,serif" font-size="14.00" fill="#000000">created_at :timestamp without time zone</text>
<text text-anchor="start" x="765.8254" y="-21.3" font-family="Times,serif" font-size="14.00" fill="#000000">updated_at :timestamp without time zone</text>
<text text-anchor="start" x="765.8254" y="-7.3" font-family="Times,serif" font-size="14.00" fill="#000000">id :uuid</text>
</g>
<!-- Event&#45;&gt;Objective -->
<g id="edge14" class="edge">
<title>Event&#45;&gt;Objective</title>
<path fill="none" stroke="#8f7211" d="M881.6877,-172.1866C881.6877,-165.726 881.6877,-159.325 881.6877,-153.0674"/>
<ellipse fill="none" stroke="#8f7211" cx="881.6878" cy="-176.2995" rx="4" ry="4"/>
<polygon fill="#8f7211" stroke="#8f7211" points="881.6878,-152.6865 886.1877,-142.6864 881.6878,-147.6865 881.6877,-142.6865 881.6877,-142.6865 881.6877,-142.6865 881.6878,-147.6865 877.1877,-142.6865 881.6878,-152.6865 881.6878,-152.6865"/>
</g>
<!-- IdentityProvider -->
<g id="node12" class="node">
<title>IdentityProvider</title>
<path fill="none" stroke="#000000" d="M794.8254,-873.5C794.8254,-873.5 1018.55,-873.5 1018.55,-873.5 1024.55,-873.5 1030.55,-879.5 1030.55,-885.5 1030.55,-885.5 1030.55,-1045.5 1030.55,-1045.5 1030.55,-1051.5 1024.55,-1057.5 1018.55,-1057.5 1018.55,-1057.5 794.8254,-1057.5 794.8254,-1057.5 788.8254,-1057.5 782.8254,-1051.5 782.8254,-1045.5 782.8254,-1045.5 782.8254,-885.5 782.8254,-885.5 782.8254,-879.5 788.8254,-873.5 794.8254,-873.5"/>
<text text-anchor="middle" x="906.6877" y="-1042.3" font-family="Times,serif" font-size="14.00" fill="#000000">IdentityProvider</text>
<polyline fill="none" stroke="#000000" points="782.8254,-1035.5 1030.55,-1035.5 "/>
<text text-anchor="start" x="790.8254" y="-1020.3" font-family="Times,serif" font-size="14.00" fill="#000000">scopes :character varying</text>
<text text-anchor="start" x="790.8254" y="-1006.3" font-family="Times,serif" font-size="14.00" fill="#000000">name :character varying</text>
<text text-anchor="start" x="790.8254" y="-992.3" font-family="Times,serif" font-size="14.00" fill="#000000">issuer :character varying</text>
<text text-anchor="start" x="790.8254" y="-978.3" font-family="Times,serif" font-size="14.00" fill="#000000">client_id :character varying</text>
<text text-anchor="start" x="790.8254" y="-964.3" font-family="Times,serif" font-size="14.00" fill="#000000">client_secret :character varying</text>
<text text-anchor="start" x="790.8254" y="-950.3" font-family="Times,serif" font-size="14.00" fill="#000000">alternate_client_id :character varying</text>
<text text-anchor="start" x="790.8254" y="-936.3" font-family="Times,serif" font-size="14.00" fill="#000000">configuration :json</text>
<text text-anchor="start" x="790.8254" y="-922.3" font-family="Times,serif" font-size="14.00" fill="#000000">public_keys :json</text>
<text text-anchor="start" x="790.8254" y="-908.3" font-family="Times,serif" font-size="14.00" fill="#000000">created_at :timestamp without time zone</text>
<text text-anchor="start" x="790.8254" y="-894.3" font-family="Times,serif" font-size="14.00" fill="#000000">updated_at :timestamp without time zone</text>
<text text-anchor="start" x="790.8254" y="-880.3" font-family="Times,serif" font-size="14.00" fill="#000000">id :uuid</text>
</g>
<!-- IdentityProvider&#45;&gt;Identity -->
<g id="edge18" class="edge">
<title>IdentityProvider&#45;&gt;Identity</title>
<path fill="none" stroke="#01259a" d="M836.5845,-866.8802C828.23,-855.1273 819.6467,-843.0524 811.1504,-831.1"/>
<ellipse fill="none" stroke="#01259a" cx="838.9648" cy="-870.2288" rx="4" ry="4"/>
<polygon fill="#01259a" stroke="#01259a" points="811.08,-831.0009 808.9539,-820.2431 808.1831,-826.9256 805.2862,-822.8503 805.2862,-822.8503 805.2862,-822.8503 808.1831,-826.9256 801.6184,-825.4575 811.08,-831.0009 811.08,-831.0009"/>
</g>
<!-- Place -->
<g id="node13" class="node">
<title>Place</title>
<path fill="none" stroke="#000000" d="M921.8254,-458.5C921.8254,-458.5 1145.55,-458.5 1145.55,-458.5 1151.55,-458.5 1157.55,-464.5 1157.55,-470.5 1157.55,-470.5 1157.55,-560.5 1157.55,-560.5 1157.55,-566.5 1151.55,-572.5 1145.55,-572.5 1145.55,-572.5 921.8254,-572.5 921.8254,-572.5 915.8254,-572.5 909.8254,-566.5 909.8254,-560.5 909.8254,-560.5 909.8254,-470.5 909.8254,-470.5 909.8254,-464.5 915.8254,-458.5 921.8254,-458.5"/>
<text text-anchor="middle" x="1033.6877" y="-557.3" font-family="Times,serif" font-size="14.00" fill="#000000">Place</text>
<polyline fill="none" stroke="#000000" points="909.8254,-550.5 1157.55,-550.5 "/>
<text text-anchor="start" x="917.8254" y="-535.3" font-family="Times,serif" font-size="14.00" fill="#000000">id :uuid</text>
<text text-anchor="start" x="917.8254" y="-521.3" font-family="Times,serif" font-size="14.00" fill="#000000">name :character varying</text>
<text text-anchor="start" x="917.8254" y="-507.3" font-family="Times,serif" font-size="14.00" fill="#000000">address :text</text>
<text text-anchor="start" x="917.8254" y="-493.3" font-family="Times,serif" font-size="14.00" fill="#000000">description :text</text>
<text text-anchor="start" x="917.8254" y="-479.3" font-family="Times,serif" font-size="14.00" fill="#000000">created_at :timestamp without time zone</text>
<text text-anchor="start" x="917.8254" y="-465.3" font-family="Times,serif" font-size="14.00" fill="#000000">updated_at :timestamp without time zone</text>
</g>
<!-- Place&#45;&gt;Event -->
<g id="edge19" class="edge">
<title>Place&#45;&gt;Event</title>
<path fill="none" stroke="#41a220" d="M988.579,-451.6949C983.439,-444.4244 978.0717,-436.8326 972.5971,-429.0888"/>
<ellipse fill="none" stroke="#41a220" cx="991.0445" cy="-455.1822" rx="4" ry="4"/>
<polygon fill="#41a220" stroke="#41a220" points="972.3928,-428.7999 970.2944,-418.0366 969.5064,-424.7171 966.62,-420.6344 966.62,-420.6344 966.62,-420.6344 969.5064,-424.7171 962.9455,-423.2322 972.3928,-428.7999 972.3928,-428.7999"/>
</g>
</g>
</svg>
