<?xml version="1.0" encoding="UTF-8" standalone="no"?>
<!DOCTYPE svg PUBLIC "-//W3C//DTD SVG 1.1//EN"
 "http://www.w3.org/Graphics/SVG/1.1/DTD/svg11.dtd">
<!-- Generated by graphviz version 2.40.1 (20161225.0304)
 -->
<!-- Title: models_diagram Pages: 1 -->
<svg width="1755pt" height="966pt"
 viewBox="0.00 0.00 1754.72 966.00" xmlns="http://www.w3.org/2000/svg" xmlns:xlink="http://www.w3.org/1999/xlink">
<g id="graph0" class="graph" transform="scale(1 1) rotate(0) translate(4 962)">
<title>models_diagram</title>
<polygon fill="transparent" stroke="transparent" points="-4,4 -4,-962 1750.7246,-962 1750.7246,4 -4,4"/>
<!-- _diagram_info -->
<g id="node1" class="node">
<title>_diagram_info</title>
<text text-anchor="start" x="602.4126" y="-915.6" font-family="Times,serif" font-size="13.00" fill="#000000">Models diagram</text>
<text text-anchor="start" x="602.4126" y="-902.6" font-family="Times,serif" font-size="13.00" fill="#000000">Date: Feb 27 2017 &#45; 15:01</text>
<text text-anchor="start" x="602.4126" y="-889.6" font-family="Times,serif" font-size="13.00" fill="#000000">Migration version: 20160630211533</text>
<text text-anchor="start" x="602.4126" y="-876.6" font-family="Times,serif" font-size="13.00" fill="#000000">Generated by RailRoady 1.5.2</text>
<text text-anchor="start" x="602.4126" y="-863.6" font-family="Times,serif" font-size="13.00" fill="#000000">http://railroady.prestonlee.com</text>
</g>
<!-- Ability -->
<g id="node2" class="node">
<title>Ability</title>
<polygon fill="none" stroke="#000000" points="819.0278,-871.5 819.0278,-915.5 874.6968,-915.5 874.6968,-871.5 819.0278,-871.5"/>
<text text-anchor="middle" x="846.8623" y="-900.3" font-family="Times,serif" font-size="14.00" fill="#000000">Ability</text>
<polyline fill="none" stroke="#000000" points="819.0278,-893.5 874.6968,-893.5 "/>
<text text-anchor="middle" x="846.8623" y="-878.3" font-family="Times,serif" font-size="14.00" fill="#000000"> </text>
</g>
<!-- Context::Activity -->
<g id="node3" class="node">
<title>Context::Activity</title>
<path fill="none" stroke="#000000" d="M905,-566.5C905,-566.5 1128.7246,-566.5 1128.7246,-566.5 1134.7246,-566.5 1140.7246,-572.5 1140.7246,-578.5 1140.7246,-578.5 1140.7246,-766.5 1140.7246,-766.5 1140.7246,-772.5 1134.7246,-778.5 1128.7246,-778.5 1128.7246,-778.5 905,-778.5 905,-778.5 899,-778.5 893,-772.5 893,-766.5 893,-766.5 893,-578.5 893,-578.5 893,-572.5 899,-566.5 905,-566.5"/>
<text text-anchor="middle" x="1016.8623" y="-763.3" font-family="Times,serif" font-size="14.00" fill="#000000">Context::Activity</text>
<polyline fill="none" stroke="#000000" points="893,-756.5 1140.7246,-756.5 "/>
<text text-anchor="start" x="901" y="-741.3" font-family="Times,serif" font-size="14.00" fill="#000000">scope_id :uuid</text>
<text text-anchor="start" x="901" y="-727.3" font-family="Times,serif" font-size="14.00" fill="#000000">parent_id :uuid</text>
<text text-anchor="start" x="901" y="-713.3" font-family="Times,serif" font-size="14.00" fill="#000000">name :character varying</text>
<text text-anchor="start" x="901" y="-699.3" font-family="Times,serif" font-size="14.00" fill="#000000">description :text</text>
<text text-anchor="start" x="901" y="-685.3" font-family="Times,serif" font-size="14.00" fill="#000000">started_at :timestamp without time zone</text>
<text text-anchor="start" x="901" y="-671.3" font-family="Times,serif" font-size="14.00" fill="#000000">ended_at :timestamp without time zone</text>
<text text-anchor="start" x="901" y="-657.3" font-family="Times,serif" font-size="14.00" fill="#000000">semantic_uri :character varying</text>
<text text-anchor="start" x="901" y="-643.3" font-family="Times,serif" font-size="14.00" fill="#000000">created_at :timestamp without time zone</text>
<text text-anchor="start" x="901" y="-629.3" font-family="Times,serif" font-size="14.00" fill="#000000">updated_at :timestamp without time zone</text>
<text text-anchor="start" x="901" y="-615.3" font-family="Times,serif" font-size="14.00" fill="#000000">place_id :uuid</text>
<text text-anchor="start" x="901" y="-601.3" font-family="Times,serif" font-size="14.00" fill="#000000">system :boolean</text>
<text text-anchor="start" x="901" y="-587.3" font-family="Times,serif" font-size="14.00" fill="#000000">next_id :uuid</text>
<text text-anchor="start" x="901" y="-573.3" font-family="Times,serif" font-size="14.00" fill="#000000">id :uuid</text>
</g>
<!-- Context::Activity&#45;&gt;Context::Activity -->
<g id="edge4" class="edge">
<title>Context::Activity&#45;&gt;Context::Activity</title>
<path fill="none" stroke="#3b308a" d="M1149.1079,-677.5764C1155.1753,-676.2908 1158.7246,-674.5987 1158.7246,-672.5 1158.7246,-670.6294 1155.9049,-669.0818 1150.9958,-667.8572"/>
<ellipse fill="none" stroke="#3b308a" cx="1144.8398" cy="-678.2632" rx="4" ry="4"/>
<polygon fill="#3b308a" stroke="#3b308a" points="1150.743,-667.8134 1141.6611,-661.6677 1145.8168,-666.9573 1140.8906,-666.1013 1140.8906,-666.1013 1140.8906,-666.1013 1145.8168,-666.9573 1140.1201,-670.5348 1150.743,-667.8134 1150.743,-667.8134"/>
<text text-anchor="middle" x="1201.4902" y="-668.3" font-family="Times,serif" font-size="14.00" fill="#000000">child_activities</text>
</g>
<!-- Context::Activity&#45;&gt;Context::Activity -->
<g id="edge5" class="edge">
<title>Context::Activity&#45;&gt;Context::Activity</title>
<path fill="none" stroke="#8d7b89" d="M1148.9741,-688.7482C1199.8194,-688.8621 1244.2559,-683.446 1244.2559,-672.5 1244.2559,-661.6891 1200.9098,-656.2725 1150.8542,-656.2501"/>
<ellipse fill="none" stroke="#8d7b89" cx="1144.7644" cy="-688.7146" rx="4" ry="4"/>
<polygon fill="#8d7b89" stroke="#8d7b89" points="1150.7643,-656.2506 1140.7344,-651.8176 1145.7644,-656.284 1140.7645,-656.3175 1140.7645,-656.3175 1140.7645,-656.3175 1145.7644,-656.284 1140.7946,-660.8174 1150.7643,-656.2506 1150.7643,-656.2506"/>
<text text-anchor="middle" x="1297.1318" y="-668.3" font-family="Times,serif" font-size="14.00" fill="#000000">previous_activities</text>
</g>
<!-- Context::Activity&#45;&gt;Context::Activity -->
<g id="edge6" class="edge">
<title>Context::Activity&#45;&gt;Context::Activity</title>
<path fill="none" stroke="#6a0e4e" d="M1149.0391,-695.3896C1243.5684,-700.3914 1350.0078,-692.7615 1350.0078,-672.5 1350.0078,-652.381 1245.0607,-644.7166 1151.0359,-649.5067"/>
<ellipse fill="none" stroke="#6a0e4e" cx="1144.8005" cy="-695.1479" rx="4" ry="4"/>
<polygon fill="#6a0e4e" stroke="#6a0e4e" points="1150.7913,-649.5204 1140.5551,-645.587 1145.7991,-649.8002 1140.807,-650.08 1140.807,-650.08 1140.807,-650.08 1145.7991,-649.8002 1141.0588,-654.5729 1150.7913,-649.5204 1150.7913,-649.5204"/>
<text text-anchor="middle" x="1398.2148" y="-668.3" font-family="Times,serif" font-size="14.00" fill="#000000">scoped_activities</text>
</g>
<!-- Context::ActorRole -->
<g id="node4" class="node">
<title>Context::ActorRole</title>
<path fill="none" stroke="#000000" d="M734,-352.5C734,-352.5 957.7246,-352.5 957.7246,-352.5 963.7246,-352.5 969.7246,-358.5 969.7246,-364.5 969.7246,-364.5 969.7246,-454.5 969.7246,-454.5 969.7246,-460.5 963.7246,-466.5 957.7246,-466.5 957.7246,-466.5 734,-466.5 734,-466.5 728,-466.5 722,-460.5 722,-454.5 722,-454.5 722,-364.5 722,-364.5 722,-358.5 728,-352.5 734,-352.5"/>
<text text-anchor="middle" x="845.8623" y="-451.3" font-family="Times,serif" font-size="14.00" fill="#000000">Context::ActorRole</text>
<polyline fill="none" stroke="#000000" points="722,-444.5 969.7246,-444.5 "/>
<text text-anchor="start" x="730" y="-429.3" font-family="Times,serif" font-size="14.00" fill="#000000">id :uuid</text>
<text text-anchor="start" x="730" y="-415.3" font-family="Times,serif" font-size="14.00" fill="#000000">activity_id :uuid</text>
<text text-anchor="start" x="730" y="-401.3" font-family="Times,serif" font-size="14.00" fill="#000000">semantic_uri :character varying</text>
<text text-anchor="start" x="730" y="-387.3" font-family="Times,serif" font-size="14.00" fill="#000000">created_at :timestamp without time zone</text>
<text text-anchor="start" x="730" y="-373.3" font-family="Times,serif" font-size="14.00" fill="#000000">updated_at :timestamp without time zone</text>
<text text-anchor="start" x="730" y="-359.3" font-family="Times,serif" font-size="14.00" fill="#000000">person_id :uuid</text>
</g>
<!-- Context::Activity&#45;&gt;Context::ActorRole -->
<g id="edge1" class="edge">
<title>Context::Activity&#45;&gt;Context::ActorRole</title>
<path fill="none" stroke="#cedb42" d="M943.3711,-559.4697C924.6419,-530.6639 905.1283,-500.6517 888.522,-475.1111"/>
<ellipse fill="none" stroke="#cedb42" cx="945.6225" cy="-562.9324" rx="4" ry="4"/>
<polygon fill="#cedb42" stroke="#cedb42" points="888.4581,-475.0129 886.7798,-464.1762 885.7326,-470.821 883.0071,-466.6291 883.0071,-466.6291 883.0071,-466.6291 885.7326,-470.821 879.2344,-469.0821 888.4581,-475.0129 888.4581,-475.0129"/>
<text text-anchor="middle" x="962.959" y="-536.8" font-family="Times,serif" font-size="14.00" fill="#000000">actor_roles</text>
</g>
<!-- Context::Objective -->
<g id="node6" class="node">
<title>Context::Objective</title>
<path fill="none" stroke="#000000" d="M1000,-331.5C1000,-331.5 1223.7246,-331.5 1223.7246,-331.5 1229.7246,-331.5 1235.7246,-337.5 1235.7246,-343.5 1235.7246,-343.5 1235.7246,-475.5 1235.7246,-475.5 1235.7246,-481.5 1229.7246,-487.5 1223.7246,-487.5 1223.7246,-487.5 1000,-487.5 1000,-487.5 994,-487.5 988,-481.5 988,-475.5 988,-475.5 988,-343.5 988,-343.5 988,-337.5 994,-331.5 1000,-331.5"/>
<text text-anchor="middle" x="1111.8623" y="-472.3" font-family="Times,serif" font-size="14.00" fill="#000000">Context::Objective</text>
<polyline fill="none" stroke="#000000" points="988,-465.5 1235.7246,-465.5 "/>
<text text-anchor="start" x="996" y="-450.3" font-family="Times,serif" font-size="14.00" fill="#000000">activity_id :uuid</text>
<text text-anchor="start" x="996" y="-436.3" font-family="Times,serif" font-size="14.00" fill="#000000">formalized :boolean</text>
<text text-anchor="start" x="996" y="-422.3" font-family="Times,serif" font-size="14.00" fill="#000000">language :character varying</text>
<text text-anchor="start" x="996" y="-408.3" font-family="Times,serif" font-size="14.00" fill="#000000">semantic_uri :character varying</text>
<text text-anchor="start" x="996" y="-394.3" font-family="Times,serif" font-size="14.00" fill="#000000">specification :character varying</text>
<text text-anchor="start" x="996" y="-380.3" font-family="Times,serif" font-size="14.00" fill="#000000">comment :text</text>
<text text-anchor="start" x="996" y="-366.3" font-family="Times,serif" font-size="14.00" fill="#000000">created_at :timestamp without time zone</text>
<text text-anchor="start" x="996" y="-352.3" font-family="Times,serif" font-size="14.00" fill="#000000">updated_at :timestamp without time zone</text>
<text text-anchor="start" x="996" y="-338.3" font-family="Times,serif" font-size="14.00" fill="#000000">id :uuid</text>
</g>
<!-- Context::Activity&#45;&gt;Context::Objective -->
<g id="edge3" class="edge">
<title>Context::Activity&#45;&gt;Context::Objective</title>
<path fill="none" stroke="#258508" d="M1058.0175,-558.5651C1065.4297,-538.0449 1073.0518,-516.9438 1080.1443,-497.3088"/>
<ellipse fill="none" stroke="#258508" cx="1056.5876" cy="-562.5238" rx="4" ry="4"/>
<polygon fill="#258508" stroke="#258508" points="1080.1829,-497.2019 1087.8126,-489.3255 1081.8816,-492.4992 1083.5803,-487.7966 1083.5803,-487.7966 1083.5803,-487.7966 1081.8816,-492.4992 1079.3479,-486.2678 1080.1829,-497.2019 1080.1829,-497.2019"/>
<text text-anchor="middle" x="1092.2417" y="-536.8" font-family="Times,serif" font-size="14.00" fill="#000000">objectives</text>
</g>
<!-- Context::UsageRole -->
<g id="node8" class="node">
<title>Context::UsageRole</title>
<path fill="none" stroke="#000000" d="M1389,-352.5C1389,-352.5 1612.7246,-352.5 1612.7246,-352.5 1618.7246,-352.5 1624.7246,-358.5 1624.7246,-364.5 1624.7246,-364.5 1624.7246,-454.5 1624.7246,-454.5 1624.7246,-460.5 1618.7246,-466.5 1612.7246,-466.5 1612.7246,-466.5 1389,-466.5 1389,-466.5 1383,-466.5 1377,-460.5 1377,-454.5 1377,-454.5 1377,-364.5 1377,-364.5 1377,-358.5 1383,-352.5 1389,-352.5"/>
<text text-anchor="middle" x="1500.8623" y="-451.3" font-family="Times,serif" font-size="14.00" fill="#000000">Context::UsageRole</text>
<polyline fill="none" stroke="#000000" points="1377,-444.5 1624.7246,-444.5 "/>
<text text-anchor="start" x="1385" y="-429.3" font-family="Times,serif" font-size="14.00" fill="#000000">id :uuid</text>
<text text-anchor="start" x="1385" y="-415.3" font-family="Times,serif" font-size="14.00" fill="#000000">activity_id :uuid</text>
<text text-anchor="start" x="1385" y="-401.3" font-family="Times,serif" font-size="14.00" fill="#000000">asset_id :uuid</text>
<text text-anchor="start" x="1385" y="-387.3" font-family="Times,serif" font-size="14.00" fill="#000000">created_at :timestamp without time zone</text>
<text text-anchor="start" x="1385" y="-373.3" font-family="Times,serif" font-size="14.00" fill="#000000">updated_at :timestamp without time zone</text>
<text text-anchor="start" x="1385" y="-359.3" font-family="Times,serif" font-size="14.00" fill="#000000">semantic_uri :character varying</text>
</g>
<!-- Context::Activity&#45;&gt;Context::UsageRole -->
<g id="edge2" class="edge">
<title>Context::Activity&#45;&gt;Context::UsageRole</title>
<path fill="none" stroke="#df2e0a" d="M1148.3307,-601.0616C1222.8182,-560.586 1315.0994,-510.4414 1386.5606,-471.6102"/>
<ellipse fill="none" stroke="#df2e0a" cx="1144.3905" cy="-603.2027" rx="4" ry="4"/>
<polygon fill="#df2e0a" stroke="#df2e0a" points="1386.8259,-471.4661 1397.7611,-470.6455 1391.2192,-469.0788 1395.6125,-466.6915 1395.6125,-466.6915 1395.6125,-466.6915 1391.2192,-469.0788 1393.464,-462.7375 1386.8259,-471.4661 1386.8259,-471.4661"/>
<text text-anchor="middle" x="1291.9072" y="-536.8" font-family="Times,serif" font-size="14.00" fill="#000000">usage_roles</text>
</g>
<!-- Context::Asset -->
<g id="node5" class="node">
<title>Context::Asset</title>
<path fill="none" stroke="#000000" d="M1511,-629.5C1511,-629.5 1734.7246,-629.5 1734.7246,-629.5 1740.7246,-629.5 1746.7246,-635.5 1746.7246,-641.5 1746.7246,-641.5 1746.7246,-703.5 1746.7246,-703.5 1746.7246,-709.5 1740.7246,-715.5 1734.7246,-715.5 1734.7246,-715.5 1511,-715.5 1511,-715.5 1505,-715.5 1499,-709.5 1499,-703.5 1499,-703.5 1499,-641.5 1499,-641.5 1499,-635.5 1505,-629.5 1511,-629.5"/>
<text text-anchor="middle" x="1622.8623" y="-700.3" font-family="Times,serif" font-size="14.00" fill="#000000">Context::Asset</text>
<polyline fill="none" stroke="#000000" points="1499,-693.5 1746.7246,-693.5 "/>
<text text-anchor="start" x="1507" y="-678.3" font-family="Times,serif" font-size="14.00" fill="#000000">id :uuid</text>
<text text-anchor="start" x="1507" y="-664.3" font-family="Times,serif" font-size="14.00" fill="#000000">uri :character varying</text>
<text text-anchor="start" x="1507" y="-650.3" font-family="Times,serif" font-size="14.00" fill="#000000">created_at :timestamp without time zone</text>
<text text-anchor="start" x="1507" y="-636.3" font-family="Times,serif" font-size="14.00" fill="#000000">updated_at :timestamp without time zone</text>
</g>
<!-- Context::Asset&#45;&gt;Context::UsageRole -->
<g id="edge7" class="edge">
<title>Context::Asset&#45;&gt;Context::UsageRole</title>
<path fill="none" stroke="#d5afe9" d="M1599.3813,-621.8812C1580.145,-580.4126 1552.7698,-521.399 1531.7563,-476.0993"/>
<ellipse fill="none" stroke="#d5afe9" cx="1601.1698" cy="-625.7368" rx="4" ry="4"/>
<polygon fill="#d5afe9" stroke="#d5afe9" points="1531.7166,-476.0137 1531.5907,-465.0486 1529.6126,-471.478 1527.5085,-466.9422 1527.5085,-466.9422 1527.5085,-466.9422 1529.6126,-471.478 1523.4263,-468.8359 1531.7166,-476.0137 1531.7166,-476.0137"/>
<text text-anchor="middle" x="1594.9072" y="-536.8" font-family="Times,serif" font-size="14.00" fill="#000000">usage_roles</text>
</g>
<!-- Context::Place -->
<g id="node7" class="node">
<title>Context::Place</title>
<path fill="none" stroke="#000000" d="M905,-836.5C905,-836.5 1128.7246,-836.5 1128.7246,-836.5 1134.7246,-836.5 1140.7246,-842.5 1140.7246,-848.5 1140.7246,-848.5 1140.7246,-938.5 1140.7246,-938.5 1140.7246,-944.5 1134.7246,-950.5 1128.7246,-950.5 1128.7246,-950.5 905,-950.5 905,-950.5 899,-950.5 893,-944.5 893,-938.5 893,-938.5 893,-848.5 893,-848.5 893,-842.5 899,-836.5 905,-836.5"/>
<text text-anchor="middle" x="1016.8623" y="-935.3" font-family="Times,serif" font-size="14.00" fill="#000000">Context::Place</text>
<polyline fill="none" stroke="#000000" points="893,-928.5 1140.7246,-928.5 "/>
<text text-anchor="start" x="901" y="-913.3" font-family="Times,serif" font-size="14.00" fill="#000000">id :uuid</text>
<text text-anchor="start" x="901" y="-899.3" font-family="Times,serif" font-size="14.00" fill="#000000">name :character varying</text>
<text text-anchor="start" x="901" y="-885.3" font-family="Times,serif" font-size="14.00" fill="#000000">address :text</text>
<text text-anchor="start" x="901" y="-871.3" font-family="Times,serif" font-size="14.00" fill="#000000">description :text</text>
<text text-anchor="start" x="901" y="-857.3" font-family="Times,serif" font-size="14.00" fill="#000000">created_at :timestamp without time zone</text>
<text text-anchor="start" x="901" y="-843.3" font-family="Times,serif" font-size="14.00" fill="#000000">updated_at :timestamp without time zone</text>
</g>
<!-- Context::Place&#45;&gt;Context::Activity -->
<g id="edge8" class="edge">
<title>Context::Place&#45;&gt;Context::Activity</title>
<path fill="none" stroke="#2375c1" d="M1016.8623,-828.2909C1016.8623,-815.8721 1016.8623,-802.5303 1016.8623,-789.0682"/>
<ellipse fill="none" stroke="#2375c1" cx="1016.8624" cy="-832.2996" rx="4" ry="4"/>
<polygon fill="#2375c1" stroke="#2375c1" points="1016.8624,-788.7633 1021.3623,-778.7633 1016.8624,-783.7633 1016.8623,-778.7633 1016.8623,-778.7633 1016.8623,-778.7633 1016.8624,-783.7633 1012.3623,-778.7634 1016.8624,-788.7633 1016.8624,-788.7633"/>
<text text-anchor="middle" x="1042.1313" y="-799.8" font-family="Times,serif" font-size="14.00" fill="#000000">activities</text>
</g>
<!-- System::Capability -->
<g id="node9" class="node">
<title>System::Capability</title>
<path fill="none" stroke="#000000" d="M12,-.5C12,-.5 235.7246,-.5 235.7246,-.5 241.7246,-.5 247.7246,-6.5 247.7246,-12.5 247.7246,-12.5 247.7246,-102.5 247.7246,-102.5 247.7246,-108.5 241.7246,-114.5 235.7246,-114.5 235.7246,-114.5 12,-114.5 12,-114.5 6,-114.5 0,-108.5 0,-102.5 0,-102.5 0,-12.5 0,-12.5 0,-6.5 6,-.5 12,-.5"/>
<text text-anchor="middle" x="123.8623" y="-99.3" font-family="Times,serif" font-size="14.00" fill="#000000">System::Capability</text>
<polyline fill="none" stroke="#000000" points="0,-92.5 247.7246,-92.5 "/>
<text text-anchor="start" x="8" y="-77.3" font-family="Times,serif" font-size="14.00" fill="#000000">id :uuid</text>
<text text-anchor="start" x="8" y="-63.3" font-family="Times,serif" font-size="14.00" fill="#000000">entity_id :uuid</text>
<text text-anchor="start" x="8" y="-49.3" font-family="Times,serif" font-size="14.00" fill="#000000">entity_type :character varying</text>
<text text-anchor="start" x="8" y="-35.3" font-family="Times,serif" font-size="14.00" fill="#000000">role_id :uuid</text>
<text text-anchor="start" x="8" y="-21.3" font-family="Times,serif" font-size="14.00" fill="#000000">created_at :timestamp without time zone</text>
<text text-anchor="start" x="8" y="-7.3" font-family="Times,serif" font-size="14.00" fill="#000000">updated_at :timestamp without time zone</text>
</g>
<!-- System::Client -->
<g id="node10" class="node">
<title>System::Client</title>
<path fill="none" stroke="#000000" d="M1171,-829.5C1171,-829.5 1394.7246,-829.5 1394.7246,-829.5 1400.7246,-829.5 1406.7246,-835.5 1406.7246,-841.5 1406.7246,-841.5 1406.7246,-945.5 1406.7246,-945.5 1406.7246,-951.5 1400.7246,-957.5 1394.7246,-957.5 1394.7246,-957.5 1171,-957.5 1171,-957.5 1165,-957.5 1159,-951.5 1159,-945.5 1159,-945.5 1159,-841.5 1159,-841.5 1159,-835.5 1165,-829.5 1171,-829.5"/>
<text text-anchor="middle" x="1282.8623" y="-942.3" font-family="Times,serif" font-size="14.00" fill="#000000">System::Client</text>
<polyline fill="none" stroke="#000000" points="1159,-935.5 1406.7246,-935.5 "/>
<text text-anchor="start" x="1167" y="-920.3" font-family="Times,serif" font-size="14.00" fill="#000000">icon_url :character varying</text>
<text text-anchor="start" x="1167" y="-906.3" font-family="Times,serif" font-size="14.00" fill="#000000">name :character varying</text>
<text text-anchor="start" x="1167" y="-892.3" font-family="Times,serif" font-size="14.00" fill="#000000">launch_url :character varying</text>
<text text-anchor="start" x="1167" y="-878.3" font-family="Times,serif" font-size="14.00" fill="#000000">id :uuid</text>
<text text-anchor="start" x="1167" y="-864.3" font-family="Times,serif" font-size="14.00" fill="#000000">available :boolean</text>
<text text-anchor="start" x="1167" y="-850.3" font-family="Times,serif" font-size="14.00" fill="#000000">created_at :timestamp without time zone</text>
<text text-anchor="start" x="1167" y="-836.3" font-family="Times,serif" font-size="14.00" fill="#000000">updated_at :timestamp without time zone</text>
</g>
<!-- System::Group -->
<g id="node11" class="node">
<title>System::Group</title>
<path fill="none" stroke="#000000" d="M164,-152.5C164,-152.5 387.7246,-152.5 387.7246,-152.5 393.7246,-152.5 399.7246,-158.5 399.7246,-164.5 399.7246,-164.5 399.7246,-240.5 399.7246,-240.5 399.7246,-246.5 393.7246,-252.5 387.7246,-252.5 387.7246,-252.5 164,-252.5 164,-252.5 158,-252.5 152,-246.5 152,-240.5 152,-240.5 152,-164.5 152,-164.5 152,-158.5 158,-152.5 164,-152.5"/>
<text text-anchor="middle" x="275.8623" y="-237.3" font-family="Times,serif" font-size="14.00" fill="#000000">System::Group</text>
<polyline fill="none" stroke="#000000" points="152,-230.5 399.7246,-230.5 "/>
<text text-anchor="start" x="160" y="-215.3" font-family="Times,serif" font-size="14.00" fill="#000000">id :uuid</text>
<text text-anchor="start" x="160" y="-201.3" font-family="Times,serif" font-size="14.00" fill="#000000">name :character varying</text>
<text text-anchor="start" x="160" y="-187.3" font-family="Times,serif" font-size="14.00" fill="#000000">description :text</text>
<text text-anchor="start" x="160" y="-173.3" font-family="Times,serif" font-size="14.00" fill="#000000">created_at :timestamp without time zone</text>
<text text-anchor="start" x="160" y="-159.3" font-family="Times,serif" font-size="14.00" fill="#000000">updated_at :timestamp without time zone</text>
</g>
<!-- System::Group&#45;&gt;System::Capability -->
<g id="edge11" class="edge">
<title>System::Group&#45;&gt;System::Capability</title>
<path fill="none" stroke="#61dade" d="M217.1141,-146.4573C208.5777,-138.314 199.7347,-129.8783 191.0475,-121.5911"/>
<ellipse fill="none" stroke="#61dade" cx="220.2324" cy="-149.432" rx="4" ry="4"/>
<polygon fill="#61dade" stroke="#61dade" points="191.0327,-121.577 186.9031,-111.4184 187.4148,-118.1257 183.7969,-114.6745 183.7969,-114.6745 183.7969,-114.6745 187.4148,-118.1257 180.6908,-117.9306 191.0327,-121.577 191.0327,-121.577"/>
</g>
<!-- System::Member -->
<g id="node15" class="node">
<title>System::Member</title>
<path fill="none" stroke="#000000" d="M297,-7.5C297,-7.5 520.7246,-7.5 520.7246,-7.5 526.7246,-7.5 532.7246,-13.5 532.7246,-19.5 532.7246,-19.5 532.7246,-95.5 532.7246,-95.5 532.7246,-101.5 526.7246,-107.5 520.7246,-107.5 520.7246,-107.5 297,-107.5 297,-107.5 291,-107.5 285,-101.5 285,-95.5 285,-95.5 285,-19.5 285,-19.5 285,-13.5 291,-7.5 297,-7.5"/>
<text text-anchor="middle" x="408.8623" y="-92.3" font-family="Times,serif" font-size="14.00" fill="#000000">System::Member</text>
<polyline fill="none" stroke="#000000" points="285,-85.5 532.7246,-85.5 "/>
<text text-anchor="start" x="293" y="-70.3" font-family="Times,serif" font-size="14.00" fill="#000000">id :uuid</text>
<text text-anchor="start" x="293" y="-56.3" font-family="Times,serif" font-size="14.00" fill="#000000">group_id :uuid</text>
<text text-anchor="start" x="293" y="-42.3" font-family="Times,serif" font-size="14.00" fill="#000000">person_id :uuid</text>
<text text-anchor="start" x="293" y="-28.3" font-family="Times,serif" font-size="14.00" fill="#000000">created_at :timestamp without time zone</text>
<text text-anchor="start" x="293" y="-14.3" font-family="Times,serif" font-size="14.00" fill="#000000">updated_at :timestamp without time zone</text>
</g>
<!-- System::Group&#45;&gt;System::Member -->
<g id="edge9" class="edge">
<title>System::Group&#45;&gt;System::Member</title>
<path fill="none" stroke="#11d208" d="M327.6404,-146.0502C336.8792,-135.9778 346.5172,-125.4702 355.7916,-115.3591"/>
<ellipse fill="none" stroke="#11d208" cx="324.7098" cy="-149.2452" rx="4" ry="4"/>
<polygon fill="#11d208" stroke="#11d208" points="356.0406,-115.0876 366.1164,-110.7599 359.4204,-111.4028 362.8002,-107.7181 362.8002,-107.7181 362.8002,-107.7181 359.4204,-111.4028 359.4839,-104.6763 356.0406,-115.0876 356.0406,-115.0876"/>
</g>
<!-- System::Person -->
<g id="node16" class="node">
<title>System::Person</title>
<path fill="none" stroke="#000000" d="M278,-594.5C278,-594.5 501.7246,-594.5 501.7246,-594.5 507.7246,-594.5 513.7246,-600.5 513.7246,-606.5 513.7246,-606.5 513.7246,-738.5 513.7246,-738.5 513.7246,-744.5 507.7246,-750.5 501.7246,-750.5 501.7246,-750.5 278,-750.5 278,-750.5 272,-750.5 266,-744.5 266,-738.5 266,-738.5 266,-606.5 266,-606.5 266,-600.5 272,-594.5 278,-594.5"/>
<text text-anchor="middle" x="389.8623" y="-735.3" font-family="Times,serif" font-size="14.00" fill="#000000">System::Person</text>
<polyline fill="none" stroke="#000000" points="266,-728.5 513.7246,-728.5 "/>
<text text-anchor="start" x="274" y="-713.3" font-family="Times,serif" font-size="14.00" fill="#000000">updated_at :timestamp without time zone</text>
<text text-anchor="start" x="274" y="-699.3" font-family="Times,serif" font-size="14.00" fill="#000000">name :character varying</text>
<text text-anchor="start" x="274" y="-685.3" font-family="Times,serif" font-size="14.00" fill="#000000">external_id :character varying</text>
<text text-anchor="start" x="274" y="-671.3" font-family="Times,serif" font-size="14.00" fill="#000000">salutation :character varying</text>
<text text-anchor="start" x="274" y="-657.3" font-family="Times,serif" font-size="14.00" fill="#000000">first_name :character varying</text>
<text text-anchor="start" x="274" y="-643.3" font-family="Times,serif" font-size="14.00" fill="#000000">middle_name :character varying</text>
<text text-anchor="start" x="274" y="-629.3" font-family="Times,serif" font-size="14.00" fill="#000000">last_name :character varying</text>
<text text-anchor="start" x="274" y="-615.3" font-family="Times,serif" font-size="14.00" fill="#000000">created_at :timestamp without time zone</text>
<text text-anchor="start" x="274" y="-601.3" font-family="Times,serif" font-size="14.00" fill="#000000">id :uuid</text>
</g>
<!-- System::Group&#45;&gt;System::Person -->
<g id="edge10" class="edge">
<title>System::Group&#45;&gt;System::Person</title>
<path fill="none" stroke="#b32437" d="M342.8622,-259.9754C354.0886,-272.9422 364.23,-287.5003 370.8623,-303 409.3749,-393.0037 408.7654,-506.8038 401.9658,-584.1663"/>
<polygon fill="#b32437" stroke="#b32437" points="342.8435,-259.9547 339.4865,-249.5153 339.4944,-256.2421 336.1452,-252.5295 336.1452,-252.5295 336.1452,-252.5295 339.4944,-256.2421 332.8039,-255.5438 342.8435,-259.9547 342.8435,-259.9547"/>
<polygon fill="#b32437" stroke="#b32437" points="401.9437,-584.4039 396.5349,-593.943 401.4796,-589.3823 401.0155,-594.3607 401.0155,-594.3607 401.0155,-594.3607 401.4796,-589.3823 405.496,-594.7784 401.9437,-584.4039 401.9437,-584.4039"/>
</g>
<!-- System::Identity -->
<g id="node12" class="node">
<title>System::Identity</title>
<path fill="none" stroke="#000000" d="M468,-303.5C468,-303.5 691.7246,-303.5 691.7246,-303.5 697.7246,-303.5 703.7246,-309.5 703.7246,-315.5 703.7246,-315.5 703.7246,-503.5 703.7246,-503.5 703.7246,-509.5 697.7246,-515.5 691.7246,-515.5 691.7246,-515.5 468,-515.5 468,-515.5 462,-515.5 456,-509.5 456,-503.5 456,-503.5 456,-315.5 456,-315.5 456,-309.5 462,-303.5 468,-303.5"/>
<text text-anchor="middle" x="579.8623" y="-500.3" font-family="Times,serif" font-size="14.00" fill="#000000">System::Identity</text>
<polyline fill="none" stroke="#000000" points="456,-493.5 703.7246,-493.5 "/>
<text text-anchor="start" x="464" y="-478.3" font-family="Times,serif" font-size="14.00" fill="#000000">updated_at :timestamp without time zone</text>
<text text-anchor="start" x="464" y="-464.3" font-family="Times,serif" font-size="14.00" fill="#000000">person_id :uuid</text>
<text text-anchor="start" x="464" y="-450.3" font-family="Times,serif" font-size="14.00" fill="#000000">identity_provider_id :uuid</text>
<text text-anchor="start" x="464" y="-436.3" font-family="Times,serif" font-size="14.00" fill="#000000">sub :character varying</text>
<text text-anchor="start" x="464" y="-422.3" font-family="Times,serif" font-size="14.00" fill="#000000">iat :character varying</text>
<text text-anchor="start" x="464" y="-408.3" font-family="Times,serif" font-size="14.00" fill="#000000">hd :character varying</text>
<text text-anchor="start" x="464" y="-394.3" font-family="Times,serif" font-size="14.00" fill="#000000">locale :character varying</text>
<text text-anchor="start" x="464" y="-380.3" font-family="Times,serif" font-size="14.00" fill="#000000">email :character varying</text>
<text text-anchor="start" x="464" y="-366.3" font-family="Times,serif" font-size="14.00" fill="#000000">jwt :json</text>
<text text-anchor="start" x="464" y="-352.3" font-family="Times,serif" font-size="14.00" fill="#000000">notify_via_email :boolean</text>
<text text-anchor="start" x="464" y="-338.3" font-family="Times,serif" font-size="14.00" fill="#000000">notify_via_sms :boolean</text>
<text text-anchor="start" x="464" y="-324.3" font-family="Times,serif" font-size="14.00" fill="#000000">created_at :timestamp without time zone</text>
<text text-anchor="start" x="464" y="-310.3" font-family="Times,serif" font-size="14.00" fill="#000000">id :uuid</text>
</g>
<!-- System::JsonWebToken -->
<g id="node14" class="node">
<title>System::JsonWebToken</title>
<path fill="none" stroke="#000000" d="M734,-152.5C734,-152.5 957.7246,-152.5 957.7246,-152.5 963.7246,-152.5 969.7246,-158.5 969.7246,-164.5 969.7246,-164.5 969.7246,-240.5 969.7246,-240.5 969.7246,-246.5 963.7246,-252.5 957.7246,-252.5 957.7246,-252.5 734,-252.5 734,-252.5 728,-252.5 722,-246.5 722,-240.5 722,-240.5 722,-164.5 722,-164.5 722,-158.5 728,-152.5 734,-152.5"/>
<text text-anchor="middle" x="845.8623" y="-237.3" font-family="Times,serif" font-size="14.00" fill="#000000">System::JsonWebToken</text>
<polyline fill="none" stroke="#000000" points="722,-230.5 969.7246,-230.5 "/>
<text text-anchor="start" x="730" y="-215.3" font-family="Times,serif" font-size="14.00" fill="#000000">id :uuid</text>
<text text-anchor="start" x="730" y="-201.3" font-family="Times,serif" font-size="14.00" fill="#000000">identity_id :uuid</text>
<text text-anchor="start" x="730" y="-187.3" font-family="Times,serif" font-size="14.00" fill="#000000">expires_at :timestamp without time zone</text>
<text text-anchor="start" x="730" y="-173.3" font-family="Times,serif" font-size="14.00" fill="#000000">created_at :timestamp without time zone</text>
<text text-anchor="start" x="730" y="-159.3" font-family="Times,serif" font-size="14.00" fill="#000000">updated_at :timestamp without time zone</text>
</g>
<!-- System::Identity&#45;&gt;System::JsonWebToken -->
<g id="edge13" class="edge">
<title>System::Identity&#45;&gt;System::JsonWebToken</title>
<path fill="none" stroke="#952045" d="M710.3925,-304.9231C711.2181,-304.2797 712.0415,-303.6386 712.8623,-303 731.4507,-288.5392 751.6602,-273.117 770.5821,-258.8058"/>
<ellipse fill="none" stroke="#952045" cx="707.1732" cy="-307.4372" rx="4" ry="4"/>
<polygon fill="#952045" stroke="#952045" points="770.6246,-258.7737 781.3164,-256.3372 774.6144,-255.7601 778.6042,-252.7464 778.6042,-252.7464 778.6042,-252.7464 774.6144,-255.7601 775.8919,-249.1556 770.6246,-258.7737 770.6246,-258.7737"/>
</g>
<!-- System::Session -->
<g id="node18" class="node">
<title>System::Session</title>
<path fill="none" stroke="#000000" d="M468,-152.5C468,-152.5 691.7246,-152.5 691.7246,-152.5 697.7246,-152.5 703.7246,-158.5 703.7246,-164.5 703.7246,-164.5 703.7246,-240.5 703.7246,-240.5 703.7246,-246.5 697.7246,-252.5 691.7246,-252.5 691.7246,-252.5 468,-252.5 468,-252.5 462,-252.5 456,-246.5 456,-240.5 456,-240.5 456,-164.5 456,-164.5 456,-158.5 462,-152.5 468,-152.5"/>
<text text-anchor="middle" x="579.8623" y="-237.3" font-family="Times,serif" font-size="14.00" fill="#000000">System::Session</text>
<polyline fill="none" stroke="#000000" points="456,-230.5 703.7246,-230.5 "/>
<text text-anchor="start" x="464" y="-215.3" font-family="Times,serif" font-size="14.00" fill="#000000">id :uuid</text>
<text text-anchor="start" x="464" y="-201.3" font-family="Times,serif" font-size="14.00" fill="#000000">identity_id :uuid</text>
<text text-anchor="start" x="464" y="-187.3" font-family="Times,serif" font-size="14.00" fill="#000000">expires_at :timestamp without time zone</text>
<text text-anchor="start" x="464" y="-173.3" font-family="Times,serif" font-size="14.00" fill="#000000">created_at :timestamp without time zone</text>
<text text-anchor="start" x="464" y="-159.3" font-family="Times,serif" font-size="14.00" fill="#000000">updated_at :timestamp without time zone</text>
</g>
<!-- System::Identity&#45;&gt;System::Session -->
<g id="edge12" class="edge">
<title>System::Identity&#45;&gt;System::Session</title>
<path fill="none" stroke="#c87e90" d="M579.8623,-295.0043C579.8623,-283.8757 579.8623,-272.9186 579.8623,-262.6554"/>
<ellipse fill="none" stroke="#c87e90" cx="579.8624" cy="-299.2713" rx="4" ry="4"/>
<polygon fill="#c87e90" stroke="#c87e90" points="579.8624,-262.643 584.3623,-252.6429 579.8624,-257.643 579.8623,-252.643 579.8623,-252.643 579.8623,-252.643 579.8624,-257.643 575.3623,-252.643 579.8624,-262.643 579.8624,-262.643"/>
</g>
<!-- System::IdentityProvider -->
<g id="node13" class="node">
<title>System::IdentityProvider</title>
<path fill="none" stroke="#000000" d="M544,-580.5C544,-580.5 767.7246,-580.5 767.7246,-580.5 773.7246,-580.5 779.7246,-586.5 779.7246,-592.5 779.7246,-592.5 779.7246,-752.5 779.7246,-752.5 779.7246,-758.5 773.7246,-764.5 767.7246,-764.5 767.7246,-764.5 544,-764.5 544,-764.5 538,-764.5 532,-758.5 532,-752.5 532,-752.5 532,-592.5 532,-592.5 532,-586.5 538,-580.5 544,-580.5"/>
<text text-anchor="middle" x="655.8623" y="-749.3" font-family="Times,serif" font-size="14.00" fill="#000000">System::IdentityProvider</text>
<polyline fill="none" stroke="#000000" points="532,-742.5 779.7246,-742.5 "/>
<text text-anchor="start" x="540" y="-727.3" font-family="Times,serif" font-size="14.00" fill="#000000">scopes :character varying</text>
<text text-anchor="start" x="540" y="-713.3" font-family="Times,serif" font-size="14.00" fill="#000000">name :character varying</text>
<text text-anchor="start" x="540" y="-699.3" font-family="Times,serif" font-size="14.00" fill="#000000">issuer :character varying</text>
<text text-anchor="start" x="540" y="-685.3" font-family="Times,serif" font-size="14.00" fill="#000000">client_id :character varying</text>
<text text-anchor="start" x="540" y="-671.3" font-family="Times,serif" font-size="14.00" fill="#000000">client_secret :character varying</text>
<text text-anchor="start" x="540" y="-657.3" font-family="Times,serif" font-size="14.00" fill="#000000">alternate_client_id :character varying</text>
<text text-anchor="start" x="540" y="-643.3" font-family="Times,serif" font-size="14.00" fill="#000000">configuration :json</text>
<text text-anchor="start" x="540" y="-629.3" font-family="Times,serif" font-size="14.00" fill="#000000">public_keys :json</text>
<text text-anchor="start" x="540" y="-615.3" font-family="Times,serif" font-size="14.00" fill="#000000">created_at :timestamp without time zone</text>
<text text-anchor="start" x="540" y="-601.3" font-family="Times,serif" font-size="14.00" fill="#000000">updated_at :timestamp without time zone</text>
<text text-anchor="start" x="540" y="-587.3" font-family="Times,serif" font-size="14.00" fill="#000000">id :uuid</text>
</g>
<!-- System::IdentityProvider&#45;&gt;System::Identity -->
<g id="edge14" class="edge">
<title>System::IdentityProvider&#45;&gt;System::Identity</title>
<path fill="none" stroke="#4e9fd6" d="M632.3038,-572.1917C628.9627,-559.2955 625.4412,-546.3049 621.8623,-534 621.0411,-531.1765 620.1961,-528.3216 619.3317,-525.4458"/>
<ellipse fill="none" stroke="#4e9fd6" cx="633.3653" cy="-576.3278" rx="4" ry="4"/>
<polygon fill="#4e9fd6" stroke="#4e9fd6" points="619.2463,-525.1658 620.6289,-514.2874 617.7857,-520.3839 616.3251,-515.6019 616.3251,-515.6019 616.3251,-515.6019 617.7857,-520.3839 612.0214,-516.9165 619.2463,-525.1658 619.2463,-525.1658"/>
</g>
<!-- System::Person&#45;&gt;Context::ActorRole -->
<g id="edge19" class="edge">
<title>System::Person&#45;&gt;Context::ActorRole</title>
<path fill="none" stroke="#e1e633" d="M483.7765,-589.6444C496.3992,-580.8421 509.5867,-572.6812 522.8623,-566 600.8609,-526.7455 634.8637,-555.2545 712.8623,-516 735.6059,-504.5538 758.0909,-488.7649 777.9202,-472.8477"/>
<ellipse fill="none" stroke="#e1e633" cx="480.4891" cy="-591.9829" rx="4" ry="4"/>
<polygon fill="#e1e633" stroke="#e1e633" points="777.9284,-472.841 788.5188,-469.9961 781.7996,-469.6765 785.6708,-466.512 785.6708,-466.512 785.6708,-466.512 781.7996,-469.6765 782.8227,-463.0279 777.9284,-472.841 777.9284,-472.841"/>
<text text-anchor="middle" x="694.959" y="-536.8" font-family="Times,serif" font-size="14.00" fill="#000000">actor_roles</text>
</g>
<!-- System::Person&#45;&gt;System::Capability -->
<g id="edge16" class="edge">
<title>System::Person&#45;&gt;System::Capability</title>
<path fill="none" stroke="#db7972" d="M258.0705,-634.1614C200.4027,-610.1035 138.3571,-572.6052 104.8623,-516 32.4685,-393.6565 70.2242,-219.1113 99.7491,-124.5727"/>
<ellipse fill="none" stroke="#db7972" cx="262.1053" cy="-635.809" rx="4" ry="4"/>
<polygon fill="#db7972" stroke="#db7972" points="99.8133,-124.3708 107.1354,-116.2076 101.3304,-119.6065 102.8475,-114.8422 102.8475,-114.8422 102.8475,-114.8422 101.3304,-119.6065 98.5596,-113.4768 99.8133,-124.3708 99.8133,-124.3708"/>
</g>
<!-- System::Person&#45;&gt;System::Identity -->
<g id="edge18" class="edge">
<title>System::Person&#45;&gt;System::Identity</title>
<path fill="none" stroke="#92e017" d="M451.2104,-587.5813C465.8955,-567.254 481.8126,-545.2214 497.2827,-523.8076"/>
<ellipse fill="none" stroke="#92e017" cx="448.6966" cy="-591.061" rx="4" ry="4"/>
<polygon fill="#92e017" stroke="#92e017" points="497.3303,-523.7416 506.8341,-518.2709 500.2583,-519.6886 503.1864,-515.6356 503.1864,-515.6356 503.1864,-515.6356 500.2583,-519.6886 499.5387,-513.0004 497.3303,-523.7416 497.3303,-523.7416"/>
</g>
<!-- System::Person&#45;&gt;System::Member -->
<g id="edge15" class="edge">
<title>System::Person&#45;&gt;System::Member</title>
<path fill="none" stroke="#cc6de2" d="M408.6442,-586.5052C410.8088,-573.6554 412.6665,-560.5211 413.8623,-548 428.6119,-393.5648 419.8378,-210.5431 413.5502,-117.8226"/>
<ellipse fill="none" stroke="#cc6de2" cx="407.9457" cy="-590.5204" rx="4" ry="4"/>
<polygon fill="#cc6de2" stroke="#cc6de2" points="413.5459,-117.7582 417.3442,-107.4712 413.2004,-112.7701 412.855,-107.7821 412.855,-107.7821 412.855,-107.7821 413.2004,-112.7701 408.3657,-108.093 413.5459,-117.7582 413.5459,-117.7582"/>
<text text-anchor="middle" x="459.1899" y="-273.8" font-family="Times,serif" font-size="14.00" fill="#000000">memberships</text>
</g>
<!-- System::Role -->
<g id="node17" class="node">
<title>System::Role</title>
<path fill="none" stroke="#000000" d="M126,-352.5C126,-352.5 349.7246,-352.5 349.7246,-352.5 355.7246,-352.5 361.7246,-358.5 361.7246,-364.5 361.7246,-364.5 361.7246,-454.5 361.7246,-454.5 361.7246,-460.5 355.7246,-466.5 349.7246,-466.5 349.7246,-466.5 126,-466.5 126,-466.5 120,-466.5 114,-460.5 114,-454.5 114,-454.5 114,-364.5 114,-364.5 114,-358.5 120,-352.5 126,-352.5"/>
<text text-anchor="middle" x="237.8623" y="-451.3" font-family="Times,serif" font-size="14.00" fill="#000000">System::Role</text>
<polyline fill="none" stroke="#000000" points="114,-444.5 361.7246,-444.5 "/>
<text text-anchor="start" x="122" y="-429.3" font-family="Times,serif" font-size="14.00" fill="#000000">id :uuid</text>
<text text-anchor="start" x="122" y="-415.3" font-family="Times,serif" font-size="14.00" fill="#000000">name :character varying</text>
<text text-anchor="start" x="122" y="-401.3" font-family="Times,serif" font-size="14.00" fill="#000000">code :character varying</text>
<text text-anchor="start" x="122" y="-387.3" font-family="Times,serif" font-size="14.00" fill="#000000">description :text</text>
<text text-anchor="start" x="122" y="-373.3" font-family="Times,serif" font-size="14.00" fill="#000000">created_at :timestamp without time zone</text>
<text text-anchor="start" x="122" y="-359.3" font-family="Times,serif" font-size="14.00" fill="#000000">updated_at :timestamp without time zone</text>
</g>
<!-- System::Person&#45;&gt;System::Role -->
<g id="edge17" class="edge">
<title>System::Person&#45;&gt;System::Role</title>
<path fill="none" stroke="#1b2f3e" d="M339.599,-585.5313C318.8311,-549.5973 295.1559,-508.633 275.8731,-475.2686"/>
<polygon fill="#1b2f3e" stroke="#1b2f3e" points="339.6649,-585.6454 340.7727,-596.5552 342.1669,-589.9744 344.6688,-594.3034 344.6688,-594.3034 344.6688,-594.3034 342.1669,-589.9744 348.5649,-592.0516 339.6649,-585.6454 339.6649,-585.6454"/>
<polygon fill="#1b2f3e" stroke="#1b2f3e" points="275.818,-475.1732 274.7102,-464.2634 273.316,-470.8442 270.814,-466.5152 270.814,-466.5152 270.814,-466.5152 273.316,-470.8442 266.9179,-468.767 275.818,-475.1732 275.818,-475.1732"/>
</g>
<!-- System::Role&#45;&gt;System::Capability -->
<g id="edge20" class="edge">
<title>System::Role&#45;&gt;System::Capability</title>
<path fill="none" stroke="#61dda4" d="M190.1174,-345.6117C172.2534,-318.4282 153.6863,-285.5287 142.8623,-253 129.1737,-211.8623 124.3953,-163.366 123.0531,-124.9667"/>
<ellipse fill="none" stroke="#61dda4" cx="192.4205" cy="-349.0674" rx="4" ry="4"/>
<polygon fill="#61dda4" stroke="#61dda4" points="123.0519,-124.9229 127.2699,-114.8007 122.9118,-119.9248 122.7717,-114.9268 122.7717,-114.9268 122.7717,-114.9268 122.9118,-119.9248 118.2734,-115.0529 123.0519,-124.9229 123.0519,-124.9229"/>
</g>
<!-- System::Role&#45;&gt;System::Group -->
<g id="edge21" class="edge">
<title>System::Role&#45;&gt;System::Group</title>
<path fill="none" stroke="#2ded9a" d="M250.201,-342.2867C254.9006,-316.6863 260.2227,-287.6947 264.7969,-262.7773"/>
<polygon fill="#2ded9a" stroke="#2ded9a" points="250.1522,-342.5527 243.9205,-351.5758 249.2494,-347.4706 248.3466,-352.3884 248.3466,-352.3884 248.3466,-352.3884 249.2494,-347.4706 252.7726,-353.2009 250.1522,-342.5527 250.1522,-342.5527"/>
<polygon fill="#2ded9a" stroke="#2ded9a" points="264.8357,-262.5653 271.0674,-253.5422 265.7386,-257.6475 266.6414,-252.7297 266.6414,-252.7297 266.6414,-252.7297 265.7386,-257.6475 262.2154,-251.9171 264.8357,-262.5653 264.8357,-262.5653"/>
</g>
</g>
</svg>
