<?xml version="1.0" encoding="UTF-8" standalone="no"?>
<!DOCTYPE svg PUBLIC "-//W3C//DTD SVG 1.1//EN"
 "http://www.w3.org/Graphics/SVG/1.1/DTD/svg11.dtd">
<!-- Generated by graphviz version 2.38.0 (20140413.2041)
 -->
<!-- Title: models_diagram Pages: 1 -->
<svg width="2392pt" height="898pt"
 viewBox="0.00 0.00 2391.72 898.00" xmlns="http://www.w3.org/2000/svg" xmlns:xlink="http://www.w3.org/1999/xlink">
<g id="graph0" class="graph" transform="scale(1 1) rotate(0) translate(4 894)">
<title>models_diagram</title>
<polygon fill="none" stroke="none" points="-4,4 -4,-894 2387.72,-894 2387.72,4 -4,4"/>
<!-- _diagram_info -->
<g id="node1" class="node"><title>_diagram_info</title>
<text text-anchor="start" x="110.175" y="-847.6" font-family="Times,serif" font-size="13.00">Models diagram</text>
<text text-anchor="start" x="110.175" y="-834.6" font-family="Times,serif" font-size="13.00">Date: Jun 17 2016 &#45; 12:53</text>
<text text-anchor="start" x="110.175" y="-821.6" font-family="Times,serif" font-size="13.00">Migration version: 20160616223349</text>
<text text-anchor="start" x="110.175" y="-808.6" font-family="Times,serif" font-size="13.00">Generated by RailRoady 1.4.2</text>
<text text-anchor="start" x="110.175" y="-795.6" font-family="Times,serif" font-size="13.00">http://railroady.prestonlee.com</text>
</g>
<!-- Ability -->
<g id="node2" class="node"><title>Ability</title>
<polygon fill="none" stroke="black" points="328.028,-803.5 328.028,-847.5 383.697,-847.5 383.697,-803.5 328.028,-803.5"/>
<text text-anchor="middle" x="355.862" y="-832.3" font-family="Times,serif" font-size="14.00">Ability</text>
<polyline fill="none" stroke="black" points="328.028,-825.5 383.697,-825.5 "/>
<text text-anchor="middle" x="355.862" y="-810.3" font-family="Times,serif" font-size="14.00"> </text>
</g>
<!-- Capability -->
<g id="node3" class="node"><title>Capability</title>
<path fill="none" stroke="black" d="M12,-187.5C12,-187.5 235.725,-187.5 235.725,-187.5 241.725,-187.5 247.725,-193.5 247.725,-199.5 247.725,-199.5 247.725,-289.5 247.725,-289.5 247.725,-295.5 241.725,-301.5 235.725,-301.5 235.725,-301.5 12,-301.5 12,-301.5 6,-301.5 0,-295.5 0,-289.5 0,-289.5 0,-199.5 0,-199.5 0,-193.5 6,-187.5 12,-187.5"/>
<text text-anchor="middle" x="123.862" y="-286.3" font-family="Times,serif" font-size="14.00">Capability</text>
<polyline fill="none" stroke="black" points="0,-279.5 247.725,-279.5 "/>
<text text-anchor="start" x="8" y="-264.3" font-family="Times,serif" font-size="14.00">id :uuid</text>
<text text-anchor="start" x="8" y="-250.3" font-family="Times,serif" font-size="14.00">entity_id :uuid</text>
<text text-anchor="start" x="8" y="-236.3" font-family="Times,serif" font-size="14.00">entity_type :character varying</text>
<text text-anchor="start" x="8" y="-222.3" font-family="Times,serif" font-size="14.00">role_id :uuid</text>
<text text-anchor="start" x="8" y="-208.3" font-family="Times,serif" font-size="14.00">created_at :timestamp without time zone</text>
<text text-anchor="start" x="8" y="-194.3" font-family="Times,serif" font-size="14.00">updated_at :timestamp without time zone</text>
</g>
<!-- Client -->
<g id="node4" class="node"><title>Client</title>
<path fill="none" stroke="black" d="M680,-761.5C680,-761.5 903.725,-761.5 903.725,-761.5 909.725,-761.5 915.725,-767.5 915.725,-773.5 915.725,-773.5 915.725,-877.5 915.725,-877.5 915.725,-883.5 909.725,-889.5 903.725,-889.5 903.725,-889.5 680,-889.5 680,-889.5 674,-889.5 668,-883.5 668,-877.5 668,-877.5 668,-773.5 668,-773.5 668,-767.5 674,-761.5 680,-761.5"/>
<text text-anchor="middle" x="791.862" y="-874.3" font-family="Times,serif" font-size="14.00">Client</text>
<polyline fill="none" stroke="black" points="668,-867.5 915.725,-867.5 "/>
<text text-anchor="start" x="676" y="-852.3" font-family="Times,serif" font-size="14.00">icon_url :character varying</text>
<text text-anchor="start" x="676" y="-838.3" font-family="Times,serif" font-size="14.00">name :character varying</text>
<text text-anchor="start" x="676" y="-824.3" font-family="Times,serif" font-size="14.00">launch_url :character varying</text>
<text text-anchor="start" x="676" y="-810.3" font-family="Times,serif" font-size="14.00">id :uuid</text>
<text text-anchor="start" x="676" y="-796.3" font-family="Times,serif" font-size="14.00">available :boolean</text>
<text text-anchor="start" x="676" y="-782.3" font-family="Times,serif" font-size="14.00">created_at :timestamp without time zone</text>
<text text-anchor="start" x="676" y="-768.3" font-family="Times,serif" font-size="14.00">updated_at :timestamp without time zone</text>
</g>
<!-- Context -->
<g id="node5" class="node"><title>Context</title>
<path fill="none" stroke="black" d="M1034,-443.5C1034,-443.5 1257.72,-443.5 1257.72,-443.5 1263.72,-443.5 1269.72,-449.5 1269.72,-455.5 1269.72,-455.5 1269.72,-531.5 1269.72,-531.5 1269.72,-537.5 1263.72,-543.5 1257.72,-543.5 1257.72,-543.5 1034,-543.5 1034,-543.5 1028,-543.5 1022,-537.5 1022,-531.5 1022,-531.5 1022,-455.5 1022,-455.5 1022,-449.5 1028,-443.5 1034,-443.5"/>
<text text-anchor="middle" x="1145.86" y="-528.3" font-family="Times,serif" font-size="14.00">Context</text>
<polyline fill="none" stroke="black" points="1022,-521.5 1269.72,-521.5 "/>
<text text-anchor="start" x="1030" y="-506.3" font-family="Times,serif" font-size="14.00">id :uuid</text>
<text text-anchor="start" x="1030" y="-492.3" font-family="Times,serif" font-size="14.00">name :character varying</text>
<text text-anchor="start" x="1030" y="-478.3" font-family="Times,serif" font-size="14.00">purpose :character varying</text>
<text text-anchor="start" x="1030" y="-464.3" font-family="Times,serif" font-size="14.00">created_at :timestamp without time zone</text>
<text text-anchor="start" x="1030" y="-450.3" font-family="Times,serif" font-size="14.00">updated_at :timestamp without time zone</text>
</g>
<!-- Focus -->
<g id="node6" class="node"><title>Focus</title>
<path fill="none" stroke="black" d="M1350,-187.5C1350,-187.5 1573.72,-187.5 1573.72,-187.5 1579.72,-187.5 1585.72,-193.5 1585.72,-199.5 1585.72,-199.5 1585.72,-289.5 1585.72,-289.5 1585.72,-295.5 1579.72,-301.5 1573.72,-301.5 1573.72,-301.5 1350,-301.5 1350,-301.5 1344,-301.5 1338,-295.5 1338,-289.5 1338,-289.5 1338,-199.5 1338,-199.5 1338,-193.5 1344,-187.5 1350,-187.5"/>
<text text-anchor="middle" x="1461.86" y="-286.3" font-family="Times,serif" font-size="14.00">Focus</text>
<polyline fill="none" stroke="black" points="1338,-279.5 1585.72,-279.5 "/>
<text text-anchor="start" x="1346" y="-264.3" font-family="Times,serif" font-size="14.00">id :uuid</text>
<text text-anchor="start" x="1346" y="-250.3" font-family="Times,serif" font-size="14.00">context_id :uuid</text>
<text text-anchor="start" x="1346" y="-236.3" font-family="Times,serif" font-size="14.00">user_id :uuid</text>
<text text-anchor="start" x="1346" y="-222.3" font-family="Times,serif" font-size="14.00">snomedct_concept_id :uuid</text>
<text text-anchor="start" x="1346" y="-208.3" font-family="Times,serif" font-size="14.00">created_at :timestamp without time zone</text>
<text text-anchor="start" x="1346" y="-194.3" font-family="Times,serif" font-size="14.00">updated_at :timestamp without time zone</text>
</g>
<!-- Context&#45;&gt;Focus -->
<g id="edge2" class="edge"><title>Context&#45;&gt;Focus</title>
<path fill="none" stroke="#c12999" d="M1216.66,-438.087C1250.66,-411.864 1291.96,-379.902 1328.86,-351 1346.57,-337.132 1365.54,-322.157 1383.44,-307.968"/>
<ellipse fill="none" stroke="#c12999" cx="1213.12" cy="-440.811" rx="4.00002" ry="4.00002"/>
<polygon fill="#c12999" stroke="#c12999" points="1383.75,-307.724 1394.38,-305.036 1387.67,-304.617 1391.59,-301.51 1391.59,-301.51 1391.59,-301.51 1387.67,-304.617 1388.79,-297.984 1383.75,-307.724 1383.75,-307.724"/>
</g>
<!-- Participant -->
<g id="node13" class="node"><title>Participant</title>
<path fill="none" stroke="black" d="M818,-194.5C818,-194.5 1041.72,-194.5 1041.72,-194.5 1047.72,-194.5 1053.72,-200.5 1053.72,-206.5 1053.72,-206.5 1053.72,-282.5 1053.72,-282.5 1053.72,-288.5 1047.72,-294.5 1041.72,-294.5 1041.72,-294.5 818,-294.5 818,-294.5 812,-294.5 806,-288.5 806,-282.5 806,-282.5 806,-206.5 806,-206.5 806,-200.5 812,-194.5 818,-194.5"/>
<text text-anchor="middle" x="929.862" y="-279.3" font-family="Times,serif" font-size="14.00">Participant</text>
<polyline fill="none" stroke="black" points="806,-272.5 1053.72,-272.5 "/>
<text text-anchor="start" x="814" y="-257.3" font-family="Times,serif" font-size="14.00">id :uuid</text>
<text text-anchor="start" x="814" y="-243.3" font-family="Times,serif" font-size="14.00">context_id :uuid</text>
<text text-anchor="start" x="814" y="-229.3" font-family="Times,serif" font-size="14.00">user_id :uuid</text>
<text text-anchor="start" x="814" y="-215.3" font-family="Times,serif" font-size="14.00">created_at :timestamp without time zone</text>
<text text-anchor="start" x="814" y="-201.3" font-family="Times,serif" font-size="14.00">updated_at :timestamp without time zone</text>
</g>
<!-- Context&#45;&gt;Participant -->
<g id="edge1" class="edge"><title>Context&#45;&gt;Participant</title>
<path fill="none" stroke="#4bfe4a" d="M1097.51,-437.208C1062.33,-396.985 1014.86,-342.698 979.412,-302.161"/>
<ellipse fill="none" stroke="#4bfe4a" cx="1100.3" cy="-440.394" rx="4.00002" ry="4.00002"/>
<polygon fill="#4bfe4a" stroke="#4bfe4a" points="979.297,-302.029 976.101,-291.539 976.005,-298.265 972.714,-294.502 972.714,-294.502 972.714,-294.502 976.005,-298.265 969.326,-297.464 979.297,-302.029 979.297,-302.029"/>
</g>
<!-- Group -->
<g id="node7" class="node"><title>Group</title>
<path fill="none" stroke="black" d="M309,-623.5C309,-623.5 532.725,-623.5 532.725,-623.5 538.725,-623.5 544.725,-629.5 544.725,-635.5 544.725,-635.5 544.725,-711.5 544.725,-711.5 544.725,-717.5 538.725,-723.5 532.725,-723.5 532.725,-723.5 309,-723.5 309,-723.5 303,-723.5 297,-717.5 297,-711.5 297,-711.5 297,-635.5 297,-635.5 297,-629.5 303,-623.5 309,-623.5"/>
<text text-anchor="middle" x="420.862" y="-708.3" font-family="Times,serif" font-size="14.00">Group</text>
<polyline fill="none" stroke="black" points="297,-701.5 544.725,-701.5 "/>
<text text-anchor="start" x="305" y="-686.3" font-family="Times,serif" font-size="14.00">id :uuid</text>
<text text-anchor="start" x="305" y="-672.3" font-family="Times,serif" font-size="14.00">name :character varying</text>
<text text-anchor="start" x="305" y="-658.3" font-family="Times,serif" font-size="14.00">description :text</text>
<text text-anchor="start" x="305" y="-644.3" font-family="Times,serif" font-size="14.00">created_at :timestamp without time zone</text>
<text text-anchor="start" x="305" y="-630.3" font-family="Times,serif" font-size="14.00">updated_at :timestamp without time zone</text>
</g>
<!-- Group&#45;&gt;Capability -->
<g id="edge5" class="edge"><title>Group&#45;&gt;Capability</title>
<path fill="none" stroke="#09b9db" d="M381.818,-616.366C326.784,-537.243 226.654,-393.285 168.66,-309.907"/>
<ellipse fill="none" stroke="#09b9db" cx="384.218" cy="-619.817" rx="4.00002" ry="4.00002"/>
<polygon fill="#09b9db" stroke="#09b9db" points="168.548,-309.745 166.532,-298.966 165.693,-305.64 162.838,-301.536 162.838,-301.536 162.838,-301.536 165.693,-305.64 159.144,-304.105 168.548,-309.745 168.548,-309.745"/>
</g>
<!-- Member -->
<g id="node12" class="node"><title>Member</title>
<path fill="none" stroke="black" d="M278,-194.5C278,-194.5 501.725,-194.5 501.725,-194.5 507.725,-194.5 513.725,-200.5 513.725,-206.5 513.725,-206.5 513.725,-282.5 513.725,-282.5 513.725,-288.5 507.725,-294.5 501.725,-294.5 501.725,-294.5 278,-294.5 278,-294.5 272,-294.5 266,-288.5 266,-282.5 266,-282.5 266,-206.5 266,-206.5 266,-200.5 272,-194.5 278,-194.5"/>
<text text-anchor="middle" x="389.862" y="-279.3" font-family="Times,serif" font-size="14.00">Member</text>
<polyline fill="none" stroke="black" points="266,-272.5 513.725,-272.5 "/>
<text text-anchor="start" x="274" y="-257.3" font-family="Times,serif" font-size="14.00">id :uuid</text>
<text text-anchor="start" x="274" y="-243.3" font-family="Times,serif" font-size="14.00">group_id :uuid</text>
<text text-anchor="start" x="274" y="-229.3" font-family="Times,serif" font-size="14.00">user_id :uuid</text>
<text text-anchor="start" x="274" y="-215.3" font-family="Times,serif" font-size="14.00">created_at :timestamp without time zone</text>
<text text-anchor="start" x="274" y="-201.3" font-family="Times,serif" font-size="14.00">updated_at :timestamp without time zone</text>
</g>
<!-- Group&#45;&gt;Member -->
<g id="edge3" class="edge"><title>Group&#45;&gt;Member</title>
<path fill="none" stroke="#3f7f65" d="M416.681,-614.903C410.798,-533.869 400.132,-386.962 394.178,-304.942"/>
<ellipse fill="none" stroke="#3f7f65" cx="416.986" cy="-619.111" rx="4" ry="4"/>
<polygon fill="#3f7f65" stroke="#3f7f65" points="394.164,-304.758 397.928,-294.458 393.802,-299.771 393.44,-294.784 393.44,-294.784 393.44,-294.784 393.802,-299.771 388.952,-295.11 394.164,-304.758 394.164,-304.758"/>
</g>
<!-- User -->
<g id="node20" class="node"><title>User</title>
<path fill="none" stroke="black" d="M548,-415.5C548,-415.5 771.725,-415.5 771.725,-415.5 777.725,-415.5 783.725,-421.5 783.725,-427.5 783.725,-427.5 783.725,-559.5 783.725,-559.5 783.725,-565.5 777.725,-571.5 771.725,-571.5 771.725,-571.5 548,-571.5 548,-571.5 542,-571.5 536,-565.5 536,-559.5 536,-559.5 536,-427.5 536,-427.5 536,-421.5 542,-415.5 548,-415.5"/>
<text text-anchor="middle" x="659.862" y="-556.3" font-family="Times,serif" font-size="14.00">User</text>
<polyline fill="none" stroke="black" points="536,-549.5 783.725,-549.5 "/>
<text text-anchor="start" x="544" y="-534.3" font-family="Times,serif" font-size="14.00">updated_at :timestamp without time zone</text>
<text text-anchor="start" x="544" y="-520.3" font-family="Times,serif" font-size="14.00">name :character varying</text>
<text text-anchor="start" x="544" y="-506.3" font-family="Times,serif" font-size="14.00">external_id :character varying</text>
<text text-anchor="start" x="544" y="-492.3" font-family="Times,serif" font-size="14.00">salutation :character varying</text>
<text text-anchor="start" x="544" y="-478.3" font-family="Times,serif" font-size="14.00">first_name :character varying</text>
<text text-anchor="start" x="544" y="-464.3" font-family="Times,serif" font-size="14.00">middle_name :character varying</text>
<text text-anchor="start" x="544" y="-450.3" font-family="Times,serif" font-size="14.00">last_name :character varying</text>
<text text-anchor="start" x="544" y="-436.3" font-family="Times,serif" font-size="14.00">created_at :timestamp without time zone</text>
<text text-anchor="start" x="544" y="-422.3" font-family="Times,serif" font-size="14.00">id :uuid</text>
</g>
<!-- Group&#45;&gt;User -->
<g id="edge4" class="edge"><title>Group&#45;&gt;User</title>
<path fill="none" stroke="#526d88" d="M495.016,-617.273C511.882,-604.711 530.163,-591.096 548.206,-577.659"/>
<polygon fill="#526d88" stroke="#526d88" points="494.823,-617.416 484.115,-619.78 490.813,-620.403 486.803,-623.39 486.803,-623.39 486.803,-623.39 490.813,-620.403 489.491,-626.999 494.823,-617.416 494.823,-617.416"/>
<polygon fill="#526d88" stroke="#526d88" points="548.452,-577.475 559.16,-575.111 552.462,-574.488 556.472,-571.502 556.472,-571.502 556.472,-571.502 552.462,-574.488 553.784,-567.893 548.452,-577.475 548.452,-577.475"/>
</g>
<!-- Identity -->
<g id="node8" class="node"><title>Identity</title>
<path fill="none" stroke="black" d="M1616,-138.5C1616,-138.5 1839.72,-138.5 1839.72,-138.5 1845.72,-138.5 1851.72,-144.5 1851.72,-150.5 1851.72,-150.5 1851.72,-338.5 1851.72,-338.5 1851.72,-344.5 1845.72,-350.5 1839.72,-350.5 1839.72,-350.5 1616,-350.5 1616,-350.5 1610,-350.5 1604,-344.5 1604,-338.5 1604,-338.5 1604,-150.5 1604,-150.5 1604,-144.5 1610,-138.5 1616,-138.5"/>
<text text-anchor="middle" x="1727.86" y="-335.3" font-family="Times,serif" font-size="14.00">Identity</text>
<polyline fill="none" stroke="black" points="1604,-328.5 1851.72,-328.5 "/>
<text text-anchor="start" x="1612" y="-313.3" font-family="Times,serif" font-size="14.00">updated_at :timestamp without time zone</text>
<text text-anchor="start" x="1612" y="-299.3" font-family="Times,serif" font-size="14.00">user_id :uuid</text>
<text text-anchor="start" x="1612" y="-285.3" font-family="Times,serif" font-size="14.00">provider_id :uuid</text>
<text text-anchor="start" x="1612" y="-271.3" font-family="Times,serif" font-size="14.00">sub :character varying</text>
<text text-anchor="start" x="1612" y="-257.3" font-family="Times,serif" font-size="14.00">iat :character varying</text>
<text text-anchor="start" x="1612" y="-243.3" font-family="Times,serif" font-size="14.00">hd :character varying</text>
<text text-anchor="start" x="1612" y="-229.3" font-family="Times,serif" font-size="14.00">locale :character varying</text>
<text text-anchor="start" x="1612" y="-215.3" font-family="Times,serif" font-size="14.00">email :character varying</text>
<text text-anchor="start" x="1612" y="-201.3" font-family="Times,serif" font-size="14.00">jwt :json</text>
<text text-anchor="start" x="1612" y="-187.3" font-family="Times,serif" font-size="14.00">notify_via_email :boolean</text>
<text text-anchor="start" x="1612" y="-173.3" font-family="Times,serif" font-size="14.00">notify_via_sms :boolean</text>
<text text-anchor="start" x="1612" y="-159.3" font-family="Times,serif" font-size="14.00">created_at :timestamp without time zone</text>
<text text-anchor="start" x="1612" y="-145.3" font-family="Times,serif" font-size="14.00">id :uuid</text>
</g>
<!-- Session -->
<g id="node17" class="node"><title>Session</title>
<path fill="none" stroke="black" d="M1616,-0.5C1616,-0.5 1839.72,-0.5 1839.72,-0.5 1845.72,-0.5 1851.72,-6.5 1851.72,-12.5 1851.72,-12.5 1851.72,-88.5 1851.72,-88.5 1851.72,-94.5 1845.72,-100.5 1839.72,-100.5 1839.72,-100.5 1616,-100.5 1616,-100.5 1610,-100.5 1604,-94.5 1604,-88.5 1604,-88.5 1604,-12.5 1604,-12.5 1604,-6.5 1610,-0.5 1616,-0.5"/>
<text text-anchor="middle" x="1727.86" y="-85.3" font-family="Times,serif" font-size="14.00">Session</text>
<polyline fill="none" stroke="black" points="1604,-78.5 1851.72,-78.5 "/>
<text text-anchor="start" x="1612" y="-63.3" font-family="Times,serif" font-size="14.00">id :uuid</text>
<text text-anchor="start" x="1612" y="-49.3" font-family="Times,serif" font-size="14.00">identity_id :uuid</text>
<text text-anchor="start" x="1612" y="-35.3" font-family="Times,serif" font-size="14.00">expires_at :timestamp without time zone</text>
<text text-anchor="start" x="1612" y="-21.3" font-family="Times,serif" font-size="14.00">created_at :timestamp without time zone</text>
<text text-anchor="start" x="1612" y="-7.3" font-family="Times,serif" font-size="14.00">updated_at :timestamp without time zone</text>
</g>
<!-- Identity&#45;&gt;Session -->
<g id="edge6" class="edge"><title>Identity&#45;&gt;Session</title>
<path fill="none" stroke="#d74919" d="M1727.86,-129.981C1727.86,-123.43 1727.86,-116.992 1727.86,-110.794"/>
<ellipse fill="none" stroke="#d74919" cx="1727.86" cy="-134.232" rx="4" ry="4"/>
<polygon fill="#d74919" stroke="#d74919" points="1727.86,-110.613 1732.36,-100.613 1727.86,-105.613 1727.86,-100.613 1727.86,-100.613 1727.86,-100.613 1727.86,-105.613 1723.36,-100.613 1727.86,-110.613 1727.86,-110.613"/>
</g>
<!-- Interest -->
<g id="node9" class="node"><title>Interest</title>
<path fill="none" stroke="black" d="M2148,-194.5C2148,-194.5 2371.72,-194.5 2371.72,-194.5 2377.72,-194.5 2383.72,-200.5 2383.72,-206.5 2383.72,-206.5 2383.72,-282.5 2383.72,-282.5 2383.72,-288.5 2377.72,-294.5 2371.72,-294.5 2371.72,-294.5 2148,-294.5 2148,-294.5 2142,-294.5 2136,-288.5 2136,-282.5 2136,-282.5 2136,-206.5 2136,-206.5 2136,-200.5 2142,-194.5 2148,-194.5"/>
<text text-anchor="middle" x="2259.86" y="-279.3" font-family="Times,serif" font-size="14.00">Interest</text>
<polyline fill="none" stroke="black" points="2136,-272.5 2383.72,-272.5 "/>
<text text-anchor="start" x="2144" y="-257.3" font-family="Times,serif" font-size="14.00">id :uuid</text>
<text text-anchor="start" x="2144" y="-243.3" font-family="Times,serif" font-size="14.00">role_id :uuid</text>
<text text-anchor="start" x="2144" y="-229.3" font-family="Times,serif" font-size="14.00">snomedct_concept_id :uuid</text>
<text text-anchor="start" x="2144" y="-215.3" font-family="Times,serif" font-size="14.00">created_at :timestamp without time zone</text>
<text text-anchor="start" x="2144" y="-201.3" font-family="Times,serif" font-size="14.00">updated_at :timestamp without time zone</text>
</g>
<!-- Issue -->
<g id="node10" class="node"><title>Issue</title>
<path fill="none" stroke="black" d="M1084,-194.5C1084,-194.5 1307.72,-194.5 1307.72,-194.5 1313.72,-194.5 1319.72,-200.5 1319.72,-206.5 1319.72,-206.5 1319.72,-282.5 1319.72,-282.5 1319.72,-288.5 1313.72,-294.5 1307.72,-294.5 1307.72,-294.5 1084,-294.5 1084,-294.5 1078,-294.5 1072,-288.5 1072,-282.5 1072,-282.5 1072,-206.5 1072,-206.5 1072,-200.5 1078,-194.5 1084,-194.5"/>
<text text-anchor="middle" x="1195.86" y="-279.3" font-family="Times,serif" font-size="14.00">Issue</text>
<polyline fill="none" stroke="black" points="1072,-272.5 1319.72,-272.5 "/>
<text text-anchor="start" x="1080" y="-257.3" font-family="Times,serif" font-size="14.00">id :uuid</text>
<text text-anchor="start" x="1080" y="-243.3" font-family="Times,serif" font-size="14.00">user_id :uuid</text>
<text text-anchor="start" x="1080" y="-229.3" font-family="Times,serif" font-size="14.00">snomedct_concept_id :uuid</text>
<text text-anchor="start" x="1080" y="-215.3" font-family="Times,serif" font-size="14.00">created_at :timestamp without time zone</text>
<text text-anchor="start" x="1080" y="-201.3" font-family="Times,serif" font-size="14.00">updated_at :timestamp without time zone</text>
</g>
<!-- JsonWebToken -->
<g id="node11" class="node"><title>JsonWebToken</title>
<path fill="none" stroke="black" d="M946,-775.5C946,-775.5 1169.72,-775.5 1169.72,-775.5 1175.72,-775.5 1181.72,-781.5 1181.72,-787.5 1181.72,-787.5 1181.72,-863.5 1181.72,-863.5 1181.72,-869.5 1175.72,-875.5 1169.72,-875.5 1169.72,-875.5 946,-875.5 946,-875.5 940,-875.5 934,-869.5 934,-863.5 934,-863.5 934,-787.5 934,-787.5 934,-781.5 940,-775.5 946,-775.5"/>
<text text-anchor="middle" x="1057.86" y="-860.3" font-family="Times,serif" font-size="14.00">JsonWebToken</text>
<polyline fill="none" stroke="black" points="934,-853.5 1181.72,-853.5 "/>
<text text-anchor="start" x="942" y="-838.3" font-family="Times,serif" font-size="14.00">id :uuid</text>
<text text-anchor="start" x="942" y="-824.3" font-family="Times,serif" font-size="14.00">identity_id :uuid</text>
<text text-anchor="start" x="942" y="-810.3" font-family="Times,serif" font-size="14.00">expires_at :timestamp without time zone</text>
<text text-anchor="start" x="942" y="-796.3" font-family="Times,serif" font-size="14.00">created_at :timestamp without time zone</text>
<text text-anchor="start" x="942" y="-782.3" font-family="Times,serif" font-size="14.00">updated_at :timestamp without time zone</text>
</g>
<!-- Provider -->
<g id="node14" class="node"><title>Provider</title>
<path fill="none" stroke="black" d="M1857,-401.5C1857,-401.5 2080.72,-401.5 2080.72,-401.5 2086.72,-401.5 2092.72,-407.5 2092.72,-413.5 2092.72,-413.5 2092.72,-573.5 2092.72,-573.5 2092.72,-579.5 2086.72,-585.5 2080.72,-585.5 2080.72,-585.5 1857,-585.5 1857,-585.5 1851,-585.5 1845,-579.5 1845,-573.5 1845,-573.5 1845,-413.5 1845,-413.5 1845,-407.5 1851,-401.5 1857,-401.5"/>
<text text-anchor="middle" x="1968.86" y="-570.3" font-family="Times,serif" font-size="14.00">Provider</text>
<polyline fill="none" stroke="black" points="1845,-563.5 2092.72,-563.5 "/>
<text text-anchor="start" x="1853" y="-548.3" font-family="Times,serif" font-size="14.00">scopes :character varying</text>
<text text-anchor="start" x="1853" y="-534.3" font-family="Times,serif" font-size="14.00">name :character varying</text>
<text text-anchor="start" x="1853" y="-520.3" font-family="Times,serif" font-size="14.00">issuer :character varying</text>
<text text-anchor="start" x="1853" y="-506.3" font-family="Times,serif" font-size="14.00">client_id :character varying</text>
<text text-anchor="start" x="1853" y="-492.3" font-family="Times,serif" font-size="14.00">client_secret :character varying</text>
<text text-anchor="start" x="1853" y="-478.3" font-family="Times,serif" font-size="14.00">alternate_client_id :character varying</text>
<text text-anchor="start" x="1853" y="-464.3" font-family="Times,serif" font-size="14.00">configuration :json</text>
<text text-anchor="start" x="1853" y="-450.3" font-family="Times,serif" font-size="14.00">public_keys :json</text>
<text text-anchor="start" x="1853" y="-436.3" font-family="Times,serif" font-size="14.00">created_at :timestamp without time zone</text>
<text text-anchor="start" x="1853" y="-422.3" font-family="Times,serif" font-size="14.00">updated_at :timestamp without time zone</text>
<text text-anchor="start" x="1853" y="-408.3" font-family="Times,serif" font-size="14.00">id :uuid</text>
</g>
<!-- Provider&#45;&gt;Identity -->
<g id="edge7" class="edge"><title>Provider&#45;&gt;Identity</title>
<path fill="none" stroke="#1892ce" d="M1874.12,-395.399C1862.12,-383.099 1849.76,-370.433 1837.55,-357.921"/>
<ellipse fill="none" stroke="#1892ce" cx="1877.01" cy="-398.365" rx="4.00002" ry="4.00002"/>
<polygon fill="#1892ce" stroke="#1892ce" points="1837.37,-357.732 1833.61,-347.432 1833.88,-354.154 1830.38,-350.575 1830.38,-350.575 1830.38,-350.575 1833.88,-354.154 1827.16,-353.717 1837.37,-357.732 1837.37,-357.732"/>
</g>
<!-- Result -->
<g id="node15" class="node"><title>Result</title>
<path fill="none" stroke="black" d="M543.338,-187.5C543.338,-187.5 776.387,-187.5 776.387,-187.5 782.387,-187.5 788.387,-193.5 788.387,-199.5 788.387,-199.5 788.387,-289.5 788.387,-289.5 788.387,-295.5 782.387,-301.5 776.387,-301.5 776.387,-301.5 543.338,-301.5 543.338,-301.5 537.338,-301.5 531.338,-295.5 531.338,-289.5 531.338,-289.5 531.338,-199.5 531.338,-199.5 531.338,-193.5 537.338,-187.5 543.338,-187.5"/>
<text text-anchor="middle" x="659.862" y="-286.3" font-family="Times,serif" font-size="14.00">Result</text>
<polyline fill="none" stroke="black" points="531.338,-279.5 788.387,-279.5 "/>
<text text-anchor="start" x="539.338" y="-264.3" font-family="Times,serif" font-size="14.00">id :uuid</text>
<text text-anchor="start" x="539.338" y="-250.3" font-family="Times,serif" font-size="14.00">user_id :uuid</text>
<text text-anchor="start" x="539.338" y="-236.3" font-family="Times,serif" font-size="14.00">ordered_at :timestamp without time zone</text>
<text text-anchor="start" x="539.338" y="-222.3" font-family="Times,serif" font-size="14.00">requested_at :timestamp without time zone</text>
<text text-anchor="start" x="539.338" y="-208.3" font-family="Times,serif" font-size="14.00">created_at :timestamp without time zone</text>
<text text-anchor="start" x="539.338" y="-194.3" font-family="Times,serif" font-size="14.00">updated_at :timestamp without time zone</text>
</g>
<!-- Role -->
<g id="node16" class="node"><title>Role</title>
<path fill="none" stroke="black" d="M414,-768.5C414,-768.5 637.725,-768.5 637.725,-768.5 643.725,-768.5 649.725,-774.5 649.725,-780.5 649.725,-780.5 649.725,-870.5 649.725,-870.5 649.725,-876.5 643.725,-882.5 637.725,-882.5 637.725,-882.5 414,-882.5 414,-882.5 408,-882.5 402,-876.5 402,-870.5 402,-870.5 402,-780.5 402,-780.5 402,-774.5 408,-768.5 414,-768.5"/>
<text text-anchor="middle" x="525.862" y="-867.3" font-family="Times,serif" font-size="14.00">Role</text>
<polyline fill="none" stroke="black" points="402,-860.5 649.725,-860.5 "/>
<text text-anchor="start" x="410" y="-845.3" font-family="Times,serif" font-size="14.00">id :uuid</text>
<text text-anchor="start" x="410" y="-831.3" font-family="Times,serif" font-size="14.00">name :character varying</text>
<text text-anchor="start" x="410" y="-817.3" font-family="Times,serif" font-size="14.00">code :character varying</text>
<text text-anchor="start" x="410" y="-803.3" font-family="Times,serif" font-size="14.00">description :text</text>
<text text-anchor="start" x="410" y="-789.3" font-family="Times,serif" font-size="14.00">created_at :timestamp without time zone</text>
<text text-anchor="start" x="410" y="-775.3" font-family="Times,serif" font-size="14.00">updated_at :timestamp without time zone</text>
</g>
<!-- Role&#45;&gt;Capability -->
<g id="edge9" class="edge"><title>Role&#45;&gt;Capability</title>
<path fill="none" stroke="#581127" d="M402.526,-765.065C399.28,-763.677 396.054,-762.32 392.862,-761 347.138,-742.092 323.972,-757.828 287.862,-724 170.02,-613.604 136.853,-414.933 127.519,-311.752"/>
<ellipse fill="none" stroke="#581127" cx="406.46" cy="-766.765" rx="4.00002" ry="4.00002"/>
<polygon fill="#581127" stroke="#581127" points="127.517,-311.732 131.147,-301.384 127.09,-306.75 126.663,-301.768 126.663,-301.768 126.663,-301.768 127.09,-306.75 122.18,-302.153 127.517,-311.732 127.517,-311.732"/>
</g>
<!-- Role&#45;&gt;Group -->
<g id="edge11" class="edge"><title>Role&#45;&gt;Group</title>
<path fill="none" stroke="#7bc390" d="M480.641,-759.898C474.141,-750.612 467.489,-741.11 461.095,-731.975"/>
<polygon fill="#7bc390" stroke="#7bc390" points="480.731,-760.026 482.779,-770.799 483.598,-764.123 486.465,-768.219 486.465,-768.219 486.465,-768.219 483.598,-764.123 490.152,-765.638 480.731,-760.026 480.731,-760.026"/>
<polygon fill="#7bc390" stroke="#7bc390" points="461.042,-731.899 458.993,-721.126 458.174,-727.803 455.307,-723.706 455.307,-723.706 455.307,-723.706 458.174,-727.803 451.62,-726.287 461.042,-731.899 461.042,-731.899"/>
</g>
<!-- Role&#45;&gt;Interest -->
<g id="edge8" class="edge"><title>Role&#45;&gt;Interest</title>
<path fill="none" stroke="#946204" d="M644.259,-765.666C649.146,-763.973 654.025,-762.407 658.862,-761 1279.19,-580.564 1579.29,-965.83 2101.86,-586 2194.56,-518.62 2234.46,-383.138 2250.36,-304.911"/>
<ellipse fill="none" stroke="#946204" cx="640.342" cy="-767.072" rx="4.00001" ry="4.00001"/>
<polygon fill="#946204" stroke="#946204" points="2250.43,-304.545 2256.77,-295.599 2251.39,-299.638 2252.36,-294.732 2252.36,-294.732 2252.36,-294.732 2251.39,-299.638 2247.94,-293.865 2250.43,-304.545 2250.43,-304.545"/>
</g>
<!-- Role&#45;&gt;User -->
<g id="edge10" class="edge"><title>Role&#45;&gt;User</title>
<path fill="none" stroke="#d5ca57" d="M552.586,-758.688C573.277,-707.732 602.118,-636.706 624.685,-581.131"/>
<polygon fill="#d5ca57" stroke="#d5ca57" points="552.508,-758.881 544.576,-766.453 550.627,-763.513 548.745,-768.146 548.745,-768.146 548.745,-768.146 550.627,-763.513 552.915,-769.839 552.508,-758.881 552.508,-758.881"/>
<polygon fill="#d5ca57" stroke="#d5ca57" points="624.773,-580.913 632.705,-573.34 626.655,-576.28 628.536,-571.647 628.536,-571.647 628.536,-571.647 626.655,-576.28 624.366,-569.954 624.773,-580.913 624.773,-580.913"/>
</g>
<!-- SnomedctConcept -->
<g id="node18" class="node"><title>SnomedctConcept</title>
<path fill="none" stroke="black" d="M1433,-422.5C1433,-422.5 1656.72,-422.5 1656.72,-422.5 1662.72,-422.5 1668.72,-428.5 1668.72,-434.5 1668.72,-434.5 1668.72,-552.5 1668.72,-552.5 1668.72,-558.5 1662.72,-564.5 1656.72,-564.5 1656.72,-564.5 1433,-564.5 1433,-564.5 1427,-564.5 1421,-558.5 1421,-552.5 1421,-552.5 1421,-434.5 1421,-434.5 1421,-428.5 1427,-422.5 1433,-422.5"/>
<text text-anchor="middle" x="1544.86" y="-549.3" font-family="Times,serif" font-size="14.00">SnomedctConcept</text>
<polyline fill="none" stroke="black" points="1421,-542.5 1668.72,-542.5 "/>
<text text-anchor="start" x="1429" y="-527.3" font-family="Times,serif" font-size="14.00">updated_at :timestamp without time zone</text>
<text text-anchor="start" x="1429" y="-513.3" font-family="Times,serif" font-size="14.00">snomedct_id :bigint</text>
<text text-anchor="start" x="1429" y="-499.3" font-family="Times,serif" font-size="14.00">effective_time :date</text>
<text text-anchor="start" x="1429" y="-485.3" font-family="Times,serif" font-size="14.00">active :boolean</text>
<text text-anchor="start" x="1429" y="-471.3" font-family="Times,serif" font-size="14.00">module_id :bigint</text>
<text text-anchor="start" x="1429" y="-457.3" font-family="Times,serif" font-size="14.00">definition_status_id :bigint</text>
<text text-anchor="start" x="1429" y="-443.3" font-family="Times,serif" font-size="14.00">created_at :timestamp without time zone</text>
<text text-anchor="start" x="1429" y="-429.3" font-family="Times,serif" font-size="14.00">id :uuid</text>
</g>
<!-- SnomedctConcept&#45;&gt;Focus -->
<g id="edge14" class="edge"><title>SnomedctConcept&#45;&gt;Focus</title>
<path fill="none" stroke="#c8bde0" d="M1518.71,-414.659C1507.54,-381.443 1494.66,-343.097 1483.98,-311.321"/>
<ellipse fill="none" stroke="#c8bde0" cx="1520.03" cy="-418.589" rx="4.00001" ry="4.00001"/>
<polygon fill="#c8bde0" stroke="#c8bde0" points="1483.93,-311.162 1485.01,-300.25 1482.33,-306.423 1480.74,-301.683 1480.74,-301.683 1480.74,-301.683 1482.33,-306.423 1476.48,-303.117 1483.93,-311.162 1483.93,-311.162"/>
</g>
<!-- SnomedctConcept&#45;&gt;Interest -->
<g id="edge12" class="edge"><title>SnomedctConcept&#45;&gt;Interest</title>
<path fill="none" stroke="#0d5aca" d="M1676.68,-446.925C1726.19,-430.904 1783.22,-413.739 1835.86,-401 1963.41,-370.138 2007.06,-404.555 2126.86,-351 2154.06,-338.842 2180.52,-319.837 2202.57,-301.287"/>
<ellipse fill="none" stroke="#0d5aca" cx="1672.61" cy="-448.249" rx="4.00001" ry="4.00001"/>
<polygon fill="#0d5aca" stroke="#0d5aca" points="2202.6,-301.268 2213.12,-298.173 2206.39,-298.012 2210.19,-294.757 2210.19,-294.757 2210.19,-294.757 2206.39,-298.012 2207.26,-291.341 2202.6,-301.268 2202.6,-301.268"/>
</g>
<!-- SnomedctConcept&#45;&gt;Issue -->
<g id="edge13" class="edge"><title>SnomedctConcept&#45;&gt;Issue</title>
<path fill="none" stroke="#b448a1" d="M1426.85,-417.951C1394.67,-396.88 1360.08,-373.538 1328.86,-351 1307.14,-335.321 1284.08,-317.477 1263.37,-300.981"/>
<ellipse fill="none" stroke="#b448a1" cx="1430.32" cy="-420.224" rx="4.00002" ry="4.00002"/>
<polygon fill="#b448a1" stroke="#b448a1" points="1263.36,-300.977 1258.36,-291.218 1259.46,-297.855 1255.55,-294.733 1255.55,-294.733 1255.55,-294.733 1259.46,-297.855 1252.74,-298.248 1263.36,-300.977 1263.36,-300.977"/>
</g>
<!-- SnomedctDescription -->
<g id="node19" class="node"><title>SnomedctDescription</title>
<path fill="none" stroke="black" d="M1882,-138.5C1882,-138.5 2105.72,-138.5 2105.72,-138.5 2111.72,-138.5 2117.72,-144.5 2117.72,-150.5 2117.72,-150.5 2117.72,-338.5 2117.72,-338.5 2117.72,-344.5 2111.72,-350.5 2105.72,-350.5 2105.72,-350.5 1882,-350.5 1882,-350.5 1876,-350.5 1870,-344.5 1870,-338.5 1870,-338.5 1870,-150.5 1870,-150.5 1870,-144.5 1876,-138.5 1882,-138.5"/>
<text text-anchor="middle" x="1993.86" y="-335.3" font-family="Times,serif" font-size="14.00">SnomedctDescription</text>
<polyline fill="none" stroke="black" points="1870,-328.5 2117.72,-328.5 "/>
<text text-anchor="start" x="1878" y="-313.3" font-family="Times,serif" font-size="14.00">updated_at :timestamp without time zone</text>
<text text-anchor="start" x="1878" y="-299.3" font-family="Times,serif" font-size="14.00">snomedct_concept_id :uuid</text>
<text text-anchor="start" x="1878" y="-285.3" font-family="Times,serif" font-size="14.00">snomedct_id :bigint</text>
<text text-anchor="start" x="1878" y="-271.3" font-family="Times,serif" font-size="14.00">effective_time :date</text>
<text text-anchor="start" x="1878" y="-257.3" font-family="Times,serif" font-size="14.00">active :boolean</text>
<text text-anchor="start" x="1878" y="-243.3" font-family="Times,serif" font-size="14.00">module_id :bigint</text>
<text text-anchor="start" x="1878" y="-229.3" font-family="Times,serif" font-size="14.00">concept_id :bigint</text>
<text text-anchor="start" x="1878" y="-215.3" font-family="Times,serif" font-size="14.00">language_code :character varying</text>
<text text-anchor="start" x="1878" y="-201.3" font-family="Times,serif" font-size="14.00">type_id :bigint</text>
<text text-anchor="start" x="1878" y="-187.3" font-family="Times,serif" font-size="14.00">term :text</text>
<text text-anchor="start" x="1878" y="-173.3" font-family="Times,serif" font-size="14.00">case_significance_id :bigint</text>
<text text-anchor="start" x="1878" y="-159.3" font-family="Times,serif" font-size="14.00">created_at :timestamp without time zone</text>
<text text-anchor="start" x="1878" y="-145.3" font-family="Times,serif" font-size="14.00">id :uuid</text>
</g>
<!-- SnomedctConcept&#45;&gt;SnomedctDescription -->
<g id="edge15" class="edge"><title>SnomedctConcept&#45;&gt;SnomedctDescription</title>
<path fill="none" stroke="#8a7fb7" d="M1676.29,-442.325C1734.53,-417.917 1802.85,-386.235 1860.86,-351 1861.05,-350.885 1861.24,-350.77 1861.43,-350.655"/>
<ellipse fill="none" stroke="#8a7fb7" cx="1672.56" cy="-443.878" rx="4.00002" ry="4.00002"/>
<polygon fill="#8a7fb7" stroke="#8a7fb7" points="1861.47,-350.628 1872.34,-349.137 1865.71,-347.975 1869.95,-345.323 1869.95,-345.323 1869.95,-345.323 1865.71,-347.975 1867.56,-341.508 1861.47,-350.628 1861.47,-350.628"/>
</g>
<!-- User&#45;&gt;Capability -->
<g id="edge17" class="edge"><title>User&#45;&gt;Capability</title>
<path fill="none" stroke="#4c8c69" d="M528.114,-458.341C447.021,-434.42 342.562,-398.279 256.862,-351 235.088,-338.988 213.22,-323.433 193.684,-307.977"/>
<ellipse fill="none" stroke="#4c8c69" cx="532.048" cy="-459.493" rx="4.00001" ry="4.00001"/>
<polygon fill="#4c8c69" stroke="#4c8c69" points="193.545,-307.865 188.566,-298.094 189.647,-304.734 185.749,-301.603 185.749,-301.603 185.749,-301.603 189.647,-304.734 182.931,-305.111 193.545,-307.865 193.545,-307.865"/>
</g>
<!-- User&#45;&gt;Focus -->
<g id="edge22" class="edge"><title>User&#45;&gt;Focus</title>
<path fill="none" stroke="#82e37d" d="M791.716,-455.089C857.758,-437.179 939.157,-416.346 1012.86,-401 1152.07,-372.016 1198.67,-408.169 1328.86,-351 1352.92,-340.434 1376.36,-324.43 1396.68,-308.058"/>
<ellipse fill="none" stroke="#82e37d" cx="787.6" cy="-456.209" rx="4.00001" ry="4.00001"/>
<polygon fill="#82e37d" stroke="#82e37d" points="1396.89,-307.889 1407.47,-305.004 1400.75,-304.71 1404.61,-301.531 1404.61,-301.531 1404.61,-301.531 1400.75,-304.71 1401.75,-298.057 1396.89,-307.889 1396.89,-307.889"/>
</g>
<!-- User&#45;&gt;Identity -->
<g id="edge18" class="edge"><title>User&#45;&gt;Identity</title>
<path fill="none" stroke="#0684e7" d="M792.009,-452.138C857.785,-433.619 938.868,-413.128 1012.86,-401 1265.81,-359.539 1351.93,-445.931 1594.41,-350.856"/>
<ellipse fill="none" stroke="#0684e7" cx="787.914" cy="-453.297" rx="4.00001" ry="4.00001"/>
<polygon fill="#0684e7" stroke="#0684e7" points="1594.55,-350.8 1605.5,-351.279 1599.19,-348.949 1603.84,-347.098 1603.84,-347.098 1603.84,-347.098 1599.19,-348.949 1602.17,-342.918 1594.55,-350.8 1594.55,-350.8"/>
</g>
<!-- User&#45;&gt;Issue -->
<g id="edge19" class="edge"><title>User&#45;&gt;Issue</title>
<path fill="none" stroke="#93f287" d="M791.611,-458.341C872.703,-434.42 977.163,-398.279 1062.86,-351 1087.91,-337.179 1113.09,-318.669 1134.7,-301.014"/>
<ellipse fill="none" stroke="#93f287" cx="787.676" cy="-459.493" rx="4.00001" ry="4.00001"/>
<polygon fill="#93f287" stroke="#93f287" points="1134.79,-300.939 1145.36,-298.024 1138.64,-297.749 1142.49,-294.559 1142.49,-294.559 1142.49,-294.559 1138.64,-297.749 1139.62,-291.094 1134.79,-300.939 1134.79,-300.939"/>
</g>
<!-- User&#45;&gt;Member -->
<g id="edge16" class="edge"><title>User&#45;&gt;Member</title>
<path fill="none" stroke="#c26e3a" d="M569.444,-409.784C530.703,-374.343 486.444,-333.854 451.558,-301.94"/>
<ellipse fill="none" stroke="#c26e3a" cx="572.592" cy="-412.664" rx="4.00002" ry="4.00002"/>
<polygon fill="#c26e3a" stroke="#c26e3a" points="451.189,-301.602 446.848,-291.532 447.499,-298.227 443.81,-294.852 443.81,-294.852 443.81,-294.852 447.499,-298.227 440.773,-298.173 451.189,-301.602 451.189,-301.602"/>
<text text-anchor="middle" x="570.19" y="-371.8" font-family="Times,serif" font-size="14.00">memberships</text>
</g>
<!-- User&#45;&gt;Participant -->
<g id="edge21" class="edge"><title>User&#45;&gt;Participant</title>
<path fill="none" stroke="#f7ac29" d="M750.281,-409.784C789.022,-374.343 833.281,-333.854 868.166,-301.94"/>
<ellipse fill="none" stroke="#f7ac29" cx="747.133" cy="-412.664" rx="4.00002" ry="4.00002"/>
<polygon fill="#f7ac29" stroke="#f7ac29" points="868.536,-301.602 878.952,-298.173 872.225,-298.227 875.914,-294.852 875.914,-294.852 875.914,-294.852 872.225,-298.227 872.877,-291.532 868.536,-301.602 868.536,-301.602"/>
</g>
<!-- User&#45;&gt;Result -->
<g id="edge20" class="edge"><title>User&#45;&gt;Result</title>
<path fill="none" stroke="#498e52" d="M659.862,-407.07C659.862,-375.875 659.862,-341.089 659.862,-311.808"/>
<ellipse fill="none" stroke="#498e52" cx="659.862" cy="-411.364" rx="4" ry="4"/>
<polygon fill="#498e52" stroke="#498e52" points="659.862,-311.695 664.362,-301.695 659.862,-306.695 659.862,-301.695 659.862,-301.695 659.862,-301.695 659.862,-306.695 655.362,-301.695 659.862,-311.695 659.862,-311.695"/>
</g>
</g>
</svg>
