<?xml version="1.0" encoding="UTF-8" standalone="no"?>
<!DOCTYPE svg PUBLIC "-//W3C//DTD SVG 1.1//EN"
 "http://www.w3.org/Graphics/SVG/1.1/DTD/svg11.dtd">
<!-- Generated by graphviz version 2.40.1 (20161225.0304)
 -->
<!-- Title: models_diagram Pages: 1 -->
<svg width="1039pt" height="1176pt"
 viewBox="0.00 0.00 1038.55 1176.00" xmlns="http://www.w3.org/2000/svg" xmlns:xlink="http://www.w3.org/1999/xlink">
<g id="graph0" class="graph" transform="scale(1 1) rotate(0) translate(4 1172)">
<title>models_diagram</title>
<polygon fill="transparent" stroke="transparent" points="-4,4 -4,-1172 1034.55,-1172 1034.55,4 -4,4"/>
<!-- _diagram_info -->
<g id="node1" class="node">
<title>_diagram_info</title>
<text text-anchor="start" x="8" y="-1125.6" font-family="Times,serif" font-size="13.00" fill="#000000">Models diagram</text>
<text text-anchor="start" x="8" y="-1112.6" font-family="Times,serif" font-size="13.00" fill="#000000">Date: Jun 04 2018 &#45; 21:00</text>
<text text-anchor="start" x="8" y="-1099.6" font-family="Times,serif" font-size="13.00" fill="#000000">Migration version: 20180605013519</text>
<text text-anchor="start" x="8" y="-1086.6" font-family="Times,serif" font-size="13.00" fill="#000000">Generated by RailRoady 1.5.3</text>
<text text-anchor="start" x="8" y="-1073.6" font-family="Times,serif" font-size="13.00" fill="#000000">http://railroady.prestonlee.com</text>
</g>
<!-- Identity -->
<g id="node2" class="node">
<title>Identity</title>
<path fill="none" stroke="#000000" d="M617.8254,-430.5C617.8254,-430.5 841.55,-430.5 841.55,-430.5 847.55,-430.5 853.55,-436.5 853.55,-442.5 853.55,-442.5 853.55,-616.5 853.55,-616.5 853.55,-622.5 847.55,-628.5 841.55,-628.5 841.55,-628.5 617.8254,-628.5 617.8254,-628.5 611.8254,-628.5 605.8254,-622.5 605.8254,-616.5 605.8254,-616.5 605.8254,-442.5 605.8254,-442.5 605.8254,-436.5 611.8254,-430.5 617.8254,-430.5"/>
<text text-anchor="middle" x="729.6877" y="-613.3" font-family="Times,serif" font-size="14.00" fill="#000000">Identity</text>
<polyline fill="none" stroke="#000000" points="605.8254,-606.5 853.55,-606.5 "/>
<text text-anchor="start" x="613.8254" y="-591.3" font-family="Times,serif" font-size="14.00" fill="#000000">updated_at :timestamp without time zone</text>
<text text-anchor="start" x="613.8254" y="-577.3" font-family="Times,serif" font-size="14.00" fill="#000000">person_id :uuid</text>
<text text-anchor="start" x="613.8254" y="-563.3" font-family="Times,serif" font-size="14.00" fill="#000000">identity_provider_id :uuid</text>
<text text-anchor="start" x="613.8254" y="-549.3" font-family="Times,serif" font-size="14.00" fill="#000000">sub :character varying</text>
<text text-anchor="start" x="613.8254" y="-535.3" font-family="Times,serif" font-size="14.00" fill="#000000">iat :character varying</text>
<text text-anchor="start" x="613.8254" y="-521.3" font-family="Times,serif" font-size="14.00" fill="#000000">hd :character varying</text>
<text text-anchor="start" x="613.8254" y="-507.3" font-family="Times,serif" font-size="14.00" fill="#000000">locale :character varying</text>
<text text-anchor="start" x="613.8254" y="-493.3" font-family="Times,serif" font-size="14.00" fill="#000000">email :character varying</text>
<text text-anchor="start" x="613.8254" y="-479.3" font-family="Times,serif" font-size="14.00" fill="#000000">notify_via_email :boolean</text>
<text text-anchor="start" x="613.8254" y="-465.3" font-family="Times,serif" font-size="14.00" fill="#000000">notify_via_sms :boolean</text>
<text text-anchor="start" x="613.8254" y="-451.3" font-family="Times,serif" font-size="14.00" fill="#000000">created_at :timestamp without time zone</text>
<text text-anchor="start" x="613.8254" y="-437.3" font-family="Times,serif" font-size="14.00" fill="#000000">id :uuid</text>
</g>
<!-- Session -->
<g id="node6" class="node">
<title>Session</title>
<path fill="none" stroke="#000000" d="M617.8254,-278.5C617.8254,-278.5 841.55,-278.5 841.55,-278.5 847.55,-278.5 853.55,-284.5 853.55,-290.5 853.55,-290.5 853.55,-380.5 853.55,-380.5 853.55,-386.5 847.55,-392.5 841.55,-392.5 841.55,-392.5 617.8254,-392.5 617.8254,-392.5 611.8254,-392.5 605.8254,-386.5 605.8254,-380.5 605.8254,-380.5 605.8254,-290.5 605.8254,-290.5 605.8254,-284.5 611.8254,-278.5 617.8254,-278.5"/>
<text text-anchor="middle" x="729.6877" y="-377.3" font-family="Times,serif" font-size="14.00" fill="#000000">Session</text>
<polyline fill="none" stroke="#000000" points="605.8254,-370.5 853.55,-370.5 "/>
<text text-anchor="start" x="613.8254" y="-355.3" font-family="Times,serif" font-size="14.00" fill="#000000">id :uuid</text>
<text text-anchor="start" x="613.8254" y="-341.3" font-family="Times,serif" font-size="14.00" fill="#000000">identity_id :uuid</text>
<text text-anchor="start" x="613.8254" y="-327.3" font-family="Times,serif" font-size="14.00" fill="#000000">expires_at :timestamp without time zone</text>
<text text-anchor="start" x="613.8254" y="-313.3" font-family="Times,serif" font-size="14.00" fill="#000000">created_at :timestamp without time zone</text>
<text text-anchor="start" x="613.8254" y="-299.3" font-family="Times,serif" font-size="14.00" fill="#000000">updated_at :timestamp without time zone</text>
<text text-anchor="start" x="613.8254" y="-285.3" font-family="Times,serif" font-size="14.00" fill="#000000">timeline_id :uuid</text>
</g>
<!-- Identity&#45;&gt;Session -->
<g id="edge1" class="edge">
<title>Identity&#45;&gt;Session</title>
<path fill="none" stroke="#ec153f" d="M729.6877,-422.1013C729.6877,-415.63 729.6877,-409.2211 729.6877,-402.9916"/>
<ellipse fill="none" stroke="#ec153f" cx="729.6878" cy="-426.2267" rx="4" ry="4"/>
<polygon fill="#ec153f" stroke="#ec153f" points="729.6878,-402.698 734.1877,-392.698 729.6878,-397.698 729.6877,-392.698 729.6877,-392.698 729.6877,-392.698 729.6878,-397.698 725.1877,-392.6981 729.6878,-402.698 729.6878,-402.698"/>
</g>
<!-- Group -->
<g id="node3" class="node">
<title>Group</title>
<path fill="none" stroke="#000000" d="M237.8254,-901.5C237.8254,-901.5 461.55,-901.5 461.55,-901.5 467.55,-901.5 473.55,-907.5 473.55,-913.5 473.55,-913.5 473.55,-989.5 473.55,-989.5 473.55,-995.5 467.55,-1001.5 461.55,-1001.5 461.55,-1001.5 237.8254,-1001.5 237.8254,-1001.5 231.8254,-1001.5 225.8254,-995.5 225.8254,-989.5 225.8254,-989.5 225.8254,-913.5 225.8254,-913.5 225.8254,-907.5 231.8254,-901.5 237.8254,-901.5"/>
<text text-anchor="middle" x="349.6877" y="-986.3" font-family="Times,serif" font-size="14.00" fill="#000000">Group</text>
<polyline fill="none" stroke="#000000" points="225.8254,-979.5 473.55,-979.5 "/>
<text text-anchor="start" x="233.8254" y="-964.3" font-family="Times,serif" font-size="14.00" fill="#000000">id :uuid</text>
<text text-anchor="start" x="233.8254" y="-950.3" font-family="Times,serif" font-size="14.00" fill="#000000">name :character varying</text>
<text text-anchor="start" x="233.8254" y="-936.3" font-family="Times,serif" font-size="14.00" fill="#000000">description :text</text>
<text text-anchor="start" x="233.8254" y="-922.3" font-family="Times,serif" font-size="14.00" fill="#000000">created_at :timestamp without time zone</text>
<text text-anchor="start" x="233.8254" y="-908.3" font-family="Times,serif" font-size="14.00" fill="#000000">updated_at :timestamp without time zone</text>
</g>
<!-- Capability -->
<g id="node4" class="node">
<title>Capability</title>
<path fill="none" stroke="#000000" d="M85.8254,-472.5C85.8254,-472.5 309.55,-472.5 309.55,-472.5 315.55,-472.5 321.55,-478.5 321.55,-484.5 321.55,-484.5 321.55,-574.5 321.55,-574.5 321.55,-580.5 315.55,-586.5 309.55,-586.5 309.55,-586.5 85.8254,-586.5 85.8254,-586.5 79.8254,-586.5 73.8254,-580.5 73.8254,-574.5 73.8254,-574.5 73.8254,-484.5 73.8254,-484.5 73.8254,-478.5 79.8254,-472.5 85.8254,-472.5"/>
<text text-anchor="middle" x="197.6877" y="-571.3" font-family="Times,serif" font-size="14.00" fill="#000000">Capability</text>
<polyline fill="none" stroke="#000000" points="73.8254,-564.5 321.55,-564.5 "/>
<text text-anchor="start" x="81.8254" y="-549.3" font-family="Times,serif" font-size="14.00" fill="#000000">id :uuid</text>
<text text-anchor="start" x="81.8254" y="-535.3" font-family="Times,serif" font-size="14.00" fill="#000000">entity_id :uuid</text>
<text text-anchor="start" x="81.8254" y="-521.3" font-family="Times,serif" font-size="14.00" fill="#000000">entity_type :character varying</text>
<text text-anchor="start" x="81.8254" y="-507.3" font-family="Times,serif" font-size="14.00" fill="#000000">role_id :uuid</text>
<text text-anchor="start" x="81.8254" y="-493.3" font-family="Times,serif" font-size="14.00" fill="#000000">created_at :timestamp without time zone</text>
<text text-anchor="start" x="81.8254" y="-479.3" font-family="Times,serif" font-size="14.00" fill="#000000">updated_at :timestamp without time zone</text>
</g>
<!-- Group&#45;&gt;Capability -->
<g id="edge4" class="edge">
<title>Group&#45;&gt;Capability</title>
<path fill="none" stroke="#752179" d="M328.9129,-893.8224C300.946,-816.1777 251.2952,-678.3314 221.7413,-596.2803"/>
<ellipse fill="none" stroke="#752179" cx="330.2989" cy="-897.6706" rx="4" ry="4"/>
<polygon fill="#752179" stroke="#752179" points="221.6284,-595.9668 222.4734,-585.0335 219.934,-591.2626 218.2396,-586.5585 218.2396,-586.5585 218.2396,-586.5585 219.934,-591.2626 214.0059,-588.0835 221.6284,-595.9668 221.6284,-595.9668"/>
</g>
<!-- Member -->
<g id="node5" class="node">
<title>Member</title>
<path fill="none" stroke="#000000" d="M351.8254,-479.5C351.8254,-479.5 575.55,-479.5 575.55,-479.5 581.55,-479.5 587.55,-485.5 587.55,-491.5 587.55,-491.5 587.55,-567.5 587.55,-567.5 587.55,-573.5 581.55,-579.5 575.55,-579.5 575.55,-579.5 351.8254,-579.5 351.8254,-579.5 345.8254,-579.5 339.8254,-573.5 339.8254,-567.5 339.8254,-567.5 339.8254,-491.5 339.8254,-491.5 339.8254,-485.5 345.8254,-479.5 351.8254,-479.5"/>
<text text-anchor="middle" x="463.6877" y="-564.3" font-family="Times,serif" font-size="14.00" fill="#000000">Member</text>
<polyline fill="none" stroke="#000000" points="339.8254,-557.5 587.55,-557.5 "/>
<text text-anchor="start" x="347.8254" y="-542.3" font-family="Times,serif" font-size="14.00" fill="#000000">id :uuid</text>
<text text-anchor="start" x="347.8254" y="-528.3" font-family="Times,serif" font-size="14.00" fill="#000000">group_id :uuid</text>
<text text-anchor="start" x="347.8254" y="-514.3" font-family="Times,serif" font-size="14.00" fill="#000000">person_id :uuid</text>
<text text-anchor="start" x="347.8254" y="-500.3" font-family="Times,serif" font-size="14.00" fill="#000000">created_at :timestamp without time zone</text>
<text text-anchor="start" x="347.8254" y="-486.3" font-family="Times,serif" font-size="14.00" fill="#000000">updated_at :timestamp without time zone</text>
</g>
<!-- Group&#45;&gt;Member -->
<g id="edge2" class="edge">
<title>Group&#45;&gt;Member</title>
<path fill="none" stroke="#9c0fc7" d="M345.6038,-893.2894C343.5273,-837.0111 345.3088,-750.0604 368.6877,-679 379.3544,-646.5787 398.6286,-614.1691 417.0418,-587.8552"/>
<ellipse fill="none" stroke="#9c0fc7" cx="345.7716" cy="-897.368" rx="4" ry="4"/>
<polygon fill="#9c0fc7" stroke="#9c0fc7" points="417.1706,-587.6747 426.6414,-582.1469 420.0743,-583.6041 422.9779,-579.5336 422.9779,-579.5336 422.9779,-579.5336 420.0743,-583.6041 419.3144,-576.9204 417.1706,-587.6747 417.1706,-587.6747"/>
</g>
<!-- Person -->
<g id="node11" class="node">
<title>Person</title>
<path fill="none" stroke="#000000" d="M389.8254,-693.5C389.8254,-693.5 613.55,-693.5 613.55,-693.5 619.55,-693.5 625.55,-699.5 625.55,-705.5 625.55,-705.5 625.55,-837.5 625.55,-837.5 625.55,-843.5 619.55,-849.5 613.55,-849.5 613.55,-849.5 389.8254,-849.5 389.8254,-849.5 383.8254,-849.5 377.8254,-843.5 377.8254,-837.5 377.8254,-837.5 377.8254,-705.5 377.8254,-705.5 377.8254,-699.5 383.8254,-693.5 389.8254,-693.5"/>
<text text-anchor="middle" x="501.6877" y="-834.3" font-family="Times,serif" font-size="14.00" fill="#000000">Person</text>
<polyline fill="none" stroke="#000000" points="377.8254,-827.5 625.55,-827.5 "/>
<text text-anchor="start" x="385.8254" y="-812.3" font-family="Times,serif" font-size="14.00" fill="#000000">updated_at :timestamp without time zone</text>
<text text-anchor="start" x="385.8254" y="-798.3" font-family="Times,serif" font-size="14.00" fill="#000000">name :character varying</text>
<text text-anchor="start" x="385.8254" y="-784.3" font-family="Times,serif" font-size="14.00" fill="#000000">external_id :character varying</text>
<text text-anchor="start" x="385.8254" y="-770.3" font-family="Times,serif" font-size="14.00" fill="#000000">salutation :character varying</text>
<text text-anchor="start" x="385.8254" y="-756.3" font-family="Times,serif" font-size="14.00" fill="#000000">first_name :character varying</text>
<text text-anchor="start" x="385.8254" y="-742.3" font-family="Times,serif" font-size="14.00" fill="#000000">middle_name :character varying</text>
<text text-anchor="start" x="385.8254" y="-728.3" font-family="Times,serif" font-size="14.00" fill="#000000">last_name :character varying</text>
<text text-anchor="start" x="385.8254" y="-714.3" font-family="Times,serif" font-size="14.00" fill="#000000">created_at :timestamp without time zone</text>
<text text-anchor="start" x="385.8254" y="-700.3" font-family="Times,serif" font-size="14.00" fill="#000000">id :uuid</text>
</g>
<!-- Group&#45;&gt;Person -->
<g id="edge3" class="edge">
<title>Group&#45;&gt;Person</title>
<path fill="none" stroke="#9b658e" d="M398.4912,-893.7064C408.2937,-882.0983 418.7914,-869.6667 429.2011,-857.3394"/>
<polygon fill="#9b658e" stroke="#9b658e" points="398.4801,-893.7196 388.5901,-898.4566 395.2541,-897.5398 392.0282,-901.36 392.0282,-901.36 392.0282,-901.36 395.2541,-897.5398 395.4664,-904.2633 398.4801,-893.7196 398.4801,-893.7196"/>
<polygon fill="#9b658e" stroke="#9b658e" points="429.2124,-857.3261 439.1024,-852.5891 432.4383,-853.5059 435.6642,-849.6858 435.6642,-849.6858 435.6642,-849.6858 432.4383,-853.5059 432.2261,-846.7824 429.2124,-857.3261 429.2124,-857.3261"/>
</g>
<!-- Event -->
<g id="node12" class="node">
<title>Event</title>
<path fill="none" stroke="#000000" d="M617.8254,-.5C617.8254,-.5 841.55,-.5 841.55,-.5 847.55,-.5 853.55,-6.5 853.55,-12.5 853.55,-12.5 853.55,-228.5 853.55,-228.5 853.55,-234.5 847.55,-240.5 841.55,-240.5 841.55,-240.5 617.8254,-240.5 617.8254,-240.5 611.8254,-240.5 605.8254,-234.5 605.8254,-228.5 605.8254,-228.5 605.8254,-12.5 605.8254,-12.5 605.8254,-6.5 611.8254,-.5 617.8254,-.5"/>
<text text-anchor="middle" x="729.6877" y="-225.3" font-family="Times,serif" font-size="14.00" fill="#000000">Event</text>
<polyline fill="none" stroke="#000000" points="605.8254,-218.5 853.55,-218.5 "/>
<text text-anchor="start" x="613.8254" y="-203.3" font-family="Times,serif" font-size="14.00" fill="#000000">timeline_id :uuid</text>
<text text-anchor="start" x="613.8254" y="-189.3" font-family="Times,serif" font-size="14.00" fill="#000000">person_id :uuid</text>
<text text-anchor="start" x="613.8254" y="-175.3" font-family="Times,serif" font-size="14.00" fill="#000000">parent_id :uuid</text>
<text text-anchor="start" x="613.8254" y="-161.3" font-family="Times,serif" font-size="14.00" fill="#000000">next_id :uuid</text>
<text text-anchor="start" x="613.8254" y="-147.3" font-family="Times,serif" font-size="14.00" fill="#000000">topic_uri :character varying</text>
<text text-anchor="start" x="613.8254" y="-133.3" font-family="Times,serif" font-size="14.00" fill="#000000">model_uri :character varying</text>
<text text-anchor="start" x="613.8254" y="-119.3" font-family="Times,serif" font-size="14.00" fill="#000000">controller_uri :character varying</text>
<text text-anchor="start" x="613.8254" y="-105.3" font-family="Times,serif" font-size="14.00" fill="#000000">agent_uri :character varying</text>
<text text-anchor="start" x="613.8254" y="-91.3" font-family="Times,serif" font-size="14.00" fill="#000000">action_uri :character varying</text>
<text text-anchor="start" x="613.8254" y="-77.3" font-family="Times,serif" font-size="14.00" fill="#000000">created_at :timestamp without time zone</text>
<text text-anchor="start" x="613.8254" y="-63.3" font-family="Times,serif" font-size="14.00" fill="#000000">updated_at :timestamp without time zone</text>
<text text-anchor="start" x="613.8254" y="-49.3" font-family="Times,serif" font-size="14.00" fill="#000000">parameters :json</text>
<text text-anchor="start" x="613.8254" y="-35.3" font-family="Times,serif" font-size="14.00" fill="#000000">time_to_live :integer</text>
<text text-anchor="start" x="613.8254" y="-21.3" font-family="Times,serif" font-size="14.00" fill="#000000">session_id :uuid</text>
<text text-anchor="start" x="613.8254" y="-7.3" font-family="Times,serif" font-size="14.00" fill="#000000">id :uuid</text>
</g>
<!-- Session&#45;&gt;Event -->
<g id="edge5" class="edge">
<title>Session&#45;&gt;Event</title>
<path fill="none" stroke="#45497b" d="M729.6877,-270.2629C729.6877,-264.043 729.6877,-257.5987 729.6877,-251.0341"/>
<ellipse fill="none" stroke="#45497b" cx="729.6878" cy="-274.4484" rx="4" ry="4"/>
<polygon fill="#45497b" stroke="#45497b" points="729.6878,-250.6344 734.1877,-240.6343 729.6878,-245.6344 729.6877,-240.6344 729.6877,-240.6344 729.6877,-240.6344 729.6878,-245.6344 725.1877,-240.6344 729.6878,-250.6344 729.6878,-250.6344"/>
</g>
<!-- Role -->
<g id="node7" class="node">
<title>Role</title>
<path fill="none" stroke="#000000" d="M237.8254,-1046.5C237.8254,-1046.5 461.55,-1046.5 461.55,-1046.5 467.55,-1046.5 473.55,-1052.5 473.55,-1058.5 473.55,-1058.5 473.55,-1148.5 473.55,-1148.5 473.55,-1154.5 467.55,-1160.5 461.55,-1160.5 461.55,-1160.5 237.8254,-1160.5 237.8254,-1160.5 231.8254,-1160.5 225.8254,-1154.5 225.8254,-1148.5 225.8254,-1148.5 225.8254,-1058.5 225.8254,-1058.5 225.8254,-1052.5 231.8254,-1046.5 237.8254,-1046.5"/>
<text text-anchor="middle" x="349.6877" y="-1145.3" font-family="Times,serif" font-size="14.00" fill="#000000">Role</text>
<polyline fill="none" stroke="#000000" points="225.8254,-1138.5 473.55,-1138.5 "/>
<text text-anchor="start" x="233.8254" y="-1123.3" font-family="Times,serif" font-size="14.00" fill="#000000">id :uuid</text>
<text text-anchor="start" x="233.8254" y="-1109.3" font-family="Times,serif" font-size="14.00" fill="#000000">name :character varying</text>
<text text-anchor="start" x="233.8254" y="-1095.3" font-family="Times,serif" font-size="14.00" fill="#000000">code :character varying</text>
<text text-anchor="start" x="233.8254" y="-1081.3" font-family="Times,serif" font-size="14.00" fill="#000000">description :text</text>
<text text-anchor="start" x="233.8254" y="-1067.3" font-family="Times,serif" font-size="14.00" fill="#000000">created_at :timestamp without time zone</text>
<text text-anchor="start" x="233.8254" y="-1053.3" font-family="Times,serif" font-size="14.00" fill="#000000">updated_at :timestamp without time zone</text>
</g>
<!-- Role&#45;&gt;Group -->
<g id="edge8" class="edge">
<title>Role&#45;&gt;Group</title>
<path fill="none" stroke="#4fdd4b" d="M349.6877,-1036.3785C349.6877,-1028.2258 349.6877,-1019.935 349.6877,-1011.8882"/>
<polygon fill="#4fdd4b" stroke="#4fdd4b" points="349.6878,-1036.4684 345.1877,-1046.4683 349.6878,-1041.4684 349.6877,-1046.4684 349.6877,-1046.4684 349.6877,-1046.4684 349.6878,-1041.4684 354.1877,-1046.4684 349.6878,-1036.4684 349.6878,-1036.4684"/>
<polygon fill="#4fdd4b" stroke="#4fdd4b" points="349.6878,-1011.8549 354.1877,-1001.8548 349.6878,-1006.8549 349.6877,-1001.8549 349.6877,-1001.8549 349.6877,-1001.8549 349.6878,-1006.8549 345.1877,-1001.8549 349.6878,-1011.8549 349.6878,-1011.8549"/>
</g>
<!-- Role&#45;&gt;Capability -->
<g id="edge6" class="edge">
<title>Role&#45;&gt;Capability</title>
<path fill="none" stroke="#4c0322" d="M246.6479,-1040.7835C234.7252,-1029.3403 224.1738,-1016.3948 216.6877,-1002 148.8242,-871.5058 166.6424,-692.2416 183.4531,-596.3834"/>
<ellipse fill="none" stroke="#4c0322" cx="249.6641" cy="-1043.5673" rx="4" ry="4"/>
<polygon fill="#4c0322" stroke="#4c0322" points="183.456,-596.3669 189.6589,-587.3239 184.3431,-591.4462 185.2302,-586.5255 185.2302,-586.5255 185.2302,-586.5255 184.3431,-591.4462 180.8016,-585.7271 183.456,-596.3669 183.456,-596.3669"/>
</g>
<!-- Role&#45;&gt;Person -->
<g id="edge7" class="edge">
<title>Role&#45;&gt;Person</title>
<path fill="none" stroke="#46dbe1" d="M453.5425,-1039.1793C464.9926,-1028.1073 475.1975,-1015.6917 482.6877,-1002 506.1578,-959.0981 511.5968,-904.848 510.849,-859.7571"/>
<polygon fill="#46dbe1" stroke="#46dbe1" points="453.2095,-1039.486 442.8055,-1042.9513 449.5319,-1042.8736 445.8543,-1046.2611 445.8543,-1046.2611 445.8543,-1046.2611 449.5319,-1042.8736 448.9031,-1049.5709 453.2095,-1039.486 453.2095,-1039.486"/>
<polygon fill="#46dbe1" stroke="#46dbe1" points="510.8473,-859.6888 515.0767,-849.5714 510.7128,-854.6906 510.5783,-849.6924 510.5783,-849.6924 510.5783,-849.6924 510.7128,-854.6906 506.08,-849.8134 510.8473,-859.6888 510.8473,-859.6888"/>
</g>
<!-- Client -->
<g id="node8" class="node">
<title>Client</title>
<path fill="none" stroke="#000000" d="M503.8254,-1039.5C503.8254,-1039.5 727.55,-1039.5 727.55,-1039.5 733.55,-1039.5 739.55,-1045.5 739.55,-1051.5 739.55,-1051.5 739.55,-1155.5 739.55,-1155.5 739.55,-1161.5 733.55,-1167.5 727.55,-1167.5 727.55,-1167.5 503.8254,-1167.5 503.8254,-1167.5 497.8254,-1167.5 491.8254,-1161.5 491.8254,-1155.5 491.8254,-1155.5 491.8254,-1051.5 491.8254,-1051.5 491.8254,-1045.5 497.8254,-1039.5 503.8254,-1039.5"/>
<text text-anchor="middle" x="615.6877" y="-1152.3" font-family="Times,serif" font-size="14.00" fill="#000000">Client</text>
<polyline fill="none" stroke="#000000" points="491.8254,-1145.5 739.55,-1145.5 "/>
<text text-anchor="start" x="499.8254" y="-1130.3" font-family="Times,serif" font-size="14.00" fill="#000000">id :uuid</text>
<text text-anchor="start" x="499.8254" y="-1116.3" font-family="Times,serif" font-size="14.00" fill="#000000">name :character varying</text>
<text text-anchor="start" x="499.8254" y="-1102.3" font-family="Times,serif" font-size="14.00" fill="#000000">launch_url :character varying</text>
<text text-anchor="start" x="499.8254" y="-1088.3" font-family="Times,serif" font-size="14.00" fill="#000000">icon_url :character varying</text>
<text text-anchor="start" x="499.8254" y="-1074.3" font-family="Times,serif" font-size="14.00" fill="#000000">available :boolean</text>
<text text-anchor="start" x="499.8254" y="-1060.3" font-family="Times,serif" font-size="14.00" fill="#000000">created_at :timestamp without time zone</text>
<text text-anchor="start" x="499.8254" y="-1046.3" font-family="Times,serif" font-size="14.00" fill="#000000">updated_at :timestamp without time zone</text>
</g>
<!-- Ability -->
<g id="node9" class="node">
<title>Ability</title>
<polygon fill="none" stroke="#000000" points="757.8533,-1081.5 757.8533,-1125.5 813.5222,-1125.5 813.5222,-1081.5 757.8533,-1081.5"/>
<text text-anchor="middle" x="785.6877" y="-1110.3" font-family="Times,serif" font-size="14.00" fill="#000000">Ability</text>
<polyline fill="none" stroke="#000000" points="757.8533,-1103.5 813.5222,-1103.5 "/>
<text text-anchor="middle" x="785.6877" y="-1088.3" font-family="Times,serif" font-size="14.00" fill="#000000"> </text>
</g>
<!-- Timeline -->
<g id="node10" class="node">
<title>Timeline</title>
<path fill="none" stroke="#000000" d="M351.8254,-299.5C351.8254,-299.5 575.55,-299.5 575.55,-299.5 581.55,-299.5 587.55,-305.5 587.55,-311.5 587.55,-311.5 587.55,-359.5 587.55,-359.5 587.55,-365.5 581.55,-371.5 575.55,-371.5 575.55,-371.5 351.8254,-371.5 351.8254,-371.5 345.8254,-371.5 339.8254,-365.5 339.8254,-359.5 339.8254,-359.5 339.8254,-311.5 339.8254,-311.5 339.8254,-305.5 345.8254,-299.5 351.8254,-299.5"/>
<text text-anchor="middle" x="463.6877" y="-356.3" font-family="Times,serif" font-size="14.00" fill="#000000">Timeline</text>
<polyline fill="none" stroke="#000000" points="339.8254,-349.5 587.55,-349.5 "/>
<text text-anchor="start" x="347.8254" y="-334.3" font-family="Times,serif" font-size="14.00" fill="#000000">id :uuid</text>
<text text-anchor="start" x="347.8254" y="-320.3" font-family="Times,serif" font-size="14.00" fill="#000000">created_at :timestamp without time zone</text>
<text text-anchor="start" x="347.8254" y="-306.3" font-family="Times,serif" font-size="14.00" fill="#000000">updated_at :timestamp without time zone</text>
</g>
<!-- Timeline&#45;&gt;Event -->
<g id="edge9" class="edge">
<title>Timeline&#45;&gt;Event</title>
<path fill="none" stroke="#8984e0" d="M514.9642,-294.0548C538.8122,-274.7791 568.3846,-250.8766 597.879,-227.0372"/>
<ellipse fill="none" stroke="#8984e0" cx="511.6211" cy="-296.7568" rx="4" ry="4"/>
<polygon fill="#8984e0" stroke="#8984e0" points="598.0027,-226.9372 608.6087,-224.1508 601.8913,-223.7941 605.78,-220.651 605.78,-220.651 605.78,-220.651 601.8913,-223.7941 602.9512,-217.1513 598.0027,-226.9372 598.0027,-226.9372"/>
</g>
<!-- Person&#45;&gt;Identity -->
<g id="edge13" class="edge">
<title>Person&#45;&gt;Identity</title>
<path fill="none" stroke="#f0f0ad" d="M580.895,-687.4292C596.5136,-670.8515 613.096,-653.2509 629.3057,-636.0458"/>
<ellipse fill="none" stroke="#f0f0ad" cx="578.1409" cy="-690.3523" rx="4" ry="4"/>
<polygon fill="#f0f0ad" stroke="#f0f0ad" points="629.3686,-635.979 639.5014,-631.7864 632.7974,-632.3398 636.2261,-628.7005 636.2261,-628.7005 636.2261,-628.7005 632.7974,-632.3398 632.9507,-625.6147 629.3686,-635.979 629.3686,-635.979"/>
</g>
<!-- Person&#45;&gt;Capability -->
<g id="edge12" class="edge">
<title>Person&#45;&gt;Capability</title>
<path fill="none" stroke="#987968" d="M396.983,-688.1495C357.9327,-657.0634 314.2567,-622.295 277.7671,-593.2474"/>
<ellipse fill="none" stroke="#987968" cx="400.278" cy="-690.7725" rx="4" ry="4"/>
<polygon fill="#987968" stroke="#987968" points="277.4402,-592.9871 272.4191,-583.2383 273.5283,-589.8731 269.6164,-586.759 269.6164,-586.759 269.6164,-586.759 273.5283,-589.8731 266.8137,-590.2797 277.4402,-592.9871 277.4402,-592.9871"/>
</g>
<!-- Person&#45;&gt;Member -->
<g id="edge11" class="edge">
<title>Person&#45;&gt;Member</title>
<path fill="none" stroke="#0c4fb6" d="M488.1542,-685.3126C483.182,-653.6474 477.6638,-618.5056 473.1284,-589.6222"/>
<ellipse fill="none" stroke="#0c4fb6" cx="488.7822" cy="-689.3122" rx="4" ry="4"/>
<polygon fill="#0c4fb6" stroke="#0c4fb6" points="473.119,-589.5617 476.0132,-578.9846 472.3433,-584.6222 471.5677,-579.6827 471.5677,-579.6827 471.5677,-579.6827 472.3433,-584.6222 467.1221,-580.3808 473.119,-589.5617 473.119,-589.5617"/>
<text text-anchor="middle" x="522.0154" y="-649.8" font-family="Times,serif" font-size="14.00" fill="#000000">memberships</text>
</g>
<!-- Person&#45;&gt;Event -->
<g id="edge10" class="edge">
<title>Person&#45;&gt;Event</title>
<path fill="none" stroke="#eb33c7" d="M633.4248,-727.5813C730.7532,-693.8113 848.697,-649.564 862.6877,-629 950.4392,-500.0206 916.2721,-424.5084 862.6877,-278 859.1477,-268.321 854.7212,-258.8266 849.6524,-249.5977"/>
<ellipse fill="none" stroke="#eb33c7" cx="629.6422" cy="-728.8904" rx="4" ry="4"/>
<polygon fill="#eb33c7" stroke="#eb33c7" points="849.5954,-249.4987 848.5031,-238.5873 847.0996,-245.1661 844.6038,-240.8335 844.6038,-240.8335 844.6038,-240.8335 847.0996,-245.1661 840.7045,-243.0797 849.5954,-249.4987 849.5954,-249.4987"/>
</g>
<!-- IdentityProvider -->
<g id="node13" class="node">
<title>IdentityProvider</title>
<path fill="none" stroke="#000000" d="M794.8254,-679.5C794.8254,-679.5 1018.55,-679.5 1018.55,-679.5 1024.55,-679.5 1030.55,-685.5 1030.55,-691.5 1030.55,-691.5 1030.55,-851.5 1030.55,-851.5 1030.55,-857.5 1024.55,-863.5 1018.55,-863.5 1018.55,-863.5 794.8254,-863.5 794.8254,-863.5 788.8254,-863.5 782.8254,-857.5 782.8254,-851.5 782.8254,-851.5 782.8254,-691.5 782.8254,-691.5 782.8254,-685.5 788.8254,-679.5 794.8254,-679.5"/>
<text text-anchor="middle" x="906.6877" y="-848.3" font-family="Times,serif" font-size="14.00" fill="#000000">IdentityProvider</text>
<polyline fill="none" stroke="#000000" points="782.8254,-841.5 1030.55,-841.5 "/>
<text text-anchor="start" x="790.8254" y="-826.3" font-family="Times,serif" font-size="14.00" fill="#000000">scopes :character varying</text>
<text text-anchor="start" x="790.8254" y="-812.3" font-family="Times,serif" font-size="14.00" fill="#000000">name :character varying</text>
<text text-anchor="start" x="790.8254" y="-798.3" font-family="Times,serif" font-size="14.00" fill="#000000">issuer :character varying</text>
<text text-anchor="start" x="790.8254" y="-784.3" font-family="Times,serif" font-size="14.00" fill="#000000">client_id :character varying</text>
<text text-anchor="start" x="790.8254" y="-770.3" font-family="Times,serif" font-size="14.00" fill="#000000">client_secret :character varying</text>
<text text-anchor="start" x="790.8254" y="-756.3" font-family="Times,serif" font-size="14.00" fill="#000000">alternate_client_id :character varying</text>
<text text-anchor="start" x="790.8254" y="-742.3" font-family="Times,serif" font-size="14.00" fill="#000000">configuration :json</text>
<text text-anchor="start" x="790.8254" y="-728.3" font-family="Times,serif" font-size="14.00" fill="#000000">public_keys :json</text>
<text text-anchor="start" x="790.8254" y="-714.3" font-family="Times,serif" font-size="14.00" fill="#000000">created_at :timestamp without time zone</text>
<text text-anchor="start" x="790.8254" y="-700.3" font-family="Times,serif" font-size="14.00" fill="#000000">updated_at :timestamp without time zone</text>
<text text-anchor="start" x="790.8254" y="-686.3" font-family="Times,serif" font-size="14.00" fill="#000000">id :uuid</text>
</g>
<!-- IdentityProvider&#45;&gt;Identity -->
<g id="edge14" class="edge">
<title>IdentityProvider&#45;&gt;Identity</title>
<path fill="none" stroke="#38c7cd" d="M834.4126,-672.6832C825.7845,-660.8866 816.9434,-648.7987 808.2326,-636.889"/>
<ellipse fill="none" stroke="#38c7cd" cx="836.9053" cy="-676.0912" rx="4" ry="4"/>
<polygon fill="#38c7cd" stroke="#38c7cd" points="808.1306,-636.7495 805.8592,-626.0214 805.1788,-632.7138 802.2271,-628.678 802.2271,-628.678 802.2271,-628.678 805.1788,-632.7138 798.5949,-631.3346 808.1306,-636.7495 808.1306,-636.7495"/>
</g>
</g>
</svg>
