<?xml version="1.0" encoding="UTF-8" standalone="no"?>
<!DOCTYPE svg PUBLIC "-//W3C//DTD SVG 1.1//EN"
 "http://www.w3.org/Graphics/SVG/1.1/DTD/svg11.dtd">
<!-- Generated by graphviz version 2.40.1 (20161225.0304)
 -->
<!-- Title: models_diagram Pages: 1 -->
<svg width="1586pt" height="953pt"
 viewBox="0.00 0.00 1585.72 953.00" xmlns="http://www.w3.org/2000/svg" xmlns:xlink="http://www.w3.org/1999/xlink">
<g id="graph0" class="graph" transform="scale(1 1) rotate(0) translate(4 949)">
<title>models_diagram</title>
<polygon fill="transparent" stroke="transparent" points="-4,4 -4,-949 1581.7246,-949 1581.7246,4 -4,4"/>
<!-- _diagram_info -->
<g id="node1" class="node">
<title>_diagram_info</title>
<text text-anchor="start" x="725.1421" y="-902.6" font-family="Times,serif" font-size="13.00" fill="#000000">Models diagram</text>
<text text-anchor="start" x="725.1421" y="-889.6" font-family="Times,serif" font-size="13.00" fill="#000000">Date: May 21 2018 &#45; 16:21</text>
<text text-anchor="start" x="725.1421" y="-876.6" font-family="Times,serif" font-size="13.00" fill="#000000">Migration version: 1</text>
<text text-anchor="start" x="725.1421" y="-863.6" font-family="Times,serif" font-size="13.00" fill="#000000">Generated by RailRoady 1.5.3</text>
<text text-anchor="start" x="725.1421" y="-850.6" font-family="Times,serif" font-size="13.00" fill="#000000">http://railroady.prestonlee.com</text>
</g>
<!-- Context::UsageRole -->
<g id="node2" class="node">
<title>Context::UsageRole</title>
<path fill="none" stroke="#000000" d="M12,-187.5C12,-187.5 235.7246,-187.5 235.7246,-187.5 241.7246,-187.5 247.7246,-193.5 247.7246,-199.5 247.7246,-199.5 247.7246,-289.5 247.7246,-289.5 247.7246,-295.5 241.7246,-301.5 235.7246,-301.5 235.7246,-301.5 12,-301.5 12,-301.5 6,-301.5 0,-295.5 0,-289.5 0,-289.5 0,-199.5 0,-199.5 0,-193.5 6,-187.5 12,-187.5"/>
<text text-anchor="middle" x="123.8623" y="-286.3" font-family="Times,serif" font-size="14.00" fill="#000000">Context::UsageRole</text>
<polyline fill="none" stroke="#000000" points="0,-279.5 247.7246,-279.5 "/>
<text text-anchor="start" x="8" y="-264.3" font-family="Times,serif" font-size="14.00" fill="#000000">id :uuid</text>
<text text-anchor="start" x="8" y="-250.3" font-family="Times,serif" font-size="14.00" fill="#000000">activity_id :uuid</text>
<text text-anchor="start" x="8" y="-236.3" font-family="Times,serif" font-size="14.00" fill="#000000">asset_id :uuid</text>
<text text-anchor="start" x="8" y="-222.3" font-family="Times,serif" font-size="14.00" fill="#000000">created_at :timestamp without time zone</text>
<text text-anchor="start" x="8" y="-208.3" font-family="Times,serif" font-size="14.00" fill="#000000">updated_at :timestamp without time zone</text>
<text text-anchor="start" x="8" y="-194.3" font-family="Times,serif" font-size="14.00" fill="#000000">semantic_uri :character varying</text>
</g>
<!-- Context::Activity -->
<g id="node3" class="node">
<title>Context::Activity</title>
<path fill="none" stroke="#000000" d="M278,-401.5C278,-401.5 501.7246,-401.5 501.7246,-401.5 507.7246,-401.5 513.7246,-407.5 513.7246,-413.5 513.7246,-413.5 513.7246,-601.5 513.7246,-601.5 513.7246,-607.5 507.7246,-613.5 501.7246,-613.5 501.7246,-613.5 278,-613.5 278,-613.5 272,-613.5 266,-607.5 266,-601.5 266,-601.5 266,-413.5 266,-413.5 266,-407.5 272,-401.5 278,-401.5"/>
<text text-anchor="middle" x="389.8623" y="-598.3" font-family="Times,serif" font-size="14.00" fill="#000000">Context::Activity</text>
<polyline fill="none" stroke="#000000" points="266,-591.5 513.7246,-591.5 "/>
<text text-anchor="start" x="274" y="-576.3" font-family="Times,serif" font-size="14.00" fill="#000000">scope_id :uuid</text>
<text text-anchor="start" x="274" y="-562.3" font-family="Times,serif" font-size="14.00" fill="#000000">parent_id :uuid</text>
<text text-anchor="start" x="274" y="-548.3" font-family="Times,serif" font-size="14.00" fill="#000000">name :character varying</text>
<text text-anchor="start" x="274" y="-534.3" font-family="Times,serif" font-size="14.00" fill="#000000">description :text</text>
<text text-anchor="start" x="274" y="-520.3" font-family="Times,serif" font-size="14.00" fill="#000000">started_at :timestamp without time zone</text>
<text text-anchor="start" x="274" y="-506.3" font-family="Times,serif" font-size="14.00" fill="#000000">ended_at :timestamp without time zone</text>
<text text-anchor="start" x="274" y="-492.3" font-family="Times,serif" font-size="14.00" fill="#000000">semantic_uri :character varying</text>
<text text-anchor="start" x="274" y="-478.3" font-family="Times,serif" font-size="14.00" fill="#000000">created_at :timestamp without time zone</text>
<text text-anchor="start" x="274" y="-464.3" font-family="Times,serif" font-size="14.00" fill="#000000">updated_at :timestamp without time zone</text>
<text text-anchor="start" x="274" y="-450.3" font-family="Times,serif" font-size="14.00" fill="#000000">place_id :uuid</text>
<text text-anchor="start" x="274" y="-436.3" font-family="Times,serif" font-size="14.00" fill="#000000">system :boolean</text>
<text text-anchor="start" x="274" y="-422.3" font-family="Times,serif" font-size="14.00" fill="#000000">next_id :uuid</text>
<text text-anchor="start" x="274" y="-408.3" font-family="Times,serif" font-size="14.00" fill="#000000">id :uuid</text>
</g>
<!-- Context::Activity&#45;&gt;Context::UsageRole -->
<g id="edge2" class="edge">
<title>Context::Activity&#45;&gt;Context::UsageRole</title>
<path fill="none" stroke="#88b748" d="M276.3565,-395.2743C246.4912,-365.7458 215.2854,-334.892 188.9399,-308.8436"/>
<ellipse fill="none" stroke="#88b748" cx="279.5922" cy="-398.4736" rx="4" ry="4"/>
<polygon fill="#88b748" stroke="#88b748" points="188.7542,-308.66 184.807,-298.4291 185.1986,-305.1446 181.6431,-301.6291 181.6431,-301.6291 181.6431,-301.6291 185.1986,-305.1446 178.4792,-304.8291 188.7542,-308.66 188.7542,-308.66"/>
<text text-anchor="middle" x="289.9072" y="-371.8" font-family="Times,serif" font-size="14.00" fill="#000000">usage_roles</text>
</g>
<!-- Context::Activity&#45;&gt;Context::Activity -->
<g id="edge4" class="edge">
<title>Context::Activity&#45;&gt;Context::Activity</title>
<path fill="none" stroke="#9c1767" d="M522.1079,-512.5764C528.1753,-511.2908 531.7246,-509.5987 531.7246,-507.5 531.7246,-505.6294 528.9049,-504.0818 523.9958,-502.8572"/>
<ellipse fill="none" stroke="#9c1767" cx="517.8398" cy="-513.2632" rx="4" ry="4"/>
<polygon fill="#9c1767" stroke="#9c1767" points="523.743,-502.8134 514.6611,-496.6677 518.8168,-501.9573 513.8906,-501.1013 513.8906,-501.1013 513.8906,-501.1013 518.8168,-501.9573 513.1201,-505.5348 523.743,-502.8134 523.743,-502.8134"/>
<text text-anchor="middle" x="574.4902" y="-503.3" font-family="Times,serif" font-size="14.00" fill="#000000">child_activities</text>
</g>
<!-- Context::Activity&#45;&gt;Context::Activity -->
<g id="edge5" class="edge">
<title>Context::Activity&#45;&gt;Context::Activity</title>
<path fill="none" stroke="#cbfc83" d="M521.9741,-523.7482C572.8194,-523.8621 617.2559,-518.446 617.2559,-507.5 617.2559,-496.6891 573.9098,-491.2725 523.8542,-491.2501"/>
<ellipse fill="none" stroke="#cbfc83" cx="517.7644" cy="-523.7146" rx="4" ry="4"/>
<polygon fill="#cbfc83" stroke="#cbfc83" points="523.7643,-491.2506 513.7344,-486.8176 518.7644,-491.284 513.7645,-491.3175 513.7645,-491.3175 513.7645,-491.3175 518.7644,-491.284 513.7946,-495.8174 523.7643,-491.2506 523.7643,-491.2506"/>
<text text-anchor="middle" x="670.1318" y="-503.3" font-family="Times,serif" font-size="14.00" fill="#000000">previous_activities</text>
</g>
<!-- Context::Activity&#45;&gt;Context::Activity -->
<g id="edge6" class="edge">
<title>Context::Activity&#45;&gt;Context::Activity</title>
<path fill="none" stroke="#db5aa3" d="M522.0391,-530.3896C616.5684,-535.3914 723.0078,-527.7615 723.0078,-507.5 723.0078,-487.381 618.0607,-479.7166 524.0359,-484.5067"/>
<ellipse fill="none" stroke="#db5aa3" cx="517.8005" cy="-530.1479" rx="4" ry="4"/>
<polygon fill="#db5aa3" stroke="#db5aa3" points="523.7913,-484.5204 513.5551,-480.587 518.7991,-484.8002 513.807,-485.08 513.807,-485.08 513.807,-485.08 518.7991,-484.8002 514.0588,-489.5729 523.7913,-484.5204 523.7913,-484.5204"/>
<text text-anchor="middle" x="771.2148" y="-503.3" font-family="Times,serif" font-size="14.00" fill="#000000">scoped_activities</text>
</g>
<!-- Context::ActorRole -->
<g id="node5" class="node">
<title>Context::ActorRole</title>
<path fill="none" stroke="#000000" d="M544,-187.5C544,-187.5 767.7246,-187.5 767.7246,-187.5 773.7246,-187.5 779.7246,-193.5 779.7246,-199.5 779.7246,-199.5 779.7246,-289.5 779.7246,-289.5 779.7246,-295.5 773.7246,-301.5 767.7246,-301.5 767.7246,-301.5 544,-301.5 544,-301.5 538,-301.5 532,-295.5 532,-289.5 532,-289.5 532,-199.5 532,-199.5 532,-193.5 538,-187.5 544,-187.5"/>
<text text-anchor="middle" x="655.8623" y="-286.3" font-family="Times,serif" font-size="14.00" fill="#000000">Context::ActorRole</text>
<polyline fill="none" stroke="#000000" points="532,-279.5 779.7246,-279.5 "/>
<text text-anchor="start" x="540" y="-264.3" font-family="Times,serif" font-size="14.00" fill="#000000">id :uuid</text>
<text text-anchor="start" x="540" y="-250.3" font-family="Times,serif" font-size="14.00" fill="#000000">activity_id :uuid</text>
<text text-anchor="start" x="540" y="-236.3" font-family="Times,serif" font-size="14.00" fill="#000000">semantic_uri :character varying</text>
<text text-anchor="start" x="540" y="-222.3" font-family="Times,serif" font-size="14.00" fill="#000000">created_at :timestamp without time zone</text>
<text text-anchor="start" x="540" y="-208.3" font-family="Times,serif" font-size="14.00" fill="#000000">updated_at :timestamp without time zone</text>
<text text-anchor="start" x="540" y="-194.3" font-family="Times,serif" font-size="14.00" fill="#000000">person_id :uuid</text>
</g>
<!-- Context::Activity&#45;&gt;Context::ActorRole -->
<g id="edge1" class="edge">
<title>Context::Activity&#45;&gt;Context::ActorRole</title>
<path fill="none" stroke="#08fb45" d="M503.3681,-395.2743C533.2334,-365.7458 564.4392,-334.892 590.7848,-308.8436"/>
<ellipse fill="none" stroke="#08fb45" cx="500.1324" cy="-398.4736" rx="4" ry="4"/>
<polygon fill="#08fb45" stroke="#08fb45" points="590.9704,-308.66 601.2454,-304.8291 594.526,-305.1446 598.0815,-301.6291 598.0815,-301.6291 598.0815,-301.6291 594.526,-305.1446 594.9176,-298.4291 590.9704,-308.66 590.9704,-308.66"/>
<text text-anchor="middle" x="553.959" y="-371.8" font-family="Times,serif" font-size="14.00" fill="#000000">actor_roles</text>
</g>
<!-- Context::Objective -->
<g id="node7" class="node">
<title>Context::Objective</title>
<path fill="none" stroke="#000000" d="M278,-166.5C278,-166.5 501.7246,-166.5 501.7246,-166.5 507.7246,-166.5 513.7246,-172.5 513.7246,-178.5 513.7246,-178.5 513.7246,-310.5 513.7246,-310.5 513.7246,-316.5 507.7246,-322.5 501.7246,-322.5 501.7246,-322.5 278,-322.5 278,-322.5 272,-322.5 266,-316.5 266,-310.5 266,-310.5 266,-178.5 266,-178.5 266,-172.5 272,-166.5 278,-166.5"/>
<text text-anchor="middle" x="389.8623" y="-307.3" font-family="Times,serif" font-size="14.00" fill="#000000">Context::Objective</text>
<polyline fill="none" stroke="#000000" points="266,-300.5 513.7246,-300.5 "/>
<text text-anchor="start" x="274" y="-285.3" font-family="Times,serif" font-size="14.00" fill="#000000">activity_id :uuid</text>
<text text-anchor="start" x="274" y="-271.3" font-family="Times,serif" font-size="14.00" fill="#000000">formalized :boolean</text>
<text text-anchor="start" x="274" y="-257.3" font-family="Times,serif" font-size="14.00" fill="#000000">language :character varying</text>
<text text-anchor="start" x="274" y="-243.3" font-family="Times,serif" font-size="14.00" fill="#000000">semantic_uri :character varying</text>
<text text-anchor="start" x="274" y="-229.3" font-family="Times,serif" font-size="14.00" fill="#000000">specification :character varying</text>
<text text-anchor="start" x="274" y="-215.3" font-family="Times,serif" font-size="14.00" fill="#000000">comment :text</text>
<text text-anchor="start" x="274" y="-201.3" font-family="Times,serif" font-size="14.00" fill="#000000">created_at :timestamp without time zone</text>
<text text-anchor="start" x="274" y="-187.3" font-family="Times,serif" font-size="14.00" fill="#000000">updated_at :timestamp without time zone</text>
<text text-anchor="start" x="274" y="-173.3" font-family="Times,serif" font-size="14.00" fill="#000000">id :uuid</text>
</g>
<!-- Context::Activity&#45;&gt;Context::Objective -->
<g id="edge3" class="edge">
<title>Context::Activity&#45;&gt;Context::Objective</title>
<path fill="none" stroke="#c49e6a" d="M389.8623,-393.2549C389.8623,-373.0036 389.8623,-352.1968 389.8623,-332.8006"/>
<ellipse fill="none" stroke="#c49e6a" cx="389.8624" cy="-397.2859" rx="4" ry="4"/>
<polygon fill="#c49e6a" stroke="#c49e6a" points="389.8624,-332.7966 394.3623,-322.7966 389.8624,-327.7966 389.8623,-322.7966 389.8623,-322.7966 389.8623,-322.7966 389.8624,-327.7966 385.3623,-322.7967 389.8624,-332.7966 389.8624,-332.7966"/>
<text text-anchor="middle" x="418.2417" y="-371.8" font-family="Times,serif" font-size="14.00" fill="#000000">objectives</text>
</g>
<!-- Context::Asset -->
<g id="node4" class="node">
<title>Context::Asset</title>
<path fill="none" stroke="#000000" d="M12,-464.5C12,-464.5 235.7246,-464.5 235.7246,-464.5 241.7246,-464.5 247.7246,-470.5 247.7246,-476.5 247.7246,-476.5 247.7246,-538.5 247.7246,-538.5 247.7246,-544.5 241.7246,-550.5 235.7246,-550.5 235.7246,-550.5 12,-550.5 12,-550.5 6,-550.5 0,-544.5 0,-538.5 0,-538.5 0,-476.5 0,-476.5 0,-470.5 6,-464.5 12,-464.5"/>
<text text-anchor="middle" x="123.8623" y="-535.3" font-family="Times,serif" font-size="14.00" fill="#000000">Context::Asset</text>
<polyline fill="none" stroke="#000000" points="0,-528.5 247.7246,-528.5 "/>
<text text-anchor="start" x="8" y="-513.3" font-family="Times,serif" font-size="14.00" fill="#000000">id :uuid</text>
<text text-anchor="start" x="8" y="-499.3" font-family="Times,serif" font-size="14.00" fill="#000000">uri :character varying</text>
<text text-anchor="start" x="8" y="-485.3" font-family="Times,serif" font-size="14.00" fill="#000000">created_at :timestamp without time zone</text>
<text text-anchor="start" x="8" y="-471.3" font-family="Times,serif" font-size="14.00" fill="#000000">updated_at :timestamp without time zone</text>
</g>
<!-- Context::Asset&#45;&gt;Context::UsageRole -->
<g id="edge7" class="edge">
<title>Context::Asset&#45;&gt;Context::UsageRole</title>
<path fill="none" stroke="#7f703d" d="M123.8623,-456.3307C123.8623,-415.2259 123.8623,-357.1448 123.8623,-312.1934"/>
<ellipse fill="none" stroke="#7f703d" cx="123.8624" cy="-460.3654" rx="4" ry="4"/>
<polygon fill="#7f703d" stroke="#7f703d" points="123.8624,-311.9422 128.3623,-301.9422 123.8624,-306.9422 123.8623,-301.9422 123.8623,-301.9422 123.8623,-301.9422 123.8624,-306.9422 119.3623,-301.9423 123.8624,-311.9422 123.8624,-311.9422"/>
<text text-anchor="middle" x="156.9072" y="-371.8" font-family="Times,serif" font-size="14.00" fill="#000000">usage_roles</text>
</g>
<!-- Context::Place -->
<g id="node6" class="node">
<title>Context::Place</title>
<path fill="none" stroke="#000000" d="M278,-664.5C278,-664.5 501.7246,-664.5 501.7246,-664.5 507.7246,-664.5 513.7246,-670.5 513.7246,-676.5 513.7246,-676.5 513.7246,-766.5 513.7246,-766.5 513.7246,-772.5 507.7246,-778.5 501.7246,-778.5 501.7246,-778.5 278,-778.5 278,-778.5 272,-778.5 266,-772.5 266,-766.5 266,-766.5 266,-676.5 266,-676.5 266,-670.5 272,-664.5 278,-664.5"/>
<text text-anchor="middle" x="389.8623" y="-763.3" font-family="Times,serif" font-size="14.00" fill="#000000">Context::Place</text>
<polyline fill="none" stroke="#000000" points="266,-756.5 513.7246,-756.5 "/>
<text text-anchor="start" x="274" y="-741.3" font-family="Times,serif" font-size="14.00" fill="#000000">id :uuid</text>
<text text-anchor="start" x="274" y="-727.3" font-family="Times,serif" font-size="14.00" fill="#000000">name :character varying</text>
<text text-anchor="start" x="274" y="-713.3" font-family="Times,serif" font-size="14.00" fill="#000000">address :text</text>
<text text-anchor="start" x="274" y="-699.3" font-family="Times,serif" font-size="14.00" fill="#000000">description :text</text>
<text text-anchor="start" x="274" y="-685.3" font-family="Times,serif" font-size="14.00" fill="#000000">created_at :timestamp without time zone</text>
<text text-anchor="start" x="274" y="-671.3" font-family="Times,serif" font-size="14.00" fill="#000000">updated_at :timestamp without time zone</text>
</g>
<!-- Context::Place&#45;&gt;Context::Activity -->
<g id="edge8" class="edge">
<title>Context::Place&#45;&gt;Context::Activity</title>
<path fill="none" stroke="#5384ac" d="M389.8623,-656.1702C389.8623,-645.8313 389.8623,-634.8772 389.8623,-623.7891"/>
<ellipse fill="none" stroke="#5384ac" cx="389.8624" cy="-660.433" rx="4" ry="4"/>
<polygon fill="#5384ac" stroke="#5384ac" points="389.8624,-623.5822 394.3623,-613.5822 389.8624,-618.5822 389.8623,-613.5822 389.8623,-613.5822 389.8623,-613.5822 389.8624,-618.5822 385.3623,-613.5823 389.8624,-623.5822 389.8624,-623.5822"/>
<text text-anchor="middle" x="415.1313" y="-634.8" font-family="Times,serif" font-size="14.00" fill="#000000">activities</text>
</g>
<!-- System::Identity -->
<g id="node8" class="node">
<title>System::Identity</title>
<path fill="none" stroke="#000000" d="M1076,-138.5C1076,-138.5 1299.7246,-138.5 1299.7246,-138.5 1305.7246,-138.5 1311.7246,-144.5 1311.7246,-150.5 1311.7246,-150.5 1311.7246,-338.5 1311.7246,-338.5 1311.7246,-344.5 1305.7246,-350.5 1299.7246,-350.5 1299.7246,-350.5 1076,-350.5 1076,-350.5 1070,-350.5 1064,-344.5 1064,-338.5 1064,-338.5 1064,-150.5 1064,-150.5 1064,-144.5 1070,-138.5 1076,-138.5"/>
<text text-anchor="middle" x="1187.8623" y="-335.3" font-family="Times,serif" font-size="14.00" fill="#000000">System::Identity</text>
<polyline fill="none" stroke="#000000" points="1064,-328.5 1311.7246,-328.5 "/>
<text text-anchor="start" x="1072" y="-313.3" font-family="Times,serif" font-size="14.00" fill="#000000">updated_at :timestamp without time zone</text>
<text text-anchor="start" x="1072" y="-299.3" font-family="Times,serif" font-size="14.00" fill="#000000">person_id :uuid</text>
<text text-anchor="start" x="1072" y="-285.3" font-family="Times,serif" font-size="14.00" fill="#000000">identity_provider_id :uuid</text>
<text text-anchor="start" x="1072" y="-271.3" font-family="Times,serif" font-size="14.00" fill="#000000">sub :character varying</text>
<text text-anchor="start" x="1072" y="-257.3" font-family="Times,serif" font-size="14.00" fill="#000000">iat :character varying</text>
<text text-anchor="start" x="1072" y="-243.3" font-family="Times,serif" font-size="14.00" fill="#000000">hd :character varying</text>
<text text-anchor="start" x="1072" y="-229.3" font-family="Times,serif" font-size="14.00" fill="#000000">locale :character varying</text>
<text text-anchor="start" x="1072" y="-215.3" font-family="Times,serif" font-size="14.00" fill="#000000">email :character varying</text>
<text text-anchor="start" x="1072" y="-201.3" font-family="Times,serif" font-size="14.00" fill="#000000">jwt :json</text>
<text text-anchor="start" x="1072" y="-187.3" font-family="Times,serif" font-size="14.00" fill="#000000">notify_via_email :boolean</text>
<text text-anchor="start" x="1072" y="-173.3" font-family="Times,serif" font-size="14.00" fill="#000000">notify_via_sms :boolean</text>
<text text-anchor="start" x="1072" y="-159.3" font-family="Times,serif" font-size="14.00" fill="#000000">created_at :timestamp without time zone</text>
<text text-anchor="start" x="1072" y="-145.3" font-family="Times,serif" font-size="14.00" fill="#000000">id :uuid</text>
</g>
<!-- System::Session -->
<g id="node12" class="node">
<title>System::Session</title>
<path fill="none" stroke="#000000" d="M943,-.5C943,-.5 1166.7246,-.5 1166.7246,-.5 1172.7246,-.5 1178.7246,-6.5 1178.7246,-12.5 1178.7246,-12.5 1178.7246,-88.5 1178.7246,-88.5 1178.7246,-94.5 1172.7246,-100.5 1166.7246,-100.5 1166.7246,-100.5 943,-100.5 943,-100.5 937,-100.5 931,-94.5 931,-88.5 931,-88.5 931,-12.5 931,-12.5 931,-6.5 937,-.5 943,-.5"/>
<text text-anchor="middle" x="1054.8623" y="-85.3" font-family="Times,serif" font-size="14.00" fill="#000000">System::Session</text>
<polyline fill="none" stroke="#000000" points="931,-78.5 1178.7246,-78.5 "/>
<text text-anchor="start" x="939" y="-63.3" font-family="Times,serif" font-size="14.00" fill="#000000">id :uuid</text>
<text text-anchor="start" x="939" y="-49.3" font-family="Times,serif" font-size="14.00" fill="#000000">identity_id :uuid</text>
<text text-anchor="start" x="939" y="-35.3" font-family="Times,serif" font-size="14.00" fill="#000000">expires_at :timestamp without time zone</text>
<text text-anchor="start" x="939" y="-21.3" font-family="Times,serif" font-size="14.00" fill="#000000">created_at :timestamp without time zone</text>
<text text-anchor="start" x="939" y="-7.3" font-family="Times,serif" font-size="14.00" fill="#000000">updated_at :timestamp without time zone</text>
</g>
<!-- System::Identity&#45;&gt;System::Session -->
<g id="edge9" class="edge">
<title>System::Identity&#45;&gt;System::Session</title>
<path fill="none" stroke="#5182a6" d="M1110.525,-131.6922C1105.2255,-123.9622 1100.0205,-116.3698 1095.0493,-109.1186"/>
<ellipse fill="none" stroke="#5182a6" cx="1112.8742" cy="-135.1189" rx="4" ry="4"/>
<polygon fill="#5182a6" stroke="#5182a6" points="1094.9839,-109.0231 1093.0409,-98.2307 1092.1566,-104.8992 1089.3294,-100.7752 1089.3294,-100.7752 1089.3294,-100.7752 1092.1566,-104.8992 1085.6178,-103.3198 1094.9839,-109.0231 1094.9839,-109.0231"/>
</g>
<!-- System::JsonWebToken -->
<g id="node13" class="node">
<title>System::JsonWebToken</title>
<path fill="none" stroke="#000000" d="M1209,-.5C1209,-.5 1432.7246,-.5 1432.7246,-.5 1438.7246,-.5 1444.7246,-6.5 1444.7246,-12.5 1444.7246,-12.5 1444.7246,-88.5 1444.7246,-88.5 1444.7246,-94.5 1438.7246,-100.5 1432.7246,-100.5 1432.7246,-100.5 1209,-100.5 1209,-100.5 1203,-100.5 1197,-94.5 1197,-88.5 1197,-88.5 1197,-12.5 1197,-12.5 1197,-6.5 1203,-.5 1209,-.5"/>
<text text-anchor="middle" x="1320.8623" y="-85.3" font-family="Times,serif" font-size="14.00" fill="#000000">System::JsonWebToken</text>
<polyline fill="none" stroke="#000000" points="1197,-78.5 1444.7246,-78.5 "/>
<text text-anchor="start" x="1205" y="-63.3" font-family="Times,serif" font-size="14.00" fill="#000000">id :uuid</text>
<text text-anchor="start" x="1205" y="-49.3" font-family="Times,serif" font-size="14.00" fill="#000000">identity_id :uuid</text>
<text text-anchor="start" x="1205" y="-35.3" font-family="Times,serif" font-size="14.00" fill="#000000">expires_at :timestamp without time zone</text>
<text text-anchor="start" x="1205" y="-21.3" font-family="Times,serif" font-size="14.00" fill="#000000">created_at :timestamp without time zone</text>
<text text-anchor="start" x="1205" y="-7.3" font-family="Times,serif" font-size="14.00" fill="#000000">updated_at :timestamp without time zone</text>
</g>
<!-- System::Identity&#45;&gt;System::JsonWebToken -->
<g id="edge10" class="edge">
<title>System::Identity&#45;&gt;System::JsonWebToken</title>
<path fill="none" stroke="#1f71c8" d="M1265.1996,-131.6922C1270.4991,-123.9622 1275.7042,-116.3698 1280.6753,-109.1186"/>
<ellipse fill="none" stroke="#1f71c8" cx="1262.8504" cy="-135.1189" rx="4" ry="4"/>
<polygon fill="#1f71c8" stroke="#1f71c8" points="1280.7408,-109.0231 1290.1068,-103.3198 1283.568,-104.8992 1286.3953,-100.7752 1286.3953,-100.7752 1286.3953,-100.7752 1283.568,-104.8992 1282.6837,-98.2307 1280.7408,-109.0231 1280.7408,-109.0231"/>
</g>
<!-- System::Group -->
<g id="node9" class="node">
<title>System::Group</title>
<path fill="none" stroke="#000000" d="M923,-671.5C923,-671.5 1146.7246,-671.5 1146.7246,-671.5 1152.7246,-671.5 1158.7246,-677.5 1158.7246,-683.5 1158.7246,-683.5 1158.7246,-759.5 1158.7246,-759.5 1158.7246,-765.5 1152.7246,-771.5 1146.7246,-771.5 1146.7246,-771.5 923,-771.5 923,-771.5 917,-771.5 911,-765.5 911,-759.5 911,-759.5 911,-683.5 911,-683.5 911,-677.5 917,-671.5 923,-671.5"/>
<text text-anchor="middle" x="1034.8623" y="-756.3" font-family="Times,serif" font-size="14.00" fill="#000000">System::Group</text>
<polyline fill="none" stroke="#000000" points="911,-749.5 1158.7246,-749.5 "/>
<text text-anchor="start" x="919" y="-734.3" font-family="Times,serif" font-size="14.00" fill="#000000">id :uuid</text>
<text text-anchor="start" x="919" y="-720.3" font-family="Times,serif" font-size="14.00" fill="#000000">name :character varying</text>
<text text-anchor="start" x="919" y="-706.3" font-family="Times,serif" font-size="14.00" fill="#000000">description :text</text>
<text text-anchor="start" x="919" y="-692.3" font-family="Times,serif" font-size="14.00" fill="#000000">created_at :timestamp without time zone</text>
<text text-anchor="start" x="919" y="-678.3" font-family="Times,serif" font-size="14.00" fill="#000000">updated_at :timestamp without time zone</text>
</g>
<!-- System::Capability -->
<g id="node10" class="node">
<title>System::Capability</title>
<path fill="none" stroke="#000000" d="M1342,-187.5C1342,-187.5 1565.7246,-187.5 1565.7246,-187.5 1571.7246,-187.5 1577.7246,-193.5 1577.7246,-199.5 1577.7246,-199.5 1577.7246,-289.5 1577.7246,-289.5 1577.7246,-295.5 1571.7246,-301.5 1565.7246,-301.5 1565.7246,-301.5 1342,-301.5 1342,-301.5 1336,-301.5 1330,-295.5 1330,-289.5 1330,-289.5 1330,-199.5 1330,-199.5 1330,-193.5 1336,-187.5 1342,-187.5"/>
<text text-anchor="middle" x="1453.8623" y="-286.3" font-family="Times,serif" font-size="14.00" fill="#000000">System::Capability</text>
<polyline fill="none" stroke="#000000" points="1330,-279.5 1577.7246,-279.5 "/>
<text text-anchor="start" x="1338" y="-264.3" font-family="Times,serif" font-size="14.00" fill="#000000">id :uuid</text>
<text text-anchor="start" x="1338" y="-250.3" font-family="Times,serif" font-size="14.00" fill="#000000">entity_id :uuid</text>
<text text-anchor="start" x="1338" y="-236.3" font-family="Times,serif" font-size="14.00" fill="#000000">entity_type :character varying</text>
<text text-anchor="start" x="1338" y="-222.3" font-family="Times,serif" font-size="14.00" fill="#000000">role_id :uuid</text>
<text text-anchor="start" x="1338" y="-208.3" font-family="Times,serif" font-size="14.00" fill="#000000">created_at :timestamp without time zone</text>
<text text-anchor="start" x="1338" y="-194.3" font-family="Times,serif" font-size="14.00" fill="#000000">updated_at :timestamp without time zone</text>
</g>
<!-- System::Group&#45;&gt;System::Capability -->
<g id="edge13" class="edge">
<title>System::Group&#45;&gt;System::Capability</title>
<path fill="none" stroke="#a4cc42" d="M1166.8332,-702.8363C1269.5239,-685.3728 1400.0839,-655.6984 1433.8623,-614 1470.1108,-569.2523 1465.3976,-405.9639 1459.317,-312.1109"/>
<ellipse fill="none" stroke="#a4cc42" cx="1162.8108" cy="-703.5128" rx="4" ry="4"/>
<polygon fill="#a4cc42" stroke="#a4cc42" points="1459.2987,-311.8362 1463.1194,-301.5575 1458.9641,-306.8474 1458.6295,-301.8586 1458.6295,-301.8586 1458.6295,-301.8586 1458.9641,-306.8474 1454.1396,-302.1598 1459.2987,-311.8362 1459.2987,-311.8362"/>
</g>
<!-- System::Member -->
<g id="node11" class="node">
<title>System::Member</title>
<path fill="none" stroke="#000000" d="M810,-194.5C810,-194.5 1033.7246,-194.5 1033.7246,-194.5 1039.7246,-194.5 1045.7246,-200.5 1045.7246,-206.5 1045.7246,-206.5 1045.7246,-282.5 1045.7246,-282.5 1045.7246,-288.5 1039.7246,-294.5 1033.7246,-294.5 1033.7246,-294.5 810,-294.5 810,-294.5 804,-294.5 798,-288.5 798,-282.5 798,-282.5 798,-206.5 798,-206.5 798,-200.5 804,-194.5 810,-194.5"/>
<text text-anchor="middle" x="921.8623" y="-279.3" font-family="Times,serif" font-size="14.00" fill="#000000">System::Member</text>
<polyline fill="none" stroke="#000000" points="798,-272.5 1045.7246,-272.5 "/>
<text text-anchor="start" x="806" y="-257.3" font-family="Times,serif" font-size="14.00" fill="#000000">id :uuid</text>
<text text-anchor="start" x="806" y="-243.3" font-family="Times,serif" font-size="14.00" fill="#000000">group_id :uuid</text>
<text text-anchor="start" x="806" y="-229.3" font-family="Times,serif" font-size="14.00" fill="#000000">person_id :uuid</text>
<text text-anchor="start" x="806" y="-215.3" font-family="Times,serif" font-size="14.00" fill="#000000">created_at :timestamp without time zone</text>
<text text-anchor="start" x="806" y="-201.3" font-family="Times,serif" font-size="14.00" fill="#000000">updated_at :timestamp without time zone</text>
</g>
<!-- System::Group&#45;&gt;System::Member -->
<g id="edge11" class="edge">
<title>System::Group&#45;&gt;System::Member</title>
<path fill="none" stroke="#ddfc98" d="M944.008,-666.14C927.0757,-651.4045 911.6501,-633.9387 901.8623,-614 852.9591,-514.3795 879.1605,-380.9586 901.3752,-304.7133"/>
<ellipse fill="none" stroke="#ddfc98" cx="947.2473" cy="-668.8681" rx="4" ry="4"/>
<polygon fill="#ddfc98" stroke="#ddfc98" points="901.4748,-304.3795 908.648,-296.0851 902.9054,-299.5885 904.3361,-294.7976 904.3361,-294.7976 904.3361,-294.7976 902.9054,-299.5885 900.0242,-293.51 901.4748,-304.3795 901.4748,-304.3795"/>
</g>
<!-- System::Person -->
<g id="node16" class="node">
<title>System::Person</title>
<path fill="none" stroke="#000000" d="M923,-429.5C923,-429.5 1146.7246,-429.5 1146.7246,-429.5 1152.7246,-429.5 1158.7246,-435.5 1158.7246,-441.5 1158.7246,-441.5 1158.7246,-573.5 1158.7246,-573.5 1158.7246,-579.5 1152.7246,-585.5 1146.7246,-585.5 1146.7246,-585.5 923,-585.5 923,-585.5 917,-585.5 911,-579.5 911,-573.5 911,-573.5 911,-441.5 911,-441.5 911,-435.5 917,-429.5 923,-429.5"/>
<text text-anchor="middle" x="1034.8623" y="-570.3" font-family="Times,serif" font-size="14.00" fill="#000000">System::Person</text>
<polyline fill="none" stroke="#000000" points="911,-563.5 1158.7246,-563.5 "/>
<text text-anchor="start" x="919" y="-548.3" font-family="Times,serif" font-size="14.00" fill="#000000">updated_at :timestamp without time zone</text>
<text text-anchor="start" x="919" y="-534.3" font-family="Times,serif" font-size="14.00" fill="#000000">name :character varying</text>
<text text-anchor="start" x="919" y="-520.3" font-family="Times,serif" font-size="14.00" fill="#000000">external_id :character varying</text>
<text text-anchor="start" x="919" y="-506.3" font-family="Times,serif" font-size="14.00" fill="#000000">salutation :character varying</text>
<text text-anchor="start" x="919" y="-492.3" font-family="Times,serif" font-size="14.00" fill="#000000">first_name :character varying</text>
<text text-anchor="start" x="919" y="-478.3" font-family="Times,serif" font-size="14.00" fill="#000000">middle_name :character varying</text>
<text text-anchor="start" x="919" y="-464.3" font-family="Times,serif" font-size="14.00" fill="#000000">last_name :character varying</text>
<text text-anchor="start" x="919" y="-450.3" font-family="Times,serif" font-size="14.00" fill="#000000">created_at :timestamp without time zone</text>
<text text-anchor="start" x="919" y="-436.3" font-family="Times,serif" font-size="14.00" fill="#000000">id :uuid</text>
</g>
<!-- System::Group&#45;&gt;System::Person -->
<g id="edge12" class="edge">
<title>System::Group&#45;&gt;System::Person</title>
<path fill="none" stroke="#2c2dec" d="M1034.8623,-661.2029C1034.8623,-640.9148 1034.8623,-617.8397 1034.8623,-595.849"/>
<polygon fill="#2c2dec" stroke="#2c2dec" points="1034.8624,-661.3265 1030.3623,-671.3265 1034.8624,-666.3265 1034.8623,-671.3265 1034.8623,-671.3265 1034.8623,-671.3265 1034.8624,-666.3265 1039.3623,-671.3266 1034.8624,-661.3265 1034.8624,-661.3265"/>
<polygon fill="#2c2dec" stroke="#2c2dec" points="1034.8624,-595.8355 1039.3623,-585.8354 1034.8624,-590.8355 1034.8623,-585.8355 1034.8623,-585.8355 1034.8623,-585.8355 1034.8624,-590.8355 1030.3623,-585.8355 1034.8624,-595.8355 1034.8624,-595.8355"/>
</g>
<!-- System::Role -->
<g id="node14" class="node">
<title>System::Role</title>
<path fill="none" stroke="#000000" d="M923,-823.5C923,-823.5 1146.7246,-823.5 1146.7246,-823.5 1152.7246,-823.5 1158.7246,-829.5 1158.7246,-835.5 1158.7246,-835.5 1158.7246,-925.5 1158.7246,-925.5 1158.7246,-931.5 1152.7246,-937.5 1146.7246,-937.5 1146.7246,-937.5 923,-937.5 923,-937.5 917,-937.5 911,-931.5 911,-925.5 911,-925.5 911,-835.5 911,-835.5 911,-829.5 917,-823.5 923,-823.5"/>
<text text-anchor="middle" x="1034.8623" y="-922.3" font-family="Times,serif" font-size="14.00" fill="#000000">System::Role</text>
<polyline fill="none" stroke="#000000" points="911,-915.5 1158.7246,-915.5 "/>
<text text-anchor="start" x="919" y="-900.3" font-family="Times,serif" font-size="14.00" fill="#000000">id :uuid</text>
<text text-anchor="start" x="919" y="-886.3" font-family="Times,serif" font-size="14.00" fill="#000000">name :character varying</text>
<text text-anchor="start" x="919" y="-872.3" font-family="Times,serif" font-size="14.00" fill="#000000">code :character varying</text>
<text text-anchor="start" x="919" y="-858.3" font-family="Times,serif" font-size="14.00" fill="#000000">description :text</text>
<text text-anchor="start" x="919" y="-844.3" font-family="Times,serif" font-size="14.00" fill="#000000">created_at :timestamp without time zone</text>
<text text-anchor="start" x="919" y="-830.3" font-family="Times,serif" font-size="14.00" fill="#000000">updated_at :timestamp without time zone</text>
</g>
<!-- System::Role&#45;&gt;System::Group -->
<g id="edge16" class="edge">
<title>System::Role&#45;&gt;System::Group</title>
<path fill="none" stroke="#0f176d" d="M1034.8623,-812.7033C1034.8623,-802.4978 1034.8623,-792.0292 1034.8623,-781.9902"/>
<polygon fill="#0f176d" stroke="#0f176d" points="1034.8624,-813.0974 1030.3623,-823.0973 1034.8624,-818.0974 1034.8623,-823.0974 1034.8623,-823.0974 1034.8623,-823.0974 1034.8624,-818.0974 1039.3623,-823.0974 1034.8624,-813.0974 1034.8624,-813.0974"/>
<polygon fill="#0f176d" stroke="#0f176d" points="1034.8624,-781.7131 1039.3623,-771.713 1034.8624,-776.7131 1034.8623,-771.7131 1034.8623,-771.7131 1034.8623,-771.7131 1034.8624,-776.7131 1030.3623,-771.7131 1034.8624,-781.7131 1034.8624,-781.7131"/>
</g>
<!-- System::Role&#45;&gt;System::Capability -->
<g id="edge14" class="edge">
<title>System::Role&#45;&gt;System::Capability</title>
<path fill="none" stroke="#b365dc" d="M1159.4888,-819.5846C1272.8114,-761.3733 1427.4543,-673.8638 1461.8623,-614 1515.8293,-520.1071 1495.1578,-389.4079 1474.8081,-311.2485"/>
<ellipse fill="none" stroke="#b365dc" cx="1155.6462" cy="-821.5526" rx="4" ry="4"/>
<polygon fill="#b365dc" stroke="#b365dc" points="1474.7887,-311.1757 1476.5518,-300.3525 1473.4967,-306.3455 1472.2046,-301.5153 1472.2046,-301.5153 1472.2046,-301.5153 1473.4967,-306.3455 1467.8575,-302.6781 1474.7887,-311.1757 1474.7887,-311.1757"/>
</g>
<!-- System::Role&#45;&gt;System::Person -->
<g id="edge15" class="edge">
<title>System::Role&#45;&gt;System::Person</title>
<path fill="none" stroke="#697fa9" d="M929.4257,-816.2223C918.3572,-805.1909 908.6777,-792.7745 901.8623,-779 879.1962,-733.1896 884.2308,-711.9737 901.8623,-664 911.1739,-638.6639 926.6089,-614.6269 943.7314,-593.3361"/>
<polygon fill="#697fa9" stroke="#697fa9" points="929.6164,-816.4025 933.7927,-826.5421 933.2501,-819.8371 936.8838,-823.2717 936.8838,-823.2717 936.8838,-823.2717 933.2501,-819.8371 939.975,-820.0014 929.6164,-816.4025 929.6164,-816.4025"/>
<polygon fill="#697fa9" stroke="#697fa9" points="943.7381,-593.328 953.5768,-588.4854 946.9229,-589.4735 950.1078,-585.6191 950.1078,-585.6191 950.1078,-585.6191 946.9229,-589.4735 946.6388,-582.7527 943.7381,-593.328 943.7381,-593.328"/>
</g>
<!-- System::Client -->
<g id="node15" class="node">
<title>System::Client</title>
<path fill="none" stroke="#000000" d="M1189,-816.5C1189,-816.5 1412.7246,-816.5 1412.7246,-816.5 1418.7246,-816.5 1424.7246,-822.5 1424.7246,-828.5 1424.7246,-828.5 1424.7246,-932.5 1424.7246,-932.5 1424.7246,-938.5 1418.7246,-944.5 1412.7246,-944.5 1412.7246,-944.5 1189,-944.5 1189,-944.5 1183,-944.5 1177,-938.5 1177,-932.5 1177,-932.5 1177,-828.5 1177,-828.5 1177,-822.5 1183,-816.5 1189,-816.5"/>
<text text-anchor="middle" x="1300.8623" y="-929.3" font-family="Times,serif" font-size="14.00" fill="#000000">System::Client</text>
<polyline fill="none" stroke="#000000" points="1177,-922.5 1424.7246,-922.5 "/>
<text text-anchor="start" x="1185" y="-907.3" font-family="Times,serif" font-size="14.00" fill="#000000">id :uuid</text>
<text text-anchor="start" x="1185" y="-893.3" font-family="Times,serif" font-size="14.00" fill="#000000">name :character varying</text>
<text text-anchor="start" x="1185" y="-879.3" font-family="Times,serif" font-size="14.00" fill="#000000">launch_url :character varying</text>
<text text-anchor="start" x="1185" y="-865.3" font-family="Times,serif" font-size="14.00" fill="#000000">icon_url :character varying</text>
<text text-anchor="start" x="1185" y="-851.3" font-family="Times,serif" font-size="14.00" fill="#000000">available :boolean</text>
<text text-anchor="start" x="1185" y="-837.3" font-family="Times,serif" font-size="14.00" fill="#000000">created_at :timestamp without time zone</text>
<text text-anchor="start" x="1185" y="-823.3" font-family="Times,serif" font-size="14.00" fill="#000000">updated_at :timestamp without time zone</text>
</g>
<!-- System::Person&#45;&gt;Context::ActorRole -->
<g id="edge20" class="edge">
<title>System::Person&#45;&gt;Context::ActorRole</title>
<path fill="none" stroke="#14d4a4" d="M903.9215,-425.9704C857.2605,-396.5399 810.8372,-366.7179 788.8623,-351 770.1887,-337.6434 750.6131,-322.5966 732.3988,-308.1121"/>
<ellipse fill="none" stroke="#14d4a4" cx="907.4206" cy="-428.1754" rx="4" ry="4"/>
<polygon fill="#14d4a4" stroke="#14d4a4" points="731.9447,-307.7491 726.9439,-297.9898 728.0393,-304.6269 724.134,-301.5047 724.134,-301.5047 724.134,-301.5047 728.0393,-304.6269 721.324,-305.0195 731.9447,-307.7491 731.9447,-307.7491"/>
<text text-anchor="middle" x="864.959" y="-371.8" font-family="Times,serif" font-size="14.00" fill="#000000">actor_roles</text>
</g>
<!-- System::Person&#45;&gt;System::Identity -->
<g id="edge19" class="edge">
<title>System::Person&#45;&gt;System::Identity</title>
<path fill="none" stroke="#d30c9f" d="M1084.4354,-422.286C1096.1158,-402.2081 1108.7561,-380.48 1121.0565,-359.336"/>
<ellipse fill="none" stroke="#d30c9f" cx="1082.3645" cy="-425.8459" rx="4" ry="4"/>
<polygon fill="#d30c9f" stroke="#d30c9f" points="1121.0895,-359.2794 1130.0077,-352.8985 1123.6037,-354.9575 1126.118,-350.6356 1126.118,-350.6356 1126.118,-350.6356 1123.6037,-354.9575 1122.2283,-348.3728 1121.0895,-359.2794 1121.0895,-359.2794"/>
</g>
<!-- System::Person&#45;&gt;System::Capability -->
<g id="edge18" class="edge">
<title>System::Person&#45;&gt;System::Capability</title>
<path fill="none" stroke="#686c65" d="M1130.4627,-424.473C1142.6206,-415.8865 1155.2372,-407.824 1167.8623,-401 1230.7964,-366.9835 1257.9282,-385.0165 1320.8623,-351 1342.7047,-339.194 1364.5216,-323.6809 1383.9817,-308.1608"/>
<ellipse fill="none" stroke="#686c65" cx="1127.0062" cy="-426.9579" rx="4" ry="4"/>
<polygon fill="#686c65" stroke="#686c65" points="1384.1162,-308.0517 1394.7184,-305.251 1388.0005,-304.9034 1391.8849,-301.755 1391.8849,-301.755 1391.8849,-301.755 1388.0005,-304.9034 1389.0514,-298.2591 1384.1162,-308.0517 1384.1162,-308.0517"/>
</g>
<!-- System::Person&#45;&gt;System::Member -->
<g id="edge17" class="edge">
<title>System::Person&#45;&gt;System::Member</title>
<path fill="none" stroke="#5c1788" d="M1010.3754,-421.2231C1004.5916,-403.7049 998.0048,-385.5765 990.8623,-369 981.3644,-346.957 969.1413,-323.719 957.628,-303.3659"/>
<ellipse fill="none" stroke="#5c1788" cx="1011.7388" cy="-425.4172" rx="4" ry="4"/>
<polygon fill="#5c1788" stroke="#5c1788" points="957.5405,-303.2128 956.4805,-292.2982 955.0575,-298.8728 952.5745,-294.5329 952.5745,-294.5329 952.5745,-294.5329 955.0575,-298.8728 948.6686,-296.7676 957.5405,-303.2128 957.5405,-303.2128"/>
<text text-anchor="middle" x="1032.1899" y="-371.8" font-family="Times,serif" font-size="14.00" fill="#000000">memberships</text>
</g>
<!-- System::IdentityProvider -->
<g id="node17" class="node">
<title>System::IdentityProvider</title>
<path fill="none" stroke="#000000" d="M1189,-415.5C1189,-415.5 1412.7246,-415.5 1412.7246,-415.5 1418.7246,-415.5 1424.7246,-421.5 1424.7246,-427.5 1424.7246,-427.5 1424.7246,-587.5 1424.7246,-587.5 1424.7246,-593.5 1418.7246,-599.5 1412.7246,-599.5 1412.7246,-599.5 1189,-599.5 1189,-599.5 1183,-599.5 1177,-593.5 1177,-587.5 1177,-587.5 1177,-427.5 1177,-427.5 1177,-421.5 1183,-415.5 1189,-415.5"/>
<text text-anchor="middle" x="1300.8623" y="-584.3" font-family="Times,serif" font-size="14.00" fill="#000000">System::IdentityProvider</text>
<polyline fill="none" stroke="#000000" points="1177,-577.5 1424.7246,-577.5 "/>
<text text-anchor="start" x="1185" y="-562.3" font-family="Times,serif" font-size="14.00" fill="#000000">scopes :character varying</text>
<text text-anchor="start" x="1185" y="-548.3" font-family="Times,serif" font-size="14.00" fill="#000000">name :character varying</text>
<text text-anchor="start" x="1185" y="-534.3" font-family="Times,serif" font-size="14.00" fill="#000000">issuer :character varying</text>
<text text-anchor="start" x="1185" y="-520.3" font-family="Times,serif" font-size="14.00" fill="#000000">client_id :character varying</text>
<text text-anchor="start" x="1185" y="-506.3" font-family="Times,serif" font-size="14.00" fill="#000000">client_secret :character varying</text>
<text text-anchor="start" x="1185" y="-492.3" font-family="Times,serif" font-size="14.00" fill="#000000">alternate_client_id :character varying</text>
<text text-anchor="start" x="1185" y="-478.3" font-family="Times,serif" font-size="14.00" fill="#000000">configuration :json</text>
<text text-anchor="start" x="1185" y="-464.3" font-family="Times,serif" font-size="14.00" fill="#000000">public_keys :json</text>
<text text-anchor="start" x="1185" y="-450.3" font-family="Times,serif" font-size="14.00" fill="#000000">created_at :timestamp without time zone</text>
<text text-anchor="start" x="1185" y="-436.3" font-family="Times,serif" font-size="14.00" fill="#000000">updated_at :timestamp without time zone</text>
<text text-anchor="start" x="1185" y="-422.3" font-family="Times,serif" font-size="14.00" fill="#000000">id :uuid</text>
</g>
<!-- System::IdentityProvider&#45;&gt;System::Identity -->
<g id="edge21" class="edge">
<title>System::IdentityProvider&#45;&gt;System::Identity</title>
<path fill="none" stroke="#ccd853" d="M1258.0053,-407.7532C1251.2909,-392.1259 1244.3031,-375.8623 1237.4529,-359.9188"/>
<ellipse fill="none" stroke="#ccd853" cx="1259.6025" cy="-411.4707" rx="4" ry="4"/>
<polygon fill="#ccd853" stroke="#ccd853" points="1237.3862,-359.7636 1237.5731,-348.7993 1235.4124,-355.1696 1233.4386,-350.5757 1233.4386,-350.5757 1233.4386,-350.5757 1235.4124,-355.1696 1229.304,-352.3522 1237.3862,-359.7636 1237.3862,-359.7636"/>
</g>
</g>
</svg>
