<?xml version="1.0" encoding="UTF-8" standalone="no"?>
<!DOCTYPE svg PUBLIC "-//W3C//DTD SVG 1.1//EN"
 "http://www.w3.org/Graphics/SVG/1.1/DTD/svg11.dtd">
<!-- Generated by graphviz version 2.38.0 (20140413.2041)
 -->
<!-- Title: models_diagram Pages: 1 -->
<svg width="1237pt" height="313pt"
 viewBox="0.00 0.00 1237.42 313.00" xmlns="http://www.w3.org/2000/svg" xmlns:xlink="http://www.w3.org/1999/xlink">
<g id="graph0" class="graph" transform="scale(1 1) rotate(0) translate(4 309)">
<title>models_diagram</title>
<polygon fill="none" stroke="none" points="-4,4 -4,-309 1233.42,-309 1233.42,4 -4,4"/>
<!-- _diagram_info -->
<g id="node1" class="node"><title>_diagram_info</title>
<text text-anchor="start" x="8" y="-290.6" font-family="Times,serif" font-size="13.00">Models diagram</text>
<text text-anchor="start" x="8" y="-277.6" font-family="Times,serif" font-size="13.00">Date: Jun 16 2016 &#45; 15:01</text>
<text text-anchor="start" x="8" y="-264.6" font-family="Times,serif" font-size="13.00">Migration version: 20160616191454</text>
<text text-anchor="start" x="8" y="-251.6" font-family="Times,serif" font-size="13.00">Generated by RailRoady 1.4.2</text>
<text text-anchor="start" x="8" y="-238.6" font-family="Times,serif" font-size="13.00">http://railroady.prestonlee.com</text>
</g>
<!-- Ability -->
<g id="node2" class="node"><title>Ability</title>
<polygon fill="none" stroke="black" points="281.358,-286.5 226.018,-286.5 226.018,-250.5 281.358,-250.5 281.358,-286.5"/>
<text text-anchor="middle" x="253.688" y="-264.3" font-family="Times,serif" font-size="14.00">Ability</text>
</g>
<!-- Capability -->
<g id="node3" class="node"><title>Capability</title>
<ellipse fill="none" stroke="black" cx="353.688" cy="-18" rx="46.8977" ry="18"/>
<text text-anchor="middle" x="353.688" y="-13.8" font-family="Times,serif" font-size="14.00">Capability</text>
</g>
<!-- Client -->
<g id="node4" class="node"><title>Client</title>
<ellipse fill="none" stroke="black" cx="414.688" cy="-268.5" rx="31.948" ry="18"/>
<text text-anchor="middle" x="414.688" y="-264.3" font-family="Times,serif" font-size="14.00">Client</text>
</g>
<!-- Context -->
<g id="node5" class="node"><title>Context</title>
<ellipse fill="none" stroke="black" cx="768.688" cy="-177" rx="38.2197" ry="18"/>
<text text-anchor="middle" x="768.688" y="-172.8" font-family="Times,serif" font-size="14.00">Context</text>
</g>
<!-- Focus -->
<g id="node6" class="node"><title>Focus</title>
<ellipse fill="none" stroke="black" cx="875.688" cy="-91" rx="31.4723" ry="18"/>
<text text-anchor="middle" x="875.688" y="-86.8" font-family="Times,serif" font-size="14.00">Focus</text>
</g>
<!-- Context&#45;&gt;Focus -->
<g id="edge2" class="edge"><title>Context&#45;&gt;Focus</title>
<path fill="none" stroke="#a6f41b" d="M794.176,-155.99C810.875,-142.881 832.646,-125.79 849.487,-112.569"/>
<ellipse fill="none" stroke="#a6f41b" cx="790.964" cy="-158.512" rx="4.00002" ry="4.00002"/>
<polygon fill="#a6f41b" stroke="#a6f41b" points="849.926,-112.224 860.57,-109.589 853.859,-109.137 857.792,-106.049 857.792,-106.049 857.792,-106.049 853.859,-109.137 855.013,-102.51 849.926,-112.224 849.926,-112.224"/>
</g>
<!-- Participant -->
<g id="node12" class="node"><title>Participant</title>
<ellipse fill="none" stroke="black" cx="702.688" cy="-91" rx="48.3341" ry="18"/>
<text text-anchor="middle" x="702.688" y="-86.8" font-family="Times,serif" font-size="14.00">Participant</text>
</g>
<!-- Context&#45;&gt;Participant -->
<g id="edge1" class="edge"><title>Context&#45;&gt;Participant</title>
<path fill="none" stroke="#fc6d7e" d="M750.769,-153.195C741.824,-141.81 730.996,-128.029 721.882,-116.429"/>
<ellipse fill="none" stroke="#fc6d7e" cx="753.491" cy="-156.659" rx="4.00002" ry="4.00002"/>
<polygon fill="#fc6d7e" stroke="#fc6d7e" points="721.778,-116.296 719.138,-105.653 718.688,-112.365 715.599,-108.433 715.599,-108.433 715.599,-108.433 718.688,-112.365 712.061,-111.213 721.778,-116.296 721.778,-116.296"/>
</g>
<!-- Group -->
<g id="node7" class="node"><title>Group</title>
<ellipse fill="none" stroke="black" cx="332.688" cy="-268.5" rx="32.9081" ry="18"/>
<text text-anchor="middle" x="332.688" y="-264.3" font-family="Times,serif" font-size="14.00">Group</text>
</g>
<!-- Group&#45;&gt;Capability -->
<g id="edge5" class="edge"><title>Group&#45;&gt;Capability</title>
<path fill="none" stroke="#908902" d="M312.452,-246.205C299.833,-232.291 283.755,-213.356 271.688,-195 240.106,-146.96 197.109,-121.042 228.688,-73 244.692,-48.6521 274.261,-35.2318 300.623,-27.8608"/>
<ellipse fill="none" stroke="#908902" cx="315.275" cy="-249.278" rx="4.00002" ry="4.00002"/>
<polygon fill="#908902" stroke="#908902" points="300.847,-27.8034 311.651,-29.681 305.691,-26.5625 310.535,-25.3217 310.535,-25.3217 310.535,-25.3217 305.691,-26.5625 309.418,-20.9625 300.847,-27.8034 300.847,-27.8034"/>
</g>
<!-- Member -->
<g id="node11" class="node"><title>Member</title>
<ellipse fill="none" stroke="black" cx="277.688" cy="-91" rx="40.1317" ry="18"/>
<text text-anchor="middle" x="277.688" y="-86.8" font-family="Times,serif" font-size="14.00">Member</text>
</g>
<!-- Group&#45;&gt;Member -->
<g id="edge3" class="edge"><title>Group&#45;&gt;Member</title>
<path fill="none" stroke="#aa0102" d="M317.371,-244.474C302.091,-220.006 279.638,-179.599 270.688,-141 269.044,-133.913 269.253,-126.155 270.269,-118.945"/>
<ellipse fill="none" stroke="#aa0102" cx="319.522" cy="-247.86" rx="4.00002" ry="4.00002"/>
<polygon fill="#aa0102" stroke="#aa0102" points="270.311,-118.732 276.631,-109.771 271.262,-113.823 272.214,-108.914 272.214,-108.914 272.214,-108.914 271.262,-113.823 267.796,-108.058 270.311,-118.732 270.311,-118.732"/>
</g>
<!-- User -->
<g id="node19" class="node"><title>User</title>
<ellipse fill="none" stroke="black" cx="575.688" cy="-177" rx="27" ry="18"/>
<text text-anchor="middle" x="575.688" y="-172.8" font-family="Times,serif" font-size="14.00">User</text>
</g>
<!-- Group&#45;&gt;User -->
<g id="edge4" class="edge"><title>Group&#45;&gt;User</title>
<path fill="none" stroke="#71a867" d="M354.498,-245.444C360.35,-240.452 366.939,-235.577 373.688,-232 427.353,-203.553 497.159,-189.224 539.082,-182.71"/>
<polygon fill="#71a867" stroke="#71a867" points="354.439,-245.497 344.006,-248.875 350.733,-248.854 347.028,-252.21 347.028,-252.21 347.028,-252.21 350.733,-248.854 350.049,-255.545 354.439,-245.497 354.439,-245.497"/>
<polygon fill="#71a867" stroke="#71a867" points="539.222,-182.689 549.775,-185.669 544.167,-181.953 549.113,-181.218 549.113,-181.218 549.113,-181.218 544.167,-181.953 548.451,-176.767 539.222,-182.689 539.222,-182.689"/>
</g>
<!-- Identity -->
<g id="node8" class="node"><title>Identity</title>
<ellipse fill="none" stroke="black" cx="1000.69" cy="-91" rx="37.7266" ry="18"/>
<text text-anchor="middle" x="1000.69" y="-86.8" font-family="Times,serif" font-size="14.00">Identity</text>
</g>
<!-- Session -->
<g id="node16" class="node"><title>Session</title>
<ellipse fill="none" stroke="black" cx="1000.69" cy="-18" rx="37.2681" ry="18"/>
<text text-anchor="middle" x="1000.69" y="-13.8" font-family="Times,serif" font-size="14.00">Session</text>
</g>
<!-- Identity&#45;&gt;Session -->
<g id="edge6" class="edge"><title>Identity&#45;&gt;Session</title>
<path fill="none" stroke="#1c6676" d="M1000.69,-64.791C1000.69,-58.832 1000.69,-52.4496 1000.69,-46.3988"/>
<ellipse fill="none" stroke="#1c6676" cx="1000.69" cy="-68.8129" rx="4" ry="4"/>
<polygon fill="#1c6676" stroke="#1c6676" points="1000.69,-46.0288 1005.19,-36.0288 1000.69,-41.0288 1000.69,-36.0288 1000.69,-36.0288 1000.69,-36.0288 1000.69,-41.0288 996.188,-36.0289 1000.69,-46.0288 1000.69,-46.0288"/>
</g>
<!-- Interest -->
<g id="node9" class="node"><title>Interest</title>
<ellipse fill="none" stroke="black" cx="791.688" cy="-18" rx="36.7489" ry="18"/>
<text text-anchor="middle" x="791.688" y="-13.8" font-family="Times,serif" font-size="14.00">Interest</text>
</g>
<!-- Issue -->
<g id="node10" class="node"><title>Issue</title>
<ellipse fill="none" stroke="black" cx="797.688" cy="-91" rx="28.0651" ry="18"/>
<text text-anchor="middle" x="797.688" y="-86.8" font-family="Times,serif" font-size="14.00">Issue</text>
</g>
<!-- Provider -->
<g id="node13" class="node"><title>Provider</title>
<ellipse fill="none" stroke="black" cx="1033.69" cy="-177" rx="40.6248" ry="18"/>
<text text-anchor="middle" x="1033.69" y="-172.8" font-family="Times,serif" font-size="14.00">Provider</text>
</g>
<!-- Provider&#45;&gt;Identity -->
<g id="edge7" class="edge"><title>Provider&#45;&gt;Identity</title>
<path fill="none" stroke="#ea8283" d="M1024.01,-151.374C1019.96,-141.045 1015.23,-129.014 1011.1,-118.493"/>
<ellipse fill="none" stroke="#ea8283" cx="1025.55" cy="-155.278" rx="4.00001" ry="4.00001"/>
<polygon fill="#ea8283" stroke="#ea8283" points="1011.01,-118.281 1011.54,-107.328 1009.18,-113.627 1007.36,-108.973 1007.36,-108.973 1007.36,-108.973 1009.18,-113.627 1003.17,-110.619 1011.01,-118.281 1011.01,-118.281"/>
</g>
<!-- Result -->
<g id="node14" class="node"><title>Result</title>
<ellipse fill="none" stroke="black" cx="531.688" cy="-91" rx="32.9168" ry="18"/>
<text text-anchor="middle" x="531.688" y="-86.8" font-family="Times,serif" font-size="14.00">Result</text>
</g>
<!-- Role -->
<g id="node15" class="node"><title>Role</title>
<ellipse fill="none" stroke="black" cx="609.688" cy="-91" rx="27" ry="18"/>
<text text-anchor="middle" x="609.688" y="-86.8" font-family="Times,serif" font-size="14.00">Role</text>
</g>
<!-- Role&#45;&gt;Capability -->
<g id="edge9" class="edge"><title>Role&#45;&gt;Capability</title>
<path fill="none" stroke="#c74bac" d="M581.416,-76.0063C578.83,-74.9226 576.228,-73.9013 573.688,-73 517.348,-53.0112 450.351,-37.7216 405.215,-28.598"/>
<ellipse fill="none" stroke="#c74bac" cx="585.389" cy="-77.767" rx="4.00002" ry="4.00002"/>
<polygon fill="#c74bac" stroke="#c74bac" points="405.171,-28.5892 396.243,-22.2212 400.267,-27.6118 395.364,-26.6344 395.364,-26.6344 395.364,-26.6344 400.267,-27.6118 394.484,-31.0475 405.171,-28.5892 405.171,-28.5892"/>
</g>
<!-- Role&#45;&gt;Group -->
<g id="edge11" class="edge"><title>Role&#45;&gt;Group</title>
<path fill="none" stroke="#2f89a8" d="M634.54,-111.688C638.677,-116.239 642.37,-121.405 644.688,-127 657.543,-158.036 639.634,-176.359 611.688,-195 522.632,-254.401 470.815,-186.993 373.688,-232 366.64,-235.266 359.876,-240.114 353.946,-245.185"/>
<polygon fill="#2f89a8" stroke="#2f89a8" points="634.481,-111.631 630.468,-101.425 630.903,-108.138 627.325,-104.646 627.325,-104.646 627.325,-104.646 630.903,-108.138 624.182,-107.866 634.481,-111.631 634.481,-111.631"/>
<polygon fill="#2f89a8" stroke="#2f89a8" points="353.783,-245.335 343.379,-248.8 350.105,-248.723 346.427,-252.11 346.427,-252.11 346.427,-252.11 350.105,-248.723 349.476,-255.42 353.783,-245.335 353.783,-245.335"/>
</g>
<!-- Role&#45;&gt;Interest -->
<g id="edge8" class="edge"><title>Role&#45;&gt;Interest</title>
<path fill="none" stroke="#78587e" d="M638.276,-76.2256C640.77,-75.1071 643.266,-74.0173 645.688,-73 681.504,-57.9531 723.132,-42.7779 752.752,-32.3629"/>
<ellipse fill="none" stroke="#78587e" cx="634.506" cy="-77.955" rx="4.00002" ry="4.00002"/>
<polygon fill="#78587e" stroke="#78587e" points="752.871,-32.3213 763.796,-33.2682 757.591,-30.6709 762.311,-29.0204 762.311,-29.0204 762.311,-29.0204 757.591,-30.6709 760.825,-24.7727 752.871,-32.3213 752.871,-32.3213"/>
</g>
<!-- Role&#45;&gt;User -->
<g id="edge10" class="edge"><title>Role&#45;&gt;User</title>
<path fill="none" stroke="#c5d5c9" d="M627.953,-115.712C632.032,-123.904 634.023,-133.023 629.688,-141 624.778,-150.034 616.419,-157.095 607.726,-162.436"/>
<polygon fill="#c5d5c9" stroke="#c5d5c9" points="627.846,-115.535 626.54,-104.647 625.265,-111.252 622.685,-106.969 622.685,-106.969 622.685,-106.969 625.265,-111.252 618.831,-109.291 627.846,-115.535 627.846,-115.535"/>
<polygon fill="#c5d5c9" stroke="#c5d5c9" points="607.449,-162.587 596.516,-163.441 603.062,-164.988 598.676,-167.388 598.676,-167.388 598.676,-167.388 603.062,-164.988 600.837,-171.336 607.449,-162.587 607.449,-162.587"/>
</g>
<!-- SnomedctConcept -->
<g id="node17" class="node"><title>SnomedctConcept</title>
<ellipse fill="none" stroke="black" cx="899.688" cy="-177" rx="74.8948" ry="18"/>
<text text-anchor="middle" x="899.688" y="-172.8" font-family="Times,serif" font-size="14.00">SnomedctConcept</text>
</g>
<!-- SnomedctConcept&#45;&gt;Focus -->
<g id="edge14" class="edge"><title>SnomedctConcept&#45;&gt;Focus</title>
<path fill="none" stroke="#bd0f5b" d="M892.542,-150.991C889.637,-140.824 886.276,-129.058 883.322,-118.721"/>
<ellipse fill="none" stroke="#bd0f5b" cx="893.732" cy="-155.155" rx="4.00001" ry="4.00001"/>
<polygon fill="#bd0f5b" stroke="#bd0f5b" points="883.285,-118.589 884.864,-107.737 881.911,-113.781 880.537,-108.973 880.537,-108.973 880.537,-108.973 881.911,-113.781 876.21,-110.21 883.285,-118.589 883.285,-118.589"/>
</g>
<!-- SnomedctConcept&#45;&gt;Interest -->
<g id="edge12" class="edge"><title>SnomedctConcept&#45;&gt;Interest</title>
<path fill="none" stroke="#ce4c19" d="M912.418,-151.403C921.981,-129.168 931.036,-96.4244 915.688,-73 898.209,-46.3248 864.374,-32.7545 836.457,-25.8922"/>
<ellipse fill="none" stroke="#ce4c19" cx="910.71" cy="-155.156" rx="4.00002" ry="4.00002"/>
<polygon fill="#ce4c19" stroke="#ce4c19" points="836.239,-25.8434 827.465,-19.2646 831.36,-24.7495 826.481,-23.6556 826.481,-23.6556 826.481,-23.6556 831.36,-24.7495 825.497,-28.0466 836.239,-25.8434 836.239,-25.8434"/>
</g>
<!-- SnomedctConcept&#45;&gt;Issue -->
<g id="edge13" class="edge"><title>SnomedctConcept&#45;&gt;Issue</title>
<path fill="none" stroke="#53f0c2" d="M872.983,-154.008C857.338,-141.124 837.713,-124.962 822.421,-112.368"/>
<ellipse fill="none" stroke="#53f0c2" cx="876.448" cy="-156.861" rx="4.00002" ry="4.00002"/>
<polygon fill="#53f0c2" stroke="#53f0c2" points="822.143,-112.14 817.285,-102.309 818.284,-108.961 814.424,-105.783 814.424,-105.783 814.424,-105.783 818.284,-108.961 811.563,-109.256 822.143,-112.14 822.143,-112.14"/>
</g>
<!-- SnomedctDescription -->
<g id="node18" class="node"><title>SnomedctDescription</title>
<ellipse fill="none" stroke="black" cx="1142.69" cy="-91" rx="86.9722" ry="18"/>
<text text-anchor="middle" x="1142.69" y="-86.8" font-family="Times,serif" font-size="14.00">SnomedctDescription</text>
</g>
<!-- SnomedctConcept&#45;&gt;SnomedctDescription -->
<g id="edge15" class="edge"><title>SnomedctConcept&#45;&gt;SnomedctDescription</title>
<path fill="none" stroke="#bc43ad" d="M948.39,-159.165C989.526,-144.945 1048.3,-124.629 1090.41,-110.07"/>
<ellipse fill="none" stroke="#bc43ad" cx="944.415" cy="-160.539" rx="4.00001" ry="4.00001"/>
<polygon fill="#bc43ad" stroke="#bc43ad" points="1090.48,-110.046 1101.41,-111.031 1095.21,-108.412 1099.94,-106.778 1099.94,-106.778 1099.94,-106.778 1095.21,-108.412 1098.47,-102.525 1090.48,-110.046 1090.48,-110.046"/>
</g>
<!-- User&#45;&gt;Capability -->
<g id="edge17" class="edge"><title>User&#45;&gt;Capability</title>
<path fill="none" stroke="#2199e1" d="M540.572,-176.109C492.089,-174.177 405.713,-162.819 362.163,-109 348.086,-91.6033 347.061,-65.6637 348.916,-46.0955"/>
<ellipse fill="none" stroke="#2199e1" cx="544.592" cy="-176.233" rx="4" ry="4"/>
<polygon fill="#2199e1" stroke="#2199e1" points="348.941,-45.8976 354.644,-36.5314 349.56,-40.9361 350.178,-35.9745 350.178,-35.9745 350.178,-35.9745 349.56,-40.9361 345.713,-35.4176 348.941,-45.8976 348.941,-45.8976"/>
<text text-anchor="middle" x="425.45" y="-86.8" font-family="Times,serif" font-size="14.00">individual_capabilities</text>
</g>
<!-- User&#45;&gt;Focus -->
<g id="edge23" class="edge"><title>User&#45;&gt;Focus</title>
<path fill="none" stroke="#ec9660" d="M608.886,-168.977C658.584,-158.114 755.003,-135.681 834.688,-109 837.117,-108.187 839.607,-107.298 842.101,-106.366"/>
<ellipse fill="none" stroke="#ec9660" cx="604.94" cy="-169.834" rx="4.00001" ry="4.00001"/>
<polygon fill="#ec9660" stroke="#ec9660" points="842.308,-106.285 853.261,-106.827 846.964,-104.461 851.619,-102.637 851.619,-102.637 851.619,-102.637 846.964,-104.461 849.977,-98.4471 842.308,-106.285 842.308,-106.285"/>
</g>
<!-- User&#45;&gt;Identity -->
<g id="edge19" class="edge"><title>User&#45;&gt;Identity</title>
<path fill="none" stroke="#ee9f80" d="M609.676,-169.882C647.359,-163.049 709.929,-151.56 763.688,-141 831.289,-127.72 909.52,-111.35 957.032,-101.296"/>
<ellipse fill="none" stroke="#ee9f80" cx="605.503" cy="-170.637" rx="4.00001" ry="4.00001"/>
<polygon fill="#ee9f80" stroke="#ee9f80" points="957.195,-101.262 967.911,-103.591 962.086,-100.225 966.978,-99.1888 966.978,-99.1888 966.978,-99.1888 962.086,-100.225 966.045,-94.7865 957.195,-101.262 957.195,-101.262"/>
</g>
<!-- User&#45;&gt;Issue -->
<g id="edge20" class="edge"><title>User&#45;&gt;Issue</title>
<path fill="none" stroke="#7a81cd" d="M607.328,-165.251C644.196,-152.548 706.814,-130.422 759.688,-109 761.756,-108.162 763.878,-107.279 766.011,-106.374"/>
<ellipse fill="none" stroke="#7a81cd" cx="603.203" cy="-166.668" rx="4.00001" ry="4.00001"/>
<polygon fill="#7a81cd" stroke="#7a81cd" points="766.127,-106.324 777.092,-106.462 770.712,-104.33 775.297,-102.336 775.297,-102.336 775.297,-102.336 770.712,-104.33 773.502,-98.209 766.127,-106.324 766.127,-106.324"/>
</g>
<!-- User&#45;&gt;Member -->
<g id="edge16" class="edge"><title>User&#45;&gt;Member</title>
<path fill="none" stroke="#526a9f" d="M540.422,-174.255C466.314,-170.242 299.762,-159.273 282.032,-141 276.491,-135.289 274.408,-127.245 274,-119.322"/>
<ellipse fill="none" stroke="#526a9f" cx="544.57" cy="-174.475" rx="4" ry="4"/>
<polygon fill="#526a9f" stroke="#526a9f" points="274.004,-119.179 278.776,-109.306 274.141,-114.181 274.278,-109.183 274.278,-109.183 274.278,-109.183 274.141,-114.181 269.78,-109.059 274.004,-119.179 274.004,-119.179"/>
<text text-anchor="middle" x="319.015" y="-129.8" font-family="Times,serif" font-size="14.00">memberships</text>
</g>
<!-- User&#45;&gt;Participant -->
<g id="edge22" class="edge"><title>User&#45;&gt;Participant</title>
<path fill="none" stroke="#160650" d="M605.353,-162.823C617.865,-156.794 632.357,-149.175 644.688,-141 656.391,-133.241 668.397,-123.455 678.428,-114.672"/>
<ellipse fill="none" stroke="#160650" cx="601.473" cy="-164.654" rx="4.00002" ry="4.00002"/>
<polygon fill="#160650" stroke="#160650" points="678.548,-114.565 689.003,-111.257 682.276,-111.233 686.005,-107.902 686.005,-107.902 686.005,-107.902 682.276,-111.233 683.006,-104.546 678.548,-114.565 678.548,-114.565"/>
</g>
<!-- User&#45;&gt;Result -->
<g id="edge21" class="edge"><title>User&#45;&gt;Result</title>
<path fill="none" stroke="#073512" d="M546.9,-161.569C539.254,-156.223 531.946,-149.376 527.688,-141 524.23,-134.2 523.675,-126.176 524.416,-118.611"/>
<ellipse fill="none" stroke="#073512" cx="550.567" cy="-163.907" rx="4.00002" ry="4.00002"/>
<polygon fill="#073512" stroke="#073512" points="524.418,-118.599 530.517,-109.486 525.249,-113.668 526.08,-108.738 526.08,-108.738 526.08,-108.738 525.249,-113.668 521.642,-107.99 524.418,-118.599 524.418,-118.599"/>
</g>
<!-- User&#45;&gt;Role -->
<g id="edge18" class="edge"><title>User&#45;&gt;Role</title>
<path fill="none" stroke="#340d7f" d="M547.175,-158.675C536.072,-149.659 527.535,-138.201 534.701,-127 544.986,-110.923 556.395,-117.075 573.688,-109 575.473,-108.167 577.306,-107.308 579.156,-106.44"/>
<polygon fill="#340d7f" stroke="#340d7f" points="547.448,-158.875 552.872,-168.405 551.487,-161.823 555.525,-164.771 555.525,-164.771 555.525,-164.771 551.487,-161.823 558.179,-161.136 547.448,-158.875 547.448,-158.875"/>
<polygon fill="#340d7f" stroke="#340d7f" points="579.334,-106.357 590.298,-106.17 583.858,-104.227 588.382,-102.098 588.382,-102.098 588.382,-102.098 583.858,-104.227 586.466,-98.0267 579.334,-106.357 579.334,-106.357"/>
<text text-anchor="middle" x="580.181" y="-129.8" font-family="Times,serif" font-size="14.00">individual_roles</text>
</g>
</g>
</svg>
