<?xml version="1.0" encoding="UTF-8" standalone="no"?>
<!DOCTYPE svg PUBLIC "-//W3C//DTD SVG 1.1//EN"
 "http://www.w3.org/Graphics/SVG/1.1/DTD/svg11.dtd">
<!-- Generated by graphviz version 2.38.0 (20140413.2041)
 -->
<!-- Title: models_diagram Pages: 1 -->
<svg width="2390pt" height="774pt"
 viewBox="0.00 0.00 2389.72 774.00" xmlns="http://www.w3.org/2000/svg" xmlns:xlink="http://www.w3.org/1999/xlink">
<g id="graph0" class="graph" transform="scale(1 1) rotate(0) translate(4 770)">
<title>models_diagram</title>
<polygon fill="none" stroke="none" points="-4,4 -4,-770 2385.72,-770 2385.72,4 -4,4"/>
<!-- _diagram_info -->
<g id="node1" class="node"><title>_diagram_info</title>
<text text-anchor="start" x="1311.41" y="-723.6" font-family="Times,serif" font-size="13.00">Models diagram</text>
<text text-anchor="start" x="1311.41" y="-710.6" font-family="Times,serif" font-size="13.00">Date: Jun 10 2016 &#45; 17:08</text>
<text text-anchor="start" x="1311.41" y="-697.6" font-family="Times,serif" font-size="13.00">Migration version: 20160611000504</text>
<text text-anchor="start" x="1311.41" y="-684.6" font-family="Times,serif" font-size="13.00">Generated by RailRoady 1.4.2</text>
<text text-anchor="start" x="1311.41" y="-671.6" font-family="Times,serif" font-size="13.00">http://railroady.prestonlee.com</text>
</g>
<!-- Ability -->
<g id="node2" class="node"><title>Ability</title>
<polygon fill="none" stroke="black" points="1528.03,-679.5 1528.03,-723.5 1583.7,-723.5 1583.7,-679.5 1528.03,-679.5"/>
<text text-anchor="middle" x="1555.86" y="-708.3" font-family="Times,serif" font-size="14.00">Ability</text>
<polyline fill="none" stroke="black" points="1528.03,-701.5 1583.7,-701.5 "/>
<text text-anchor="middle" x="1555.86" y="-686.3" font-family="Times,serif" font-size="14.00"> </text>
</g>
<!-- Capability -->
<g id="node3" class="node"><title>Capability</title>
<path fill="none" stroke="black" d="M1779,-0.5C1779,-0.5 2002.72,-0.5 2002.72,-0.5 2008.72,-0.5 2014.72,-6.5 2014.72,-12.5 2014.72,-12.5 2014.72,-102.5 2014.72,-102.5 2014.72,-108.5 2008.72,-114.5 2002.72,-114.5 2002.72,-114.5 1779,-114.5 1779,-114.5 1773,-114.5 1767,-108.5 1767,-102.5 1767,-102.5 1767,-12.5 1767,-12.5 1767,-6.5 1773,-0.5 1779,-0.5"/>
<text text-anchor="middle" x="1890.86" y="-99.3" font-family="Times,serif" font-size="14.00">Capability</text>
<polyline fill="none" stroke="black" points="1767,-92.5 2014.72,-92.5 "/>
<text text-anchor="start" x="1775" y="-77.3" font-family="Times,serif" font-size="14.00">id :uuid</text>
<text text-anchor="start" x="1775" y="-63.3" font-family="Times,serif" font-size="14.00">entity_id :uuid</text>
<text text-anchor="start" x="1775" y="-49.3" font-family="Times,serif" font-size="14.00">entity_type :character varying</text>
<text text-anchor="start" x="1775" y="-35.3" font-family="Times,serif" font-size="14.00">role_id :uuid</text>
<text text-anchor="start" x="1775" y="-21.3" font-family="Times,serif" font-size="14.00">created_at :timestamp without time zone</text>
<text text-anchor="start" x="1775" y="-7.3" font-family="Times,serif" font-size="14.00">updated_at :timestamp without time zone</text>
</g>
<!-- Client -->
<g id="node4" class="node"><title>Client</title>
<path fill="none" stroke="black" d="M1880,-637.5C1880,-637.5 2103.72,-637.5 2103.72,-637.5 2109.72,-637.5 2115.72,-643.5 2115.72,-649.5 2115.72,-649.5 2115.72,-753.5 2115.72,-753.5 2115.72,-759.5 2109.72,-765.5 2103.72,-765.5 2103.72,-765.5 1880,-765.5 1880,-765.5 1874,-765.5 1868,-759.5 1868,-753.5 1868,-753.5 1868,-649.5 1868,-649.5 1868,-643.5 1874,-637.5 1880,-637.5"/>
<text text-anchor="middle" x="1991.86" y="-750.3" font-family="Times,serif" font-size="14.00">Client</text>
<polyline fill="none" stroke="black" points="1868,-743.5 2115.72,-743.5 "/>
<text text-anchor="start" x="1876" y="-728.3" font-family="Times,serif" font-size="14.00">icon_url :character varying</text>
<text text-anchor="start" x="1876" y="-714.3" font-family="Times,serif" font-size="14.00">name :character varying</text>
<text text-anchor="start" x="1876" y="-700.3" font-family="Times,serif" font-size="14.00">launch_url :character varying</text>
<text text-anchor="start" x="1876" y="-686.3" font-family="Times,serif" font-size="14.00">id :uuid</text>
<text text-anchor="start" x="1876" y="-672.3" font-family="Times,serif" font-size="14.00">available :boolean</text>
<text text-anchor="start" x="1876" y="-658.3" font-family="Times,serif" font-size="14.00">created_at :timestamp without time zone</text>
<text text-anchor="start" x="1876" y="-644.3" font-family="Times,serif" font-size="14.00">updated_at :timestamp without time zone</text>
</g>
<!-- Context -->
<g id="node5" class="node"><title>Context</title>
<path fill="none" stroke="black" d="M2146,-651.5C2146,-651.5 2369.72,-651.5 2369.72,-651.5 2375.72,-651.5 2381.72,-657.5 2381.72,-663.5 2381.72,-663.5 2381.72,-739.5 2381.72,-739.5 2381.72,-745.5 2375.72,-751.5 2369.72,-751.5 2369.72,-751.5 2146,-751.5 2146,-751.5 2140,-751.5 2134,-745.5 2134,-739.5 2134,-739.5 2134,-663.5 2134,-663.5 2134,-657.5 2140,-651.5 2146,-651.5"/>
<text text-anchor="middle" x="2257.86" y="-736.3" font-family="Times,serif" font-size="14.00">Context</text>
<polyline fill="none" stroke="black" points="2134,-729.5 2381.72,-729.5 "/>
<text text-anchor="start" x="2142" y="-714.3" font-family="Times,serif" font-size="14.00">id :uuid</text>
<text text-anchor="start" x="2142" y="-700.3" font-family="Times,serif" font-size="14.00">name :character varying</text>
<text text-anchor="start" x="2142" y="-686.3" font-family="Times,serif" font-size="14.00">scope :character varying</text>
<text text-anchor="start" x="2142" y="-672.3" font-family="Times,serif" font-size="14.00">created_at :timestamp without time zone</text>
<text text-anchor="start" x="2142" y="-658.3" font-family="Times,serif" font-size="14.00">updated_at :timestamp without time zone</text>
</g>
<!-- Encounter -->
<g id="node6" class="node"><title>Encounter</title>
<path fill="none" stroke="black" d="M544,-180.5C544,-180.5 767.725,-180.5 767.725,-180.5 773.725,-180.5 779.725,-186.5 779.725,-192.5 779.725,-192.5 779.725,-324.5 779.725,-324.5 779.725,-330.5 773.725,-336.5 767.725,-336.5 767.725,-336.5 544,-336.5 544,-336.5 538,-336.5 532,-330.5 532,-324.5 532,-324.5 532,-192.5 532,-192.5 532,-186.5 538,-180.5 544,-180.5"/>
<text text-anchor="middle" x="655.862" y="-321.3" font-family="Times,serif" font-size="14.00">Encounter</text>
<polyline fill="none" stroke="black" points="532,-314.5 779.725,-314.5 "/>
<text text-anchor="start" x="540" y="-299.3" font-family="Times,serif" font-size="14.00">updated_at :timestamp without time zone</text>
<text text-anchor="start" x="540" y="-285.3" font-family="Times,serif" font-size="14.00">external_id :character varying</text>
<text text-anchor="start" x="540" y="-271.3" font-family="Times,serif" font-size="14.00">user_id :uuid</text>
<text text-anchor="start" x="540" y="-257.3" font-family="Times,serif" font-size="14.00">issue_id :uuid</text>
<text text-anchor="start" x="540" y="-243.3" font-family="Times,serif" font-size="14.00">context_id :uuid</text>
<text text-anchor="start" x="540" y="-229.3" font-family="Times,serif" font-size="14.00">started_at :timestamp without time zone</text>
<text text-anchor="start" x="540" y="-215.3" font-family="Times,serif" font-size="14.00">ended_at :timestamp without time zone</text>
<text text-anchor="start" x="540" y="-201.3" font-family="Times,serif" font-size="14.00">created_at :timestamp without time zone</text>
<text text-anchor="start" x="540" y="-187.3" font-family="Times,serif" font-size="14.00">id :uuid</text>
</g>
<!-- Participant -->
<g id="node12" class="node"><title>Participant</title>
<path fill="none" stroke="black" d="M544,-7.5C544,-7.5 767.725,-7.5 767.725,-7.5 773.725,-7.5 779.725,-13.5 779.725,-19.5 779.725,-19.5 779.725,-95.5 779.725,-95.5 779.725,-101.5 773.725,-107.5 767.725,-107.5 767.725,-107.5 544,-107.5 544,-107.5 538,-107.5 532,-101.5 532,-95.5 532,-95.5 532,-19.5 532,-19.5 532,-13.5 538,-7.5 544,-7.5"/>
<text text-anchor="middle" x="655.862" y="-92.3" font-family="Times,serif" font-size="14.00">Participant</text>
<polyline fill="none" stroke="black" points="532,-85.5 779.725,-85.5 "/>
<text text-anchor="start" x="540" y="-70.3" font-family="Times,serif" font-size="14.00">id :uuid</text>
<text text-anchor="start" x="540" y="-56.3" font-family="Times,serif" font-size="14.00">encounter_id :uuid</text>
<text text-anchor="start" x="540" y="-42.3" font-family="Times,serif" font-size="14.00">user_id :uuid</text>
<text text-anchor="start" x="540" y="-28.3" font-family="Times,serif" font-size="14.00">created_at :timestamp without time zone</text>
<text text-anchor="start" x="540" y="-14.3" font-family="Times,serif" font-size="14.00">updated_at :timestamp without time zone</text>
</g>
<!-- Encounter&#45;&gt;Participant -->
<g id="edge1" class="edge"><title>Encounter&#45;&gt;Participant</title>
<path fill="none" stroke="#2390c1" d="M655.862,-172.187C655.862,-153.887 655.862,-134.934 655.862,-117.872"/>
<ellipse fill="none" stroke="#2390c1" cx="655.862" cy="-176.277" rx="4" ry="4"/>
<polygon fill="#2390c1" stroke="#2390c1" points="655.862,-117.515 660.362,-107.515 655.862,-112.515 655.862,-107.515 655.862,-107.515 655.862,-107.515 655.862,-112.515 651.362,-107.516 655.862,-117.515 655.862,-117.515"/>
</g>
<!-- Group -->
<g id="node7" class="node"><title>Group</title>
<path fill="none" stroke="black" d="M1614,-651.5C1614,-651.5 1837.72,-651.5 1837.72,-651.5 1843.72,-651.5 1849.72,-657.5 1849.72,-663.5 1849.72,-663.5 1849.72,-739.5 1849.72,-739.5 1849.72,-745.5 1843.72,-751.5 1837.72,-751.5 1837.72,-751.5 1614,-751.5 1614,-751.5 1608,-751.5 1602,-745.5 1602,-739.5 1602,-739.5 1602,-663.5 1602,-663.5 1602,-657.5 1608,-651.5 1614,-651.5"/>
<text text-anchor="middle" x="1725.86" y="-736.3" font-family="Times,serif" font-size="14.00">Group</text>
<polyline fill="none" stroke="black" points="1602,-729.5 1849.72,-729.5 "/>
<text text-anchor="start" x="1610" y="-714.3" font-family="Times,serif" font-size="14.00">id :uuid</text>
<text text-anchor="start" x="1610" y="-700.3" font-family="Times,serif" font-size="14.00">name :character varying</text>
<text text-anchor="start" x="1610" y="-686.3" font-family="Times,serif" font-size="14.00">description :text</text>
<text text-anchor="start" x="1610" y="-672.3" font-family="Times,serif" font-size="14.00">created_at :timestamp without time zone</text>
<text text-anchor="start" x="1610" y="-658.3" font-family="Times,serif" font-size="14.00">updated_at :timestamp without time zone</text>
</g>
<!-- Group&#45;&gt;Capability -->
<g id="edge4" class="edge"><title>Group&#45;&gt;Capability</title>
<path fill="none" stroke="#2c58ce" d="M1798.29,-646.122C1871.14,-586.436 1978.94,-483.232 2023.86,-365 2057.49,-276.507 2067.5,-236.011 2023.86,-152 2018.06,-140.833 2010.25,-130.72 2001.3,-121.632"/>
<ellipse fill="none" stroke="#2c58ce" cx="1794.89" cy="-648.883" rx="4.00002" ry="4.00002"/>
<polygon fill="#2c58ce" stroke="#2c58ce" points="2001.13,-121.468 1997,-111.308 1997.51,-118.016 1993.9,-114.563 1993.9,-114.563 1993.9,-114.563 1997.51,-118.016 1990.79,-117.818 2001.13,-121.468 2001.13,-121.468"/>
</g>
<!-- Member -->
<g id="node11" class="node"><title>Member</title>
<path fill="none" stroke="black" d="M278,-208.5C278,-208.5 501.725,-208.5 501.725,-208.5 507.725,-208.5 513.725,-214.5 513.725,-220.5 513.725,-220.5 513.725,-296.5 513.725,-296.5 513.725,-302.5 507.725,-308.5 501.725,-308.5 501.725,-308.5 278,-308.5 278,-308.5 272,-308.5 266,-302.5 266,-296.5 266,-296.5 266,-220.5 266,-220.5 266,-214.5 272,-208.5 278,-208.5"/>
<text text-anchor="middle" x="389.862" y="-293.3" font-family="Times,serif" font-size="14.00">Member</text>
<polyline fill="none" stroke="black" points="266,-286.5 513.725,-286.5 "/>
<text text-anchor="start" x="274" y="-271.3" font-family="Times,serif" font-size="14.00">id :uuid</text>
<text text-anchor="start" x="274" y="-257.3" font-family="Times,serif" font-size="14.00">group_id :uuid</text>
<text text-anchor="start" x="274" y="-243.3" font-family="Times,serif" font-size="14.00">user_id :uuid</text>
<text text-anchor="start" x="274" y="-229.3" font-family="Times,serif" font-size="14.00">created_at :timestamp without time zone</text>
<text text-anchor="start" x="274" y="-215.3" font-family="Times,serif" font-size="14.00">updated_at :timestamp without time zone</text>
</g>
<!-- Group&#45;&gt;Member -->
<g id="edge2" class="edge"><title>Group&#45;&gt;Member</title>
<path fill="none" stroke="#66bdf4" d="M1626.14,-648.34C1615.11,-643.951 1603.89,-640.038 1592.86,-637 1421.17,-589.676 1368.2,-636.409 1193.86,-600 912.516,-541.242 842.832,-512.997 579.862,-397 533.625,-376.604 487.562,-343.666 452.372,-315.141"/>
<ellipse fill="none" stroke="#66bdf4" cx="1630.03" cy="-649.934" rx="4.00001" ry="4.00001"/>
<polygon fill="#66bdf4" stroke="#66bdf4" points="452.312,-315.092 447.432,-305.272 448.445,-311.922 444.579,-308.752 444.579,-308.752 444.579,-308.752 448.445,-311.922 441.726,-312.232 452.312,-315.092 452.312,-315.092"/>
</g>
<!-- User -->
<g id="node17" class="node"><title>User</title>
<path fill="none" stroke="black" d="M1215,-429.5C1215,-429.5 1438.72,-429.5 1438.72,-429.5 1444.72,-429.5 1450.72,-435.5 1450.72,-441.5 1450.72,-441.5 1450.72,-573.5 1450.72,-573.5 1450.72,-579.5 1444.72,-585.5 1438.72,-585.5 1438.72,-585.5 1215,-585.5 1215,-585.5 1209,-585.5 1203,-579.5 1203,-573.5 1203,-573.5 1203,-441.5 1203,-441.5 1203,-435.5 1209,-429.5 1215,-429.5"/>
<text text-anchor="middle" x="1326.86" y="-570.3" font-family="Times,serif" font-size="14.00">User</text>
<polyline fill="none" stroke="black" points="1203,-563.5 1450.72,-563.5 "/>
<text text-anchor="start" x="1211" y="-548.3" font-family="Times,serif" font-size="14.00">updated_at :timestamp without time zone</text>
<text text-anchor="start" x="1211" y="-534.3" font-family="Times,serif" font-size="14.00">name :character varying</text>
<text text-anchor="start" x="1211" y="-520.3" font-family="Times,serif" font-size="14.00">external_id :character varying</text>
<text text-anchor="start" x="1211" y="-506.3" font-family="Times,serif" font-size="14.00">salutation :character varying</text>
<text text-anchor="start" x="1211" y="-492.3" font-family="Times,serif" font-size="14.00">first_name :character varying</text>
<text text-anchor="start" x="1211" y="-478.3" font-family="Times,serif" font-size="14.00">middle_name :character varying</text>
<text text-anchor="start" x="1211" y="-464.3" font-family="Times,serif" font-size="14.00">last_name :character varying</text>
<text text-anchor="start" x="1211" y="-450.3" font-family="Times,serif" font-size="14.00">created_at :timestamp without time zone</text>
<text text-anchor="start" x="1211" y="-436.3" font-family="Times,serif" font-size="14.00">id :uuid</text>
</g>
<!-- Group&#45;&gt;User -->
<g id="edge3" class="edge"><title>Group&#45;&gt;User</title>
<path fill="none" stroke="#d0799c" d="M1614.83,-647.071C1566.93,-624.021 1510.5,-596.866 1460.34,-572.73"/>
<polygon fill="#d0799c" stroke="#d0799c" points="1614.88,-647.093 1621.94,-655.484 1619.38,-649.261 1623.89,-651.429 1623.89,-651.429 1623.89,-651.429 1619.38,-649.261 1625.84,-647.374 1614.88,-647.093 1614.88,-647.093"/>
<polygon fill="#d0799c" stroke="#d0799c" points="1460.06,-572.596 1453,-564.205 1455.56,-570.428 1451.05,-568.26 1451.05,-568.26 1451.05,-568.26 1455.56,-570.428 1449.1,-572.315 1460.06,-572.596 1460.06,-572.596"/>
</g>
<!-- Identity -->
<g id="node8" class="node"><title>Identity</title>
<path fill="none" stroke="black" d="M12,-152.5C12,-152.5 235.725,-152.5 235.725,-152.5 241.725,-152.5 247.725,-158.5 247.725,-164.5 247.725,-164.5 247.725,-352.5 247.725,-352.5 247.725,-358.5 241.725,-364.5 235.725,-364.5 235.725,-364.5 12,-364.5 12,-364.5 6,-364.5 0,-358.5 0,-352.5 0,-352.5 0,-164.5 0,-164.5 0,-158.5 6,-152.5 12,-152.5"/>
<text text-anchor="middle" x="123.862" y="-349.3" font-family="Times,serif" font-size="14.00">Identity</text>
<polyline fill="none" stroke="black" points="0,-342.5 247.725,-342.5 "/>
<text text-anchor="start" x="8" y="-327.3" font-family="Times,serif" font-size="14.00">updated_at :timestamp without time zone</text>
<text text-anchor="start" x="8" y="-313.3" font-family="Times,serif" font-size="14.00">user_id :uuid</text>
<text text-anchor="start" x="8" y="-299.3" font-family="Times,serif" font-size="14.00">provider_id :uuid</text>
<text text-anchor="start" x="8" y="-285.3" font-family="Times,serif" font-size="14.00">sub :character varying</text>
<text text-anchor="start" x="8" y="-271.3" font-family="Times,serif" font-size="14.00">iat :character varying</text>
<text text-anchor="start" x="8" y="-257.3" font-family="Times,serif" font-size="14.00">hd :character varying</text>
<text text-anchor="start" x="8" y="-243.3" font-family="Times,serif" font-size="14.00">locale :character varying</text>
<text text-anchor="start" x="8" y="-229.3" font-family="Times,serif" font-size="14.00">email :character varying</text>
<text text-anchor="start" x="8" y="-215.3" font-family="Times,serif" font-size="14.00">jwt :json</text>
<text text-anchor="start" x="8" y="-201.3" font-family="Times,serif" font-size="14.00">notify_via_email :boolean</text>
<text text-anchor="start" x="8" y="-187.3" font-family="Times,serif" font-size="14.00">notify_via_sms :boolean</text>
<text text-anchor="start" x="8" y="-173.3" font-family="Times,serif" font-size="14.00">created_at :timestamp without time zone</text>
<text text-anchor="start" x="8" y="-159.3" font-family="Times,serif" font-size="14.00">id :uuid</text>
</g>
<!-- Session -->
<g id="node16" class="node"><title>Session</title>
<path fill="none" stroke="black" d="M12,-7.5C12,-7.5 235.725,-7.5 235.725,-7.5 241.725,-7.5 247.725,-13.5 247.725,-19.5 247.725,-19.5 247.725,-95.5 247.725,-95.5 247.725,-101.5 241.725,-107.5 235.725,-107.5 235.725,-107.5 12,-107.5 12,-107.5 6,-107.5 0,-101.5 0,-95.5 0,-95.5 0,-19.5 0,-19.5 0,-13.5 6,-7.5 12,-7.5"/>
<text text-anchor="middle" x="123.862" y="-92.3" font-family="Times,serif" font-size="14.00">Session</text>
<polyline fill="none" stroke="black" points="0,-85.5 247.725,-85.5 "/>
<text text-anchor="start" x="8" y="-70.3" font-family="Times,serif" font-size="14.00">id :uuid</text>
<text text-anchor="start" x="8" y="-56.3" font-family="Times,serif" font-size="14.00">identity_id :uuid</text>
<text text-anchor="start" x="8" y="-42.3" font-family="Times,serif" font-size="14.00">expires_at :timestamp without time zone</text>
<text text-anchor="start" x="8" y="-28.3" font-family="Times,serif" font-size="14.00">created_at :timestamp without time zone</text>
<text text-anchor="start" x="8" y="-14.3" font-family="Times,serif" font-size="14.00">updated_at :timestamp without time zone</text>
</g>
<!-- Identity&#45;&gt;Session -->
<g id="edge5" class="edge"><title>Identity&#45;&gt;Session</title>
<path fill="none" stroke="#d8ee4a" d="M123.862,-144.129C123.862,-135.249 123.862,-126.519 123.862,-118.23"/>
<ellipse fill="none" stroke="#d8ee4a" cx="123.862" cy="-148.464" rx="4" ry="4"/>
<polygon fill="#d8ee4a" stroke="#d8ee4a" points="123.862,-117.988 128.362,-107.988 123.862,-112.988 123.862,-107.988 123.862,-107.988 123.862,-107.988 123.862,-112.988 119.362,-107.988 123.862,-117.988 123.862,-117.988"/>
</g>
<!-- Issue -->
<g id="node9" class="node"><title>Issue</title>
<path fill="none" stroke="black" d="M810,-201.5C810,-201.5 1033.72,-201.5 1033.72,-201.5 1039.72,-201.5 1045.72,-207.5 1045.72,-213.5 1045.72,-213.5 1045.72,-303.5 1045.72,-303.5 1045.72,-309.5 1039.72,-315.5 1033.72,-315.5 1033.72,-315.5 810,-315.5 810,-315.5 804,-315.5 798,-309.5 798,-303.5 798,-303.5 798,-213.5 798,-213.5 798,-207.5 804,-201.5 810,-201.5"/>
<text text-anchor="middle" x="921.862" y="-300.3" font-family="Times,serif" font-size="14.00">Issue</text>
<polyline fill="none" stroke="black" points="798,-293.5 1045.72,-293.5 "/>
<text text-anchor="start" x="806" y="-278.3" font-family="Times,serif" font-size="14.00">id :uuid</text>
<text text-anchor="start" x="806" y="-264.3" font-family="Times,serif" font-size="14.00">external_id :character varying</text>
<text text-anchor="start" x="806" y="-250.3" font-family="Times,serif" font-size="14.00">user_id :uuid</text>
<text text-anchor="start" x="806" y="-236.3" font-family="Times,serif" font-size="14.00">problem_id :uuid</text>
<text text-anchor="start" x="806" y="-222.3" font-family="Times,serif" font-size="14.00">created_at :timestamp without time zone</text>
<text text-anchor="start" x="806" y="-208.3" font-family="Times,serif" font-size="14.00">updated_at :timestamp without time zone</text>
</g>
<!-- Lab -->
<g id="node10" class="node"><title>Lab</title>
<path fill="none" stroke="black" d="M1075.34,-194.5C1075.34,-194.5 1308.39,-194.5 1308.39,-194.5 1314.39,-194.5 1320.39,-200.5 1320.39,-206.5 1320.39,-206.5 1320.39,-310.5 1320.39,-310.5 1320.39,-316.5 1314.39,-322.5 1308.39,-322.5 1308.39,-322.5 1075.34,-322.5 1075.34,-322.5 1069.34,-322.5 1063.34,-316.5 1063.34,-310.5 1063.34,-310.5 1063.34,-206.5 1063.34,-206.5 1063.34,-200.5 1069.34,-194.5 1075.34,-194.5"/>
<text text-anchor="middle" x="1191.86" y="-307.3" font-family="Times,serif" font-size="14.00">Lab</text>
<polyline fill="none" stroke="black" points="1063.34,-300.5 1320.39,-300.5 "/>
<text text-anchor="start" x="1071.34" y="-285.3" font-family="Times,serif" font-size="14.00">ordered_at :timestamp without time zone</text>
<text text-anchor="start" x="1071.34" y="-271.3" font-family="Times,serif" font-size="14.00">external_id :character varying</text>
<text text-anchor="start" x="1071.34" y="-257.3" font-family="Times,serif" font-size="14.00">user_id :uuid</text>
<text text-anchor="start" x="1071.34" y="-243.3" font-family="Times,serif" font-size="14.00">id :uuid</text>
<text text-anchor="start" x="1071.34" y="-229.3" font-family="Times,serif" font-size="14.00">requested_at :timestamp without time zone</text>
<text text-anchor="start" x="1071.34" y="-215.3" font-family="Times,serif" font-size="14.00">created_at :timestamp without time zone</text>
<text text-anchor="start" x="1071.34" y="-201.3" font-family="Times,serif" font-size="14.00">updated_at :timestamp without time zone</text>
</g>
<!-- Problem -->
<g id="node13" class="node"><title>Problem</title>
<path fill="none" stroke="black" d="M1350,-208.5C1350,-208.5 1573.72,-208.5 1573.72,-208.5 1579.72,-208.5 1585.72,-214.5 1585.72,-220.5 1585.72,-220.5 1585.72,-296.5 1585.72,-296.5 1585.72,-302.5 1579.72,-308.5 1573.72,-308.5 1573.72,-308.5 1350,-308.5 1350,-308.5 1344,-308.5 1338,-302.5 1338,-296.5 1338,-296.5 1338,-220.5 1338,-220.5 1338,-214.5 1344,-208.5 1350,-208.5"/>
<text text-anchor="middle" x="1461.86" y="-293.3" font-family="Times,serif" font-size="14.00">Problem</text>
<polyline fill="none" stroke="black" points="1338,-286.5 1585.72,-286.5 "/>
<text text-anchor="start" x="1346" y="-271.3" font-family="Times,serif" font-size="14.00">id :uuid</text>
<text text-anchor="start" x="1346" y="-257.3" font-family="Times,serif" font-size="14.00">external_id :character varying</text>
<text text-anchor="start" x="1346" y="-243.3" font-family="Times,serif" font-size="14.00">name :character varying</text>
<text text-anchor="start" x="1346" y="-229.3" font-family="Times,serif" font-size="14.00">created_at :timestamp without time zone</text>
<text text-anchor="start" x="1346" y="-215.3" font-family="Times,serif" font-size="14.00">updated_at :timestamp without time zone</text>
</g>
<!-- Provider -->
<g id="node14" class="node"><title>Provider</title>
<path fill="none" stroke="black" d="M12,-415.5C12,-415.5 235.725,-415.5 235.725,-415.5 241.725,-415.5 247.725,-421.5 247.725,-427.5 247.725,-427.5 247.725,-587.5 247.725,-587.5 247.725,-593.5 241.725,-599.5 235.725,-599.5 235.725,-599.5 12,-599.5 12,-599.5 6,-599.5 0,-593.5 0,-587.5 0,-587.5 0,-427.5 0,-427.5 0,-421.5 6,-415.5 12,-415.5"/>
<text text-anchor="middle" x="123.862" y="-584.3" font-family="Times,serif" font-size="14.00">Provider</text>
<polyline fill="none" stroke="black" points="0,-577.5 247.725,-577.5 "/>
<text text-anchor="start" x="8" y="-562.3" font-family="Times,serif" font-size="14.00">scopes :character varying</text>
<text text-anchor="start" x="8" y="-548.3" font-family="Times,serif" font-size="14.00">name :character varying</text>
<text text-anchor="start" x="8" y="-534.3" font-family="Times,serif" font-size="14.00">issuer :character varying</text>
<text text-anchor="start" x="8" y="-520.3" font-family="Times,serif" font-size="14.00">client_id :character varying</text>
<text text-anchor="start" x="8" y="-506.3" font-family="Times,serif" font-size="14.00">client_secret :character varying</text>
<text text-anchor="start" x="8" y="-492.3" font-family="Times,serif" font-size="14.00">alternate_client_id :character varying</text>
<text text-anchor="start" x="8" y="-478.3" font-family="Times,serif" font-size="14.00">configuration :json</text>
<text text-anchor="start" x="8" y="-464.3" font-family="Times,serif" font-size="14.00">public_keys :json</text>
<text text-anchor="start" x="8" y="-450.3" font-family="Times,serif" font-size="14.00">created_at :timestamp without time zone</text>
<text text-anchor="start" x="8" y="-436.3" font-family="Times,serif" font-size="14.00">updated_at :timestamp without time zone</text>
<text text-anchor="start" x="8" y="-422.3" font-family="Times,serif" font-size="14.00">id :uuid</text>
</g>
<!-- Provider&#45;&gt;Identity -->
<g id="edge6" class="edge"><title>Provider&#45;&gt;Identity</title>
<path fill="none" stroke="#78159b" d="M123.862,-407.051C123.862,-396.455 123.862,-385.613 123.862,-374.854"/>
<ellipse fill="none" stroke="#78159b" cx="123.862" cy="-411.228" rx="4" ry="4"/>
<polygon fill="#78159b" stroke="#78159b" points="123.862,-374.575 128.362,-364.575 123.862,-369.575 123.862,-364.575 123.862,-364.575 123.862,-364.575 123.862,-369.575 119.362,-364.575 123.862,-374.575 123.862,-374.575"/>
</g>
<!-- Role -->
<g id="node15" class="node"><title>Role</title>
<path fill="none" stroke="black" d="M1779,-201.5C1779,-201.5 2002.72,-201.5 2002.72,-201.5 2008.72,-201.5 2014.72,-207.5 2014.72,-213.5 2014.72,-213.5 2014.72,-303.5 2014.72,-303.5 2014.72,-309.5 2008.72,-315.5 2002.72,-315.5 2002.72,-315.5 1779,-315.5 1779,-315.5 1773,-315.5 1767,-309.5 1767,-303.5 1767,-303.5 1767,-213.5 1767,-213.5 1767,-207.5 1773,-201.5 1779,-201.5"/>
<text text-anchor="middle" x="1890.86" y="-300.3" font-family="Times,serif" font-size="14.00">Role</text>
<polyline fill="none" stroke="black" points="1767,-293.5 2014.72,-293.5 "/>
<text text-anchor="start" x="1775" y="-278.3" font-family="Times,serif" font-size="14.00">id :uuid</text>
<text text-anchor="start" x="1775" y="-264.3" font-family="Times,serif" font-size="14.00">name :character varying</text>
<text text-anchor="start" x="1775" y="-250.3" font-family="Times,serif" font-size="14.00">code :character varying</text>
<text text-anchor="start" x="1775" y="-236.3" font-family="Times,serif" font-size="14.00">description :text</text>
<text text-anchor="start" x="1775" y="-222.3" font-family="Times,serif" font-size="14.00">created_at :timestamp without time zone</text>
<text text-anchor="start" x="1775" y="-208.3" font-family="Times,serif" font-size="14.00">updated_at :timestamp without time zone</text>
</g>
<!-- Role&#45;&gt;Capability -->
<g id="edge7" class="edge"><title>Role&#45;&gt;Capability</title>
<path fill="none" stroke="#9ec943" d="M1890.86,-193.183C1890.86,-171.323 1890.86,-146.861 1890.86,-124.845"/>
<ellipse fill="none" stroke="#9ec943" cx="1890.86" cy="-197.273" rx="4" ry="4"/>
<polygon fill="#9ec943" stroke="#9ec943" points="1890.86,-124.589 1895.36,-114.589 1890.86,-119.589 1890.86,-114.589 1890.86,-114.589 1890.86,-114.589 1890.86,-119.589 1886.36,-114.589 1890.86,-124.589 1890.86,-124.589"/>
</g>
<!-- Role&#45;&gt;Group -->
<g id="edge9" class="edge"><title>Role&#45;&gt;Group</title>
<path fill="none" stroke="#ca9461" d="M1866.22,-325.372C1834.15,-411.085 1778.59,-559.561 1747.88,-641.664"/>
<polygon fill="#ca9461" stroke="#ca9461" points="1866.31,-325.116 1874.03,-317.327 1868.06,-320.433 1869.82,-315.75 1869.82,-315.75 1869.82,-315.75 1868.06,-320.433 1865.6,-314.173 1866.31,-325.116 1866.31,-325.116"/>
<polygon fill="#ca9461" stroke="#ca9461" points="1747.81,-641.829 1740.09,-649.618 1746.06,-646.512 1744.31,-651.195 1744.31,-651.195 1744.31,-651.195 1746.06,-646.512 1748.52,-652.772 1747.81,-641.829 1747.81,-641.829"/>
</g>
<!-- Role&#45;&gt;User -->
<g id="edge8" class="edge"><title>Role&#45;&gt;User</title>
<path fill="none" stroke="#02ed9e" d="M1819.52,-321.844C1799.25,-337.448 1776.5,-353.108 1753.86,-365 1730.72,-377.156 1722.71,-374.871 1697.86,-383 1619.14,-408.753 1531.18,-438.012 1460.68,-461.584"/>
<polygon fill="#02ed9e" stroke="#02ed9e" points="1819.57,-321.8 1830.23,-319.188 1823.51,-318.721 1827.45,-315.642 1827.45,-315.642 1827.45,-315.642 1823.51,-318.721 1824.68,-312.097 1819.57,-321.8 1819.57,-321.8"/>
<polygon fill="#02ed9e" stroke="#02ed9e" points="1460.33,-461.7 1449.42,-460.604 1455.59,-463.286 1450.85,-464.872 1450.85,-464.872 1450.85,-464.872 1455.59,-463.286 1452.27,-469.139 1460.33,-461.7 1460.33,-461.7"/>
</g>
<!-- User&#45;&gt;Capability -->
<g id="edge11" class="edge"><title>User&#45;&gt;Capability</title>
<path fill="none" stroke="#919186" d="M1458.43,-465.618C1508.54,-443.573 1561.56,-411.158 1594.86,-365 1651.02,-287.173 1568.83,-225.672 1630.34,-152 1662.04,-114.03 1710.36,-91.4785 1756.82,-78.0844"/>
<ellipse fill="none" stroke="#919186" cx="1454.73" cy="-467.212" rx="4.00002" ry="4.00002"/>
<polygon fill="#919186" stroke="#919186" points="1757.05,-78.0191 1767.89,-79.7014 1761.88,-76.6911 1766.7,-75.363 1766.7,-75.363 1766.7,-75.363 1761.88,-76.6911 1765.5,-71.0247 1757.05,-78.0191 1757.05,-78.0191"/>
<text text-anchor="middle" x="1693.62" y="-254.3" font-family="Times,serif" font-size="14.00">individual_capabilities</text>
</g>
<!-- User&#45;&gt;Encounter -->
<g id="edge16" class="edge"><title>User&#45;&gt;Encounter</title>
<path fill="none" stroke="#e0e588" d="M1194.86,-487.45C1082.5,-467.636 919.075,-430.146 788.862,-365 776.12,-358.625 763.447,-350.895 751.272,-342.55"/>
<ellipse fill="none" stroke="#e0e588" cx="1198.93" cy="-488.158" rx="4.00001" ry="4.00001"/>
<polygon fill="#e0e588" stroke="#e0e588" points="751.108,-342.435 745.516,-333.002 747.018,-339.559 742.928,-336.683 742.928,-336.683 742.928,-336.683 747.018,-339.559 740.34,-340.365 751.108,-342.435 751.108,-342.435"/>
</g>
<!-- User&#45;&gt;Identity -->
<g id="edge13" class="edge"><title>User&#45;&gt;Identity</title>
<path fill="none" stroke="#dc2408" d="M1194.34,-497.816C950.834,-480.44 441.087,-437.08 257.237,-364.754"/>
<ellipse fill="none" stroke="#dc2408" cx="1198.69" cy="-498.125" rx="4" ry="4"/>
<polygon fill="#dc2408" stroke="#dc2408" points="257.202,-364.74 249.649,-356.79 252.574,-362.847 247.945,-360.955 247.945,-360.955 247.945,-360.955 252.574,-362.847 246.242,-365.12 257.202,-364.74 257.202,-364.74"/>
</g>
<!-- User&#45;&gt;Issue -->
<g id="edge14" class="edge"><title>User&#45;&gt;Issue</title>
<path fill="none" stroke="#cab78a" d="M1195.37,-444.911C1149.49,-421.723 1098.37,-393.922 1053.86,-365 1033.95,-352.062 1013.44,-336.76 994.69,-321.881"/>
<ellipse fill="none" stroke="#cab78a" cx="1199.11" cy="-446.795" rx="4.00002" ry="4.00002"/>
<polygon fill="#cab78a" stroke="#cab78a" points="994.576,-321.79 989.584,-312.026 990.673,-318.664 986.77,-315.539 986.77,-315.539 986.77,-315.539 990.673,-318.664 983.957,-319.051 994.576,-321.79 994.576,-321.79"/>
</g>
<!-- User&#45;&gt;Lab -->
<g id="edge15" class="edge"><title>User&#45;&gt;Lab</title>
<path fill="none" stroke="#3e831f" d="M1280.71,-422.06C1264.68,-392.721 1246.85,-360.103 1231.4,-331.831"/>
<ellipse fill="none" stroke="#3e831f" cx="1282.78" cy="-425.854" rx="4.00002" ry="4.00002"/>
<polygon fill="#3e831f" stroke="#3e831f" points="1231.26,-331.589 1230.42,-320.656 1228.87,-327.202 1226.47,-322.814 1226.47,-322.814 1226.47,-322.814 1228.87,-327.202 1222.52,-324.972 1231.26,-331.589 1231.26,-331.589"/>
</g>
<!-- User&#45;&gt;Member -->
<g id="edge10" class="edge"><title>User&#45;&gt;Member</title>
<path fill="none" stroke="#7c3c09" d="M1194.66,-503.013C1030.39,-494.322 744.696,-464.706 522.862,-365 495.689,-352.787 469.239,-333.77 447.178,-315.227"/>
<ellipse fill="none" stroke="#7c3c09" cx="1198.88" cy="-503.23" rx="4" ry="4"/>
<polygon fill="#7c3c09" stroke="#7c3c09" points="447.155,-315.208 442.492,-305.283 443.359,-311.954 439.563,-308.7 439.563,-308.7 439.563,-308.7 443.359,-311.954 436.634,-312.116 447.155,-315.208 447.155,-315.208"/>
<text text-anchor="middle" x="621.19" y="-385.8" font-family="Times,serif" font-size="14.00">memberships</text>
</g>
<!-- User&#45;&gt;Problem -->
<g id="edge17" class="edge"><title>User&#45;&gt;Problem</title>
<path fill="none" stroke="#2f2c77" d="M1373.87,-420.489C1392.45,-386.504 1413.31,-348.335 1430.06,-317.695"/>
<polygon fill="#2f2c77" stroke="#2f2c77" points="1373.82,-420.589 1365.07,-427.205 1371.42,-424.976 1369.02,-429.364 1369.02,-429.364 1369.02,-429.364 1371.42,-424.976 1372.97,-431.522 1373.82,-420.589 1373.82,-420.589"/>
<polygon fill="#2f2c77" stroke="#2f2c77" points="1430.09,-317.627 1438.84,-311.011 1432.49,-313.24 1434.89,-308.852 1434.89,-308.852 1434.89,-308.852 1432.49,-313.24 1430.94,-306.694 1430.09,-317.627 1430.09,-317.627"/>
</g>
<!-- User&#45;&gt;Role -->
<g id="edge12" class="edge"><title>User&#45;&gt;Role</title>
<path fill="none" stroke="#147106" d="M1460.89,-479.817C1548.91,-458.166 1663.95,-421.758 1753.86,-365 1774.39,-352.042 1795.62,-336.745 1815.05,-321.879"/>
<polygon fill="#147106" stroke="#147106" points="1460.82,-479.833 1450.04,-477.817 1455.96,-481.011 1451.1,-482.19 1451.1,-482.19 1451.1,-482.19 1455.96,-481.011 1452.17,-486.563 1460.82,-479.833 1460.82,-479.833"/>
<polygon fill="#147106" stroke="#147106" points="1815.06,-321.873 1825.73,-319.329 1819.02,-318.819 1822.98,-315.766 1822.98,-315.766 1822.98,-315.766 1819.02,-318.819 1820.23,-312.202 1815.06,-321.873 1815.06,-321.873"/>
<text text-anchor="middle" x="1767.36" y="-385.8" font-family="Times,serif" font-size="14.00">individual_roles</text>
</g>
</g>
</svg>
