<?xml version="1.0" encoding="UTF-8" standalone="no"?>
<!DOCTYPE svg PUBLIC "-//W3C//DTD SVG 1.1//EN"
 "http://www.w3.org/Graphics/SVG/1.1/DTD/svg11.dtd">
<!-- Generated by graphviz version 2.38.0 (20140413.2041)
 -->
<!-- Title: models_diagram Pages: 1 -->
<svg width="764pt" height="225pt"
 viewBox="0.00 0.00 764.10 225.00" xmlns="http://www.w3.org/2000/svg" xmlns:xlink="http://www.w3.org/1999/xlink">
<g id="graph0" class="graph" transform="scale(1 1) rotate(0) translate(4 221)">
<title>models_diagram</title>
<polygon fill="none" stroke="none" points="-4,4 -4,-221 760.105,-221 760.105,4 -4,4"/>
<!-- _diagram_info -->
<g id="node1" class="node"><title>_diagram_info</title>
<text text-anchor="start" x="8" y="-202.6" font-family="Times,serif" font-size="13.00">Models diagram</text>
<text text-anchor="start" x="8" y="-189.6" font-family="Times,serif" font-size="13.00">Date: Apr 26 2016 &#45; 18:46</text>
<text text-anchor="start" x="8" y="-176.6" font-family="Times,serif" font-size="13.00">Migration version: 20160427014458</text>
<text text-anchor="start" x="8" y="-163.6" font-family="Times,serif" font-size="13.00">Generated by RailRoady 1.4.2</text>
<text text-anchor="start" x="8" y="-150.6" font-family="Times,serif" font-size="13.00">http://railroady.prestonlee.com</text>
</g>
<!-- Context -->
<g id="node2" class="node"><title>Context</title>
<ellipse fill="none" stroke="black" cx="263.688" cy="-180.5" rx="38.2197" ry="18"/>
<text text-anchor="middle" x="263.688" y="-176.3" font-family="Times,serif" font-size="14.00">Context</text>
</g>
<!-- Encounter -->
<g id="node3" class="node"><title>Encounter</title>
<ellipse fill="none" stroke="black" cx="707.688" cy="-90" rx="46.3959" ry="18"/>
<text text-anchor="middle" x="707.688" y="-85.8" font-family="Times,serif" font-size="14.00">Encounter</text>
</g>
<!-- Participant -->
<g id="node7" class="node"><title>Participant</title>
<ellipse fill="none" stroke="black" cx="707.688" cy="-18" rx="48.3341" ry="18"/>
<text text-anchor="middle" x="707.688" y="-13.8" font-family="Times,serif" font-size="14.00">Participant</text>
</g>
<!-- Encounter&#45;&gt;Participant -->
<g id="edge1" class="edge"><title>Encounter&#45;&gt;Participant</title>
<path fill="none" stroke="#aa361f" d="M707.688,-63.6398C707.688,-58.0629 707.688,-52.1319 707.688,-46.4761"/>
<ellipse fill="none" stroke="#aa361f" cx="707.688" cy="-67.6966" rx="4" ry="4"/>
<polygon fill="#aa361f" stroke="#aa361f" points="707.688,-46.1043 712.188,-36.1043 707.688,-41.1043 707.688,-36.1043 707.688,-36.1043 707.688,-36.1043 707.688,-41.1043 703.188,-36.1044 707.688,-46.1043 707.688,-46.1043"/>
</g>
<!-- Identity -->
<g id="node4" class="node"><title>Identity</title>
<ellipse fill="none" stroke="black" cx="360.688" cy="-90" rx="37.7266" ry="18"/>
<text text-anchor="middle" x="360.688" y="-85.8" font-family="Times,serif" font-size="14.00">Identity</text>
</g>
<!-- Session -->
<g id="node10" class="node"><title>Session</title>
<ellipse fill="none" stroke="black" cx="360.688" cy="-18" rx="37.2681" ry="18"/>
<text text-anchor="middle" x="360.688" y="-13.8" font-family="Times,serif" font-size="14.00">Session</text>
</g>
<!-- Identity&#45;&gt;Session -->
<g id="edge2" class="edge"><title>Identity&#45;&gt;Session</title>
<path fill="none" stroke="#51e76f" d="M360.688,-63.6398C360.688,-58.0629 360.688,-52.1319 360.688,-46.4761"/>
<ellipse fill="none" stroke="#51e76f" cx="360.688" cy="-67.6966" rx="4" ry="4"/>
<polygon fill="#51e76f" stroke="#51e76f" points="360.688,-46.1043 365.188,-36.1043 360.688,-41.1043 360.688,-36.1043 360.688,-36.1043 360.688,-36.1043 360.688,-41.1043 356.188,-36.1044 360.688,-46.1043 360.688,-46.1043"/>
</g>
<!-- Issue -->
<g id="node5" class="node"><title>Issue</title>
<ellipse fill="none" stroke="black" cx="444.688" cy="-90" rx="28.0651" ry="18"/>
<text text-anchor="middle" x="444.688" y="-85.8" font-family="Times,serif" font-size="14.00">Issue</text>
</g>
<!-- Lab -->
<g id="node6" class="node"><title>Lab</title>
<ellipse fill="none" stroke="black" cx="517.688" cy="-90" rx="27" ry="18"/>
<text text-anchor="middle" x="517.688" y="-85.8" font-family="Times,serif" font-size="14.00">Lab</text>
</g>
<!-- Problem -->
<g id="node8" class="node"><title>Problem</title>
<ellipse fill="none" stroke="black" cx="602.688" cy="-90" rx="40.149" ry="18"/>
<text text-anchor="middle" x="602.688" y="-85.8" font-family="Times,serif" font-size="14.00">Problem</text>
</g>
<!-- Provider -->
<g id="node9" class="node"><title>Provider</title>
<ellipse fill="none" stroke="black" cx="360.688" cy="-180.5" rx="40.6248" ry="18"/>
<text text-anchor="middle" x="360.688" y="-176.3" font-family="Times,serif" font-size="14.00">Provider</text>
</g>
<!-- Provider&#45;&gt;Identity -->
<g id="edge3" class="edge"><title>Provider&#45;&gt;Identity</title>
<path fill="none" stroke="#29902e" d="M360.688,-154.189C360.688,-142.971 360.688,-129.752 360.688,-118.311"/>
<ellipse fill="none" stroke="#29902e" cx="360.688" cy="-158.436" rx="4" ry="4"/>
<polygon fill="#29902e" stroke="#29902e" points="360.688,-118.011 365.188,-108.011 360.688,-113.011 360.688,-108.011 360.688,-108.011 360.688,-108.011 360.688,-113.011 356.188,-108.011 360.688,-118.011 360.688,-118.011"/>
</g>
<!-- User -->
<g id="node11" class="node"><title>User</title>
<ellipse fill="none" stroke="black" cx="517.688" cy="-180.5" rx="27" ry="18"/>
<text text-anchor="middle" x="517.688" y="-176.3" font-family="Times,serif" font-size="14.00">User</text>
</g>
<!-- User&#45;&gt;Encounter -->
<g id="edge7" class="edge"><title>User&#45;&gt;Encounter</title>
<path fill="none" stroke="#6627ef" d="M546.378,-166.137C579.351,-150.778 633.587,-125.515 669.957,-108.575"/>
<ellipse fill="none" stroke="#6627ef" cx="542.74" cy="-167.831" rx="4.00002" ry="4.00002"/>
<polygon fill="#6627ef" stroke="#6627ef" points="670.186,-108.468 681.151,-108.325 674.718,-106.357 679.251,-104.246 679.251,-104.246 679.251,-104.246 674.718,-106.357 677.351,-100.166 670.186,-108.468 670.186,-108.468"/>
</g>
<!-- User&#45;&gt;Identity -->
<g id="edge4" class="edge"><title>User&#45;&gt;Identity</title>
<path fill="none" stroke="#6a1c10" d="M490.585,-164.223C463.52,-148.966 421.911,-125.511 393.11,-109.276"/>
<ellipse fill="none" stroke="#6a1c10" cx="494.319" cy="-166.327" rx="4.00002" ry="4.00002"/>
<polygon fill="#6a1c10" stroke="#6a1c10" points="392.955,-109.189 386.454,-100.358 388.6,-106.734 384.244,-104.279 384.244,-104.279 384.244,-104.279 388.6,-106.734 382.034,-108.199 392.955,-109.189 392.955,-109.189"/>
</g>
<!-- User&#45;&gt;Issue -->
<g id="edge5" class="edge"><title>User&#45;&gt;Issue</title>
<path fill="none" stroke="#79ebba" d="M499.966,-158.016C489.063,-144.798 475.088,-127.855 463.918,-114.313"/>
<ellipse fill="none" stroke="#79ebba" cx="502.759" cy="-161.401" rx="4.00002" ry="4.00002"/>
<polygon fill="#79ebba" stroke="#79ebba" points="463.741,-114.098 460.849,-103.52 460.559,-110.241 457.377,-106.384 457.377,-106.384 457.377,-106.384 460.559,-110.241 453.906,-109.247 463.741,-114.098 463.741,-114.098"/>
</g>
<!-- User&#45;&gt;Lab -->
<g id="edge6" class="edge"><title>User&#45;&gt;Lab</title>
<path fill="none" stroke="#ad8af3" d="M517.688,-154.189C517.688,-142.971 517.688,-129.752 517.688,-118.311"/>
<ellipse fill="none" stroke="#ad8af3" cx="517.688" cy="-158.436" rx="4" ry="4"/>
<polygon fill="#ad8af3" stroke="#ad8af3" points="517.688,-118.011 522.188,-108.011 517.688,-113.011 517.688,-108.011 517.688,-108.011 517.688,-108.011 517.688,-113.011 513.188,-108.011 517.688,-118.011 517.688,-118.011"/>
</g>
<!-- User&#45;&gt;Problem -->
<g id="edge8" class="edge"><title>User&#45;&gt;Problem</title>
<path fill="none" stroke="#4d0d08" d="M538.704,-157.618C551.35,-144.452 567.439,-127.7 580.319,-114.289"/>
<polygon fill="#4d0d08" stroke="#4d0d08" points="538.651,-157.674 528.478,-161.769 535.187,-161.28 531.724,-164.886 531.724,-164.886 531.724,-164.886 535.187,-161.28 534.969,-168.003 538.651,-157.674 538.651,-157.674"/>
<polygon fill="#4d0d08" stroke="#4d0d08" points="580.555,-114.044 590.728,-109.949 584.019,-110.438 587.482,-106.832 587.482,-106.832 587.482,-106.832 584.019,-110.438 584.237,-103.714 580.555,-114.044 580.555,-114.044"/>
</g>
</g>
</svg>
