<?xml version="1.0" encoding="UTF-8" standalone="no"?>
<!DOCTYPE svg PUBLIC "-//W3C//DTD SVG 1.1//EN"
 "http://www.w3.org/Graphics/SVG/1.1/DTD/svg11.dtd">
<!-- Generated by graphviz version 2.40.1 (20161225.0304)
 -->
<!-- Title: models_diagram Pages: 1 -->
<svg width="1134pt" height="1148pt"
 viewBox="0.00 0.00 1133.55 1148.00" xmlns="http://www.w3.org/2000/svg" xmlns:xlink="http://www.w3.org/1999/xlink">
<g id="graph0" class="graph" transform="scale(1 1) rotate(0) translate(4 1144)">
<title>models_diagram</title>
<polygon fill="transparent" stroke="transparent" points="-4,4 -4,-1144 1129.55,-1144 1129.55,4 -4,4"/>
<!-- _diagram_info -->
<g id="node1" class="node">
<title>_diagram_info</title>
<text text-anchor="start" x="8" y="-1097.6" font-family="Times,serif" font-size="13.00" fill="#000000">Models diagram</text>
<text text-anchor="start" x="8" y="-1084.6" font-family="Times,serif" font-size="13.00" fill="#000000">Date: May 25 2018 &#45; 13:49</text>
<text text-anchor="start" x="8" y="-1071.6" font-family="Times,serif" font-size="13.00" fill="#000000">Migration version: 20180525204850</text>
<text text-anchor="start" x="8" y="-1058.6" font-family="Times,serif" font-size="13.00" fill="#000000">Generated by RailRoady 1.5.3</text>
<text text-anchor="start" x="8" y="-1045.6" font-family="Times,serif" font-size="13.00" fill="#000000">http://railroady.prestonlee.com</text>
</g>
<!-- Identity -->
<g id="node2" class="node">
<title>Identity</title>
<path fill="none" stroke="#000000" d="M617.8254,-402.5C617.8254,-402.5 841.55,-402.5 841.55,-402.5 847.55,-402.5 853.55,-408.5 853.55,-414.5 853.55,-414.5 853.55,-588.5 853.55,-588.5 853.55,-594.5 847.55,-600.5 841.55,-600.5 841.55,-600.5 617.8254,-600.5 617.8254,-600.5 611.8254,-600.5 605.8254,-594.5 605.8254,-588.5 605.8254,-588.5 605.8254,-414.5 605.8254,-414.5 605.8254,-408.5 611.8254,-402.5 617.8254,-402.5"/>
<text text-anchor="middle" x="729.6877" y="-585.3" font-family="Times,serif" font-size="14.00" fill="#000000">Identity</text>
<polyline fill="none" stroke="#000000" points="605.8254,-578.5 853.55,-578.5 "/>
<text text-anchor="start" x="613.8254" y="-563.3" font-family="Times,serif" font-size="14.00" fill="#000000">updated_at :timestamp without time zone</text>
<text text-anchor="start" x="613.8254" y="-549.3" font-family="Times,serif" font-size="14.00" fill="#000000">person_id :uuid</text>
<text text-anchor="start" x="613.8254" y="-535.3" font-family="Times,serif" font-size="14.00" fill="#000000">identity_provider_id :uuid</text>
<text text-anchor="start" x="613.8254" y="-521.3" font-family="Times,serif" font-size="14.00" fill="#000000">sub :character varying</text>
<text text-anchor="start" x="613.8254" y="-507.3" font-family="Times,serif" font-size="14.00" fill="#000000">iat :character varying</text>
<text text-anchor="start" x="613.8254" y="-493.3" font-family="Times,serif" font-size="14.00" fill="#000000">hd :character varying</text>
<text text-anchor="start" x="613.8254" y="-479.3" font-family="Times,serif" font-size="14.00" fill="#000000">locale :character varying</text>
<text text-anchor="start" x="613.8254" y="-465.3" font-family="Times,serif" font-size="14.00" fill="#000000">email :character varying</text>
<text text-anchor="start" x="613.8254" y="-451.3" font-family="Times,serif" font-size="14.00" fill="#000000">notify_via_email :boolean</text>
<text text-anchor="start" x="613.8254" y="-437.3" font-family="Times,serif" font-size="14.00" fill="#000000">notify_via_sms :boolean</text>
<text text-anchor="start" x="613.8254" y="-423.3" font-family="Times,serif" font-size="14.00" fill="#000000">created_at :timestamp without time zone</text>
<text text-anchor="start" x="613.8254" y="-409.3" font-family="Times,serif" font-size="14.00" fill="#000000">id :uuid</text>
</g>
<!-- Session -->
<g id="node6" class="node">
<title>Session</title>
<path fill="none" stroke="#000000" d="M617.8254,-264.5C617.8254,-264.5 841.55,-264.5 841.55,-264.5 847.55,-264.5 853.55,-270.5 853.55,-276.5 853.55,-276.5 853.55,-352.5 853.55,-352.5 853.55,-358.5 847.55,-364.5 841.55,-364.5 841.55,-364.5 617.8254,-364.5 617.8254,-364.5 611.8254,-364.5 605.8254,-358.5 605.8254,-352.5 605.8254,-352.5 605.8254,-276.5 605.8254,-276.5 605.8254,-270.5 611.8254,-264.5 617.8254,-264.5"/>
<text text-anchor="middle" x="729.6877" y="-349.3" font-family="Times,serif" font-size="14.00" fill="#000000">Session</text>
<polyline fill="none" stroke="#000000" points="605.8254,-342.5 853.55,-342.5 "/>
<text text-anchor="start" x="613.8254" y="-327.3" font-family="Times,serif" font-size="14.00" fill="#000000">id :uuid</text>
<text text-anchor="start" x="613.8254" y="-313.3" font-family="Times,serif" font-size="14.00" fill="#000000">identity_id :uuid</text>
<text text-anchor="start" x="613.8254" y="-299.3" font-family="Times,serif" font-size="14.00" fill="#000000">expires_at :timestamp without time zone</text>
<text text-anchor="start" x="613.8254" y="-285.3" font-family="Times,serif" font-size="14.00" fill="#000000">created_at :timestamp without time zone</text>
<text text-anchor="start" x="613.8254" y="-271.3" font-family="Times,serif" font-size="14.00" fill="#000000">updated_at :timestamp without time zone</text>
</g>
<!-- Identity&#45;&gt;Session -->
<g id="edge1" class="edge">
<title>Identity&#45;&gt;Session</title>
<path fill="none" stroke="#ad2942" d="M729.6877,-394.0927C729.6877,-387.6067 729.6877,-381.212 729.6877,-375.0372"/>
<ellipse fill="none" stroke="#ad2942" cx="729.6878" cy="-398.2508" rx="4" ry="4"/>
<polygon fill="#ad2942" stroke="#ad2942" points="729.6878,-374.8759 734.1877,-364.8758 729.6878,-369.8759 729.6877,-364.8759 729.6877,-364.8759 729.6877,-364.8759 729.6878,-369.8759 725.1877,-364.8759 729.6878,-374.8759 729.6878,-374.8759"/>
</g>
<!-- Group -->
<g id="node3" class="node">
<title>Group</title>
<path fill="none" stroke="#000000" d="M237.8254,-873.5C237.8254,-873.5 461.55,-873.5 461.55,-873.5 467.55,-873.5 473.55,-879.5 473.55,-885.5 473.55,-885.5 473.55,-961.5 473.55,-961.5 473.55,-967.5 467.55,-973.5 461.55,-973.5 461.55,-973.5 237.8254,-973.5 237.8254,-973.5 231.8254,-973.5 225.8254,-967.5 225.8254,-961.5 225.8254,-961.5 225.8254,-885.5 225.8254,-885.5 225.8254,-879.5 231.8254,-873.5 237.8254,-873.5"/>
<text text-anchor="middle" x="349.6877" y="-958.3" font-family="Times,serif" font-size="14.00" fill="#000000">Group</text>
<polyline fill="none" stroke="#000000" points="225.8254,-951.5 473.55,-951.5 "/>
<text text-anchor="start" x="233.8254" y="-936.3" font-family="Times,serif" font-size="14.00" fill="#000000">id :uuid</text>
<text text-anchor="start" x="233.8254" y="-922.3" font-family="Times,serif" font-size="14.00" fill="#000000">name :character varying</text>
<text text-anchor="start" x="233.8254" y="-908.3" font-family="Times,serif" font-size="14.00" fill="#000000">description :text</text>
<text text-anchor="start" x="233.8254" y="-894.3" font-family="Times,serif" font-size="14.00" fill="#000000">created_at :timestamp without time zone</text>
<text text-anchor="start" x="233.8254" y="-880.3" font-family="Times,serif" font-size="14.00" fill="#000000">updated_at :timestamp without time zone</text>
</g>
<!-- Capability -->
<g id="node4" class="node">
<title>Capability</title>
<path fill="none" stroke="#000000" d="M85.8254,-444.5C85.8254,-444.5 309.55,-444.5 309.55,-444.5 315.55,-444.5 321.55,-450.5 321.55,-456.5 321.55,-456.5 321.55,-546.5 321.55,-546.5 321.55,-552.5 315.55,-558.5 309.55,-558.5 309.55,-558.5 85.8254,-558.5 85.8254,-558.5 79.8254,-558.5 73.8254,-552.5 73.8254,-546.5 73.8254,-546.5 73.8254,-456.5 73.8254,-456.5 73.8254,-450.5 79.8254,-444.5 85.8254,-444.5"/>
<text text-anchor="middle" x="197.6877" y="-543.3" font-family="Times,serif" font-size="14.00" fill="#000000">Capability</text>
<polyline fill="none" stroke="#000000" points="73.8254,-536.5 321.55,-536.5 "/>
<text text-anchor="start" x="81.8254" y="-521.3" font-family="Times,serif" font-size="14.00" fill="#000000">id :uuid</text>
<text text-anchor="start" x="81.8254" y="-507.3" font-family="Times,serif" font-size="14.00" fill="#000000">entity_id :uuid</text>
<text text-anchor="start" x="81.8254" y="-493.3" font-family="Times,serif" font-size="14.00" fill="#000000">entity_type :character varying</text>
<text text-anchor="start" x="81.8254" y="-479.3" font-family="Times,serif" font-size="14.00" fill="#000000">role_id :uuid</text>
<text text-anchor="start" x="81.8254" y="-465.3" font-family="Times,serif" font-size="14.00" fill="#000000">created_at :timestamp without time zone</text>
<text text-anchor="start" x="81.8254" y="-451.3" font-family="Times,serif" font-size="14.00" fill="#000000">updated_at :timestamp without time zone</text>
</g>
<!-- Group&#45;&gt;Capability -->
<g id="edge4" class="edge">
<title>Group&#45;&gt;Capability</title>
<path fill="none" stroke="#06f150" d="M328.9129,-865.8224C300.946,-788.1777 251.2952,-650.3314 221.7413,-568.2803"/>
<ellipse fill="none" stroke="#06f150" cx="330.2989" cy="-869.6706" rx="4" ry="4"/>
<polygon fill="#06f150" stroke="#06f150" points="221.6284,-567.9668 222.4734,-557.0335 219.934,-563.2626 218.2396,-558.5585 218.2396,-558.5585 218.2396,-558.5585 219.934,-563.2626 214.0059,-560.0835 221.6284,-567.9668 221.6284,-567.9668"/>
</g>
<!-- Member -->
<g id="node5" class="node">
<title>Member</title>
<path fill="none" stroke="#000000" d="M351.8254,-451.5C351.8254,-451.5 575.55,-451.5 575.55,-451.5 581.55,-451.5 587.55,-457.5 587.55,-463.5 587.55,-463.5 587.55,-539.5 587.55,-539.5 587.55,-545.5 581.55,-551.5 575.55,-551.5 575.55,-551.5 351.8254,-551.5 351.8254,-551.5 345.8254,-551.5 339.8254,-545.5 339.8254,-539.5 339.8254,-539.5 339.8254,-463.5 339.8254,-463.5 339.8254,-457.5 345.8254,-451.5 351.8254,-451.5"/>
<text text-anchor="middle" x="463.6877" y="-536.3" font-family="Times,serif" font-size="14.00" fill="#000000">Member</text>
<polyline fill="none" stroke="#000000" points="339.8254,-529.5 587.55,-529.5 "/>
<text text-anchor="start" x="347.8254" y="-514.3" font-family="Times,serif" font-size="14.00" fill="#000000">id :uuid</text>
<text text-anchor="start" x="347.8254" y="-500.3" font-family="Times,serif" font-size="14.00" fill="#000000">group_id :uuid</text>
<text text-anchor="start" x="347.8254" y="-486.3" font-family="Times,serif" font-size="14.00" fill="#000000">person_id :uuid</text>
<text text-anchor="start" x="347.8254" y="-472.3" font-family="Times,serif" font-size="14.00" fill="#000000">created_at :timestamp without time zone</text>
<text text-anchor="start" x="347.8254" y="-458.3" font-family="Times,serif" font-size="14.00" fill="#000000">updated_at :timestamp without time zone</text>
</g>
<!-- Group&#45;&gt;Member -->
<g id="edge2" class="edge">
<title>Group&#45;&gt;Member</title>
<path fill="none" stroke="#a8aaee" d="M345.6038,-865.2894C343.5273,-809.0111 345.3088,-722.0604 368.6877,-651 379.3544,-618.5787 398.6286,-586.1691 417.0418,-559.8552"/>
<ellipse fill="none" stroke="#a8aaee" cx="345.7716" cy="-869.368" rx="4" ry="4"/>
<polygon fill="#a8aaee" stroke="#a8aaee" points="417.1706,-559.6747 426.6414,-554.1469 420.0743,-555.6041 422.9779,-551.5336 422.9779,-551.5336 422.9779,-551.5336 420.0743,-555.6041 419.3144,-548.9204 417.1706,-559.6747 417.1706,-559.6747"/>
</g>
<!-- Person -->
<g id="node10" class="node">
<title>Person</title>
<path fill="none" stroke="#000000" d="M389.8254,-665.5C389.8254,-665.5 613.55,-665.5 613.55,-665.5 619.55,-665.5 625.55,-671.5 625.55,-677.5 625.55,-677.5 625.55,-809.5 625.55,-809.5 625.55,-815.5 619.55,-821.5 613.55,-821.5 613.55,-821.5 389.8254,-821.5 389.8254,-821.5 383.8254,-821.5 377.8254,-815.5 377.8254,-809.5 377.8254,-809.5 377.8254,-677.5 377.8254,-677.5 377.8254,-671.5 383.8254,-665.5 389.8254,-665.5"/>
<text text-anchor="middle" x="501.6877" y="-806.3" font-family="Times,serif" font-size="14.00" fill="#000000">Person</text>
<polyline fill="none" stroke="#000000" points="377.8254,-799.5 625.55,-799.5 "/>
<text text-anchor="start" x="385.8254" y="-784.3" font-family="Times,serif" font-size="14.00" fill="#000000">updated_at :timestamp without time zone</text>
<text text-anchor="start" x="385.8254" y="-770.3" font-family="Times,serif" font-size="14.00" fill="#000000">name :character varying</text>
<text text-anchor="start" x="385.8254" y="-756.3" font-family="Times,serif" font-size="14.00" fill="#000000">external_id :character varying</text>
<text text-anchor="start" x="385.8254" y="-742.3" font-family="Times,serif" font-size="14.00" fill="#000000">salutation :character varying</text>
<text text-anchor="start" x="385.8254" y="-728.3" font-family="Times,serif" font-size="14.00" fill="#000000">first_name :character varying</text>
<text text-anchor="start" x="385.8254" y="-714.3" font-family="Times,serif" font-size="14.00" fill="#000000">middle_name :character varying</text>
<text text-anchor="start" x="385.8254" y="-700.3" font-family="Times,serif" font-size="14.00" fill="#000000">last_name :character varying</text>
<text text-anchor="start" x="385.8254" y="-686.3" font-family="Times,serif" font-size="14.00" fill="#000000">created_at :timestamp without time zone</text>
<text text-anchor="start" x="385.8254" y="-672.3" font-family="Times,serif" font-size="14.00" fill="#000000">id :uuid</text>
</g>
<!-- Group&#45;&gt;Person -->
<g id="edge3" class="edge">
<title>Group&#45;&gt;Person</title>
<path fill="none" stroke="#6c4100" d="M398.4912,-865.7064C408.2937,-854.0983 418.7914,-841.6667 429.2011,-829.3394"/>
<polygon fill="#6c4100" stroke="#6c4100" points="398.4801,-865.7196 388.5901,-870.4566 395.2541,-869.5398 392.0282,-873.36 392.0282,-873.36 392.0282,-873.36 395.2541,-869.5398 395.4664,-876.2633 398.4801,-865.7196 398.4801,-865.7196"/>
<polygon fill="#6c4100" stroke="#6c4100" points="429.2124,-829.3261 439.1024,-824.5891 432.4383,-825.5059 435.6642,-821.6858 435.6642,-821.6858 435.6642,-821.6858 432.4383,-825.5059 432.2261,-818.7824 429.2124,-829.3261 429.2124,-829.3261"/>
</g>
<!-- Event -->
<g id="node11" class="node">
<title>Event</title>
<path fill="none" stroke="#000000" d="M693.8254,-.5C693.8254,-.5 917.55,-.5 917.55,-.5 923.55,-.5 929.55,-6.5 929.55,-12.5 929.55,-12.5 929.55,-214.5 929.55,-214.5 929.55,-220.5 923.55,-226.5 917.55,-226.5 917.55,-226.5 693.8254,-226.5 693.8254,-226.5 687.8254,-226.5 681.8254,-220.5 681.8254,-214.5 681.8254,-214.5 681.8254,-12.5 681.8254,-12.5 681.8254,-6.5 687.8254,-.5 693.8254,-.5"/>
<text text-anchor="middle" x="805.6877" y="-211.3" font-family="Times,serif" font-size="14.00" fill="#000000">Event</text>
<polyline fill="none" stroke="#000000" points="681.8254,-204.5 929.55,-204.5 "/>
<text text-anchor="start" x="689.8254" y="-189.3" font-family="Times,serif" font-size="14.00" fill="#000000">session_id :uuid</text>
<text text-anchor="start" x="689.8254" y="-175.3" font-family="Times,serif" font-size="14.00" fill="#000000">person_id :uuid</text>
<text text-anchor="start" x="689.8254" y="-161.3" font-family="Times,serif" font-size="14.00" fill="#000000">parent_id :uuid</text>
<text text-anchor="start" x="689.8254" y="-147.3" font-family="Times,serif" font-size="14.00" fill="#000000">next_id :uuid</text>
<text text-anchor="start" x="689.8254" y="-133.3" font-family="Times,serif" font-size="14.00" fill="#000000">topic_uri :character varying</text>
<text text-anchor="start" x="689.8254" y="-119.3" font-family="Times,serif" font-size="14.00" fill="#000000">model_uri :character varying</text>
<text text-anchor="start" x="689.8254" y="-105.3" font-family="Times,serif" font-size="14.00" fill="#000000">controller_uri :character varying</text>
<text text-anchor="start" x="689.8254" y="-91.3" font-family="Times,serif" font-size="14.00" fill="#000000">agent_uri :character varying</text>
<text text-anchor="start" x="689.8254" y="-77.3" font-family="Times,serif" font-size="14.00" fill="#000000">action_uri :character varying</text>
<text text-anchor="start" x="689.8254" y="-63.3" font-family="Times,serif" font-size="14.00" fill="#000000">created_at :timestamp without time zone</text>
<text text-anchor="start" x="689.8254" y="-49.3" font-family="Times,serif" font-size="14.00" fill="#000000">updated_at :timestamp without time zone</text>
<text text-anchor="start" x="689.8254" y="-35.3" font-family="Times,serif" font-size="14.00" fill="#000000">parameters :json</text>
<text text-anchor="start" x="689.8254" y="-21.3" font-family="Times,serif" font-size="14.00" fill="#000000">time_to_live :integer</text>
<text text-anchor="start" x="689.8254" y="-7.3" font-family="Times,serif" font-size="14.00" fill="#000000">id :uuid</text>
</g>
<!-- Session&#45;&gt;Event -->
<g id="edge5" class="edge">
<title>Session&#45;&gt;Event</title>
<path fill="none" stroke="#028e31" d="M751.5098,-256.7865C753.9912,-250.2237 756.5858,-243.3616 759.2383,-236.3465"/>
<ellipse fill="none" stroke="#028e31" cx="750.0844" cy="-260.5562" rx="4" ry="4"/>
<polygon fill="#028e31" stroke="#028e31" points="759.3492,-236.0531 767.0951,-228.2909 761.1176,-231.3762 762.886,-226.6994 762.886,-226.6994 762.886,-226.6994 761.1176,-231.3762 758.6768,-225.1078 759.3492,-236.0531 759.3492,-236.0531"/>
</g>
<!-- Role -->
<g id="node7" class="node">
<title>Role</title>
<path fill="none" stroke="#000000" d="M237.8254,-1018.5C237.8254,-1018.5 461.55,-1018.5 461.55,-1018.5 467.55,-1018.5 473.55,-1024.5 473.55,-1030.5 473.55,-1030.5 473.55,-1120.5 473.55,-1120.5 473.55,-1126.5 467.55,-1132.5 461.55,-1132.5 461.55,-1132.5 237.8254,-1132.5 237.8254,-1132.5 231.8254,-1132.5 225.8254,-1126.5 225.8254,-1120.5 225.8254,-1120.5 225.8254,-1030.5 225.8254,-1030.5 225.8254,-1024.5 231.8254,-1018.5 237.8254,-1018.5"/>
<text text-anchor="middle" x="349.6877" y="-1117.3" font-family="Times,serif" font-size="14.00" fill="#000000">Role</text>
<polyline fill="none" stroke="#000000" points="225.8254,-1110.5 473.55,-1110.5 "/>
<text text-anchor="start" x="233.8254" y="-1095.3" font-family="Times,serif" font-size="14.00" fill="#000000">id :uuid</text>
<text text-anchor="start" x="233.8254" y="-1081.3" font-family="Times,serif" font-size="14.00" fill="#000000">name :character varying</text>
<text text-anchor="start" x="233.8254" y="-1067.3" font-family="Times,serif" font-size="14.00" fill="#000000">code :character varying</text>
<text text-anchor="start" x="233.8254" y="-1053.3" font-family="Times,serif" font-size="14.00" fill="#000000">description :text</text>
<text text-anchor="start" x="233.8254" y="-1039.3" font-family="Times,serif" font-size="14.00" fill="#000000">created_at :timestamp without time zone</text>
<text text-anchor="start" x="233.8254" y="-1025.3" font-family="Times,serif" font-size="14.00" fill="#000000">updated_at :timestamp without time zone</text>
</g>
<!-- Role&#45;&gt;Group -->
<g id="edge8" class="edge">
<title>Role&#45;&gt;Group</title>
<path fill="none" stroke="#d4d840" d="M349.6877,-1008.3785C349.6877,-1000.2258 349.6877,-991.935 349.6877,-983.8882"/>
<polygon fill="#d4d840" stroke="#d4d840" points="349.6878,-1008.4684 345.1877,-1018.4683 349.6878,-1013.4684 349.6877,-1018.4684 349.6877,-1018.4684 349.6877,-1018.4684 349.6878,-1013.4684 354.1877,-1018.4684 349.6878,-1008.4684 349.6878,-1008.4684"/>
<polygon fill="#d4d840" stroke="#d4d840" points="349.6878,-983.8549 354.1877,-973.8548 349.6878,-978.8549 349.6877,-973.8549 349.6877,-973.8549 349.6877,-973.8549 349.6878,-978.8549 345.1877,-973.8549 349.6878,-983.8549 349.6878,-983.8549"/>
</g>
<!-- Role&#45;&gt;Capability -->
<g id="edge6" class="edge">
<title>Role&#45;&gt;Capability</title>
<path fill="none" stroke="#ce4ad1" d="M246.6479,-1012.7835C234.7252,-1001.3403 224.1738,-988.3948 216.6877,-974 148.8242,-843.5058 166.6424,-664.2416 183.4531,-568.3834"/>
<ellipse fill="none" stroke="#ce4ad1" cx="249.6641" cy="-1015.5673" rx="4" ry="4"/>
<polygon fill="#ce4ad1" stroke="#ce4ad1" points="183.456,-568.3669 189.6589,-559.3239 184.3431,-563.4462 185.2302,-558.5255 185.2302,-558.5255 185.2302,-558.5255 184.3431,-563.4462 180.8016,-557.7271 183.456,-568.3669 183.456,-568.3669"/>
</g>
<!-- Role&#45;&gt;Person -->
<g id="edge7" class="edge">
<title>Role&#45;&gt;Person</title>
<path fill="none" stroke="#426d15" d="M453.5425,-1011.1793C464.9926,-1000.1073 475.1975,-987.6917 482.6877,-974 506.1578,-931.0981 511.5968,-876.848 510.849,-831.7571"/>
<polygon fill="#426d15" stroke="#426d15" points="453.2095,-1011.486 442.8055,-1014.9513 449.5319,-1014.8736 445.8543,-1018.2611 445.8543,-1018.2611 445.8543,-1018.2611 449.5319,-1014.8736 448.9031,-1021.5709 453.2095,-1011.486 453.2095,-1011.486"/>
<polygon fill="#426d15" stroke="#426d15" points="510.8473,-831.6888 515.0767,-821.5714 510.7128,-826.6906 510.5783,-821.6924 510.5783,-821.6924 510.5783,-821.6924 510.7128,-826.6906 506.08,-821.8134 510.8473,-831.6888 510.8473,-831.6888"/>
</g>
<!-- Client -->
<g id="node8" class="node">
<title>Client</title>
<path fill="none" stroke="#000000" d="M503.8254,-1011.5C503.8254,-1011.5 727.55,-1011.5 727.55,-1011.5 733.55,-1011.5 739.55,-1017.5 739.55,-1023.5 739.55,-1023.5 739.55,-1127.5 739.55,-1127.5 739.55,-1133.5 733.55,-1139.5 727.55,-1139.5 727.55,-1139.5 503.8254,-1139.5 503.8254,-1139.5 497.8254,-1139.5 491.8254,-1133.5 491.8254,-1127.5 491.8254,-1127.5 491.8254,-1023.5 491.8254,-1023.5 491.8254,-1017.5 497.8254,-1011.5 503.8254,-1011.5"/>
<text text-anchor="middle" x="615.6877" y="-1124.3" font-family="Times,serif" font-size="14.00" fill="#000000">Client</text>
<polyline fill="none" stroke="#000000" points="491.8254,-1117.5 739.55,-1117.5 "/>
<text text-anchor="start" x="499.8254" y="-1102.3" font-family="Times,serif" font-size="14.00" fill="#000000">id :uuid</text>
<text text-anchor="start" x="499.8254" y="-1088.3" font-family="Times,serif" font-size="14.00" fill="#000000">name :character varying</text>
<text text-anchor="start" x="499.8254" y="-1074.3" font-family="Times,serif" font-size="14.00" fill="#000000">launch_url :character varying</text>
<text text-anchor="start" x="499.8254" y="-1060.3" font-family="Times,serif" font-size="14.00" fill="#000000">icon_url :character varying</text>
<text text-anchor="start" x="499.8254" y="-1046.3" font-family="Times,serif" font-size="14.00" fill="#000000">available :boolean</text>
<text text-anchor="start" x="499.8254" y="-1032.3" font-family="Times,serif" font-size="14.00" fill="#000000">created_at :timestamp without time zone</text>
<text text-anchor="start" x="499.8254" y="-1018.3" font-family="Times,serif" font-size="14.00" fill="#000000">updated_at :timestamp without time zone</text>
</g>
<!-- Ability -->
<g id="node9" class="node">
<title>Ability</title>
<polygon fill="none" stroke="#000000" points="757.8533,-1053.5 757.8533,-1097.5 813.5222,-1097.5 813.5222,-1053.5 757.8533,-1053.5"/>
<text text-anchor="middle" x="785.6877" y="-1082.3" font-family="Times,serif" font-size="14.00" fill="#000000">Ability</text>
<polyline fill="none" stroke="#000000" points="757.8533,-1075.5 813.5222,-1075.5 "/>
<text text-anchor="middle" x="785.6877" y="-1060.3" font-family="Times,serif" font-size="14.00" fill="#000000"> </text>
</g>
<!-- Person&#45;&gt;Identity -->
<g id="edge12" class="edge">
<title>Person&#45;&gt;Identity</title>
<path fill="none" stroke="#b9f986" d="M580.895,-659.4292C596.5136,-642.8515 613.096,-625.2509 629.3057,-608.0458"/>
<ellipse fill="none" stroke="#b9f986" cx="578.1409" cy="-662.3523" rx="4" ry="4"/>
<polygon fill="#b9f986" stroke="#b9f986" points="629.3686,-607.979 639.5014,-603.7864 632.7974,-604.3398 636.2261,-600.7005 636.2261,-600.7005 636.2261,-600.7005 632.7974,-604.3398 632.9507,-597.6147 629.3686,-607.979 629.3686,-607.979"/>
</g>
<!-- Person&#45;&gt;Capability -->
<g id="edge11" class="edge">
<title>Person&#45;&gt;Capability</title>
<path fill="none" stroke="#41f736" d="M396.983,-660.1495C357.9327,-629.0634 314.2567,-594.295 277.7671,-565.2474"/>
<ellipse fill="none" stroke="#41f736" cx="400.278" cy="-662.7725" rx="4" ry="4"/>
<polygon fill="#41f736" stroke="#41f736" points="277.4402,-564.9871 272.4191,-555.2383 273.5283,-561.8731 269.6164,-558.759 269.6164,-558.759 269.6164,-558.759 273.5283,-561.8731 266.8137,-562.2797 277.4402,-564.9871 277.4402,-564.9871"/>
</g>
<!-- Person&#45;&gt;Member -->
<g id="edge10" class="edge">
<title>Person&#45;&gt;Member</title>
<path fill="none" stroke="#b9d3f5" d="M488.1542,-657.3126C483.182,-625.6474 477.6638,-590.5056 473.1284,-561.6222"/>
<ellipse fill="none" stroke="#b9d3f5" cx="488.7822" cy="-661.3122" rx="4" ry="4"/>
<polygon fill="#b9d3f5" stroke="#b9d3f5" points="473.119,-561.5617 476.0132,-550.9846 472.3433,-556.6222 471.5677,-551.6827 471.5677,-551.6827 471.5677,-551.6827 472.3433,-556.6222 467.1221,-552.3808 473.119,-561.5617 473.119,-561.5617"/>
<text text-anchor="middle" x="522.0154" y="-621.8" font-family="Times,serif" font-size="14.00" fill="#000000">memberships</text>
</g>
<!-- Person&#45;&gt;Event -->
<g id="edge9" class="edge">
<title>Person&#45;&gt;Event</title>
<path fill="none" stroke="#1e03c4" d="M633.4248,-699.5813C730.7532,-665.8113 848.697,-621.564 862.6877,-601 935.6208,-493.8011 901.7195,-341.8133 862.2162,-236.149"/>
<ellipse fill="none" stroke="#1e03c4" cx="629.6422" cy="-700.8904" rx="4" ry="4"/>
<polygon fill="#1e03c4" stroke="#1e03c4" points="862.1816,-236.0578 862.833,-225.1113 860.4043,-231.3843 858.6269,-226.7109 858.6269,-226.7109 858.6269,-226.7109 860.4043,-231.3843 854.4208,-228.3105 862.1816,-236.0578 862.1816,-236.0578"/>
</g>
<!-- Event&#45;&gt;Event -->
<g id="edge13" class="edge">
<title>Event&#45;&gt;Event</title>
<path fill="none" stroke="#333edc" d="M937.5341,-121.3585C943.8447,-119.3855 947.55,-116.766 947.55,-113.5 947.55,-110.5815 944.5911,-108.1792 939.4584,-106.2931"/>
<ellipse fill="none" stroke="#333edc" cx="933.6044" cy="-122.3071" rx="4" ry="4"/>
<polygon fill="#333edc" stroke="#333edc" points="939.3928,-106.2761 930.8509,-99.3997 934.5544,-105.0152 929.716,-103.7542 929.716,-103.7542 929.716,-103.7542 934.5544,-105.0152 928.5812,-108.1088 939.3928,-106.2761 939.3928,-106.2761"/>
<text text-anchor="middle" x="982.9294" y="-109.3" font-family="Times,serif" font-size="14.00" fill="#000000">child_events</text>
</g>
<!-- Event&#45;&gt;Event -->
<g id="edge14" class="edge">
<title>Event&#45;&gt;Event</title>
<path fill="none" stroke="#2fb443" d="M938.0609,-138.2023C981.8948,-137.51 1018.3088,-129.2759 1018.3088,-113.5 1018.3088,-97.9532 982.9448,-89.7307 939.9659,-88.8326"/>
<ellipse fill="none" stroke="#2fb443" cx="933.7969" cy="-138.2238" rx="4" ry="4"/>
<polygon fill="#2fb443" stroke="#2fb443" points="939.7966,-88.8314 929.8308,-84.2562 934.7968,-88.7937 929.7969,-88.756 929.7969,-88.756 929.7969,-88.756 934.7968,-88.7937 929.763,-93.2559 939.7966,-88.8314 939.7966,-88.8314"/>
<text text-anchor="middle" x="1063.7986" y="-109.3" font-family="Times,serif" font-size="14.00" fill="#000000">previous_events</text>
</g>
<!-- IdentityProvider -->
<g id="node12" class="node">
<title>IdentityProvider</title>
<path fill="none" stroke="#000000" d="M794.8254,-651.5C794.8254,-651.5 1018.55,-651.5 1018.55,-651.5 1024.55,-651.5 1030.55,-657.5 1030.55,-663.5 1030.55,-663.5 1030.55,-823.5 1030.55,-823.5 1030.55,-829.5 1024.55,-835.5 1018.55,-835.5 1018.55,-835.5 794.8254,-835.5 794.8254,-835.5 788.8254,-835.5 782.8254,-829.5 782.8254,-823.5 782.8254,-823.5 782.8254,-663.5 782.8254,-663.5 782.8254,-657.5 788.8254,-651.5 794.8254,-651.5"/>
<text text-anchor="middle" x="906.6877" y="-820.3" font-family="Times,serif" font-size="14.00" fill="#000000">IdentityProvider</text>
<polyline fill="none" stroke="#000000" points="782.8254,-813.5 1030.55,-813.5 "/>
<text text-anchor="start" x="790.8254" y="-798.3" font-family="Times,serif" font-size="14.00" fill="#000000">scopes :character varying</text>
<text text-anchor="start" x="790.8254" y="-784.3" font-family="Times,serif" font-size="14.00" fill="#000000">name :character varying</text>
<text text-anchor="start" x="790.8254" y="-770.3" font-family="Times,serif" font-size="14.00" fill="#000000">issuer :character varying</text>
<text text-anchor="start" x="790.8254" y="-756.3" font-family="Times,serif" font-size="14.00" fill="#000000">client_id :character varying</text>
<text text-anchor="start" x="790.8254" y="-742.3" font-family="Times,serif" font-size="14.00" fill="#000000">client_secret :character varying</text>
<text text-anchor="start" x="790.8254" y="-728.3" font-family="Times,serif" font-size="14.00" fill="#000000">alternate_client_id :character varying</text>
<text text-anchor="start" x="790.8254" y="-714.3" font-family="Times,serif" font-size="14.00" fill="#000000">configuration :json</text>
<text text-anchor="start" x="790.8254" y="-700.3" font-family="Times,serif" font-size="14.00" fill="#000000">public_keys :json</text>
<text text-anchor="start" x="790.8254" y="-686.3" font-family="Times,serif" font-size="14.00" fill="#000000">created_at :timestamp without time zone</text>
<text text-anchor="start" x="790.8254" y="-672.3" font-family="Times,serif" font-size="14.00" fill="#000000">updated_at :timestamp without time zone</text>
<text text-anchor="start" x="790.8254" y="-658.3" font-family="Times,serif" font-size="14.00" fill="#000000">id :uuid</text>
</g>
<!-- IdentityProvider&#45;&gt;Identity -->
<g id="edge15" class="edge">
<title>IdentityProvider&#45;&gt;Identity</title>
<path fill="none" stroke="#9eb84c" d="M834.4126,-644.6832C825.7845,-632.8866 816.9434,-620.7987 808.2326,-608.889"/>
<ellipse fill="none" stroke="#9eb84c" cx="836.9053" cy="-648.0912" rx="4" ry="4"/>
<polygon fill="#9eb84c" stroke="#9eb84c" points="808.1306,-608.7495 805.8592,-598.0214 805.1788,-604.7138 802.2271,-600.678 802.2271,-600.678 802.2271,-600.678 805.1788,-604.7138 798.5949,-603.3346 808.1306,-608.7495 808.1306,-608.7495"/>
</g>
</g>
</svg>
