<?xml version="1.0" encoding="UTF-8" standalone="no"?>
<!DOCTYPE svg PUBLIC "-//W3C//DTD SVG 1.1//EN"
 "http://www.w3.org/Graphics/SVG/1.1/DTD/svg11.dtd">
<!-- Generated by graphviz version 2.40.1 (20161225.0304)
 -->
<!-- Title: models_diagram Pages: 1 -->
<svg width="568pt" height="459pt"
 viewBox="0.00 0.00 567.76 459.00" xmlns="http://www.w3.org/2000/svg" xmlns:xlink="http://www.w3.org/1999/xlink">
<g id="graph0" class="graph" transform="scale(1 1) rotate(0) translate(4 455)">
<title>models_diagram</title>
<polygon fill="transparent" stroke="transparent" points="-4,4 -4,-455 563.7564,-455 563.7564,4 -4,4"/>
<!-- _diagram_info -->
<g id="node1" class="node">
<title>_diagram_info</title>
<text text-anchor="start" x="8" y="-436.6" font-family="Times,serif" font-size="13.00" fill="#000000">Models diagram</text>
<text text-anchor="start" x="8" y="-423.6" font-family="Times,serif" font-size="13.00" fill="#000000">Date: Jun 04 2018 &#45; 21:00</text>
<text text-anchor="start" x="8" y="-410.6" font-family="Times,serif" font-size="13.00" fill="#000000">Migration version: 20180605013519</text>
<text text-anchor="start" x="8" y="-397.6" font-family="Times,serif" font-size="13.00" fill="#000000">Generated by RailRoady 1.5.3</text>
<text text-anchor="start" x="8" y="-384.6" font-family="Times,serif" font-size="13.00" fill="#000000">http://railroady.prestonlee.com</text>
</g>
<!-- Identity -->
<g id="node2" class="node">
<title>Identity</title>
<ellipse fill="none" stroke="#000000" cx="400.6877" cy="-164" rx="37.7266" ry="18"/>
<text text-anchor="middle" x="400.6877" y="-159.8" font-family="Times,serif" font-size="14.00" fill="#000000">Identity</text>
</g>
<!-- Session -->
<g id="node6" class="node">
<title>Session</title>
<ellipse fill="none" stroke="#000000" cx="400.6877" cy="-91" rx="37.2681" ry="18"/>
<text text-anchor="middle" x="400.6877" y="-86.8" font-family="Times,serif" font-size="14.00" fill="#000000">Session</text>
</g>
<!-- Identity&#45;&gt;Session -->
<g id="edge1" class="edge">
<title>Identity&#45;&gt;Session</title>
<path fill="none" stroke="#496eb1" d="M400.6877,-137.9079C400.6877,-131.9427 400.6877,-125.5729 400.6877,-119.512"/>
<ellipse fill="none" stroke="#496eb1" cx="400.6878" cy="-141.9551" rx="4" ry="4"/>
<polygon fill="#496eb1" stroke="#496eb1" points="400.6878,-119.0904 405.1877,-109.0903 400.6878,-114.0904 400.6877,-109.0904 400.6877,-109.0904 400.6877,-109.0904 400.6878,-114.0904 396.1877,-109.0904 400.6878,-119.0904 400.6878,-119.0904"/>
</g>
<!-- Group -->
<g id="node3" class="node">
<title>Group</title>
<ellipse fill="none" stroke="#000000" cx="252.6877" cy="-323" rx="32.9081" ry="18"/>
<text text-anchor="middle" x="252.6877" y="-318.8" font-family="Times,serif" font-size="14.00" fill="#000000">Group</text>
</g>
<!-- Capability -->
<g id="node4" class="node">
<title>Capability</title>
<ellipse fill="none" stroke="#000000" cx="199.6877" cy="-164" rx="46.8977" ry="18"/>
<text text-anchor="middle" x="199.6877" y="-159.8" font-family="Times,serif" font-size="14.00" fill="#000000">Capability</text>
</g>
<!-- Group&#45;&gt;Capability -->
<g id="edge4" class="edge">
<title>Group&#45;&gt;Capability</title>
<path fill="none" stroke="#8eeec3" d="M244.1446,-297.3705C234.5138,-268.4781 218.908,-221.6609 208.9798,-191.8762"/>
<ellipse fill="none" stroke="#8eeec3" cx="245.4461" cy="-301.275" rx="4" ry="4"/>
<polygon fill="#8eeec3" stroke="#8eeec3" points="208.8863,-191.5955 209.993,-180.6856 207.3051,-186.8521 205.724,-182.1087 205.724,-182.1087 205.724,-182.1087 207.3051,-186.8521 201.4549,-183.5317 208.8863,-191.5955 208.8863,-191.5955"/>
</g>
<!-- Member -->
<g id="node5" class="node">
<title>Member</title>
<ellipse fill="none" stroke="#000000" cx="304.6877" cy="-164" rx="40.1317" ry="18"/>
<text text-anchor="middle" x="304.6877" y="-159.8" font-family="Times,serif" font-size="14.00" fill="#000000">Member</text>
</g>
<!-- Group&#45;&gt;Member -->
<g id="edge2" class="edge">
<title>Group&#45;&gt;Member</title>
<path fill="none" stroke="#477695" d="M256.3862,-296.9002C259.4202,-278.4574 264.4111,-253.326 271.6877,-232 276.4693,-217.9866 283.4468,-203.1158 289.7555,-190.8659"/>
<ellipse fill="none" stroke="#477695" cx="255.7525" cy="-300.9146" rx="4" ry="4"/>
<polygon fill="#477695" stroke="#477695" points="289.9432,-190.5107 298.5952,-183.7732 292.2801,-186.0904 294.6169,-181.67 294.6169,-181.67 294.6169,-181.67 292.2801,-186.0904 290.6386,-179.5669 289.9432,-190.5107 289.9432,-190.5107"/>
</g>
<!-- Person -->
<g id="node11" class="node">
<title>Person</title>
<ellipse fill="none" stroke="#000000" cx="314.6877" cy="-250" rx="34.3614" ry="18"/>
<text text-anchor="middle" x="314.6877" y="-245.8" font-family="Times,serif" font-size="14.00" fill="#000000">Person</text>
</g>
<!-- Group&#45;&gt;Person -->
<g id="edge3" class="edge">
<title>Group&#45;&gt;Person</title>
<path fill="none" stroke="#8f1420" d="M273.3131,-298.7153C279.912,-290.9456 287.2199,-282.3411 293.8349,-274.5525"/>
<polygon fill="#8f1420" stroke="#8f1420" points="273.23,-298.8132 263.3266,-303.5221 269.9932,-302.6242 266.7565,-306.4352 266.7565,-306.4352 266.7565,-306.4352 269.9932,-302.6242 270.1864,-309.3482 273.23,-298.8132 273.23,-298.8132"/>
<polygon fill="#8f1420" stroke="#8f1420" points="294.2012,-274.1213 304.1046,-269.4123 297.4379,-270.3103 300.6747,-266.4993 300.6747,-266.4993 300.6747,-266.4993 297.4379,-270.3103 297.2448,-263.5862 294.2012,-274.1213 294.2012,-274.1213"/>
</g>
<!-- Event -->
<g id="node12" class="node">
<title>Event</title>
<ellipse fill="none" stroke="#000000" cx="400.6877" cy="-18" rx="30.9706" ry="18"/>
<text text-anchor="middle" x="400.6877" y="-13.8" font-family="Times,serif" font-size="14.00" fill="#000000">Event</text>
</g>
<!-- Session&#45;&gt;Event -->
<g id="edge5" class="edge">
<title>Session&#45;&gt;Event</title>
<path fill="none" stroke="#492afb" d="M400.6877,-64.9079C400.6877,-58.9427 400.6877,-52.5729 400.6877,-46.512"/>
<ellipse fill="none" stroke="#492afb" cx="400.6878" cy="-68.9551" rx="4" ry="4"/>
<polygon fill="#492afb" stroke="#492afb" points="400.6878,-46.0904 405.1877,-36.0903 400.6878,-41.0904 400.6877,-36.0904 400.6877,-36.0904 400.6877,-36.0904 400.6878,-41.0904 396.1877,-36.0904 400.6878,-46.0904 400.6878,-46.0904"/>
</g>
<!-- Role -->
<g id="node7" class="node">
<title>Role</title>
<ellipse fill="none" stroke="#000000" cx="252.6877" cy="-414.5" rx="27" ry="18"/>
<text text-anchor="middle" x="252.6877" y="-410.3" font-family="Times,serif" font-size="14.00" fill="#000000">Role</text>
</g>
<!-- Role&#45;&gt;Group -->
<g id="edge8" class="edge">
<title>Role&#45;&gt;Group</title>
<path fill="none" stroke="#30dbd3" d="M252.6877,-386.2998C252.6877,-375.1245 252.6877,-362.3026 252.6877,-351.1338"/>
<polygon fill="#30dbd3" stroke="#30dbd3" points="252.6878,-386.4225 248.1877,-396.4225 252.6878,-391.4225 252.6877,-396.4225 252.6877,-396.4225 252.6877,-396.4225 252.6878,-391.4225 257.1877,-396.4226 252.6878,-386.4225 252.6878,-386.4225"/>
<polygon fill="#30dbd3" stroke="#30dbd3" points="252.6878,-351.0399 257.1877,-341.0399 252.6878,-346.0399 252.6877,-341.0399 252.6877,-341.0399 252.6877,-341.0399 252.6878,-346.0399 248.1877,-341.0399 252.6878,-351.0399 252.6878,-351.0399"/>
</g>
<!-- Role&#45;&gt;Capability -->
<g id="edge6" class="edge">
<title>Role&#45;&gt;Capability</title>
<path fill="none" stroke="#6d0713" d="M235.856,-391.4575C226.6742,-377.5664 216.1027,-359.1057 210.6877,-341 195.4975,-290.209 195.765,-227.6679 197.5683,-192.161"/>
<ellipse fill="none" stroke="#6d0713" cx="238.2464" cy="-394.9717" rx="4" ry="4"/>
<polygon fill="#6d0713" stroke="#6d0713" points="197.5756,-192.0352 202.6541,-182.3162 197.8687,-187.0438 198.1619,-182.0524 198.1619,-182.0524 198.1619,-182.0524 197.8687,-187.0438 193.6696,-181.7886 197.5756,-192.0352 197.5756,-192.0352"/>
</g>
<!-- Role&#45;&gt;Person -->
<g id="edge7" class="edge">
<title>Role&#45;&gt;Person</title>
<path fill="none" stroke="#3135ab" d="M269.4738,-389.5473C278.0988,-375.7435 288.143,-357.9874 294.6877,-341 302.5144,-320.6853 307.6394,-296.5793 310.7403,-278.283"/>
<polygon fill="#3135ab" stroke="#3135ab" points="269.4541,-389.5782 260.2722,-395.5734 266.758,-393.789 264.062,-397.9999 264.062,-397.9999 264.062,-397.9999 266.758,-393.789 267.8517,-400.4264 269.4541,-389.5782 269.4541,-389.5782"/>
<polygon fill="#3135ab" stroke="#3135ab" points="310.7646,-278.1299 316.7813,-268.9621 311.5509,-273.1922 312.3373,-268.2544 312.3373,-268.2544 312.3373,-268.2544 311.5509,-273.1922 307.8933,-267.5467 310.7646,-278.1299 310.7646,-278.1299"/>
</g>
<!-- Client -->
<g id="node8" class="node">
<title>Client</title>
<ellipse fill="none" stroke="#000000" cx="329.6877" cy="-414.5" rx="31.948" ry="18"/>
<text text-anchor="middle" x="329.6877" y="-410.3" font-family="Times,serif" font-size="14.00" fill="#000000">Client</text>
</g>
<!-- Ability -->
<g id="node9" class="node">
<title>Ability</title>
<polygon fill="none" stroke="#000000" points="435.3577,-432.5 380.0178,-432.5 380.0178,-396.5 435.3577,-396.5 435.3577,-432.5"/>
<text text-anchor="middle" x="407.6877" y="-410.3" font-family="Times,serif" font-size="14.00" fill="#000000">Ability</text>
</g>
<!-- Timeline -->
<g id="node10" class="node">
<title>Timeline</title>
<ellipse fill="none" stroke="#000000" cx="303.6877" cy="-91" rx="41.9491" ry="18"/>
<text text-anchor="middle" x="303.6877" y="-86.8" font-family="Times,serif" font-size="14.00" fill="#000000">Timeline</text>
</g>
<!-- Timeline&#45;&gt;Event -->
<g id="edge9" class="edge">
<title>Timeline&#45;&gt;Event</title>
<path fill="none" stroke="#c33d20" d="M331.3725,-70.1651C344.5703,-60.2327 360.3062,-48.3903 373.4464,-38.5012"/>
<ellipse fill="none" stroke="#c33d20" cx="327.9314" cy="-72.7548" rx="4" ry="4"/>
<polygon fill="#c33d20" stroke="#c33d20" points="373.6637,-38.3377 384.3598,-35.92 377.6588,-35.3311 381.6539,-32.3245 381.6539,-32.3245 381.6539,-32.3245 377.6588,-35.3311 378.9479,-28.7289 373.6637,-38.3377 373.6637,-38.3377"/>
</g>
<!-- Person&#45;&gt;Identity -->
<g id="edge13" class="edge">
<title>Person&#45;&gt;Identity</title>
<path fill="none" stroke="#b05d7f" d="M352.6344,-238.0899C365.02,-232.5303 377.8466,-224.7104 386.6877,-214 391.7951,-207.8128 395.0433,-199.8844 397.1078,-192.1733"/>
<ellipse fill="none" stroke="#b05d7f" cx="348.7111" cy="-239.7257" rx="4" ry="4"/>
<polygon fill="#b05d7f" stroke="#b05d7f" points="397.1215,-192.1085 403.5988,-183.2601 398.1591,-187.2174 399.1968,-182.3262 399.1968,-182.3262 399.1968,-182.3262 398.1591,-187.2174 394.7947,-181.3923 397.1215,-192.1085 397.1215,-192.1085"/>
</g>
<!-- Person&#45;&gt;Capability -->
<g id="edge12" class="edge">
<title>Person&#45;&gt;Capability</title>
<path fill="none" stroke="#03e94e" d="M288.3244,-230.2848C270.8309,-217.2027 247.832,-200.0035 229.6458,-186.4034"/>
<ellipse fill="none" stroke="#03e94e" cx="291.7152" cy="-232.8205" rx="4" ry="4"/>
<polygon fill="#03e94e" stroke="#03e94e" points="229.1581,-186.0388 223.8448,-176.4461 225.154,-183.0443 221.1498,-180.0499 221.1498,-180.0499 221.1498,-180.0499 225.154,-183.0443 218.4548,-183.6536 229.1581,-186.0388 229.1581,-186.0388"/>
</g>
<!-- Person&#45;&gt;Member -->
<g id="edge11" class="edge">
<title>Person&#45;&gt;Member</title>
<path fill="none" stroke="#5c6794" d="M311.6393,-223.7834C310.4788,-213.8033 309.152,-202.3925 307.9707,-192.2334"/>
<ellipse fill="none" stroke="#5c6794" cx="312.105" cy="-227.7884" rx="4" ry="4"/>
<polygon fill="#5c6794" stroke="#5c6794" points="307.9605,-192.1452 311.2753,-181.6923 307.383,-187.1786 306.8054,-182.2121 306.8054,-182.2121 306.8054,-182.2121 307.383,-187.1786 302.3355,-182.7319 307.9605,-192.1452 307.9605,-192.1452"/>
<text text-anchor="middle" x="348.0154" y="-202.8" font-family="Times,serif" font-size="14.00" fill="#000000">memberships</text>
</g>
<!-- Person&#45;&gt;Event -->
<g id="edge10" class="edge">
<title>Person&#45;&gt;Event</title>
<path fill="none" stroke="#d79063" d="M355.3572,-242.5252C387.6766,-234.0868 430.2491,-216.7153 447.6877,-182 453.3684,-170.6914 456.6555,-99.8796 446.6877,-73 442.1567,-60.7815 433.639,-49.3586 425.1529,-40.1239"/>
<ellipse fill="none" stroke="#d79063" cx="351.2675" cy="-243.5294" rx="4" ry="4"/>
<polygon fill="#d79063" stroke="#d79063" points="425.1018,-40.0715 421.342,-29.7703 421.611,-36.4917 418.1202,-32.912 418.1202,-32.912 418.1202,-32.912 421.611,-36.4917 414.8984,-36.0537 425.1018,-40.0715 425.1018,-40.0715"/>
</g>
<!-- IdentityProvider -->
<g id="node13" class="node">
<title>IdentityProvider</title>
<ellipse fill="none" stroke="#000000" cx="491.6877" cy="-250" rx="68.1374" ry="18"/>
<text text-anchor="middle" x="491.6877" y="-245.8" font-family="Times,serif" font-size="14.00" fill="#000000">IdentityProvider</text>
</g>
<!-- IdentityProvider&#45;&gt;Identity -->
<g id="edge14" class="edge">
<title>IdentityProvider&#45;&gt;Identity</title>
<path fill="none" stroke="#ad9f2f" d="M467.3029,-226.955C454.2488,-214.6181 438.215,-199.4653 425.1492,-187.1175"/>
<ellipse fill="none" stroke="#ad9f2f" cx="470.3654" cy="-229.8492" rx="4" ry="4"/>
<polygon fill="#ad9f2f" stroke="#ad9f2f" points="425.1122,-187.0824 420.9351,-176.9433 421.4782,-183.6481 417.8442,-180.2138 417.8442,-180.2138 417.8442,-180.2138 421.4782,-183.6481 414.7534,-183.4844 425.1122,-187.0824 425.1122,-187.0824"/>
</g>
</g>
</svg>
