<?xml version="1.0" encoding="UTF-8" standalone="no"?>
<!DOCTYPE svg PUBLIC "-//W3C//DTD SVG 1.1//EN"
 "http://www.w3.org/Graphics/SVG/1.1/DTD/svg11.dtd">
<!-- Generated by graphviz version 2.40.1 (20161225.0304)
 -->
<!-- Title: models_diagram Pages: 1 -->
<svg width="1349pt" height="968pt"
 viewBox="0.00 0.00 1348.72 968.00" xmlns="http://www.w3.org/2000/svg" xmlns:xlink="http://www.w3.org/1999/xlink">
<g id="graph0" class="graph" transform="scale(1 1) rotate(0) translate(4 964)">
<title>models_diagram</title>
<polygon fill="transparent" stroke="transparent" points="-4,4 -4,-964 1344.7246,-964 1344.7246,4 -4,4"/>
<!-- _diagram_info -->
<g id="node1" class="node">
<title>_diagram_info</title>
<text text-anchor="start" x="251.1421" y="-917.6" font-family="Times,serif" font-size="13.00" fill="#000000">Models diagram</text>
<text text-anchor="start" x="251.1421" y="-904.6" font-family="Times,serif" font-size="13.00" fill="#000000">Date: May 21 2018 &#45; 20:44</text>
<text text-anchor="start" x="251.1421" y="-891.6" font-family="Times,serif" font-size="13.00" fill="#000000">Migration version: 1</text>
<text text-anchor="start" x="251.1421" y="-878.6" font-family="Times,serif" font-size="13.00" fill="#000000">Generated by RailRoady 1.5.3</text>
<text text-anchor="start" x="251.1421" y="-865.6" font-family="Times,serif" font-size="13.00" fill="#000000">http://railroady.prestonlee.com</text>
</g>
<!-- Identity -->
<g id="node2" class="node">
<title>Identity</title>
<path fill="none" stroke="#000000" d="M278,-194.5C278,-194.5 501.7246,-194.5 501.7246,-194.5 507.7246,-194.5 513.7246,-200.5 513.7246,-206.5 513.7246,-206.5 513.7246,-394.5 513.7246,-394.5 513.7246,-400.5 507.7246,-406.5 501.7246,-406.5 501.7246,-406.5 278,-406.5 278,-406.5 272,-406.5 266,-400.5 266,-394.5 266,-394.5 266,-206.5 266,-206.5 266,-200.5 272,-194.5 278,-194.5"/>
<text text-anchor="middle" x="389.8623" y="-391.3" font-family="Times,serif" font-size="14.00" fill="#000000">Identity</text>
<polyline fill="none" stroke="#000000" points="266,-384.5 513.7246,-384.5 "/>
<text text-anchor="start" x="274" y="-369.3" font-family="Times,serif" font-size="14.00" fill="#000000">updated_at :timestamp without time zone</text>
<text text-anchor="start" x="274" y="-355.3" font-family="Times,serif" font-size="14.00" fill="#000000">person_id :uuid</text>
<text text-anchor="start" x="274" y="-341.3" font-family="Times,serif" font-size="14.00" fill="#000000">identity_provider_id :uuid</text>
<text text-anchor="start" x="274" y="-327.3" font-family="Times,serif" font-size="14.00" fill="#000000">sub :character varying</text>
<text text-anchor="start" x="274" y="-313.3" font-family="Times,serif" font-size="14.00" fill="#000000">iat :character varying</text>
<text text-anchor="start" x="274" y="-299.3" font-family="Times,serif" font-size="14.00" fill="#000000">hd :character varying</text>
<text text-anchor="start" x="274" y="-285.3" font-family="Times,serif" font-size="14.00" fill="#000000">locale :character varying</text>
<text text-anchor="start" x="274" y="-271.3" font-family="Times,serif" font-size="14.00" fill="#000000">email :character varying</text>
<text text-anchor="start" x="274" y="-257.3" font-family="Times,serif" font-size="14.00" fill="#000000">jwt :json</text>
<text text-anchor="start" x="274" y="-243.3" font-family="Times,serif" font-size="14.00" fill="#000000">notify_via_email :boolean</text>
<text text-anchor="start" x="274" y="-229.3" font-family="Times,serif" font-size="14.00" fill="#000000">notify_via_sms :boolean</text>
<text text-anchor="start" x="274" y="-215.3" font-family="Times,serif" font-size="14.00" fill="#000000">created_at :timestamp without time zone</text>
<text text-anchor="start" x="274" y="-201.3" font-family="Times,serif" font-size="14.00" fill="#000000">id :uuid</text>
</g>
<!-- Session -->
<g id="node6" class="node">
<title>Session</title>
<path fill="none" stroke="#000000" d="M145,-21.5C145,-21.5 368.7246,-21.5 368.7246,-21.5 374.7246,-21.5 380.7246,-27.5 380.7246,-33.5 380.7246,-33.5 380.7246,-109.5 380.7246,-109.5 380.7246,-115.5 374.7246,-121.5 368.7246,-121.5 368.7246,-121.5 145,-121.5 145,-121.5 139,-121.5 133,-115.5 133,-109.5 133,-109.5 133,-33.5 133,-33.5 133,-27.5 139,-21.5 145,-21.5"/>
<text text-anchor="middle" x="256.8623" y="-106.3" font-family="Times,serif" font-size="14.00" fill="#000000">Session</text>
<polyline fill="none" stroke="#000000" points="133,-99.5 380.7246,-99.5 "/>
<text text-anchor="start" x="141" y="-84.3" font-family="Times,serif" font-size="14.00" fill="#000000">id :uuid</text>
<text text-anchor="start" x="141" y="-70.3" font-family="Times,serif" font-size="14.00" fill="#000000">identity_id :uuid</text>
<text text-anchor="start" x="141" y="-56.3" font-family="Times,serif" font-size="14.00" fill="#000000">expires_at :timestamp without time zone</text>
<text text-anchor="start" x="141" y="-42.3" font-family="Times,serif" font-size="14.00" fill="#000000">created_at :timestamp without time zone</text>
<text text-anchor="start" x="141" y="-28.3" font-family="Times,serif" font-size="14.00" fill="#000000">updated_at :timestamp without time zone</text>
</g>
<!-- Identity&#45;&gt;Session -->
<g id="edge1" class="edge">
<title>Identity&#45;&gt;Session</title>
<path fill="none" stroke="#7419ba" d="M324.0759,-187.2287C312.6701,-167.59 301.2362,-147.9032 291.1167,-130.4794"/>
<ellipse fill="none" stroke="#7419ba" cx="326.2201" cy="-190.9206" rx="4" ry="4"/>
<polygon fill="#7419ba" stroke="#7419ba" points="290.9741,-130.2338 289.8431,-119.3263 288.4629,-125.9101 285.9518,-121.5864 285.9518,-121.5864 285.9518,-121.5864 288.4629,-125.9101 282.0605,-123.8464 290.9741,-130.2338 290.9741,-130.2338"/>
</g>
<!-- JsonWebToken -->
<g id="node7" class="node">
<title>JsonWebToken</title>
<path fill="none" stroke="#000000" d="M411,-21.5C411,-21.5 634.7246,-21.5 634.7246,-21.5 640.7246,-21.5 646.7246,-27.5 646.7246,-33.5 646.7246,-33.5 646.7246,-109.5 646.7246,-109.5 646.7246,-115.5 640.7246,-121.5 634.7246,-121.5 634.7246,-121.5 411,-121.5 411,-121.5 405,-121.5 399,-115.5 399,-109.5 399,-109.5 399,-33.5 399,-33.5 399,-27.5 405,-21.5 411,-21.5"/>
<text text-anchor="middle" x="522.8623" y="-106.3" font-family="Times,serif" font-size="14.00" fill="#000000">JsonWebToken</text>
<polyline fill="none" stroke="#000000" points="399,-99.5 646.7246,-99.5 "/>
<text text-anchor="start" x="407" y="-84.3" font-family="Times,serif" font-size="14.00" fill="#000000">id :uuid</text>
<text text-anchor="start" x="407" y="-70.3" font-family="Times,serif" font-size="14.00" fill="#000000">identity_id :uuid</text>
<text text-anchor="start" x="407" y="-56.3" font-family="Times,serif" font-size="14.00" fill="#000000">expires_at :timestamp without time zone</text>
<text text-anchor="start" x="407" y="-42.3" font-family="Times,serif" font-size="14.00" fill="#000000">created_at :timestamp without time zone</text>
<text text-anchor="start" x="407" y="-28.3" font-family="Times,serif" font-size="14.00" fill="#000000">updated_at :timestamp without time zone</text>
</g>
<!-- Identity&#45;&gt;JsonWebToken -->
<g id="edge2" class="edge">
<title>Identity&#45;&gt;JsonWebToken</title>
<path fill="none" stroke="#738045" d="M455.6487,-187.2287C467.0546,-167.59 478.4884,-147.9032 488.6079,-130.4794"/>
<ellipse fill="none" stroke="#738045" cx="453.5045" cy="-190.9206" rx="4" ry="4"/>
<polygon fill="#738045" stroke="#738045" points="488.7505,-130.2338 497.6641,-123.8464 491.2617,-125.9101 493.7728,-121.5864 493.7728,-121.5864 493.7728,-121.5864 491.2617,-125.9101 489.8815,-119.3263 488.7505,-130.2338 488.7505,-130.2338"/>
</g>
<!-- Group -->
<g id="node3" class="node">
<title>Group</title>
<path fill="none" stroke="#000000" d="M449,-693.5C449,-693.5 672.7246,-693.5 672.7246,-693.5 678.7246,-693.5 684.7246,-699.5 684.7246,-705.5 684.7246,-705.5 684.7246,-781.5 684.7246,-781.5 684.7246,-787.5 678.7246,-793.5 672.7246,-793.5 672.7246,-793.5 449,-793.5 449,-793.5 443,-793.5 437,-787.5 437,-781.5 437,-781.5 437,-705.5 437,-705.5 437,-699.5 443,-693.5 449,-693.5"/>
<text text-anchor="middle" x="560.8623" y="-778.3" font-family="Times,serif" font-size="14.00" fill="#000000">Group</text>
<polyline fill="none" stroke="#000000" points="437,-771.5 684.7246,-771.5 "/>
<text text-anchor="start" x="445" y="-756.3" font-family="Times,serif" font-size="14.00" fill="#000000">id :uuid</text>
<text text-anchor="start" x="445" y="-742.3" font-family="Times,serif" font-size="14.00" fill="#000000">name :character varying</text>
<text text-anchor="start" x="445" y="-728.3" font-family="Times,serif" font-size="14.00" fill="#000000">description :text</text>
<text text-anchor="start" x="445" y="-714.3" font-family="Times,serif" font-size="14.00" fill="#000000">created_at :timestamp without time zone</text>
<text text-anchor="start" x="445" y="-700.3" font-family="Times,serif" font-size="14.00" fill="#000000">updated_at :timestamp without time zone</text>
</g>
<!-- Capability -->
<g id="node4" class="node">
<title>Capability</title>
<path fill="none" stroke="#000000" d="M12,-243.5C12,-243.5 235.7246,-243.5 235.7246,-243.5 241.7246,-243.5 247.7246,-249.5 247.7246,-255.5 247.7246,-255.5 247.7246,-345.5 247.7246,-345.5 247.7246,-351.5 241.7246,-357.5 235.7246,-357.5 235.7246,-357.5 12,-357.5 12,-357.5 6,-357.5 0,-351.5 0,-345.5 0,-345.5 0,-255.5 0,-255.5 0,-249.5 6,-243.5 12,-243.5"/>
<text text-anchor="middle" x="123.8623" y="-342.3" font-family="Times,serif" font-size="14.00" fill="#000000">Capability</text>
<polyline fill="none" stroke="#000000" points="0,-335.5 247.7246,-335.5 "/>
<text text-anchor="start" x="8" y="-320.3" font-family="Times,serif" font-size="14.00" fill="#000000">id :uuid</text>
<text text-anchor="start" x="8" y="-306.3" font-family="Times,serif" font-size="14.00" fill="#000000">entity_id :uuid</text>
<text text-anchor="start" x="8" y="-292.3" font-family="Times,serif" font-size="14.00" fill="#000000">entity_type :character varying</text>
<text text-anchor="start" x="8" y="-278.3" font-family="Times,serif" font-size="14.00" fill="#000000">role_id :uuid</text>
<text text-anchor="start" x="8" y="-264.3" font-family="Times,serif" font-size="14.00" fill="#000000">created_at :timestamp without time zone</text>
<text text-anchor="start" x="8" y="-250.3" font-family="Times,serif" font-size="14.00" fill="#000000">updated_at :timestamp without time zone</text>
</g>
<!-- Group&#45;&gt;Capability -->
<g id="edge5" class="edge">
<title>Group&#45;&gt;Capability</title>
<path fill="none" stroke="#a99891" d="M428.677,-731.0626C326.6552,-718.5589 197.1434,-695.3683 161.8623,-656 124.9659,-614.8293 121.0181,-458.8248 122.03,-367.7326"/>
<ellipse fill="none" stroke="#a99891" cx="432.9315" cy="-731.5759" rx="4" ry="4"/>
<polygon fill="#a99891" stroke="#a99891" points="122.0331,-367.4993 126.6671,-357.5607 122.1003,-362.4997 122.1675,-357.5002 122.1675,-357.5002 122.1675,-357.5002 122.1003,-362.4997 117.6679,-357.4397 122.0331,-367.4993 122.0331,-367.4993"/>
</g>
<!-- Member -->
<g id="node5" class="node">
<title>Member</title>
<path fill="none" stroke="#000000" d="M544,-250.5C544,-250.5 767.7246,-250.5 767.7246,-250.5 773.7246,-250.5 779.7246,-256.5 779.7246,-262.5 779.7246,-262.5 779.7246,-338.5 779.7246,-338.5 779.7246,-344.5 773.7246,-350.5 767.7246,-350.5 767.7246,-350.5 544,-350.5 544,-350.5 538,-350.5 532,-344.5 532,-338.5 532,-338.5 532,-262.5 532,-262.5 532,-256.5 538,-250.5 544,-250.5"/>
<text text-anchor="middle" x="655.8623" y="-335.3" font-family="Times,serif" font-size="14.00" fill="#000000">Member</text>
<polyline fill="none" stroke="#000000" points="532,-328.5 779.7246,-328.5 "/>
<text text-anchor="start" x="540" y="-313.3" font-family="Times,serif" font-size="14.00" fill="#000000">id :uuid</text>
<text text-anchor="start" x="540" y="-299.3" font-family="Times,serif" font-size="14.00" fill="#000000">group_id :uuid</text>
<text text-anchor="start" x="540" y="-285.3" font-family="Times,serif" font-size="14.00" fill="#000000">person_id :uuid</text>
<text text-anchor="start" x="540" y="-271.3" font-family="Times,serif" font-size="14.00" fill="#000000">created_at :timestamp without time zone</text>
<text text-anchor="start" x="540" y="-257.3" font-family="Times,serif" font-size="14.00" fill="#000000">updated_at :timestamp without time zone</text>
</g>
<!-- Group&#45;&gt;Member -->
<g id="edge3" class="edge">
<title>Group&#45;&gt;Member</title>
<path fill="none" stroke="#150754" d="M668.3055,-687.9549C678.4806,-678.6225 687.3934,-667.9991 693.8623,-656 744.3919,-562.2726 710.1371,-434.5245 682.0373,-360.4388"/>
<ellipse fill="none" stroke="#150754" cx="665.1918" cy="-690.6715" rx="4" ry="4"/>
<polygon fill="#150754" stroke="#150754" points="681.9124,-360.1163 682.4937,-349.1658 680.1052,-355.4543 678.2979,-350.7923 678.2979,-350.7923 678.2979,-350.7923 680.1052,-355.4543 674.1021,-352.4189 681.9124,-360.1163 681.9124,-360.1163"/>
</g>
<!-- Person -->
<g id="node10" class="node">
<title>Person</title>
<path fill="none" stroke="#000000" d="M449,-485.5C449,-485.5 672.7246,-485.5 672.7246,-485.5 678.7246,-485.5 684.7246,-491.5 684.7246,-497.5 684.7246,-497.5 684.7246,-629.5 684.7246,-629.5 684.7246,-635.5 678.7246,-641.5 672.7246,-641.5 672.7246,-641.5 449,-641.5 449,-641.5 443,-641.5 437,-635.5 437,-629.5 437,-629.5 437,-497.5 437,-497.5 437,-491.5 443,-485.5 449,-485.5"/>
<text text-anchor="middle" x="560.8623" y="-626.3" font-family="Times,serif" font-size="14.00" fill="#000000">Person</text>
<polyline fill="none" stroke="#000000" points="437,-619.5 684.7246,-619.5 "/>
<text text-anchor="start" x="445" y="-604.3" font-family="Times,serif" font-size="14.00" fill="#000000">updated_at :timestamp without time zone</text>
<text text-anchor="start" x="445" y="-590.3" font-family="Times,serif" font-size="14.00" fill="#000000">name :character varying</text>
<text text-anchor="start" x="445" y="-576.3" font-family="Times,serif" font-size="14.00" fill="#000000">external_id :character varying</text>
<text text-anchor="start" x="445" y="-562.3" font-family="Times,serif" font-size="14.00" fill="#000000">salutation :character varying</text>
<text text-anchor="start" x="445" y="-548.3" font-family="Times,serif" font-size="14.00" fill="#000000">first_name :character varying</text>
<text text-anchor="start" x="445" y="-534.3" font-family="Times,serif" font-size="14.00" fill="#000000">middle_name :character varying</text>
<text text-anchor="start" x="445" y="-520.3" font-family="Times,serif" font-size="14.00" fill="#000000">last_name :character varying</text>
<text text-anchor="start" x="445" y="-506.3" font-family="Times,serif" font-size="14.00" fill="#000000">created_at :timestamp without time zone</text>
<text text-anchor="start" x="445" y="-492.3" font-family="Times,serif" font-size="14.00" fill="#000000">id :uuid</text>
</g>
<!-- Group&#45;&gt;Person -->
<g id="edge4" class="edge">
<title>Group&#45;&gt;Person</title>
<path fill="none" stroke="#b650d8" d="M560.8623,-683.3594C560.8623,-673.2351 560.8623,-662.5422 560.8623,-651.8797"/>
<polygon fill="#b650d8" stroke="#b650d8" points="560.8624,-683.36 556.3623,-693.3599 560.8624,-688.36 560.8623,-693.36 560.8623,-693.36 560.8623,-693.36 560.8624,-688.36 565.3623,-693.36 560.8624,-683.36 560.8624,-683.36"/>
<polygon fill="#b650d8" stroke="#b650d8" points="560.8624,-651.6858 565.3623,-641.6857 560.8624,-646.6858 560.8623,-641.6858 560.8623,-641.6858 560.8623,-641.6858 560.8624,-646.6858 556.3623,-641.6858 560.8624,-651.6858 560.8624,-651.6858"/>
</g>
<!-- Role -->
<g id="node8" class="node">
<title>Role</title>
<path fill="none" stroke="#000000" d="M449,-838.5C449,-838.5 672.7246,-838.5 672.7246,-838.5 678.7246,-838.5 684.7246,-844.5 684.7246,-850.5 684.7246,-850.5 684.7246,-940.5 684.7246,-940.5 684.7246,-946.5 678.7246,-952.5 672.7246,-952.5 672.7246,-952.5 449,-952.5 449,-952.5 443,-952.5 437,-946.5 437,-940.5 437,-940.5 437,-850.5 437,-850.5 437,-844.5 443,-838.5 449,-838.5"/>
<text text-anchor="middle" x="560.8623" y="-937.3" font-family="Times,serif" font-size="14.00" fill="#000000">Role</text>
<polyline fill="none" stroke="#000000" points="437,-930.5 684.7246,-930.5 "/>
<text text-anchor="start" x="445" y="-915.3" font-family="Times,serif" font-size="14.00" fill="#000000">id :uuid</text>
<text text-anchor="start" x="445" y="-901.3" font-family="Times,serif" font-size="14.00" fill="#000000">name :character varying</text>
<text text-anchor="start" x="445" y="-887.3" font-family="Times,serif" font-size="14.00" fill="#000000">code :character varying</text>
<text text-anchor="start" x="445" y="-873.3" font-family="Times,serif" font-size="14.00" fill="#000000">description :text</text>
<text text-anchor="start" x="445" y="-859.3" font-family="Times,serif" font-size="14.00" fill="#000000">created_at :timestamp without time zone</text>
<text text-anchor="start" x="445" y="-845.3" font-family="Times,serif" font-size="14.00" fill="#000000">updated_at :timestamp without time zone</text>
</g>
<!-- Role&#45;&gt;Group -->
<g id="edge8" class="edge">
<title>Role&#45;&gt;Group</title>
<path fill="none" stroke="#c3cce8" d="M560.8623,-828.3785C560.8623,-820.2258 560.8623,-811.935 560.8623,-803.8882"/>
<polygon fill="#c3cce8" stroke="#c3cce8" points="560.8624,-828.4684 556.3623,-838.4683 560.8624,-833.4684 560.8623,-838.4684 560.8623,-838.4684 560.8623,-838.4684 560.8624,-833.4684 565.3623,-838.4684 560.8624,-828.4684 560.8624,-828.4684"/>
<polygon fill="#c3cce8" stroke="#c3cce8" points="560.8624,-803.8549 565.3623,-793.8548 560.8624,-798.8549 560.8623,-793.8549 560.8623,-793.8549 560.8623,-793.8549 560.8624,-798.8549 556.3623,-793.8549 560.8624,-803.8549 560.8624,-803.8549"/>
</g>
<!-- Role&#45;&gt;Capability -->
<g id="edge6" class="edge">
<title>Role&#45;&gt;Capability</title>
<path fill="none" stroke="#4143dd" d="M441.8935,-834.6972C314.4962,-769.0209 129.211,-671.6277 119.8623,-656 66.9456,-567.5415 84.7717,-443.2077 103.5616,-367.4497"/>
<ellipse fill="none" stroke="#4143dd" cx="445.4996" cy="-836.5552" rx="4" ry="4"/>
<polygon fill="#4143dd" stroke="#4143dd" points="103.6163,-367.2357 110.452,-358.6611 104.8542,-362.3913 106.092,-357.547 106.092,-357.547 106.092,-357.547 104.8542,-362.3913 101.7321,-356.4329 103.6163,-367.2357 103.6163,-367.2357"/>
</g>
<!-- Role&#45;&gt;Person -->
<g id="edge7" class="edge">
<title>Role&#45;&gt;Person</title>
<path fill="none" stroke="#c95924" d="M666.2989,-831.2223C677.3674,-820.1909 687.0469,-807.7745 693.8623,-794 713.7691,-753.7665 711.3166,-734.3565 693.8623,-693 687.3152,-677.4872 677.9009,-662.9125 667.0623,-649.5391"/>
<polygon fill="#c95924" stroke="#c95924" points="666.1082,-831.4025 655.7496,-835.0014 662.4745,-834.8371 658.8408,-838.2717 658.8408,-838.2717 658.8408,-838.2717 662.4745,-834.8371 661.9319,-841.5421 666.1082,-831.4025 666.1082,-831.4025"/>
<polygon fill="#c95924" stroke="#c95924" points="666.9817,-649.4438 663.9641,-638.9012 663.7543,-645.6248 660.527,-641.8058 660.527,-641.8058 660.527,-641.8058 663.7543,-645.6248 657.0899,-644.7105 666.9817,-649.4438 666.9817,-649.4438"/>
</g>
<!-- Client -->
<g id="node9" class="node">
<title>Client</title>
<path fill="none" stroke="#000000" d="M715,-831.5C715,-831.5 938.7246,-831.5 938.7246,-831.5 944.7246,-831.5 950.7246,-837.5 950.7246,-843.5 950.7246,-843.5 950.7246,-947.5 950.7246,-947.5 950.7246,-953.5 944.7246,-959.5 938.7246,-959.5 938.7246,-959.5 715,-959.5 715,-959.5 709,-959.5 703,-953.5 703,-947.5 703,-947.5 703,-843.5 703,-843.5 703,-837.5 709,-831.5 715,-831.5"/>
<text text-anchor="middle" x="826.8623" y="-944.3" font-family="Times,serif" font-size="14.00" fill="#000000">Client</text>
<polyline fill="none" stroke="#000000" points="703,-937.5 950.7246,-937.5 "/>
<text text-anchor="start" x="711" y="-922.3" font-family="Times,serif" font-size="14.00" fill="#000000">id :uuid</text>
<text text-anchor="start" x="711" y="-908.3" font-family="Times,serif" font-size="14.00" fill="#000000">name :character varying</text>
<text text-anchor="start" x="711" y="-894.3" font-family="Times,serif" font-size="14.00" fill="#000000">launch_url :character varying</text>
<text text-anchor="start" x="711" y="-880.3" font-family="Times,serif" font-size="14.00" fill="#000000">icon_url :character varying</text>
<text text-anchor="start" x="711" y="-866.3" font-family="Times,serif" font-size="14.00" fill="#000000">available :boolean</text>
<text text-anchor="start" x="711" y="-852.3" font-family="Times,serif" font-size="14.00" fill="#000000">created_at :timestamp without time zone</text>
<text text-anchor="start" x="711" y="-838.3" font-family="Times,serif" font-size="14.00" fill="#000000">updated_at :timestamp without time zone</text>
</g>
<!-- Person&#45;&gt;Identity -->
<g id="edge12" class="edge">
<title>Person&#45;&gt;Identity</title>
<path fill="none" stroke="#39121a" d="M505.649,-478.5813C492.4906,-458.3436 478.2332,-436.4155 464.368,-415.0906"/>
<ellipse fill="none" stroke="#39121a" cx="507.8392" cy="-481.9499" rx="4" ry="4"/>
<polygon fill="#39121a" stroke="#39121a" points="464.3217,-415.0194 462.6433,-404.1827 461.5962,-410.8275 458.8707,-406.6356 458.8707,-406.6356 458.8707,-406.6356 461.5962,-410.8275 455.098,-409.0886 464.3217,-415.0194 464.3217,-415.0194"/>
</g>
<!-- Person&#45;&gt;Capability -->
<g id="edge11" class="edge">
<title>Person&#45;&gt;Capability</title>
<path fill="none" stroke="#1d78ba" d="M447.7281,-481.3384C441.1242,-477.6419 434.4772,-474.1635 427.8623,-471 356.4284,-436.8382 325.9566,-459.6756 256.8623,-421 230.3526,-406.1612 204.743,-385.1455 183.1934,-364.8106"/>
<ellipse fill="none" stroke="#1d78ba" cx="451.4024" cy="-483.4425" rx="4" ry="4"/>
<polygon fill="#1d78ba" stroke="#1d78ba" points="182.9579,-364.5845 178.8626,-354.412 179.3517,-361.1211 175.7455,-357.6576 175.7455,-357.6576 175.7455,-357.6576 179.3517,-361.1211 172.6284,-360.9032 182.9579,-364.5845 182.9579,-364.5845"/>
</g>
<!-- Person&#45;&gt;Member -->
<g id="edge10" class="edge">
<title>Person&#45;&gt;Member</title>
<path fill="none" stroke="#055ab5" d="M571.0915,-477.3863C573.7392,-464.348 577.0564,-451.19 581.207,-439 590.4975,-411.7147 604.8128,-383.3919 618.4323,-359.5226"/>
<ellipse fill="none" stroke="#055ab5" cx="570.2868" cy="-481.5519" rx="4" ry="4"/>
<polygon fill="#055ab5" stroke="#055ab5" points="618.5882,-359.2538 627.4986,-352.862 621.0971,-354.9289 623.6061,-350.6039 623.6061,-350.6039 623.6061,-350.6039 621.0971,-354.9289 619.7137,-348.3458 618.5882,-359.2538 618.5882,-359.2538"/>
<text text-anchor="middle" x="618.1899" y="-441.8" font-family="Times,serif" font-size="14.00" fill="#000000">memberships</text>
</g>
<!-- Event -->
<g id="node11" class="node">
<title>Event</title>
<path fill="none" stroke="#000000" d="M810,-180.5C810,-180.5 1033.7246,-180.5 1033.7246,-180.5 1039.7246,-180.5 1045.7246,-186.5 1045.7246,-192.5 1045.7246,-192.5 1045.7246,-408.5 1045.7246,-408.5 1045.7246,-414.5 1039.7246,-420.5 1033.7246,-420.5 1033.7246,-420.5 810,-420.5 810,-420.5 804,-420.5 798,-414.5 798,-408.5 798,-408.5 798,-192.5 798,-192.5 798,-186.5 804,-180.5 810,-180.5"/>
<text text-anchor="middle" x="921.8623" y="-405.3" font-family="Times,serif" font-size="14.00" fill="#000000">Event</text>
<polyline fill="none" stroke="#000000" points="798,-398.5 1045.7246,-398.5 "/>
<text text-anchor="start" x="806" y="-383.3" font-family="Times,serif" font-size="14.00" fill="#000000">time_to_live :integer</text>
<text text-anchor="start" x="806" y="-369.3" font-family="Times,serif" font-size="14.00" fill="#000000">person_id :uuid</text>
<text text-anchor="start" x="806" y="-355.3" font-family="Times,serif" font-size="14.00" fill="#000000">parent_id :uuid</text>
<text text-anchor="start" x="806" y="-341.3" font-family="Times,serif" font-size="14.00" fill="#000000">next_id :uuid</text>
<text text-anchor="start" x="806" y="-327.3" font-family="Times,serif" font-size="14.00" fill="#000000">session_id :uuid</text>
<text text-anchor="start" x="806" y="-313.3" font-family="Times,serif" font-size="14.00" fill="#000000">topic_uri :character varying</text>
<text text-anchor="start" x="806" y="-299.3" font-family="Times,serif" font-size="14.00" fill="#000000">model_uri :character varying</text>
<text text-anchor="start" x="806" y="-285.3" font-family="Times,serif" font-size="14.00" fill="#000000">controller_uri :character varying</text>
<text text-anchor="start" x="806" y="-271.3" font-family="Times,serif" font-size="14.00" fill="#000000">agent_uri :character varying</text>
<text text-anchor="start" x="806" y="-257.3" font-family="Times,serif" font-size="14.00" fill="#000000">action_uri :character varying</text>
<text text-anchor="start" x="806" y="-243.3" font-family="Times,serif" font-size="14.00" fill="#000000">created_at :timestamp without time zone</text>
<text text-anchor="start" x="806" y="-229.3" font-family="Times,serif" font-size="14.00" fill="#000000">updated_at :timestamp without time zone</text>
<text text-anchor="start" x="806" y="-215.3" font-family="Times,serif" font-size="14.00" fill="#000000">place_id :uuid</text>
<text text-anchor="start" x="806" y="-201.3" font-family="Times,serif" font-size="14.00" fill="#000000">parameters :json</text>
<text text-anchor="start" x="806" y="-187.3" font-family="Times,serif" font-size="14.00" fill="#000000">id :uuid</text>
</g>
<!-- Person&#45;&gt;Event -->
<g id="edge9" class="edge">
<title>Person&#45;&gt;Event</title>
<path fill="none" stroke="#663723" d="M691.7251,-487.255C724.225,-466.8267 758.4457,-443.9965 788.8623,-421 789.1419,-420.7886 789.4216,-420.5767 789.7015,-420.3644"/>
<ellipse fill="none" stroke="#663723" cx="688.209" cy="-489.4552" rx="4" ry="4"/>
<polygon fill="#663723" stroke="#663723" points="789.9225,-420.1939 800.5888,-417.6479 793.8812,-417.1395 797.8399,-414.0851 797.8399,-414.0851 797.8399,-414.0851 793.8812,-417.1395 795.0909,-410.5223 789.9225,-420.1939 789.9225,-420.1939"/>
</g>
<!-- Event&#45;&gt;Event -->
<g id="edge14" class="edge">
<title>Event&#45;&gt;Event</title>
<path fill="none" stroke="#372cbf" d="M1054.1079,-305.8888C1060.1753,-304.5241 1063.7246,-302.7278 1063.7246,-300.5 1063.7246,-298.5143 1060.9049,-296.8715 1055.9958,-295.5715"/>
<ellipse fill="none" stroke="#372cbf" cx="1049.8335" cy="-306.6189" rx="4" ry="4"/>
<polygon fill="#372cbf" stroke="#372cbf" points="1055.7247,-295.5216 1046.7069,-289.2822 1050.8076,-294.6145 1045.8906,-293.7075 1045.8906,-293.7075 1045.8906,-293.7075 1050.8076,-294.6145 1045.0743,-298.1328 1055.7247,-295.5216 1055.7247,-295.5216"/>
<text text-anchor="middle" x="1099.104" y="-296.3" font-family="Times,serif" font-size="14.00" fill="#000000">child_events</text>
</g>
<!-- Event&#45;&gt;Event -->
<g id="edge15" class="edge">
<title>Event&#45;&gt;Event</title>
<path fill="none" stroke="#bc2325" d="M1054.2355,-317.7168C1098.0694,-317.2343 1134.4834,-311.4953 1134.4834,-300.5 1134.4834,-289.6644 1099.1194,-283.9335 1056.1405,-283.3076"/>
<ellipse fill="none" stroke="#bc2325" cx="1049.9714" cy="-317.7317" rx="4" ry="4"/>
<polygon fill="#bc2325" stroke="#bc2325" points="1055.9713,-283.3068 1045.9951,-278.7543 1050.9714,-283.2805 1045.9715,-283.2542 1045.9715,-283.2542 1045.9715,-283.2542 1050.9714,-283.2805 1045.9478,-287.7541 1055.9713,-283.3068 1055.9713,-283.3068"/>
<text text-anchor="middle" x="1179.9731" y="-296.3" font-family="Times,serif" font-size="14.00" fill="#000000">previous_events</text>
</g>
<!-- Event&#45;&gt;Event -->
<g id="edge16" class="edge">
<title>Event&#45;&gt;Event</title>
<path fill="none" stroke="#003e01" d="M1054.0348,-325.3247C1137.2935,-329.5004 1225.4629,-321.2255 1225.4629,-300.5 1225.4629,-279.9417 1138.7099,-271.6339 1056.05,-275.5767"/>
<ellipse fill="none" stroke="#003e01" cx="1049.9899" cy="-325.1018" rx="4" ry="4"/>
<polygon fill="#003e01" stroke="#003e01" points="1055.9815,-275.5803 1045.7539,-271.6248 1050.9887,-275.8493 1045.996,-276.1183 1045.996,-276.1183 1045.996,-276.1183 1050.9887,-275.8493 1046.238,-280.6118 1055.9815,-275.5803 1055.9815,-275.5803"/>
<text text-anchor="middle" x="1266.2837" y="-296.3" font-family="Times,serif" font-size="14.00" fill="#000000">scoped_events</text>
</g>
<!-- Objective -->
<g id="node14" class="node">
<title>Objective</title>
<path fill="none" stroke="#000000" d="M810,-.5C810,-.5 1033.7246,-.5 1033.7246,-.5 1039.7246,-.5 1045.7246,-6.5 1045.7246,-12.5 1045.7246,-12.5 1045.7246,-130.5 1045.7246,-130.5 1045.7246,-136.5 1039.7246,-142.5 1033.7246,-142.5 1033.7246,-142.5 810,-142.5 810,-142.5 804,-142.5 798,-136.5 798,-130.5 798,-130.5 798,-12.5 798,-12.5 798,-6.5 804,-.5 810,-.5"/>
<text text-anchor="middle" x="921.8623" y="-127.3" font-family="Times,serif" font-size="14.00" fill="#000000">Objective</text>
<polyline fill="none" stroke="#000000" points="798,-120.5 1045.7246,-120.5 "/>
<text text-anchor="start" x="806" y="-105.3" font-family="Times,serif" font-size="14.00" fill="#000000">event_id :uuid</text>
<text text-anchor="start" x="806" y="-91.3" font-family="Times,serif" font-size="14.00" fill="#000000">formalized :boolean</text>
<text text-anchor="start" x="806" y="-77.3" font-family="Times,serif" font-size="14.00" fill="#000000">language :character varying</text>
<text text-anchor="start" x="806" y="-63.3" font-family="Times,serif" font-size="14.00" fill="#000000">specification :character varying</text>
<text text-anchor="start" x="806" y="-49.3" font-family="Times,serif" font-size="14.00" fill="#000000">comment :text</text>
<text text-anchor="start" x="806" y="-35.3" font-family="Times,serif" font-size="14.00" fill="#000000">created_at :timestamp without time zone</text>
<text text-anchor="start" x="806" y="-21.3" font-family="Times,serif" font-size="14.00" fill="#000000">updated_at :timestamp without time zone</text>
<text text-anchor="start" x="806" y="-7.3" font-family="Times,serif" font-size="14.00" fill="#000000">id :uuid</text>
</g>
<!-- Event&#45;&gt;Objective -->
<g id="edge13" class="edge">
<title>Event&#45;&gt;Objective</title>
<path fill="none" stroke="#bd4306" d="M921.8623,-172.1866C921.8623,-165.726 921.8623,-159.325 921.8623,-153.0674"/>
<ellipse fill="none" stroke="#bd4306" cx="921.8624" cy="-176.2995" rx="4" ry="4"/>
<polygon fill="#bd4306" stroke="#bd4306" points="921.8624,-152.6865 926.3623,-142.6864 921.8624,-147.6865 921.8623,-142.6865 921.8623,-142.6865 921.8623,-142.6865 921.8624,-147.6865 917.3623,-142.6865 921.8624,-152.6865 921.8624,-152.6865"/>
</g>
<!-- IdentityProvider -->
<g id="node12" class="node">
<title>IdentityProvider</title>
<path fill="none" stroke="#000000" d="M183,-471.5C183,-471.5 406.7246,-471.5 406.7246,-471.5 412.7246,-471.5 418.7246,-477.5 418.7246,-483.5 418.7246,-483.5 418.7246,-643.5 418.7246,-643.5 418.7246,-649.5 412.7246,-655.5 406.7246,-655.5 406.7246,-655.5 183,-655.5 183,-655.5 177,-655.5 171,-649.5 171,-643.5 171,-643.5 171,-483.5 171,-483.5 171,-477.5 177,-471.5 183,-471.5"/>
<text text-anchor="middle" x="294.8623" y="-640.3" font-family="Times,serif" font-size="14.00" fill="#000000">IdentityProvider</text>
<polyline fill="none" stroke="#000000" points="171,-633.5 418.7246,-633.5 "/>
<text text-anchor="start" x="179" y="-618.3" font-family="Times,serif" font-size="14.00" fill="#000000">scopes :character varying</text>
<text text-anchor="start" x="179" y="-604.3" font-family="Times,serif" font-size="14.00" fill="#000000">name :character varying</text>
<text text-anchor="start" x="179" y="-590.3" font-family="Times,serif" font-size="14.00" fill="#000000">issuer :character varying</text>
<text text-anchor="start" x="179" y="-576.3" font-family="Times,serif" font-size="14.00" fill="#000000">client_id :character varying</text>
<text text-anchor="start" x="179" y="-562.3" font-family="Times,serif" font-size="14.00" fill="#000000">client_secret :character varying</text>
<text text-anchor="start" x="179" y="-548.3" font-family="Times,serif" font-size="14.00" fill="#000000">alternate_client_id :character varying</text>
<text text-anchor="start" x="179" y="-534.3" font-family="Times,serif" font-size="14.00" fill="#000000">configuration :json</text>
<text text-anchor="start" x="179" y="-520.3" font-family="Times,serif" font-size="14.00" fill="#000000">public_keys :json</text>
<text text-anchor="start" x="179" y="-506.3" font-family="Times,serif" font-size="14.00" fill="#000000">created_at :timestamp without time zone</text>
<text text-anchor="start" x="179" y="-492.3" font-family="Times,serif" font-size="14.00" fill="#000000">updated_at :timestamp without time zone</text>
<text text-anchor="start" x="179" y="-478.3" font-family="Times,serif" font-size="14.00" fill="#000000">id :uuid</text>
</g>
<!-- IdentityProvider&#45;&gt;Identity -->
<g id="edge17" class="edge">
<title>IdentityProvider&#45;&gt;Identity</title>
<path fill="none" stroke="#feb7c0" d="M331.0719,-463.2567C336.6192,-447.8993 342.3846,-431.9382 348.0411,-416.2788"/>
<ellipse fill="none" stroke="#feb7c0" cx="329.5811" cy="-467.3838" rx="4" ry="4"/>
<polygon fill="#feb7c0" stroke="#feb7c0" points="348.1486,-415.9809 355.7783,-408.1045 349.8473,-411.2783 351.546,-406.5757 351.546,-406.5757 351.546,-406.5757 349.8473,-411.2783 347.3136,-405.0469 348.1486,-415.9809 348.1486,-415.9809"/>
</g>
<!-- Place -->
<g id="node13" class="node">
<title>Place</title>
<path fill="none" stroke="#000000" d="M810,-506.5C810,-506.5 1033.7246,-506.5 1033.7246,-506.5 1039.7246,-506.5 1045.7246,-512.5 1045.7246,-518.5 1045.7246,-518.5 1045.7246,-608.5 1045.7246,-608.5 1045.7246,-614.5 1039.7246,-620.5 1033.7246,-620.5 1033.7246,-620.5 810,-620.5 810,-620.5 804,-620.5 798,-614.5 798,-608.5 798,-608.5 798,-518.5 798,-518.5 798,-512.5 804,-506.5 810,-506.5"/>
<text text-anchor="middle" x="921.8623" y="-605.3" font-family="Times,serif" font-size="14.00" fill="#000000">Place</text>
<polyline fill="none" stroke="#000000" points="798,-598.5 1045.7246,-598.5 "/>
<text text-anchor="start" x="806" y="-583.3" font-family="Times,serif" font-size="14.00" fill="#000000">id :uuid</text>
<text text-anchor="start" x="806" y="-569.3" font-family="Times,serif" font-size="14.00" fill="#000000">name :character varying</text>
<text text-anchor="start" x="806" y="-555.3" font-family="Times,serif" font-size="14.00" fill="#000000">address :text</text>
<text text-anchor="start" x="806" y="-541.3" font-family="Times,serif" font-size="14.00" fill="#000000">description :text</text>
<text text-anchor="start" x="806" y="-527.3" font-family="Times,serif" font-size="14.00" fill="#000000">created_at :timestamp without time zone</text>
<text text-anchor="start" x="806" y="-513.3" font-family="Times,serif" font-size="14.00" fill="#000000">updated_at :timestamp without time zone</text>
</g>
<!-- Place&#45;&gt;Event -->
<g id="edge18" class="edge">
<title>Place&#45;&gt;Event</title>
<path fill="none" stroke="#14a25f" d="M921.8623,-498.2756C921.8623,-477.6825 921.8623,-454.1534 921.8623,-430.6803"/>
<ellipse fill="none" stroke="#14a25f" cx="921.8624" cy="-502.4329" rx="4" ry="4"/>
<polygon fill="#14a25f" stroke="#14a25f" points="921.8624,-430.6326 926.3623,-420.6325 921.8624,-425.6326 921.8623,-420.6326 921.8623,-420.6326 921.8623,-420.6326 921.8624,-425.6326 917.3623,-420.6326 921.8624,-430.6326 921.8624,-430.6326"/>
</g>
</g>
</svg>
