<?xml version="1.0" encoding="UTF-8" standalone="no"?>
<!DOCTYPE svg PUBLIC "-//W3C//DTD SVG 1.1//EN"
 "http://www.w3.org/Graphics/SVG/1.1/DTD/svg11.dtd">
<!-- Generated by graphviz version 2.38.0 (20140413.2041)
 -->
<!-- Title: models_diagram Pages: 1 -->
<svg width="1325pt" height="386pt"
 viewBox="0.00 0.00 1325.35 386.00" xmlns="http://www.w3.org/2000/svg" xmlns:xlink="http://www.w3.org/1999/xlink">
<g id="graph0" class="graph" transform="scale(1 1) rotate(0) translate(4 382)">
<title>models_diagram</title>
<polygon fill="none" stroke="none" points="-4,4 -4,-382 1321.35,-382 1321.35,4 -4,4"/>
<!-- _diagram_info -->
<g id="node1" class="node"><title>_diagram_info</title>
<text text-anchor="start" x="589.402" y="-363.6" font-family="Times,serif" font-size="13.00">Models diagram</text>
<text text-anchor="start" x="589.402" y="-350.6" font-family="Times,serif" font-size="13.00">Date: Jun 18 2016 &#45; 15:03</text>
<text text-anchor="start" x="589.402" y="-337.6" font-family="Times,serif" font-size="13.00">Migration version: 20160618215121</text>
<text text-anchor="start" x="589.402" y="-324.6" font-family="Times,serif" font-size="13.00">Generated by RailRoady 1.4.2</text>
<text text-anchor="start" x="589.402" y="-311.6" font-family="Times,serif" font-size="13.00">http://railroady.prestonlee.com</text>
</g>
<!-- Ability -->
<g id="node2" class="node"><title>Ability</title>
<polygon fill="none" stroke="black" points="862.76,-359.5 807.42,-359.5 807.42,-323.5 862.76,-323.5 862.76,-359.5"/>
<text text-anchor="middle" x="835.09" y="-337.3" font-family="Times,serif" font-size="14.00">Ability</text>
</g>
<!-- Activity -->
<g id="node3" class="node"><title>Activity</title>
<ellipse fill="none" stroke="black" cx="39.0899" cy="-91" rx="39.18" ry="18"/>
<text text-anchor="middle" x="39.0899" y="-86.8" font-family="Times,serif" font-size="14.00">Activity</text>
</g>
<!-- Actor -->
<g id="node4" class="node"><title>Actor</title>
<ellipse fill="none" stroke="black" cx="983.09" cy="-341.5" rx="30.4862" ry="18"/>
<text text-anchor="middle" x="983.09" y="-337.3" font-family="Times,serif" font-size="14.00">Actor</text>
</g>
<!-- Asset -->
<g id="node5" class="node"><title>Asset</title>
<ellipse fill="none" stroke="black" cx="233.09" cy="-91" rx="29.5189" ry="18"/>
<text text-anchor="middle" x="233.09" y="-86.8" font-family="Times,serif" font-size="14.00">Asset</text>
</g>
<!-- Capability -->
<g id="node6" class="node"><title>Capability</title>
<ellipse fill="none" stroke="black" cx="1156.09" cy="-91" rx="46.8977" ry="18"/>
<text text-anchor="middle" x="1156.09" y="-86.8" font-family="Times,serif" font-size="14.00">Capability</text>
</g>
<!-- Client -->
<g id="node7" class="node"><title>Client</title>
<ellipse fill="none" stroke="black" cx="1063.09" cy="-341.5" rx="31.948" ry="18"/>
<text text-anchor="middle" x="1063.09" y="-337.3" font-family="Times,serif" font-size="14.00">Client</text>
</g>
<!-- Context -->
<g id="node8" class="node"><title>Context</title>
<ellipse fill="none" stroke="black" cx="233.09" cy="-177" rx="38.2197" ry="18"/>
<text text-anchor="middle" x="233.09" y="-172.8" font-family="Times,serif" font-size="14.00">Context</text>
</g>
<!-- Context&#45;&gt;Activity -->
<g id="edge1" class="edge"><title>Context&#45;&gt;Activity</title>
<path fill="none" stroke="#bce7c4" d="M198.002,-160.807C163.538,-145.885 111.159,-123.205 76.0603,-108.008"/>
<ellipse fill="none" stroke="#bce7c4" cx="202.035" cy="-162.554" rx="4.00002" ry="4.00002"/>
<polygon fill="#bce7c4" stroke="#bce7c4" points="75.8247,-107.906 68.4361,-99.8029 71.2364,-105.919 66.648,-103.932 66.648,-103.932 66.648,-103.932 71.2364,-105.919 64.8599,-108.062 75.8247,-107.906 75.8247,-107.906"/>
</g>
<!-- Context&#45;&gt;Asset -->
<g id="edge2" class="edge"><title>Context&#45;&gt;Asset</title>
<path fill="none" stroke="#93b085" d="M233.09,-150.257C233.09,-140.441 233.09,-129.226 233.09,-119.273"/>
<ellipse fill="none" stroke="#93b085" cx="233.09" cy="-154.595" rx="4" ry="4"/>
<polygon fill="#93b085" stroke="#93b085" points="233.09,-119.095 237.59,-109.095 233.09,-114.095 233.09,-109.095 233.09,-109.095 233.09,-109.095 233.09,-114.095 228.59,-109.095 233.09,-119.095 233.09,-119.095"/>
</g>
<!-- Focus -->
<g id="node9" class="node"><title>Focus</title>
<ellipse fill="none" stroke="black" cx="403.09" cy="-91" rx="31.4723" ry="18"/>
<text text-anchor="middle" x="403.09" y="-86.8" font-family="Times,serif" font-size="14.00">Focus</text>
</g>
<!-- Context&#45;&gt;Focus -->
<g id="edge3" class="edge"><title>Context&#45;&gt;Focus</title>
<path fill="none" stroke="#88fe06" d="M265.835,-159.82C296.128,-144.852 340.888,-122.735 370.977,-107.868"/>
<ellipse fill="none" stroke="#88fe06" cx="262.127" cy="-161.652" rx="4.00002" ry="4.00002"/>
<polygon fill="#88fe06" stroke="#88fe06" points="371.228,-107.744 382.187,-107.348 375.711,-105.529 380.193,-103.314 380.193,-103.314 380.193,-103.314 375.711,-105.529 378.2,-99.2792 371.228,-107.744 371.228,-107.744"/>
</g>
<!-- Objective -->
<g id="node16" class="node"><title>Objective</title>
<ellipse fill="none" stroke="black" cx="141.09" cy="-91" rx="44.4664" ry="18"/>
<text text-anchor="middle" x="141.09" y="-86.8" font-family="Times,serif" font-size="14.00">Objective</text>
</g>
<!-- Context&#45;&gt;Objective -->
<g id="edge4" class="edge"><title>Context&#45;&gt;Objective</title>
<path fill="none" stroke="#f975d8" d="M210.134,-155.04C196.755,-142.825 179.87,-127.408 166.147,-114.878"/>
<ellipse fill="none" stroke="#f975d8" cx="213.262" cy="-157.896" rx="4.00002" ry="4.00002"/>
<polygon fill="#f975d8" stroke="#f975d8" points="165.867,-114.623 161.516,-104.557 162.175,-111.251 158.482,-107.88 158.482,-107.88 158.482,-107.88 162.175,-111.251 155.448,-111.203 165.867,-114.623 165.867,-114.623"/>
</g>
<!-- Participant -->
<g id="node17" class="node"><title>Participant</title>
<ellipse fill="none" stroke="black" cx="692.09" cy="-91" rx="48.3341" ry="18"/>
<text text-anchor="middle" x="692.09" y="-86.8" font-family="Times,serif" font-size="14.00">Participant</text>
</g>
<!-- Context&#45;&gt;Participant -->
<g id="edge5" class="edge"><title>Context&#45;&gt;Participant</title>
<path fill="none" stroke="#7ce503" d="M278.413,-172.154C373.199,-164.047 584.903,-145.569 600.09,-141 621.635,-134.518 643.952,-122.775 661.21,-112.41"/>
<ellipse fill="none" stroke="#7ce503" cx="274.416" cy="-172.496" rx="4" ry="4"/>
<polygon fill="#7ce503" stroke="#7ce503" points="661.23,-112.397 672.104,-110.981 665.487,-109.774 669.743,-107.15 669.743,-107.15 669.743,-107.15 665.487,-109.774 667.382,-103.319 661.23,-112.397 661.23,-112.397"/>
</g>
<!-- Group -->
<g id="node10" class="node"><title>Group</title>
<ellipse fill="none" stroke="black" cx="957.09" cy="-250" rx="32.9081" ry="18"/>
<text text-anchor="middle" x="957.09" y="-245.8" font-family="Times,serif" font-size="14.00">Group</text>
</g>
<!-- Group&#45;&gt;Capability -->
<g id="edge8" class="edge"><title>Group&#45;&gt;Capability</title>
<path fill="none" stroke="#09e612" d="M995.972,-242.691C1027.95,-235.763 1072.78,-221.845 1103.09,-195 1126.17,-174.556 1140.61,-141.658 1148.49,-118.555"/>
<ellipse fill="none" stroke="#09e612" cx="992.053" cy="-243.498" rx="4.00001" ry="4.00001"/>
<polygon fill="#09e612" stroke="#09e612" points="1148.5,-118.533 1155.84,-110.392 1150.03,-113.773 1151.56,-109.013 1151.56,-109.013 1151.56,-109.013 1150.03,-113.773 1147.28,-107.635 1148.5,-118.533 1148.5,-118.533"/>
</g>
<!-- Member -->
<g id="node15" class="node"><title>Member</title>
<ellipse fill="none" stroke="black" cx="957.09" cy="-91" rx="40.1317" ry="18"/>
<text text-anchor="middle" x="957.09" y="-86.8" font-family="Times,serif" font-size="14.00">Member</text>
</g>
<!-- Group&#45;&gt;Member -->
<g id="edge6" class="edge"><title>Group&#45;&gt;Member</title>
<path fill="none" stroke="#4a19c8" d="M957.09,-223.852C957.09,-195.193 957.09,-148.523 957.09,-119.082"/>
<ellipse fill="none" stroke="#4a19c8" cx="957.09" cy="-227.899" rx="4" ry="4"/>
<polygon fill="#4a19c8" stroke="#4a19c8" points="957.09,-119.08 961.59,-109.079 957.09,-114.08 957.09,-109.08 957.09,-109.08 957.09,-109.08 957.09,-114.08 952.59,-109.08 957.09,-119.08 957.09,-119.08"/>
</g>
<!-- User -->
<g id="node25" class="node"><title>User</title>
<ellipse fill="none" stroke="black" cx="869.09" cy="-177" rx="27" ry="18"/>
<text text-anchor="middle" x="869.09" y="-172.8" font-family="Times,serif" font-size="14.00">User</text>
</g>
<!-- Group&#45;&gt;User -->
<g id="edge7" class="edge"><title>Group&#45;&gt;User</title>
<path fill="none" stroke="#c5c621" d="M931.481,-228.338C919.601,-218.753 905.54,-207.408 893.776,-197.917"/>
<polygon fill="#c5c621" stroke="#c5c621" points="931.499,-228.353 936.456,-238.134 935.39,-231.492 939.282,-234.632 939.282,-234.632 939.282,-234.632 935.39,-231.492 942.107,-231.13 931.499,-228.353 931.499,-228.353"/>
<polygon fill="#c5c621" stroke="#c5c621" points="893.464,-197.665 888.506,-187.884 889.572,-194.525 885.681,-191.386 885.681,-191.386 885.681,-191.386 889.572,-194.525 882.855,-194.888 893.464,-197.665 893.464,-197.665"/>
</g>
<!-- Identity -->
<g id="node11" class="node"><title>Identity</title>
<ellipse fill="none" stroke="black" cx="1053.09" cy="-91" rx="37.7266" ry="18"/>
<text text-anchor="middle" x="1053.09" y="-86.8" font-family="Times,serif" font-size="14.00">Identity</text>
</g>
<!-- Session -->
<g id="node22" class="node"><title>Session</title>
<ellipse fill="none" stroke="black" cx="1053.09" cy="-18" rx="37.2681" ry="18"/>
<text text-anchor="middle" x="1053.09" y="-13.8" font-family="Times,serif" font-size="14.00">Session</text>
</g>
<!-- Identity&#45;&gt;Session -->
<g id="edge9" class="edge"><title>Identity&#45;&gt;Session</title>
<path fill="none" stroke="#ab0246" d="M1053.09,-64.791C1053.09,-58.832 1053.09,-52.4496 1053.09,-46.3988"/>
<ellipse fill="none" stroke="#ab0246" cx="1053.09" cy="-68.8129" rx="4" ry="4"/>
<polygon fill="#ab0246" stroke="#ab0246" points="1053.09,-46.0288 1057.59,-36.0288 1053.09,-41.0288 1053.09,-36.0288 1053.09,-36.0288 1053.09,-36.0288 1053.09,-41.0288 1048.59,-36.0289 1053.09,-46.0288 1053.09,-46.0288"/>
</g>
<!-- Interest -->
<g id="node12" class="node"><title>Interest</title>
<ellipse fill="none" stroke="black" cx="317.09" cy="-91" rx="36.7489" ry="18"/>
<text text-anchor="middle" x="317.09" y="-86.8" font-family="Times,serif" font-size="14.00">Interest</text>
</g>
<!-- Issue -->
<g id="node13" class="node"><title>Issue</title>
<ellipse fill="none" stroke="black" cx="787.09" cy="-91" rx="28.0651" ry="18"/>
<text text-anchor="middle" x="787.09" y="-86.8" font-family="Times,serif" font-size="14.00">Issue</text>
</g>
<!-- JsonWebToken -->
<g id="node14" class="node"><title>JsonWebToken</title>
<ellipse fill="none" stroke="black" cx="1177.09" cy="-341.5" rx="63.5968" ry="18"/>
<text text-anchor="middle" x="1177.09" y="-337.3" font-family="Times,serif" font-size="14.00">JsonWebToken</text>
</g>
<!-- Place -->
<g id="node18" class="node"><title>Place</title>
<ellipse fill="none" stroke="black" cx="1288.09" cy="-341.5" rx="29.0172" ry="18"/>
<text text-anchor="middle" x="1288.09" y="-337.3" font-family="Times,serif" font-size="14.00">Place</text>
</g>
<!-- Provider -->
<g id="node19" class="node"><title>Provider</title>
<ellipse fill="none" stroke="black" cx="1053.09" cy="-177" rx="40.6248" ry="18"/>
<text text-anchor="middle" x="1053.09" y="-172.8" font-family="Times,serif" font-size="14.00">Provider</text>
</g>
<!-- Provider&#45;&gt;Identity -->
<g id="edge10" class="edge"><title>Provider&#45;&gt;Identity</title>
<path fill="none" stroke="#0e696c" d="M1053.09,-150.257C1053.09,-140.441 1053.09,-129.226 1053.09,-119.273"/>
<ellipse fill="none" stroke="#0e696c" cx="1053.09" cy="-154.595" rx="4" ry="4"/>
<polygon fill="#0e696c" stroke="#0e696c" points="1053.09,-119.095 1057.59,-109.095 1053.09,-114.095 1053.09,-109.095 1053.09,-109.095 1053.09,-109.095 1053.09,-114.095 1048.59,-109.095 1053.09,-119.095 1053.09,-119.095"/>
</g>
<!-- Result -->
<g id="node20" class="node"><title>Result</title>
<ellipse fill="none" stroke="black" cx="866.09" cy="-91" rx="32.9168" ry="18"/>
<text text-anchor="middle" x="866.09" y="-86.8" font-family="Times,serif" font-size="14.00">Result</text>
</g>
<!-- Role -->
<g id="node21" class="node"><title>Role</title>
<ellipse fill="none" stroke="black" cx="908.09" cy="-341.5" rx="27" ry="18"/>
<text text-anchor="middle" x="908.09" y="-337.3" font-family="Times,serif" font-size="14.00">Role</text>
</g>
<!-- Role&#45;&gt;Capability -->
<g id="edge12" class="edge"><title>Role&#45;&gt;Capability</title>
<path fill="none" stroke="#291a4b" d="M927.484,-319.668C932.653,-314.604 938.392,-309.388 944.09,-305 1020.18,-246.401 1071.02,-270.731 1130.09,-195 1147.05,-173.254 1153.07,-141.771 1155.14,-119.344"/>
<ellipse fill="none" stroke="#291a4b" cx="924.53" cy="-322.645" rx="4.00002" ry="4.00002"/>
<polygon fill="#291a4b" stroke="#291a4b" points="1155.16,-119.119 1160.36,-109.466 1155.51,-114.132 1155.87,-109.145 1155.87,-109.145 1155.87,-109.145 1155.51,-114.132 1151.38,-108.823 1155.16,-119.119 1155.16,-119.119"/>
</g>
<!-- Role&#45;&gt;Group -->
<g id="edge14" class="edge"><title>Role&#45;&gt;Group</title>
<path fill="none" stroke="#10a1fa" d="M921.962,-315.161C928.545,-303.138 936.398,-288.795 943.007,-276.722"/>
<polygon fill="#10a1fa" stroke="#10a1fa" points="921.88,-315.313 913.13,-321.923 919.478,-319.699 917.077,-324.084 917.077,-324.084 917.077,-324.084 919.478,-319.699 921.024,-326.245 921.88,-315.313 921.88,-315.313"/>
<polygon fill="#10a1fa" stroke="#10a1fa" points="943.191,-276.386 951.941,-269.776 945.592,-272 947.994,-267.615 947.994,-267.615 947.994,-267.615 945.592,-272 944.046,-265.454 943.191,-276.386 943.191,-276.386"/>
</g>
<!-- Role&#45;&gt;Interest -->
<g id="edge11" class="edge"><title>Role&#45;&gt;Interest</title>
<path fill="none" stroke="#4090ed" d="M890.033,-318.998C884.722,-313.772 878.581,-308.645 872.09,-305 696.334,-206.299 610.164,-289.455 432.09,-195 393.965,-174.777 358.305,-139.247 337.091,-115.665"/>
<ellipse fill="none" stroke="#4090ed" cx="893.095" cy="-322.203" rx="4.00002" ry="4.00002"/>
<polygon fill="#4090ed" stroke="#4090ed" points="336.826,-115.364 333.584,-104.889 333.518,-111.615 330.21,-107.866 330.21,-107.866 330.21,-107.866 333.518,-111.615 326.835,-110.844 336.826,-115.364 336.826,-115.364"/>
</g>
<!-- Role&#45;&gt;User -->
<g id="edge13" class="edge"><title>Role&#45;&gt;User</title>
<path fill="none" stroke="#2753fd" d="M901.566,-313.317C894.314,-283.102 882.679,-234.621 875.481,-204.631"/>
<polygon fill="#2753fd" stroke="#2753fd" points="901.656,-313.693 899.614,-324.467 902.823,-318.555 903.99,-323.417 903.99,-323.417 903.99,-323.417 902.823,-318.555 908.366,-322.367 901.656,-313.693 901.656,-313.693"/>
<polygon fill="#2753fd" stroke="#2753fd" points="875.469,-204.578 877.511,-193.804 874.302,-199.716 873.135,-194.854 873.135,-194.854 873.135,-194.854 874.302,-199.716 868.759,-195.905 875.469,-204.578 875.469,-204.578"/>
</g>
<!-- SnomedctConcept -->
<g id="node23" class="node"><title>SnomedctConcept</title>
<ellipse fill="none" stroke="black" cx="516.09" cy="-177" rx="74.8948" ry="18"/>
<text text-anchor="middle" x="516.09" y="-172.8" font-family="Times,serif" font-size="14.00">SnomedctConcept</text>
</g>
<!-- SnomedctConcept&#45;&gt;Focus -->
<g id="edge17" class="edge"><title>SnomedctConcept&#45;&gt;Focus</title>
<path fill="none" stroke="#49f7d0" d="M490.503,-154.149C480.026,-145.454 467.663,-135.513 456.09,-127 448.475,-121.398 440.016,-115.623 432.132,-110.419"/>
<ellipse fill="none" stroke="#49f7d0" cx="493.69" cy="-156.812" rx="4.00002" ry="4.00002"/>
<polygon fill="#49f7d0" stroke="#49f7d0" points="431.929,-110.286 426.009,-101.056 427.741,-107.556 423.552,-104.825 423.552,-104.825 423.552,-104.825 427.741,-107.556 421.094,-108.595 431.929,-110.286 431.929,-110.286"/>
</g>
<!-- SnomedctConcept&#45;&gt;Interest -->
<g id="edge15" class="edge"><title>SnomedctConcept&#45;&gt;Interest</title>
<path fill="none" stroke="#5cf8cb" d="M472.92,-157.778C437.259,-142.724 387.2,-121.594 353.529,-107.382"/>
<ellipse fill="none" stroke="#5cf8cb" cx="476.828" cy="-159.427" rx="4.00002" ry="4.00002"/>
<polygon fill="#5cf8cb" stroke="#5cf8cb" points="353.28,-107.276 345.817,-99.2415 348.673,-105.332 344.067,-103.387 344.067,-103.387 344.067,-103.387 348.673,-105.332 342.317,-107.533 353.28,-107.276 353.28,-107.276"/>
</g>
<!-- SnomedctConcept&#45;&gt;Issue -->
<g id="edge16" class="edge"><title>SnomedctConcept&#45;&gt;Issue</title>
<path fill="none" stroke="#015e41" d="M576.408,-161.879C624.044,-149.962 691.803,-131.299 749.09,-109 751.169,-108.191 753.3,-107.329 755.439,-106.44"/>
<ellipse fill="none" stroke="#015e41" cx="572.231" cy="-162.916" rx="4.00001" ry="4.00001"/>
<polygon fill="#015e41" stroke="#015e41" points="755.554,-106.391 766.518,-106.574 760.147,-104.415 764.74,-102.44 764.74,-102.44 764.74,-102.44 760.147,-104.415 762.963,-98.3057 755.554,-106.391 755.554,-106.391"/>
</g>
<!-- SnomedctDescription -->
<g id="node24" class="node"><title>SnomedctDescription</title>
<ellipse fill="none" stroke="black" cx="539.09" cy="-91" rx="86.9722" ry="18"/>
<text text-anchor="middle" x="539.09" y="-86.8" font-family="Times,serif" font-size="14.00">SnomedctDescription</text>
</g>
<!-- SnomedctConcept&#45;&gt;SnomedctDescription -->
<g id="edge18" class="edge"><title>SnomedctConcept&#45;&gt;SnomedctDescription</title>
<path fill="none" stroke="#682225" d="M522.922,-151.047C525.686,-140.952 528.884,-129.274 531.702,-118.982"/>
<ellipse fill="none" stroke="#682225" cx="521.801" cy="-155.143" rx="4.00001" ry="4.00001"/>
<polygon fill="#682225" stroke="#682225" points="531.723,-118.907 538.704,-110.45 533.043,-114.084 534.363,-109.262 534.363,-109.262 534.363,-109.262 533.043,-114.084 530.023,-108.073 531.723,-118.907 531.723,-118.907"/>
<text text-anchor="middle" x="561.918" y="-129.8" font-family="Times,serif" font-size="14.00">descriptions</text>
</g>
<!-- User&#45;&gt;Capability -->
<g id="edge20" class="edge"><title>User&#45;&gt;Capability</title>
<path fill="none" stroke="#2eebb1" d="M901.277,-166.801C945.946,-154.004 1029.24,-130.028 1100.09,-109 1103.61,-107.956 1107.25,-106.868 1110.91,-105.769"/>
<ellipse fill="none" stroke="#2eebb1" cx="897.243" cy="-167.956" rx="4.00001" ry="4.00001"/>
<polygon fill="#2eebb1" stroke="#2eebb1" points="1110.99,-105.745 1121.86,-107.167 1115.77,-104.302 1120.56,-102.858 1120.56,-102.858 1120.56,-102.858 1115.77,-104.302 1119.26,-98.5499 1110.99,-105.745 1110.99,-105.745"/>
</g>
<!-- User&#45;&gt;Focus -->
<g id="edge25" class="edge"><title>User&#45;&gt;Focus</title>
<path fill="none" stroke="#a628c8" d="M835.575,-169.159C784.801,-158.963 685.27,-139.627 600.09,-127 530.614,-116.701 511,-126.921 443.09,-109 440.751,-108.383 438.37,-107.653 435.995,-106.85"/>
<ellipse fill="none" stroke="#a628c8" cx="839.67" cy="-169.984" rx="4.00001" ry="4.00001"/>
<polygon fill="#a628c8" stroke="#a628c8" points="435.74,-106.754 427.971,-99.014 431.061,-104.989 426.383,-103.225 426.383,-103.225 426.383,-103.225 431.061,-104.989 424.795,-107.435 435.74,-106.754 435.74,-106.754"/>
</g>
<!-- User&#45;&gt;Identity -->
<g id="edge21" class="edge"><title>User&#45;&gt;Identity</title>
<path fill="none" stroke="#48ea74" d="M898.534,-162.558C930.918,-147.774 982.949,-124.021 1017.57,-108.215"/>
<ellipse fill="none" stroke="#48ea74" cx="894.558" cy="-164.373" rx="4.00002" ry="4.00002"/>
<polygon fill="#48ea74" stroke="#48ea74" points="1017.75,-108.134 1028.71,-108.075 1022.3,-106.058 1026.84,-103.981 1026.84,-103.981 1026.84,-103.981 1022.3,-106.058 1024.98,-99.8879 1017.75,-108.134 1017.75,-108.134"/>
</g>
<!-- User&#45;&gt;Issue -->
<g id="edge22" class="edge"><title>User&#45;&gt;Issue</title>
<path fill="none" stroke="#31a26d" d="M848.836,-155.252C836.664,-142.783 821.18,-126.922 808.763,-114.201"/>
<ellipse fill="none" stroke="#31a26d" cx="852.012" cy="-158.506" rx="4.00002" ry="4.00002"/>
<polygon fill="#31a26d" stroke="#31a26d" points="808.47,-113.902 804.705,-103.602 804.977,-110.324 801.485,-106.746 801.485,-106.746 801.485,-106.746 804.977,-110.324 798.265,-109.889 808.47,-113.902 808.47,-113.902"/>
</g>
<!-- User&#45;&gt;Member -->
<g id="edge19" class="edge"><title>User&#45;&gt;Member</title>
<path fill="none" stroke="#9bd7e5" d="M864.563,-151.123C864.337,-142.815 865.628,-133.919 870.435,-127 873.425,-122.696 895.472,-113.82 916.578,-106.084"/>
<ellipse fill="none" stroke="#9bd7e5" cx="864.893" cy="-155.155" rx="4" ry="4"/>
<polygon fill="#9bd7e5" stroke="#9bd7e5" points="916.732,-106.029 927.666,-106.863 921.434,-104.33 926.137,-102.631 926.137,-102.631 926.137,-102.631 921.434,-104.33 924.607,-98.3984 916.732,-106.029 916.732,-106.029"/>
<text text-anchor="middle" x="907.418" y="-129.8" font-family="Times,serif" font-size="14.00">memberships</text>
</g>
<!-- User&#45;&gt;Participant -->
<g id="edge24" class="edge"><title>User&#45;&gt;Participant</title>
<path fill="none" stroke="#ded374" d="M840.236,-162.307C810.257,-148.079 763.195,-125.745 730.178,-110.076"/>
<ellipse fill="none" stroke="#ded374" cx="844.126" cy="-164.153" rx="4.00002" ry="4.00002"/>
<polygon fill="#ded374" stroke="#ded374" points="729.875,-109.932 722.77,-101.579 725.358,-107.788 720.841,-105.645 720.841,-105.645 720.841,-105.645 725.358,-107.788 718.912,-109.71 729.875,-109.932 729.875,-109.932"/>
</g>
<!-- User&#45;&gt;Result -->
<g id="edge23" class="edge"><title>User&#45;&gt;Result</title>
<path fill="none" stroke="#19c679" d="M854.613,-153.118C852.747,-149.206 851.127,-145.084 850.09,-141 848.13,-133.28 849.466,-125.006 852.044,-117.495"/>
<ellipse fill="none" stroke="#19c679" cx="856.548" cy="-156.779" rx="4.00002" ry="4.00002"/>
<polygon fill="#19c679" stroke="#19c679" points="852.09,-117.387 860.122,-109.922 854.033,-112.78 855.976,-108.173 855.976,-108.173 855.976,-108.173 854.033,-112.78 851.829,-106.425 852.09,-117.387 852.09,-117.387"/>
</g>
</g>
</svg>
