<?xml version="1.0" encoding="UTF-8" standalone="no"?>
<!DOCTYPE svg PUBLIC "-//W3C//DTD SVG 1.1//EN"
 "http://www.w3.org/Graphics/SVG/1.1/DTD/svg11.dtd">
<!-- Generated by graphviz version 2.40.1 (20161225.0304)
 -->
<!-- Title: models_diagram Pages: 1 -->
<svg width="1277pt" height="1370pt"
 viewBox="0.00 0.00 1276.58 1370.00" xmlns="http://www.w3.org/2000/svg" xmlns:xlink="http://www.w3.org/1999/xlink">
<g id="graph0" class="graph" transform="scale(1 1) rotate(0) translate(4 1366)">
<title>models_diagram</title>
<polygon fill="transparent" stroke="transparent" points="-4,4 -4,-1366 1272.5825,-1366 1272.5825,4 -4,4"/>
<!-- _diagram_info -->
<g id="node1" class="node">
<title>_diagram_info</title>
<text text-anchor="start" x="8" y="-1319.6" font-family="Times,serif" font-size="13.00" fill="#000000">Models diagram</text>
<text text-anchor="start" x="8" y="-1306.6" font-family="Times,serif" font-size="13.00" fill="#000000">Date: May 22 2018 &#45; 09:13</text>
<text text-anchor="start" x="8" y="-1293.6" font-family="Times,serif" font-size="13.00" fill="#000000">Migration version: 1</text>
<text text-anchor="start" x="8" y="-1280.6" font-family="Times,serif" font-size="13.00" fill="#000000">Generated by RailRoady 1.5.3</text>
<text text-anchor="start" x="8" y="-1267.6" font-family="Times,serif" font-size="13.00" fill="#000000">http://railroady.prestonlee.com</text>
</g>
<!-- Identity -->
<g id="node2" class="node">
<title>Identity</title>
<path fill="none" stroke="#000000" d="M585.8579,-610.5C585.8579,-610.5 809.5825,-610.5 809.5825,-610.5 815.5825,-610.5 821.5825,-616.5 821.5825,-622.5 821.5825,-622.5 821.5825,-810.5 821.5825,-810.5 821.5825,-816.5 815.5825,-822.5 809.5825,-822.5 809.5825,-822.5 585.8579,-822.5 585.8579,-822.5 579.8579,-822.5 573.8579,-816.5 573.8579,-810.5 573.8579,-810.5 573.8579,-622.5 573.8579,-622.5 573.8579,-616.5 579.8579,-610.5 585.8579,-610.5"/>
<text text-anchor="middle" x="697.7202" y="-807.3" font-family="Times,serif" font-size="14.00" fill="#000000">Identity</text>
<polyline fill="none" stroke="#000000" points="573.8579,-800.5 821.5825,-800.5 "/>
<text text-anchor="start" x="581.8579" y="-785.3" font-family="Times,serif" font-size="14.00" fill="#000000">updated_at :timestamp without time zone</text>
<text text-anchor="start" x="581.8579" y="-771.3" font-family="Times,serif" font-size="14.00" fill="#000000">person_id :uuid</text>
<text text-anchor="start" x="581.8579" y="-757.3" font-family="Times,serif" font-size="14.00" fill="#000000">identity_provider_id :uuid</text>
<text text-anchor="start" x="581.8579" y="-743.3" font-family="Times,serif" font-size="14.00" fill="#000000">sub :character varying</text>
<text text-anchor="start" x="581.8579" y="-729.3" font-family="Times,serif" font-size="14.00" fill="#000000">iat :character varying</text>
<text text-anchor="start" x="581.8579" y="-715.3" font-family="Times,serif" font-size="14.00" fill="#000000">hd :character varying</text>
<text text-anchor="start" x="581.8579" y="-701.3" font-family="Times,serif" font-size="14.00" fill="#000000">locale :character varying</text>
<text text-anchor="start" x="581.8579" y="-687.3" font-family="Times,serif" font-size="14.00" fill="#000000">email :character varying</text>
<text text-anchor="start" x="581.8579" y="-673.3" font-family="Times,serif" font-size="14.00" fill="#000000">jwt :json</text>
<text text-anchor="start" x="581.8579" y="-659.3" font-family="Times,serif" font-size="14.00" fill="#000000">notify_via_email :boolean</text>
<text text-anchor="start" x="581.8579" y="-645.3" font-family="Times,serif" font-size="14.00" fill="#000000">notify_via_sms :boolean</text>
<text text-anchor="start" x="581.8579" y="-631.3" font-family="Times,serif" font-size="14.00" fill="#000000">created_at :timestamp without time zone</text>
<text text-anchor="start" x="581.8579" y="-617.3" font-family="Times,serif" font-size="14.00" fill="#000000">id :uuid</text>
</g>
<!-- Session -->
<g id="node7" class="node">
<title>Session</title>
<path fill="none" stroke="#000000" d="M319.8579,-465.5C319.8579,-465.5 543.5825,-465.5 543.5825,-465.5 549.5825,-465.5 555.5825,-471.5 555.5825,-477.5 555.5825,-477.5 555.5825,-553.5 555.5825,-553.5 555.5825,-559.5 549.5825,-565.5 543.5825,-565.5 543.5825,-565.5 319.8579,-565.5 319.8579,-565.5 313.8579,-565.5 307.8579,-559.5 307.8579,-553.5 307.8579,-553.5 307.8579,-477.5 307.8579,-477.5 307.8579,-471.5 313.8579,-465.5 319.8579,-465.5"/>
<text text-anchor="middle" x="431.7202" y="-550.3" font-family="Times,serif" font-size="14.00" fill="#000000">Session</text>
<polyline fill="none" stroke="#000000" points="307.8579,-543.5 555.5825,-543.5 "/>
<text text-anchor="start" x="315.8579" y="-528.3" font-family="Times,serif" font-size="14.00" fill="#000000">id :uuid</text>
<text text-anchor="start" x="315.8579" y="-514.3" font-family="Times,serif" font-size="14.00" fill="#000000">identity_id :uuid</text>
<text text-anchor="start" x="315.8579" y="-500.3" font-family="Times,serif" font-size="14.00" fill="#000000">expires_at :timestamp without time zone</text>
<text text-anchor="start" x="315.8579" y="-486.3" font-family="Times,serif" font-size="14.00" fill="#000000">created_at :timestamp without time zone</text>
<text text-anchor="start" x="315.8579" y="-472.3" font-family="Times,serif" font-size="14.00" fill="#000000">updated_at :timestamp without time zone</text>
</g>
<!-- Identity&#45;&gt;Session -->
<g id="edge1" class="edge">
<title>Identity&#45;&gt;Session</title>
<path fill="none" stroke="#481a55" d="M567.2171,-611.8878C566.3827,-611.2558 565.5503,-610.6264 564.7202,-610 547.9132,-597.3164 529.6526,-584.0307 512.1997,-571.5622"/>
<ellipse fill="none" stroke="#481a55" cx="570.4678" cy="-614.3606" rx="4" ry="4"/>
<polygon fill="#481a55" stroke="#481a55" points="511.8519,-571.3145 506.3174,-561.8478 507.7793,-568.4138 503.7067,-565.5131 503.7067,-565.5131 503.7067,-565.5131 507.7793,-568.4138 501.0961,-569.1785 511.8519,-571.3145 511.8519,-571.3145"/>
</g>
<!-- JsonWebToken -->
<g id="node8" class="node">
<title>JsonWebToken</title>
<path fill="none" stroke="#000000" d="M585.8579,-465.5C585.8579,-465.5 809.5825,-465.5 809.5825,-465.5 815.5825,-465.5 821.5825,-471.5 821.5825,-477.5 821.5825,-477.5 821.5825,-553.5 821.5825,-553.5 821.5825,-559.5 815.5825,-565.5 809.5825,-565.5 809.5825,-565.5 585.8579,-565.5 585.8579,-565.5 579.8579,-565.5 573.8579,-559.5 573.8579,-553.5 573.8579,-553.5 573.8579,-477.5 573.8579,-477.5 573.8579,-471.5 579.8579,-465.5 585.8579,-465.5"/>
<text text-anchor="middle" x="697.7202" y="-550.3" font-family="Times,serif" font-size="14.00" fill="#000000">JsonWebToken</text>
<polyline fill="none" stroke="#000000" points="573.8579,-543.5 821.5825,-543.5 "/>
<text text-anchor="start" x="581.8579" y="-528.3" font-family="Times,serif" font-size="14.00" fill="#000000">id :uuid</text>
<text text-anchor="start" x="581.8579" y="-514.3" font-family="Times,serif" font-size="14.00" fill="#000000">identity_id :uuid</text>
<text text-anchor="start" x="581.8579" y="-500.3" font-family="Times,serif" font-size="14.00" fill="#000000">expires_at :timestamp without time zone</text>
<text text-anchor="start" x="581.8579" y="-486.3" font-family="Times,serif" font-size="14.00" fill="#000000">created_at :timestamp without time zone</text>
<text text-anchor="start" x="581.8579" y="-472.3" font-family="Times,serif" font-size="14.00" fill="#000000">updated_at :timestamp without time zone</text>
</g>
<!-- Identity&#45;&gt;JsonWebToken -->
<g id="edge2" class="edge">
<title>Identity&#45;&gt;JsonWebToken</title>
<path fill="none" stroke="#6ba4b2" d="M697.7202,-602.091C697.7202,-593.2283 697.7202,-584.5128 697.7202,-576.2273"/>
<ellipse fill="none" stroke="#6ba4b2" cx="697.7203" cy="-606.4083" rx="4" ry="4"/>
<polygon fill="#6ba4b2" stroke="#6ba4b2" points="697.7203,-575.9836 702.2202,-565.9836 697.7203,-570.9836 697.7202,-565.9836 697.7202,-565.9836 697.7202,-565.9836 697.7203,-570.9836 693.2202,-565.9837 697.7203,-575.9836 697.7203,-575.9836"/>
</g>
<!-- RedisBase -->
<g id="node3" class="node">
<title>RedisBase</title>
<polygon fill="none" stroke="#000000" points="459.1685,-1275.5 459.1685,-1319.5 534.272,-1319.5 534.272,-1275.5 459.1685,-1275.5"/>
<text text-anchor="middle" x="496.7202" y="-1304.3" font-family="Times,serif" font-size="14.00" fill="#000000">RedisBase</text>
<polyline fill="none" stroke="#000000" points="459.1685,-1297.5 534.272,-1297.5 "/>
<text text-anchor="middle" x="496.7202" y="-1282.3" font-family="Times,serif" font-size="14.00" fill="#000000"> </text>
</g>
<!-- Group -->
<g id="node4" class="node">
<title>Group</title>
<path fill="none" stroke="#000000" d="M205.8579,-1095.5C205.8579,-1095.5 429.5825,-1095.5 429.5825,-1095.5 435.5825,-1095.5 441.5825,-1101.5 441.5825,-1107.5 441.5825,-1107.5 441.5825,-1183.5 441.5825,-1183.5 441.5825,-1189.5 435.5825,-1195.5 429.5825,-1195.5 429.5825,-1195.5 205.8579,-1195.5 205.8579,-1195.5 199.8579,-1195.5 193.8579,-1189.5 193.8579,-1183.5 193.8579,-1183.5 193.8579,-1107.5 193.8579,-1107.5 193.8579,-1101.5 199.8579,-1095.5 205.8579,-1095.5"/>
<text text-anchor="middle" x="317.7202" y="-1180.3" font-family="Times,serif" font-size="14.00" fill="#000000">Group</text>
<polyline fill="none" stroke="#000000" points="193.8579,-1173.5 441.5825,-1173.5 "/>
<text text-anchor="start" x="201.8579" y="-1158.3" font-family="Times,serif" font-size="14.00" fill="#000000">id :uuid</text>
<text text-anchor="start" x="201.8579" y="-1144.3" font-family="Times,serif" font-size="14.00" fill="#000000">name :character varying</text>
<text text-anchor="start" x="201.8579" y="-1130.3" font-family="Times,serif" font-size="14.00" fill="#000000">description :text</text>
<text text-anchor="start" x="201.8579" y="-1116.3" font-family="Times,serif" font-size="14.00" fill="#000000">created_at :timestamp without time zone</text>
<text text-anchor="start" x="201.8579" y="-1102.3" font-family="Times,serif" font-size="14.00" fill="#000000">updated_at :timestamp without time zone</text>
</g>
<!-- Capability -->
<g id="node5" class="node">
<title>Capability</title>
<path fill="none" stroke="#000000" d="M53.8579,-659.5C53.8579,-659.5 277.5825,-659.5 277.5825,-659.5 283.5825,-659.5 289.5825,-665.5 289.5825,-671.5 289.5825,-671.5 289.5825,-761.5 289.5825,-761.5 289.5825,-767.5 283.5825,-773.5 277.5825,-773.5 277.5825,-773.5 53.8579,-773.5 53.8579,-773.5 47.8579,-773.5 41.8579,-767.5 41.8579,-761.5 41.8579,-761.5 41.8579,-671.5 41.8579,-671.5 41.8579,-665.5 47.8579,-659.5 53.8579,-659.5"/>
<text text-anchor="middle" x="165.7202" y="-758.3" font-family="Times,serif" font-size="14.00" fill="#000000">Capability</text>
<polyline fill="none" stroke="#000000" points="41.8579,-751.5 289.5825,-751.5 "/>
<text text-anchor="start" x="49.8579" y="-736.3" font-family="Times,serif" font-size="14.00" fill="#000000">id :uuid</text>
<text text-anchor="start" x="49.8579" y="-722.3" font-family="Times,serif" font-size="14.00" fill="#000000">entity_id :uuid</text>
<text text-anchor="start" x="49.8579" y="-708.3" font-family="Times,serif" font-size="14.00" fill="#000000">entity_type :character varying</text>
<text text-anchor="start" x="49.8579" y="-694.3" font-family="Times,serif" font-size="14.00" fill="#000000">role_id :uuid</text>
<text text-anchor="start" x="49.8579" y="-680.3" font-family="Times,serif" font-size="14.00" fill="#000000">created_at :timestamp without time zone</text>
<text text-anchor="start" x="49.8579" y="-666.3" font-family="Times,serif" font-size="14.00" fill="#000000">updated_at :timestamp without time zone</text>
</g>
<!-- Group&#45;&gt;Capability -->
<g id="edge5" class="edge">
<title>Group&#45;&gt;Capability</title>
<path fill="none" stroke="#df2a22" d="M297.2433,-1087.7066C269.2182,-1008.6094 219.024,-866.943 189.4105,-783.3628"/>
<ellipse fill="none" stroke="#df2a22" cx="298.6505" cy="-1091.6783" rx="4" ry="4"/>
<polygon fill="#df2a22" stroke="#df2a22" points="189.3322,-783.1415 190.2341,-772.2127 187.6623,-778.4286 185.9924,-773.7156 185.9924,-773.7156 185.9924,-773.7156 187.6623,-778.4286 181.7508,-775.2185 189.3322,-783.1415 189.3322,-783.1415"/>
</g>
<!-- Member -->
<g id="node6" class="node">
<title>Member</title>
<path fill="none" stroke="#000000" d="M319.8579,-666.5C319.8579,-666.5 543.5825,-666.5 543.5825,-666.5 549.5825,-666.5 555.5825,-672.5 555.5825,-678.5 555.5825,-678.5 555.5825,-754.5 555.5825,-754.5 555.5825,-760.5 549.5825,-766.5 543.5825,-766.5 543.5825,-766.5 319.8579,-766.5 319.8579,-766.5 313.8579,-766.5 307.8579,-760.5 307.8579,-754.5 307.8579,-754.5 307.8579,-678.5 307.8579,-678.5 307.8579,-672.5 313.8579,-666.5 319.8579,-666.5"/>
<text text-anchor="middle" x="431.7202" y="-751.3" font-family="Times,serif" font-size="14.00" fill="#000000">Member</text>
<polyline fill="none" stroke="#000000" points="307.8579,-744.5 555.5825,-744.5 "/>
<text text-anchor="start" x="315.8579" y="-729.3" font-family="Times,serif" font-size="14.00" fill="#000000">id :uuid</text>
<text text-anchor="start" x="315.8579" y="-715.3" font-family="Times,serif" font-size="14.00" fill="#000000">group_id :uuid</text>
<text text-anchor="start" x="315.8579" y="-701.3" font-family="Times,serif" font-size="14.00" fill="#000000">person_id :uuid</text>
<text text-anchor="start" x="315.8579" y="-687.3" font-family="Times,serif" font-size="14.00" fill="#000000">created_at :timestamp without time zone</text>
<text text-anchor="start" x="315.8579" y="-673.3" font-family="Times,serif" font-size="14.00" fill="#000000">updated_at :timestamp without time zone</text>
</g>
<!-- Group&#45;&gt;Member -->
<g id="edge3" class="edge">
<title>Group&#45;&gt;Member</title>
<path fill="none" stroke="#43a71b" d="M313.9589,-1087.3937C312.12,-1031.1923 314.0712,-944.2964 336.7202,-873 347.7522,-838.2725 367.9548,-803.2638 386.9021,-775.1899"/>
<ellipse fill="none" stroke="#43a71b" cx="314.1085" cy="-1091.4602" rx="4" ry="4"/>
<polygon fill="#43a71b" stroke="#43a71b" points="387.0671,-774.9497 396.4393,-769.2564 389.8988,-770.8288 392.7305,-766.7079 392.7305,-766.7079 392.7305,-766.7079 389.8988,-770.8288 389.0217,-764.1594 387.0671,-774.9497 387.0671,-774.9497"/>
</g>
<!-- Person -->
<g id="node11" class="node">
<title>Person</title>
<path fill="none" stroke="#000000" d="M357.8579,-887.5C357.8579,-887.5 581.5825,-887.5 581.5825,-887.5 587.5825,-887.5 593.5825,-893.5 593.5825,-899.5 593.5825,-899.5 593.5825,-1031.5 593.5825,-1031.5 593.5825,-1037.5 587.5825,-1043.5 581.5825,-1043.5 581.5825,-1043.5 357.8579,-1043.5 357.8579,-1043.5 351.8579,-1043.5 345.8579,-1037.5 345.8579,-1031.5 345.8579,-1031.5 345.8579,-899.5 345.8579,-899.5 345.8579,-893.5 351.8579,-887.5 357.8579,-887.5"/>
<text text-anchor="middle" x="469.7202" y="-1028.3" font-family="Times,serif" font-size="14.00" fill="#000000">Person</text>
<polyline fill="none" stroke="#000000" points="345.8579,-1021.5 593.5825,-1021.5 "/>
<text text-anchor="start" x="353.8579" y="-1006.3" font-family="Times,serif" font-size="14.00" fill="#000000">updated_at :timestamp without time zone</text>
<text text-anchor="start" x="353.8579" y="-992.3" font-family="Times,serif" font-size="14.00" fill="#000000">name :character varying</text>
<text text-anchor="start" x="353.8579" y="-978.3" font-family="Times,serif" font-size="14.00" fill="#000000">external_id :character varying</text>
<text text-anchor="start" x="353.8579" y="-964.3" font-family="Times,serif" font-size="14.00" fill="#000000">salutation :character varying</text>
<text text-anchor="start" x="353.8579" y="-950.3" font-family="Times,serif" font-size="14.00" fill="#000000">first_name :character varying</text>
<text text-anchor="start" x="353.8579" y="-936.3" font-family="Times,serif" font-size="14.00" fill="#000000">middle_name :character varying</text>
<text text-anchor="start" x="353.8579" y="-922.3" font-family="Times,serif" font-size="14.00" fill="#000000">last_name :character varying</text>
<text text-anchor="start" x="353.8579" y="-908.3" font-family="Times,serif" font-size="14.00" fill="#000000">created_at :timestamp without time zone</text>
<text text-anchor="start" x="353.8579" y="-894.3" font-family="Times,serif" font-size="14.00" fill="#000000">id :uuid</text>
</g>
<!-- Group&#45;&gt;Person -->
<g id="edge4" class="edge">
<title>Group&#45;&gt;Person</title>
<path fill="none" stroke="#96b48f" d="M366.5237,-1087.7064C376.3261,-1076.0983 386.8239,-1063.6667 397.2336,-1051.3394"/>
<polygon fill="#96b48f" stroke="#96b48f" points="366.5125,-1087.7196 356.6225,-1092.4566 363.2866,-1091.5398 360.0607,-1095.36 360.0607,-1095.36 360.0607,-1095.36 363.2866,-1091.5398 363.4988,-1098.2633 366.5125,-1087.7196 366.5125,-1087.7196"/>
<polygon fill="#96b48f" stroke="#96b48f" points="397.2448,-1051.3261 407.1348,-1046.5891 400.4708,-1047.5059 403.6967,-1043.6858 403.6967,-1043.6858 403.6967,-1043.6858 400.4708,-1047.5059 400.2585,-1040.7824 397.2448,-1051.3261 397.2448,-1051.3261"/>
</g>
<!-- Event -->
<g id="node12" class="node">
<title>Event</title>
<path fill="none" stroke="#000000" d="M737.8579,-180.5C737.8579,-180.5 961.5825,-180.5 961.5825,-180.5 967.5825,-180.5 973.5825,-186.5 973.5825,-192.5 973.5825,-192.5 973.5825,-408.5 973.5825,-408.5 973.5825,-414.5 967.5825,-420.5 961.5825,-420.5 961.5825,-420.5 737.8579,-420.5 737.8579,-420.5 731.8579,-420.5 725.8579,-414.5 725.8579,-408.5 725.8579,-408.5 725.8579,-192.5 725.8579,-192.5 725.8579,-186.5 731.8579,-180.5 737.8579,-180.5"/>
<text text-anchor="middle" x="849.7202" y="-405.3" font-family="Times,serif" font-size="14.00" fill="#000000">Event</text>
<polyline fill="none" stroke="#000000" points="725.8579,-398.5 973.5825,-398.5 "/>
<text text-anchor="start" x="733.8579" y="-383.3" font-family="Times,serif" font-size="14.00" fill="#000000">time_to_live :integer</text>
<text text-anchor="start" x="733.8579" y="-369.3" font-family="Times,serif" font-size="14.00" fill="#000000">person_id :uuid</text>
<text text-anchor="start" x="733.8579" y="-355.3" font-family="Times,serif" font-size="14.00" fill="#000000">parent_id :uuid</text>
<text text-anchor="start" x="733.8579" y="-341.3" font-family="Times,serif" font-size="14.00" fill="#000000">next_id :uuid</text>
<text text-anchor="start" x="733.8579" y="-327.3" font-family="Times,serif" font-size="14.00" fill="#000000">session_id :uuid</text>
<text text-anchor="start" x="733.8579" y="-313.3" font-family="Times,serif" font-size="14.00" fill="#000000">topic_uri :character varying</text>
<text text-anchor="start" x="733.8579" y="-299.3" font-family="Times,serif" font-size="14.00" fill="#000000">model_uri :character varying</text>
<text text-anchor="start" x="733.8579" y="-285.3" font-family="Times,serif" font-size="14.00" fill="#000000">controller_uri :character varying</text>
<text text-anchor="start" x="733.8579" y="-271.3" font-family="Times,serif" font-size="14.00" fill="#000000">agent_uri :character varying</text>
<text text-anchor="start" x="733.8579" y="-257.3" font-family="Times,serif" font-size="14.00" fill="#000000">action_uri :character varying</text>
<text text-anchor="start" x="733.8579" y="-243.3" font-family="Times,serif" font-size="14.00" fill="#000000">created_at :timestamp without time zone</text>
<text text-anchor="start" x="733.8579" y="-229.3" font-family="Times,serif" font-size="14.00" fill="#000000">updated_at :timestamp without time zone</text>
<text text-anchor="start" x="733.8579" y="-215.3" font-family="Times,serif" font-size="14.00" fill="#000000">place_id :uuid</text>
<text text-anchor="start" x="733.8579" y="-201.3" font-family="Times,serif" font-size="14.00" fill="#000000">parameters :json</text>
<text text-anchor="start" x="733.8579" y="-187.3" font-family="Times,serif" font-size="14.00" fill="#000000">id :uuid</text>
</g>
<!-- Session&#45;&gt;Event -->
<g id="edge6" class="edge">
<title>Session&#45;&gt;Event</title>
<path fill="none" stroke="#4911bb" d="M536.2258,-461.7471C590.89,-433.6304 658.3951,-398.9088 716.7463,-368.8957"/>
<ellipse fill="none" stroke="#4911bb" cx="532.4887" cy="-463.6693" rx="4" ry="4"/>
<polygon fill="#4911bb" stroke="#4911bb" points="716.7646,-368.8863 727.7156,-368.314 721.2109,-366.5993 725.6572,-364.3123 725.6572,-364.3123 725.6572,-364.3123 721.2109,-366.5993 723.5989,-360.3106 716.7646,-368.8863 716.7646,-368.8863"/>
</g>
<!-- Role -->
<g id="node9" class="node">
<title>Role</title>
<path fill="none" stroke="#000000" d="M205.8579,-1240.5C205.8579,-1240.5 429.5825,-1240.5 429.5825,-1240.5 435.5825,-1240.5 441.5825,-1246.5 441.5825,-1252.5 441.5825,-1252.5 441.5825,-1342.5 441.5825,-1342.5 441.5825,-1348.5 435.5825,-1354.5 429.5825,-1354.5 429.5825,-1354.5 205.8579,-1354.5 205.8579,-1354.5 199.8579,-1354.5 193.8579,-1348.5 193.8579,-1342.5 193.8579,-1342.5 193.8579,-1252.5 193.8579,-1252.5 193.8579,-1246.5 199.8579,-1240.5 205.8579,-1240.5"/>
<text text-anchor="middle" x="317.7202" y="-1339.3" font-family="Times,serif" font-size="14.00" fill="#000000">Role</text>
<polyline fill="none" stroke="#000000" points="193.8579,-1332.5 441.5825,-1332.5 "/>
<text text-anchor="start" x="201.8579" y="-1317.3" font-family="Times,serif" font-size="14.00" fill="#000000">id :uuid</text>
<text text-anchor="start" x="201.8579" y="-1303.3" font-family="Times,serif" font-size="14.00" fill="#000000">name :character varying</text>
<text text-anchor="start" x="201.8579" y="-1289.3" font-family="Times,serif" font-size="14.00" fill="#000000">code :character varying</text>
<text text-anchor="start" x="201.8579" y="-1275.3" font-family="Times,serif" font-size="14.00" fill="#000000">description :text</text>
<text text-anchor="start" x="201.8579" y="-1261.3" font-family="Times,serif" font-size="14.00" fill="#000000">created_at :timestamp without time zone</text>
<text text-anchor="start" x="201.8579" y="-1247.3" font-family="Times,serif" font-size="14.00" fill="#000000">updated_at :timestamp without time zone</text>
</g>
<!-- Role&#45;&gt;Group -->
<g id="edge9" class="edge">
<title>Role&#45;&gt;Group</title>
<path fill="none" stroke="#56ca45" d="M317.7202,-1230.3785C317.7202,-1222.2258 317.7202,-1213.935 317.7202,-1205.8882"/>
<polygon fill="#56ca45" stroke="#56ca45" points="317.7203,-1230.4684 313.2202,-1240.4683 317.7203,-1235.4684 317.7202,-1240.4684 317.7202,-1240.4684 317.7202,-1240.4684 317.7203,-1235.4684 322.2202,-1240.4684 317.7203,-1230.4684 317.7203,-1230.4684"/>
<polygon fill="#56ca45" stroke="#56ca45" points="317.7203,-1205.8549 322.2202,-1195.8548 317.7203,-1200.8549 317.7202,-1195.8549 317.7202,-1195.8549 317.7202,-1195.8549 317.7203,-1200.8549 313.2202,-1195.8549 317.7203,-1205.8549 317.7203,-1205.8549"/>
</g>
<!-- Role&#45;&gt;Capability -->
<g id="edge7" class="edge">
<title>Role&#45;&gt;Capability</title>
<path fill="none" stroke="#5f2230" d="M214.6726,-1234.7875C202.7511,-1223.3437 192.202,-1210.397 184.7202,-1196 115.7062,-1063.1985 134.1944,-880.6613 151.3633,-783.5849"/>
<ellipse fill="none" stroke="#5f2230" cx="217.6886" cy="-1237.5714" rx="4" ry="4"/>
<polygon fill="#5f2230" stroke="#5f2230" points="151.3887,-783.4444 157.6046,-774.4104 152.2829,-778.525 153.1771,-773.6056 153.1771,-773.6056 153.1771,-773.6056 152.2829,-778.525 148.7497,-772.8008 151.3887,-783.4444 151.3887,-783.4444"/>
</g>
<!-- Role&#45;&gt;Person -->
<g id="edge8" class="edge">
<title>Role&#45;&gt;Person</title>
<path fill="none" stroke="#fe3d3d" d="M421.5749,-1233.1793C433.0251,-1222.1073 443.23,-1209.6917 450.7202,-1196 474.1902,-1153.0981 479.6293,-1098.848 478.8815,-1053.7571"/>
<polygon fill="#fe3d3d" stroke="#fe3d3d" points="421.242,-1233.486 410.838,-1236.9513 417.5644,-1236.8736 413.8868,-1240.2611 413.8868,-1240.2611 413.8868,-1240.2611 417.5644,-1236.8736 416.9356,-1243.5709 421.242,-1233.486 421.242,-1233.486"/>
<polygon fill="#fe3d3d" stroke="#fe3d3d" points="478.8798,-1053.6888 483.1092,-1043.5714 478.7453,-1048.6906 478.6108,-1043.6924 478.6108,-1043.6924 478.6108,-1043.6924 478.7453,-1048.6906 474.1124,-1043.8134 478.8798,-1053.6888 478.8798,-1053.6888"/>
</g>
<!-- Client -->
<g id="node10" class="node">
<title>Client</title>
<path fill="none" stroke="#000000" d="M563.8579,-1233.5C563.8579,-1233.5 787.5825,-1233.5 787.5825,-1233.5 793.5825,-1233.5 799.5825,-1239.5 799.5825,-1245.5 799.5825,-1245.5 799.5825,-1349.5 799.5825,-1349.5 799.5825,-1355.5 793.5825,-1361.5 787.5825,-1361.5 787.5825,-1361.5 563.8579,-1361.5 563.8579,-1361.5 557.8579,-1361.5 551.8579,-1355.5 551.8579,-1349.5 551.8579,-1349.5 551.8579,-1245.5 551.8579,-1245.5 551.8579,-1239.5 557.8579,-1233.5 563.8579,-1233.5"/>
<text text-anchor="middle" x="675.7202" y="-1346.3" font-family="Times,serif" font-size="14.00" fill="#000000">Client</text>
<polyline fill="none" stroke="#000000" points="551.8579,-1339.5 799.5825,-1339.5 "/>
<text text-anchor="start" x="559.8579" y="-1324.3" font-family="Times,serif" font-size="14.00" fill="#000000">id :uuid</text>
<text text-anchor="start" x="559.8579" y="-1310.3" font-family="Times,serif" font-size="14.00" fill="#000000">name :character varying</text>
<text text-anchor="start" x="559.8579" y="-1296.3" font-family="Times,serif" font-size="14.00" fill="#000000">launch_url :character varying</text>
<text text-anchor="start" x="559.8579" y="-1282.3" font-family="Times,serif" font-size="14.00" fill="#000000">icon_url :character varying</text>
<text text-anchor="start" x="559.8579" y="-1268.3" font-family="Times,serif" font-size="14.00" fill="#000000">available :boolean</text>
<text text-anchor="start" x="559.8579" y="-1254.3" font-family="Times,serif" font-size="14.00" fill="#000000">created_at :timestamp without time zone</text>
<text text-anchor="start" x="559.8579" y="-1240.3" font-family="Times,serif" font-size="14.00" fill="#000000">updated_at :timestamp without time zone</text>
</g>
<!-- Person&#45;&gt;Identity -->
<g id="edge13" class="edge">
<title>Person&#45;&gt;Identity</title>
<path fill="none" stroke="#b8f13b" d="M547.0182,-881.0824C561.9348,-864.7919 577.7899,-847.4765 593.4011,-830.4275"/>
<ellipse fill="none" stroke="#b8f13b" cx="543.9366" cy="-884.4479" rx="4" ry="4"/>
<polygon fill="#b8f13b" stroke="#b8f13b" points="593.7992,-829.9927 603.8713,-825.6564 597.1758,-826.3051 600.5524,-822.6175 600.5524,-822.6175 600.5524,-822.6175 597.1758,-826.3051 597.2335,-819.5785 593.7992,-829.9927 593.7992,-829.9927"/>
</g>
<!-- Person&#45;&gt;Capability -->
<g id="edge12" class="edge">
<title>Person&#45;&gt;Capability</title>
<path fill="none" stroke="#2a2220" d="M368.0004,-882.1835C327.4197,-848.9446 281.4504,-811.2922 243.6004,-780.29"/>
<ellipse fill="none" stroke="#2a2220" cx="371.2723" cy="-884.8634" rx="4" ry="4"/>
<polygon fill="#2a2220" stroke="#2a2220" points="243.3879,-780.116 238.5032,-770.2982 239.5198,-776.9477 235.6517,-773.7794 235.6517,-773.7794 235.6517,-773.7794 239.5198,-776.9477 232.8003,-777.2607 243.3879,-780.116 243.3879,-780.116"/>
</g>
<!-- Person&#45;&gt;Member -->
<g id="edge11" class="edge">
<title>Person&#45;&gt;Member</title>
<path fill="none" stroke="#91d8a4" d="M456.5905,-879.466C451.4398,-845.7149 445.6507,-807.7813 440.9547,-777.01"/>
<ellipse fill="none" stroke="#91d8a4" cx="457.1975" cy="-883.4438" rx="4" ry="4"/>
<polygon fill="#91d8a4" stroke="#91d8a4" points="440.9152,-776.751 443.855,-766.1865 440.1609,-771.8082 439.4065,-766.8654 439.4065,-766.8654 439.4065,-766.8654 440.1609,-771.8082 434.958,-767.5444 440.9152,-776.751 440.9152,-776.751"/>
<text text-anchor="middle" x="490.0479" y="-843.8" font-family="Times,serif" font-size="14.00" fill="#000000">memberships</text>
</g>
<!-- Person&#45;&gt;Event -->
<g id="edge10" class="edge">
<title>Person&#45;&gt;Event</title>
<path fill="none" stroke="#731465" d="M601.55,-921.341C698.7075,-887.5045 816.3724,-843.286 830.7202,-823 873.6951,-762.2388 869.4113,-564.9407 860.7787,-430.9499"/>
<ellipse fill="none" stroke="#731465" cx="597.4827" cy="-922.7539" rx="4" ry="4"/>
<polygon fill="#731465" stroke="#731465" points="860.7549,-430.5884 864.5861,-420.3136 860.4254,-425.5993 860.0959,-420.6101 860.0959,-420.6101 860.0959,-420.6101 860.4254,-425.5993 855.6057,-420.9067 860.7549,-430.5884 860.7549,-430.5884"/>
</g>
<!-- Event&#45;&gt;Event -->
<g id="edge15" class="edge">
<title>Event&#45;&gt;Event</title>
<path fill="none" stroke="#57437a" d="M981.9658,-305.8888C988.0332,-304.5241 991.5825,-302.7278 991.5825,-300.5 991.5825,-298.5143 988.7628,-296.8715 983.8537,-295.5715"/>
<ellipse fill="none" stroke="#57437a" cx="977.6914" cy="-306.6189" rx="4" ry="4"/>
<polygon fill="#57437a" stroke="#57437a" points="983.5826,-295.5216 974.5649,-289.2822 978.6656,-294.6145 973.7485,-293.7075 973.7485,-293.7075 973.7485,-293.7075 978.6656,-294.6145 972.9322,-298.1328 983.5826,-295.5216 983.5826,-295.5216"/>
<text text-anchor="middle" x="1026.9619" y="-296.3" font-family="Times,serif" font-size="14.00" fill="#000000">child_events</text>
</g>
<!-- Event&#45;&gt;Event -->
<g id="edge16" class="edge">
<title>Event&#45;&gt;Event</title>
<path fill="none" stroke="#8c9e3e" d="M982.0934,-317.7168C1025.9273,-317.2343 1062.3413,-311.4953 1062.3413,-300.5 1062.3413,-289.6644 1026.9773,-283.9335 983.9984,-283.3076"/>
<ellipse fill="none" stroke="#8c9e3e" cx="977.8294" cy="-317.7317" rx="4" ry="4"/>
<polygon fill="#8c9e3e" stroke="#8c9e3e" points="983.8292,-283.3068 973.853,-278.7543 978.8293,-283.2805 973.8294,-283.2542 973.8294,-283.2542 973.8294,-283.2542 978.8293,-283.2805 973.8057,-287.7541 983.8292,-283.3068 983.8292,-283.3068"/>
<text text-anchor="middle" x="1107.8311" y="-296.3" font-family="Times,serif" font-size="14.00" fill="#000000">previous_events</text>
</g>
<!-- Event&#45;&gt;Event -->
<g id="edge17" class="edge">
<title>Event&#45;&gt;Event</title>
<path fill="none" stroke="#2ac69b" d="M981.8927,-325.3247C1065.1514,-329.5004 1153.3208,-321.2255 1153.3208,-300.5 1153.3208,-279.9417 1066.5678,-271.6339 983.9079,-275.5767"/>
<ellipse fill="none" stroke="#2ac69b" cx="977.8478" cy="-325.1018" rx="4" ry="4"/>
<polygon fill="#2ac69b" stroke="#2ac69b" points="983.8394,-275.5803 973.6118,-271.6248 978.8466,-275.8493 973.8539,-276.1183 973.8539,-276.1183 973.8539,-276.1183 978.8466,-275.8493 974.0959,-280.6118 983.8394,-275.5803 983.8394,-275.5803"/>
<text text-anchor="middle" x="1194.1416" y="-296.3" font-family="Times,serif" font-size="14.00" fill="#000000">scoped_events</text>
</g>
<!-- Objective -->
<g id="node15" class="node">
<title>Objective</title>
<path fill="none" stroke="#000000" d="M737.8579,-.5C737.8579,-.5 961.5825,-.5 961.5825,-.5 967.5825,-.5 973.5825,-6.5 973.5825,-12.5 973.5825,-12.5 973.5825,-130.5 973.5825,-130.5 973.5825,-136.5 967.5825,-142.5 961.5825,-142.5 961.5825,-142.5 737.8579,-142.5 737.8579,-142.5 731.8579,-142.5 725.8579,-136.5 725.8579,-130.5 725.8579,-130.5 725.8579,-12.5 725.8579,-12.5 725.8579,-6.5 731.8579,-.5 737.8579,-.5"/>
<text text-anchor="middle" x="849.7202" y="-127.3" font-family="Times,serif" font-size="14.00" fill="#000000">Objective</text>
<polyline fill="none" stroke="#000000" points="725.8579,-120.5 973.5825,-120.5 "/>
<text text-anchor="start" x="733.8579" y="-105.3" font-family="Times,serif" font-size="14.00" fill="#000000">event_id :uuid</text>
<text text-anchor="start" x="733.8579" y="-91.3" font-family="Times,serif" font-size="14.00" fill="#000000">formalized :boolean</text>
<text text-anchor="start" x="733.8579" y="-77.3" font-family="Times,serif" font-size="14.00" fill="#000000">language :character varying</text>
<text text-anchor="start" x="733.8579" y="-63.3" font-family="Times,serif" font-size="14.00" fill="#000000">specification :character varying</text>
<text text-anchor="start" x="733.8579" y="-49.3" font-family="Times,serif" font-size="14.00" fill="#000000">comment :text</text>
<text text-anchor="start" x="733.8579" y="-35.3" font-family="Times,serif" font-size="14.00" fill="#000000">created_at :timestamp without time zone</text>
<text text-anchor="start" x="733.8579" y="-21.3" font-family="Times,serif" font-size="14.00" fill="#000000">updated_at :timestamp without time zone</text>
<text text-anchor="start" x="733.8579" y="-7.3" font-family="Times,serif" font-size="14.00" fill="#000000">id :uuid</text>
</g>
<!-- Event&#45;&gt;Objective -->
<g id="edge14" class="edge">
<title>Event&#45;&gt;Objective</title>
<path fill="none" stroke="#91c8dc" d="M849.7202,-172.1866C849.7202,-165.726 849.7202,-159.325 849.7202,-153.0674"/>
<ellipse fill="none" stroke="#91c8dc" cx="849.7203" cy="-176.2995" rx="4" ry="4"/>
<polygon fill="#91c8dc" stroke="#91c8dc" points="849.7203,-152.6865 854.2202,-142.6864 849.7203,-147.6865 849.7202,-142.6865 849.7202,-142.6865 849.7202,-142.6865 849.7203,-147.6865 845.2202,-142.6865 849.7203,-152.6865 849.7203,-152.6865"/>
</g>
<!-- IdentityProvider -->
<g id="node13" class="node">
<title>IdentityProvider</title>
<path fill="none" stroke="#000000" d="M762.8579,-873.5C762.8579,-873.5 986.5825,-873.5 986.5825,-873.5 992.5825,-873.5 998.5825,-879.5 998.5825,-885.5 998.5825,-885.5 998.5825,-1045.5 998.5825,-1045.5 998.5825,-1051.5 992.5825,-1057.5 986.5825,-1057.5 986.5825,-1057.5 762.8579,-1057.5 762.8579,-1057.5 756.8579,-1057.5 750.8579,-1051.5 750.8579,-1045.5 750.8579,-1045.5 750.8579,-885.5 750.8579,-885.5 750.8579,-879.5 756.8579,-873.5 762.8579,-873.5"/>
<text text-anchor="middle" x="874.7202" y="-1042.3" font-family="Times,serif" font-size="14.00" fill="#000000">IdentityProvider</text>
<polyline fill="none" stroke="#000000" points="750.8579,-1035.5 998.5825,-1035.5 "/>
<text text-anchor="start" x="758.8579" y="-1020.3" font-family="Times,serif" font-size="14.00" fill="#000000">scopes :character varying</text>
<text text-anchor="start" x="758.8579" y="-1006.3" font-family="Times,serif" font-size="14.00" fill="#000000">name :character varying</text>
<text text-anchor="start" x="758.8579" y="-992.3" font-family="Times,serif" font-size="14.00" fill="#000000">issuer :character varying</text>
<text text-anchor="start" x="758.8579" y="-978.3" font-family="Times,serif" font-size="14.00" fill="#000000">client_id :character varying</text>
<text text-anchor="start" x="758.8579" y="-964.3" font-family="Times,serif" font-size="14.00" fill="#000000">client_secret :character varying</text>
<text text-anchor="start" x="758.8579" y="-950.3" font-family="Times,serif" font-size="14.00" fill="#000000">alternate_client_id :character varying</text>
<text text-anchor="start" x="758.8579" y="-936.3" font-family="Times,serif" font-size="14.00" fill="#000000">configuration :json</text>
<text text-anchor="start" x="758.8579" y="-922.3" font-family="Times,serif" font-size="14.00" fill="#000000">public_keys :json</text>
<text text-anchor="start" x="758.8579" y="-908.3" font-family="Times,serif" font-size="14.00" fill="#000000">created_at :timestamp without time zone</text>
<text text-anchor="start" x="758.8579" y="-894.3" font-family="Times,serif" font-size="14.00" fill="#000000">updated_at :timestamp without time zone</text>
<text text-anchor="start" x="758.8579" y="-880.3" font-family="Times,serif" font-size="14.00" fill="#000000">id :uuid</text>
</g>
<!-- IdentityProvider&#45;&gt;Identity -->
<g id="edge18" class="edge">
<title>IdentityProvider&#45;&gt;Identity</title>
<path fill="none" stroke="#e7116a" d="M804.617,-866.8802C796.2625,-855.1273 787.6792,-843.0524 779.1829,-831.1"/>
<ellipse fill="none" stroke="#e7116a" cx="806.9973" cy="-870.2288" rx="4" ry="4"/>
<polygon fill="#e7116a" stroke="#e7116a" points="779.1125,-831.0009 776.9864,-820.2431 776.2155,-826.9256 773.3186,-822.8503 773.3186,-822.8503 773.3186,-822.8503 776.2155,-826.9256 769.6509,-825.4575 779.1125,-831.0009 779.1125,-831.0009"/>
</g>
<!-- Place -->
<g id="node14" class="node">
<title>Place</title>
<path fill="none" stroke="#000000" d="M889.8579,-458.5C889.8579,-458.5 1113.5825,-458.5 1113.5825,-458.5 1119.5825,-458.5 1125.5825,-464.5 1125.5825,-470.5 1125.5825,-470.5 1125.5825,-560.5 1125.5825,-560.5 1125.5825,-566.5 1119.5825,-572.5 1113.5825,-572.5 1113.5825,-572.5 889.8579,-572.5 889.8579,-572.5 883.8579,-572.5 877.8579,-566.5 877.8579,-560.5 877.8579,-560.5 877.8579,-470.5 877.8579,-470.5 877.8579,-464.5 883.8579,-458.5 889.8579,-458.5"/>
<text text-anchor="middle" x="1001.7202" y="-557.3" font-family="Times,serif" font-size="14.00" fill="#000000">Place</text>
<polyline fill="none" stroke="#000000" points="877.8579,-550.5 1125.5825,-550.5 "/>
<text text-anchor="start" x="885.8579" y="-535.3" font-family="Times,serif" font-size="14.00" fill="#000000">id :uuid</text>
<text text-anchor="start" x="885.8579" y="-521.3" font-family="Times,serif" font-size="14.00" fill="#000000">name :character varying</text>
<text text-anchor="start" x="885.8579" y="-507.3" font-family="Times,serif" font-size="14.00" fill="#000000">address :text</text>
<text text-anchor="start" x="885.8579" y="-493.3" font-family="Times,serif" font-size="14.00" fill="#000000">description :text</text>
<text text-anchor="start" x="885.8579" y="-479.3" font-family="Times,serif" font-size="14.00" fill="#000000">created_at :timestamp without time zone</text>
<text text-anchor="start" x="885.8579" y="-465.3" font-family="Times,serif" font-size="14.00" fill="#000000">updated_at :timestamp without time zone</text>
</g>
<!-- Place&#45;&gt;Event -->
<g id="edge19" class="edge">
<title>Place&#45;&gt;Event</title>
<path fill="none" stroke="#4574af" d="M956.6115,-451.6949C951.4714,-444.4244 946.1042,-436.8326 940.6295,-429.0888"/>
<ellipse fill="none" stroke="#4574af" cx="959.0769" cy="-455.1822" rx="4" ry="4"/>
<polygon fill="#4574af" stroke="#4574af" points="940.4253,-428.7999 938.3269,-418.0366 937.5388,-424.7171 934.6524,-420.6344 934.6524,-420.6344 934.6524,-420.6344 937.5388,-424.7171 930.978,-423.2322 940.4253,-428.7999 940.4253,-428.7999"/>
</g>
</g>
</svg>
