<?xml version="1.0" encoding="UTF-8" standalone="no"?>
<!DOCTYPE svg PUBLIC "-//W3C//DTD SVG 1.1//EN"
 "http://www.w3.org/Graphics/SVG/1.1/DTD/svg11.dtd">
<!-- Generated by graphviz version 2.40.1 (20161225.0304)
 -->
<!-- Title: models_diagram Pages: 1 -->
<svg width="781pt" height="532pt"
 viewBox="0.00 0.00 781.45 532.00" xmlns="http://www.w3.org/2000/svg" xmlns:xlink="http://www.w3.org/1999/xlink">
<g id="graph0" class="graph" transform="scale(1 1) rotate(0) translate(4 528)">
<title>models_diagram</title>
<polygon fill="transparent" stroke="transparent" points="-4,4 -4,-528 777.4546,-528 777.4546,4 -4,4"/>
<!-- _diagram_info -->
<g id="node1" class="node">
<title>_diagram_info</title>
<text text-anchor="start" x="8" y="-509.6" font-family="Times,serif" font-size="13.00" fill="#000000">Models diagram</text>
<text text-anchor="start" x="8" y="-496.6" font-family="Times,serif" font-size="13.00" fill="#000000">Date: May 23 2018 &#45; 15:54</text>
<text text-anchor="start" x="8" y="-483.6" font-family="Times,serif" font-size="13.00" fill="#000000">Migration version: 1</text>
<text text-anchor="start" x="8" y="-470.6" font-family="Times,serif" font-size="13.00" fill="#000000">Generated by RailRoady 1.5.3</text>
<text text-anchor="start" x="8" y="-457.6" font-family="Times,serif" font-size="13.00" fill="#000000">http://railroady.prestonlee.com</text>
</g>
<!-- Identity -->
<g id="node2" class="node">
<title>Identity</title>
<ellipse fill="none" stroke="#000000" cx="368.7202" cy="-237" rx="37.7266" ry="18"/>
<text text-anchor="middle" x="368.7202" y="-232.8" font-family="Times,serif" font-size="14.00" fill="#000000">Identity</text>
</g>
<!-- Session -->
<g id="node7" class="node">
<title>Session</title>
<ellipse fill="none" stroke="#000000" cx="236.7202" cy="-164" rx="37.2681" ry="18"/>
<text text-anchor="middle" x="236.7202" y="-159.8" font-family="Times,serif" font-size="14.00" fill="#000000">Session</text>
</g>
<!-- Identity&#45;&gt;Session -->
<g id="edge1" class="edge">
<title>Identity&#45;&gt;Session</title>
<path fill="none" stroke="#c5c697" d="M336.6654,-219.2727C316.5864,-208.1684 290.7482,-193.8791 270.3736,-182.6113"/>
<ellipse fill="none" stroke="#c5c697" cx="340.3916" cy="-221.3334" rx="4" ry="4"/>
<polygon fill="#c5c697" stroke="#c5c697" points="270.188,-182.5088 263.6149,-173.7312 265.8125,-180.089 261.4371,-177.6692 261.4371,-177.6692 261.4371,-177.6692 265.8125,-180.089 259.2593,-181.6071 270.188,-182.5088 270.188,-182.5088"/>
</g>
<!-- JsonWebToken -->
<g id="node8" class="node">
<title>JsonWebToken</title>
<ellipse fill="none" stroke="#000000" cx="355.7202" cy="-164" rx="63.5968" ry="18"/>
<text text-anchor="middle" x="355.7202" y="-159.8" font-family="Times,serif" font-size="14.00" fill="#000000">JsonWebToken</text>
</g>
<!-- Identity&#45;&gt;JsonWebToken -->
<g id="edge2" class="edge">
<title>Identity&#45;&gt;JsonWebToken</title>
<path fill="none" stroke="#c5d638" d="M364.0737,-210.9079C362.9848,-204.7936 361.8203,-198.2541 360.7169,-192.058"/>
<ellipse fill="none" stroke="#c5d638" cx="364.8054" cy="-215.017" rx="4" ry="4"/>
<polygon fill="#c5d638" stroke="#c5d638" points="360.6951,-191.9355 363.3721,-181.3014 359.8184,-187.0129 358.9418,-182.0904 358.9418,-182.0904 358.9418,-182.0904 359.8184,-187.0129 354.5115,-182.8794 360.6951,-191.9355 360.6951,-191.9355"/>
</g>
<!-- RedisBase -->
<g id="node3" class="node">
<title>RedisBase</title>
<polygon fill="none" stroke="#000000" points="341.3238,-505.5 266.1166,-505.5 266.1166,-469.5 341.3238,-469.5 341.3238,-505.5"/>
<text text-anchor="middle" x="303.7202" y="-483.3" font-family="Times,serif" font-size="14.00" fill="#000000">RedisBase</text>
</g>
<!-- Group -->
<g id="node4" class="node">
<title>Group</title>
<ellipse fill="none" stroke="#000000" cx="220.7202" cy="-396" rx="32.9081" ry="18"/>
<text text-anchor="middle" x="220.7202" y="-391.8" font-family="Times,serif" font-size="14.00" fill="#000000">Group</text>
</g>
<!-- Capability -->
<g id="node5" class="node">
<title>Capability</title>
<ellipse fill="none" stroke="#000000" cx="167.7202" cy="-237" rx="46.8977" ry="18"/>
<text text-anchor="middle" x="167.7202" y="-232.8" font-family="Times,serif" font-size="14.00" fill="#000000">Capability</text>
</g>
<!-- Group&#45;&gt;Capability -->
<g id="edge5" class="edge">
<title>Group&#45;&gt;Capability</title>
<path fill="none" stroke="#853837" d="M212.1771,-370.3705C202.5462,-341.4781 186.9405,-294.6609 177.0123,-264.8762"/>
<ellipse fill="none" stroke="#853837" cx="213.4785" cy="-374.275" rx="4" ry="4"/>
<polygon fill="#853837" stroke="#853837" points="176.9188,-264.5955 178.0255,-253.6856 175.3376,-259.8521 173.7564,-255.1087 173.7564,-255.1087 173.7564,-255.1087 175.3376,-259.8521 169.4874,-256.5317 176.9188,-264.5955 176.9188,-264.5955"/>
</g>
<!-- Member -->
<g id="node6" class="node">
<title>Member</title>
<ellipse fill="none" stroke="#000000" cx="272.7202" cy="-237" rx="40.1317" ry="18"/>
<text text-anchor="middle" x="272.7202" y="-232.8" font-family="Times,serif" font-size="14.00" fill="#000000">Member</text>
</g>
<!-- Group&#45;&gt;Member -->
<g id="edge3" class="edge">
<title>Group&#45;&gt;Member</title>
<path fill="none" stroke="#5555c0" d="M224.4186,-369.9002C227.4526,-351.4574 232.4436,-326.326 239.7202,-305 244.5017,-290.9866 251.4792,-276.1158 257.788,-263.8659"/>
<ellipse fill="none" stroke="#5555c0" cx="223.7849" cy="-373.9146" rx="4" ry="4"/>
<polygon fill="#5555c0" stroke="#5555c0" points="257.9757,-263.5107 266.6277,-256.7732 260.3125,-259.0904 262.6494,-254.67 262.6494,-254.67 262.6494,-254.67 260.3125,-259.0904 258.6711,-252.5669 257.9757,-263.5107 257.9757,-263.5107"/>
</g>
<!-- Person -->
<g id="node11" class="node">
<title>Person</title>
<ellipse fill="none" stroke="#000000" cx="282.7202" cy="-323" rx="34.3614" ry="18"/>
<text text-anchor="middle" x="282.7202" y="-318.8" font-family="Times,serif" font-size="14.00" fill="#000000">Person</text>
</g>
<!-- Group&#45;&gt;Person -->
<g id="edge4" class="edge">
<title>Group&#45;&gt;Person</title>
<path fill="none" stroke="#d6904e" d="M241.3456,-371.7153C247.9445,-363.9456 255.2524,-355.3411 261.8674,-347.5525"/>
<polygon fill="#d6904e" stroke="#d6904e" points="241.2625,-371.8132 231.3591,-376.5221 238.0257,-375.6242 234.789,-379.4352 234.789,-379.4352 234.789,-379.4352 238.0257,-375.6242 238.2189,-382.3482 241.2625,-371.8132 241.2625,-371.8132"/>
<polygon fill="#d6904e" stroke="#d6904e" points="262.2336,-347.1213 272.137,-342.4123 265.4704,-343.3103 268.7071,-339.4993 268.7071,-339.4993 268.7071,-339.4993 265.4704,-343.3103 265.2772,-336.5862 262.2336,-347.1213 262.2336,-347.1213"/>
</g>
<!-- Event -->
<g id="node12" class="node">
<title>Event</title>
<ellipse fill="none" stroke="#000000" cx="447.7202" cy="-91" rx="30.9706" ry="18"/>
<text text-anchor="middle" x="447.7202" y="-86.8" font-family="Times,serif" font-size="14.00" fill="#000000">Event</text>
</g>
<!-- Session&#45;&gt;Event -->
<g id="edge6" class="edge">
<title>Session&#45;&gt;Event</title>
<path fill="none" stroke="#0977a4" d="M273.518,-149.4086C276.6235,-148.2357 279.7216,-147.0857 282.7202,-146 326.3327,-130.2101 377.0143,-113.5668 410.5791,-102.7793"/>
<ellipse fill="none" stroke="#0977a4" cx="269.5722" cy="-150.918" rx="4" ry="4"/>
<polygon fill="#0977a4" stroke="#0977a4" points="410.8962,-102.6778 421.7924,-103.9124 415.6578,-101.1524 420.4195,-99.6269 420.4195,-99.6269 420.4195,-99.6269 415.6578,-101.1524 419.0466,-95.3414 410.8962,-102.6778 410.8962,-102.6778"/>
</g>
<!-- Role -->
<g id="node9" class="node">
<title>Role</title>
<ellipse fill="none" stroke="#000000" cx="220.7202" cy="-487.5" rx="27" ry="18"/>
<text text-anchor="middle" x="220.7202" y="-483.3" font-family="Times,serif" font-size="14.00" fill="#000000">Role</text>
</g>
<!-- Role&#45;&gt;Group -->
<g id="edge9" class="edge">
<title>Role&#45;&gt;Group</title>
<path fill="none" stroke="#9dd8dc" d="M220.7202,-459.2998C220.7202,-448.1245 220.7202,-435.3026 220.7202,-424.1338"/>
<polygon fill="#9dd8dc" stroke="#9dd8dc" points="220.7203,-459.4225 216.2202,-469.4225 220.7203,-464.4225 220.7202,-469.4225 220.7202,-469.4225 220.7202,-469.4225 220.7203,-464.4225 225.2202,-469.4226 220.7203,-459.4225 220.7203,-459.4225"/>
<polygon fill="#9dd8dc" stroke="#9dd8dc" points="220.7203,-424.0399 225.2202,-414.0399 220.7203,-419.0399 220.7202,-414.0399 220.7202,-414.0399 220.7202,-414.0399 220.7203,-419.0399 216.2202,-414.0399 220.7203,-424.0399 220.7203,-424.0399"/>
</g>
<!-- Role&#45;&gt;Capability -->
<g id="edge7" class="edge">
<title>Role&#45;&gt;Capability</title>
<path fill="none" stroke="#0580cb" d="M203.8885,-464.4575C194.7067,-450.5664 184.1351,-432.1057 178.7202,-414 163.53,-363.209 163.7975,-300.6679 165.6008,-265.161"/>
<ellipse fill="none" stroke="#0580cb" cx="206.2789" cy="-467.9717" rx="4" ry="4"/>
<polygon fill="#0580cb" stroke="#0580cb" points="165.6081,-265.0352 170.6866,-255.3162 165.9012,-260.0438 166.1943,-255.0524 166.1943,-255.0524 166.1943,-255.0524 165.9012,-260.0438 161.7021,-254.7886 165.6081,-265.0352 165.6081,-265.0352"/>
</g>
<!-- Role&#45;&gt;Person -->
<g id="edge8" class="edge">
<title>Role&#45;&gt;Person</title>
<path fill="none" stroke="#20774e" d="M237.5063,-462.5473C246.1313,-448.7435 256.1755,-430.9874 262.7202,-414 270.5468,-393.6853 275.6719,-369.5793 278.7728,-351.283"/>
<polygon fill="#20774e" stroke="#20774e" points="237.4866,-462.5782 228.3047,-468.5734 234.7905,-466.789 232.0944,-470.9999 232.0944,-470.9999 232.0944,-470.9999 234.7905,-466.789 235.8842,-473.4264 237.4866,-462.5782 237.4866,-462.5782"/>
<polygon fill="#20774e" stroke="#20774e" points="278.7971,-351.1299 284.8137,-341.9621 279.5834,-346.1922 280.3697,-341.2544 280.3697,-341.2544 280.3697,-341.2544 279.5834,-346.1922 275.9257,-340.5467 278.7971,-351.1299 278.7971,-351.1299"/>
</g>
<!-- Client -->
<g id="node10" class="node">
<title>Client</title>
<ellipse fill="none" stroke="#000000" cx="390.7202" cy="-487.5" rx="31.948" ry="18"/>
<text text-anchor="middle" x="390.7202" y="-483.3" font-family="Times,serif" font-size="14.00" fill="#000000">Client</text>
</g>
<!-- Person&#45;&gt;Identity -->
<g id="edge13" class="edge">
<title>Person&#45;&gt;Identity</title>
<path fill="none" stroke="#e469a3" d="M320.6669,-311.0899C333.0525,-305.5303 345.8791,-297.7104 354.7202,-287 359.8275,-280.8128 363.0758,-272.8844 365.1403,-265.1733"/>
<ellipse fill="none" stroke="#e469a3" cx="316.7436" cy="-312.7257" rx="4" ry="4"/>
<polygon fill="#e469a3" stroke="#e469a3" points="365.154,-265.1085 371.6313,-256.2601 366.1916,-260.2174 367.2292,-255.3262 367.2292,-255.3262 367.2292,-255.3262 366.1916,-260.2174 362.8272,-254.3923 365.154,-265.1085 365.154,-265.1085"/>
</g>
<!-- Person&#45;&gt;Capability -->
<g id="edge12" class="edge">
<title>Person&#45;&gt;Capability</title>
<path fill="none" stroke="#69d9cb" d="M256.3569,-303.2848C238.8634,-290.2027 215.8645,-273.0035 197.6782,-259.4034"/>
<ellipse fill="none" stroke="#69d9cb" cx="259.7477" cy="-305.8205" rx="4" ry="4"/>
<polygon fill="#69d9cb" stroke="#69d9cb" points="197.1906,-259.0388 191.8773,-249.4461 193.1864,-256.0443 189.1823,-253.0499 189.1823,-253.0499 189.1823,-253.0499 193.1864,-256.0443 186.4872,-256.6536 197.1906,-259.0388 197.1906,-259.0388"/>
</g>
<!-- Person&#45;&gt;Member -->
<g id="edge11" class="edge">
<title>Person&#45;&gt;Member</title>
<path fill="none" stroke="#a524db" d="M279.6718,-296.7834C278.5113,-286.8033 277.1845,-275.3925 276.0032,-265.2334"/>
<ellipse fill="none" stroke="#a524db" cx="280.1374" cy="-300.7884" rx="4" ry="4"/>
<polygon fill="#a524db" stroke="#a524db" points="275.993,-265.1452 279.3078,-254.6923 275.4154,-260.1786 274.8379,-255.2121 274.8379,-255.2121 274.8379,-255.2121 275.4154,-260.1786 270.368,-255.7319 275.993,-265.1452 275.993,-265.1452"/>
<text text-anchor="middle" x="316.0479" y="-275.8" font-family="Times,serif" font-size="14.00" fill="#000000">memberships</text>
</g>
<!-- Person&#45;&gt;Event -->
<g id="edge10" class="edge">
<title>Person&#45;&gt;Event</title>
<path fill="none" stroke="#bb0861" d="M322.974,-314.2081C354.1301,-305.0836 395.3007,-287.4352 415.7202,-255 442.1474,-213.022 447.5476,-153.9532 448.22,-119.3536"/>
<ellipse fill="none" stroke="#bb0861" cx="318.7376" cy="-315.3844" rx="4" ry="4"/>
<polygon fill="#bb0861" stroke="#bb0861" points="448.2222,-119.0322 452.7928,-109.0642 448.2576,-114.0323 448.2929,-109.0324 448.2929,-109.0324 448.2929,-109.0324 448.2576,-114.0323 443.793,-109.0006 448.2222,-119.0322 448.2222,-119.0322"/>
</g>
<!-- Event&#45;&gt;Event -->
<g id="edge15" class="edge">
<title>Event&#45;&gt;Event</title>
<path fill="none" stroke="#fe66f6" d="M486.8012,-93.0367C492.5635,-92.7171 496.4546,-92.0382 496.4546,-91 496.4546,-90.0771 493.3802,-89.4382 488.6499,-89.0831"/>
<ellipse fill="none" stroke="#fe66f6" cx="482.6522" cy="-93.145" rx="4" ry="4"/>
<polygon fill="#fe66f6" stroke="#fe66f6" points="488.6481,-89.0831 478.8033,-84.253 483.6508,-88.9168 478.6536,-88.7505 478.6536,-88.7505 478.6536,-88.7505 483.6508,-88.9168 478.5039,-93.2481 488.6481,-89.0831 488.6481,-89.0831"/>
<text text-anchor="middle" x="531.834" y="-86.8" font-family="Times,serif" font-size="14.00" fill="#000000">child_events</text>
</g>
<!-- Event&#45;&gt;Event -->
<g id="edge16" class="edge">
<title>Event&#45;&gt;Event</title>
<path fill="none" stroke="#da91e2" d="M486.4924,-94.9176C522.2628,-96.3851 567.2134,-95.0792 567.2134,-91 567.2134,-86.9896 523.7674,-85.6598 488.3111,-87.0104"/>
<ellipse fill="none" stroke="#da91e2" cx="482.0896" cy="-94.7046" rx="4" ry="4"/>
<polygon fill="#da91e2" stroke="#da91e2" points="488.0833,-87.021 477.8838,-82.9937 483.0888,-87.2549 478.0943,-87.4888 478.0943,-87.4888 478.0943,-87.4888 483.0888,-87.2549 478.3048,-91.9838 488.0833,-87.021 488.0833,-87.021"/>
<text text-anchor="middle" x="612.7031" y="-86.8" font-family="Times,serif" font-size="14.00" fill="#000000">previous_events</text>
</g>
<!-- Event&#45;&gt;Event -->
<g id="edge17" class="edge">
<title>Event&#45;&gt;Event</title>
<path fill="none" stroke="#33b8a9" d="M486.1685,-95.6974C548.5392,-99.5473 658.1929,-97.9815 658.1929,-91 658.1929,-84.0898 550.7656,-82.4852 488.0924,-86.1864"/>
<ellipse fill="none" stroke="#33b8a9" cx="482.0585" cy="-95.4178" rx="4" ry="4"/>
<polygon fill="#33b8a9" stroke="#33b8a9" points="488.0456,-86.1894 477.7687,-82.3638 483.0567,-86.5216 478.0677,-86.8539 478.0677,-86.8539 478.0677,-86.8539 483.0567,-86.5216 478.3667,-91.3439 488.0456,-86.1894 488.0456,-86.1894"/>
<text text-anchor="middle" x="699.0137" y="-86.8" font-family="Times,serif" font-size="14.00" fill="#000000">scoped_events</text>
</g>
<!-- Objective -->
<g id="node15" class="node">
<title>Objective</title>
<ellipse fill="none" stroke="#000000" cx="447.7202" cy="-18" rx="44.4664" ry="18"/>
<text text-anchor="middle" x="447.7202" y="-13.8" font-family="Times,serif" font-size="14.00" fill="#000000">Objective</text>
</g>
<!-- Event&#45;&gt;Objective -->
<g id="edge14" class="edge">
<title>Event&#45;&gt;Objective</title>
<path fill="none" stroke="#11055a" d="M447.7202,-64.9079C447.7202,-58.9427 447.7202,-52.5729 447.7202,-46.512"/>
<ellipse fill="none" stroke="#11055a" cx="447.7203" cy="-68.9551" rx="4" ry="4"/>
<polygon fill="#11055a" stroke="#11055a" points="447.7203,-46.0904 452.2202,-36.0903 447.7203,-41.0904 447.7202,-36.0904 447.7202,-36.0904 447.7202,-36.0904 447.7203,-41.0904 443.2202,-36.0904 447.7203,-46.0904 447.7203,-46.0904"/>
</g>
<!-- IdentityProvider -->
<g id="node13" class="node">
<title>IdentityProvider</title>
<ellipse fill="none" stroke="#000000" cx="472.7202" cy="-323" rx="68.1374" ry="18"/>
<text text-anchor="middle" x="472.7202" y="-318.8" font-family="Times,serif" font-size="14.00" fill="#000000">IdentityProvider</text>
</g>
<!-- IdentityProvider&#45;&gt;Identity -->
<g id="edge18" class="edge">
<title>IdentityProvider&#45;&gt;Identity</title>
<path fill="none" stroke="#343494" d="M445.2399,-300.2759C429.9149,-287.6033 410.9051,-271.8837 395.667,-259.2829"/>
<ellipse fill="none" stroke="#343494" cx="448.5917" cy="-303.0475" rx="4" ry="4"/>
<polygon fill="#343494" stroke="#343494" points="395.3432,-259.0152 390.5045,-249.1746 391.49,-255.8289 387.6368,-252.6425 387.6368,-252.6425 387.6368,-252.6425 391.49,-255.8289 384.769,-256.1104 395.3432,-259.0152 395.3432,-259.0152"/>
</g>
<!-- Place -->
<g id="node14" class="node">
<title>Place</title>
<ellipse fill="none" stroke="#000000" cx="504.7202" cy="-164" rx="29.0172" ry="18"/>
<text text-anchor="middle" x="504.7202" y="-159.8" font-family="Times,serif" font-size="14.00" fill="#000000">Place</text>
</g>
<!-- Place&#45;&gt;Event -->
<g id="edge19" class="edge">
<title>Place&#45;&gt;Event</title>
<path fill="none" stroke="#1b1220" d="M486.7243,-140.9526C480.4295,-132.8909 473.3399,-123.8112 466.9484,-115.6256"/>
<ellipse fill="none" stroke="#1b1220" cx="489.3243" cy="-144.2824" rx="4" ry="4"/>
<polygon fill="#1b1220" stroke="#1b1220" points="466.7576,-115.3812 464.1501,-104.7298 463.6804,-111.4402 460.6032,-107.4993 460.6032,-107.4993 460.6032,-107.4993 463.6804,-111.4402 457.0564,-110.2687 466.7576,-115.3812 466.7576,-115.3812"/>
</g>
</g>
</svg>
