<?xml version="1.0" encoding="UTF-8" standalone="no"?>
<!DOCTYPE svg PUBLIC "-//W3C//DTD SVG 1.1//EN"
 "http://www.w3.org/Graphics/SVG/1.1/DTD/svg11.dtd">
<!-- Generated by graphviz version 2.38.0 (20140413.2041)
 -->
<!-- Title: models_diagram Pages: 1 -->
<svg width="1033pt" height="386pt"
 viewBox="0.00 0.00 1033.31 386.00" xmlns="http://www.w3.org/2000/svg" xmlns:xlink="http://www.w3.org/1999/xlink">
<g id="graph0" class="graph" transform="scale(1 1) rotate(0) translate(4 382)">
<title>models_diagram</title>
<polygon fill="none" stroke="none" points="-4,4 -4,-382 1029.31,-382 1029.31,4 -4,4"/>
<!-- _diagram_info -->
<g id="node1" class="node"><title>_diagram_info</title>
<text text-anchor="start" x="8" y="-363.6" font-family="Times,serif" font-size="13.00">Models diagram</text>
<text text-anchor="start" x="8" y="-350.6" font-family="Times,serif" font-size="13.00">Date: Jun 17 2016 &#45; 12:53</text>
<text text-anchor="start" x="8" y="-337.6" font-family="Times,serif" font-size="13.00">Migration version: 20160616223349</text>
<text text-anchor="start" x="8" y="-324.6" font-family="Times,serif" font-size="13.00">Generated by RailRoady 1.4.2</text>
<text text-anchor="start" x="8" y="-311.6" font-family="Times,serif" font-size="13.00">http://railroady.prestonlee.com</text>
</g>
<!-- Ability -->
<g id="node2" class="node"><title>Ability</title>
<polygon fill="none" stroke="black" points="281.358,-359.5 226.018,-359.5 226.018,-323.5 281.358,-323.5 281.358,-359.5"/>
<text text-anchor="middle" x="253.688" y="-337.3" font-family="Times,serif" font-size="14.00">Ability</text>
</g>
<!-- Capability -->
<g id="node3" class="node"><title>Capability</title>
<ellipse fill="none" stroke="black" cx="150.688" cy="-91" rx="46.8977" ry="18"/>
<text text-anchor="middle" x="150.688" y="-86.8" font-family="Times,serif" font-size="14.00">Capability</text>
</g>
<!-- Client -->
<g id="node4" class="node"><title>Client</title>
<ellipse fill="none" stroke="black" cx="403.688" cy="-341.5" rx="31.948" ry="18"/>
<text text-anchor="middle" x="403.688" y="-337.3" font-family="Times,serif" font-size="14.00">Client</text>
</g>
<!-- Context -->
<g id="node5" class="node"><title>Context</title>
<ellipse fill="none" stroke="black" cx="523.688" cy="-177" rx="38.2197" ry="18"/>
<text text-anchor="middle" x="523.688" y="-172.8" font-family="Times,serif" font-size="14.00">Context</text>
</g>
<!-- Focus -->
<g id="node6" class="node"><title>Focus</title>
<ellipse fill="none" stroke="black" cx="618.688" cy="-91" rx="31.4723" ry="18"/>
<text text-anchor="middle" x="618.688" y="-86.8" font-family="Times,serif" font-size="14.00">Focus</text>
</g>
<!-- Context&#45;&gt;Focus -->
<g id="edge2" class="edge"><title>Context&#45;&gt;Focus</title>
<path fill="none" stroke="#5ab325" d="M547.148,-155.256C561.616,-142.464 580.124,-126.098 594.69,-113.219"/>
<ellipse fill="none" stroke="#5ab325" cx="544.109" cy="-157.943" rx="4.00002" ry="4.00002"/>
<polygon fill="#5ab325" stroke="#5ab325" points="594.835,-113.091 605.307,-109.838 598.581,-109.779 602.326,-106.467 602.326,-106.467 602.326,-106.467 598.581,-109.779 599.345,-103.096 594.835,-113.091 594.835,-113.091"/>
</g>
<!-- Participant -->
<g id="node13" class="node"><title>Participant</title>
<ellipse fill="none" stroke="black" cx="445.688" cy="-91" rx="48.3341" ry="18"/>
<text text-anchor="middle" x="445.688" y="-86.8" font-family="Times,serif" font-size="14.00">Participant</text>
</g>
<!-- Context&#45;&gt;Participant -->
<g id="edge1" class="edge"><title>Context&#45;&gt;Participant</title>
<path fill="none" stroke="#af479e" d="M503.564,-154.328C492.622,-142.544 479.067,-127.947 467.827,-115.842"/>
<ellipse fill="none" stroke="#af479e" cx="506.295" cy="-157.269" rx="4.00002" ry="4.00002"/>
<polygon fill="#af479e" stroke="#af479e" points="467.63,-115.63 464.123,-105.24 464.227,-111.966 460.825,-108.302 460.825,-108.302 460.825,-108.302 464.227,-111.966 457.528,-111.364 467.63,-115.63 467.63,-115.63"/>
</g>
<!-- Group -->
<g id="node7" class="node"><title>Group</title>
<ellipse fill="none" stroke="black" cx="283.688" cy="-250" rx="32.9081" ry="18"/>
<text text-anchor="middle" x="283.688" y="-245.8" font-family="Times,serif" font-size="14.00">Group</text>
</g>
<!-- Group&#45;&gt;Capability -->
<g id="edge5" class="edge"><title>Group&#45;&gt;Capability</title>
<path fill="none" stroke="#b7a731" d="M265.049,-226.998C240.393,-197.892 197.067,-146.748 171.408,-116.459"/>
<ellipse fill="none" stroke="#b7a731" cx="267.863" cy="-230.32" rx="4.00002" ry="4.00002"/>
<polygon fill="#b7a731" stroke="#b7a731" points="171.134,-116.135 168.103,-105.596 167.902,-112.32 164.67,-108.505 164.67,-108.505 164.67,-108.505 167.902,-112.32 161.236,-111.414 171.134,-116.135 171.134,-116.135"/>
</g>
<!-- Member -->
<g id="node12" class="node"><title>Member</title>
<ellipse fill="none" stroke="black" cx="255.688" cy="-91" rx="40.1317" ry="18"/>
<text text-anchor="middle" x="255.688" y="-86.8" font-family="Times,serif" font-size="14.00">Member</text>
</g>
<!-- Group&#45;&gt;Member -->
<g id="edge3" class="edge"><title>Group&#45;&gt;Member</title>
<path fill="none" stroke="#2206b0" d="M279.203,-223.852C274.092,-195.193 265.768,-148.523 260.518,-119.082"/>
<ellipse fill="none" stroke="#2206b0" cx="279.936" cy="-227.962" rx="4.00001" ry="4.00001"/>
<polygon fill="#2206b0" stroke="#2206b0" points="260.49,-118.924 263.164,-108.289 259.612,-114.002 258.734,-109.08 258.734,-109.08 258.734,-109.08 259.612,-114.002 254.304,-109.87 260.49,-118.924 260.49,-118.924"/>
</g>
<!-- User -->
<g id="node20" class="node"><title>User</title>
<ellipse fill="none" stroke="black" cx="399.688" cy="-177" rx="27" ry="18"/>
<text text-anchor="middle" x="399.688" y="-172.8" font-family="Times,serif" font-size="14.00">User</text>
</g>
<!-- Group&#45;&gt;User -->
<g id="edge4" class="edge"><title>Group&#45;&gt;User</title>
<path fill="none" stroke="#f98d53" d="M313.275,-230.891C331.227,-219.903 354.001,-205.963 371.662,-195.154"/>
<polygon fill="#f98d53" stroke="#f98d53" points="313.224,-230.922 302.345,-232.304 308.959,-233.532 304.694,-236.142 304.694,-236.142 304.694,-236.142 308.959,-233.532 307.044,-239.981 313.224,-230.922 313.224,-230.922"/>
<polygon fill="#f98d53" stroke="#f98d53" points="371.85,-195.039 382.728,-193.656 376.114,-192.428 380.379,-189.818 380.379,-189.818 380.379,-189.818 376.114,-192.428 378.03,-185.98 371.85,-195.039 371.85,-195.039"/>
</g>
<!-- Identity -->
<g id="node8" class="node"><title>Identity</title>
<ellipse fill="none" stroke="black" cx="705.688" cy="-91" rx="37.7266" ry="18"/>
<text text-anchor="middle" x="705.688" y="-86.8" font-family="Times,serif" font-size="14.00">Identity</text>
</g>
<!-- Session -->
<g id="node17" class="node"><title>Session</title>
<ellipse fill="none" stroke="black" cx="705.688" cy="-18" rx="37.2681" ry="18"/>
<text text-anchor="middle" x="705.688" y="-13.8" font-family="Times,serif" font-size="14.00">Session</text>
</g>
<!-- Identity&#45;&gt;Session -->
<g id="edge6" class="edge"><title>Identity&#45;&gt;Session</title>
<path fill="none" stroke="#779fc8" d="M705.688,-64.791C705.688,-58.832 705.688,-52.4496 705.688,-46.3988"/>
<ellipse fill="none" stroke="#779fc8" cx="705.688" cy="-68.8129" rx="4" ry="4"/>
<polygon fill="#779fc8" stroke="#779fc8" points="705.688,-46.0288 710.188,-36.0288 705.688,-41.0288 705.688,-36.0288 705.688,-36.0288 705.688,-36.0288 705.688,-41.0288 701.188,-36.0289 705.688,-46.0288 705.688,-46.0288"/>
</g>
<!-- Interest -->
<g id="node9" class="node"><title>Interest</title>
<ellipse fill="none" stroke="black" cx="988.688" cy="-91" rx="36.7489" ry="18"/>
<text text-anchor="middle" x="988.688" y="-86.8" font-family="Times,serif" font-size="14.00">Interest</text>
</g>
<!-- Issue -->
<g id="node10" class="node"><title>Issue</title>
<ellipse fill="none" stroke="black" cx="540.688" cy="-91" rx="28.0651" ry="18"/>
<text text-anchor="middle" x="540.688" y="-86.8" font-family="Times,serif" font-size="14.00">Issue</text>
</g>
<!-- JsonWebToken -->
<g id="node11" class="node"><title>JsonWebToken</title>
<ellipse fill="none" stroke="black" cx="517.688" cy="-341.5" rx="63.5968" ry="18"/>
<text text-anchor="middle" x="517.688" y="-337.3" font-family="Times,serif" font-size="14.00">JsonWebToken</text>
</g>
<!-- Provider -->
<g id="node14" class="node"><title>Provider</title>
<ellipse fill="none" stroke="black" cx="860.688" cy="-177" rx="40.6248" ry="18"/>
<text text-anchor="middle" x="860.688" y="-172.8" font-family="Times,serif" font-size="14.00">Provider</text>
</g>
<!-- Provider&#45;&gt;Identity -->
<g id="edge7" class="edge"><title>Provider&#45;&gt;Identity</title>
<path fill="none" stroke="#6c69cc" d="M828.618,-158.62C802.318,-144.367 765.229,-124.267 738.68,-109.88"/>
<ellipse fill="none" stroke="#6c69cc" cx="832.268" cy="-160.598" rx="4.00002" ry="4.00002"/>
<polygon fill="#6c69cc" stroke="#6c69cc" points="738.556,-109.813 731.908,-101.092 734.16,-107.43 729.764,-105.048 729.764,-105.048 729.764,-105.048 734.16,-107.43 727.62,-109.004 738.556,-109.813 738.556,-109.813"/>
</g>
<!-- Result -->
<g id="node15" class="node"><title>Result</title>
<ellipse fill="none" stroke="black" cx="346.688" cy="-91" rx="32.9168" ry="18"/>
<text text-anchor="middle" x="346.688" y="-86.8" font-family="Times,serif" font-size="14.00">Result</text>
</g>
<!-- Role -->
<g id="node16" class="node"><title>Role</title>
<ellipse fill="none" stroke="black" cx="326.688" cy="-341.5" rx="27" ry="18"/>
<text text-anchor="middle" x="326.688" y="-337.3" font-family="Times,serif" font-size="14.00">Role</text>
</g>
<!-- Role&#45;&gt;Capability -->
<g id="edge9" class="edge"><title>Role&#45;&gt;Capability</title>
<path fill="none" stroke="#6c3576" d="M306.939,-320.104C301.776,-315.031 296.13,-309.702 290.688,-305 270.039,-287.159 259.309,-288.837 241.688,-268 202.299,-221.425 173.815,-154.926 160.028,-118.453"/>
<ellipse fill="none" stroke="#6c3576" cx="309.904" cy="-323.063" rx="4.00002" ry="4.00002"/>
<polygon fill="#6c3576" stroke="#6c3576" points="160.002,-118.382 160.753,-107.442 158.267,-113.693 156.532,-109.003 156.532,-109.003 156.532,-109.003 158.267,-113.693 152.312,-110.565 160.002,-118.382 160.002,-118.382"/>
</g>
<!-- Role&#45;&gt;Group -->
<g id="edge11" class="edge"><title>Role&#45;&gt;Group</title>
<path fill="none" stroke="#a7869a" d="M314.306,-314.729C308.558,-302.764 301.742,-288.578 296.002,-276.631"/>
<polygon fill="#a7869a" stroke="#a7869a" points="314.47,-315.071 314.745,-326.033 316.636,-319.577 318.801,-324.084 318.801,-324.084 318.801,-324.084 316.636,-319.577 322.857,-322.136 314.47,-315.071 314.47,-315.071"/>
<polygon fill="#a7869a" stroke="#a7869a" points="296.001,-276.628 295.726,-265.666 293.836,-272.122 291.67,-267.615 291.67,-267.615 291.67,-267.615 293.836,-272.122 287.614,-269.563 296.001,-276.628 296.001,-276.628"/>
</g>
<!-- Role&#45;&gt;Interest -->
<g id="edge8" class="edge"><title>Role&#45;&gt;Interest</title>
<path fill="none" stroke="#cd12e5" d="M344.014,-319.405C349.462,-313.966 355.856,-308.629 362.688,-305 582.076,-188.473 700.267,-327.033 910.688,-195 940.545,-176.266 963.137,-141.722 976.133,-117.836"/>
<ellipse fill="none" stroke="#cd12e5" cx="341.237" cy="-322.358" rx="4.00002" ry="4.00002"/>
<polygon fill="#cd12e5" stroke="#cd12e5" points="976.15,-117.804 984.781,-111.04 978.473,-113.376 980.796,-108.949 980.796,-108.949 980.796,-108.949 978.473,-113.376 976.811,-106.858 976.15,-117.804 976.15,-117.804"/>
</g>
<!-- Role&#45;&gt;User -->
<g id="edge10" class="edge"><title>Role&#45;&gt;User</title>
<path fill="none" stroke="#0bf219" d="M338.229,-314.809C351.835,-284.522 374.321,-234.467 387.994,-204.032"/>
<polygon fill="#0bf219" stroke="#0bf219" points="338.187,-314.903 329.984,-322.18 336.138,-319.463 334.089,-324.024 334.089,-324.024 334.089,-324.024 336.138,-319.463 338.194,-325.868 338.187,-314.903 338.187,-314.903"/>
<polygon fill="#0bf219" stroke="#0bf219" points="388.169,-203.641 396.372,-196.363 390.218,-199.08 392.267,-194.519 392.267,-194.519 392.267,-194.519 390.218,-199.08 388.162,-192.675 388.169,-203.641 388.169,-203.641"/>
</g>
<!-- SnomedctConcept -->
<g id="node18" class="node"><title>SnomedctConcept</title>
<ellipse fill="none" stroke="black" cx="654.688" cy="-177" rx="74.8948" ry="18"/>
<text text-anchor="middle" x="654.688" y="-172.8" font-family="Times,serif" font-size="14.00">SnomedctConcept</text>
</g>
<!-- SnomedctConcept&#45;&gt;Focus -->
<g id="edge14" class="edge"><title>SnomedctConcept&#45;&gt;Focus</title>
<path fill="none" stroke="#79ee0c" d="M644.111,-151.321C639.607,-140.811 634.35,-128.546 629.79,-117.905"/>
<ellipse fill="none" stroke="#79ee0c" cx="645.827" cy="-155.325" rx="4.00001" ry="4.00001"/>
<polygon fill="#79ee0c" stroke="#79ee0c" points="629.778,-117.878 629.975,-106.914 627.809,-113.282 625.839,-108.687 625.839,-108.687 625.839,-108.687 627.809,-113.282 621.703,-110.459 629.778,-117.878 629.778,-117.878"/>
</g>
<!-- SnomedctConcept&#45;&gt;Interest -->
<g id="edge12" class="edge"><title>SnomedctConcept&#45;&gt;Interest</title>
<path fill="none" stroke="#a48d78" d="M719.61,-163.533C778.614,-151.594 867.783,-132.024 943.688,-109 946.295,-108.209 948.969,-107.344 951.649,-106.436"/>
<ellipse fill="none" stroke="#a48d78" cx="715.41" cy="-164.378" rx="4.00001" ry="4.00001"/>
<polygon fill="#a48d78" stroke="#a48d78" points="951.858,-106.362 962.787,-107.258 956.57,-104.689 961.282,-103.017 961.282,-103.017 961.282,-103.017 956.57,-104.689 959.777,-98.7764 951.858,-106.362 951.858,-106.362"/>
</g>
<!-- SnomedctConcept&#45;&gt;Issue -->
<g id="edge13" class="edge"><title>SnomedctConcept&#45;&gt;Issue</title>
<path fill="none" stroke="#049889" d="M625.809,-154.721C607.562,-141.276 584.185,-124.05 566.547,-111.054"/>
<ellipse fill="none" stroke="#049889" cx="629.217" cy="-157.232" rx="4.00002" ry="4.00002"/>
<polygon fill="#049889" stroke="#049889" points="566.448,-110.981 561.067,-101.427 562.423,-108.015 558.398,-105.049 558.398,-105.049 558.398,-105.049 562.423,-108.015 555.728,-108.672 566.448,-110.981 566.448,-110.981"/>
</g>
<!-- SnomedctDescription -->
<g id="node19" class="node"><title>SnomedctDescription</title>
<ellipse fill="none" stroke="black" cx="847.688" cy="-91" rx="86.9722" ry="18"/>
<text text-anchor="middle" x="847.688" y="-86.8" font-family="Times,serif" font-size="14.00">SnomedctDescription</text>
</g>
<!-- SnomedctConcept&#45;&gt;SnomedctDescription -->
<g id="edge15" class="edge"><title>SnomedctConcept&#45;&gt;SnomedctDescription</title>
<path fill="none" stroke="#070887" d="M696.773,-157.683C728.05,-144.071 770.655,-125.527 802.621,-111.614"/>
<ellipse fill="none" stroke="#070887" cx="692.86" cy="-159.386" rx="4.00002" ry="4.00002"/>
<polygon fill="#070887" stroke="#070887" points="803.007,-111.447 813.972,-111.582 807.592,-109.451 812.176,-107.456 812.176,-107.456 812.176,-107.456 807.592,-109.451 810.38,-103.33 803.007,-111.447 803.007,-111.447"/>
</g>
<!-- User&#45;&gt;Capability -->
<g id="edge17" class="edge"><title>User&#45;&gt;Capability</title>
<path fill="none" stroke="#6a8378" d="M368.158,-166.114C346.354,-159.219 316.7,-149.727 290.688,-141 257.963,-130.021 221.127,-117.106 193.456,-107.292"/>
<ellipse fill="none" stroke="#6a8378" cx="372" cy="-167.327" rx="4.00001" ry="4.00001"/>
<polygon fill="#6a8378" stroke="#6a8378" points="193.123,-107.174 185.207,-99.5857 188.412,-105.5 183.7,-103.826 183.7,-103.826 183.7,-103.826 188.412,-105.5 182.194,-108.066 193.123,-107.174 193.123,-107.174"/>
</g>
<!-- User&#45;&gt;Focus -->
<g id="edge22" class="edge"><title>User&#45;&gt;Focus</title>
<path fill="none" stroke="#ab85f2" d="M430.457,-164.769C466.037,-151.702 526.303,-129.317 577.688,-109 579.925,-108.115 582.226,-107.194 584.542,-106.257"/>
<ellipse fill="none" stroke="#ab85f2" cx="426.578" cy="-166.192" rx="4.00001" ry="4.00001"/>
<polygon fill="#ab85f2" stroke="#ab85f2" points="584.769,-106.165 595.728,-106.546 589.397,-104.273 594.025,-102.381 594.025,-102.381 594.025,-102.381 589.397,-104.273 592.322,-98.2153 584.769,-106.165 584.769,-106.165"/>
</g>
<!-- User&#45;&gt;Identity -->
<g id="edge18" class="edge"><title>User&#45;&gt;Identity</title>
<path fill="none" stroke="#cf48ec" d="M432.733,-168.503C482.236,-157.036 578.411,-133.841 658.688,-109 661.579,-108.105 664.554,-107.139 667.538,-106.137"/>
<ellipse fill="none" stroke="#cf48ec" cx="428.808" cy="-169.408" rx="4.00001" ry="4.00001"/>
<polygon fill="#cf48ec" stroke="#cf48ec" points="667.55,-106.133 678.472,-107.112 672.275,-104.496 676.999,-102.86 676.999,-102.86 676.999,-102.86 672.275,-104.496 675.527,-98.6078 667.55,-106.133 667.55,-106.133"/>
</g>
<!-- User&#45;&gt;Issue -->
<g id="edge19" class="edge"><title>User&#45;&gt;Issue</title>
<path fill="none" stroke="#dc98f3" d="M426.286,-160.154C450.772,-145.567 486.994,-123.988 512.093,-109.035"/>
<ellipse fill="none" stroke="#dc98f3" cx="422.73" cy="-162.273" rx="4.00002" ry="4.00002"/>
<polygon fill="#dc98f3" stroke="#dc98f3" points="512.203,-108.97 523.097,-107.717 516.499,-106.41 520.794,-103.851 520.794,-103.851 520.794,-103.851 516.499,-106.41 518.491,-99.9855 512.203,-108.97 512.203,-108.97"/>
</g>
<!-- User&#45;&gt;Member -->
<g id="edge16" class="edge"><title>User&#45;&gt;Member</title>
<path fill="none" stroke="#67be46" d="M366.727,-167.1C348.323,-161.281 325.459,-152.594 307.032,-141 296.062,-134.098 285.439,-124.595 276.729,-115.794"/>
<ellipse fill="none" stroke="#67be46" cx="371.011" cy="-168.406" rx="4.00001" ry="4.00001"/>
<polygon fill="#67be46" stroke="#67be46" points="276.507,-115.561 272.864,-105.218 273.057,-111.942 269.607,-108.323 269.607,-108.323 269.607,-108.323 273.057,-111.942 266.35,-111.429 276.507,-115.561 276.507,-115.561"/>
<text text-anchor="middle" x="344.015" y="-129.8" font-family="Times,serif" font-size="14.00">memberships</text>
</g>
<!-- User&#45;&gt;Participant -->
<g id="edge21" class="edge"><title>User&#45;&gt;Participant</title>
<path fill="none" stroke="#f24b8f" d="M412.573,-152.47C418.529,-141.594 425.615,-128.654 431.701,-117.541"/>
<ellipse fill="none" stroke="#f24b8f" cx="410.478" cy="-156.296" rx="4.00002" ry="4.00002"/>
<polygon fill="#f24b8f" stroke="#f24b8f" points="431.728,-117.492 440.478,-110.883 434.129,-113.107 436.531,-108.721 436.531,-108.721 436.531,-108.721 434.129,-113.107 432.584,-106.56 431.728,-117.492 431.728,-117.492"/>
</g>
<!-- User&#45;&gt;Result -->
<g id="edge20" class="edge"><title>User&#45;&gt;Result</title>
<path fill="none" stroke="#bc3de2" d="M395.329,-150.691C393.221,-142.711 390.144,-134.126 385.688,-127 382.474,-121.861 378.291,-117.026 373.862,-112.685"/>
<ellipse fill="none" stroke="#bc3de2" cx="396.285" cy="-154.805" rx="4.00001" ry="4.00001"/>
<polygon fill="#bc3de2" stroke="#bc3de2" points="373.734,-112.57 369.313,-102.535 370.018,-109.225 366.302,-105.88 366.302,-105.88 366.302,-105.88 370.018,-109.225 363.291,-109.224 373.734,-112.57 373.734,-112.57"/>
</g>
</g>
</svg>
