<?xml version="1.0" encoding="UTF-8" standalone="no"?>
<!DOCTYPE svg PUBLIC "-//W3C//DTD SVG 1.1//EN"
 "http://www.w3.org/Graphics/SVG/1.1/DTD/svg11.dtd">
<!-- Generated by graphviz version 2.40.1 (20161225.0304)
 -->
<!-- Title: models_diagram Pages: 1 -->
<svg width="800pt" height="532pt"
 viewBox="0.00 0.00 800.42 532.00" xmlns="http://www.w3.org/2000/svg" xmlns:xlink="http://www.w3.org/1999/xlink">
<g id="graph0" class="graph" transform="scale(1 1) rotate(0) translate(4 528)">
<title>models_diagram</title>
<polygon fill="transparent" stroke="transparent" points="-4,4 -4,-528 796.4221,-528 796.4221,4 -4,4"/>
<!-- _diagram_info -->
<g id="node1" class="node">
<title>_diagram_info</title>
<text text-anchor="start" x="8" y="-509.6" font-family="Times,serif" font-size="13.00" fill="#000000">Models diagram</text>
<text text-anchor="start" x="8" y="-496.6" font-family="Times,serif" font-size="13.00" fill="#000000">Date: May 24 2018 &#45; 17:32</text>
<text text-anchor="start" x="8" y="-483.6" font-family="Times,serif" font-size="13.00" fill="#000000">Migration version: 20180525003031</text>
<text text-anchor="start" x="8" y="-470.6" font-family="Times,serif" font-size="13.00" fill="#000000">Generated by RailRoady 1.5.3</text>
<text text-anchor="start" x="8" y="-457.6" font-family="Times,serif" font-size="13.00" fill="#000000">http://railroady.prestonlee.com</text>
</g>
<!-- Identity -->
<g id="node2" class="node">
<title>Identity</title>
<ellipse fill="none" stroke="#000000" cx="400.6877" cy="-237" rx="37.7266" ry="18"/>
<text text-anchor="middle" x="400.6877" y="-232.8" font-family="Times,serif" font-size="14.00" fill="#000000">Identity</text>
</g>
<!-- JsonWebToken -->
<g id="node6" class="node">
<title>JsonWebToken</title>
<ellipse fill="none" stroke="#000000" cx="282.6877" cy="-164" rx="63.5968" ry="18"/>
<text text-anchor="middle" x="282.6877" y="-159.8" font-family="Times,serif" font-size="14.00" fill="#000000">JsonWebToken</text>
</g>
<!-- Identity&#45;&gt;JsonWebToken -->
<g id="edge2" class="edge">
<title>Identity&#45;&gt;JsonWebToken</title>
<path fill="none" stroke="#3f7ec9" d="M370.4445,-218.2902C354.5287,-208.444 334.9171,-196.3114 318.273,-186.0146"/>
<ellipse fill="none" stroke="#3f7ec9" cx="374.2544" cy="-220.6471" rx="4" ry="4"/>
<polygon fill="#3f7ec9" stroke="#3f7ec9" points="317.8781,-185.7704 311.7414,-176.6824 313.626,-183.1398 309.3739,-180.5092 309.3739,-180.5092 309.3739,-180.5092 313.626,-183.1398 307.0064,-184.3361 317.8781,-185.7704 317.8781,-185.7704"/>
</g>
<!-- Session -->
<g id="node15" class="node">
<title>Session</title>
<ellipse fill="none" stroke="#000000" cx="401.6877" cy="-164" rx="37.2681" ry="18"/>
<text text-anchor="middle" x="401.6877" y="-159.8" font-family="Times,serif" font-size="14.00" fill="#000000">Session</text>
</g>
<!-- Identity&#45;&gt;Session -->
<g id="edge1" class="edge">
<title>Identity&#45;&gt;Session</title>
<path fill="none" stroke="#449410" d="M401.0452,-210.9079C401.1269,-204.9427 401.2141,-198.5729 401.2972,-192.512"/>
<ellipse fill="none" stroke="#449410" cx="400.9898" cy="-214.9554" rx="4" ry="4"/>
<polygon fill="#449410" stroke="#449410" points="401.3029,-192.0894 405.9395,-182.152 401.3714,-187.0899 401.4399,-182.0904 401.4399,-182.0904 401.4399,-182.0904 401.3714,-187.0899 396.9404,-182.0287 401.3029,-192.0894 401.3029,-192.0894"/>
</g>
<!-- Group -->
<g id="node3" class="node">
<title>Group</title>
<ellipse fill="none" stroke="#000000" cx="252.6877" cy="-396" rx="32.9081" ry="18"/>
<text text-anchor="middle" x="252.6877" y="-391.8" font-family="Times,serif" font-size="14.00" fill="#000000">Group</text>
</g>
<!-- Capability -->
<g id="node4" class="node">
<title>Capability</title>
<ellipse fill="none" stroke="#000000" cx="199.6877" cy="-237" rx="46.8977" ry="18"/>
<text text-anchor="middle" x="199.6877" y="-232.8" font-family="Times,serif" font-size="14.00" fill="#000000">Capability</text>
</g>
<!-- Group&#45;&gt;Capability -->
<g id="edge5" class="edge">
<title>Group&#45;&gt;Capability</title>
<path fill="none" stroke="#9c7c06" d="M244.1446,-370.3705C234.5138,-341.4781 218.908,-294.6609 208.9798,-264.8762"/>
<ellipse fill="none" stroke="#9c7c06" cx="245.4461" cy="-374.275" rx="4" ry="4"/>
<polygon fill="#9c7c06" stroke="#9c7c06" points="208.8863,-264.5955 209.993,-253.6856 207.3051,-259.8521 205.724,-255.1087 205.724,-255.1087 205.724,-255.1087 207.3051,-259.8521 201.4549,-256.5317 208.8863,-264.5955 208.8863,-264.5955"/>
</g>
<!-- Member -->
<g id="node5" class="node">
<title>Member</title>
<ellipse fill="none" stroke="#000000" cx="304.6877" cy="-237" rx="40.1317" ry="18"/>
<text text-anchor="middle" x="304.6877" y="-232.8" font-family="Times,serif" font-size="14.00" fill="#000000">Member</text>
</g>
<!-- Group&#45;&gt;Member -->
<g id="edge3" class="edge">
<title>Group&#45;&gt;Member</title>
<path fill="none" stroke="#32445a" d="M256.3862,-369.9002C259.4202,-351.4574 264.4111,-326.326 271.6877,-305 276.4693,-290.9866 283.4468,-276.1158 289.7555,-263.8659"/>
<ellipse fill="none" stroke="#32445a" cx="255.7525" cy="-373.9146" rx="4" ry="4"/>
<polygon fill="#32445a" stroke="#32445a" points="289.9432,-263.5107 298.5952,-256.7732 292.2801,-259.0904 294.6169,-254.67 294.6169,-254.67 294.6169,-254.67 292.2801,-259.0904 290.6386,-252.5669 289.9432,-263.5107 289.9432,-263.5107"/>
</g>
<!-- Person -->
<g id="node10" class="node">
<title>Person</title>
<ellipse fill="none" stroke="#000000" cx="314.6877" cy="-323" rx="34.3614" ry="18"/>
<text text-anchor="middle" x="314.6877" y="-318.8" font-family="Times,serif" font-size="14.00" fill="#000000">Person</text>
</g>
<!-- Group&#45;&gt;Person -->
<g id="edge4" class="edge">
<title>Group&#45;&gt;Person</title>
<path fill="none" stroke="#dc07ab" d="M273.3131,-371.7153C279.912,-363.9456 287.2199,-355.3411 293.8349,-347.5525"/>
<polygon fill="#dc07ab" stroke="#dc07ab" points="273.23,-371.8132 263.3266,-376.5221 269.9932,-375.6242 266.7565,-379.4352 266.7565,-379.4352 266.7565,-379.4352 269.9932,-375.6242 270.1864,-382.3482 273.23,-371.8132 273.23,-371.8132"/>
<polygon fill="#dc07ab" stroke="#dc07ab" points="294.2012,-347.1213 304.1046,-342.4123 297.4379,-343.3103 300.6747,-339.4993 300.6747,-339.4993 300.6747,-339.4993 297.4379,-343.3103 297.2448,-336.5862 294.2012,-347.1213 294.2012,-347.1213"/>
</g>
<!-- Event -->
<g id="node11" class="node">
<title>Event</title>
<ellipse fill="none" stroke="#000000" cx="466.6877" cy="-91" rx="30.9706" ry="18"/>
<text text-anchor="middle" x="466.6877" y="-86.8" font-family="Times,serif" font-size="14.00" fill="#000000">Event</text>
</g>
<!-- JsonWebToken&#45;&gt;Event -->
<g id="edge6" class="edge">
<title>JsonWebToken&#45;&gt;Event</title>
<path fill="none" stroke="#8a5c92" d="M327.7679,-146.1149C359.7571,-133.4236 402.0806,-116.6322 431.5704,-104.9324"/>
<ellipse fill="none" stroke="#8a5c92" cx="323.641" cy="-147.7522" rx="4" ry="4"/>
<polygon fill="#8a5c92" stroke="#8a5c92" points="431.7507,-104.861 442.7054,-105.356 436.3983,-103.017 441.0459,-101.1731 441.0459,-101.1731 441.0459,-101.1731 436.3983,-103.017 439.3864,-96.9903 431.7507,-104.861 431.7507,-104.861"/>
</g>
<!-- Role -->
<g id="node7" class="node">
<title>Role</title>
<ellipse fill="none" stroke="#000000" cx="252.6877" cy="-487.5" rx="27" ry="18"/>
<text text-anchor="middle" x="252.6877" y="-483.3" font-family="Times,serif" font-size="14.00" fill="#000000">Role</text>
</g>
<!-- Role&#45;&gt;Group -->
<g id="edge9" class="edge">
<title>Role&#45;&gt;Group</title>
<path fill="none" stroke="#1a0bba" d="M252.6877,-459.2998C252.6877,-448.1245 252.6877,-435.3026 252.6877,-424.1338"/>
<polygon fill="#1a0bba" stroke="#1a0bba" points="252.6878,-459.4225 248.1877,-469.4225 252.6878,-464.4225 252.6877,-469.4225 252.6877,-469.4225 252.6877,-469.4225 252.6878,-464.4225 257.1877,-469.4226 252.6878,-459.4225 252.6878,-459.4225"/>
<polygon fill="#1a0bba" stroke="#1a0bba" points="252.6878,-424.0399 257.1877,-414.0399 252.6878,-419.0399 252.6877,-414.0399 252.6877,-414.0399 252.6877,-414.0399 252.6878,-419.0399 248.1877,-414.0399 252.6878,-424.0399 252.6878,-424.0399"/>
</g>
<!-- Role&#45;&gt;Capability -->
<g id="edge7" class="edge">
<title>Role&#45;&gt;Capability</title>
<path fill="none" stroke="#e86b1e" d="M235.856,-464.4575C226.6742,-450.5664 216.1027,-432.1057 210.6877,-414 195.4975,-363.209 195.765,-300.6679 197.5683,-265.161"/>
<ellipse fill="none" stroke="#e86b1e" cx="238.2464" cy="-467.9717" rx="4" ry="4"/>
<polygon fill="#e86b1e" stroke="#e86b1e" points="197.5756,-265.0352 202.6541,-255.3162 197.8687,-260.0438 198.1619,-255.0524 198.1619,-255.0524 198.1619,-255.0524 197.8687,-260.0438 193.6696,-254.7886 197.5756,-265.0352 197.5756,-265.0352"/>
</g>
<!-- Role&#45;&gt;Person -->
<g id="edge8" class="edge">
<title>Role&#45;&gt;Person</title>
<path fill="none" stroke="#9f4493" d="M269.4738,-462.5473C278.0988,-448.7435 288.143,-430.9874 294.6877,-414 302.5144,-393.6853 307.6394,-369.5793 310.7403,-351.283"/>
<polygon fill="#9f4493" stroke="#9f4493" points="269.4541,-462.5782 260.2722,-468.5734 266.758,-466.789 264.062,-470.9999 264.062,-470.9999 264.062,-470.9999 266.758,-466.789 267.8517,-473.4264 269.4541,-462.5782 269.4541,-462.5782"/>
<polygon fill="#9f4493" stroke="#9f4493" points="310.7646,-351.1299 316.7813,-341.9621 311.5509,-346.1922 312.3373,-341.2544 312.3373,-341.2544 312.3373,-341.2544 311.5509,-346.1922 307.8933,-340.5467 310.7646,-351.1299 310.7646,-351.1299"/>
</g>
<!-- Client -->
<g id="node8" class="node">
<title>Client</title>
<ellipse fill="none" stroke="#000000" cx="329.6877" cy="-487.5" rx="31.948" ry="18"/>
<text text-anchor="middle" x="329.6877" y="-483.3" font-family="Times,serif" font-size="14.00" fill="#000000">Client</text>
</g>
<!-- Ability -->
<g id="node9" class="node">
<title>Ability</title>
<polygon fill="none" stroke="#000000" points="435.3577,-505.5 380.0178,-505.5 380.0178,-469.5 435.3577,-469.5 435.3577,-505.5"/>
<text text-anchor="middle" x="407.6877" y="-483.3" font-family="Times,serif" font-size="14.00" fill="#000000">Ability</text>
</g>
<!-- Person&#45;&gt;Identity -->
<g id="edge13" class="edge">
<title>Person&#45;&gt;Identity</title>
<path fill="none" stroke="#566ec2" d="M352.6344,-311.0899C365.02,-305.5303 377.8466,-297.7104 386.6877,-287 391.7951,-280.8128 395.0433,-272.8844 397.1078,-265.1733"/>
<ellipse fill="none" stroke="#566ec2" cx="348.7111" cy="-312.7257" rx="4" ry="4"/>
<polygon fill="#566ec2" stroke="#566ec2" points="397.1215,-265.1085 403.5988,-256.2601 398.1591,-260.2174 399.1968,-255.3262 399.1968,-255.3262 399.1968,-255.3262 398.1591,-260.2174 394.7947,-254.3923 397.1215,-265.1085 397.1215,-265.1085"/>
</g>
<!-- Person&#45;&gt;Capability -->
<g id="edge12" class="edge">
<title>Person&#45;&gt;Capability</title>
<path fill="none" stroke="#441691" d="M288.3244,-303.2848C270.8309,-290.2027 247.832,-273.0035 229.6458,-259.4034"/>
<ellipse fill="none" stroke="#441691" cx="291.7152" cy="-305.8205" rx="4" ry="4"/>
<polygon fill="#441691" stroke="#441691" points="229.1581,-259.0388 223.8448,-249.4461 225.154,-256.0443 221.1498,-253.0499 221.1498,-253.0499 221.1498,-253.0499 225.154,-256.0443 218.4548,-256.6536 229.1581,-259.0388 229.1581,-259.0388"/>
</g>
<!-- Person&#45;&gt;Member -->
<g id="edge11" class="edge">
<title>Person&#45;&gt;Member</title>
<path fill="none" stroke="#7a9c5b" d="M311.6393,-296.7834C310.4788,-286.8033 309.152,-275.3925 307.9707,-265.2334"/>
<ellipse fill="none" stroke="#7a9c5b" cx="312.105" cy="-300.7884" rx="4" ry="4"/>
<polygon fill="#7a9c5b" stroke="#7a9c5b" points="307.9605,-265.1452 311.2753,-254.6923 307.383,-260.1786 306.8054,-255.2121 306.8054,-255.2121 306.8054,-255.2121 307.383,-260.1786 302.3355,-255.7319 307.9605,-265.1452 307.9605,-265.1452"/>
<text text-anchor="middle" x="348.0154" y="-275.8" font-family="Times,serif" font-size="14.00" fill="#000000">memberships</text>
</g>
<!-- Person&#45;&gt;Event -->
<g id="edge10" class="edge">
<title>Person&#45;&gt;Event</title>
<path fill="none" stroke="#f8e068" d="M354.9257,-314.8136C386.5596,-305.9883 428.3966,-288.4454 447.6877,-255 472.1112,-212.6567 472.4259,-153.9469 469.9144,-119.4688"/>
<ellipse fill="none" stroke="#f8e068" cx="350.9904" cy="-315.8526" rx="4" ry="4"/>
<polygon fill="#f8e068" stroke="#f8e068" points="469.8861,-119.1405 473.5099,-108.7908 469.4564,-114.159 469.0266,-109.1775 469.0266,-109.1775 469.0266,-109.1775 469.4564,-114.159 464.5432,-109.5643 469.8861,-119.1405 469.8861,-119.1405"/>
</g>
<!-- Event&#45;&gt;Event -->
<g id="edge15" class="edge">
<title>Event&#45;&gt;Event</title>
<path fill="none" stroke="#9b0356" d="M505.7688,-93.0367C511.531,-92.7171 515.4221,-92.0382 515.4221,-91 515.4221,-90.0771 512.3477,-89.4382 507.6174,-89.0831"/>
<ellipse fill="none" stroke="#9b0356" cx="501.6198" cy="-93.145" rx="4" ry="4"/>
<polygon fill="#9b0356" stroke="#9b0356" points="507.6156,-89.0831 497.7708,-84.253 502.6184,-88.9168 497.6211,-88.7505 497.6211,-88.7505 497.6211,-88.7505 502.6184,-88.9168 497.4715,-93.2481 507.6156,-89.0831 507.6156,-89.0831"/>
<text text-anchor="middle" x="550.8015" y="-86.8" font-family="Times,serif" font-size="14.00" fill="#000000">child_events</text>
</g>
<!-- Event&#45;&gt;Event -->
<g id="edge16" class="edge">
<title>Event&#45;&gt;Event</title>
<path fill="none" stroke="#44e69e" d="M505.4599,-94.9176C541.2304,-96.3851 586.1809,-95.0792 586.1809,-91 586.1809,-86.9896 542.7349,-85.6598 507.2787,-87.0104"/>
<ellipse fill="none" stroke="#44e69e" cx="501.0571" cy="-94.7046" rx="4" ry="4"/>
<polygon fill="#44e69e" stroke="#44e69e" points="507.0508,-87.021 496.8513,-82.9937 502.0563,-87.2549 497.0618,-87.4888 497.0618,-87.4888 497.0618,-87.4888 502.0563,-87.2549 497.2723,-91.9838 507.0508,-87.021 507.0508,-87.021"/>
<text text-anchor="middle" x="631.6707" y="-86.8" font-family="Times,serif" font-size="14.00" fill="#000000">previous_events</text>
</g>
<!-- Event&#45;&gt;Event -->
<g id="edge17" class="edge">
<title>Event&#45;&gt;Event</title>
<path fill="none" stroke="#76695c" d="M505.136,-95.6974C567.5067,-99.5473 677.1604,-97.9815 677.1604,-91 677.1604,-84.0898 569.7331,-82.4852 507.0599,-86.1864"/>
<ellipse fill="none" stroke="#76695c" cx="501.026" cy="-95.4178" rx="4" ry="4"/>
<polygon fill="#76695c" stroke="#76695c" points="507.0131,-86.1894 496.7362,-82.3638 502.0242,-86.5216 497.0352,-86.8539 497.0352,-86.8539 497.0352,-86.8539 502.0242,-86.5216 497.3342,-91.3439 507.0131,-86.1894 507.0131,-86.1894"/>
<text text-anchor="middle" x="717.9812" y="-86.8" font-family="Times,serif" font-size="14.00" fill="#000000">scoped_events</text>
</g>
<!-- Objective -->
<g id="node14" class="node">
<title>Objective</title>
<ellipse fill="none" stroke="#000000" cx="466.6877" cy="-18" rx="44.4664" ry="18"/>
<text text-anchor="middle" x="466.6877" y="-13.8" font-family="Times,serif" font-size="14.00" fill="#000000">Objective</text>
</g>
<!-- Event&#45;&gt;Objective -->
<g id="edge14" class="edge">
<title>Event&#45;&gt;Objective</title>
<path fill="none" stroke="#725349" d="M466.6877,-64.9079C466.6877,-58.9427 466.6877,-52.5729 466.6877,-46.512"/>
<ellipse fill="none" stroke="#725349" cx="466.6878" cy="-68.9551" rx="4" ry="4"/>
<polygon fill="#725349" stroke="#725349" points="466.6878,-46.0904 471.1877,-36.0903 466.6878,-41.0904 466.6877,-36.0904 466.6877,-36.0904 466.6877,-36.0904 466.6878,-41.0904 462.1877,-36.0904 466.6878,-46.0904 466.6878,-46.0904"/>
</g>
<!-- IdentityProvider -->
<g id="node12" class="node">
<title>IdentityProvider</title>
<ellipse fill="none" stroke="#000000" cx="491.6877" cy="-323" rx="68.1374" ry="18"/>
<text text-anchor="middle" x="491.6877" y="-318.8" font-family="Times,serif" font-size="14.00" fill="#000000">IdentityProvider</text>
</g>
<!-- IdentityProvider&#45;&gt;Identity -->
<g id="edge18" class="edge">
<title>IdentityProvider&#45;&gt;Identity</title>
<path fill="none" stroke="#337d10" d="M467.3029,-299.955C454.2488,-287.6181 438.215,-272.4653 425.1492,-260.1175"/>
<ellipse fill="none" stroke="#337d10" cx="470.3654" cy="-302.8492" rx="4" ry="4"/>
<polygon fill="#337d10" stroke="#337d10" points="425.1122,-260.0824 420.9351,-249.9433 421.4782,-256.6481 417.8442,-253.2138 417.8442,-253.2138 417.8442,-253.2138 421.4782,-256.6481 414.7534,-256.4844 425.1122,-260.0824 425.1122,-260.0824"/>
</g>
<!-- Place -->
<g id="node13" class="node">
<title>Place</title>
<ellipse fill="none" stroke="#000000" cx="523.6877" cy="-164" rx="29.0172" ry="18"/>
<text text-anchor="middle" x="523.6877" y="-159.8" font-family="Times,serif" font-size="14.00" fill="#000000">Place</text>
</g>
<!-- Place&#45;&gt;Event -->
<g id="edge19" class="edge">
<title>Place&#45;&gt;Event</title>
<path fill="none" stroke="#6357c7" d="M505.6918,-140.9526C499.3971,-132.8909 492.3074,-123.8112 485.916,-115.6256"/>
<ellipse fill="none" stroke="#6357c7" cx="508.2918" cy="-144.2824" rx="4" ry="4"/>
<polygon fill="#6357c7" stroke="#6357c7" points="485.7251,-115.3812 483.1176,-104.7298 482.6479,-111.4402 479.5707,-107.4993 479.5707,-107.4993 479.5707,-107.4993 482.6479,-111.4402 476.0239,-110.2687 485.7251,-115.3812 485.7251,-115.3812"/>
</g>
</g>
</svg>
