<?xml version="1.0" encoding="UTF-8" standalone="no"?>
<!DOCTYPE svg PUBLIC "-//W3C//DTD SVG 1.1//EN"
 "http://www.w3.org/Graphics/SVG/1.1/DTD/svg11.dtd">
<!-- Generated by graphviz version 2.38.0 (20140413.2041)
 -->
<!-- Title: models_diagram Pages: 1 -->
<svg width="1820pt" height="509pt"
 viewBox="0.00 0.00 1819.55 509.00" xmlns="http://www.w3.org/2000/svg" xmlns:xlink="http://www.w3.org/1999/xlink">
<g id="graph0" class="graph" transform="scale(1 1) rotate(0) translate(4 505)">
<title>models_diagram</title>
<polygon fill="none" stroke="none" points="-4,4 -4,-505 1815.55,-505 1815.55,4 -4,4"/>
<!-- _diagram_info -->
<g id="node1" class="node"><title>_diagram_info</title>
<text text-anchor="start" x="8" y="-437.6" font-family="Times,serif" font-size="13.00">Models diagram</text>
<text text-anchor="start" x="8" y="-424.6" font-family="Times,serif" font-size="13.00">Date: Apr 26 2016 &#45; 18:46</text>
<text text-anchor="start" x="8" y="-411.6" font-family="Times,serif" font-size="13.00">Migration version: 20160427014458</text>
<text text-anchor="start" x="8" y="-398.6" font-family="Times,serif" font-size="13.00">Generated by RailRoady 1.4.2</text>
<text text-anchor="start" x="8" y="-385.6" font-family="Times,serif" font-size="13.00">http://railroady.prestonlee.com</text>
</g>
<!-- Context -->
<g id="node2" class="node"><title>Context</title>
<path fill="none" stroke="black" d="M237.825,-365.5C237.825,-365.5 461.55,-365.5 461.55,-365.5 467.55,-365.5 473.55,-371.5 473.55,-377.5 473.55,-377.5 473.55,-453.5 473.55,-453.5 473.55,-459.5 467.55,-465.5 461.55,-465.5 461.55,-465.5 237.825,-465.5 237.825,-465.5 231.825,-465.5 225.825,-459.5 225.825,-453.5 225.825,-453.5 225.825,-377.5 225.825,-377.5 225.825,-371.5 231.825,-365.5 237.825,-365.5"/>
<text text-anchor="middle" x="349.688" y="-450.3" font-family="Times,serif" font-size="14.00">Context</text>
<polyline fill="none" stroke="black" points="225.825,-443.5 473.55,-443.5 "/>
<text text-anchor="start" x="233.825" y="-428.3" font-family="Times,serif" font-size="14.00">id :uuid</text>
<text text-anchor="start" x="233.825" y="-414.3" font-family="Times,serif" font-size="14.00">name :character varying</text>
<text text-anchor="start" x="233.825" y="-400.3" font-family="Times,serif" font-size="14.00">scope :character varying</text>
<text text-anchor="start" x="233.825" y="-386.3" font-family="Times,serif" font-size="14.00">created_at :timestamp without time zone</text>
<text text-anchor="start" x="233.825" y="-372.3" font-family="Times,serif" font-size="14.00">updated_at :timestamp without time zone</text>
</g>
<!-- Encounter -->
<g id="node3" class="node"><title>Encounter</title>
<path fill="none" stroke="black" d="M1575.83,-137.5C1575.83,-137.5 1799.55,-137.5 1799.55,-137.5 1805.55,-137.5 1811.55,-143.5 1811.55,-149.5 1811.55,-149.5 1811.55,-281.5 1811.55,-281.5 1811.55,-287.5 1805.55,-293.5 1799.55,-293.5 1799.55,-293.5 1575.83,-293.5 1575.83,-293.5 1569.83,-293.5 1563.83,-287.5 1563.83,-281.5 1563.83,-281.5 1563.83,-149.5 1563.83,-149.5 1563.83,-143.5 1569.83,-137.5 1575.83,-137.5"/>
<text text-anchor="middle" x="1687.69" y="-278.3" font-family="Times,serif" font-size="14.00">Encounter</text>
<polyline fill="none" stroke="black" points="1563.83,-271.5 1811.55,-271.5 "/>
<text text-anchor="start" x="1571.83" y="-256.3" font-family="Times,serif" font-size="14.00">updated_at :timestamp without time zone</text>
<text text-anchor="start" x="1571.83" y="-242.3" font-family="Times,serif" font-size="14.00">external_id :character varying</text>
<text text-anchor="start" x="1571.83" y="-228.3" font-family="Times,serif" font-size="14.00">user_id :uuid</text>
<text text-anchor="start" x="1571.83" y="-214.3" font-family="Times,serif" font-size="14.00">issue_id :uuid</text>
<text text-anchor="start" x="1571.83" y="-200.3" font-family="Times,serif" font-size="14.00">context_id :uuid</text>
<text text-anchor="start" x="1571.83" y="-186.3" font-family="Times,serif" font-size="14.00">started_at :timestamp without time zone</text>
<text text-anchor="start" x="1571.83" y="-172.3" font-family="Times,serif" font-size="14.00">ended_at :timestamp without time zone</text>
<text text-anchor="start" x="1571.83" y="-158.3" font-family="Times,serif" font-size="14.00">created_at :timestamp without time zone</text>
<text text-anchor="start" x="1571.83" y="-144.3" font-family="Times,serif" font-size="14.00">id :uuid</text>
</g>
<!-- Participant -->
<g id="node7" class="node"><title>Participant</title>
<path fill="none" stroke="black" d="M1575.83,-0.5C1575.83,-0.5 1799.55,-0.5 1799.55,-0.5 1805.55,-0.5 1811.55,-6.5 1811.55,-12.5 1811.55,-12.5 1811.55,-88.5 1811.55,-88.5 1811.55,-94.5 1805.55,-100.5 1799.55,-100.5 1799.55,-100.5 1575.83,-100.5 1575.83,-100.5 1569.83,-100.5 1563.83,-94.5 1563.83,-88.5 1563.83,-88.5 1563.83,-12.5 1563.83,-12.5 1563.83,-6.5 1569.83,-0.5 1575.83,-0.5"/>
<text text-anchor="middle" x="1687.69" y="-85.3" font-family="Times,serif" font-size="14.00">Participant</text>
<polyline fill="none" stroke="black" points="1563.83,-78.5 1811.55,-78.5 "/>
<text text-anchor="start" x="1571.83" y="-63.3" font-family="Times,serif" font-size="14.00">id :uuid</text>
<text text-anchor="start" x="1571.83" y="-49.3" font-family="Times,serif" font-size="14.00">encounter_id :uuid</text>
<text text-anchor="start" x="1571.83" y="-35.3" font-family="Times,serif" font-size="14.00">user_id :uuid</text>
<text text-anchor="start" x="1571.83" y="-21.3" font-family="Times,serif" font-size="14.00">created_at :timestamp without time zone</text>
<text text-anchor="start" x="1571.83" y="-7.3" font-family="Times,serif" font-size="14.00">updated_at :timestamp without time zone</text>
</g>
<!-- Encounter&#45;&gt;Participant -->
<g id="edge1" class="edge"><title>Encounter&#45;&gt;Participant</title>
<path fill="none" stroke="#50f7d0" d="M1687.69,-129.081C1687.69,-122.973 1687.69,-116.894 1687.69,-110.982"/>
<ellipse fill="none" stroke="#50f7d0" cx="1687.69" cy="-133.296" rx="4" ry="4"/>
<polygon fill="#50f7d0" stroke="#50f7d0" points="1687.69,-110.55 1692.19,-100.55 1687.69,-105.55 1687.69,-100.55 1687.69,-100.55 1687.69,-100.55 1687.69,-105.55 1683.19,-100.55 1687.69,-110.55 1687.69,-110.55"/>
</g>
<!-- Identity -->
<g id="node4" class="node"><title>Identity</title>
<path fill="none" stroke="black" d="M503.825,-151.5C503.825,-151.5 727.55,-151.5 727.55,-151.5 733.55,-151.5 739.55,-157.5 739.55,-163.5 739.55,-163.5 739.55,-267.5 739.55,-267.5 739.55,-273.5 733.55,-279.5 727.55,-279.5 727.55,-279.5 503.825,-279.5 503.825,-279.5 497.825,-279.5 491.825,-273.5 491.825,-267.5 491.825,-267.5 491.825,-163.5 491.825,-163.5 491.825,-157.5 497.825,-151.5 503.825,-151.5"/>
<text text-anchor="middle" x="615.688" y="-264.3" font-family="Times,serif" font-size="14.00">Identity</text>
<polyline fill="none" stroke="black" points="491.825,-257.5 739.55,-257.5 "/>
<text text-anchor="start" x="499.825" y="-242.3" font-family="Times,serif" font-size="14.00">external_id :character varying</text>
<text text-anchor="start" x="499.825" y="-228.3" font-family="Times,serif" font-size="14.00">user_id :uuid</text>
<text text-anchor="start" x="499.825" y="-214.3" font-family="Times,serif" font-size="14.00">provider_id :uuid</text>
<text text-anchor="start" x="499.825" y="-200.3" font-family="Times,serif" font-size="14.00">id :uuid</text>
<text text-anchor="start" x="499.825" y="-186.3" font-family="Times,serif" font-size="14.00">email :character varying</text>
<text text-anchor="start" x="499.825" y="-172.3" font-family="Times,serif" font-size="14.00">created_at :timestamp without time zone</text>
<text text-anchor="start" x="499.825" y="-158.3" font-family="Times,serif" font-size="14.00">updated_at :timestamp without time zone</text>
</g>
<!-- Session -->
<g id="node10" class="node"><title>Session</title>
<path fill="none" stroke="black" d="M503.825,-0.5C503.825,-0.5 727.55,-0.5 727.55,-0.5 733.55,-0.5 739.55,-6.5 739.55,-12.5 739.55,-12.5 739.55,-88.5 739.55,-88.5 739.55,-94.5 733.55,-100.5 727.55,-100.5 727.55,-100.5 503.825,-100.5 503.825,-100.5 497.825,-100.5 491.825,-94.5 491.825,-88.5 491.825,-88.5 491.825,-12.5 491.825,-12.5 491.825,-6.5 497.825,-0.5 503.825,-0.5"/>
<text text-anchor="middle" x="615.688" y="-85.3" font-family="Times,serif" font-size="14.00">Session</text>
<polyline fill="none" stroke="black" points="491.825,-78.5 739.55,-78.5 "/>
<text text-anchor="start" x="499.825" y="-63.3" font-family="Times,serif" font-size="14.00">id :uuid</text>
<text text-anchor="start" x="499.825" y="-49.3" font-family="Times,serif" font-size="14.00">identity_id :uuid</text>
<text text-anchor="start" x="499.825" y="-35.3" font-family="Times,serif" font-size="14.00">expires_at :timestamp without time zone</text>
<text text-anchor="start" x="499.825" y="-21.3" font-family="Times,serif" font-size="14.00">created_at :timestamp without time zone</text>
<text text-anchor="start" x="499.825" y="-7.3" font-family="Times,serif" font-size="14.00">updated_at :timestamp without time zone</text>
</g>
<!-- Identity&#45;&gt;Session -->
<g id="edge2" class="edge"><title>Identity&#45;&gt;Session</title>
<path fill="none" stroke="#5f9c92" d="M615.688,-143.114C615.688,-132.378 615.688,-121.405 615.688,-110.954"/>
<ellipse fill="none" stroke="#5f9c92" cx="615.688" cy="-147.48" rx="4" ry="4"/>
<polygon fill="#5f9c92" stroke="#5f9c92" points="615.688,-110.706 620.188,-100.706 615.688,-105.706 615.688,-100.706 615.688,-100.706 615.688,-100.706 615.688,-105.706 611.188,-100.706 615.688,-110.706 615.688,-110.706"/>
</g>
<!-- Issue -->
<g id="node5" class="node"><title>Issue</title>
<path fill="none" stroke="black" d="M769.825,-158.5C769.825,-158.5 993.55,-158.5 993.55,-158.5 999.55,-158.5 1005.55,-164.5 1005.55,-170.5 1005.55,-170.5 1005.55,-260.5 1005.55,-260.5 1005.55,-266.5 999.55,-272.5 993.55,-272.5 993.55,-272.5 769.825,-272.5 769.825,-272.5 763.825,-272.5 757.825,-266.5 757.825,-260.5 757.825,-260.5 757.825,-170.5 757.825,-170.5 757.825,-164.5 763.825,-158.5 769.825,-158.5"/>
<text text-anchor="middle" x="881.688" y="-257.3" font-family="Times,serif" font-size="14.00">Issue</text>
<polyline fill="none" stroke="black" points="757.825,-250.5 1005.55,-250.5 "/>
<text text-anchor="start" x="765.825" y="-235.3" font-family="Times,serif" font-size="14.00">id :uuid</text>
<text text-anchor="start" x="765.825" y="-221.3" font-family="Times,serif" font-size="14.00">external_id :character varying</text>
<text text-anchor="start" x="765.825" y="-207.3" font-family="Times,serif" font-size="14.00">user_id :uuid</text>
<text text-anchor="start" x="765.825" y="-193.3" font-family="Times,serif" font-size="14.00">problem_id :uuid</text>
<text text-anchor="start" x="765.825" y="-179.3" font-family="Times,serif" font-size="14.00">created_at :timestamp without time zone</text>
<text text-anchor="start" x="765.825" y="-165.3" font-family="Times,serif" font-size="14.00">updated_at :timestamp without time zone</text>
</g>
<!-- Lab -->
<g id="node6" class="node"><title>Lab</title>
<path fill="none" stroke="black" d="M1035.16,-151.5C1035.16,-151.5 1268.21,-151.5 1268.21,-151.5 1274.21,-151.5 1280.21,-157.5 1280.21,-163.5 1280.21,-163.5 1280.21,-267.5 1280.21,-267.5 1280.21,-273.5 1274.21,-279.5 1268.21,-279.5 1268.21,-279.5 1035.16,-279.5 1035.16,-279.5 1029.16,-279.5 1023.16,-273.5 1023.16,-267.5 1023.16,-267.5 1023.16,-163.5 1023.16,-163.5 1023.16,-157.5 1029.16,-151.5 1035.16,-151.5"/>
<text text-anchor="middle" x="1151.69" y="-264.3" font-family="Times,serif" font-size="14.00">Lab</text>
<polyline fill="none" stroke="black" points="1023.16,-257.5 1280.21,-257.5 "/>
<text text-anchor="start" x="1031.16" y="-242.3" font-family="Times,serif" font-size="14.00">ordered_at :timestamp without time zone</text>
<text text-anchor="start" x="1031.16" y="-228.3" font-family="Times,serif" font-size="14.00">external_id :character varying</text>
<text text-anchor="start" x="1031.16" y="-214.3" font-family="Times,serif" font-size="14.00">user_id :uuid</text>
<text text-anchor="start" x="1031.16" y="-200.3" font-family="Times,serif" font-size="14.00">id :uuid</text>
<text text-anchor="start" x="1031.16" y="-186.3" font-family="Times,serif" font-size="14.00">requested_at :timestamp without time zone</text>
<text text-anchor="start" x="1031.16" y="-172.3" font-family="Times,serif" font-size="14.00">created_at :timestamp without time zone</text>
<text text-anchor="start" x="1031.16" y="-158.3" font-family="Times,serif" font-size="14.00">updated_at :timestamp without time zone</text>
</g>
<!-- Problem -->
<g id="node8" class="node"><title>Problem</title>
<path fill="none" stroke="black" d="M1309.83,-165.5C1309.83,-165.5 1533.55,-165.5 1533.55,-165.5 1539.55,-165.5 1545.55,-171.5 1545.55,-177.5 1545.55,-177.5 1545.55,-253.5 1545.55,-253.5 1545.55,-259.5 1539.55,-265.5 1533.55,-265.5 1533.55,-265.5 1309.83,-265.5 1309.83,-265.5 1303.83,-265.5 1297.83,-259.5 1297.83,-253.5 1297.83,-253.5 1297.83,-177.5 1297.83,-177.5 1297.83,-171.5 1303.83,-165.5 1309.83,-165.5"/>
<text text-anchor="middle" x="1421.69" y="-250.3" font-family="Times,serif" font-size="14.00">Problem</text>
<polyline fill="none" stroke="black" points="1297.83,-243.5 1545.55,-243.5 "/>
<text text-anchor="start" x="1305.83" y="-228.3" font-family="Times,serif" font-size="14.00">id :uuid</text>
<text text-anchor="start" x="1305.83" y="-214.3" font-family="Times,serif" font-size="14.00">external_id :character varying</text>
<text text-anchor="start" x="1305.83" y="-200.3" font-family="Times,serif" font-size="14.00">name :character varying</text>
<text text-anchor="start" x="1305.83" y="-186.3" font-family="Times,serif" font-size="14.00">created_at :timestamp without time zone</text>
<text text-anchor="start" x="1305.83" y="-172.3" font-family="Times,serif" font-size="14.00">updated_at :timestamp without time zone</text>
</g>
<!-- Provider -->
<g id="node9" class="node"><title>Provider</title>
<path fill="none" stroke="black" d="M503.825,-330.5C503.825,-330.5 727.55,-330.5 727.55,-330.5 733.55,-330.5 739.55,-336.5 739.55,-342.5 739.55,-342.5 739.55,-488.5 739.55,-488.5 739.55,-494.5 733.55,-500.5 727.55,-500.5 727.55,-500.5 503.825,-500.5 503.825,-500.5 497.825,-500.5 491.825,-494.5 491.825,-488.5 491.825,-488.5 491.825,-342.5 491.825,-342.5 491.825,-336.5 497.825,-330.5 503.825,-330.5"/>
<text text-anchor="middle" x="615.688" y="-485.3" font-family="Times,serif" font-size="14.00">Provider</text>
<polyline fill="none" stroke="black" points="491.825,-478.5 739.55,-478.5 "/>
<text text-anchor="start" x="499.825" y="-463.3" font-family="Times,serif" font-size="14.00">updated_at :timestamp without time zone</text>
<text text-anchor="start" x="499.825" y="-449.3" font-family="Times,serif" font-size="14.00">name :character varying</text>
<text text-anchor="start" x="499.825" y="-435.3" font-family="Times,serif" font-size="14.00">issuer :character varying</text>
<text text-anchor="start" x="499.825" y="-421.3" font-family="Times,serif" font-size="14.00">sso_email_field :character varying</text>
<text text-anchor="start" x="499.825" y="-407.3" font-family="Times,serif" font-size="14.00">client_id :character varying</text>
<text text-anchor="start" x="499.825" y="-393.3" font-family="Times,serif" font-size="14.00">client_secret :character varying</text>
<text text-anchor="start" x="499.825" y="-379.3" font-family="Times,serif" font-size="14.00">configuration :json</text>
<text text-anchor="start" x="499.825" y="-365.3" font-family="Times,serif" font-size="14.00">public_keys :json</text>
<text text-anchor="start" x="499.825" y="-351.3" font-family="Times,serif" font-size="14.00">created_at :timestamp without time zone</text>
<text text-anchor="start" x="499.825" y="-337.3" font-family="Times,serif" font-size="14.00">id :uuid</text>
</g>
<!-- Provider&#45;&gt;Identity -->
<g id="edge3" class="edge"><title>Provider&#45;&gt;Identity</title>
<path fill="none" stroke="#132fc2" d="M615.688,-321.864C615.688,-311.153 615.688,-300.342 615.688,-289.936"/>
<ellipse fill="none" stroke="#132fc2" cx="615.688" cy="-326.243" rx="4" ry="4"/>
<polygon fill="#132fc2" stroke="#132fc2" points="615.688,-289.683 620.188,-279.683 615.688,-284.683 615.688,-279.683 615.688,-279.683 615.688,-279.683 615.688,-284.683 611.188,-279.683 615.688,-289.683 615.688,-289.683"/>
</g>
<!-- User -->
<g id="node11" class="node"><title>User</title>
<path fill="none" stroke="black" d="M1039.83,-351.5C1039.83,-351.5 1263.55,-351.5 1263.55,-351.5 1269.55,-351.5 1275.55,-357.5 1275.55,-363.5 1275.55,-363.5 1275.55,-467.5 1275.55,-467.5 1275.55,-473.5 1269.55,-479.5 1263.55,-479.5 1263.55,-479.5 1039.83,-479.5 1039.83,-479.5 1033.83,-479.5 1027.83,-473.5 1027.83,-467.5 1027.83,-467.5 1027.83,-363.5 1027.83,-363.5 1027.83,-357.5 1033.83,-351.5 1039.83,-351.5"/>
<text text-anchor="middle" x="1151.69" y="-464.3" font-family="Times,serif" font-size="14.00">User</text>
<polyline fill="none" stroke="black" points="1027.83,-457.5 1275.55,-457.5 "/>
<text text-anchor="start" x="1035.83" y="-442.3" font-family="Times,serif" font-size="14.00">email :character varying</text>
<text text-anchor="start" x="1035.83" y="-428.3" font-family="Times,serif" font-size="14.00">external_id :character varying</text>
<text text-anchor="start" x="1035.83" y="-414.3" font-family="Times,serif" font-size="14.00">name :character varying</text>
<text text-anchor="start" x="1035.83" y="-400.3" font-family="Times,serif" font-size="14.00">id :uuid</text>
<text text-anchor="start" x="1035.83" y="-386.3" font-family="Times,serif" font-size="14.00">password_hash :character varying</text>
<text text-anchor="start" x="1035.83" y="-372.3" font-family="Times,serif" font-size="14.00">created_at :timestamp without time zone</text>
<text text-anchor="start" x="1035.83" y="-358.3" font-family="Times,serif" font-size="14.00">updated_at :timestamp without time zone</text>
</g>
<!-- User&#45;&gt;Encounter -->
<g id="edge7" class="edge"><title>User&#45;&gt;Encounter</title>
<path fill="none" stroke="#4fdd6f" d="M1283.77,-383.469C1361.25,-363.273 1460.45,-333.945 1554.21,-294.049"/>
<ellipse fill="none" stroke="#4fdd6f" cx="1279.48" cy="-384.581" rx="4.00001" ry="4.00001"/>
<polygon fill="#4fdd6f" stroke="#4fdd6f" points="1554.37,-293.98 1565.33,-294.162 1558.96,-292.004 1563.56,-290.029 1563.56,-290.029 1563.56,-290.029 1558.96,-292.004 1561.78,-285.895 1554.37,-293.98 1554.37,-293.98"/>
</g>
<!-- User&#45;&gt;Identity -->
<g id="edge4" class="edge"><title>User&#45;&gt;Identity</title>
<path fill="none" stroke="#0ad06f" d="M1019.61,-383.469C939.549,-362.601 836.297,-331.982 748.688,-294 741.705,-290.973 734.631,-287.66 727.571,-284.163"/>
<ellipse fill="none" stroke="#0ad06f" cx="1023.9" cy="-384.581" rx="4.00001" ry="4.00001"/>
<polygon fill="#0ad06f" stroke="#0ad06f" points="727.565,-284.161 720.677,-275.628 723.105,-281.902 718.644,-279.643 718.644,-279.643 718.644,-279.643 723.105,-281.902 716.611,-283.657 727.565,-284.161 727.565,-284.161"/>
</g>
<!-- User&#45;&gt;Issue -->
<g id="edge5" class="edge"><title>User&#45;&gt;Issue</title>
<path fill="none" stroke="#f62cc4" d="M1059.01,-346.535C1029.03,-324.55 995.95,-300.292 966.565,-278.743"/>
<ellipse fill="none" stroke="#f62cc4" cx="1062.29" cy="-348.942" rx="4.00002" ry="4.00002"/>
<polygon fill="#f62cc4" stroke="#f62cc4" points="966.444,-278.655 961.042,-269.112 962.412,-275.698 958.38,-272.741 958.38,-272.741 958.38,-272.741 962.412,-275.698 955.719,-276.37 966.444,-278.655 966.444,-278.655"/>
</g>
<!-- User&#45;&gt;Lab -->
<g id="edge6" class="edge"><title>User&#45;&gt;Lab</title>
<path fill="none" stroke="#7bfd93" d="M1151.69,-343.158C1151.69,-325.837 1151.69,-307.288 1151.69,-289.875"/>
<ellipse fill="none" stroke="#7bfd93" cx="1151.69" cy="-347.307" rx="4" ry="4"/>
<polygon fill="#7bfd93" stroke="#7bfd93" points="1151.69,-289.772 1156.19,-279.772 1151.69,-284.772 1151.69,-279.772 1151.69,-279.772 1151.69,-279.772 1151.69,-284.772 1147.19,-279.772 1151.69,-289.772 1151.69,-289.772"/>
</g>
<!-- User&#45;&gt;Problem -->
<g id="edge8" class="edge"><title>User&#45;&gt;Problem</title>
<path fill="none" stroke="#08a334" d="M1246.37,-345.066C1279.18,-321.004 1315.49,-294.377 1346.52,-271.626"/>
<polygon fill="#08a334" stroke="#08a334" points="1245.92,-345.394 1235.2,-347.678 1241.89,-348.35 1237.86,-351.307 1237.86,-351.307 1237.86,-351.307 1241.89,-348.35 1240.52,-354.936 1245.92,-345.394 1245.92,-345.394"/>
<polygon fill="#08a334" stroke="#08a334" points="1346.64,-271.537 1357.36,-269.252 1350.67,-268.58 1354.7,-265.624 1354.7,-265.624 1354.7,-265.624 1350.67,-268.58 1352.04,-261.995 1346.64,-271.537 1346.64,-271.537"/>
</g>
</g>
</svg>
