<?xml version="1.0" encoding="UTF-8" standalone="no"?>
<!DOCTYPE svg PUBLIC "-//W3C//DTD SVG 1.1//EN"
 "http://www.w3.org/Graphics/SVG/1.1/DTD/svg11.dtd">
<!-- Generated by graphviz version 2.38.0 (20140413.2041)
 -->
<!-- Title: models_diagram Pages: 1 -->
<svg width="2441pt" height="774pt"
 viewBox="0.00 0.00 2440.55 774.00" xmlns="http://www.w3.org/2000/svg" xmlns:xlink="http://www.w3.org/1999/xlink">
<g id="graph0" class="graph" transform="scale(1 1) rotate(0) translate(4 770)">
<title>models_diagram</title>
<polygon fill="none" stroke="none" points="-4,4 -4,-770 2436.55,-770 2436.55,4 -4,4"/>
<!-- _diagram_info -->
<g id="node1" class="node"><title>_diagram_info</title>
<text text-anchor="start" x="8" y="-723.6" font-family="Times,serif" font-size="13.00">Models diagram</text>
<text text-anchor="start" x="8" y="-710.6" font-family="Times,serif" font-size="13.00">Date: Jun 16 2016 &#45; 14:22</text>
<text text-anchor="start" x="8" y="-697.6" font-family="Times,serif" font-size="13.00">Migration version: 20160616191450</text>
<text text-anchor="start" x="8" y="-684.6" font-family="Times,serif" font-size="13.00">Generated by RailRoady 1.4.2</text>
<text text-anchor="start" x="8" y="-671.6" font-family="Times,serif" font-size="13.00">http://railroady.prestonlee.com</text>
</g>
<!-- Ability -->
<g id="node2" class="node"><title>Ability</title>
<polygon fill="none" stroke="black" points="225.853,-679.5 225.853,-723.5 281.522,-723.5 281.522,-679.5 225.853,-679.5"/>
<text text-anchor="middle" x="253.688" y="-708.3" font-family="Times,serif" font-size="14.00">Ability</text>
<polyline fill="none" stroke="black" points="225.853,-701.5 281.522,-701.5 "/>
<text text-anchor="middle" x="253.688" y="-686.3" font-family="Times,serif" font-size="14.00"> </text>
</g>
<!-- Capability -->
<g id="node3" class="node"><title>Capability</title>
<path fill="none" stroke="black" d="M285.825,-0.5C285.825,-0.5 509.55,-0.5 509.55,-0.5 515.55,-0.5 521.55,-6.5 521.55,-12.5 521.55,-12.5 521.55,-102.5 521.55,-102.5 521.55,-108.5 515.55,-114.5 509.55,-114.5 509.55,-114.5 285.825,-114.5 285.825,-114.5 279.825,-114.5 273.825,-108.5 273.825,-102.5 273.825,-102.5 273.825,-12.5 273.825,-12.5 273.825,-6.5 279.825,-0.5 285.825,-0.5"/>
<text text-anchor="middle" x="397.688" y="-99.3" font-family="Times,serif" font-size="14.00">Capability</text>
<polyline fill="none" stroke="black" points="273.825,-92.5 521.55,-92.5 "/>
<text text-anchor="start" x="281.825" y="-77.3" font-family="Times,serif" font-size="14.00">id :uuid</text>
<text text-anchor="start" x="281.825" y="-63.3" font-family="Times,serif" font-size="14.00">entity_id :uuid</text>
<text text-anchor="start" x="281.825" y="-49.3" font-family="Times,serif" font-size="14.00">entity_type :character varying</text>
<text text-anchor="start" x="281.825" y="-35.3" font-family="Times,serif" font-size="14.00">role_id :uuid</text>
<text text-anchor="start" x="281.825" y="-21.3" font-family="Times,serif" font-size="14.00">created_at :timestamp without time zone</text>
<text text-anchor="start" x="281.825" y="-7.3" font-family="Times,serif" font-size="14.00">updated_at :timestamp without time zone</text>
</g>
<!-- Client -->
<g id="node4" class="node"><title>Client</title>
<path fill="none" stroke="black" d="M577.825,-637.5C577.825,-637.5 801.55,-637.5 801.55,-637.5 807.55,-637.5 813.55,-643.5 813.55,-649.5 813.55,-649.5 813.55,-753.5 813.55,-753.5 813.55,-759.5 807.55,-765.5 801.55,-765.5 801.55,-765.5 577.825,-765.5 577.825,-765.5 571.825,-765.5 565.825,-759.5 565.825,-753.5 565.825,-753.5 565.825,-649.5 565.825,-649.5 565.825,-643.5 571.825,-637.5 577.825,-637.5"/>
<text text-anchor="middle" x="689.688" y="-750.3" font-family="Times,serif" font-size="14.00">Client</text>
<polyline fill="none" stroke="black" points="565.825,-743.5 813.55,-743.5 "/>
<text text-anchor="start" x="573.825" y="-728.3" font-family="Times,serif" font-size="14.00">icon_url :character varying</text>
<text text-anchor="start" x="573.825" y="-714.3" font-family="Times,serif" font-size="14.00">name :character varying</text>
<text text-anchor="start" x="573.825" y="-700.3" font-family="Times,serif" font-size="14.00">launch_url :character varying</text>
<text text-anchor="start" x="573.825" y="-686.3" font-family="Times,serif" font-size="14.00">id :uuid</text>
<text text-anchor="start" x="573.825" y="-672.3" font-family="Times,serif" font-size="14.00">available :boolean</text>
<text text-anchor="start" x="573.825" y="-658.3" font-family="Times,serif" font-size="14.00">created_at :timestamp without time zone</text>
<text text-anchor="start" x="573.825" y="-644.3" font-family="Times,serif" font-size="14.00">updated_at :timestamp without time zone</text>
</g>
<!-- Context -->
<g id="node5" class="node"><title>Context</title>
<path fill="none" stroke="black" d="M1702.83,-457.5C1702.83,-457.5 1926.55,-457.5 1926.55,-457.5 1932.55,-457.5 1938.55,-463.5 1938.55,-469.5 1938.55,-469.5 1938.55,-545.5 1938.55,-545.5 1938.55,-551.5 1932.55,-557.5 1926.55,-557.5 1926.55,-557.5 1702.83,-557.5 1702.83,-557.5 1696.83,-557.5 1690.83,-551.5 1690.83,-545.5 1690.83,-545.5 1690.83,-469.5 1690.83,-469.5 1690.83,-463.5 1696.83,-457.5 1702.83,-457.5"/>
<text text-anchor="middle" x="1814.69" y="-542.3" font-family="Times,serif" font-size="14.00">Context</text>
<polyline fill="none" stroke="black" points="1690.83,-535.5 1938.55,-535.5 "/>
<text text-anchor="start" x="1698.83" y="-520.3" font-family="Times,serif" font-size="14.00">id :uuid</text>
<text text-anchor="start" x="1698.83" y="-506.3" font-family="Times,serif" font-size="14.00">name :character varying</text>
<text text-anchor="start" x="1698.83" y="-492.3" font-family="Times,serif" font-size="14.00">purpose :character varying</text>
<text text-anchor="start" x="1698.83" y="-478.3" font-family="Times,serif" font-size="14.00">created_at :timestamp without time zone</text>
<text text-anchor="start" x="1698.83" y="-464.3" font-family="Times,serif" font-size="14.00">updated_at :timestamp without time zone</text>
</g>
<!-- Focus -->
<g id="node6" class="node"><title>Focus</title>
<path fill="none" stroke="black" d="M1892.83,-208.5C1892.83,-208.5 2116.55,-208.5 2116.55,-208.5 2122.55,-208.5 2128.55,-214.5 2128.55,-220.5 2128.55,-220.5 2128.55,-296.5 2128.55,-296.5 2128.55,-302.5 2122.55,-308.5 2116.55,-308.5 2116.55,-308.5 1892.83,-308.5 1892.83,-308.5 1886.83,-308.5 1880.83,-302.5 1880.83,-296.5 1880.83,-296.5 1880.83,-220.5 1880.83,-220.5 1880.83,-214.5 1886.83,-208.5 1892.83,-208.5"/>
<text text-anchor="middle" x="2004.69" y="-293.3" font-family="Times,serif" font-size="14.00">Focus</text>
<polyline fill="none" stroke="black" points="1880.83,-286.5 2128.55,-286.5 "/>
<text text-anchor="start" x="1888.83" y="-271.3" font-family="Times,serif" font-size="14.00">id :uuid</text>
<text text-anchor="start" x="1888.83" y="-257.3" font-family="Times,serif" font-size="14.00">context_id :uuid</text>
<text text-anchor="start" x="1888.83" y="-243.3" font-family="Times,serif" font-size="14.00">snomedct_concept_id :uuid</text>
<text text-anchor="start" x="1888.83" y="-229.3" font-family="Times,serif" font-size="14.00">created_at :timestamp without time zone</text>
<text text-anchor="start" x="1888.83" y="-215.3" font-family="Times,serif" font-size="14.00">updated_at :timestamp without time zone</text>
</g>
<!-- Context&#45;&gt;Focus -->
<g id="edge2" class="edge"><title>Context&#45;&gt;Focus</title>
<path fill="none" stroke="#129787" d="M1857.42,-450.945C1888.22,-410.91 1929.65,-357.045 1960.73,-316.65"/>
<ellipse fill="none" stroke="#129787" cx="1854.89" cy="-454.235" rx="4.00002" ry="4.00002"/>
<polygon fill="#129787" stroke="#129787" points="1960.9,-316.428 1970.56,-311.245 1963.95,-312.465 1966.99,-308.502 1966.99,-308.502 1966.99,-308.502 1963.95,-312.465 1963.43,-305.758 1960.9,-316.428 1960.9,-316.428"/>
</g>
<!-- Participant -->
<g id="node12" class="node"><title>Participant</title>
<path fill="none" stroke="black" d="M1626.83,-208.5C1626.83,-208.5 1850.55,-208.5 1850.55,-208.5 1856.55,-208.5 1862.55,-214.5 1862.55,-220.5 1862.55,-220.5 1862.55,-296.5 1862.55,-296.5 1862.55,-302.5 1856.55,-308.5 1850.55,-308.5 1850.55,-308.5 1626.83,-308.5 1626.83,-308.5 1620.83,-308.5 1614.83,-302.5 1614.83,-296.5 1614.83,-296.5 1614.83,-220.5 1614.83,-220.5 1614.83,-214.5 1620.83,-208.5 1626.83,-208.5"/>
<text text-anchor="middle" x="1738.69" y="-293.3" font-family="Times,serif" font-size="14.00">Participant</text>
<polyline fill="none" stroke="black" points="1614.83,-286.5 1862.55,-286.5 "/>
<text text-anchor="start" x="1622.83" y="-271.3" font-family="Times,serif" font-size="14.00">id :uuid</text>
<text text-anchor="start" x="1622.83" y="-257.3" font-family="Times,serif" font-size="14.00">context_id :uuid</text>
<text text-anchor="start" x="1622.83" y="-243.3" font-family="Times,serif" font-size="14.00">user_id :uuid</text>
<text text-anchor="start" x="1622.83" y="-229.3" font-family="Times,serif" font-size="14.00">created_at :timestamp without time zone</text>
<text text-anchor="start" x="1622.83" y="-215.3" font-family="Times,serif" font-size="14.00">updated_at :timestamp without time zone</text>
</g>
<!-- Context&#45;&gt;Participant -->
<g id="edge1" class="edge"><title>Context&#45;&gt;Participant</title>
<path fill="none" stroke="#63ee44" d="M1797.19,-449.622C1785.06,-410.201 1768.95,-357.856 1756.71,-318.072"/>
<ellipse fill="none" stroke="#63ee44" cx="1798.41" cy="-453.582" rx="4.00001" ry="4.00001"/>
<polygon fill="#63ee44" stroke="#63ee44" points="1756.71,-318.059 1758.07,-307.178 1755.24,-313.281 1753.77,-308.502 1753.77,-308.502 1753.77,-308.502 1755.24,-313.281 1749.46,-309.825 1756.71,-318.059 1756.71,-318.059"/>
</g>
<!-- Group -->
<g id="node7" class="node"><title>Group</title>
<path fill="none" stroke="black" d="M311.825,-651.5C311.825,-651.5 535.55,-651.5 535.55,-651.5 541.55,-651.5 547.55,-657.5 547.55,-663.5 547.55,-663.5 547.55,-739.5 547.55,-739.5 547.55,-745.5 541.55,-751.5 535.55,-751.5 535.55,-751.5 311.825,-751.5 311.825,-751.5 305.825,-751.5 299.825,-745.5 299.825,-739.5 299.825,-739.5 299.825,-663.5 299.825,-663.5 299.825,-657.5 305.825,-651.5 311.825,-651.5"/>
<text text-anchor="middle" x="423.688" y="-736.3" font-family="Times,serif" font-size="14.00">Group</text>
<polyline fill="none" stroke="black" points="299.825,-729.5 547.55,-729.5 "/>
<text text-anchor="start" x="307.825" y="-714.3" font-family="Times,serif" font-size="14.00">id :uuid</text>
<text text-anchor="start" x="307.825" y="-700.3" font-family="Times,serif" font-size="14.00">name :character varying</text>
<text text-anchor="start" x="307.825" y="-686.3" font-family="Times,serif" font-size="14.00">description :text</text>
<text text-anchor="start" x="307.825" y="-672.3" font-family="Times,serif" font-size="14.00">created_at :timestamp without time zone</text>
<text text-anchor="start" x="307.825" y="-658.3" font-family="Times,serif" font-size="14.00">updated_at :timestamp without time zone</text>
</g>
<!-- Group&#45;&gt;Capability -->
<g id="edge5" class="edge"><title>Group&#45;&gt;Capability</title>
<path fill="none" stroke="#a116d2" d="M342.226,-646.58C262.73,-588.25 147.671,-487.031 104.688,-365 73.2368,-275.71 48.8428,-228.44 104.688,-152 141.238,-101.971 204.852,-78.0849 263.486,-66.9214"/>
<ellipse fill="none" stroke="#a116d2" cx="345.61" cy="-649.043" rx="4.00002" ry="4.00002"/>
<polygon fill="#a116d2" stroke="#a116d2" points="263.762,-66.872 274.399,-69.5386 268.684,-65.9905 273.605,-65.1091 273.605,-65.1091 273.605,-65.1091 268.684,-65.9905 272.812,-60.6795 263.762,-66.872 263.762,-66.872"/>
</g>
<!-- Member -->
<g id="node11" class="node"><title>Member</title>
<path fill="none" stroke="black" d="M125.825,-208.5C125.825,-208.5 349.55,-208.5 349.55,-208.5 355.55,-208.5 361.55,-214.5 361.55,-220.5 361.55,-220.5 361.55,-296.5 361.55,-296.5 361.55,-302.5 355.55,-308.5 349.55,-308.5 349.55,-308.5 125.825,-308.5 125.825,-308.5 119.825,-308.5 113.825,-302.5 113.825,-296.5 113.825,-296.5 113.825,-220.5 113.825,-220.5 113.825,-214.5 119.825,-208.5 125.825,-208.5"/>
<text text-anchor="middle" x="237.688" y="-293.3" font-family="Times,serif" font-size="14.00">Member</text>
<polyline fill="none" stroke="black" points="113.825,-286.5 361.55,-286.5 "/>
<text text-anchor="start" x="121.825" y="-271.3" font-family="Times,serif" font-size="14.00">id :uuid</text>
<text text-anchor="start" x="121.825" y="-257.3" font-family="Times,serif" font-size="14.00">group_id :uuid</text>
<text text-anchor="start" x="121.825" y="-243.3" font-family="Times,serif" font-size="14.00">user_id :uuid</text>
<text text-anchor="start" x="121.825" y="-229.3" font-family="Times,serif" font-size="14.00">created_at :timestamp without time zone</text>
<text text-anchor="start" x="121.825" y="-215.3" font-family="Times,serif" font-size="14.00">updated_at :timestamp without time zone</text>
</g>
<!-- Group&#45;&gt;Member -->
<g id="edge3" class="edge"><title>Group&#45;&gt;Member</title>
<path fill="none" stroke="#5c6f54" d="M397.583,-643.869C369.878,-583.201 325.272,-483.897 289.688,-397 279.186,-371.354 268.237,-342.726 259.111,-318.26"/>
<ellipse fill="none" stroke="#5c6f54" cx="399.38" cy="-647.799" rx="4.00002" ry="4.00002"/>
<polygon fill="#5c6f54" stroke="#5c6f54" points="259.061,-318.127 259.796,-307.186 257.32,-313.44 255.578,-308.753 255.578,-308.753 255.578,-308.753 257.32,-313.44 251.36,-310.321 259.061,-318.127 259.061,-318.127"/>
</g>
<!-- User -->
<g id="node19" class="node"><title>User</title>
<path fill="none" stroke="black" d="M824.825,-429.5C824.825,-429.5 1048.55,-429.5 1048.55,-429.5 1054.55,-429.5 1060.55,-435.5 1060.55,-441.5 1060.55,-441.5 1060.55,-573.5 1060.55,-573.5 1060.55,-579.5 1054.55,-585.5 1048.55,-585.5 1048.55,-585.5 824.825,-585.5 824.825,-585.5 818.825,-585.5 812.825,-579.5 812.825,-573.5 812.825,-573.5 812.825,-441.5 812.825,-441.5 812.825,-435.5 818.825,-429.5 824.825,-429.5"/>
<text text-anchor="middle" x="936.688" y="-570.3" font-family="Times,serif" font-size="14.00">User</text>
<polyline fill="none" stroke="black" points="812.825,-563.5 1060.55,-563.5 "/>
<text text-anchor="start" x="820.825" y="-548.3" font-family="Times,serif" font-size="14.00">updated_at :timestamp without time zone</text>
<text text-anchor="start" x="820.825" y="-534.3" font-family="Times,serif" font-size="14.00">name :character varying</text>
<text text-anchor="start" x="820.825" y="-520.3" font-family="Times,serif" font-size="14.00">external_id :character varying</text>
<text text-anchor="start" x="820.825" y="-506.3" font-family="Times,serif" font-size="14.00">salutation :character varying</text>
<text text-anchor="start" x="820.825" y="-492.3" font-family="Times,serif" font-size="14.00">first_name :character varying</text>
<text text-anchor="start" x="820.825" y="-478.3" font-family="Times,serif" font-size="14.00">middle_name :character varying</text>
<text text-anchor="start" x="820.825" y="-464.3" font-family="Times,serif" font-size="14.00">last_name :character varying</text>
<text text-anchor="start" x="820.825" y="-450.3" font-family="Times,serif" font-size="14.00">created_at :timestamp without time zone</text>
<text text-anchor="start" x="820.825" y="-436.3" font-family="Times,serif" font-size="14.00">id :uuid</text>
</g>
<!-- Group&#45;&gt;User -->
<g id="edge4" class="edge"><title>Group&#45;&gt;User</title>
<path fill="none" stroke="#8e112a" d="M532.511,-647.261C540.643,-643.678 548.765,-640.218 556.688,-637 637.119,-604.336 729.32,-573.015 802.757,-549.473"/>
<polygon fill="#8e112a" stroke="#8e112a" points="532.467,-647.281 521.501,-647.245 527.9,-649.318 523.334,-651.354 523.334,-651.354 523.334,-651.354 527.9,-649.318 525.167,-655.464 532.467,-647.281 532.467,-647.281"/>
<polygon fill="#8e112a" stroke="#8e112a" points="803.007,-549.394 813.902,-550.637 807.77,-547.872 812.533,-546.35 812.533,-546.35 812.533,-546.35 807.77,-547.872 811.163,-542.064 803.007,-549.394 803.007,-549.394"/>
</g>
<!-- Identity -->
<g id="node8" class="node"><title>Identity</title>
<path fill="none" stroke="black" d="M1360.83,-152.5C1360.83,-152.5 1584.55,-152.5 1584.55,-152.5 1590.55,-152.5 1596.55,-158.5 1596.55,-164.5 1596.55,-164.5 1596.55,-352.5 1596.55,-352.5 1596.55,-358.5 1590.55,-364.5 1584.55,-364.5 1584.55,-364.5 1360.83,-364.5 1360.83,-364.5 1354.83,-364.5 1348.83,-358.5 1348.83,-352.5 1348.83,-352.5 1348.83,-164.5 1348.83,-164.5 1348.83,-158.5 1354.83,-152.5 1360.83,-152.5"/>
<text text-anchor="middle" x="1472.69" y="-349.3" font-family="Times,serif" font-size="14.00">Identity</text>
<polyline fill="none" stroke="black" points="1348.83,-342.5 1596.55,-342.5 "/>
<text text-anchor="start" x="1356.83" y="-327.3" font-family="Times,serif" font-size="14.00">updated_at :timestamp without time zone</text>
<text text-anchor="start" x="1356.83" y="-313.3" font-family="Times,serif" font-size="14.00">user_id :uuid</text>
<text text-anchor="start" x="1356.83" y="-299.3" font-family="Times,serif" font-size="14.00">provider_id :uuid</text>
<text text-anchor="start" x="1356.83" y="-285.3" font-family="Times,serif" font-size="14.00">sub :character varying</text>
<text text-anchor="start" x="1356.83" y="-271.3" font-family="Times,serif" font-size="14.00">iat :character varying</text>
<text text-anchor="start" x="1356.83" y="-257.3" font-family="Times,serif" font-size="14.00">hd :character varying</text>
<text text-anchor="start" x="1356.83" y="-243.3" font-family="Times,serif" font-size="14.00">locale :character varying</text>
<text text-anchor="start" x="1356.83" y="-229.3" font-family="Times,serif" font-size="14.00">email :character varying</text>
<text text-anchor="start" x="1356.83" y="-215.3" font-family="Times,serif" font-size="14.00">jwt :json</text>
<text text-anchor="start" x="1356.83" y="-201.3" font-family="Times,serif" font-size="14.00">notify_via_email :boolean</text>
<text text-anchor="start" x="1356.83" y="-187.3" font-family="Times,serif" font-size="14.00">notify_via_sms :boolean</text>
<text text-anchor="start" x="1356.83" y="-173.3" font-family="Times,serif" font-size="14.00">created_at :timestamp without time zone</text>
<text text-anchor="start" x="1356.83" y="-159.3" font-family="Times,serif" font-size="14.00">id :uuid</text>
</g>
<!-- Session -->
<g id="node16" class="node"><title>Session</title>
<path fill="none" stroke="black" d="M1360.83,-7.5C1360.83,-7.5 1584.55,-7.5 1584.55,-7.5 1590.55,-7.5 1596.55,-13.5 1596.55,-19.5 1596.55,-19.5 1596.55,-95.5 1596.55,-95.5 1596.55,-101.5 1590.55,-107.5 1584.55,-107.5 1584.55,-107.5 1360.83,-107.5 1360.83,-107.5 1354.83,-107.5 1348.83,-101.5 1348.83,-95.5 1348.83,-95.5 1348.83,-19.5 1348.83,-19.5 1348.83,-13.5 1354.83,-7.5 1360.83,-7.5"/>
<text text-anchor="middle" x="1472.69" y="-92.3" font-family="Times,serif" font-size="14.00">Session</text>
<polyline fill="none" stroke="black" points="1348.83,-85.5 1596.55,-85.5 "/>
<text text-anchor="start" x="1356.83" y="-70.3" font-family="Times,serif" font-size="14.00">id :uuid</text>
<text text-anchor="start" x="1356.83" y="-56.3" font-family="Times,serif" font-size="14.00">identity_id :uuid</text>
<text text-anchor="start" x="1356.83" y="-42.3" font-family="Times,serif" font-size="14.00">expires_at :timestamp without time zone</text>
<text text-anchor="start" x="1356.83" y="-28.3" font-family="Times,serif" font-size="14.00">created_at :timestamp without time zone</text>
<text text-anchor="start" x="1356.83" y="-14.3" font-family="Times,serif" font-size="14.00">updated_at :timestamp without time zone</text>
</g>
<!-- Identity&#45;&gt;Session -->
<g id="edge6" class="edge"><title>Identity&#45;&gt;Session</title>
<path fill="none" stroke="#f63e1e" d="M1472.69,-144.129C1472.69,-135.249 1472.69,-126.519 1472.69,-118.23"/>
<ellipse fill="none" stroke="#f63e1e" cx="1472.69" cy="-148.464" rx="4" ry="4"/>
<polygon fill="#f63e1e" stroke="#f63e1e" points="1472.69,-117.988 1477.19,-107.988 1472.69,-112.988 1472.69,-107.988 1472.69,-107.988 1472.69,-107.988 1472.69,-112.988 1468.19,-107.988 1472.69,-117.988 1472.69,-117.988"/>
</g>
<!-- Interest -->
<g id="node9" class="node"><title>Interest</title>
<path fill="none" stroke="black" d="M1094.83,-7.5C1094.83,-7.5 1318.55,-7.5 1318.55,-7.5 1324.55,-7.5 1330.55,-13.5 1330.55,-19.5 1330.55,-19.5 1330.55,-95.5 1330.55,-95.5 1330.55,-101.5 1324.55,-107.5 1318.55,-107.5 1318.55,-107.5 1094.83,-107.5 1094.83,-107.5 1088.83,-107.5 1082.83,-101.5 1082.83,-95.5 1082.83,-95.5 1082.83,-19.5 1082.83,-19.5 1082.83,-13.5 1088.83,-7.5 1094.83,-7.5"/>
<text text-anchor="middle" x="1206.69" y="-92.3" font-family="Times,serif" font-size="14.00">Interest</text>
<polyline fill="none" stroke="black" points="1082.83,-85.5 1330.55,-85.5 "/>
<text text-anchor="start" x="1090.83" y="-70.3" font-family="Times,serif" font-size="14.00">id :uuid</text>
<text text-anchor="start" x="1090.83" y="-56.3" font-family="Times,serif" font-size="14.00">role_id :uuid</text>
<text text-anchor="start" x="1090.83" y="-42.3" font-family="Times,serif" font-size="14.00">snomedct_concept_id :uuid</text>
<text text-anchor="start" x="1090.83" y="-28.3" font-family="Times,serif" font-size="14.00">created_at :timestamp without time zone</text>
<text text-anchor="start" x="1090.83" y="-14.3" font-family="Times,serif" font-size="14.00">updated_at :timestamp without time zone</text>
</g>
<!-- Issue -->
<g id="node10" class="node"><title>Issue</title>
<path fill="none" stroke="black" d="M554.825,-208.5C554.825,-208.5 778.55,-208.5 778.55,-208.5 784.55,-208.5 790.55,-214.5 790.55,-220.5 790.55,-220.5 790.55,-296.5 790.55,-296.5 790.55,-302.5 784.55,-308.5 778.55,-308.5 778.55,-308.5 554.825,-308.5 554.825,-308.5 548.825,-308.5 542.825,-302.5 542.825,-296.5 542.825,-296.5 542.825,-220.5 542.825,-220.5 542.825,-214.5 548.825,-208.5 554.825,-208.5"/>
<text text-anchor="middle" x="666.688" y="-293.3" font-family="Times,serif" font-size="14.00">Issue</text>
<polyline fill="none" stroke="black" points="542.825,-286.5 790.55,-286.5 "/>
<text text-anchor="start" x="550.825" y="-271.3" font-family="Times,serif" font-size="14.00">id :uuid</text>
<text text-anchor="start" x="550.825" y="-257.3" font-family="Times,serif" font-size="14.00">user_id :uuid</text>
<text text-anchor="start" x="550.825" y="-243.3" font-family="Times,serif" font-size="14.00">snomedct_id :integer</text>
<text text-anchor="start" x="550.825" y="-229.3" font-family="Times,serif" font-size="14.00">created_at :timestamp without time zone</text>
<text text-anchor="start" x="550.825" y="-215.3" font-family="Times,serif" font-size="14.00">updated_at :timestamp without time zone</text>
</g>
<!-- Provider -->
<g id="node13" class="node"><title>Provider</title>
<path fill="none" stroke="black" d="M1360.83,-415.5C1360.83,-415.5 1584.55,-415.5 1584.55,-415.5 1590.55,-415.5 1596.55,-421.5 1596.55,-427.5 1596.55,-427.5 1596.55,-587.5 1596.55,-587.5 1596.55,-593.5 1590.55,-599.5 1584.55,-599.5 1584.55,-599.5 1360.83,-599.5 1360.83,-599.5 1354.83,-599.5 1348.83,-593.5 1348.83,-587.5 1348.83,-587.5 1348.83,-427.5 1348.83,-427.5 1348.83,-421.5 1354.83,-415.5 1360.83,-415.5"/>
<text text-anchor="middle" x="1472.69" y="-584.3" font-family="Times,serif" font-size="14.00">Provider</text>
<polyline fill="none" stroke="black" points="1348.83,-577.5 1596.55,-577.5 "/>
<text text-anchor="start" x="1356.83" y="-562.3" font-family="Times,serif" font-size="14.00">scopes :character varying</text>
<text text-anchor="start" x="1356.83" y="-548.3" font-family="Times,serif" font-size="14.00">name :character varying</text>
<text text-anchor="start" x="1356.83" y="-534.3" font-family="Times,serif" font-size="14.00">issuer :character varying</text>
<text text-anchor="start" x="1356.83" y="-520.3" font-family="Times,serif" font-size="14.00">client_id :character varying</text>
<text text-anchor="start" x="1356.83" y="-506.3" font-family="Times,serif" font-size="14.00">client_secret :character varying</text>
<text text-anchor="start" x="1356.83" y="-492.3" font-family="Times,serif" font-size="14.00">alternate_client_id :character varying</text>
<text text-anchor="start" x="1356.83" y="-478.3" font-family="Times,serif" font-size="14.00">configuration :json</text>
<text text-anchor="start" x="1356.83" y="-464.3" font-family="Times,serif" font-size="14.00">public_keys :json</text>
<text text-anchor="start" x="1356.83" y="-450.3" font-family="Times,serif" font-size="14.00">created_at :timestamp without time zone</text>
<text text-anchor="start" x="1356.83" y="-436.3" font-family="Times,serif" font-size="14.00">updated_at :timestamp without time zone</text>
<text text-anchor="start" x="1356.83" y="-422.3" font-family="Times,serif" font-size="14.00">id :uuid</text>
</g>
<!-- Provider&#45;&gt;Identity -->
<g id="edge7" class="edge"><title>Provider&#45;&gt;Identity</title>
<path fill="none" stroke="#8ac7f3" d="M1472.69,-407.051C1472.69,-396.455 1472.69,-385.613 1472.69,-374.854"/>
<ellipse fill="none" stroke="#8ac7f3" cx="1472.69" cy="-411.228" rx="4" ry="4"/>
<polygon fill="#8ac7f3" stroke="#8ac7f3" points="1472.69,-374.575 1477.19,-364.575 1472.69,-369.575 1472.69,-364.575 1472.69,-364.575 1472.69,-364.575 1472.69,-369.575 1468.19,-364.575 1472.69,-374.575 1472.69,-374.575"/>
</g>
<!-- Result -->
<g id="node14" class="node"><title>Result</title>
<path fill="none" stroke="black" d="M820.163,-201.5C820.163,-201.5 1053.21,-201.5 1053.21,-201.5 1059.21,-201.5 1065.21,-207.5 1065.21,-213.5 1065.21,-213.5 1065.21,-303.5 1065.21,-303.5 1065.21,-309.5 1059.21,-315.5 1053.21,-315.5 1053.21,-315.5 820.163,-315.5 820.163,-315.5 814.163,-315.5 808.163,-309.5 808.163,-303.5 808.163,-303.5 808.163,-213.5 808.163,-213.5 808.163,-207.5 814.163,-201.5 820.163,-201.5"/>
<text text-anchor="middle" x="936.688" y="-300.3" font-family="Times,serif" font-size="14.00">Result</text>
<polyline fill="none" stroke="black" points="808.163,-293.5 1065.21,-293.5 "/>
<text text-anchor="start" x="816.163" y="-278.3" font-family="Times,serif" font-size="14.00">id :uuid</text>
<text text-anchor="start" x="816.163" y="-264.3" font-family="Times,serif" font-size="14.00">user_id :uuid</text>
<text text-anchor="start" x="816.163" y="-250.3" font-family="Times,serif" font-size="14.00">ordered_at :timestamp without time zone</text>
<text text-anchor="start" x="816.163" y="-236.3" font-family="Times,serif" font-size="14.00">requested_at :timestamp without time zone</text>
<text text-anchor="start" x="816.163" y="-222.3" font-family="Times,serif" font-size="14.00">created_at :timestamp without time zone</text>
<text text-anchor="start" x="816.163" y="-208.3" font-family="Times,serif" font-size="14.00">updated_at :timestamp without time zone</text>
</g>
<!-- Role -->
<g id="node15" class="node"><title>Role</title>
<path fill="none" stroke="black" d="M1094.83,-201.5C1094.83,-201.5 1318.55,-201.5 1318.55,-201.5 1324.55,-201.5 1330.55,-207.5 1330.55,-213.5 1330.55,-213.5 1330.55,-303.5 1330.55,-303.5 1330.55,-309.5 1324.55,-315.5 1318.55,-315.5 1318.55,-315.5 1094.83,-315.5 1094.83,-315.5 1088.83,-315.5 1082.83,-309.5 1082.83,-303.5 1082.83,-303.5 1082.83,-213.5 1082.83,-213.5 1082.83,-207.5 1088.83,-201.5 1094.83,-201.5"/>
<text text-anchor="middle" x="1206.69" y="-300.3" font-family="Times,serif" font-size="14.00">Role</text>
<polyline fill="none" stroke="black" points="1082.83,-293.5 1330.55,-293.5 "/>
<text text-anchor="start" x="1090.83" y="-278.3" font-family="Times,serif" font-size="14.00">id :uuid</text>
<text text-anchor="start" x="1090.83" y="-264.3" font-family="Times,serif" font-size="14.00">name :character varying</text>
<text text-anchor="start" x="1090.83" y="-250.3" font-family="Times,serif" font-size="14.00">code :character varying</text>
<text text-anchor="start" x="1090.83" y="-236.3" font-family="Times,serif" font-size="14.00">description :text</text>
<text text-anchor="start" x="1090.83" y="-222.3" font-family="Times,serif" font-size="14.00">created_at :timestamp without time zone</text>
<text text-anchor="start" x="1090.83" y="-208.3" font-family="Times,serif" font-size="14.00">updated_at :timestamp without time zone</text>
</g>
<!-- Role&#45;&gt;Capability -->
<g id="edge9" class="edge"><title>Role&#45;&gt;Capability</title>
<path fill="none" stroke="#9785f1" d="M1144.1,-196.191C1123.5,-179.269 1099.48,-162.652 1074.69,-152 979.739,-111.21 700.557,-82.6402 531.821,-68.5459"/>
<ellipse fill="none" stroke="#9785f1" cx="1147.31" cy="-198.879" rx="4.00002" ry="4.00002"/>
<polygon fill="#9785f1" stroke="#9785f1" points="531.586,-68.5265 521.992,-63.2156 526.603,-68.1134 521.62,-67.7002 521.62,-67.7002 521.62,-67.7002 526.603,-68.1134 521.248,-72.1849 531.586,-68.5265 531.586,-68.5265"/>
</g>
<!-- Role&#45;&gt;Group -->
<g id="edge11" class="edge"><title>Role&#45;&gt;Group</title>
<path fill="none" stroke="#bb0408" d="M1201.05,-325.6C1190.33,-405.574 1159.3,-537.278 1069.69,-600 976.05,-665.541 667.18,-607.758 556.688,-637 545.974,-639.835 535.079,-643.529 524.37,-647.709"/>
<polygon fill="#bb0408" stroke="#bb0408" points="1201.06,-325.552 1206.79,-316.2 1201.69,-320.592 1202.32,-315.632 1202.32,-315.632 1202.32,-315.632 1201.69,-320.592 1197.86,-315.064 1201.06,-325.552 1201.06,-325.552"/>
<polygon fill="#bb0408" stroke="#bb0408" points="524.284,-647.744 513.326,-647.328 519.65,-649.621 515.016,-651.499 515.016,-651.499 515.016,-651.499 519.65,-649.621 516.706,-655.67 524.284,-647.744 524.284,-647.744"/>
</g>
<!-- Role&#45;&gt;Interest -->
<g id="edge8" class="edge"><title>Role&#45;&gt;Interest</title>
<path fill="none" stroke="#3956a3" d="M1206.69,-193.2C1206.69,-169.066 1206.69,-141.761 1206.69,-118.075"/>
<ellipse fill="none" stroke="#3956a3" cx="1206.69" cy="-197.273" rx="4" ry="4"/>
<polygon fill="#3956a3" stroke="#3956a3" points="1206.69,-117.819 1211.19,-107.819 1206.69,-112.819 1206.69,-107.819 1206.69,-107.819 1206.69,-107.819 1206.69,-112.819 1202.19,-107.819 1206.69,-117.819 1206.69,-117.819"/>
</g>
<!-- Role&#45;&gt;User -->
<g id="edge10" class="edge"><title>Role&#45;&gt;User</title>
<path fill="none" stroke="#4f4645" d="M1135.42,-322.194C1116.41,-337.281 1095.39,-352.603 1074.69,-365 1057.26,-375.434 1048.76,-370.589 1032.69,-383 1018.54,-393.922 1005.32,-407.391 993.492,-421.375"/>
<polygon fill="#4f4645" stroke="#4f4645" points="1135.64,-322.018 1146.25,-319.259 1139.53,-318.885 1143.43,-315.752 1143.43,-315.752 1143.43,-315.752 1139.53,-318.885 1140.61,-312.245 1135.64,-322.018 1135.64,-322.018"/>
<polygon fill="#4f4645" stroke="#4f4645" points="993.419,-421.462 983.59,-426.324 990.242,-425.323 987.064,-429.183 987.064,-429.183 987.064,-429.183 990.242,-425.323 990.539,-432.043 993.419,-421.462 993.419,-421.462"/>
</g>
<!-- SnomedctConcept -->
<g id="node17" class="node"><title>SnomedctConcept</title>
<path fill="none" stroke="black" d="M2044.83,-436.5C2044.83,-436.5 2268.55,-436.5 2268.55,-436.5 2274.55,-436.5 2280.55,-442.5 2280.55,-448.5 2280.55,-448.5 2280.55,-566.5 2280.55,-566.5 2280.55,-572.5 2274.55,-578.5 2268.55,-578.5 2268.55,-578.5 2044.83,-578.5 2044.83,-578.5 2038.83,-578.5 2032.83,-572.5 2032.83,-566.5 2032.83,-566.5 2032.83,-448.5 2032.83,-448.5 2032.83,-442.5 2038.83,-436.5 2044.83,-436.5"/>
<text text-anchor="middle" x="2156.69" y="-563.3" font-family="Times,serif" font-size="14.00">SnomedctConcept</text>
<polyline fill="none" stroke="black" points="2032.83,-556.5 2280.55,-556.5 "/>
<text text-anchor="start" x="2040.83" y="-541.3" font-family="Times,serif" font-size="14.00">updated_at :timestamp without time zone</text>
<text text-anchor="start" x="2040.83" y="-527.3" font-family="Times,serif" font-size="14.00">snomedct_id :bigint</text>
<text text-anchor="start" x="2040.83" y="-513.3" font-family="Times,serif" font-size="14.00">effective_time :date</text>
<text text-anchor="start" x="2040.83" y="-499.3" font-family="Times,serif" font-size="14.00">active :boolean</text>
<text text-anchor="start" x="2040.83" y="-485.3" font-family="Times,serif" font-size="14.00">module_id :bigint</text>
<text text-anchor="start" x="2040.83" y="-471.3" font-family="Times,serif" font-size="14.00">definition_status_id :bigint</text>
<text text-anchor="start" x="2040.83" y="-457.3" font-family="Times,serif" font-size="14.00">created_at :timestamp without time zone</text>
<text text-anchor="start" x="2040.83" y="-443.3" font-family="Times,serif" font-size="14.00">id :uuid</text>
</g>
<!-- SnomedctConcept&#45;&gt;Focus -->
<g id="edge13" class="edge"><title>SnomedctConcept&#45;&gt;Focus</title>
<path fill="none" stroke="#d35f63" d="M2109.07,-429.116C2086.82,-392.961 2060.78,-350.648 2040.27,-317.328"/>
<ellipse fill="none" stroke="#d35f63" cx="2111.44" cy="-432.974" rx="4.00002" ry="4.00002"/>
<polygon fill="#d35f63" stroke="#d35f63" points="2040.16,-317.139 2038.75,-306.264 2037.54,-312.881 2034.92,-308.622 2034.92,-308.622 2034.92,-308.622 2037.54,-312.881 2031.08,-310.981 2040.16,-317.139 2040.16,-317.139"/>
</g>
<!-- SnomedctConcept&#45;&gt;Interest -->
<g id="edge12" class="edge"><title>SnomedctConcept&#45;&gt;Interest</title>
<path fill="none" stroke="#232c10" d="M2164.12,-428.021C2170.98,-335.388 2175.16,-189.199 2137.69,-152 2074.7,-89.4626 1426.23,-134.719 1339.69,-115 1334.05,-113.715 1328.34,-112.202 1322.63,-110.514"/>
<ellipse fill="none" stroke="#232c10" cx="2163.8" cy="-432.269" rx="4" ry="4"/>
<polygon fill="#232c10" stroke="#232c10" points="1322.57,-110.496 1314.37,-103.221 1317.8,-109.007 1313.03,-107.517 1313.03,-107.517 1313.03,-107.517 1317.8,-109.007 1311.69,-111.813 1322.57,-110.496 1322.57,-110.496"/>
</g>
<!-- SnomedctDescription -->
<g id="node18" class="node"><title>SnomedctDescription</title>
<path fill="none" stroke="black" d="M2196.83,-152.5C2196.83,-152.5 2420.55,-152.5 2420.55,-152.5 2426.55,-152.5 2432.55,-158.5 2432.55,-164.5 2432.55,-164.5 2432.55,-352.5 2432.55,-352.5 2432.55,-358.5 2426.55,-364.5 2420.55,-364.5 2420.55,-364.5 2196.83,-364.5 2196.83,-364.5 2190.83,-364.5 2184.83,-358.5 2184.83,-352.5 2184.83,-352.5 2184.83,-164.5 2184.83,-164.5 2184.83,-158.5 2190.83,-152.5 2196.83,-152.5"/>
<text text-anchor="middle" x="2308.69" y="-349.3" font-family="Times,serif" font-size="14.00">SnomedctDescription</text>
<polyline fill="none" stroke="black" points="2184.83,-342.5 2432.55,-342.5 "/>
<text text-anchor="start" x="2192.83" y="-327.3" font-family="Times,serif" font-size="14.00">updated_at :timestamp without time zone</text>
<text text-anchor="start" x="2192.83" y="-313.3" font-family="Times,serif" font-size="14.00">snomedct_concept_id :uuid</text>
<text text-anchor="start" x="2192.83" y="-299.3" font-family="Times,serif" font-size="14.00">snomedct_id :bigint</text>
<text text-anchor="start" x="2192.83" y="-285.3" font-family="Times,serif" font-size="14.00">effective_time :date</text>
<text text-anchor="start" x="2192.83" y="-271.3" font-family="Times,serif" font-size="14.00">active :boolean</text>
<text text-anchor="start" x="2192.83" y="-257.3" font-family="Times,serif" font-size="14.00">module_id :bigint</text>
<text text-anchor="start" x="2192.83" y="-243.3" font-family="Times,serif" font-size="14.00">concept_id :bigint</text>
<text text-anchor="start" x="2192.83" y="-229.3" font-family="Times,serif" font-size="14.00">language_code :character varying</text>
<text text-anchor="start" x="2192.83" y="-215.3" font-family="Times,serif" font-size="14.00">type_id :bigint</text>
<text text-anchor="start" x="2192.83" y="-201.3" font-family="Times,serif" font-size="14.00">term :character varying</text>
<text text-anchor="start" x="2192.83" y="-187.3" font-family="Times,serif" font-size="14.00">case_significance_id :bigint</text>
<text text-anchor="start" x="2192.83" y="-173.3" font-family="Times,serif" font-size="14.00">created_at :timestamp without time zone</text>
<text text-anchor="start" x="2192.83" y="-159.3" font-family="Times,serif" font-size="14.00">id :uuid</text>
</g>
<!-- SnomedctConcept&#45;&gt;SnomedctDescription -->
<g id="edge14" class="edge"><title>SnomedctConcept&#45;&gt;SnomedctDescription</title>
<path fill="none" stroke="#bb7b3c" d="M2204.06,-429.517C2214.99,-411.759 2226.84,-392.5 2238.51,-373.539"/>
<ellipse fill="none" stroke="#bb7b3c" cx="2201.93" cy="-432.974" rx="4.00002" ry="4.00002"/>
<polygon fill="#bb7b3c" stroke="#bb7b3c" points="2238.61,-373.371 2247.69,-367.213 2241.23,-369.113 2243.85,-364.855 2243.85,-364.855 2243.85,-364.855 2241.23,-369.113 2240.02,-362.496 2238.61,-373.371 2238.61,-373.371"/>
</g>
<!-- User&#45;&gt;Capability -->
<g id="edge16" class="edge"><title>User&#45;&gt;Capability</title>
<path fill="none" stroke="#6e37af" d="M804.442,-489.371C663.9,-468.173 455.247,-427.095 406.163,-365 377.849,-329.18 383.676,-203.734 390.602,-124.865"/>
<ellipse fill="none" stroke="#6e37af" cx="808.802" cy="-490.022" rx="4.00001" ry="4.00001"/>
<polygon fill="#6e37af" stroke="#6e37af" points="390.636,-124.495 396.02,-114.942 391.087,-119.516 391.539,-114.536 391.539,-114.536 391.539,-114.536 391.087,-119.516 387.057,-114.13 390.636,-124.495 390.636,-124.495"/>
<text text-anchor="middle" x="469.45" y="-254.3" font-family="Times,serif" font-size="14.00">individual_capabilities</text>
</g>
<!-- User&#45;&gt;Identity -->
<g id="edge18" class="edge"><title>User&#45;&gt;Identity</title>
<path fill="none" stroke="#23ec09" d="M1068.44,-472.341C1149.53,-448.42 1253.99,-412.279 1339.69,-365 1339.78,-364.949 1339.87,-364.898 1339.97,-364.846"/>
<ellipse fill="none" stroke="#23ec09" cx="1064.5" cy="-473.493" rx="4.00001" ry="4.00001"/>
<polygon fill="#23ec09" stroke="#23ec09" points="1339.92,-364.875 1350.83,-363.804 1344.25,-362.388 1348.59,-359.9 1348.59,-359.9 1348.59,-359.9 1344.25,-362.388 1346.35,-355.997 1339.92,-364.875 1339.92,-364.875"/>
</g>
<!-- User&#45;&gt;Issue -->
<g id="edge19" class="edge"><title>User&#45;&gt;Issue</title>
<path fill="none" stroke="#212cdf" d="M846.269,-423.784C807.528,-388.343 763.269,-347.854 728.384,-315.94"/>
<ellipse fill="none" stroke="#212cdf" cx="849.417" cy="-426.664" rx="4.00002" ry="4.00002"/>
<polygon fill="#212cdf" stroke="#212cdf" points="728.014,-315.602 723.673,-305.532 724.325,-312.227 720.636,-308.852 720.636,-308.852 720.636,-308.852 724.325,-312.227 717.598,-312.173 728.014,-315.602 728.014,-315.602"/>
</g>
<!-- User&#45;&gt;Member -->
<g id="edge15" class="edge"><title>User&#45;&gt;Member</title>
<path fill="none" stroke="#831756" d="M804.724,-497.171C644.474,-483.537 386.023,-453.423 309.032,-397 282.82,-377.79 265.457,-346.078 254.43,-317.948"/>
<ellipse fill="none" stroke="#831756" cx="808.769" cy="-497.511" rx="4" ry="4"/>
<polygon fill="#831756" stroke="#831756" points="254.426,-317.937 255.145,-306.995 252.678,-313.253 250.929,-308.569 250.929,-308.569 250.929,-308.569 252.678,-313.253 246.713,-310.142 254.426,-317.937 254.426,-317.937"/>
<text text-anchor="middle" x="346.015" y="-385.8" font-family="Times,serif" font-size="14.00">memberships</text>
</g>
<!-- User&#45;&gt;Participant -->
<g id="edge21" class="edge"><title>User&#45;&gt;Participant</title>
<path fill="none" stroke="#55cba4" d="M1068.79,-475.194C1147.34,-456.909 1249.02,-433.808 1339.69,-415 1457.47,-390.567 1496.26,-414.95 1605.69,-365 1632.79,-352.63 1659.22,-333.58 1681.29,-315.054"/>
<ellipse fill="none" stroke="#55cba4" cx="1064.68" cy="-476.153" rx="4.00001" ry="4.00001"/>
<polygon fill="#55cba4" stroke="#55cba4" points="1681.31,-315.037 1691.84,-311.954 1685.11,-311.786 1688.91,-308.535 1688.91,-308.535 1688.91,-308.535 1685.11,-311.786 1685.99,-305.116 1681.31,-315.037 1681.31,-315.037"/>
</g>
<!-- User&#45;&gt;Result -->
<g id="edge20" class="edge"><title>User&#45;&gt;Result</title>
<path fill="none" stroke="#7a7e8e" d="M936.688,-421.07C936.688,-389.875 936.688,-355.089 936.688,-325.808"/>
<ellipse fill="none" stroke="#7a7e8e" cx="936.688" cy="-425.364" rx="4" ry="4"/>
<polygon fill="#7a7e8e" stroke="#7a7e8e" points="936.688,-325.695 941.188,-315.695 936.688,-320.695 936.688,-315.695 936.688,-315.695 936.688,-315.695 936.688,-320.695 932.188,-315.695 936.688,-325.695 936.688,-325.695"/>
</g>
<!-- User&#45;&gt;Role -->
<g id="edge17" class="edge"><title>User&#45;&gt;Role</title>
<path fill="none" stroke="#6943da" d="M1023.61,-422.291C1037.59,-409.039 1051.97,-395.572 1065.7,-383 1087.49,-363.046 1111.56,-341.712 1133.55,-322.485"/>
<polygon fill="#6943da" stroke="#6943da" points="1023.59,-422.307 1013.24,-425.932 1019.97,-425.751 1016.34,-429.195 1016.34,-429.195 1016.34,-429.195 1019.97,-425.751 1019.44,-432.457 1023.59,-422.307 1023.59,-422.307"/>
<polygon fill="#6943da" stroke="#6943da" points="1133.7,-322.354 1144.19,-319.169 1137.46,-319.066 1141.23,-315.779 1141.23,-315.779 1141.23,-315.779 1137.46,-319.066 1138.27,-312.388 1133.7,-322.354 1133.7,-322.354"/>
<text text-anchor="middle" x="1111.18" y="-385.8" font-family="Times,serif" font-size="14.00">individual_roles</text>
</g>
</g>
</svg>
