<?xml version="1.0" encoding="UTF-8" standalone="no"?>
<!DOCTYPE svg PUBLIC "-//W3C//DTD SVG 1.1//EN"
 "http://www.w3.org/Graphics/SVG/1.1/DTD/svg11.dtd">
<!-- Generated by graphviz version 2.40.1 (20161225.0304)
 -->
<!-- Title: models_diagram Pages: 1 -->
<svg width="717pt" height="386pt"
 viewBox="0.00 0.00 716.68 386.00" xmlns="http://www.w3.org/2000/svg" xmlns:xlink="http://www.w3.org/1999/xlink">
<g id="graph0" class="graph" transform="scale(1 1) rotate(0) translate(4 382)">
<title>models_diagram</title>
<polygon fill="transparent" stroke="transparent" points="-4,4 -4,-382 712.6832,-382 712.6832,4 -4,4"/>
<!-- _diagram_info -->
<g id="node1" class="node">
<title>_diagram_info</title>
<text text-anchor="start" x="50.2286" y="-363.6" font-family="Times,serif" font-size="13.00" fill="#000000">Models diagram</text>
<text text-anchor="start" x="50.2286" y="-350.6" font-family="Times,serif" font-size="13.00" fill="#000000">Date: May 21 2018 &#45; 20:44</text>
<text text-anchor="start" x="50.2286" y="-337.6" font-family="Times,serif" font-size="13.00" fill="#000000">Migration version: 1</text>
<text text-anchor="start" x="50.2286" y="-324.6" font-family="Times,serif" font-size="13.00" fill="#000000">Generated by RailRoady 1.5.3</text>
<text text-anchor="start" x="50.2286" y="-311.6" font-family="Times,serif" font-size="13.00" fill="#000000">http://railroady.prestonlee.com</text>
</g>
<!-- Identity -->
<g id="node2" class="node">
<title>Identity</title>
<ellipse fill="none" stroke="#000000" cx="171.9488" cy="-91" rx="37.7266" ry="18"/>
<text text-anchor="middle" x="171.9488" y="-86.8" font-family="Times,serif" font-size="14.00" fill="#000000">Identity</text>
</g>
<!-- Session -->
<g id="node6" class="node">
<title>Session</title>
<ellipse fill="none" stroke="#000000" cx="100.9488" cy="-18" rx="37.2681" ry="18"/>
<text text-anchor="middle" x="100.9488" y="-13.8" font-family="Times,serif" font-size="14.00" fill="#000000">Session</text>
</g>
<!-- Identity&#45;&gt;Session -->
<g id="edge1" class="edge">
<title>Identity&#45;&gt;Session</title>
<path fill="none" stroke="#479542" d="M150.1289,-68.5654C141.8585,-60.062 132.4185,-50.3562 124.0353,-41.7367"/>
<ellipse fill="none" stroke="#479542" cx="153.0489" cy="-71.5677" rx="4" ry="4"/>
<polygon fill="#479542" stroke="#479542" points="123.9683,-41.6679 120.222,-31.3618 120.4822,-38.0836 116.9961,-34.4993 116.9961,-34.4993 116.9961,-34.4993 120.4822,-38.0836 113.7702,-37.6368 123.9683,-41.6679 123.9683,-41.6679"/>
</g>
<!-- JsonWebToken -->
<g id="node7" class="node">
<title>JsonWebToken</title>
<ellipse fill="none" stroke="#000000" cx="219.9488" cy="-18" rx="63.5968" ry="18"/>
<text text-anchor="middle" x="219.9488" y="-13.8" font-family="Times,serif" font-size="14.00" fill="#000000">JsonWebToken</text>
</g>
<!-- Identity&#45;&gt;JsonWebToken -->
<g id="edge2" class="edge">
<title>Identity&#45;&gt;JsonWebToken</title>
<path fill="none" stroke="#0106af" d="M187.7465,-66.9743C192.4231,-59.862 197.5721,-52.0314 202.3548,-44.7577"/>
<ellipse fill="none" stroke="#0106af" cx="185.5218" cy="-70.3578" rx="4" ry="4"/>
<polygon fill="#0106af" stroke="#0106af" points="202.6598,-44.2937 211.9139,-38.4105 205.4068,-40.1159 208.1539,-35.9381 208.1539,-35.9381 208.1539,-35.9381 205.4068,-40.1159 204.3939,-33.4658 202.6598,-44.2937 202.6598,-44.2937"/>
</g>
<!-- Group -->
<g id="node3" class="node">
<title>Group</title>
<ellipse fill="none" stroke="#000000" cx="262.9488" cy="-250" rx="32.9081" ry="18"/>
<text text-anchor="middle" x="262.9488" y="-245.8" font-family="Times,serif" font-size="14.00" fill="#000000">Group</text>
</g>
<!-- Capability -->
<g id="node4" class="node">
<title>Capability</title>
<ellipse fill="none" stroke="#000000" cx="46.9488" cy="-91" rx="46.8977" ry="18"/>
<text text-anchor="middle" x="46.9488" y="-86.8" font-family="Times,serif" font-size="14.00" fill="#000000">Capability</text>
</g>
<!-- Group&#45;&gt;Capability -->
<g id="edge5" class="edge">
<title>Group&#45;&gt;Capability</title>
<path fill="none" stroke="#11a6b6" d="M223.0834,-243.9486C171.8438,-235.3457 86.9631,-218.0321 65.9488,-195 47.473,-174.7502 44.0879,-142.7317 44.4741,-119.5679"/>
<ellipse fill="none" stroke="#11a6b6" cx="227.0566" cy="-244.6035" rx="4" ry="4"/>
<polygon fill="#11a6b6" stroke="#11a6b6" points="44.4849,-119.3022 49.3925,-109.4958 44.6906,-114.3065 44.8963,-109.3107 44.8963,-109.3107 44.8963,-109.3107 44.6906,-114.3065 40.4001,-109.1255 44.4849,-119.3022 44.4849,-119.3022"/>
</g>
<!-- Member -->
<g id="node5" class="node">
<title>Member</title>
<ellipse fill="none" stroke="#000000" cx="275.9488" cy="-91" rx="40.1317" ry="18"/>
<text text-anchor="middle" x="275.9488" y="-86.8" font-family="Times,serif" font-size="14.00" fill="#000000">Member</text>
</g>
<!-- Group&#45;&gt;Member -->
<g id="edge3" class="edge">
<title>Group&#45;&gt;Member</title>
<path fill="none" stroke="#21a404" d="M285.3424,-228.3201C293.4811,-218.936 301.7147,-207.2903 305.9488,-195 315.81,-166.3766 313.0353,-155.1715 301.9488,-127 300.539,-123.4175 298.6898,-119.8627 296.6264,-116.4613"/>
<ellipse fill="none" stroke="#21a404" cx="282.4666" cy="-231.4781" rx="4" ry="4"/>
<polygon fill="#21a404" stroke="#21a404" points="296.4333,-116.1767 294.5422,-105.3751 293.6259,-112.0392 290.8185,-107.9017 290.8185,-107.9017 290.8185,-107.9017 293.6259,-112.0392 287.0948,-110.4284 296.4333,-116.1767 296.4333,-116.1767"/>
</g>
<!-- Person -->
<g id="node10" class="node">
<title>Person</title>
<ellipse fill="none" stroke="#000000" cx="262.9488" cy="-177" rx="34.3614" ry="18"/>
<text text-anchor="middle" x="262.9488" y="-172.8" font-family="Times,serif" font-size="14.00" fill="#000000">Person</text>
</g>
<!-- Group&#45;&gt;Person -->
<g id="edge4" class="edge">
<title>Group&#45;&gt;Person</title>
<path fill="none" stroke="#b8dbab" d="M262.9488,-221.8688C262.9488,-216.3894 262.9488,-210.6439 262.9488,-205.1634"/>
<polygon fill="#b8dbab" stroke="#b8dbab" points="262.9489,-221.9551 258.4488,-231.955 262.9489,-226.9551 262.9488,-231.9551 262.9488,-231.9551 262.9488,-231.9551 262.9489,-226.9551 267.4488,-231.9551 262.9489,-221.9551 262.9489,-221.9551"/>
<polygon fill="#b8dbab" stroke="#b8dbab" points="262.9489,-205.0904 267.4488,-195.0903 262.9489,-200.0904 262.9488,-195.0904 262.9488,-195.0904 262.9488,-195.0904 262.9489,-200.0904 258.4488,-195.0904 262.9489,-205.0904 262.9489,-205.0904"/>
</g>
<!-- Role -->
<g id="node8" class="node">
<title>Role</title>
<ellipse fill="none" stroke="#000000" cx="262.9488" cy="-341.5" rx="27" ry="18"/>
<text text-anchor="middle" x="262.9488" y="-337.3" font-family="Times,serif" font-size="14.00" fill="#000000">Role</text>
</g>
<!-- Role&#45;&gt;Group -->
<g id="edge8" class="edge">
<title>Role&#45;&gt;Group</title>
<path fill="none" stroke="#e71531" d="M262.9488,-313.2998C262.9488,-302.1245 262.9488,-289.3026 262.9488,-278.1338"/>
<polygon fill="#e71531" stroke="#e71531" points="262.9489,-313.4225 258.4488,-323.4225 262.9489,-318.4225 262.9488,-323.4225 262.9488,-323.4225 262.9488,-323.4225 262.9489,-318.4225 267.4488,-323.4226 262.9489,-313.4225 262.9489,-313.4225"/>
<polygon fill="#e71531" stroke="#e71531" points="262.9489,-278.0399 267.4488,-268.0399 262.9489,-273.0399 262.9488,-268.0399 262.9488,-268.0399 262.9488,-268.0399 262.9489,-273.0399 258.4488,-268.0399 262.9489,-278.0399 262.9489,-278.0399"/>
</g>
<!-- Role&#45;&gt;Capability -->
<g id="edge6" class="edge">
<title>Role&#45;&gt;Capability</title>
<path fill="none" stroke="#cf6b74" d="M243.32,-319.8147C238.2209,-314.6939 232.5738,-309.4379 226.9488,-305 152.7467,-246.4579 94.3947,-275.5496 44.9488,-195 31.0023,-172.2804 33.8052,-141.181 38.6781,-118.921"/>
<ellipse fill="none" stroke="#cf6b74" cx="246.2389" cy="-322.8319" rx="4" ry="4"/>
<polygon fill="#cf6b74" stroke="#cf6b74" points="38.7099,-118.7909 45.4613,-110.1498 39.9003,-113.9346 41.0907,-109.0784 41.0907,-109.0784 41.0907,-109.0784 39.9003,-113.9346 36.7201,-108.007 38.7099,-118.7909 38.7099,-118.7909"/>
</g>
<!-- Role&#45;&gt;Person -->
<g id="edge7" class="edge">
<title>Role&#45;&gt;Person</title>
<path fill="none" stroke="#0b90dc" d="M282.2752,-317.5598C297.6437,-295.5102 315.0253,-261.7983 304.9488,-232 301.1182,-220.6721 293.9175,-209.8388 286.5463,-200.8279"/>
<polygon fill="#0b90dc" stroke="#0b90dc" points="282.2339,-317.6162 272.6982,-323.031 279.2821,-321.6519 276.3303,-325.6876 276.3303,-325.6876 276.3303,-325.6876 279.2821,-321.6519 279.9625,-328.3442 282.2339,-317.6162 282.2339,-317.6162"/>
<polygon fill="#0b90dc" stroke="#0b90dc" points="286.387,-200.645 283.2145,-190.148 283.1038,-196.8739 279.8206,-193.1029 279.8206,-193.1029 279.8206,-193.1029 283.1038,-196.8739 276.4267,-196.0578 286.387,-200.645 286.387,-200.645"/>
</g>
<!-- Client -->
<g id="node9" class="node">
<title>Client</title>
<ellipse fill="none" stroke="#000000" cx="339.9488" cy="-341.5" rx="31.948" ry="18"/>
<text text-anchor="middle" x="339.9488" y="-337.3" font-family="Times,serif" font-size="14.00" fill="#000000">Client</text>
</g>
<!-- Person&#45;&gt;Identity -->
<g id="edge12" class="edge">
<title>Person&#45;&gt;Identity</title>
<path fill="none" stroke="#433b29" d="M236.268,-157.3895C229.7634,-152.2675 222.9534,-146.6052 216.9488,-141 208.5386,-133.1491 199.9372,-123.9361 192.5373,-115.572"/>
<ellipse fill="none" stroke="#433b29" cx="239.4655" cy="-159.8622" rx="4" ry="4"/>
<polygon fill="#433b29" stroke="#433b29" points="192.4162,-115.4327 189.2525,-104.933 189.1361,-111.6589 185.8561,-107.8851 185.8561,-107.8851 185.8561,-107.8851 189.1361,-111.6589 182.4597,-110.8371 192.4162,-115.4327 192.4162,-115.4327"/>
</g>
<!-- Person&#45;&gt;Capability -->
<g id="edge11" class="edge">
<title>Person&#45;&gt;Capability</title>
<path fill="none" stroke="#b8f95a" d="M228.5194,-162.5093C225.6235,-161.3143 222.7376,-160.1316 219.9488,-159 175.6683,-141.032 124.7316,-121.0989 89.6544,-107.4858"/>
<ellipse fill="none" stroke="#b8f95a" cx="232.4544" cy="-164.1419" rx="4" ry="4"/>
<polygon fill="#b8f95a" stroke="#b8f95a" points="89.524,-107.4354 81.8267,-99.625 84.862,-105.628 80.2001,-103.8207 80.2001,-103.8207 80.2001,-103.8207 84.862,-105.628 78.5735,-108.0165 89.524,-107.4354 89.524,-107.4354"/>
</g>
<!-- Person&#45;&gt;Member -->
<g id="edge10" class="edge">
<title>Person&#45;&gt;Member</title>
<path fill="none" stroke="#9938a8" d="M234.2992,-158.0971C224.5491,-149.2006 217.4273,-138.1169 223.2936,-127 226.8822,-120.1993 232.3979,-114.4393 238.5314,-109.6558"/>
<ellipse fill="none" stroke="#9938a8" cx="237.5375" cy="-160.7816" rx="4" ry="4"/>
<polygon fill="#9938a8" stroke="#9938a8" points="238.9125,-109.3941 249.7031,-107.4412 243.0338,-106.563 247.1551,-103.732 247.1551,-103.732 247.1551,-103.732 243.0338,-106.563 244.6072,-100.0228 238.9125,-109.3941 238.9125,-109.3941"/>
<text text-anchor="middle" x="260.2765" y="-129.8" font-family="Times,serif" font-size="14.00" fill="#000000">memberships</text>
</g>
<!-- Event -->
<g id="node11" class="node">
<title>Event</title>
<ellipse fill="none" stroke="#000000" cx="382.9488" cy="-91" rx="30.9706" ry="18"/>
<text text-anchor="middle" x="382.9488" y="-86.8" font-family="Times,serif" font-size="14.00" fill="#000000">Event</text>
</g>
<!-- Person&#45;&gt;Event -->
<g id="edge9" class="edge">
<title>Person&#45;&gt;Event</title>
<path fill="none" stroke="#2f6bc1" d="M289.9143,-157.6748C309.3228,-143.7653 335.4314,-125.0542 355.0501,-110.9941"/>
<ellipse fill="none" stroke="#2f6bc1" cx="286.5565" cy="-160.0812" rx="4" ry="4"/>
<polygon fill="#2f6bc1" stroke="#2f6bc1" points="355.1625,-110.9136 365.9121,-108.746 359.2266,-108.0009 363.2907,-105.0883 363.2907,-105.0883 363.2907,-105.0883 359.2266,-108.0009 360.6694,-101.4306 355.1625,-110.9136 355.1625,-110.9136"/>
</g>
<!-- Event&#45;&gt;Event -->
<g id="edge14" class="edge">
<title>Event&#45;&gt;Event</title>
<path fill="none" stroke="#a7cf7f" d="M422.0298,-93.0367C427.7921,-92.7171 431.6832,-92.0382 431.6832,-91 431.6832,-90.0771 428.6088,-89.4382 423.8785,-89.0831"/>
<ellipse fill="none" stroke="#a7cf7f" cx="417.8809" cy="-93.145" rx="4" ry="4"/>
<polygon fill="#a7cf7f" stroke="#a7cf7f" points="423.8767,-89.0831 414.0319,-84.253 418.8795,-88.9168 413.8822,-88.7505 413.8822,-88.7505 413.8822,-88.7505 418.8795,-88.9168 413.7326,-93.2481 423.8767,-89.0831 423.8767,-89.0831"/>
<text text-anchor="middle" x="467.0626" y="-86.8" font-family="Times,serif" font-size="14.00" fill="#000000">child_events</text>
</g>
<!-- Event&#45;&gt;Event -->
<g id="edge15" class="edge">
<title>Event&#45;&gt;Event</title>
<path fill="none" stroke="#1feef9" d="M421.721,-94.9176C457.4915,-96.3851 502.442,-95.0792 502.442,-91 502.442,-86.9896 458.996,-85.6598 423.5398,-87.0104"/>
<ellipse fill="none" stroke="#1feef9" cx="417.3182" cy="-94.7046" rx="4" ry="4"/>
<polygon fill="#1feef9" stroke="#1feef9" points="423.3119,-87.021 413.1124,-82.9937 418.3174,-87.2549 413.3229,-87.4888 413.3229,-87.4888 413.3229,-87.4888 418.3174,-87.2549 413.5334,-91.9838 423.3119,-87.021 423.3119,-87.021"/>
<text text-anchor="middle" x="547.9317" y="-86.8" font-family="Times,serif" font-size="14.00" fill="#000000">previous_events</text>
</g>
<!-- Event&#45;&gt;Event -->
<g id="edge16" class="edge">
<title>Event&#45;&gt;Event</title>
<path fill="none" stroke="#1a5b83" d="M421.3971,-95.6974C483.7678,-99.5473 593.4215,-97.9815 593.4215,-91 593.4215,-84.0898 485.9942,-82.4852 423.321,-86.1864"/>
<ellipse fill="none" stroke="#1a5b83" cx="417.2871" cy="-95.4178" rx="4" ry="4"/>
<polygon fill="#1a5b83" stroke="#1a5b83" points="423.2742,-86.1894 412.9973,-82.3638 418.2853,-86.5216 413.2963,-86.8539 413.2963,-86.8539 413.2963,-86.8539 418.2853,-86.5216 413.5953,-91.3439 423.2742,-86.1894 423.2742,-86.1894"/>
<text text-anchor="middle" x="634.2423" y="-86.8" font-family="Times,serif" font-size="14.00" fill="#000000">scoped_events</text>
</g>
<!-- Objective -->
<g id="node14" class="node">
<title>Objective</title>
<ellipse fill="none" stroke="#000000" cx="382.9488" cy="-18" rx="44.4664" ry="18"/>
<text text-anchor="middle" x="382.9488" y="-13.8" font-family="Times,serif" font-size="14.00" fill="#000000">Objective</text>
</g>
<!-- Event&#45;&gt;Objective -->
<g id="edge13" class="edge">
<title>Event&#45;&gt;Objective</title>
<path fill="none" stroke="#009042" d="M382.9488,-64.9079C382.9488,-58.9427 382.9488,-52.5729 382.9488,-46.512"/>
<ellipse fill="none" stroke="#009042" cx="382.9489" cy="-68.9551" rx="4" ry="4"/>
<polygon fill="#009042" stroke="#009042" points="382.9489,-46.0904 387.4488,-36.0903 382.9489,-41.0904 382.9488,-36.0904 382.9488,-36.0904 382.9488,-36.0904 382.9489,-41.0904 378.4488,-36.0904 382.9489,-46.0904 382.9489,-46.0904"/>
</g>
<!-- IdentityProvider -->
<g id="node12" class="node">
<title>IdentityProvider</title>
<ellipse fill="none" stroke="#000000" cx="142.9488" cy="-177" rx="68.1374" ry="18"/>
<text text-anchor="middle" x="142.9488" y="-172.8" font-family="Times,serif" font-size="14.00" fill="#000000">IdentityProvider</text>
</g>
<!-- IdentityProvider&#45;&gt;Identity -->
<g id="edge17" class="edge">
<title>IdentityProvider&#45;&gt;Identity</title>
<path fill="none" stroke="#851069" d="M151.6794,-151.1094C155.1604,-140.7863 159.1715,-128.8913 162.7022,-118.4211"/>
<ellipse fill="none" stroke="#851069" cx="150.3772" cy="-154.9713" rx="4" ry="4"/>
<polygon fill="#851069" stroke="#851069" points="162.7116,-118.393 170.1711,-110.3551 164.3093,-113.6551 165.907,-108.9172 165.907,-108.9172 165.907,-108.9172 164.3093,-113.6551 161.6429,-107.4793 162.7116,-118.393 162.7116,-118.393"/>
</g>
<!-- Place -->
<g id="node13" class="node">
<title>Place</title>
<ellipse fill="none" stroke="#000000" cx="389.9488" cy="-177" rx="29.0172" ry="18"/>
<text text-anchor="middle" x="389.9488" y="-172.8" font-family="Times,serif" font-size="14.00" fill="#000000">Place</text>
</g>
<!-- Place&#45;&gt;Event -->
<g id="edge18" class="edge">
<title>Place&#45;&gt;Event</title>
<path fill="none" stroke="#06576a" d="M387.8149,-150.7834C387.0026,-140.8033 386.0738,-129.3925 385.2469,-119.2334"/>
<ellipse fill="none" stroke="#06576a" cx="388.1398" cy="-154.7748" rx="4" ry="4"/>
<polygon fill="#06576a" stroke="#06576a" points="385.2426,-119.1791 388.9164,-108.847 384.8369,-114.1956 384.4312,-109.2121 384.4312,-109.2121 384.4312,-109.2121 384.8369,-114.1956 379.9461,-109.5772 385.2426,-119.1791 385.2426,-119.1791"/>
</g>
</g>
</svg>
