<?xml version="1.0" encoding="UTF-8" standalone="no"?>
<!DOCTYPE svg PUBLIC "-//W3C//DTD SVG 1.1//EN"
 "http://www.w3.org/Graphics/SVG/1.1/DTD/svg11.dtd">
<!-- Generated by graphviz version 2.40.1 (20161225.0304)
 -->
<!-- Title: models_diagram Pages: 1 -->
<svg width="1174pt" height="399pt"
 viewBox="0.00 0.00 1173.73 399.00" xmlns="http://www.w3.org/2000/svg" xmlns:xlink="http://www.w3.org/1999/xlink">
<g id="graph0" class="graph" transform="scale(1 1) rotate(0) translate(4 395)">
<title>models_diagram</title>
<polygon fill="transparent" stroke="transparent" points="-4,4 -4,-395 1169.7314,-395 1169.7314,4 -4,4"/>
<!-- _diagram_info -->
<g id="node1" class="node">
<title>_diagram_info</title>
<text text-anchor="start" x="536.1059" y="-376.6" font-family="Times,serif" font-size="13.00" fill="#000000">Models diagram</text>
<text text-anchor="start" x="536.1059" y="-363.6" font-family="Times,serif" font-size="13.00" fill="#000000">Date: Oct 26 2017 &#45; 14:58</text>
<text text-anchor="start" x="536.1059" y="-350.6" font-family="Times,serif" font-size="13.00" fill="#000000">Migration version: 1</text>
<text text-anchor="start" x="536.1059" y="-337.6" font-family="Times,serif" font-size="13.00" fill="#000000">Generated by RailRoady 1.5.3</text>
<text text-anchor="start" x="536.1059" y="-324.6" font-family="Times,serif" font-size="13.00" fill="#000000">http://railroady.prestonlee.com</text>
</g>
<!-- Context::UsageRole -->
<g id="node2" class="node">
<title>Context::UsageRole</title>
<ellipse fill="none" stroke="#000000" cx="81.8261" cy="-91" rx="81.6526" ry="18"/>
<text text-anchor="middle" x="81.8261" y="-86.8" font-family="Times,serif" font-size="14.00" fill="#000000">Context::UsageRole</text>
</g>
<!-- Context::Activity -->
<g id="node3" class="node">
<title>Context::Activity</title>
<ellipse fill="none" stroke="#000000" cx="245.8261" cy="-177" rx="72.0135" ry="18"/>
<text text-anchor="middle" x="245.8261" y="-172.8" font-family="Times,serif" font-size="14.00" fill="#000000">Context::Activity</text>
</g>
<!-- Context::Activity&#45;&gt;Context::UsageRole -->
<g id="edge2" class="edge">
<title>Context::Activity&#45;&gt;Context::UsageRole</title>
<path fill="none" stroke="#cf43b2" d="M207.1907,-156.74C181.7646,-143.4068 148.5292,-125.9785 122.6678,-112.417"/>
<ellipse fill="none" stroke="#cf43b2" cx="211.0505" cy="-158.764" rx="4" ry="4"/>
<polygon fill="#cf43b2" stroke="#cf43b2" points="122.3578,-112.2545 115.5915,-103.625 117.9297,-109.9324 113.5016,-107.6103 113.5016,-107.6103 113.5016,-107.6103 117.9297,-109.9324 111.4118,-111.5956 122.3578,-112.2545 122.3578,-112.2545"/>
<text text-anchor="middle" x="206.871" y="-129.8" font-family="Times,serif" font-size="14.00" fill="#000000">usage_roles</text>
</g>
<!-- Context::Activity&#45;&gt;Context::Activity -->
<g id="edge4" class="edge">
<title>Context::Activity&#45;&gt;Context::Activity</title>
<path fill="none" stroke="#c3ddcc" d="M325.7912,-178.9828C332.0016,-178.5453 335.8329,-177.8844 335.8329,-177 335.8329,-176.2117 332.7892,-175.601 327.7301,-175.1678"/>
<ellipse fill="none" stroke="#c3ddcc" cx="321.49" cy="-179.1957" rx="4" ry="4"/>
<polygon fill="#c3ddcc" stroke="#c3ddcc" points="327.4798,-175.1542 317.7414,-170.1131 322.4873,-174.8803 317.4949,-174.6064 317.4949,-174.6064 317.4949,-174.6064 322.4873,-174.8803 317.2483,-179.0996 327.4798,-175.1542 327.4798,-175.1542"/>
<text text-anchor="middle" x="378.5985" y="-172.8" font-family="Times,serif" font-size="14.00" fill="#000000">child_activities</text>
</g>
<!-- Context::Activity&#45;&gt;Context::Activity -->
<g id="edge5" class="edge">
<title>Context::Activity&#45;&gt;Context::Activity</title>
<path fill="none" stroke="#1fa359" d="M323.5989,-182.0475C371.4313,-182.8699 421.3641,-181.1874 421.3641,-177 421.3641,-172.8645 372.6616,-171.1722 325.3786,-171.9231"/>
<ellipse fill="none" stroke="#1fa359" cx="319.3277" cy="-181.9608" rx="4" ry="4"/>
<polygon fill="#1fa359" stroke="#1fa359" points="325.3266,-171.924 315.2402,-167.6213 320.3276,-172.0222 315.3285,-172.1204 315.3285,-172.1204 315.3285,-172.1204 320.3276,-172.0222 315.4169,-176.6196 325.3266,-171.924 325.3266,-171.924"/>
<text text-anchor="middle" x="474.2401" y="-172.8" font-family="Times,serif" font-size="14.00" fill="#000000">previous_activities</text>
</g>
<!-- Context::Activity&#45;&gt;Context::Activity -->
<g id="edge6" class="edge">
<title>Context::Activity&#45;&gt;Context::Activity</title>
<path fill="none" stroke="#5520f4" d="M321.6631,-183.492C406.6495,-186.6141 527.1161,-184.4501 527.1161,-177 527.1161,-169.61 408.5847,-167.4211 323.7261,-170.4335"/>
<ellipse fill="none" stroke="#5520f4" cx="317.5516" cy="-183.3305" rx="4" ry="4"/>
<polygon fill="#5520f4" stroke="#5520f4" points="323.5472,-170.4403 313.3808,-166.33 318.5509,-170.6335 313.5546,-170.8266 313.5546,-170.8266 313.5546,-170.8266 318.5509,-170.6335 313.7285,-175.3233 323.5472,-170.4403 323.5472,-170.4403"/>
<text text-anchor="middle" x="575.3231" y="-172.8" font-family="Times,serif" font-size="14.00" fill="#000000">scoped_activities</text>
</g>
<!-- Context::ActorRole -->
<g id="node5" class="node">
<title>Context::ActorRole</title>
<ellipse fill="none" stroke="#000000" cx="504.8261" cy="-91" rx="79.723" ry="18"/>
<text text-anchor="middle" x="504.8261" y="-86.8" font-family="Times,serif" font-size="14.00" fill="#000000">Context::ActorRole</text>
</g>
<!-- Context::Activity&#45;&gt;Context::ActorRole -->
<g id="edge1" class="edge">
<title>Context::Activity&#45;&gt;Context::ActorRole</title>
<path fill="none" stroke="#47b749" d="M296.8748,-160.0495C341.0284,-145.3884 404.7079,-124.2439 449.9462,-109.2227"/>
<ellipse fill="none" stroke="#47b749" cx="292.9731" cy="-161.345" rx="4" ry="4"/>
<polygon fill="#47b749" stroke="#47b749" points="450.1009,-109.1714 461.0096,-110.2907 454.8462,-107.5957 459.5914,-106.02 459.5914,-106.02 459.5914,-106.02 454.8462,-107.5957 458.1733,-101.7493 450.1009,-109.1714 450.1009,-109.1714"/>
<text text-anchor="middle" x="421.9228" y="-129.8" font-family="Times,serif" font-size="14.00" fill="#000000">actor_roles</text>
</g>
<!-- Context::Objective -->
<g id="node7" class="node">
<title>Context::Objective</title>
<ellipse fill="none" stroke="#000000" cx="258.8261" cy="-91" rx="77.3003" ry="18"/>
<text text-anchor="middle" x="258.8261" y="-86.8" font-family="Times,serif" font-size="14.00" fill="#000000">Context::Objective</text>
</g>
<!-- Context::Activity&#45;&gt;Context::Objective -->
<g id="edge3" class="edge">
<title>Context::Activity&#45;&gt;Context::Objective</title>
<path fill="none" stroke="#46a77d" d="M249.7891,-150.7834C251.2977,-140.8033 253.0226,-129.3925 254.5583,-119.2334"/>
<ellipse fill="none" stroke="#46a77d" cx="249.181" cy="-154.8065" rx="4" ry="4"/>
<polygon fill="#46a77d" stroke="#46a77d" points="254.5784,-119.0998 260.5226,-109.8847 255.3258,-114.1559 256.0731,-109.2121 256.0731,-109.2121 256.0731,-109.2121 255.3258,-114.1559 251.6237,-108.5395 254.5784,-119.0998 254.5784,-119.0998"/>
<text text-anchor="middle" x="281.2055" y="-129.8" font-family="Times,serif" font-size="14.00" fill="#000000">objectives</text>
</g>
<!-- Context::Asset -->
<g id="node4" class="node">
<title>Context::Asset</title>
<ellipse fill="none" stroke="#000000" cx="80.8261" cy="-177" rx="62.8512" ry="18"/>
<text text-anchor="middle" x="80.8261" y="-172.8" font-family="Times,serif" font-size="14.00" fill="#000000">Context::Asset</text>
</g>
<!-- Context::Asset&#45;&gt;Context::UsageRole -->
<g id="edge7" class="edge">
<title>Context::Asset&#45;&gt;Context::UsageRole</title>
<path fill="none" stroke="#289c21" d="M81.1354,-150.4021C81.2496,-140.585 81.3793,-129.4263 81.4953,-119.4515"/>
<ellipse fill="none" stroke="#289c21" cx="81.0848" cy="-154.7619" rx="4" ry="4"/>
<polygon fill="#289c21" stroke="#289c21" points="81.498,-119.2114 86.114,-109.2645 81.5562,-114.2118 81.6144,-109.2121 81.6144,-109.2121 81.6144,-109.2121 81.5562,-114.2118 77.1147,-109.1597 81.498,-119.2114 81.498,-119.2114"/>
<text text-anchor="middle" x="114.871" y="-129.8" font-family="Times,serif" font-size="14.00" fill="#000000">usage_roles</text>
</g>
<!-- Context::Place -->
<g id="node6" class="node">
<title>Context::Place</title>
<ellipse fill="none" stroke="#000000" cx="245.8261" cy="-263" rx="62.3494" ry="18"/>
<text text-anchor="middle" x="245.8261" y="-258.8" font-family="Times,serif" font-size="14.00" fill="#000000">Context::Place</text>
</g>
<!-- Context::Place&#45;&gt;Context::Activity -->
<g id="edge8" class="edge">
<title>Context::Place&#45;&gt;Context::Activity</title>
<path fill="none" stroke="#549858" d="M245.8261,-236.4021C245.8261,-226.585 245.8261,-215.4263 245.8261,-205.4515"/>
<ellipse fill="none" stroke="#549858" cx="245.8262" cy="-240.7616" rx="4" ry="4"/>
<polygon fill="#549858" stroke="#549858" points="245.8262,-205.2121 250.3261,-195.2121 245.8262,-200.2121 245.8261,-195.2121 245.8261,-195.2121 245.8261,-195.2121 245.8262,-200.2121 241.3261,-195.2121 245.8262,-205.2121 245.8262,-205.2121"/>
<text text-anchor="middle" x="271.0952" y="-215.8" font-family="Times,serif" font-size="14.00" fill="#000000">activities</text>
</g>
<!-- System::Identity -->
<g id="node8" class="node">
<title>System::Identity</title>
<ellipse fill="none" stroke="#000000" cx="912.8261" cy="-91" rx="68.6392" ry="18"/>
<text text-anchor="middle" x="912.8261" y="-86.8" font-family="Times,serif" font-size="14.00" fill="#000000">System::Identity</text>
</g>
<!-- System::Session -->
<g id="node12" class="node">
<title>System::Session</title>
<ellipse fill="none" stroke="#000000" cx="821.8261" cy="-18" rx="68.1806" ry="18"/>
<text text-anchor="middle" x="821.8261" y="-13.8" font-family="Times,serif" font-size="14.00" fill="#000000">System::Session</text>
</g>
<!-- System::Identity&#45;&gt;System::Session -->
<g id="edge9" class="edge">
<title>System::Identity&#45;&gt;System::Session</title>
<path fill="none" stroke="#3ac42a" d="M884.8968,-68.5951C874.2122,-60.024 862.0003,-50.2276 851.186,-41.5524"/>
<ellipse fill="none" stroke="#3ac42a" cx="888.1403" cy="-71.197" rx="4" ry="4"/>
<polygon fill="#3ac42a" stroke="#3ac42a" points="851.0374,-41.4332 846.0529,-31.6656 847.1372,-38.3045 843.2371,-35.1758 843.2371,-35.1758 843.2371,-35.1758 847.1372,-38.3045 840.4212,-38.686 851.0374,-41.4332 851.0374,-41.4332"/>
</g>
<!-- System::JsonWebToken -->
<g id="node13" class="node">
<title>System::JsonWebToken</title>
<ellipse fill="none" stroke="#000000" cx="1002.8261" cy="-18" rx="94.5097" ry="18"/>
<text text-anchor="middle" x="1002.8261" y="-13.8" font-family="Times,serif" font-size="14.00" fill="#000000">System::JsonWebToken</text>
</g>
<!-- System::Identity&#45;&gt;System::JsonWebToken -->
<g id="edge10" class="edge">
<title>System::Identity&#45;&gt;System::JsonWebToken</title>
<path fill="none" stroke="#d18e91" d="M940.7109,-68.3823C950.9531,-60.0748 962.5853,-50.6398 972.992,-42.1988"/>
<ellipse fill="none" stroke="#d18e91" cx="937.2614" cy="-71.1802" rx="4" ry="4"/>
<polygon fill="#d18e91" stroke="#d18e91" points="973.2588,-41.9824 983.86,-39.1778 977.1421,-38.8326 981.0253,-35.6829 981.0253,-35.6829 981.0253,-35.6829 977.1421,-38.8326 978.1905,-32.188 973.2588,-41.9824 973.2588,-41.9824"/>
</g>
<!-- System::Group -->
<g id="node9" class="node">
<title>System::Group</title>
<ellipse fill="none" stroke="#000000" cx="778.8261" cy="-263" rx="63.8202" ry="18"/>
<text text-anchor="middle" x="778.8261" y="-258.8" font-family="Times,serif" font-size="14.00" fill="#000000">System::Group</text>
</g>
<!-- System::Capability -->
<g id="node10" class="node">
<title>System::Capability</title>
<ellipse fill="none" stroke="#000000" cx="1087.8261" cy="-91" rx="77.8107" ry="18"/>
<text text-anchor="middle" x="1087.8261" y="-86.8" font-family="Times,serif" font-size="14.00" fill="#000000">System::Capability</text>
</g>
<!-- System::Group&#45;&gt;System::Capability -->
<g id="edge13" class="edge">
<title>System::Group&#45;&gt;System::Capability</title>
<path fill="none" stroke="#d0f436" d="M846.6345,-255.6782C922.5116,-246.06 1038.7737,-226.582 1068.8261,-195 1087.9176,-174.9368 1091.1043,-142.394 1090.5026,-119.053"/>
<ellipse fill="none" stroke="#d0f436" cx="842.4766" cy="-256.196" rx="4" ry="4"/>
<polygon fill="#d0f436" stroke="#d0f436" points="1090.5021,-119.0418 1094.4975,-108.8297 1090.2526,-114.048 1090.0031,-109.0543 1090.0031,-109.0543 1090.0031,-109.0543 1090.2526,-114.048 1085.5087,-109.2788 1090.5021,-119.0418 1090.5021,-119.0418"/>
</g>
<!-- System::Member -->
<g id="node11" class="node">
<title>System::Member</title>
<ellipse fill="none" stroke="#000000" cx="714.8261" cy="-91" rx="71.0445" ry="18"/>
<text text-anchor="middle" x="714.8261" y="-86.8" font-family="Times,serif" font-size="14.00" fill="#000000">System::Member</text>
</g>
<!-- System::Group&#45;&gt;System::Member -->
<g id="edge11" class="edge">
<title>System::Group&#45;&gt;System::Member</title>
<path fill="none" stroke="#b60559" d="M746.1837,-241.6643C730.9264,-229.8415 714.1111,-213.7415 704.8261,-195 691.3734,-167.8459 693.8831,-156.7153 699.8261,-127 700.3988,-124.1368 701.2041,-121.2166 702.1476,-118.34"/>
<ellipse fill="none" stroke="#b60559" cx="749.3978" cy="-244.0686" rx="4" ry="4"/>
<polygon fill="#b60559" stroke="#b60559" points="702.1934,-118.2194 709.9554,-110.4734 703.9715,-113.5463 705.7496,-108.8731 705.7496,-108.8731 705.7496,-108.8731 703.9715,-113.5463 701.5437,-107.2728 702.1934,-118.2194 702.1934,-118.2194"/>
</g>
<!-- System::Person -->
<g id="node16" class="node">
<title>System::Person</title>
<ellipse fill="none" stroke="#000000" cx="778.8261" cy="-177" rx="65.2736" ry="18"/>
<text text-anchor="middle" x="778.8261" y="-172.8" font-family="Times,serif" font-size="14.00" fill="#000000">System::Person</text>
</g>
<!-- System::Group&#45;&gt;System::Person -->
<g id="edge12" class="edge">
<title>System::Group&#45;&gt;System::Person</title>
<path fill="none" stroke="#9ac7f3" d="M778.8261,-234.4762C778.8261,-225.0721 778.8261,-214.6222 778.8261,-205.2395"/>
<polygon fill="#9ac7f3" stroke="#9ac7f3" points="778.8262,-234.7616 774.3261,-244.7616 778.8262,-239.7616 778.8261,-244.7616 778.8261,-244.7616 778.8261,-244.7616 778.8262,-239.7616 783.3261,-244.7617 778.8262,-234.7616 778.8262,-234.7616"/>
<polygon fill="#9ac7f3" stroke="#9ac7f3" points="778.8262,-205.2121 783.3261,-195.2121 778.8262,-200.2121 778.8261,-195.2121 778.8261,-195.2121 778.8261,-195.2121 778.8262,-200.2121 774.3261,-195.2121 778.8262,-205.2121 778.8262,-205.2121"/>
</g>
<!-- System::Role -->
<g id="node14" class="node">
<title>System::Role</title>
<ellipse fill="none" stroke="#000000" cx="778.8261" cy="-354.5" rx="57.5323" ry="18"/>
<text text-anchor="middle" x="778.8261" y="-350.3" font-family="Times,serif" font-size="14.00" fill="#000000">System::Role</text>
</g>
<!-- System::Role&#45;&gt;System::Group -->
<g id="edge16" class="edge">
<title>System::Role&#45;&gt;System::Group</title>
<path fill="none" stroke="#39dd38" d="M778.8261,-326.2998C778.8261,-315.1245 778.8261,-302.3026 778.8261,-291.1338"/>
<polygon fill="#39dd38" stroke="#39dd38" points="778.8262,-326.4225 774.3261,-336.4225 778.8262,-331.4225 778.8261,-336.4225 778.8261,-336.4225 778.8261,-336.4225 778.8262,-331.4225 783.3261,-336.4226 778.8262,-326.4225 778.8262,-326.4225"/>
<polygon fill="#39dd38" stroke="#39dd38" points="778.8262,-291.0399 783.3261,-281.0399 778.8262,-286.0399 778.8261,-281.0399 778.8261,-281.0399 778.8261,-281.0399 778.8262,-286.0399 774.3261,-281.0399 778.8262,-291.0399 778.8262,-291.0399"/>
</g>
<!-- System::Role&#45;&gt;System::Capability -->
<g id="edge14" class="edge">
<title>System::Role&#45;&gt;System::Capability</title>
<path fill="none" stroke="#1b31af" d="M813.6645,-334.7532C823.6639,-329.2165 834.6231,-323.2723 844.8261,-318 953.7762,-261.7018 1018.328,-293.1715 1091.8261,-195 1110.2187,-170.433 1110.1969,-157.0207 1103.8261,-127 1103.2271,-124.1774 1102.3911,-121.3075 1101.4123,-118.4825"/>
<ellipse fill="none" stroke="#1b31af" cx="810.0726" cy="-336.7522" rx="4" ry="4"/>
<polygon fill="#1b31af" stroke="#1b31af" points="1101.4042,-118.4621 1101.847,-107.5052 1099.5381,-113.8234 1097.6721,-109.1846 1097.6721,-109.1846 1097.6721,-109.1846 1099.5381,-113.8234 1093.4972,-110.864 1101.4042,-118.4621 1101.4042,-118.4621"/>
</g>
<!-- System::Role&#45;&gt;System::Person -->
<g id="edge15" class="edge">
<title>System::Role&#45;&gt;System::Person</title>
<path fill="none" stroke="#f63d9c" d="M746.5486,-331.7697C731.0962,-318.8635 714.1726,-301.2478 705.8261,-281 699.7284,-266.2075 699.4422,-259.6712 705.8261,-245 713.7562,-226.7756 729.2443,-211.2264 743.9215,-199.6159"/>
<polygon fill="#f63d9c" stroke="#f63d9c" points="746.6303,-331.8351 751.6322,-341.5938 750.5361,-334.9568 754.4418,-338.0786 754.4418,-338.0786 754.4418,-338.0786 750.5361,-334.9568 757.2514,-334.5634 746.6303,-331.8351 746.6303,-331.8351"/>
<polygon fill="#f63d9c" stroke="#f63d9c" points="743.9504,-199.5942 754.6458,-197.1736 747.9446,-196.5865 751.9389,-193.5788 751.9389,-193.5788 751.9389,-193.5788 747.9446,-196.5865 749.232,-189.984 743.9504,-199.5942 743.9504,-199.5942"/>
</g>
<!-- System::Client -->
<g id="node15" class="node">
<title>System::Client</title>
<ellipse fill="none" stroke="#000000" cx="916.8261" cy="-354.5" rx="62.8599" ry="18"/>
<text text-anchor="middle" x="916.8261" y="-350.3" font-family="Times,serif" font-size="14.00" fill="#000000">System::Client</text>
</g>
<!-- System::Person&#45;&gt;Context::ActorRole -->
<g id="edge20" class="edge">
<title>System::Person&#45;&gt;Context::ActorRole</title>
<path fill="none" stroke="#f55a8c" d="M727.8489,-160.9998C680.6563,-146.1876 610.5912,-124.1963 561.6245,-108.8272"/>
<ellipse fill="none" stroke="#f55a8c" cx="731.8958" cy="-162.27" rx="4" ry="4"/>
<polygon fill="#f55a8c" stroke="#f55a8c" points="561.3599,-108.7443 553.1665,-101.4561 556.5894,-107.2469 551.8189,-105.7495 551.8189,-105.7495 551.8189,-105.7495 556.5894,-107.2469 550.4712,-110.043 561.3599,-108.7443 561.3599,-108.7443"/>
<text text-anchor="middle" x="688.9228" y="-129.8" font-family="Times,serif" font-size="14.00" fill="#000000">actor_roles</text>
</g>
<!-- System::Person&#45;&gt;System::Identity -->
<g id="edge19" class="edge">
<title>System::Person&#45;&gt;System::Identity</title>
<path fill="none" stroke="#08328a" d="M828.8449,-160.115C841.1279,-154.8953 853.8824,-148.5051 864.8261,-141 874.7034,-134.2263 884.1559,-125.1618 892.0209,-116.6116"/>
<ellipse fill="none" stroke="#08328a" cx="824.98" cy="-161.6976" rx="4" ry="4"/>
<polygon fill="#08328a" stroke="#08328a" points="892.1405,-116.4762 902.1355,-111.9651 895.4524,-112.7303 898.7642,-108.9844 898.7642,-108.9844 898.7642,-108.9844 895.4524,-112.7303 895.3929,-106.0038 892.1405,-116.4762 892.1405,-116.4762"/>
</g>
<!-- System::Person&#45;&gt;System::Capability -->
<g id="edge18" class="edge">
<title>System::Person&#45;&gt;System::Capability</title>
<path fill="none" stroke="#26c2aa" d="M832.6918,-162.0082C887.2957,-146.8111 971.5846,-123.352 1028.1775,-107.6012"/>
<ellipse fill="none" stroke="#26c2aa" cx="828.6064" cy="-163.1453" rx="4" ry="4"/>
<polygon fill="#26c2aa" stroke="#26c2aa" points="1028.4254,-107.5323 1039.2659,-109.1862 1033.2424,-106.1916 1038.0593,-104.851 1038.0593,-104.851 1038.0593,-104.851 1033.2424,-106.1916 1036.8527,-100.5157 1028.4254,-107.5323 1028.4254,-107.5323"/>
</g>
<!-- System::Person&#45;&gt;System::Member -->
<g id="edge17" class="edge">
<title>System::Person&#45;&gt;System::Member</title>
<path fill="none" stroke="#b10770" d="M785.9612,-150.5771C786.7233,-142.5323 785.9994,-133.9798 781.8261,-127 778.006,-120.6108 772.6193,-115.2897 766.5411,-110.8763"/>
<ellipse fill="none" stroke="#b10770" cx="785.3204" cy="-154.7362" rx="4" ry="4"/>
<polygon fill="#b10770" stroke="#b10770" points="766.3536,-110.7575 760.3148,-101.6042 762.13,-108.0815 757.9064,-105.4054 757.9064,-105.4054 757.9064,-105.4054 762.13,-108.0815 755.4979,-109.2067 766.3536,-110.7575 766.3536,-110.7575"/>
<text text-anchor="middle" x="823.1538" y="-129.8" font-family="Times,serif" font-size="14.00" fill="#000000">memberships</text>
</g>
<!-- System::IdentityProvider -->
<g id="node17" class="node">
<title>System::IdentityProvider</title>
<ellipse fill="none" stroke="#000000" cx="960.8261" cy="-177" rx="99.0502" ry="18"/>
<text text-anchor="middle" x="960.8261" y="-172.8" font-family="Times,serif" font-size="14.00" fill="#000000">System::IdentityProvider</text>
</g>
<!-- System::IdentityProvider&#45;&gt;System::Identity -->
<g id="edge21" class="edge">
<title>System::IdentityProvider&#45;&gt;System::Identity</title>
<path fill="none" stroke="#91c8dd" d="M946.5883,-151.4906C940.6754,-140.8966 933.8095,-128.5952 927.8192,-117.8626"/>
<ellipse fill="none" stroke="#91c8dd" cx="948.6971" cy="-155.2688" rx="4" ry="4"/>
<polygon fill="#91c8dd" stroke="#91c8dd" points="927.7001,-117.6492 926.7558,-106.724 925.2633,-113.2832 922.8264,-108.9172 922.8264,-108.9172 922.8264,-108.9172 925.2633,-113.2832 918.897,-111.1104 927.7001,-117.6492 927.7001,-117.6492"/>
</g>
<!-- Ability -->
<g id="node18" class="node">
<title>Ability</title>
<polygon fill="none" stroke="#000000" points="1053.496,-372.5 998.1562,-372.5 998.1562,-336.5 1053.496,-336.5 1053.496,-372.5"/>
<text text-anchor="middle" x="1025.8261" y="-350.3" font-family="Times,serif" font-size="14.00" fill="#000000">Ability</text>
</g>
</g>
</svg>
