<?xml version="1.0" encoding="UTF-8" standalone="no"?>
<!DOCTYPE svg PUBLIC "-//W3C//DTD SVG 1.1//EN"
 "http://www.w3.org/Graphics/SVG/1.1/DTD/svg11.dtd">
<!-- Generated by graphviz version 2.38.0 (20140413.2041)
 -->
<!-- Title: models_diagram Pages: 1 -->
<svg width="1211pt" height="399pt"
 viewBox="0.00 0.00 1211.04 399.00" xmlns="http://www.w3.org/2000/svg" xmlns:xlink="http://www.w3.org/1999/xlink">
<g id="graph0" class="graph" transform="scale(1 1) rotate(0) translate(4 395)">
<title>models_diagram</title>
<polygon fill="none" stroke="none" points="-4,4 -4,-395 1207.04,-395 1207.04,4 -4,4"/>
<!-- _diagram_info -->
<g id="node1" class="node"><title>_diagram_info</title>
<text text-anchor="start" x="589.402" y="-376.6" font-family="Times,serif" font-size="13.00">Models diagram</text>
<text text-anchor="start" x="589.402" y="-363.6" font-family="Times,serif" font-size="13.00">Date: Jun 18 2016 &#45; 15:41</text>
<text text-anchor="start" x="589.402" y="-350.6" font-family="Times,serif" font-size="13.00">Migration version: 20160618223020</text>
<text text-anchor="start" x="589.402" y="-337.6" font-family="Times,serif" font-size="13.00">Generated by RailRoady 1.4.2</text>
<text text-anchor="start" x="589.402" y="-324.6" font-family="Times,serif" font-size="13.00">http://railroady.prestonlee.com</text>
</g>
<!-- Ability -->
<g id="node2" class="node"><title>Ability</title>
<polygon fill="none" stroke="black" points="862.76,-372.5 807.42,-372.5 807.42,-336.5 862.76,-336.5 862.76,-372.5"/>
<text text-anchor="middle" x="835.09" y="-350.3" font-family="Times,serif" font-size="14.00">Ability</text>
</g>
<!-- Activity -->
<g id="node3" class="node"><title>Activity</title>
<ellipse fill="none" stroke="black" cx="39.0899" cy="-104" rx="39.18" ry="18"/>
<text text-anchor="middle" x="39.0899" y="-99.8" font-family="Times,serif" font-size="14.00">Activity</text>
</g>
<!-- Actor -->
<g id="node4" class="node"><title>Actor</title>
<ellipse fill="none" stroke="black" cx="288.09" cy="-18" rx="30.4862" ry="18"/>
<text text-anchor="middle" x="288.09" y="-13.8" font-family="Times,serif" font-size="14.00">Actor</text>
</g>
<!-- Activity&#45;&gt;Actor -->
<g id="edge1" class="edge"><title>Activity&#45;&gt;Actor</title>
<path fill="none" stroke="#3d002c" d="M76.6759,-89.6131C80.1933,-88.383 83.7065,-87.1629 87.0899,-86 144.813,-66.1597 212.156,-43.8897 252.395,-30.6759"/>
<ellipse fill="none" stroke="#3d002c" cx="72.7916" cy="-90.9778" rx="4.00001" ry="4.00001"/>
<polygon fill="#3d002c" stroke="#3d002c" points="252.517,-30.6359 263.421,-31.7943 257.268,-29.0772 262.019,-27.5185 262.019,-27.5185 262.019,-27.5185 257.268,-29.0772 260.616,-23.2428 252.517,-30.6359 252.517,-30.6359"/>
</g>
<!-- Asset -->
<g id="node5" class="node"><title>Asset</title>
<ellipse fill="none" stroke="black" cx="126.09" cy="-104" rx="29.5189" ry="18"/>
<text text-anchor="middle" x="126.09" y="-99.8" font-family="Times,serif" font-size="14.00">Asset</text>
</g>
<!-- Capability -->
<g id="node6" class="node"><title>Capability</title>
<ellipse fill="none" stroke="black" cx="1156.09" cy="-104" rx="46.8977" ry="18"/>
<text text-anchor="middle" x="1156.09" y="-99.8" font-family="Times,serif" font-size="14.00">Capability</text>
</g>
<!-- Client -->
<g id="node7" class="node"><title>Client</title>
<ellipse fill="none" stroke="black" cx="985.09" cy="-354.5" rx="31.948" ry="18"/>
<text text-anchor="middle" x="985.09" y="-350.3" font-family="Times,serif" font-size="14.00">Client</text>
</g>
<!-- Context -->
<g id="node8" class="node"><title>Context</title>
<ellipse fill="none" stroke="black" cx="218.09" cy="-190" rx="38.2197" ry="18"/>
<text text-anchor="middle" x="218.09" y="-185.8" font-family="Times,serif" font-size="14.00">Context</text>
</g>
<!-- Context&#45;&gt;Activity -->
<g id="edge2" class="edge"><title>Context&#45;&gt;Activity</title>
<path fill="none" stroke="#5c422d" d="M184.571,-173.27C153.312,-158.601 106.829,-136.788 74.8626,-121.787"/>
<ellipse fill="none" stroke="#5c422d" cx="188.441" cy="-175.086" rx="4.00002" ry="4.00002"/>
<polygon fill="#5c422d" stroke="#5c422d" points="74.4939,-121.614 67.3528,-113.292 69.9675,-119.49 65.4411,-117.366 65.4411,-117.366 65.4411,-117.366 69.9675,-119.49 63.5294,-121.44 74.4939,-121.614 74.4939,-121.614"/>
</g>
<!-- Context&#45;&gt;Asset -->
<g id="edge3" class="edge"><title>Context&#45;&gt;Asset</title>
<path fill="none" stroke="#8dfd87" d="M194.932,-167.856C181.094,-155.221 163.559,-139.211 149.65,-126.511"/>
<ellipse fill="none" stroke="#8dfd87" cx="198.262" cy="-170.896" rx="4.00002" ry="4.00002"/>
<polygon fill="#8dfd87" stroke="#8dfd87" points="149.32,-126.21 144.969,-116.144 145.627,-122.838 141.935,-119.467 141.935,-119.467 141.935,-119.467 145.627,-122.838 138.9,-122.79 149.32,-126.21 149.32,-126.21"/>
</g>
<!-- Focus -->
<g id="node9" class="node"><title>Focus</title>
<ellipse fill="none" stroke="black" cx="403.09" cy="-104" rx="31.4723" ry="18"/>
<text text-anchor="middle" x="403.09" y="-99.8" font-family="Times,serif" font-size="14.00">Focus</text>
</g>
<!-- Context&#45;&gt;Focus -->
<g id="edge4" class="edge"><title>Context&#45;&gt;Focus</title>
<path fill="none" stroke="#274a5e" d="M252.134,-173.542C285.719,-158.293 336.722,-135.134 369.98,-120.034"/>
<ellipse fill="none" stroke="#274a5e" cx="248.238" cy="-175.311" rx="4.00002" ry="4.00002"/>
<polygon fill="#274a5e" stroke="#274a5e" points="370.17,-119.947 381.136,-119.91 374.723,-117.88 379.276,-115.813 379.276,-115.813 379.276,-115.813 374.723,-117.88 377.415,-111.716 370.17,-119.947 370.17,-119.947"/>
</g>
<!-- Objective -->
<g id="node16" class="node"><title>Objective</title>
<ellipse fill="none" stroke="black" cx="218.09" cy="-104" rx="44.4664" ry="18"/>
<text text-anchor="middle" x="218.09" y="-99.8" font-family="Times,serif" font-size="14.00">Objective</text>
</g>
<!-- Context&#45;&gt;Objective -->
<g id="edge5" class="edge"><title>Context&#45;&gt;Objective</title>
<path fill="none" stroke="#b92124" d="M218.09,-163.257C218.09,-153.441 218.09,-142.226 218.09,-132.273"/>
<ellipse fill="none" stroke="#b92124" cx="218.09" cy="-167.595" rx="4" ry="4"/>
<polygon fill="#b92124" stroke="#b92124" points="218.09,-132.095 222.59,-122.095 218.09,-127.095 218.09,-122.095 218.09,-122.095 218.09,-122.095 218.09,-127.095 213.59,-122.095 218.09,-132.095 218.09,-132.095"/>
</g>
<!-- Participant -->
<g id="node17" class="node"><title>Participant</title>
<ellipse fill="none" stroke="black" cx="692.09" cy="-104" rx="48.3341" ry="18"/>
<text text-anchor="middle" x="692.09" y="-99.8" font-family="Times,serif" font-size="14.00">Participant</text>
</g>
<!-- Context&#45;&gt;Participant -->
<g id="edge6" class="edge"><title>Context&#45;&gt;Participant</title>
<path fill="none" stroke="#6bca83" d="M263.465,-185.325C361.216,-177.343 584.182,-158.754 600.09,-154 621.647,-147.558 643.965,-135.816 661.22,-125.441"/>
<ellipse fill="none" stroke="#6bca83" cx="259.232" cy="-185.67" rx="4" ry="4"/>
<polygon fill="#6bca83" stroke="#6bca83" points="661.241,-125.428 672.114,-124.005 665.496,-122.802 669.751,-120.176 669.751,-120.176 669.751,-120.176 665.496,-122.802 667.387,-116.347 661.241,-125.428 661.241,-125.428"/>
</g>
<!-- Group -->
<g id="node10" class="node"><title>Group</title>
<ellipse fill="none" stroke="black" cx="957.09" cy="-263" rx="32.9081" ry="18"/>
<text text-anchor="middle" x="957.09" y="-258.8" font-family="Times,serif" font-size="14.00">Group</text>
</g>
<!-- Group&#45;&gt;Capability -->
<g id="edge9" class="edge"><title>Group&#45;&gt;Capability</title>
<path fill="none" stroke="#1c9b68" d="M995.972,-255.691C1027.95,-248.763 1072.78,-234.845 1103.09,-208 1126.17,-187.556 1140.61,-154.658 1148.49,-131.555"/>
<ellipse fill="none" stroke="#1c9b68" cx="992.053" cy="-256.498" rx="4.00001" ry="4.00001"/>
<polygon fill="#1c9b68" stroke="#1c9b68" points="1148.5,-131.533 1155.84,-123.392 1150.03,-126.773 1151.56,-122.013 1151.56,-122.013 1151.56,-122.013 1150.03,-126.773 1147.28,-120.635 1148.5,-131.533 1148.5,-131.533"/>
</g>
<!-- Member -->
<g id="node15" class="node"><title>Member</title>
<ellipse fill="none" stroke="black" cx="957.09" cy="-104" rx="40.1317" ry="18"/>
<text text-anchor="middle" x="957.09" y="-99.8" font-family="Times,serif" font-size="14.00">Member</text>
</g>
<!-- Group&#45;&gt;Member -->
<g id="edge7" class="edge"><title>Group&#45;&gt;Member</title>
<path fill="none" stroke="#1a33c0" d="M957.09,-236.852C957.09,-208.193 957.09,-161.523 957.09,-132.082"/>
<ellipse fill="none" stroke="#1a33c0" cx="957.09" cy="-240.899" rx="4" ry="4"/>
<polygon fill="#1a33c0" stroke="#1a33c0" points="957.09,-132.08 961.59,-122.079 957.09,-127.08 957.09,-122.08 957.09,-122.08 957.09,-122.08 957.09,-127.08 952.59,-122.08 957.09,-132.08 957.09,-132.08"/>
</g>
<!-- User -->
<g id="node25" class="node"><title>User</title>
<ellipse fill="none" stroke="black" cx="869.09" cy="-190" rx="27" ry="18"/>
<text text-anchor="middle" x="869.09" y="-185.8" font-family="Times,serif" font-size="14.00">User</text>
</g>
<!-- Group&#45;&gt;User -->
<g id="edge8" class="edge"><title>Group&#45;&gt;User</title>
<path fill="none" stroke="#720202" d="M931.481,-241.338C919.601,-231.753 905.54,-220.408 893.776,-210.917"/>
<polygon fill="#720202" stroke="#720202" points="931.499,-241.353 936.456,-251.134 935.39,-244.492 939.282,-247.632 939.282,-247.632 939.282,-247.632 935.39,-244.492 942.107,-244.13 931.499,-241.353 931.499,-241.353"/>
<polygon fill="#720202" stroke="#720202" points="893.464,-210.665 888.506,-200.884 889.572,-207.525 885.681,-204.386 885.681,-204.386 885.681,-204.386 889.572,-207.525 882.855,-207.888 893.464,-210.665 893.464,-210.665"/>
</g>
<!-- Identity -->
<g id="node11" class="node"><title>Identity</title>
<ellipse fill="none" stroke="black" cx="1053.09" cy="-104" rx="37.7266" ry="18"/>
<text text-anchor="middle" x="1053.09" y="-99.8" font-family="Times,serif" font-size="14.00">Identity</text>
</g>
<!-- JsonWebToken -->
<g id="node14" class="node"><title>JsonWebToken</title>
<ellipse fill="none" stroke="black" cx="993.09" cy="-18" rx="63.5968" ry="18"/>
<text text-anchor="middle" x="993.09" y="-13.8" font-family="Times,serif" font-size="14.00">JsonWebToken</text>
</g>
<!-- Identity&#45;&gt;JsonWebToken -->
<g id="edge11" class="edge"><title>Identity&#45;&gt;JsonWebToken</title>
<path fill="none" stroke="#ecf8c6" d="M1036.83,-80.2394C1028.84,-69.0444 1019.18,-55.523 1010.97,-44.0363"/>
<ellipse fill="none" stroke="#ecf8c6" cx="1039.2" cy="-83.549" rx="4.00002" ry="4.00002"/>
<polygon fill="#ecf8c6" stroke="#ecf8c6" points="1010.85,-43.8586 1008.7,-33.1057 1007.94,-39.7899 1005.03,-35.7213 1005.03,-35.7213 1005.03,-35.7213 1007.94,-39.7899 1001.37,-38.3369 1010.85,-43.8586 1010.85,-43.8586"/>
</g>
<!-- Session -->
<g id="node22" class="node"><title>Session</title>
<ellipse fill="none" stroke="black" cx="1112.09" cy="-18" rx="37.2681" ry="18"/>
<text text-anchor="middle" x="1112.09" y="-13.8" font-family="Times,serif" font-size="14.00">Session</text>
</g>
<!-- Identity&#45;&gt;Session -->
<g id="edge10" class="edge"><title>Identity&#45;&gt;Session</title>
<path fill="none" stroke="#41c8e4" d="M1069.14,-80.1498C1077.11,-68.7968 1086.76,-55.0686 1094.88,-43.4984"/>
<ellipse fill="none" stroke="#41c8e4" cx="1066.76" cy="-83.5307" rx="4.00002" ry="4.00002"/>
<polygon fill="#41c8e4" stroke="#41c8e4" points="1095,-43.3295 1104.43,-37.7328 1097.88,-39.2379 1100.75,-35.1463 1100.75,-35.1463 1100.75,-35.1463 1097.88,-39.2379 1097.07,-32.5598 1095,-43.3295 1095,-43.3295"/>
</g>
<!-- Interest -->
<g id="node12" class="node"><title>Interest</title>
<ellipse fill="none" stroke="black" cx="317.09" cy="-104" rx="36.7489" ry="18"/>
<text text-anchor="middle" x="317.09" y="-99.8" font-family="Times,serif" font-size="14.00">Interest</text>
</g>
<!-- Issue -->
<g id="node13" class="node"><title>Issue</title>
<ellipse fill="none" stroke="black" cx="787.09" cy="-104" rx="28.0651" ry="18"/>
<text text-anchor="middle" x="787.09" y="-99.8" font-family="Times,serif" font-size="14.00">Issue</text>
</g>
<!-- Participant&#45;&gt;Actor -->
<g id="edge12" class="edge"><title>Participant&#45;&gt;Actor</title>
<path fill="none" stroke="#8a8542" d="M648.37,-89.4832C643.901,-88.245 639.415,-87.0598 635.09,-86 524.447,-58.8897 391.774,-35.8617 327.222,-25.2543"/>
<ellipse fill="none" stroke="#8a8542" cx="652.511" cy="-90.6601" rx="4.00001" ry="4.00001"/>
<polygon fill="#8a8542" stroke="#8a8542" points="326.96,-25.2115 317.816,-19.1585 322.025,-24.4056 317.09,-23.5997 317.09,-23.5997 317.09,-23.5997 322.025,-24.4056 316.365,-28.0409 326.96,-25.2115 326.96,-25.2115"/>
<text text-anchor="middle" x="591.476" y="-56.8" font-family="Times,serif" font-size="14.00">responsibilities</text>
</g>
<!-- Place -->
<g id="node18" class="node"><title>Place</title>
<ellipse fill="none" stroke="black" cx="39.0899" cy="-190" rx="29.0172" ry="18"/>
<text text-anchor="middle" x="39.0899" y="-185.8" font-family="Times,serif" font-size="14.00">Place</text>
</g>
<!-- Place&#45;&gt;Activity -->
<g id="edge13" class="edge"><title>Place&#45;&gt;Activity</title>
<path fill="none" stroke="#7a99aa" d="M39.0899,-163.257C39.0899,-153.441 39.0899,-142.226 39.0899,-132.273"/>
<ellipse fill="none" stroke="#7a99aa" cx="39.0899" cy="-167.595" rx="4" ry="4"/>
<polygon fill="#7a99aa" stroke="#7a99aa" points="39.09,-132.095 43.5899,-122.095 39.0899,-127.095 39.0899,-122.095 39.0899,-122.095 39.0899,-122.095 39.0899,-127.095 34.5899,-122.095 39.09,-132.095 39.09,-132.095"/>
</g>
<!-- Provider -->
<g id="node19" class="node"><title>Provider</title>
<ellipse fill="none" stroke="black" cx="1053.09" cy="-190" rx="40.6248" ry="18"/>
<text text-anchor="middle" x="1053.09" y="-185.8" font-family="Times,serif" font-size="14.00">Provider</text>
</g>
<!-- Provider&#45;&gt;Identity -->
<g id="edge14" class="edge"><title>Provider&#45;&gt;Identity</title>
<path fill="none" stroke="#d6a855" d="M1053.09,-163.257C1053.09,-153.441 1053.09,-142.226 1053.09,-132.273"/>
<ellipse fill="none" stroke="#d6a855" cx="1053.09" cy="-167.595" rx="4" ry="4"/>
<polygon fill="#d6a855" stroke="#d6a855" points="1053.09,-132.095 1057.59,-122.095 1053.09,-127.095 1053.09,-122.095 1053.09,-122.095 1053.09,-122.095 1053.09,-127.095 1048.59,-122.095 1053.09,-132.095 1053.09,-132.095"/>
</g>
<!-- Result -->
<g id="node20" class="node"><title>Result</title>
<ellipse fill="none" stroke="black" cx="866.09" cy="-104" rx="32.9168" ry="18"/>
<text text-anchor="middle" x="866.09" y="-99.8" font-family="Times,serif" font-size="14.00">Result</text>
</g>
<!-- Role -->
<g id="node21" class="node"><title>Role</title>
<ellipse fill="none" stroke="black" cx="908.09" cy="-354.5" rx="27" ry="18"/>
<text text-anchor="middle" x="908.09" y="-350.3" font-family="Times,serif" font-size="14.00">Role</text>
</g>
<!-- Role&#45;&gt;Capability -->
<g id="edge16" class="edge"><title>Role&#45;&gt;Capability</title>
<path fill="none" stroke="#4b8067" d="M927.484,-332.668C932.653,-327.604 938.392,-322.388 944.09,-318 1020.18,-259.401 1071.02,-283.731 1130.09,-208 1147.05,-186.254 1153.07,-154.771 1155.14,-132.344"/>
<ellipse fill="none" stroke="#4b8067" cx="924.53" cy="-335.645" rx="4.00002" ry="4.00002"/>
<polygon fill="#4b8067" stroke="#4b8067" points="1155.16,-132.119 1160.36,-122.466 1155.51,-127.132 1155.87,-122.145 1155.87,-122.145 1155.87,-122.145 1155.51,-127.132 1151.38,-121.823 1155.16,-132.119 1155.16,-132.119"/>
</g>
<!-- Role&#45;&gt;Group -->
<g id="edge18" class="edge"><title>Role&#45;&gt;Group</title>
<path fill="none" stroke="#ee6275" d="M921.962,-328.161C928.545,-316.138 936.398,-301.795 943.007,-289.722"/>
<polygon fill="#ee6275" stroke="#ee6275" points="921.88,-328.313 913.13,-334.923 919.478,-332.699 917.077,-337.084 917.077,-337.084 917.077,-337.084 919.478,-332.699 921.024,-339.245 921.88,-328.313 921.88,-328.313"/>
<polygon fill="#ee6275" stroke="#ee6275" points="943.191,-289.386 951.941,-282.776 945.592,-285 947.994,-280.615 947.994,-280.615 947.994,-280.615 945.592,-285 944.046,-278.454 943.191,-289.386 943.191,-289.386"/>
</g>
<!-- Role&#45;&gt;Interest -->
<g id="edge15" class="edge"><title>Role&#45;&gt;Interest</title>
<path fill="none" stroke="#c02d35" d="M890.033,-331.998C884.722,-326.772 878.581,-321.645 872.09,-318 696.334,-219.299 610.164,-302.455 432.09,-208 393.965,-187.777 358.305,-152.247 337.091,-128.665"/>
<ellipse fill="none" stroke="#c02d35" cx="893.095" cy="-335.203" rx="4.00002" ry="4.00002"/>
<polygon fill="#c02d35" stroke="#c02d35" points="336.826,-128.364 333.584,-117.889 333.518,-124.615 330.21,-120.866 330.21,-120.866 330.21,-120.866 333.518,-124.615 326.835,-123.844 336.826,-128.364 336.826,-128.364"/>
</g>
<!-- Role&#45;&gt;User -->
<g id="edge17" class="edge"><title>Role&#45;&gt;User</title>
<path fill="none" stroke="#5b900b" d="M901.566,-326.317C894.314,-296.102 882.679,-247.621 875.481,-217.631"/>
<polygon fill="#5b900b" stroke="#5b900b" points="901.656,-326.693 899.614,-337.467 902.823,-331.555 903.99,-336.417 903.99,-336.417 903.99,-336.417 902.823,-331.555 908.366,-335.367 901.656,-326.693 901.656,-326.693"/>
<polygon fill="#5b900b" stroke="#5b900b" points="875.469,-217.578 877.511,-206.804 874.302,-212.716 873.135,-207.854 873.135,-207.854 873.135,-207.854 874.302,-212.716 868.759,-208.905 875.469,-217.578 875.469,-217.578"/>
</g>
<!-- SnomedctConcept -->
<g id="node23" class="node"><title>SnomedctConcept</title>
<ellipse fill="none" stroke="black" cx="516.09" cy="-190" rx="74.8948" ry="18"/>
<text text-anchor="middle" x="516.09" y="-185.8" font-family="Times,serif" font-size="14.00">SnomedctConcept</text>
</g>
<!-- SnomedctConcept&#45;&gt;Focus -->
<g id="edge21" class="edge"><title>SnomedctConcept&#45;&gt;Focus</title>
<path fill="none" stroke="#da6e65" d="M491.249,-167.263C480.907,-158.507 468.638,-148.492 457.09,-140 449.224,-134.216 440.436,-128.302 432.272,-123.021"/>
<ellipse fill="none" stroke="#da6e65" cx="494.373" cy="-169.93" rx="4.00002" ry="4.00002"/>
<polygon fill="#da6e65" stroke="#da6e65" points="432.163,-122.952 426.15,-113.781 427.947,-120.264 423.731,-117.576 423.731,-117.576 423.731,-117.576 427.947,-120.264 421.311,-121.37 432.163,-122.952 432.163,-122.952"/>
</g>
<!-- SnomedctConcept&#45;&gt;Interest -->
<g id="edge19" class="edge"><title>SnomedctConcept&#45;&gt;Interest</title>
<path fill="none" stroke="#613bb5" d="M472.92,-170.778C437.259,-155.724 387.2,-134.594 353.529,-120.382"/>
<ellipse fill="none" stroke="#613bb5" cx="476.828" cy="-172.427" rx="4.00002" ry="4.00002"/>
<polygon fill="#613bb5" stroke="#613bb5" points="353.28,-120.276 345.817,-112.242 348.673,-118.332 344.067,-116.387 344.067,-116.387 344.067,-116.387 348.673,-118.332 342.317,-120.533 353.28,-120.276 353.28,-120.276"/>
</g>
<!-- SnomedctConcept&#45;&gt;Issue -->
<g id="edge20" class="edge"><title>SnomedctConcept&#45;&gt;Issue</title>
<path fill="none" stroke="#1c9728" d="M580.502,-176.405C607.77,-170.499 639.729,-162.813 668.09,-154 705.054,-142.514 713.415,-137.018 749.09,-122 751.147,-121.134 753.26,-120.23 755.386,-119.309"/>
<ellipse fill="none" stroke="#1c9728" cx="576.484" cy="-177.265" rx="4.00001" ry="4.00001"/>
<polygon fill="#1c9728" stroke="#1c9728" points="755.503,-119.258 766.468,-119.353 760.08,-117.246 764.657,-115.234 764.657,-115.234 764.657,-115.234 760.08,-117.246 762.846,-111.114 755.503,-119.258 755.503,-119.258"/>
</g>
<!-- SnomedctDescription -->
<g id="node24" class="node"><title>SnomedctDescription</title>
<ellipse fill="none" stroke="black" cx="539.09" cy="-104" rx="86.9722" ry="18"/>
<text text-anchor="middle" x="539.09" y="-99.8" font-family="Times,serif" font-size="14.00">SnomedctDescription</text>
</g>
<!-- SnomedctConcept&#45;&gt;SnomedctDescription -->
<g id="edge22" class="edge"><title>SnomedctConcept&#45;&gt;SnomedctDescription</title>
<path fill="none" stroke="#bd2a3d" d="M522.922,-164.047C525.686,-153.952 528.884,-142.274 531.702,-131.982"/>
<ellipse fill="none" stroke="#bd2a3d" cx="521.801" cy="-168.143" rx="4.00001" ry="4.00001"/>
<polygon fill="#bd2a3d" stroke="#bd2a3d" points="531.723,-131.907 538.704,-123.45 533.043,-127.084 534.363,-122.262 534.363,-122.262 534.363,-122.262 533.043,-127.084 530.023,-121.073 531.723,-131.907 531.723,-131.907"/>
<text text-anchor="middle" x="561.918" y="-142.8" font-family="Times,serif" font-size="14.00">descriptions</text>
</g>
<!-- User&#45;&gt;Capability -->
<g id="edge24" class="edge"><title>User&#45;&gt;Capability</title>
<path fill="none" stroke="#91ef04" d="M901.277,-179.801C945.946,-167.004 1029.24,-143.028 1100.09,-122 1103.61,-120.956 1107.25,-119.868 1110.91,-118.769"/>
<ellipse fill="none" stroke="#91ef04" cx="897.243" cy="-180.956" rx="4.00001" ry="4.00001"/>
<polygon fill="#91ef04" stroke="#91ef04" points="1110.99,-118.745 1121.86,-120.167 1115.77,-117.302 1120.56,-115.858 1120.56,-115.858 1120.56,-115.858 1115.77,-117.302 1119.26,-111.55 1110.99,-118.745 1110.99,-118.745"/>
</g>
<!-- User&#45;&gt;Focus -->
<g id="edge29" class="edge"><title>User&#45;&gt;Focus</title>
<path fill="none" stroke="#c20f57" d="M835.575,-182.159C784.801,-171.963 685.27,-152.627 600.09,-140 530.614,-129.701 511,-139.921 443.09,-122 440.751,-121.383 438.37,-120.653 435.995,-119.85"/>
<ellipse fill="none" stroke="#c20f57" cx="839.67" cy="-182.984" rx="4.00001" ry="4.00001"/>
<polygon fill="#c20f57" stroke="#c20f57" points="435.74,-119.754 427.971,-112.014 431.061,-117.989 426.383,-116.225 426.383,-116.225 426.383,-116.225 431.061,-117.989 424.795,-120.435 435.74,-119.754 435.74,-119.754"/>
</g>
<!-- User&#45;&gt;Identity -->
<g id="edge25" class="edge"><title>User&#45;&gt;Identity</title>
<path fill="none" stroke="#cac692" d="M898.534,-175.558C930.918,-160.774 982.949,-137.021 1017.57,-121.215"/>
<ellipse fill="none" stroke="#cac692" cx="894.558" cy="-177.373" rx="4.00002" ry="4.00002"/>
<polygon fill="#cac692" stroke="#cac692" points="1017.75,-121.134 1028.71,-121.075 1022.3,-119.058 1026.84,-116.981 1026.84,-116.981 1026.84,-116.981 1022.3,-119.058 1024.98,-112.888 1017.75,-121.134 1017.75,-121.134"/>
</g>
<!-- User&#45;&gt;Issue -->
<g id="edge26" class="edge"><title>User&#45;&gt;Issue</title>
<path fill="none" stroke="#05302d" d="M848.836,-168.252C836.664,-155.783 821.18,-139.922 808.763,-127.201"/>
<ellipse fill="none" stroke="#05302d" cx="852.012" cy="-171.506" rx="4.00002" ry="4.00002"/>
<polygon fill="#05302d" stroke="#05302d" points="808.47,-126.902 804.705,-116.602 804.977,-123.324 801.485,-119.746 801.485,-119.746 801.485,-119.746 804.977,-123.324 798.265,-122.889 808.47,-126.902 808.47,-126.902"/>
</g>
<!-- User&#45;&gt;Member -->
<g id="edge23" class="edge"><title>User&#45;&gt;Member</title>
<path fill="none" stroke="#b92d42" d="M864.563,-164.123C864.337,-155.815 865.628,-146.919 870.435,-140 873.425,-135.696 895.472,-126.82 916.578,-119.084"/>
<ellipse fill="none" stroke="#b92d42" cx="864.893" cy="-168.155" rx="4" ry="4"/>
<polygon fill="#b92d42" stroke="#b92d42" points="916.732,-119.029 927.666,-119.863 921.434,-117.33 926.137,-115.631 926.137,-115.631 926.137,-115.631 921.434,-117.33 924.607,-111.398 916.732,-119.029 916.732,-119.029"/>
<text text-anchor="middle" x="907.418" y="-142.8" font-family="Times,serif" font-size="14.00">memberships</text>
</g>
<!-- User&#45;&gt;Participant -->
<g id="edge28" class="edge"><title>User&#45;&gt;Participant</title>
<path fill="none" stroke="#25f0f8" d="M840.236,-175.307C810.257,-161.079 763.195,-138.745 730.178,-123.076"/>
<ellipse fill="none" stroke="#25f0f8" cx="844.126" cy="-177.153" rx="4.00002" ry="4.00002"/>
<polygon fill="#25f0f8" stroke="#25f0f8" points="729.875,-122.932 722.77,-114.579 725.358,-120.788 720.841,-118.645 720.841,-118.645 720.841,-118.645 725.358,-120.788 718.912,-122.71 729.875,-122.932 729.875,-122.932"/>
</g>
<!-- User&#45;&gt;Result -->
<g id="edge27" class="edge"><title>User&#45;&gt;Result</title>
<path fill="none" stroke="#e31afa" d="M854.613,-166.118C852.747,-162.206 851.127,-158.084 850.09,-154 848.13,-146.28 849.466,-138.006 852.044,-130.495"/>
<ellipse fill="none" stroke="#e31afa" cx="856.548" cy="-169.779" rx="4.00002" ry="4.00002"/>
<polygon fill="#e31afa" stroke="#e31afa" points="852.09,-130.387 860.122,-122.922 854.033,-125.78 855.976,-121.173 855.976,-121.173 855.976,-121.173 854.033,-125.78 851.829,-119.425 852.09,-130.387 852.09,-130.387"/>
</g>
</g>
</svg>
