<?xml version="1.0" encoding="UTF-8" standalone="no"?>
<!DOCTYPE svg PUBLIC "-//W3C//DTD SVG 1.1//EN"
 "http://www.w3.org/Graphics/SVG/1.1/DTD/svg11.dtd">
<!-- Generated by graphviz version 2.38.0 (20140413.2041)
 -->
<!-- Title: models_diagram Pages: 1 -->
<svg width="1244pt" height="313pt"
 viewBox="0.00 0.00 1244.42 313.00" xmlns="http://www.w3.org/2000/svg" xmlns:xlink="http://www.w3.org/1999/xlink">
<g id="graph0" class="graph" transform="scale(1 1) rotate(0) translate(4 309)">
<title>models_diagram</title>
<polygon fill="none" stroke="none" points="-4,4 -4,-309 1240.42,-309 1240.42,4 -4,4"/>
<!-- _diagram_info -->
<g id="node1" class="node"><title>_diagram_info</title>
<text text-anchor="start" x="8" y="-290.6" font-family="Times,serif" font-size="13.00">Models diagram</text>
<text text-anchor="start" x="8" y="-277.6" font-family="Times,serif" font-size="13.00">Date: Jun 16 2016 &#45; 14:22</text>
<text text-anchor="start" x="8" y="-264.6" font-family="Times,serif" font-size="13.00">Migration version: 20160616191450</text>
<text text-anchor="start" x="8" y="-251.6" font-family="Times,serif" font-size="13.00">Generated by RailRoady 1.4.2</text>
<text text-anchor="start" x="8" y="-238.6" font-family="Times,serif" font-size="13.00">http://railroady.prestonlee.com</text>
</g>
<!-- Ability -->
<g id="node2" class="node"><title>Ability</title>
<polygon fill="none" stroke="black" points="281.358,-286.5 226.018,-286.5 226.018,-250.5 281.358,-250.5 281.358,-286.5"/>
<text text-anchor="middle" x="253.688" y="-264.3" font-family="Times,serif" font-size="14.00">Ability</text>
</g>
<!-- Capability -->
<g id="node3" class="node"><title>Capability</title>
<ellipse fill="none" stroke="black" cx="355.688" cy="-18" rx="46.8977" ry="18"/>
<text text-anchor="middle" x="355.688" y="-13.8" font-family="Times,serif" font-size="14.00">Capability</text>
</g>
<!-- Client -->
<g id="node4" class="node"><title>Client</title>
<ellipse fill="none" stroke="black" cx="414.688" cy="-268.5" rx="31.948" ry="18"/>
<text text-anchor="middle" x="414.688" y="-264.3" font-family="Times,serif" font-size="14.00">Client</text>
</g>
<!-- Context -->
<g id="node5" class="node"><title>Context</title>
<ellipse fill="none" stroke="black" cx="909.688" cy="-177" rx="38.2197" ry="18"/>
<text text-anchor="middle" x="909.688" y="-172.8" font-family="Times,serif" font-size="14.00">Context</text>
</g>
<!-- Focus -->
<g id="node6" class="node"><title>Focus</title>
<ellipse fill="none" stroke="black" cx="975.688" cy="-91" rx="31.4723" ry="18"/>
<text text-anchor="middle" x="975.688" y="-86.8" font-family="Times,serif" font-size="14.00">Focus</text>
</g>
<!-- Context&#45;&gt;Focus -->
<g id="edge2" class="edge"><title>Context&#45;&gt;Focus</title>
<path fill="none" stroke="#fd36e6" d="M927.403,-153.453C936.575,-141.78 947.768,-127.535 957.067,-115.699"/>
<ellipse fill="none" stroke="#fd36e6" cx="924.885" cy="-156.659" rx="4.00002" ry="4.00002"/>
<polygon fill="#fd36e6" stroke="#fd36e6" points="957.269,-115.442 966.986,-110.359 960.358,-111.51 963.448,-107.578 963.448,-107.578 963.448,-107.578 960.358,-111.51 959.909,-104.798 957.269,-115.442 957.269,-115.442"/>
</g>
<!-- Participant -->
<g id="node12" class="node"><title>Participant</title>
<ellipse fill="none" stroke="black" cx="877.688" cy="-91" rx="48.3341" ry="18"/>
<text text-anchor="middle" x="877.688" y="-86.8" font-family="Times,serif" font-size="14.00">Participant</text>
</g>
<!-- Context&#45;&gt;Participant -->
<g id="edge1" class="edge"><title>Context&#45;&gt;Participant</title>
<path fill="none" stroke="#e1932e" d="M900.307,-151.374C896.372,-141.045 891.788,-129.014 887.78,-118.493"/>
<ellipse fill="none" stroke="#e1932e" cx="901.788" cy="-155.263" rx="4.00001" ry="4.00001"/>
<polygon fill="#e1932e" stroke="#e1932e" points="887.714,-118.318 888.359,-107.371 885.934,-113.646 884.154,-108.973 884.154,-108.973 884.154,-108.973 885.934,-113.646 879.949,-110.575 887.714,-118.318 887.714,-118.318"/>
</g>
<!-- Group -->
<g id="node7" class="node"><title>Group</title>
<ellipse fill="none" stroke="black" cx="332.688" cy="-268.5" rx="32.9081" ry="18"/>
<text text-anchor="middle" x="332.688" y="-264.3" font-family="Times,serif" font-size="14.00">Group</text>
</g>
<!-- Group&#45;&gt;Capability -->
<g id="edge5" class="edge"><title>Group&#45;&gt;Capability</title>
<path fill="none" stroke="#6b2e10" d="M308.428,-247.903C266.987,-212.003 190.729,-133.79 230.688,-73 246.692,-48.6521 276.261,-35.2318 302.623,-27.8608"/>
<ellipse fill="none" stroke="#6b2e10" cx="311.712" cy="-250.699" rx="4.00002" ry="4.00002"/>
<polygon fill="#6b2e10" stroke="#6b2e10" points="302.847,-27.8034 313.651,-29.681 307.691,-26.5625 312.535,-25.3217 312.535,-25.3217 312.535,-25.3217 307.691,-26.5625 311.418,-20.9625 302.847,-27.8034 302.847,-27.8034"/>
</g>
<!-- Member -->
<g id="node11" class="node"><title>Member</title>
<ellipse fill="none" stroke="black" cx="279.688" cy="-91" rx="40.1317" ry="18"/>
<text text-anchor="middle" x="279.688" y="-86.8" font-family="Times,serif" font-size="14.00">Member</text>
</g>
<!-- Group&#45;&gt;Member -->
<g id="edge3" class="edge"><title>Group&#45;&gt;Member</title>
<path fill="none" stroke="#b8026f" d="M317.669,-244.084C302.882,-219.525 281.3,-179.253 272.688,-141 271.09,-133.903 271.314,-126.141 272.331,-118.931"/>
<ellipse fill="none" stroke="#b8026f" cx="319.928" cy="-247.771" rx="4.00002" ry="4.00002"/>
<polygon fill="#b8026f" stroke="#b8026f" points="272.371,-118.721 278.684,-109.755 273.318,-113.812 274.266,-108.902 274.266,-108.902 274.266,-108.902 273.318,-113.812 269.847,-108.05 272.371,-118.721 272.371,-118.721"/>
</g>
<!-- User -->
<g id="node19" class="node"><title>User</title>
<ellipse fill="none" stroke="black" cx="554.688" cy="-177" rx="27" ry="18"/>
<text text-anchor="middle" x="554.688" y="-172.8" font-family="Times,serif" font-size="14.00">User</text>
</g>
<!-- Group&#45;&gt;User -->
<g id="edge4" class="edge"><title>Group&#45;&gt;User</title>
<path fill="none" stroke="#5e7add" d="M354.571,-245.579C360.421,-240.584 366.991,-235.674 373.688,-232 420.465,-206.337 480.895,-191.482 518.729,-184.063"/>
<polygon fill="#5e7add" stroke="#5e7add" points="354.514,-245.629 344.077,-248.993 350.804,-248.981 347.094,-252.333 347.094,-252.333 347.094,-252.333 350.804,-248.981 350.11,-255.672 354.514,-245.629 354.514,-245.629"/>
<polygon fill="#5e7add" stroke="#5e7add" points="518.944,-184.023 529.606,-186.587 523.857,-183.094 528.77,-182.165 528.77,-182.165 528.77,-182.165 523.857,-183.094 527.934,-177.744 518.944,-184.023 518.944,-184.023"/>
</g>
<!-- Identity -->
<g id="node8" class="node"><title>Identity</title>
<ellipse fill="none" stroke="black" cx="773.688" cy="-91" rx="37.7266" ry="18"/>
<text text-anchor="middle" x="773.688" y="-86.8" font-family="Times,serif" font-size="14.00">Identity</text>
</g>
<!-- Session -->
<g id="node16" class="node"><title>Session</title>
<ellipse fill="none" stroke="black" cx="778.688" cy="-18" rx="37.2681" ry="18"/>
<text text-anchor="middle" x="778.688" y="-13.8" font-family="Times,serif" font-size="14.00">Session</text>
</g>
<!-- Identity&#45;&gt;Session -->
<g id="edge6" class="edge"><title>Identity&#45;&gt;Session</title>
<path fill="none" stroke="#63bf39" d="M775.463,-64.791C775.883,-58.832 776.332,-52.4496 776.758,-46.3988"/>
<ellipse fill="none" stroke="#63bf39" cx="775.179" cy="-68.8228" rx="4" ry="4"/>
<polygon fill="#63bf39" stroke="#63bf39" points="776.786,-46.0041 781.977,-36.345 777.137,-41.0165 777.489,-36.0288 777.489,-36.0288 777.489,-36.0288 777.137,-41.0165 773,-35.7127 776.786,-46.0041 776.786,-46.0041"/>
</g>
<!-- Interest -->
<g id="node9" class="node"><title>Interest</title>
<ellipse fill="none" stroke="black" cx="686.688" cy="-18" rx="36.7489" ry="18"/>
<text text-anchor="middle" x="686.688" y="-13.8" font-family="Times,serif" font-size="14.00">Interest</text>
</g>
<!-- Issue -->
<g id="node10" class="node"><title>Issue</title>
<ellipse fill="none" stroke="black" cx="529.688" cy="-91" rx="28.0651" ry="18"/>
<text text-anchor="middle" x="529.688" y="-86.8" font-family="Times,serif" font-size="14.00">Issue</text>
</g>
<!-- Provider -->
<g id="node13" class="node"><title>Provider</title>
<ellipse fill="none" stroke="black" cx="812.688" cy="-177" rx="40.6248" ry="18"/>
<text text-anchor="middle" x="812.688" y="-172.8" font-family="Times,serif" font-size="14.00">Provider</text>
</g>
<!-- Provider&#45;&gt;Identity -->
<g id="edge7" class="edge"><title>Provider&#45;&gt;Identity</title>
<path fill="none" stroke="#23e1a1" d="M801.408,-151.706C796.503,-141.141 790.749,-128.747 785.758,-117.997"/>
<ellipse fill="none" stroke="#23e1a1" cx="803.111" cy="-155.373" rx="4.00002" ry="4.00002"/>
<polygon fill="#23e1a1" stroke="#23e1a1" points="785.646,-117.757 785.517,-106.792 783.541,-113.222 781.435,-108.687 781.435,-108.687 781.435,-108.687 783.541,-113.222 777.354,-110.582 785.646,-117.757 785.646,-117.757"/>
</g>
<!-- Result -->
<g id="node14" class="node"><title>Result</title>
<ellipse fill="none" stroke="black" cx="608.688" cy="-91" rx="32.9168" ry="18"/>
<text text-anchor="middle" x="608.688" y="-86.8" font-family="Times,serif" font-size="14.00">Result</text>
</g>
<!-- Role -->
<g id="node15" class="node"><title>Role</title>
<ellipse fill="none" stroke="black" cx="686.688" cy="-91" rx="27" ry="18"/>
<text text-anchor="middle" x="686.688" y="-86.8" font-family="Times,serif" font-size="14.00">Role</text>
</g>
<!-- Role&#45;&gt;Capability -->
<g id="edge9" class="edge"><title>Role&#45;&gt;Capability</title>
<path fill="none" stroke="#3a6620" d="M658.471,-75.8421C655.874,-74.7935 653.254,-73.8252 650.688,-73 569.158,-46.7838 470.613,-31.9636 410.575,-24.7179"/>
<ellipse fill="none" stroke="#3a6620" cx="662.453" cy="-77.5722" rx="4.00002" ry="4.00002"/>
<polygon fill="#3a6620" stroke="#3a6620" points="410.484,-24.7072 401.08,-19.0667 405.518,-24.1215 400.552,-23.5357 400.552,-23.5357 400.552,-23.5357 405.518,-24.1215 400.025,-28.0047 410.484,-24.7072 410.484,-24.7072"/>
</g>
<!-- Role&#45;&gt;Group -->
<g id="edge11" class="edge"><title>Role&#45;&gt;Group</title>
<path fill="none" stroke="#a59603" d="M706.513,-115.069C711.358,-123.514 713.848,-132.963 708.688,-141 625.326,-270.825 513.194,-166.109 373.688,-232 366.781,-235.262 360.134,-240.022 354.277,-245.002"/>
<polygon fill="#a59603" stroke="#a59603" points="706.464,-114.997 704.552,-104.199 703.648,-110.865 700.833,-106.733 700.833,-106.733 700.833,-106.733 703.648,-110.865 697.114,-109.267 706.464,-114.997 706.464,-114.997"/>
<polygon fill="#a59603" stroke="#a59603" points="354.209,-245.064 343.791,-248.489 350.518,-248.437 346.827,-251.811 346.827,-251.811 346.827,-251.811 350.518,-248.437 349.863,-255.132 354.209,-245.064 354.209,-245.064"/>
</g>
<!-- Role&#45;&gt;Interest -->
<g id="edge8" class="edge"><title>Role&#45;&gt;Interest</title>
<path fill="none" stroke="#a390e3" d="M686.688,-64.791C686.688,-58.832 686.688,-52.4496 686.688,-46.3988"/>
<ellipse fill="none" stroke="#a390e3" cx="686.688" cy="-68.8129" rx="4" ry="4"/>
<polygon fill="#a390e3" stroke="#a390e3" points="686.688,-46.0288 691.188,-36.0288 686.688,-41.0288 686.688,-36.0288 686.688,-36.0288 686.688,-36.0288 686.688,-41.0288 682.188,-36.0289 686.688,-46.0288 686.688,-46.0288"/>
</g>
<!-- Role&#45;&gt;User -->
<g id="edge10" class="edge"><title>Role&#45;&gt;User</title>
<path fill="none" stroke="#78444b" d="M656.272,-106.712C654.394,-107.512 652.522,-108.281 650.688,-109 625.953,-118.694 615.581,-111.951 593.688,-127 584.414,-133.375 576.264,-142.604 569.846,-151.338"/>
<polygon fill="#78444b" stroke="#78444b" points="656.447,-106.634 667.413,-106.66 661.012,-104.593 665.576,-102.552 665.576,-102.552 665.576,-102.552 661.012,-104.593 663.739,-98.4437 656.447,-106.634 656.447,-106.634"/>
<polygon fill="#78444b" stroke="#78444b" points="569.701,-151.548 560.321,-157.229 566.863,-155.666 564.026,-159.783 564.026,-159.783 564.026,-159.783 566.863,-155.666 567.732,-162.336 569.701,-151.548 569.701,-151.548"/>
</g>
<!-- SnomedctConcept -->
<g id="node17" class="node"><title>SnomedctConcept</title>
<ellipse fill="none" stroke="black" cx="1040.69" cy="-177" rx="74.8948" ry="18"/>
<text text-anchor="middle" x="1040.69" y="-172.8" font-family="Times,serif" font-size="14.00">SnomedctConcept</text>
</g>
<!-- SnomedctConcept&#45;&gt;Focus -->
<g id="edge13" class="edge"><title>SnomedctConcept&#45;&gt;Focus</title>
<path fill="none" stroke="#fcb71b" d="M1022.38,-152.335C1013.6,-140.996 1003.11,-127.439 994.298,-116.05"/>
<ellipse fill="none" stroke="#fcb71b" cx="1025.09" cy="-155.838" rx="4.00002" ry="4.00002"/>
<polygon fill="#fcb71b" stroke="#fcb71b" points="994.062,-115.745 991.501,-105.083 991.002,-111.791 987.942,-107.837 987.942,-107.837 987.942,-107.837 991.002,-111.791 984.383,-110.591 994.062,-115.745 994.062,-115.745"/>
</g>
<!-- SnomedctConcept&#45;&gt;Interest -->
<g id="edge12" class="edge"><title>SnomedctConcept&#45;&gt;Interest</title>
<path fill="none" stroke="#2f46c9" d="M1042.01,-150.649C1041.76,-126.944 1037.28,-92.3734 1015.69,-73 968.483,-30.6409 794.264,-51.1993 732.688,-36 729.725,-35.2687 726.69,-34.4088 723.661,-33.4709"/>
<ellipse fill="none" stroke="#2f46c9" cx="1041.98" cy="-154.842" rx="4" ry="4"/>
<polygon fill="#2f46c9" stroke="#2f46c9" points="723.587,-33.4459 715.533,-26.0033 718.845,-31.8582 714.104,-30.2704 714.104,-30.2704 714.104,-30.2704 718.845,-31.8582 712.675,-34.5375 723.587,-33.4459 723.587,-33.4459"/>
</g>
<!-- SnomedctDescription -->
<g id="node18" class="node"><title>SnomedctDescription</title>
<ellipse fill="none" stroke="black" cx="1149.69" cy="-91" rx="86.9722" ry="18"/>
<text text-anchor="middle" x="1149.69" y="-86.8" font-family="Times,serif" font-size="14.00">SnomedctDescription</text>
</g>
<!-- SnomedctConcept&#45;&gt;SnomedctDescription -->
<g id="edge14" class="edge"><title>SnomedctConcept&#45;&gt;SnomedctDescription</title>
<path fill="none" stroke="#888d00" d="M1068.52,-154.554C1084.29,-142.4 1104.01,-127.197 1120.07,-114.823"/>
<ellipse fill="none" stroke="#888d00" cx="1065.13" cy="-157.163" rx="4.00002" ry="4.00002"/>
<polygon fill="#888d00" stroke="#888d00" points="1120.17,-114.745 1130.84,-112.206 1124.13,-111.693 1128.09,-108.641 1128.09,-108.641 1128.09,-108.641 1124.13,-111.693 1125.35,-105.077 1120.17,-114.745 1120.17,-114.745"/>
</g>
<!-- User&#45;&gt;Capability -->
<g id="edge16" class="edge"><title>User&#45;&gt;Capability</title>
<path fill="none" stroke="#a37778" d="M519.525,-174.376C475.844,-170.311 402.528,-156.362 365.163,-109 351.369,-91.5152 349.946,-65.7999 351.423,-46.3294"/>
<ellipse fill="none" stroke="#a37778" cx="523.597" cy="-174.714" rx="4" ry="4"/>
<polygon fill="#a37778" stroke="#a37778" points="351.437,-46.1922 356.957,-36.7169 351.959,-41.2195 352.482,-36.2469 352.482,-36.2469 352.482,-36.2469 351.959,-41.2195 348.006,-35.7769 351.437,-46.1922 351.437,-46.1922"/>
<text text-anchor="middle" x="428.45" y="-86.8" font-family="Times,serif" font-size="14.00">individual_capabilities</text>
</g>
<!-- User&#45;&gt;Identity -->
<g id="edge18" class="edge"><title>User&#45;&gt;Identity</title>
<path fill="none" stroke="#4f3670" d="M589.136,-171.836C620.354,-167.174 667.089,-157.943 704.688,-141 720.251,-133.987 735.901,-123.246 748.352,-113.606"/>
<ellipse fill="none" stroke="#4f3670" cx="585.116" cy="-172.412" rx="4.00001" ry="4.00001"/>
<polygon fill="#4f3670" stroke="#4f3670" points="748.605,-113.405 759.228,-110.685 752.513,-110.286 756.421,-107.168 756.421,-107.168 756.421,-107.168 752.513,-110.286 753.614,-103.65 748.605,-113.405 748.605,-113.405"/>
</g>
<!-- User&#45;&gt;Issue -->
<g id="edge19" class="edge"><title>User&#45;&gt;Issue</title>
<path fill="none" stroke="#6c020e" d="M546.861,-151.382C545.781,-147.901 544.696,-144.363 543.688,-141 541.511,-133.743 539.224,-125.857 537.144,-118.576"/>
<ellipse fill="none" stroke="#6c020e" cx="548.143" cy="-155.476" rx="4.00001" ry="4.00001"/>
<polygon fill="#6c020e" stroke="#6c020e" points="537.103,-118.434 538.703,-107.585 535.739,-113.624 534.374,-108.814 534.374,-108.814 534.374,-108.814 535.739,-113.624 530.045,-110.042 537.103,-118.434 537.103,-118.434"/>
</g>
<!-- User&#45;&gt;Member -->
<g id="edge15" class="edge"><title>User&#45;&gt;Member</title>
<path fill="none" stroke="#36ec62" d="M519.577,-176.673C453.792,-177.13 315.745,-174.013 284.032,-141 278.52,-135.262 276.445,-127.21 276.035,-119.288"/>
<ellipse fill="none" stroke="#36ec62" cx="523.607" cy="-176.635" rx="4" ry="4"/>
<polygon fill="#36ec62" stroke="#36ec62" points="276.038,-119.152 280.804,-109.276 276.172,-114.154 276.306,-109.156 276.306,-109.156 276.306,-109.156 276.172,-114.154 271.807,-109.035 276.038,-119.152 276.038,-119.152"/>
<text text-anchor="middle" x="321.015" y="-129.8" font-family="Times,serif" font-size="14.00">memberships</text>
</g>
<!-- User&#45;&gt;Participant -->
<g id="edge21" class="edge"><title>User&#45;&gt;Participant</title>
<path fill="none" stroke="#66b786" d="M589.016,-170.487C624.702,-164.45 682.038,-153.891 730.688,-141 766.433,-131.528 806.174,-118.101 835.314,-107.696"/>
<ellipse fill="none" stroke="#66b786" cx="584.811" cy="-171.19" rx="4.00001" ry="4.00001"/>
<polygon fill="#66b786" stroke="#66b786" points="835.36,-107.68 846.293,-108.528 840.064,-105.987 844.769,-104.294 844.769,-104.294 844.769,-104.294 840.064,-105.987 843.245,-100.06 835.36,-107.68 835.36,-107.68"/>
</g>
<!-- User&#45;&gt;Result -->
<g id="edge20" class="edge"><title>User&#45;&gt;Result</title>
<path fill="none" stroke="#cbb924" d="M558.994,-150.658C561.098,-142.676 564.187,-134.098 568.688,-127 572.125,-121.579 576.648,-116.52 581.413,-112.026"/>
<ellipse fill="none" stroke="#cbb924" cx="558.041" cy="-154.776" rx="4.00001" ry="4.00001"/>
<polygon fill="#cbb924" stroke="#cbb924" points="581.426,-112.015 591.927,-108.858 585.202,-108.737 588.977,-105.459 588.977,-105.459 588.977,-105.459 585.202,-108.737 586.027,-102.061 581.426,-112.015 581.426,-112.015"/>
</g>
<!-- User&#45;&gt;Role -->
<g id="edge17" class="edge"><title>User&#45;&gt;Role</title>
<path fill="none" stroke="#f37607" d="M577.455,-154.853C588.014,-145.649 601.015,-135.132 613.701,-127 615.76,-125.68 637.165,-115.445 656.265,-106.381"/>
<polygon fill="#f37607" stroke="#f37607" points="577.372,-154.927 566.911,-158.213 573.637,-158.251 569.902,-161.575 569.902,-161.575 569.902,-161.575 573.637,-158.251 572.894,-164.936 577.372,-154.927 577.372,-154.927"/>
<polygon fill="#f37607" stroke="#f37607" points="656.325,-106.353 667.289,-106.137 660.844,-104.212 665.362,-102.07 665.362,-102.07 665.362,-102.07 660.844,-104.212 663.435,-98.0037 656.325,-106.353 656.325,-106.353"/>
<text text-anchor="middle" x="659.181" y="-129.8" font-family="Times,serif" font-size="14.00">individual_roles</text>
</g>
</g>
</svg>
