<?xml version="1.0" encoding="UTF-8" standalone="no"?>
<!DOCTYPE svg PUBLIC "-//W3C//DTD SVG 1.1//EN"
 "http://www.w3.org/Graphics/SVG/1.1/DTD/svg11.dtd">
<!-- Generated by graphviz version 2.38.0 (20140413.2041)
 -->
<!-- Title: models_diagram Pages: 1 -->
<svg width="1755pt" height="966pt"
 viewBox="0.00 0.00 1754.72 966.00" xmlns="http://www.w3.org/2000/svg" xmlns:xlink="http://www.w3.org/1999/xlink">
<g id="graph0" class="graph" transform="scale(1 1) rotate(0) translate(4 962)">
<title>models_diagram</title>
<polygon fill="none" stroke="none" points="-4,4 -4,-962 1750.72,-962 1750.72,4 -4,4"/>
<!-- _diagram_info -->
<g id="node1" class="node"><title>_diagram_info</title>
<text text-anchor="start" x="602.413" y="-915.6" font-family="Times,serif" font-size="13.00">Models diagram</text>
<text text-anchor="start" x="602.413" y="-902.6" font-family="Times,serif" font-size="13.00">Date: Jul 01 2016 &#45; 13:26</text>
<text text-anchor="start" x="602.413" y="-889.6" font-family="Times,serif" font-size="13.00">Migration version: 20160630211533</text>
<text text-anchor="start" x="602.413" y="-876.6" font-family="Times,serif" font-size="13.00">Generated by RailRoady 1.5.1</text>
<text text-anchor="start" x="602.413" y="-863.6" font-family="Times,serif" font-size="13.00">http://railroady.prestonlee.com</text>
</g>
<!-- Ability -->
<g id="node2" class="node"><title>Ability</title>
<polygon fill="none" stroke="black" points="819.028,-871.5 819.028,-915.5 874.697,-915.5 874.697,-871.5 819.028,-871.5"/>
<text text-anchor="middle" x="846.862" y="-900.3" font-family="Times,serif" font-size="14.00">Ability</text>
<polyline fill="none" stroke="black" points="819.028,-893.5 874.697,-893.5 "/>
<text text-anchor="middle" x="846.862" y="-878.3" font-family="Times,serif" font-size="14.00"> </text>
</g>
<!-- Context::Activity -->
<g id="node3" class="node"><title>Context::Activity</title>
<path fill="none" stroke="black" d="M905,-566.5C905,-566.5 1128.72,-566.5 1128.72,-566.5 1134.72,-566.5 1140.72,-572.5 1140.72,-578.5 1140.72,-578.5 1140.72,-766.5 1140.72,-766.5 1140.72,-772.5 1134.72,-778.5 1128.72,-778.5 1128.72,-778.5 905,-778.5 905,-778.5 899,-778.5 893,-772.5 893,-766.5 893,-766.5 893,-578.5 893,-578.5 893,-572.5 899,-566.5 905,-566.5"/>
<text text-anchor="middle" x="1016.86" y="-763.3" font-family="Times,serif" font-size="14.00">Context::Activity</text>
<polyline fill="none" stroke="black" points="893,-756.5 1140.72,-756.5 "/>
<text text-anchor="start" x="901" y="-741.3" font-family="Times,serif" font-size="14.00">scope_id :uuid</text>
<text text-anchor="start" x="901" y="-727.3" font-family="Times,serif" font-size="14.00">parent_id :uuid</text>
<text text-anchor="start" x="901" y="-713.3" font-family="Times,serif" font-size="14.00">name :character varying</text>
<text text-anchor="start" x="901" y="-699.3" font-family="Times,serif" font-size="14.00">description :text</text>
<text text-anchor="start" x="901" y="-685.3" font-family="Times,serif" font-size="14.00">started_at :timestamp without time zone</text>
<text text-anchor="start" x="901" y="-671.3" font-family="Times,serif" font-size="14.00">ended_at :timestamp without time zone</text>
<text text-anchor="start" x="901" y="-657.3" font-family="Times,serif" font-size="14.00">semantic_uri :character varying</text>
<text text-anchor="start" x="901" y="-643.3" font-family="Times,serif" font-size="14.00">created_at :timestamp without time zone</text>
<text text-anchor="start" x="901" y="-629.3" font-family="Times,serif" font-size="14.00">updated_at :timestamp without time zone</text>
<text text-anchor="start" x="901" y="-615.3" font-family="Times,serif" font-size="14.00">place_id :uuid</text>
<text text-anchor="start" x="901" y="-601.3" font-family="Times,serif" font-size="14.00">system :boolean</text>
<text text-anchor="start" x="901" y="-587.3" font-family="Times,serif" font-size="14.00">next_id :uuid</text>
<text text-anchor="start" x="901" y="-573.3" font-family="Times,serif" font-size="14.00">id :uuid</text>
</g>
<!-- Context::Activity&#45;&gt;Context::Activity -->
<g id="edge4" class="edge"><title>Context::Activity&#45;&gt;Context::Activity</title>
<path fill="none" stroke="#a6cdf3" d="M1149.11,-677.576C1155.18,-676.291 1158.72,-674.599 1158.72,-672.5 1158.72,-670.629 1155.9,-669.082 1151,-667.857"/>
<ellipse fill="none" stroke="#a6cdf3" cx="1144.84" cy="-678.263" rx="4.00001" ry="4.00001"/>
<polygon fill="#a6cdf3" stroke="#a6cdf3" points="1150.74,-667.813 1141.66,-661.668 1145.82,-666.957 1140.89,-666.101 1140.89,-666.101 1140.89,-666.101 1145.82,-666.957 1140.12,-670.535 1150.74,-667.813 1150.74,-667.813"/>
<text text-anchor="middle" x="1201.49" y="-668.3" font-family="Times,serif" font-size="14.00">child_activities</text>
</g>
<!-- Context::Activity&#45;&gt;Context::Activity -->
<g id="edge5" class="edge"><title>Context::Activity&#45;&gt;Context::Activity</title>
<path fill="none" stroke="#9afdc3" d="M1148.97,-688.748C1199.82,-688.862 1244.26,-683.446 1244.26,-672.5 1244.26,-661.689 1200.91,-656.273 1150.85,-656.25"/>
<ellipse fill="none" stroke="#9afdc3" cx="1144.76" cy="-688.715" rx="4" ry="4"/>
<polygon fill="#9afdc3" stroke="#9afdc3" points="1150.76,-656.251 1140.73,-651.818 1145.76,-656.284 1140.76,-656.318 1140.76,-656.318 1140.76,-656.318 1145.76,-656.284 1140.79,-660.817 1150.76,-656.251 1150.76,-656.251"/>
<text text-anchor="middle" x="1297.13" y="-668.3" font-family="Times,serif" font-size="14.00">previous_activities</text>
</g>
<!-- Context::Activity&#45;&gt;Context::Activity -->
<g id="edge6" class="edge"><title>Context::Activity&#45;&gt;Context::Activity</title>
<path fill="none" stroke="#244edf" d="M1149.04,-695.39C1243.57,-700.391 1350.01,-692.762 1350.01,-672.5 1350.01,-652.381 1245.06,-644.717 1151.04,-649.507"/>
<ellipse fill="none" stroke="#244edf" cx="1144.8" cy="-695.148" rx="4" ry="4"/>
<polygon fill="#244edf" stroke="#244edf" points="1150.79,-649.52 1140.56,-645.587 1145.8,-649.8 1140.81,-650.08 1140.81,-650.08 1140.81,-650.08 1145.8,-649.8 1141.06,-654.573 1150.79,-649.52 1150.79,-649.52"/>
<text text-anchor="middle" x="1398.21" y="-668.3" font-family="Times,serif" font-size="14.00">scoped_activities</text>
</g>
<!-- Context::ActorRole -->
<g id="node4" class="node"><title>Context::ActorRole</title>
<path fill="none" stroke="black" d="M734,-352.5C734,-352.5 957.725,-352.5 957.725,-352.5 963.725,-352.5 969.725,-358.5 969.725,-364.5 969.725,-364.5 969.725,-454.5 969.725,-454.5 969.725,-460.5 963.725,-466.5 957.725,-466.5 957.725,-466.5 734,-466.5 734,-466.5 728,-466.5 722,-460.5 722,-454.5 722,-454.5 722,-364.5 722,-364.5 722,-358.5 728,-352.5 734,-352.5"/>
<text text-anchor="middle" x="845.862" y="-451.3" font-family="Times,serif" font-size="14.00">Context::ActorRole</text>
<polyline fill="none" stroke="black" points="722,-444.5 969.725,-444.5 "/>
<text text-anchor="start" x="730" y="-429.3" font-family="Times,serif" font-size="14.00">id :uuid</text>
<text text-anchor="start" x="730" y="-415.3" font-family="Times,serif" font-size="14.00">activity_id :uuid</text>
<text text-anchor="start" x="730" y="-401.3" font-family="Times,serif" font-size="14.00">semantic_uri :character varying</text>
<text text-anchor="start" x="730" y="-387.3" font-family="Times,serif" font-size="14.00">created_at :timestamp without time zone</text>
<text text-anchor="start" x="730" y="-373.3" font-family="Times,serif" font-size="14.00">updated_at :timestamp without time zone</text>
<text text-anchor="start" x="730" y="-359.3" font-family="Times,serif" font-size="14.00">person_id :uuid</text>
</g>
<!-- Context::Activity&#45;&gt;Context::ActorRole -->
<g id="edge1" class="edge"><title>Context::Activity&#45;&gt;Context::ActorRole</title>
<path fill="none" stroke="#0cafb5" d="M943.574,-559.64C924.662,-530.772 904.935,-500.663 888.199,-475.119"/>
<ellipse fill="none" stroke="#0cafb5" cx="945.857" cy="-563.124" rx="4.00002" ry="4.00002"/>
<polygon fill="#0cafb5" stroke="#0cafb5" points="888.124,-475.004 886.407,-464.173 885.383,-470.822 882.643,-466.639 882.643,-466.639 882.643,-466.639 885.383,-470.822 878.879,-469.106 888.124,-475.004 888.124,-475.004"/>
<text text-anchor="middle" x="962.959" y="-536.8" font-family="Times,serif" font-size="14.00">actor_roles</text>
</g>
<!-- Context::Objective -->
<g id="node6" class="node"><title>Context::Objective</title>
<path fill="none" stroke="black" d="M1000,-331.5C1000,-331.5 1223.72,-331.5 1223.72,-331.5 1229.72,-331.5 1235.72,-337.5 1235.72,-343.5 1235.72,-343.5 1235.72,-475.5 1235.72,-475.5 1235.72,-481.5 1229.72,-487.5 1223.72,-487.5 1223.72,-487.5 1000,-487.5 1000,-487.5 994,-487.5 988,-481.5 988,-475.5 988,-475.5 988,-343.5 988,-343.5 988,-337.5 994,-331.5 1000,-331.5"/>
<text text-anchor="middle" x="1111.86" y="-472.3" font-family="Times,serif" font-size="14.00">Context::Objective</text>
<polyline fill="none" stroke="black" points="988,-465.5 1235.72,-465.5 "/>
<text text-anchor="start" x="996" y="-450.3" font-family="Times,serif" font-size="14.00">activity_id :uuid</text>
<text text-anchor="start" x="996" y="-436.3" font-family="Times,serif" font-size="14.00">formalized :boolean</text>
<text text-anchor="start" x="996" y="-422.3" font-family="Times,serif" font-size="14.00">language :character varying</text>
<text text-anchor="start" x="996" y="-408.3" font-family="Times,serif" font-size="14.00">semantic_uri :character varying</text>
<text text-anchor="start" x="996" y="-394.3" font-family="Times,serif" font-size="14.00">specification :character varying</text>
<text text-anchor="start" x="996" y="-380.3" font-family="Times,serif" font-size="14.00">comment :text</text>
<text text-anchor="start" x="996" y="-366.3" font-family="Times,serif" font-size="14.00">created_at :timestamp without time zone</text>
<text text-anchor="start" x="996" y="-352.3" font-family="Times,serif" font-size="14.00">updated_at :timestamp without time zone</text>
<text text-anchor="start" x="996" y="-338.3" font-family="Times,serif" font-size="14.00">id :uuid</text>
</g>
<!-- Context::Activity&#45;&gt;Context::Objective -->
<g id="edge3" class="edge"><title>Context::Activity&#45;&gt;Context::Objective</title>
<path fill="none" stroke="#85409c" d="M1057.91,-558.714C1065.42,-538.098 1073.14,-516.882 1080.31,-497.174"/>
<ellipse fill="none" stroke="#85409c" cx="1056.46" cy="-562.711" rx="4.00001" ry="4.00001"/>
<polygon fill="#85409c" stroke="#85409c" points="1080.37,-497.026 1088.02,-489.169 1082.08,-492.328 1083.79,-487.629 1083.79,-487.629 1083.79,-487.629 1082.08,-492.328 1079.56,-486.09 1080.37,-497.026 1080.37,-497.026"/>
<text text-anchor="middle" x="1092.24" y="-536.8" font-family="Times,serif" font-size="14.00">objectives</text>
</g>
<!-- Context::UsageRole -->
<g id="node8" class="node"><title>Context::UsageRole</title>
<path fill="none" stroke="black" d="M1388,-352.5C1388,-352.5 1611.72,-352.5 1611.72,-352.5 1617.72,-352.5 1623.72,-358.5 1623.72,-364.5 1623.72,-364.5 1623.72,-454.5 1623.72,-454.5 1623.72,-460.5 1617.72,-466.5 1611.72,-466.5 1611.72,-466.5 1388,-466.5 1388,-466.5 1382,-466.5 1376,-460.5 1376,-454.5 1376,-454.5 1376,-364.5 1376,-364.5 1376,-358.5 1382,-352.5 1388,-352.5"/>
<text text-anchor="middle" x="1499.86" y="-451.3" font-family="Times,serif" font-size="14.00">Context::UsageRole</text>
<polyline fill="none" stroke="black" points="1376,-444.5 1623.72,-444.5 "/>
<text text-anchor="start" x="1384" y="-429.3" font-family="Times,serif" font-size="14.00">id :uuid</text>
<text text-anchor="start" x="1384" y="-415.3" font-family="Times,serif" font-size="14.00">activity_id :uuid</text>
<text text-anchor="start" x="1384" y="-401.3" font-family="Times,serif" font-size="14.00">asset_id :uuid</text>
<text text-anchor="start" x="1384" y="-387.3" font-family="Times,serif" font-size="14.00">created_at :timestamp without time zone</text>
<text text-anchor="start" x="1384" y="-373.3" font-family="Times,serif" font-size="14.00">updated_at :timestamp without time zone</text>
<text text-anchor="start" x="1384" y="-359.3" font-family="Times,serif" font-size="14.00">semantic_uri :character varying</text>
</g>
<!-- Context::Activity&#45;&gt;Context::UsageRole -->
<g id="edge2" class="edge"><title>Context::Activity&#45;&gt;Context::UsageRole</title>
<path fill="none" stroke="#c84bc9" d="M1148.41,-600.414C1223.14,-560.031 1315.73,-509.998 1387.12,-471.425"/>
<ellipse fill="none" stroke="#c84bc9" cx="1144.45" cy="-602.554" rx="4.00002" ry="4.00002"/>
<polygon fill="#c84bc9" stroke="#c84bc9" points="1387.36,-471.294 1398.3,-470.499 1391.76,-468.917 1396.16,-466.54 1396.16,-466.54 1396.16,-466.54 1391.76,-468.917 1394.02,-462.581 1387.36,-471.294 1387.36,-471.294"/>
<text text-anchor="middle" x="1290.91" y="-536.8" font-family="Times,serif" font-size="14.00">usage_roles</text>
</g>
<!-- Context::Asset -->
<g id="node5" class="node"><title>Context::Asset</title>
<path fill="none" stroke="black" d="M1511,-629.5C1511,-629.5 1734.72,-629.5 1734.72,-629.5 1740.72,-629.5 1746.72,-635.5 1746.72,-641.5 1746.72,-641.5 1746.72,-703.5 1746.72,-703.5 1746.72,-709.5 1740.72,-715.5 1734.72,-715.5 1734.72,-715.5 1511,-715.5 1511,-715.5 1505,-715.5 1499,-709.5 1499,-703.5 1499,-703.5 1499,-641.5 1499,-641.5 1499,-635.5 1505,-629.5 1511,-629.5"/>
<text text-anchor="middle" x="1622.86" y="-700.3" font-family="Times,serif" font-size="14.00">Context::Asset</text>
<polyline fill="none" stroke="black" points="1499,-693.5 1746.72,-693.5 "/>
<text text-anchor="start" x="1507" y="-678.3" font-family="Times,serif" font-size="14.00">id :uuid</text>
<text text-anchor="start" x="1507" y="-664.3" font-family="Times,serif" font-size="14.00">uri :character varying</text>
<text text-anchor="start" x="1507" y="-650.3" font-family="Times,serif" font-size="14.00">created_at :timestamp without time zone</text>
<text text-anchor="start" x="1507" y="-636.3" font-family="Times,serif" font-size="14.00">updated_at :timestamp without time zone</text>
</g>
<!-- Context::Asset&#45;&gt;Context::UsageRole -->
<g id="edge7" class="edge"><title>Context::Asset&#45;&gt;Context::UsageRole</title>
<path fill="none" stroke="#dba84b" d="M1599.45,-621.813C1579.95,-580.436 1552.02,-521.185 1530.71,-475.948"/>
<ellipse fill="none" stroke="#dba84b" cx="1601.26" cy="-625.657" rx="4.00002" ry="4.00002"/>
<polygon fill="#dba84b" stroke="#dba84b" points="1530.66,-475.854 1530.47,-464.89 1528.53,-471.331 1526.4,-466.808 1526.4,-466.808 1526.4,-466.808 1528.53,-471.331 1522.33,-468.726 1530.66,-475.854 1530.66,-475.854"/>
<text text-anchor="middle" x="1593.91" y="-536.8" font-family="Times,serif" font-size="14.00">usage_roles</text>
</g>
<!-- Context::Place -->
<g id="node7" class="node"><title>Context::Place</title>
<path fill="none" stroke="black" d="M905,-836.5C905,-836.5 1128.72,-836.5 1128.72,-836.5 1134.72,-836.5 1140.72,-842.5 1140.72,-848.5 1140.72,-848.5 1140.72,-938.5 1140.72,-938.5 1140.72,-944.5 1134.72,-950.5 1128.72,-950.5 1128.72,-950.5 905,-950.5 905,-950.5 899,-950.5 893,-944.5 893,-938.5 893,-938.5 893,-848.5 893,-848.5 893,-842.5 899,-836.5 905,-836.5"/>
<text text-anchor="middle" x="1016.86" y="-935.3" font-family="Times,serif" font-size="14.00">Context::Place</text>
<polyline fill="none" stroke="black" points="893,-928.5 1140.72,-928.5 "/>
<text text-anchor="start" x="901" y="-913.3" font-family="Times,serif" font-size="14.00">id :uuid</text>
<text text-anchor="start" x="901" y="-899.3" font-family="Times,serif" font-size="14.00">name :character varying</text>
<text text-anchor="start" x="901" y="-885.3" font-family="Times,serif" font-size="14.00">address :text</text>
<text text-anchor="start" x="901" y="-871.3" font-family="Times,serif" font-size="14.00">description :text</text>
<text text-anchor="start" x="901" y="-857.3" font-family="Times,serif" font-size="14.00">created_at :timestamp without time zone</text>
<text text-anchor="start" x="901" y="-843.3" font-family="Times,serif" font-size="14.00">updated_at :timestamp without time zone</text>
</g>
<!-- Context::Place&#45;&gt;Context::Activity -->
<g id="edge8" class="edge"><title>Context::Place&#45;&gt;Context::Activity</title>
<path fill="none" stroke="#e1f24e" d="M1016.86,-827.96C1016.86,-815.646 1016.86,-802.415 1016.86,-789.062"/>
<ellipse fill="none" stroke="#e1f24e" cx="1016.86" cy="-832.386" rx="4" ry="4"/>
<polygon fill="#e1f24e" stroke="#e1f24e" points="1016.86,-788.841 1021.36,-778.841 1016.86,-783.841 1016.86,-778.841 1016.86,-778.841 1016.86,-778.841 1016.86,-783.841 1012.36,-778.841 1016.86,-788.841 1016.86,-788.841"/>
<text text-anchor="middle" x="1042.13" y="-799.8" font-family="Times,serif" font-size="14.00">activities</text>
</g>
<!-- System::Capability -->
<g id="node9" class="node"><title>System::Capability</title>
<path fill="none" stroke="black" d="M12,-0.5C12,-0.5 235.725,-0.5 235.725,-0.5 241.725,-0.5 247.725,-6.5 247.725,-12.5 247.725,-12.5 247.725,-102.5 247.725,-102.5 247.725,-108.5 241.725,-114.5 235.725,-114.5 235.725,-114.5 12,-114.5 12,-114.5 6,-114.5 0,-108.5 0,-102.5 0,-102.5 0,-12.5 0,-12.5 0,-6.5 6,-0.5 12,-0.5"/>
<text text-anchor="middle" x="123.862" y="-99.3" font-family="Times,serif" font-size="14.00">System::Capability</text>
<polyline fill="none" stroke="black" points="0,-92.5 247.725,-92.5 "/>
<text text-anchor="start" x="8" y="-77.3" font-family="Times,serif" font-size="14.00">id :uuid</text>
<text text-anchor="start" x="8" y="-63.3" font-family="Times,serif" font-size="14.00">entity_id :uuid</text>
<text text-anchor="start" x="8" y="-49.3" font-family="Times,serif" font-size="14.00">entity_type :character varying</text>
<text text-anchor="start" x="8" y="-35.3" font-family="Times,serif" font-size="14.00">role_id :uuid</text>
<text text-anchor="start" x="8" y="-21.3" font-family="Times,serif" font-size="14.00">created_at :timestamp without time zone</text>
<text text-anchor="start" x="8" y="-7.3" font-family="Times,serif" font-size="14.00">updated_at :timestamp without time zone</text>
</g>
<!-- System::Client -->
<g id="node10" class="node"><title>System::Client</title>
<path fill="none" stroke="black" d="M1171,-829.5C1171,-829.5 1394.72,-829.5 1394.72,-829.5 1400.72,-829.5 1406.72,-835.5 1406.72,-841.5 1406.72,-841.5 1406.72,-945.5 1406.72,-945.5 1406.72,-951.5 1400.72,-957.5 1394.72,-957.5 1394.72,-957.5 1171,-957.5 1171,-957.5 1165,-957.5 1159,-951.5 1159,-945.5 1159,-945.5 1159,-841.5 1159,-841.5 1159,-835.5 1165,-829.5 1171,-829.5"/>
<text text-anchor="middle" x="1282.86" y="-942.3" font-family="Times,serif" font-size="14.00">System::Client</text>
<polyline fill="none" stroke="black" points="1159,-935.5 1406.72,-935.5 "/>
<text text-anchor="start" x="1167" y="-920.3" font-family="Times,serif" font-size="14.00">icon_url :character varying</text>
<text text-anchor="start" x="1167" y="-906.3" font-family="Times,serif" font-size="14.00">name :character varying</text>
<text text-anchor="start" x="1167" y="-892.3" font-family="Times,serif" font-size="14.00">launch_url :character varying</text>
<text text-anchor="start" x="1167" y="-878.3" font-family="Times,serif" font-size="14.00">id :uuid</text>
<text text-anchor="start" x="1167" y="-864.3" font-family="Times,serif" font-size="14.00">available :boolean</text>
<text text-anchor="start" x="1167" y="-850.3" font-family="Times,serif" font-size="14.00">created_at :timestamp without time zone</text>
<text text-anchor="start" x="1167" y="-836.3" font-family="Times,serif" font-size="14.00">updated_at :timestamp without time zone</text>
</g>
<!-- System::Group -->
<g id="node11" class="node"><title>System::Group</title>
<path fill="none" stroke="black" d="M164,-152.5C164,-152.5 387.725,-152.5 387.725,-152.5 393.725,-152.5 399.725,-158.5 399.725,-164.5 399.725,-164.5 399.725,-240.5 399.725,-240.5 399.725,-246.5 393.725,-252.5 387.725,-252.5 387.725,-252.5 164,-252.5 164,-252.5 158,-252.5 152,-246.5 152,-240.5 152,-240.5 152,-164.5 152,-164.5 152,-158.5 158,-152.5 164,-152.5"/>
<text text-anchor="middle" x="275.862" y="-237.3" font-family="Times,serif" font-size="14.00">System::Group</text>
<polyline fill="none" stroke="black" points="152,-230.5 399.725,-230.5 "/>
<text text-anchor="start" x="160" y="-215.3" font-family="Times,serif" font-size="14.00">id :uuid</text>
<text text-anchor="start" x="160" y="-201.3" font-family="Times,serif" font-size="14.00">name :character varying</text>
<text text-anchor="start" x="160" y="-187.3" font-family="Times,serif" font-size="14.00">description :text</text>
<text text-anchor="start" x="160" y="-173.3" font-family="Times,serif" font-size="14.00">created_at :timestamp without time zone</text>
<text text-anchor="start" x="160" y="-159.3" font-family="Times,serif" font-size="14.00">updated_at :timestamp without time zone</text>
</g>
<!-- System::Group&#45;&gt;System::Capability -->
<g id="edge11" class="edge"><title>System::Group&#45;&gt;System::Capability</title>
<path fill="none" stroke="#39023d" d="M217.447,-146.543C208.775,-138.385 199.781,-129.923 190.949,-121.614"/>
<ellipse fill="none" stroke="#39023d" cx="220.639" cy="-149.547" rx="4.00002" ry="4.00002"/>
<polygon fill="#39023d" stroke="#39023d" points="190.862,-121.533 186.662,-111.403 187.221,-118.107 183.579,-114.681 183.579,-114.681 183.579,-114.681 187.221,-118.107 180.495,-117.958 190.862,-121.533 190.862,-121.533"/>
</g>
<!-- System::Member -->
<g id="node15" class="node"><title>System::Member</title>
<path fill="none" stroke="black" d="M297,-7.5C297,-7.5 520.725,-7.5 520.725,-7.5 526.725,-7.5 532.725,-13.5 532.725,-19.5 532.725,-19.5 532.725,-95.5 532.725,-95.5 532.725,-101.5 526.725,-107.5 520.725,-107.5 520.725,-107.5 297,-107.5 297,-107.5 291,-107.5 285,-101.5 285,-95.5 285,-95.5 285,-19.5 285,-19.5 285,-13.5 291,-7.5 297,-7.5"/>
<text text-anchor="middle" x="408.862" y="-92.3" font-family="Times,serif" font-size="14.00">System::Member</text>
<polyline fill="none" stroke="black" points="285,-85.5 532.725,-85.5 "/>
<text text-anchor="start" x="293" y="-70.3" font-family="Times,serif" font-size="14.00">id :uuid</text>
<text text-anchor="start" x="293" y="-56.3" font-family="Times,serif" font-size="14.00">group_id :uuid</text>
<text text-anchor="start" x="293" y="-42.3" font-family="Times,serif" font-size="14.00">person_id :uuid</text>
<text text-anchor="start" x="293" y="-28.3" font-family="Times,serif" font-size="14.00">created_at :timestamp without time zone</text>
<text text-anchor="start" x="293" y="-14.3" font-family="Times,serif" font-size="14.00">updated_at :timestamp without time zone</text>
</g>
<!-- System::Group&#45;&gt;System::Member -->
<g id="edge9" class="edge"><title>System::Group&#45;&gt;System::Member</title>
<path fill="none" stroke="#9d5df1" d="M327.343,-146.149C336.8,-135.981 346.685,-125.353 356.176,-115.147"/>
<ellipse fill="none" stroke="#9d5df1" cx="324.358" cy="-149.359" rx="4.00002" ry="4.00002"/>
<polygon fill="#9d5df1" stroke="#9d5df1" points="356.196,-115.126 366.302,-110.868 359.602,-111.464 363.007,-107.803 363.007,-107.803 363.007,-107.803 359.602,-111.464 359.712,-104.739 356.196,-115.126 356.196,-115.126"/>
</g>
<!-- System::Person -->
<g id="node16" class="node"><title>System::Person</title>
<path fill="none" stroke="black" d="M278,-594.5C278,-594.5 501.725,-594.5 501.725,-594.5 507.725,-594.5 513.725,-600.5 513.725,-606.5 513.725,-606.5 513.725,-738.5 513.725,-738.5 513.725,-744.5 507.725,-750.5 501.725,-750.5 501.725,-750.5 278,-750.5 278,-750.5 272,-750.5 266,-744.5 266,-738.5 266,-738.5 266,-606.5 266,-606.5 266,-600.5 272,-594.5 278,-594.5"/>
<text text-anchor="middle" x="389.862" y="-735.3" font-family="Times,serif" font-size="14.00">System::Person</text>
<polyline fill="none" stroke="black" points="266,-728.5 513.725,-728.5 "/>
<text text-anchor="start" x="274" y="-713.3" font-family="Times,serif" font-size="14.00">updated_at :timestamp without time zone</text>
<text text-anchor="start" x="274" y="-699.3" font-family="Times,serif" font-size="14.00">name :character varying</text>
<text text-anchor="start" x="274" y="-685.3" font-family="Times,serif" font-size="14.00">external_id :character varying</text>
<text text-anchor="start" x="274" y="-671.3" font-family="Times,serif" font-size="14.00">salutation :character varying</text>
<text text-anchor="start" x="274" y="-657.3" font-family="Times,serif" font-size="14.00">first_name :character varying</text>
<text text-anchor="start" x="274" y="-643.3" font-family="Times,serif" font-size="14.00">middle_name :character varying</text>
<text text-anchor="start" x="274" y="-629.3" font-family="Times,serif" font-size="14.00">last_name :character varying</text>
<text text-anchor="start" x="274" y="-615.3" font-family="Times,serif" font-size="14.00">created_at :timestamp without time zone</text>
<text text-anchor="start" x="274" y="-601.3" font-family="Times,serif" font-size="14.00">id :uuid</text>
</g>
<!-- System::Group&#45;&gt;System::Person -->
<g id="edge10" class="edge"><title>System::Group&#45;&gt;System::Person</title>
<path fill="none" stroke="#911ac3" d="M342.654,-260.086C353.961,-272.988 364.186,-287.507 370.862,-303 409.622,-392.943 408.863,-506.886 401.963,-584.083"/>
<polygon fill="#911ac3" stroke="#911ac3" points="342.634,-260.064 339.213,-249.646 339.262,-256.373 335.89,-252.681 335.89,-252.681 335.89,-252.681 339.262,-256.373 332.568,-255.716 342.634,-260.064 342.634,-260.064"/>
<polygon fill="#911ac3" stroke="#911ac3" points="401.943,-584.298 396.52,-593.829 401.471,-589.276 401,-594.253 401,-594.253 401,-594.253 401.471,-589.276 405.48,-594.678 401.943,-584.298 401.943,-584.298"/>
</g>
<!-- System::Identity -->
<g id="node12" class="node"><title>System::Identity</title>
<path fill="none" stroke="black" d="M468,-303.5C468,-303.5 691.725,-303.5 691.725,-303.5 697.725,-303.5 703.725,-309.5 703.725,-315.5 703.725,-315.5 703.725,-503.5 703.725,-503.5 703.725,-509.5 697.725,-515.5 691.725,-515.5 691.725,-515.5 468,-515.5 468,-515.5 462,-515.5 456,-509.5 456,-503.5 456,-503.5 456,-315.5 456,-315.5 456,-309.5 462,-303.5 468,-303.5"/>
<text text-anchor="middle" x="579.862" y="-500.3" font-family="Times,serif" font-size="14.00">System::Identity</text>
<polyline fill="none" stroke="black" points="456,-493.5 703.725,-493.5 "/>
<text text-anchor="start" x="464" y="-478.3" font-family="Times,serif" font-size="14.00">updated_at :timestamp without time zone</text>
<text text-anchor="start" x="464" y="-464.3" font-family="Times,serif" font-size="14.00">person_id :uuid</text>
<text text-anchor="start" x="464" y="-450.3" font-family="Times,serif" font-size="14.00">identity_provider_id :uuid</text>
<text text-anchor="start" x="464" y="-436.3" font-family="Times,serif" font-size="14.00">sub :character varying</text>
<text text-anchor="start" x="464" y="-422.3" font-family="Times,serif" font-size="14.00">iat :character varying</text>
<text text-anchor="start" x="464" y="-408.3" font-family="Times,serif" font-size="14.00">hd :character varying</text>
<text text-anchor="start" x="464" y="-394.3" font-family="Times,serif" font-size="14.00">locale :character varying</text>
<text text-anchor="start" x="464" y="-380.3" font-family="Times,serif" font-size="14.00">email :character varying</text>
<text text-anchor="start" x="464" y="-366.3" font-family="Times,serif" font-size="14.00">jwt :json</text>
<text text-anchor="start" x="464" y="-352.3" font-family="Times,serif" font-size="14.00">notify_via_email :boolean</text>
<text text-anchor="start" x="464" y="-338.3" font-family="Times,serif" font-size="14.00">notify_via_sms :boolean</text>
<text text-anchor="start" x="464" y="-324.3" font-family="Times,serif" font-size="14.00">created_at :timestamp without time zone</text>
<text text-anchor="start" x="464" y="-310.3" font-family="Times,serif" font-size="14.00">id :uuid</text>
</g>
<!-- System::JsonWebToken -->
<g id="node14" class="node"><title>System::JsonWebToken</title>
<path fill="none" stroke="black" d="M734,-152.5C734,-152.5 957.725,-152.5 957.725,-152.5 963.725,-152.5 969.725,-158.5 969.725,-164.5 969.725,-164.5 969.725,-240.5 969.725,-240.5 969.725,-246.5 963.725,-252.5 957.725,-252.5 957.725,-252.5 734,-252.5 734,-252.5 728,-252.5 722,-246.5 722,-240.5 722,-240.5 722,-164.5 722,-164.5 722,-158.5 728,-152.5 734,-152.5"/>
<text text-anchor="middle" x="845.862" y="-237.3" font-family="Times,serif" font-size="14.00">System::JsonWebToken</text>
<polyline fill="none" stroke="black" points="722,-230.5 969.725,-230.5 "/>
<text text-anchor="start" x="730" y="-215.3" font-family="Times,serif" font-size="14.00">id :uuid</text>
<text text-anchor="start" x="730" y="-201.3" font-family="Times,serif" font-size="14.00">identity_id :uuid</text>
<text text-anchor="start" x="730" y="-187.3" font-family="Times,serif" font-size="14.00">expires_at :timestamp without time zone</text>
<text text-anchor="start" x="730" y="-173.3" font-family="Times,serif" font-size="14.00">created_at :timestamp without time zone</text>
<text text-anchor="start" x="730" y="-159.3" font-family="Times,serif" font-size="14.00">updated_at :timestamp without time zone</text>
</g>
<!-- System::Identity&#45;&gt;System::JsonWebToken -->
<g id="edge13" class="edge"><title>System::Identity&#45;&gt;System::JsonWebToken</title>
<path fill="none" stroke="#12b43c" d="M710.393,-304.905C711.218,-304.267 712.042,-303.632 712.862,-303 731.651,-288.525 752.096,-273.08 771.193,-258.783"/>
<ellipse fill="none" stroke="#12b43c" cx="707.185" cy="-307.385" rx="4.00002" ry="4.00002"/>
<polygon fill="#12b43c" stroke="#12b43c" points="771.277,-258.72 781.981,-256.336 775.281,-255.726 779.286,-252.732 779.286,-252.732 779.286,-252.732 775.281,-255.726 776.591,-249.128 771.277,-258.72 771.277,-258.72"/>
</g>
<!-- System::Session -->
<g id="node18" class="node"><title>System::Session</title>
<path fill="none" stroke="black" d="M468,-152.5C468,-152.5 691.725,-152.5 691.725,-152.5 697.725,-152.5 703.725,-158.5 703.725,-164.5 703.725,-164.5 703.725,-240.5 703.725,-240.5 703.725,-246.5 697.725,-252.5 691.725,-252.5 691.725,-252.5 468,-252.5 468,-252.5 462,-252.5 456,-246.5 456,-240.5 456,-240.5 456,-164.5 456,-164.5 456,-158.5 462,-152.5 468,-152.5"/>
<text text-anchor="middle" x="579.862" y="-237.3" font-family="Times,serif" font-size="14.00">System::Session</text>
<polyline fill="none" stroke="black" points="456,-230.5 703.725,-230.5 "/>
<text text-anchor="start" x="464" y="-215.3" font-family="Times,serif" font-size="14.00">id :uuid</text>
<text text-anchor="start" x="464" y="-201.3" font-family="Times,serif" font-size="14.00">identity_id :uuid</text>
<text text-anchor="start" x="464" y="-187.3" font-family="Times,serif" font-size="14.00">expires_at :timestamp without time zone</text>
<text text-anchor="start" x="464" y="-173.3" font-family="Times,serif" font-size="14.00">created_at :timestamp without time zone</text>
<text text-anchor="start" x="464" y="-159.3" font-family="Times,serif" font-size="14.00">updated_at :timestamp without time zone</text>
</g>
<!-- System::Identity&#45;&gt;System::Session -->
<g id="edge12" class="edge"><title>System::Identity&#45;&gt;System::Session</title>
<path fill="none" stroke="#7a8671" d="M579.862,-295.019C579.862,-283.875 579.862,-272.906 579.862,-262.647"/>
<ellipse fill="none" stroke="#7a8671" cx="579.862" cy="-299.298" rx="4" ry="4"/>
<polygon fill="#7a8671" stroke="#7a8671" points="579.862,-262.645 584.362,-252.645 579.862,-257.645 579.862,-252.645 579.862,-252.645 579.862,-252.645 579.862,-257.645 575.362,-252.645 579.862,-262.645 579.862,-262.645"/>
</g>
<!-- System::IdentityProvider -->
<g id="node13" class="node"><title>System::IdentityProvider</title>
<path fill="none" stroke="black" d="M544,-580.5C544,-580.5 767.725,-580.5 767.725,-580.5 773.725,-580.5 779.725,-586.5 779.725,-592.5 779.725,-592.5 779.725,-752.5 779.725,-752.5 779.725,-758.5 773.725,-764.5 767.725,-764.5 767.725,-764.5 544,-764.5 544,-764.5 538,-764.5 532,-758.5 532,-752.5 532,-752.5 532,-592.5 532,-592.5 532,-586.5 538,-580.5 544,-580.5"/>
<text text-anchor="middle" x="655.862" y="-749.3" font-family="Times,serif" font-size="14.00">System::IdentityProvider</text>
<polyline fill="none" stroke="black" points="532,-742.5 779.725,-742.5 "/>
<text text-anchor="start" x="540" y="-727.3" font-family="Times,serif" font-size="14.00">scopes :character varying</text>
<text text-anchor="start" x="540" y="-713.3" font-family="Times,serif" font-size="14.00">name :character varying</text>
<text text-anchor="start" x="540" y="-699.3" font-family="Times,serif" font-size="14.00">issuer :character varying</text>
<text text-anchor="start" x="540" y="-685.3" font-family="Times,serif" font-size="14.00">client_id :character varying</text>
<text text-anchor="start" x="540" y="-671.3" font-family="Times,serif" font-size="14.00">client_secret :character varying</text>
<text text-anchor="start" x="540" y="-657.3" font-family="Times,serif" font-size="14.00">alternate_client_id :character varying</text>
<text text-anchor="start" x="540" y="-643.3" font-family="Times,serif" font-size="14.00">configuration :json</text>
<text text-anchor="start" x="540" y="-629.3" font-family="Times,serif" font-size="14.00">public_keys :json</text>
<text text-anchor="start" x="540" y="-615.3" font-family="Times,serif" font-size="14.00">created_at :timestamp without time zone</text>
<text text-anchor="start" x="540" y="-601.3" font-family="Times,serif" font-size="14.00">updated_at :timestamp without time zone</text>
<text text-anchor="start" x="540" y="-587.3" font-family="Times,serif" font-size="14.00">id :uuid</text>
</g>
<!-- System::IdentityProvider&#45;&gt;System::Identity -->
<g id="edge14" class="edge"><title>System::IdentityProvider&#45;&gt;System::Identity</title>
<path fill="none" stroke="#6b232d" d="M632.386,-572.219C629.021,-559.316 625.471,-546.311 621.862,-534 621.041,-531.199 620.196,-528.366 619.332,-525.513"/>
<ellipse fill="none" stroke="#6b232d" cx="633.455" cy="-576.36" rx="4.00001" ry="4.00001"/>
<polygon fill="#6b232d" stroke="#6b232d" points="619.268,-525.304 620.627,-514.423 617.797,-520.525 616.326,-515.746 616.326,-515.746 616.326,-515.746 617.797,-520.525 612.025,-517.07 619.268,-525.304 619.268,-525.304"/>
</g>
<!-- System::Person&#45;&gt;Context::ActorRole -->
<g id="edge19" class="edge"><title>System::Person&#45;&gt;Context::ActorRole</title>
<path fill="none" stroke="#47916c" d="M483.521,-589.66C496.23,-580.853 509.508,-572.683 522.862,-566 600.951,-526.925 634.774,-555.075 712.862,-516 735.665,-504.59 758.246,-488.842 778.15,-472.992"/>
<ellipse fill="none" stroke="#47916c" cx="480.195" cy="-592.01" rx="4.00002" ry="4.00002"/>
<polygon fill="#47916c" stroke="#47916c" points="778.161,-472.983 788.763,-470.18 782.045,-469.834 785.929,-466.685 785.929,-466.685 785.929,-466.685 782.045,-469.834 783.095,-463.19 778.161,-472.983 778.161,-472.983"/>
<text text-anchor="middle" x="694.959" y="-536.8" font-family="Times,serif" font-size="14.00">actor_roles</text>
</g>
<!-- System::Person&#45;&gt;System::Capability -->
<g id="edge16" class="edge"><title>System::Person&#45;&gt;System::Capability</title>
<path fill="none" stroke="#85cf91" d="M258.094,-633.614C200.432,-609.756 138.384,-572.476 104.862,-516 32.1675,-393.525 70.5283,-218.403 100.106,-124.308"/>
<ellipse fill="none" stroke="#85cf91" cx="262.124" cy="-635.245" rx="4.00001" ry="4.00001"/>
<polygon fill="#85cf91" stroke="#85cf91" points="100.156,-124.151 107.494,-116.002 101.682,-119.39 103.208,-114.628 103.208,-114.628 103.208,-114.628 101.682,-119.39 98.9229,-113.255 100.156,-124.151 100.156,-124.151"/>
</g>
<!-- System::Person&#45;&gt;System::Identity -->
<g id="edge18" class="edge"><title>System::Person&#45;&gt;System::Identity</title>
<path fill="none" stroke="#2f9106" d="M450.986,-587.535C465.771,-567.225 481.816,-545.185 497.402,-523.774"/>
<ellipse fill="none" stroke="#2f9106" cx="448.452" cy="-591.017" rx="4.00002" ry="4.00002"/>
<polygon fill="#2f9106" stroke="#2f9106" points="497.464,-523.689 506.988,-518.252 500.407,-519.646 503.35,-515.604 503.35,-515.604 503.35,-515.604 500.407,-519.646 499.712,-512.955 497.464,-523.689 497.464,-523.689"/>
</g>
<!-- System::Person&#45;&gt;System::Member -->
<g id="edge15" class="edge"><title>System::Person&#45;&gt;System::Member</title>
<path fill="none" stroke="#ca7ce8" d="M408.597,-586.478C410.782,-573.642 412.658,-560.513 413.862,-548 428.757,-393.279 419.817,-209.787 413.497,-117.605"/>
<ellipse fill="none" stroke="#ca7ce8" cx="407.893" cy="-590.484" rx="4.00001" ry="4.00001"/>
<polygon fill="#ca7ce8" stroke="#ca7ce8" points="413.497,-117.605 417.287,-107.315 413.147,-112.617 412.798,-107.629 412.798,-107.629 412.798,-107.629 413.147,-112.617 408.309,-107.944 413.497,-117.605 413.497,-117.605"/>
<text text-anchor="middle" x="459.19" y="-273.8" font-family="Times,serif" font-size="14.00">memberships</text>
</g>
<!-- System::Role -->
<g id="node17" class="node"><title>System::Role</title>
<path fill="none" stroke="black" d="M126,-352.5C126,-352.5 349.725,-352.5 349.725,-352.5 355.725,-352.5 361.725,-358.5 361.725,-364.5 361.725,-364.5 361.725,-454.5 361.725,-454.5 361.725,-460.5 355.725,-466.5 349.725,-466.5 349.725,-466.5 126,-466.5 126,-466.5 120,-466.5 114,-460.5 114,-454.5 114,-454.5 114,-364.5 114,-364.5 114,-358.5 120,-352.5 126,-352.5"/>
<text text-anchor="middle" x="237.862" y="-451.3" font-family="Times,serif" font-size="14.00">System::Role</text>
<polyline fill="none" stroke="black" points="114,-444.5 361.725,-444.5 "/>
<text text-anchor="start" x="122" y="-429.3" font-family="Times,serif" font-size="14.00">id :uuid</text>
<text text-anchor="start" x="122" y="-415.3" font-family="Times,serif" font-size="14.00">name :character varying</text>
<text text-anchor="start" x="122" y="-401.3" font-family="Times,serif" font-size="14.00">code :character varying</text>
<text text-anchor="start" x="122" y="-387.3" font-family="Times,serif" font-size="14.00">description :text</text>
<text text-anchor="start" x="122" y="-373.3" font-family="Times,serif" font-size="14.00">created_at :timestamp without time zone</text>
<text text-anchor="start" x="122" y="-359.3" font-family="Times,serif" font-size="14.00">updated_at :timestamp without time zone</text>
</g>
<!-- System::Person&#45;&gt;System::Role -->
<g id="edge17" class="edge"><title>System::Person&#45;&gt;System::Role</title>
<path fill="none" stroke="#f23e9c" d="M339.783,-585.509C318.924,-549.691 295.105,-508.792 275.742,-475.543"/>
<polygon fill="#f23e9c" stroke="#f23e9c" points="339.842,-585.609 340.986,-596.515 342.358,-589.93 344.874,-594.251 344.874,-594.251 344.874,-594.251 342.358,-589.93 348.763,-591.986 339.842,-585.609 339.842,-585.609"/>
<polygon fill="#f23e9c" stroke="#f23e9c" points="275.695,-475.463 274.551,-464.557 273.179,-471.143 270.663,-466.822 270.663,-466.822 270.663,-466.822 273.179,-471.143 266.774,-469.086 275.695,-475.463 275.695,-475.463"/>
</g>
<!-- System::Role&#45;&gt;System::Capability -->
<g id="edge20" class="edge"><title>System::Role&#45;&gt;System::Capability</title>
<path fill="none" stroke="#b54bee" d="M190.35,-345.404C172.416,-318.334 153.736,-285.497 142.862,-253 129.076,-211.798 124.328,-163.148 123.025,-124.811"/>
<ellipse fill="none" stroke="#b54bee" cx="192.657" cy="-348.838" rx="4.00002" ry="4.00002"/>
<polygon fill="#b54bee" stroke="#b54bee" points="123.025,-124.79 127.253,-114.672 122.89,-119.792 122.755,-114.794 122.755,-114.794 122.755,-114.794 122.89,-119.792 118.256,-114.915 123.025,-124.79 123.025,-124.79"/>
</g>
<!-- System::Role&#45;&gt;System::Group -->
<g id="edge21" class="edge"><title>System::Role&#45;&gt;System::Group</title>
<path fill="none" stroke="#5861cc" d="M250.116,-342.393C254.858,-316.811 260.245,-287.752 264.861,-262.851"/>
<polygon fill="#5861cc" stroke="#5861cc" points="250.069,-342.65 243.821,-351.663 249.157,-347.567 248.246,-352.483 248.246,-352.483 248.246,-352.483 249.157,-347.567 252.671,-353.303 250.069,-342.65 250.069,-342.65"/>
<polygon fill="#5861cc" stroke="#5861cc" points="264.898,-262.647 271.146,-253.635 265.81,-257.731 266.721,-252.815 266.721,-252.815 266.721,-252.815 265.81,-257.731 262.296,-251.994 264.898,-262.647 264.898,-262.647"/>
</g>
</g>
</svg>
