<?xml version="1.0" encoding="UTF-8" standalone="no"?>
<!DOCTYPE svg PUBLIC "-//W3C//DTD SVG 1.1//EN"
 "http://www.w3.org/Graphics/SVG/1.1/DTD/svg11.dtd">
<!-- Generated by graphviz version 2.38.0 (20140413.2041)
 -->
<!-- Title: models_diagram Pages: 1 -->
<svg width="1178pt" height="412pt"
 viewBox="0.00 0.00 1177.58 412.00" xmlns="http://www.w3.org/2000/svg" xmlns:xlink="http://www.w3.org/1999/xlink">
<g id="graph0" class="graph" transform="scale(1 1) rotate(0) translate(4 408)">
<title>models_diagram</title>
<polygon fill="none" stroke="none" points="-4,4 -4,-408 1173.58,-408 1173.58,4 -4,4"/>
<!-- _diagram_info -->
<g id="node1" class="node"><title>_diagram_info</title>
<text text-anchor="start" x="328.185" y="-389.6" font-family="Times,serif" font-size="13.00">Models diagram</text>
<text text-anchor="start" x="328.185" y="-376.6" font-family="Times,serif" font-size="13.00">Date: Jun 28 2016 &#45; 15:14</text>
<text text-anchor="start" x="328.185" y="-363.6" font-family="Times,serif" font-size="13.00">Migration version: 1</text>
<text text-anchor="start" x="328.185" y="-350.6" font-family="Times,serif" font-size="13.00">Generated by RailRoady 1.5.1</text>
<text text-anchor="start" x="328.185" y="-337.6" font-family="Times,serif" font-size="13.00">http://railroady.prestonlee.com</text>
</g>
<!-- Ability -->
<g id="node2" class="node"><title>Ability</title>
<polygon fill="none" stroke="black" points="569.575,-385.5 514.235,-385.5 514.235,-349.5 569.575,-349.5 569.575,-385.5"/>
<text text-anchor="middle" x="541.905" y="-363.3" font-family="Times,serif" font-size="14.00">Ability</text>
</g>
<!-- Context::Activity -->
<g id="node3" class="node"><title>Context::Activity</title>
<ellipse fill="none" stroke="black" cx="649.905" cy="-263" rx="72.0135" ry="18"/>
<text text-anchor="middle" x="649.905" y="-258.8" font-family="Times,serif" font-size="14.00">Context::Activity</text>
</g>
<!-- Context::Activity&#45;&gt;Context::Activity -->
<g id="edge4" class="edge"><title>Context::Activity&#45;&gt;Context::Activity</title>
<path fill="none" stroke="#7cd34b" d="M729.87,-264.983C736.081,-264.545 739.912,-263.884 739.912,-263 739.912,-262.212 736.868,-261.601 731.809,-261.168"/>
<ellipse fill="none" stroke="#7cd34b" cx="725.569" cy="-265.196" rx="4" ry="4"/>
<polygon fill="#7cd34b" stroke="#7cd34b" points="731.559,-261.154 721.821,-256.113 726.567,-260.88 721.574,-260.606 721.574,-260.606 721.574,-260.606 726.567,-260.88 721.328,-265.1 731.559,-261.154 731.559,-261.154"/>
<text text-anchor="middle" x="782.678" y="-258.8" font-family="Times,serif" font-size="14.00">child_activities</text>
</g>
<!-- Context::Activity&#45;&gt;Context::Activity -->
<g id="edge5" class="edge"><title>Context::Activity&#45;&gt;Context::Activity</title>
<path fill="none" stroke="#0877ec" d="M727.678,-268.047C775.51,-268.87 825.443,-267.187 825.443,-263 825.443,-258.864 776.741,-257.172 729.458,-257.923"/>
<ellipse fill="none" stroke="#0877ec" cx="723.407" cy="-267.961" rx="4" ry="4"/>
<polygon fill="#0877ec" stroke="#0877ec" points="729.406,-257.924 719.319,-253.621 724.407,-258.022 719.408,-258.12 719.408,-258.12 719.408,-258.12 724.407,-258.022 719.496,-262.62 729.406,-257.924 729.406,-257.924"/>
<text text-anchor="middle" x="885.319" y="-258.8" font-family="Times,serif" font-size="14.00">subsequent_activities</text>
</g>
<!-- Context::Activity&#45;&gt;Context::Activity -->
<g id="edge6" class="edge"><title>Context::Activity&#45;&gt;Context::Activity</title>
<path fill="none" stroke="#7609fc" d="M726.2,-269.406C815.371,-272.653 945.195,-270.517 945.195,-263 945.195,-255.536 817.195,-253.378 728.091,-256.526"/>
<ellipse fill="none" stroke="#7609fc" cx="721.969" cy="-269.242" rx="4" ry="4"/>
<polygon fill="#7609fc" stroke="#7609fc" points="727.965,-256.531 717.8,-252.417 722.969,-256.722 717.972,-256.914 717.972,-256.914 717.972,-256.914 722.969,-256.722 718.145,-261.41 727.965,-256.531 727.965,-256.531"/>
<text text-anchor="middle" x="968.523" y="-258.8" font-family="Times,serif" font-size="14.00">contexts</text>
</g>
<!-- Context::ActorRole -->
<g id="node4" class="node"><title>Context::ActorRole</title>
<ellipse fill="none" stroke="black" cx="524.905" cy="-177" rx="79.723" ry="18"/>
<text text-anchor="middle" x="524.905" y="-172.8" font-family="Times,serif" font-size="14.00">Context::ActorRole</text>
</g>
<!-- Context::Activity&#45;&gt;Context::ActorRole -->
<g id="edge1" class="edge"><title>Context::Activity&#45;&gt;Context::ActorRole</title>
<path fill="none" stroke="#4f79ba" d="M619.34,-241.46C600.578,-228.852 576.566,-212.716 557.45,-199.87"/>
<ellipse fill="none" stroke="#4f79ba" cx="622.78" cy="-243.771" rx="4.00002" ry="4.00002"/>
<polygon fill="#4f79ba" stroke="#4f79ba" points="557.348,-199.802 551.558,-190.489 553.198,-197.013 549.048,-194.224 549.048,-194.224 549.048,-194.224 553.198,-197.013 546.538,-197.959 557.348,-199.802 557.348,-199.802"/>
<text text-anchor="middle" x="626.002" y="-215.8" font-family="Times,serif" font-size="14.00">actor_roles</text>
</g>
<!-- Context::Objective -->
<g id="node6" class="node"><title>Context::Objective</title>
<ellipse fill="none" stroke="black" cx="699.905" cy="-177" rx="77.3003" ry="18"/>
<text text-anchor="middle" x="699.905" y="-172.8" font-family="Times,serif" font-size="14.00">Context::Objective</text>
</g>
<!-- Context::Activity&#45;&gt;Context::Objective -->
<g id="edge3" class="edge"><title>Context::Activity&#45;&gt;Context::Objective</title>
<path fill="none" stroke="#a2a55f" d="M664.336,-237.756C670.708,-227.052 678.202,-214.462 684.664,-203.606"/>
<ellipse fill="none" stroke="#a2a55f" cx="662.069" cy="-241.564" rx="4.00002" ry="4.00002"/>
<polygon fill="#a2a55f" stroke="#a2a55f" points="684.687,-203.566 693.669,-197.275 687.245,-199.27 689.802,-194.973 689.802,-194.973 689.802,-194.973 687.245,-199.27 685.935,-192.672 684.687,-203.566 684.687,-203.566"/>
<text text-anchor="middle" x="706.285" y="-215.8" font-family="Times,serif" font-size="14.00">objectives</text>
</g>
<!-- Context::UsageRole -->
<g id="node8" class="node"><title>Context::UsageRole</title>
<ellipse fill="none" stroke="black" cx="970.905" cy="-177" rx="81.6526" ry="18"/>
<text text-anchor="middle" x="970.905" y="-172.8" font-family="Times,serif" font-size="14.00">Context::UsageRole</text>
</g>
<!-- Context::Activity&#45;&gt;Context::UsageRole -->
<g id="edge2" class="edge"><title>Context::Activity&#45;&gt;Context::UsageRole</title>
<path fill="none" stroke="#3570f5" d="M705.542,-247.441C762.717,-232.479 851.467,-209.255 910.37,-193.841"/>
<ellipse fill="none" stroke="#3570f5" cx="701.485" cy="-248.502" rx="4.00001" ry="4.00001"/>
<polygon fill="#3570f5" stroke="#3570f5" points="910.607,-193.779 921.42,-195.601 915.444,-192.513 920.281,-191.247 920.281,-191.247 920.281,-191.247 915.444,-192.513 919.142,-186.894 910.607,-193.779 910.607,-193.779"/>
<text text-anchor="middle" x="861.95" y="-215.8" font-family="Times,serif" font-size="14.00">usage_roles</text>
</g>
<!-- Context::Asset -->
<g id="node5" class="node"><title>Context::Asset</title>
<ellipse fill="none" stroke="black" cx="1106.91" cy="-263" rx="62.8512" ry="18"/>
<text text-anchor="middle" x="1106.91" y="-258.8" font-family="Times,serif" font-size="14.00">Context::Asset</text>
</g>
<!-- Context::Asset&#45;&gt;Context::UsageRole -->
<g id="edge7" class="edge"><title>Context::Asset&#45;&gt;Context::UsageRole</title>
<path fill="none" stroke="#8cca37" d="M1074.56,-242.023C1053.81,-229.204 1026.87,-212.569 1005.66,-199.468"/>
<ellipse fill="none" stroke="#8cca37" cx="1078.24" cy="-244.295" rx="4.00002" ry="4.00002"/>
<polygon fill="#8cca37" stroke="#8cca37" points="1005.47,-199.346 999.322,-190.263 1001.21,-196.719 996.958,-194.091 996.958,-194.091 996.958,-194.091 1001.21,-196.719 994.593,-197.92 1005.47,-199.346 1005.47,-199.346"/>
<text text-anchor="middle" x="1079.95" y="-215.8" font-family="Times,serif" font-size="14.00">usage_roles</text>
</g>
<!-- Context::Place -->
<g id="node7" class="node"><title>Context::Place</title>
<ellipse fill="none" stroke="black" cx="649.905" cy="-367.5" rx="62.3494" ry="18"/>
<text text-anchor="middle" x="649.905" y="-363.3" font-family="Times,serif" font-size="14.00">Context::Place</text>
</g>
<!-- Context::Place&#45;&gt;Context::Activity -->
<g id="edge8" class="edge"><title>Context::Place&#45;&gt;Context::Activity</title>
<path fill="none" stroke="#2d7e02" d="M649.905,-341.017C649.905,-325.986 649.905,-306.959 649.905,-291.577"/>
<ellipse fill="none" stroke="#2d7e02" cx="649.905" cy="-345.112" rx="4" ry="4"/>
<polygon fill="#2d7e02" stroke="#2d7e02" points="649.905,-291.131 654.405,-281.131 649.905,-286.131 649.905,-281.131 649.905,-281.131 649.905,-281.131 649.905,-286.131 645.405,-281.131 649.905,-291.131 649.905,-291.131"/>
<text text-anchor="middle" x="675.174" y="-301.8" font-family="Times,serif" font-size="14.00">activities</text>
</g>
<!-- System::Capability -->
<g id="node9" class="node"><title>System::Capability</title>
<ellipse fill="none" stroke="black" cx="77.9053" cy="-18" rx="77.8107" ry="18"/>
<text text-anchor="middle" x="77.9053" y="-13.8" font-family="Times,serif" font-size="14.00">System::Capability</text>
</g>
<!-- System::Client -->
<g id="node10" class="node"><title>System::Client</title>
<ellipse fill="none" stroke="black" cx="792.905" cy="-367.5" rx="62.8599" ry="18"/>
<text text-anchor="middle" x="792.905" y="-363.3" font-family="Times,serif" font-size="14.00">System::Client</text>
</g>
<!-- System::Group -->
<g id="node11" class="node"><title>System::Group</title>
<ellipse fill="none" stroke="black" cx="169.905" cy="-91" rx="63.8202" ry="18"/>
<text text-anchor="middle" x="169.905" y="-86.8" font-family="Times,serif" font-size="14.00">System::Group</text>
</g>
<!-- System::Group&#45;&gt;System::Capability -->
<g id="edge11" class="edge"><title>System::Group&#45;&gt;System::Capability</title>
<path fill="none" stroke="#1751aa" d="M142.496,-68.8468C131.495,-60.3572 118.789,-50.5514 107.572,-41.8948"/>
<ellipse fill="none" stroke="#1751aa" cx="145.862" cy="-71.4452" rx="4.00002" ry="4.00002"/>
<polygon fill="#1751aa" stroke="#1751aa" points="107.254,-41.6496 102.087,-31.9775 103.296,-38.5948 99.3373,-35.54 99.3373,-35.54 99.3373,-35.54 103.296,-38.5948 96.588,-39.1024 107.254,-41.6496 107.254,-41.6496"/>
</g>
<!-- System::Member -->
<g id="node15" class="node"><title>System::Member</title>
<ellipse fill="none" stroke="black" cx="252.905" cy="-18" rx="71.0445" ry="18"/>
<text text-anchor="middle" x="252.905" y="-13.8" font-family="Times,serif" font-size="14.00">System::Member</text>
</g>
<!-- System::Group&#45;&gt;System::Member -->
<g id="edge9" class="edge"><title>System::Group&#45;&gt;System::Member</title>
<path fill="none" stroke="#f0a7e4" d="M195.389,-68.2008C205.049,-59.9371 216.077,-50.5035 225.875,-42.1221"/>
<ellipse fill="none" stroke="#f0a7e4" cx="192.195" cy="-70.9325" rx="4.00002" ry="4.00002"/>
<polygon fill="#f0a7e4" stroke="#f0a7e4" points="226.16,-41.8784 236.684,-38.7976 229.96,-38.6282 233.759,-35.378 233.759,-35.378 233.759,-35.378 229.96,-38.6282 230.834,-31.9584 226.16,-41.8784 226.16,-41.8784"/>
</g>
<!-- System::Person -->
<g id="node16" class="node"><title>System::Person</title>
<ellipse fill="none" stroke="black" cx="221.905" cy="-263" rx="65.2736" ry="18"/>
<text text-anchor="middle" x="221.905" y="-258.8" font-family="Times,serif" font-size="14.00">System::Person</text>
</g>
<!-- System::Group&#45;&gt;System::Person -->
<g id="edge10" class="edge"><title>System::Group&#45;&gt;System::Person</title>
<path fill="none" stroke="#578d2e" d="M184.739,-117.891C191.151,-130.04 198.238,-144.918 202.905,-159 211.187,-183.987 216.178,-213.652 218.952,-234.713"/>
<polygon fill="#578d2e" stroke="#578d2e" points="184.574,-117.587 183.756,-106.652 182.188,-113.193 179.801,-108.8 179.801,-108.8 179.801,-108.8 182.188,-113.193 175.847,-110.948 184.574,-117.587 184.574,-117.587"/>
<polygon fill="#578d2e" stroke="#578d2e" points="218.981,-234.948 215.74,-245.424 219.593,-239.91 220.206,-244.872 220.206,-244.872 220.206,-244.872 219.593,-239.91 224.672,-244.321 218.981,-234.948 218.981,-234.948"/>
</g>
<!-- System::Identity -->
<g id="node12" class="node"><title>System::Identity</title>
<ellipse fill="none" stroke="black" cx="358.905" cy="-177" rx="68.6392" ry="18"/>
<text text-anchor="middle" x="358.905" y="-172.8" font-family="Times,serif" font-size="14.00">System::Identity</text>
</g>
<!-- System::JsonWebToken -->
<g id="node14" class="node"><title>System::JsonWebToken</title>
<ellipse fill="none" stroke="black" cx="538.905" cy="-91" rx="94.5097" ry="18"/>
<text text-anchor="middle" x="538.905" y="-86.8" font-family="Times,serif" font-size="14.00">System::JsonWebToken</text>
</g>
<!-- System::Identity&#45;&gt;System::JsonWebToken -->
<g id="edge13" class="edge"><title>System::Identity&#45;&gt;System::JsonWebToken</title>
<path fill="none" stroke="#b26f19" d="M398.49,-157.527C427.219,-144.12 466.067,-125.991 495.618,-112.201"/>
<ellipse fill="none" stroke="#b26f19" cx="394.71" cy="-159.291" rx="4.00002" ry="4.00002"/>
<polygon fill="#b26f19" stroke="#b26f19" points="495.8,-112.116 506.765,-111.965 500.331,-110.001 504.862,-107.887 504.862,-107.887 504.862,-107.887 500.331,-110.001 502.959,-103.809 495.8,-112.116 495.8,-112.116"/>
</g>
<!-- System::Session -->
<g id="node18" class="node"><title>System::Session</title>
<ellipse fill="none" stroke="black" cx="357.905" cy="-91" rx="68.1806" ry="18"/>
<text text-anchor="middle" x="357.905" y="-86.8" font-family="Times,serif" font-size="14.00">System::Session</text>
</g>
<!-- System::Identity&#45;&gt;System::Session -->
<g id="edge12" class="edge"><title>System::Identity&#45;&gt;System::Session</title>
<path fill="none" stroke="#da1589" d="M358.599,-150.257C358.482,-140.441 358.348,-129.226 358.23,-119.273"/>
<ellipse fill="none" stroke="#da1589" cx="358.65" cy="-154.595" rx="4" ry="4"/>
<polygon fill="#da1589" stroke="#da1589" points="358.228,-119.094 362.608,-109.042 358.168,-114.095 358.109,-109.095 358.109,-109.095 358.109,-109.095 358.168,-114.095 353.609,-109.149 358.228,-119.094 358.228,-119.094"/>
</g>
<!-- System::IdentityProvider -->
<g id="node13" class="node"><title>System::IdentityProvider</title>
<ellipse fill="none" stroke="black" cx="403.905" cy="-263" rx="99.0502" ry="18"/>
<text text-anchor="middle" x="403.905" y="-258.8" font-family="Times,serif" font-size="14.00">System::IdentityProvider</text>
</g>
<!-- System::IdentityProvider&#45;&gt;System::Identity -->
<g id="edge14" class="edge"><title>System::IdentityProvider&#45;&gt;System::Identity</title>
<path fill="none" stroke="#491f65" d="M399.053,-236.98C396.916,-229.017 393.947,-220.37 389.905,-213 387.942,-209.419 385.553,-205.894 382.981,-202.541"/>
<ellipse fill="none" stroke="#491f65" cx="400.045" cy="-241.06" rx="4.00001" ry="4.00001"/>
<polygon fill="#491f65" stroke="#491f65" points="382.773,-202.292 379.801,-191.737 379.562,-198.459 376.351,-194.626 376.351,-194.626 376.351,-194.626 379.562,-198.459 372.902,-197.516 382.773,-202.292 382.773,-202.292"/>
</g>
<!-- System::Person&#45;&gt;Context::ActorRole -->
<g id="edge19" class="edge"><title>System::Person&#45;&gt;Context::ActorRole</title>
<path fill="none" stroke="#c92c0f" d="M274.09,-247.533C327.775,-232.65 411.204,-209.521 466.92,-194.075"/>
<ellipse fill="none" stroke="#c92c0f" cx="270.143" cy="-248.627" rx="4.00001" ry="4.00001"/>
<polygon fill="#c92c0f" stroke="#c92c0f" points="467.007,-194.051 477.846,-195.716 471.826,-192.715 476.644,-191.379 476.644,-191.379 476.644,-191.379 471.826,-192.715 475.442,-187.043 467.007,-194.051 467.007,-194.051"/>
<text text-anchor="middle" x="423.002" y="-215.8" font-family="Times,serif" font-size="14.00">actor_roles</text>
</g>
<!-- System::Person&#45;&gt;System::Capability -->
<g id="edge16" class="edge"><title>System::Person&#45;&gt;System::Capability</title>
<path fill="none" stroke="#343f1c" d="M159.006,-251.353C126.219,-242.265 88.8837,-225.559 68.9053,-195 39.1405,-149.472 55.058,-82.2964 67.563,-45.4984"/>
<ellipse fill="none" stroke="#343f1c" cx="162.924" cy="-252.38" rx="4.00001" ry="4.00001"/>
<polygon fill="#343f1c" stroke="#343f1c" points="67.6022,-45.3881 75.1976,-37.4787 69.2804,-40.6782 70.9587,-35.9682 70.9587,-35.9682 70.9587,-35.9682 69.2804,-40.6782 66.7197,-34.4578 67.6022,-45.3881 67.6022,-45.3881"/>
</g>
<!-- System::Person&#45;&gt;System::Identity -->
<g id="edge18" class="edge"><title>System::Person&#45;&gt;System::Identity</title>
<path fill="none" stroke="#6f0ffa" d="M254.224,-242.184C275.396,-229.203 303.035,-212.256 324.596,-199.036"/>
<ellipse fill="none" stroke="#6f0ffa" cx="250.763" cy="-244.306" rx="4.00002" ry="4.00002"/>
<polygon fill="#6f0ffa" stroke="#6f0ffa" points="324.604,-199.032 335.481,-197.641 328.867,-196.418 333.129,-193.804 333.129,-193.804 333.129,-193.804 328.867,-196.418 330.777,-189.968 324.604,-199.032 324.604,-199.032"/>
</g>
<!-- System::Person&#45;&gt;System::Member -->
<g id="edge15" class="edge"><title>System::Person&#45;&gt;System::Member</title>
<path fill="none" stroke="#a428c8" d="M228.749,-237.243C229.555,-233.819 230.304,-230.334 230.905,-227 242.513,-162.677 248.674,-85.9783 251.309,-46.1059"/>
<ellipse fill="none" stroke="#a428c8" cx="227.775" cy="-241.14" rx="4.00001" ry="4.00001"/>
<polygon fill="#a428c8" stroke="#a428c8" points="251.31,-46.0853 256.437,-36.3918 251.628,-41.0954 251.946,-36.1055 251.946,-36.1055 251.946,-36.1055 251.628,-41.0954 247.455,-35.8193 251.31,-46.0853 251.31,-46.0853"/>
<text text-anchor="middle" x="282.233" y="-129.8" font-family="Times,serif" font-size="14.00">memberships</text>
</g>
<!-- System::Role -->
<g id="node17" class="node"><title>System::Role</title>
<ellipse fill="none" stroke="black" cx="135.905" cy="-177" rx="57.5323" ry="18"/>
<text text-anchor="middle" x="135.905" y="-172.8" font-family="Times,serif" font-size="14.00">System::Role</text>
</g>
<!-- System::Person&#45;&gt;System::Role -->
<g id="edge17" class="edge"><title>System::Person&#45;&gt;System::Role</title>
<path fill="none" stroke="#5a66c5" d="M197.745,-238.402C185.924,-226.855 171.735,-212.996 159.931,-201.467"/>
<polygon fill="#5a66c5" stroke="#5a66c5" points="197.761,-238.417 201.77,-248.624 201.338,-241.911 204.914,-245.404 204.914,-245.404 204.914,-245.404 201.338,-241.911 208.059,-242.185 197.761,-238.417 197.761,-238.417"/>
<polygon fill="#5a66c5" stroke="#5a66c5" points="159.722,-201.263 155.713,-191.056 156.145,-197.769 152.568,-194.275 152.568,-194.275 152.568,-194.275 156.145,-197.769 149.424,-197.495 159.722,-201.263 159.722,-201.263"/>
</g>
<!-- System::Role&#45;&gt;System::Capability -->
<g id="edge20" class="edge"><title>System::Role&#45;&gt;System::Capability</title>
<path fill="none" stroke="#2fe5fa" d="M119.567,-152.241C111.698,-139.833 102.728,-124.119 96.9053,-109 89.0374,-88.5696 84.1475,-64.2105 81.3024,-45.9896"/>
<ellipse fill="none" stroke="#2fe5fa" cx="121.864" cy="-155.779" rx="4.00002" ry="4.00002"/>
<polygon fill="#2fe5fa" stroke="#2fe5fa" points="81.2956,-45.9427 84.3096,-35.3992 80.576,-40.9948 79.8564,-36.0468 79.8564,-36.0468 79.8564,-36.0468 80.576,-40.9948 75.4033,-36.6945 81.2956,-45.9427 81.2956,-45.9427"/>
</g>
<!-- System::Role&#45;&gt;System::Group -->
<g id="edge21" class="edge"><title>System::Role&#45;&gt;System::Group</title>
<path fill="none" stroke="#441605" d="M146.654,-149.445C150.674,-139.513 155.235,-128.243 159.247,-118.332"/>
<polygon fill="#441605" stroke="#441605" points="146.538,-149.732 138.614,-157.313 144.662,-154.367 142.786,-159.001 142.786,-159.001 142.786,-159.001 144.662,-154.367 146.957,-160.69 146.538,-149.732 146.538,-149.732"/>
<polygon fill="#441605" stroke="#441605" points="159.283,-118.243 167.206,-110.662 161.159,-113.608 163.035,-108.973 163.035,-108.973 163.035,-108.973 161.159,-113.608 158.864,-107.285 159.283,-118.243 159.283,-118.243"/>
</g>
</g>
</svg>
