<?xml version="1.0" encoding="UTF-8" standalone="no"?>
<!DOCTYPE svg PUBLIC "-//W3C//DTD SVG 1.1//EN"
 "http://www.w3.org/Graphics/SVG/1.1/DTD/svg11.dtd">
<!-- Generated by graphviz version 2.38.0 (20140413.2041)
 -->
<!-- Title: models_diagram Pages: 1 -->
<svg width="1220pt" height="399pt"
 viewBox="0.00 0.00 1219.68 399.00" xmlns="http://www.w3.org/2000/svg" xmlns:xlink="http://www.w3.org/1999/xlink">
<g id="graph0" class="graph" transform="scale(1 1) rotate(0) translate(4 395)">
<title>models_diagram</title>
<polygon fill="none" stroke="none" points="-4,4 -4,-395 1215.68,-395 1215.68,4 -4,4"/>
<!-- _diagram_info -->
<g id="node1" class="node"><title>_diagram_info</title>
<text text-anchor="start" x="530.493" y="-376.6" font-family="Times,serif" font-size="13.00">Models diagram</text>
<text text-anchor="start" x="530.493" y="-363.6" font-family="Times,serif" font-size="13.00">Date: Jun 21 2016 &#45; 15:35</text>
<text text-anchor="start" x="530.493" y="-350.6" font-family="Times,serif" font-size="13.00">Migration version: 20160621172318</text>
<text text-anchor="start" x="530.493" y="-337.6" font-family="Times,serif" font-size="13.00">Generated by RailRoady 1.4.2</text>
<text text-anchor="start" x="530.493" y="-324.6" font-family="Times,serif" font-size="13.00">http://railroady.prestonlee.com</text>
</g>
<!-- Ability -->
<g id="node2" class="node"><title>Ability</title>
<polygon fill="none" stroke="black" points="802.613,-372.5 747.273,-372.5 747.273,-336.5 802.613,-336.5 802.613,-372.5"/>
<text text-anchor="middle" x="774.943" y="-350.3" font-family="Times,serif" font-size="14.00">Ability</text>
</g>
<!-- Activity -->
<g id="node3" class="node"><title>Activity</title>
<ellipse fill="none" stroke="black" cx="153.943" cy="-177" rx="39.18" ry="18"/>
<text text-anchor="middle" x="153.943" y="-172.8" font-family="Times,serif" font-size="14.00">Activity</text>
</g>
<!-- Activity&#45;&gt;Activity -->
<g id="edge5" class="edge"><title>Activity&#45;&gt;Activity</title>
<path fill="none" stroke="#170dc8" d="M201.289,-178.954C207.169,-178.607 211.033,-177.956 211.033,-177 211.033,-176.15 207.98,-175.541 203.172,-175.173"/>
<ellipse fill="none" stroke="#170dc8" cx="196.898" cy="-179.098" rx="4" ry="4"/>
<polygon fill="#170dc8" stroke="#170dc8" points="202.893,-175.162 193.077,-170.273 197.897,-174.966 192.9,-174.77 192.9,-174.77 192.9,-174.77 197.897,-174.966 192.724,-179.266 202.893,-175.162 202.893,-175.162"/>
<text text-anchor="middle" x="253.798" y="-172.8" font-family="Times,serif" font-size="14.00">child_activities</text>
</g>
<!-- Activity&#45;&gt;Activity -->
<g id="edge6" class="edge"><title>Activity&#45;&gt;Activity</title>
<path fill="none" stroke="#bfcffb" d="M200.419,-180.947C242.95,-182.367 296.564,-181.051 296.564,-177 296.564,-173.016 244.718,-171.677 202.55,-172.984"/>
<ellipse fill="none" stroke="#bfcffb" cx="196.349" cy="-180.792" rx="4" ry="4"/>
<polygon fill="#bfcffb" stroke="#bfcffb" points="202.345,-172.992 192.185,-168.864 197.348,-173.176 192.352,-173.361 192.352,-173.361 192.352,-173.361 197.348,-173.176 192.518,-177.858 202.345,-172.992 202.345,-172.992"/>
<text text-anchor="middle" x="356.44" y="-172.8" font-family="Times,serif" font-size="14.00">subsequent_activities</text>
</g>
<!-- Activity&#45;&gt;Activity -->
<g id="edge7" class="edge"><title>Activity&#45;&gt;Activity</title>
<path fill="none" stroke="#feea91" d="M200.258,-181.701C277.202,-185.546 416.316,-183.979 416.316,-177 416.316,-170.077 279.446,-168.48 202.139,-172.206"/>
<ellipse fill="none" stroke="#feea91" cx="196.099" cy="-181.476" rx="4" ry="4"/>
<polygon fill="#feea91" stroke="#feea91" points="202.09,-172.209 191.865,-168.247 197.097,-172.475 192.105,-172.74 192.105,-172.74 192.105,-172.74 197.097,-172.475 192.344,-177.234 202.09,-172.209 202.09,-172.209"/>
<text text-anchor="middle" x="439.643" y="-172.8" font-family="Times,serif" font-size="14.00">contexts</text>
</g>
<!-- Objective -->
<g id="node13" class="node"><title>Objective</title>
<ellipse fill="none" stroke="black" cx="153.943" cy="-91" rx="44.4664" ry="18"/>
<text text-anchor="middle" x="153.943" y="-86.8" font-family="Times,serif" font-size="14.00">Objective</text>
</g>
<!-- Activity&#45;&gt;Objective -->
<g id="edge3" class="edge"><title>Activity&#45;&gt;Objective</title>
<path fill="none" stroke="#518565" d="M153.943,-150.257C153.943,-140.441 153.943,-129.226 153.943,-119.273"/>
<ellipse fill="none" stroke="#518565" cx="153.943" cy="-154.595" rx="4" ry="4"/>
<polygon fill="#518565" stroke="#518565" points="153.943,-119.095 158.443,-109.095 153.943,-114.095 153.943,-109.095 153.943,-109.095 153.943,-109.095 153.943,-114.095 149.443,-109.095 153.943,-119.095 153.943,-119.095"/>
</g>
<!-- Participant -->
<g id="node14" class="node"><title>Participant</title>
<ellipse fill="none" stroke="black" cx="301.943" cy="-91" rx="48.3341" ry="18"/>
<text text-anchor="middle" x="301.943" y="-86.8" font-family="Times,serif" font-size="14.00">Participant</text>
</g>
<!-- Activity&#45;&gt;Participant -->
<g id="edge4" class="edge"><title>Activity&#45;&gt;Participant</title>
<path fill="none" stroke="#3fd2fe" d="M192.523,-162.967C207.753,-157.146 225.118,-149.64 239.943,-141 252.789,-133.513 265.87,-123.584 276.685,-114.622"/>
<ellipse fill="none" stroke="#3fd2fe" cx="188.526" cy="-164.457" rx="4.00001" ry="4.00001"/>
<polygon fill="#3fd2fe" stroke="#3fd2fe" points="276.847,-114.484 287.384,-111.444 280.66,-111.248 284.472,-108.013 284.472,-108.013 284.472,-108.013 280.66,-111.248 281.56,-104.582 276.847,-114.484 276.847,-114.484"/>
</g>
<!-- Reference -->
<g id="node17" class="node"><title>Reference</title>
<ellipse fill="none" stroke="black" cx="45.9427" cy="-91" rx="45.8855" ry="18"/>
<text text-anchor="middle" x="45.9427" y="-86.8" font-family="Times,serif" font-size="14.00">Reference</text>
</g>
<!-- Activity&#45;&gt;Reference -->
<g id="edge2" class="edge"><title>Activity&#45;&gt;Reference</title>
<path fill="none" stroke="#28eb5e" d="M128.425,-156.153C112.149,-143.494 91.0369,-127.073 74.2467,-114.014"/>
<ellipse fill="none" stroke="#28eb5e" cx="131.726" cy="-158.72" rx="4.00002" ry="4.00002"/>
<polygon fill="#28eb5e" stroke="#28eb5e" points="73.8025,-113.669 68.6717,-103.977 69.8557,-110.599 65.909,-107.529 65.909,-107.529 65.909,-107.529 69.8557,-110.599 63.1462,-111.081 73.8025,-113.669 73.8025,-113.669"/>
</g>
<!-- Responsibility -->
<g id="node18" class="node"><title>Responsibility</title>
<ellipse fill="none" stroke="black" cx="259.943" cy="-18" rx="61.4151" ry="18"/>
<text text-anchor="middle" x="259.943" y="-13.8" font-family="Times,serif" font-size="14.00">Responsibility</text>
</g>
<!-- Activity&#45;&gt;Responsibility -->
<g id="edge1" class="edge"><title>Activity&#45;&gt;Responsibility</title>
<path fill="none" stroke="#f6ac88" d="M172.884,-153.65C183.369,-140.895 196.377,-124.42 206.943,-109 221.257,-88.1098 235.727,-63.2277 245.922,-44.9261"/>
<ellipse fill="none" stroke="#f6ac88" cx="170.21" cy="-156.876" rx="4.00002" ry="4.00002"/>
<polygon fill="#f6ac88" stroke="#f6ac88" points="246.01,-44.7672 254.781,-38.1853 248.425,-40.3893 250.84,-36.0114 250.84,-36.0114 250.84,-36.0114 248.425,-40.3893 246.9,-33.8375 246.01,-44.7672 246.01,-44.7672"/>
</g>
<!-- Asset -->
<g id="node4" class="node"><title>Asset</title>
<ellipse fill="none" stroke="black" cx="45.9427" cy="-177" rx="29.5189" ry="18"/>
<text text-anchor="middle" x="45.9427" y="-172.8" font-family="Times,serif" font-size="14.00">Asset</text>
</g>
<!-- Asset&#45;&gt;Reference -->
<g id="edge8" class="edge"><title>Asset&#45;&gt;Reference</title>
<path fill="none" stroke="#da91e6" d="M45.9427,-150.257C45.9427,-140.441 45.9427,-129.226 45.9427,-119.273"/>
<ellipse fill="none" stroke="#da91e6" cx="45.9428" cy="-154.595" rx="4" ry="4"/>
<polygon fill="#da91e6" stroke="#da91e6" points="45.9428,-119.095 50.4427,-109.095 45.9428,-114.095 45.9427,-109.095 45.9427,-109.095 45.9427,-109.095 45.9428,-114.095 41.4427,-109.095 45.9428,-119.095 45.9428,-119.095"/>
</g>
<!-- Capability -->
<g id="node5" class="node"><title>Capability</title>
<ellipse fill="none" stroke="black" cx="911.943" cy="-91" rx="46.8977" ry="18"/>
<text text-anchor="middle" x="911.943" y="-86.8" font-family="Times,serif" font-size="14.00">Capability</text>
</g>
<!-- Client -->
<g id="node6" class="node"><title>Client</title>
<ellipse fill="none" stroke="black" cx="962.943" cy="-354.5" rx="31.948" ry="18"/>
<text text-anchor="middle" x="962.943" y="-350.3" font-family="Times,serif" font-size="14.00">Client</text>
</g>
<!-- Group -->
<g id="node7" class="node"><title>Group</title>
<ellipse fill="none" stroke="black" cx="847.943" cy="-250" rx="32.9081" ry="18"/>
<text text-anchor="middle" x="847.943" y="-245.8" font-family="Times,serif" font-size="14.00">Group</text>
</g>
<!-- Group&#45;&gt;Capability -->
<g id="edge12" class="edge"><title>Group&#45;&gt;Capability</title>
<path fill="none" stroke="#198dac" d="M857.895,-224.587C869.63,-195.798 889.064,-148.123 901.153,-118.469"/>
<ellipse fill="none" stroke="#198dac" cx="856.302" cy="-228.494" rx="4.00001" ry="4.00001"/>
<polygon fill="#198dac" stroke="#198dac" points="901.174,-118.417 909.116,-110.856 903.061,-113.787 904.949,-109.157 904.949,-109.157 904.949,-109.157 903.061,-113.787 900.782,-107.458 901.174,-118.417 901.174,-118.417"/>
</g>
<!-- Interest -->
<g id="node9" class="node"><title>Interest</title>
<ellipse fill="none" stroke="black" cx="944.943" cy="-177" rx="36.7489" ry="18"/>
<text text-anchor="middle" x="944.943" y="-172.8" font-family="Times,serif" font-size="14.00">Interest</text>
</g>
<!-- Group&#45;&gt;Interest -->
<g id="edge9" class="edge"><title>Group&#45;&gt;Interest</title>
<path fill="none" stroke="#b7a708" d="M873.724,-230.129C887.079,-220.354 903.402,-208.406 917.05,-198.416"/>
<ellipse fill="none" stroke="#b7a708" cx="870.335" cy="-232.61" rx="4.00002" ry="4.00002"/>
<polygon fill="#b7a708" stroke="#b7a708" points="917.083,-198.392 927.81,-196.117 921.118,-195.439 925.153,-192.486 925.153,-192.486 925.153,-192.486 921.118,-195.439 922.495,-188.854 917.083,-198.392 917.083,-198.392"/>
</g>
<!-- Member -->
<g id="node12" class="node"><title>Member</title>
<ellipse fill="none" stroke="black" cx="806.943" cy="-91" rx="40.1317" ry="18"/>
<text text-anchor="middle" x="806.943" y="-86.8" font-family="Times,serif" font-size="14.00">Member</text>
</g>
<!-- Group&#45;&gt;Member -->
<g id="edge10" class="edge"><title>Group&#45;&gt;Member</title>
<path fill="none" stroke="#3e73cf" d="M841.375,-223.852C833.891,-195.193 821.704,-148.523 814.015,-119.082"/>
<ellipse fill="none" stroke="#3e73cf" cx="842.466" cy="-228.029" rx="4.00001" ry="4.00001"/>
<polygon fill="#3e73cf" stroke="#3e73cf" points="813.93,-118.755 815.757,-107.942 812.666,-113.917 811.403,-109.08 811.403,-109.08 811.403,-109.08 812.666,-113.917 807.049,-110.217 813.93,-118.755 813.93,-118.755"/>
</g>
<!-- User -->
<g id="node24" class="node"><title>User</title>
<ellipse fill="none" stroke="black" cx="710.943" cy="-177" rx="27" ry="18"/>
<text text-anchor="middle" x="710.943" y="-172.8" font-family="Times,serif" font-size="14.00">User</text>
</g>
<!-- Group&#45;&gt;User -->
<g id="edge11" class="edge"><title>Group&#45;&gt;User</title>
<path fill="none" stroke="#13db7f" d="M818.638,-230.509C808.994,-224.669 798.131,-218.35 787.943,-213 773.26,-205.29 756.546,-197.571 742.451,-191.351"/>
<polygon fill="#13db7f" stroke="#13db7f" points="818.925,-230.685 825.097,-239.749 823.187,-233.299 827.449,-235.913 827.449,-235.913 827.449,-235.913 823.187,-233.299 829.802,-232.077 818.925,-230.685 818.925,-230.685"/>
<polygon fill="#13db7f" stroke="#13db7f" points="742.334,-191.301 734.967,-183.179 737.751,-189.302 733.168,-187.303 733.168,-187.303 733.168,-187.303 737.751,-189.302 731.369,-191.428 742.334,-191.301 742.334,-191.301"/>
</g>
<!-- Identity -->
<g id="node8" class="node"><title>Identity</title>
<ellipse fill="none" stroke="black" cx="553.943" cy="-91" rx="37.7266" ry="18"/>
<text text-anchor="middle" x="553.943" y="-86.8" font-family="Times,serif" font-size="14.00">Identity</text>
</g>
<!-- JsonWebToken -->
<g id="node11" class="node"><title>JsonWebToken</title>
<ellipse fill="none" stroke="black" cx="436.943" cy="-18" rx="63.5968" ry="18"/>
<text text-anchor="middle" x="436.943" y="-13.8" font-family="Times,serif" font-size="14.00">JsonWebToken</text>
</g>
<!-- Identity&#45;&gt;JsonWebToken -->
<g id="edge14" class="edge"><title>Identity&#45;&gt;JsonWebToken</title>
<path fill="none" stroke="#29ae11" d="M524.67,-72.2365C508.63,-62.5026 488.645,-50.3746 471.802,-40.154"/>
<ellipse fill="none" stroke="#29ae11" cx="528.241" cy="-74.4031" rx="4.00002" ry="4.00002"/>
<polygon fill="#29ae11" stroke="#29ae11" points="471.363,-39.8873 465.148,-30.8523 467.088,-37.2934 462.814,-34.6994 462.814,-34.6994 462.814,-34.6994 467.088,-37.2934 460.479,-38.5465 471.363,-39.8873 471.363,-39.8873"/>
</g>
<!-- Session -->
<g id="node21" class="node"><title>Session</title>
<ellipse fill="none" stroke="black" cx="555.943" cy="-18" rx="37.2681" ry="18"/>
<text text-anchor="middle" x="555.943" y="-13.8" font-family="Times,serif" font-size="14.00">Session</text>
</g>
<!-- Identity&#45;&gt;Session -->
<g id="edge13" class="edge"><title>Identity&#45;&gt;Session</title>
<path fill="none" stroke="#a00fbe" d="M554.653,-64.791C554.821,-58.832 555,-52.4496 555.171,-46.3988"/>
<ellipse fill="none" stroke="#a00fbe" cx="554.54" cy="-68.8145" rx="4" ry="4"/>
<polygon fill="#a00fbe" stroke="#a00fbe" points="555.181,-46.0249 559.961,-36.1556 555.322,-41.0269 555.463,-36.0288 555.463,-36.0288 555.463,-36.0288 555.322,-41.0269 550.965,-35.9021 555.181,-46.0249 555.181,-46.0249"/>
</g>
<!-- Issue -->
<g id="node10" class="node"><title>Issue</title>
<ellipse fill="none" stroke="black" cx="720.943" cy="-91" rx="28.0651" ry="18"/>
<text text-anchor="middle" x="720.943" y="-86.8" font-family="Times,serif" font-size="14.00">Issue</text>
</g>
<!-- Participant&#45;&gt;Responsibility -->
<g id="edge15" class="edge"><title>Participant&#45;&gt;Responsibility</title>
<path fill="none" stroke="#975b74" d="M287.751,-66.0085C283.774,-59.2863 279.432,-51.9467 275.387,-45.1082"/>
<ellipse fill="none" stroke="#975b74" cx="289.953" cy="-69.7312" rx="4.00002" ry="4.00002"/>
<polygon fill="#975b74" stroke="#975b74" points="275.208,-44.8053 273.99,-33.9073 272.662,-40.5019 270.116,-36.1984 270.116,-36.1984 270.116,-36.1984 272.662,-40.5019 266.243,-38.4896 275.208,-44.8053 275.208,-44.8053"/>
</g>
<!-- Place -->
<g id="node15" class="node"><title>Place</title>
<ellipse fill="none" stroke="black" cx="153.943" cy="-250" rx="29.0172" ry="18"/>
<text text-anchor="middle" x="153.943" y="-245.8" font-family="Times,serif" font-size="14.00">Place</text>
</g>
<!-- Place&#45;&gt;Activity -->
<g id="edge16" class="edge"><title>Place&#45;&gt;Activity</title>
<path fill="none" stroke="#481ef5" d="M153.943,-223.791C153.943,-217.832 153.943,-211.45 153.943,-205.399"/>
<ellipse fill="none" stroke="#481ef5" cx="153.943" cy="-227.813" rx="4" ry="4"/>
<polygon fill="#481ef5" stroke="#481ef5" points="153.943,-205.029 158.443,-195.029 153.943,-200.029 153.943,-195.029 153.943,-195.029 153.943,-195.029 153.943,-200.029 149.443,-195.029 153.943,-205.029 153.943,-205.029"/>
</g>
<!-- Provider -->
<g id="node16" class="node"><title>Provider</title>
<ellipse fill="none" stroke="black" cx="555.943" cy="-177" rx="40.6248" ry="18"/>
<text text-anchor="middle" x="555.943" y="-172.8" font-family="Times,serif" font-size="14.00">Provider</text>
</g>
<!-- Provider&#45;&gt;Identity -->
<g id="edge17" class="edge"><title>Provider&#45;&gt;Identity</title>
<path fill="none" stroke="#581591" d="M555.33,-150.257C555.096,-140.441 554.829,-129.226 554.592,-119.273"/>
<ellipse fill="none" stroke="#581591" cx="555.433" cy="-154.596" rx="4" ry="4"/>
<polygon fill="#581591" stroke="#581591" points="554.588,-119.092 558.848,-108.988 554.469,-114.094 554.35,-109.095 554.35,-109.095 554.35,-109.095 554.469,-114.094 549.851,-109.202 554.588,-119.092 554.588,-119.092"/>
</g>
<!-- Result -->
<g id="node19" class="node"><title>Result</title>
<ellipse fill="none" stroke="black" cx="641.943" cy="-91" rx="32.9168" ry="18"/>
<text text-anchor="middle" x="641.943" y="-86.8" font-family="Times,serif" font-size="14.00">Result</text>
</g>
<!-- Role -->
<g id="node20" class="node"><title>Role</title>
<ellipse fill="none" stroke="black" cx="847.943" cy="-354.5" rx="27" ry="18"/>
<text text-anchor="middle" x="847.943" y="-350.3" font-family="Times,serif" font-size="14.00">Role</text>
</g>
<!-- Role&#45;&gt;Capability -->
<g id="edge18" class="edge"><title>Role&#45;&gt;Capability</title>
<path fill="none" stroke="#01bfe2" d="M872.475,-335.941C906.667,-309.779 967.129,-256.944 990.943,-195 996.684,-180.066 997.666,-173.519 990.943,-159 981.74,-139.128 963.417,-123.002 946.733,-111.553"/>
<ellipse fill="none" stroke="#01bfe2" cx="869.201" cy="-338.407" rx="4.00002" ry="4.00002"/>
<polygon fill="#01bfe2" stroke="#01bfe2" points="946.591,-111.461 940.672,-102.229 942.402,-108.729 938.214,-105.998 938.214,-105.998 938.214,-105.998 942.402,-108.729 935.756,-109.767 946.591,-111.461 946.591,-111.461"/>
</g>
<!-- Role&#45;&gt;Group -->
<g id="edge20" class="edge"><title>Role&#45;&gt;Group</title>
<path fill="none" stroke="#12e406" d="M847.943,-325.974C847.943,-311.155 847.943,-292.94 847.943,-278.175"/>
<polygon fill="#12e406" stroke="#12e406" points="847.943,-326.112 843.443,-336.112 847.943,-331.112 847.943,-336.112 847.943,-336.112 847.943,-336.112 847.943,-331.112 852.443,-336.112 847.943,-326.112 847.943,-326.112"/>
<polygon fill="#12e406" stroke="#12e406" points="847.943,-278.131 852.443,-268.131 847.943,-273.131 847.943,-268.131 847.943,-268.131 847.943,-268.131 847.943,-273.131 843.443,-268.131 847.943,-278.131 847.943,-278.131"/>
</g>
<!-- Role&#45;&gt;User -->
<g id="edge19" class="edge"><title>Role&#45;&gt;User</title>
<path fill="none" stroke="#9a102b" d="M829.701,-330.132C803.448,-296.501 755.295,-234.817 729.093,-201.251"/>
<polygon fill="#9a102b" stroke="#9a102b" points="829.871,-330.35 832.477,-341.002 832.948,-334.291 836.025,-338.233 836.025,-338.233 836.025,-338.233 832.948,-334.291 839.572,-335.463 829.871,-330.35 829.871,-330.35"/>
<polygon fill="#9a102b" stroke="#9a102b" points="729.084,-201.24 726.478,-190.588 726.008,-197.298 722.931,-193.357 722.931,-193.357 722.931,-193.357 726.008,-197.298 719.384,-196.126 729.084,-201.24 729.084,-201.24"/>
</g>
<!-- SnomedctConcept -->
<g id="node22" class="node"><title>SnomedctConcept</title>
<ellipse fill="none" stroke="black" cx="1124.94" cy="-354.5" rx="74.8948" ry="18"/>
<text text-anchor="middle" x="1124.94" y="-350.3" font-family="Times,serif" font-size="14.00">SnomedctConcept</text>
</g>
<!-- SnomedctDescription -->
<g id="node23" class="node"><title>SnomedctDescription</title>
<ellipse fill="none" stroke="black" cx="1124.94" cy="-250" rx="86.9722" ry="18"/>
<text text-anchor="middle" x="1124.94" y="-245.8" font-family="Times,serif" font-size="14.00">SnomedctDescription</text>
</g>
<!-- SnomedctConcept&#45;&gt;SnomedctDescription -->
<g id="edge21" class="edge"><title>SnomedctConcept&#45;&gt;SnomedctDescription</title>
<path fill="none" stroke="#6af5b3" d="M1124.94,-328.017C1124.94,-312.986 1124.94,-293.959 1124.94,-278.577"/>
<ellipse fill="none" stroke="#6af5b3" cx="1124.94" cy="-332.112" rx="4" ry="4"/>
<polygon fill="#6af5b3" stroke="#6af5b3" points="1124.94,-278.131 1129.44,-268.131 1124.94,-273.131 1124.94,-268.131 1124.94,-268.131 1124.94,-268.131 1124.94,-273.131 1120.44,-268.131 1124.94,-278.131 1124.94,-278.131"/>
<text text-anchor="middle" x="1158.77" y="-288.8" font-family="Times,serif" font-size="14.00">descriptions</text>
</g>
<!-- User&#45;&gt;Capability -->
<g id="edge23" class="edge"><title>User&#45;&gt;Capability</title>
<path fill="none" stroke="#1f031c" d="M742.008,-164.701C759.924,-158.055 782.819,-149.343 802.943,-141 826.876,-131.078 853.396,-119.177 874.285,-109.588"/>
<ellipse fill="none" stroke="#1f031c" cx="737.907" cy="-166.215" rx="4.00001" ry="4.00001"/>
<polygon fill="#1f031c" stroke="#1f031c" points="874.375,-109.546 885.34,-109.447 878.915,-107.453 883.456,-105.36 883.456,-105.36 883.456,-105.36 878.915,-107.453 881.572,-101.273 874.375,-109.546 874.375,-109.546"/>
</g>
<!-- User&#45;&gt;Identity -->
<g id="edge24" class="edge"><title>User&#45;&gt;Identity</title>
<path fill="none" stroke="#1762f9" d="M683.226,-161.17C656.428,-146.833 615.799,-125.095 587.255,-109.823"/>
<ellipse fill="none" stroke="#1762f9" cx="686.891" cy="-163.131" rx="4.00002" ry="4.00002"/>
<polygon fill="#1762f9" stroke="#1762f9" points="586.894,-109.63 580.199,-100.944 582.485,-107.271 578.076,-104.912 578.076,-104.912 578.076,-104.912 582.485,-107.271 575.953,-108.88 586.894,-109.63 586.894,-109.63"/>
</g>
<!-- User&#45;&gt;Issue -->
<g id="edge25" class="edge"><title>User&#45;&gt;Issue</title>
<path fill="none" stroke="#f1fedf" d="M707.129,-151.072C706.553,-143.314 706.548,-134.762 707.943,-127 708.469,-124.069 709.226,-121.063 710.112,-118.104"/>
<ellipse fill="none" stroke="#f1fedf" cx="707.537" cy="-155.123" rx="4" ry="4"/>
<polygon fill="#f1fedf" stroke="#f1fedf" points="710.203,-117.842 717.734,-109.871 711.843,-113.118 713.483,-108.395 713.483,-108.395 713.483,-108.395 711.843,-113.118 709.232,-106.919 710.203,-117.842 710.203,-117.842"/>
</g>
<!-- User&#45;&gt;Member -->
<g id="edge22" class="edge"><title>User&#45;&gt;Member</title>
<path fill="none" stroke="#7b56b8" d="M715.589,-150.979C718.172,-142.558 722.16,-133.628 728.287,-127 734.097,-120.716 750.45,-113.049 766.75,-106.495"/>
<ellipse fill="none" stroke="#7b56b8" cx="714.541" cy="-154.938" rx="4.00001" ry="4.00001"/>
<polygon fill="#7b56b8" stroke="#7b56b8" points="766.946,-106.419 777.897,-106.976 771.603,-104.602 776.261,-102.784 776.261,-102.784 776.261,-102.784 771.603,-104.602 774.625,-98.5918 766.946,-106.419 766.946,-106.419"/>
<text text-anchor="middle" x="766.27" y="-129.8" font-family="Times,serif" font-size="14.00">memberships</text>
</g>
<!-- User&#45;&gt;Participant -->
<g id="edge27" class="edge"><title>User&#45;&gt;Participant</title>
<path fill="none" stroke="#e66450" d="M677.221,-169.074C605.647,-154.374 438.161,-119.976 353.247,-102.537"/>
<ellipse fill="none" stroke="#e66450" cx="681.44" cy="-169.941" rx="4.00001" ry="4.00001"/>
<polygon fill="#e66450" stroke="#e66450" points="353.108,-102.508 344.218,-96.0886 348.211,-101.502 343.313,-100.497 343.313,-100.497 343.313,-100.497 348.211,-101.502 342.407,-104.905 353.108,-102.508 353.108,-102.508"/>
</g>
<!-- User&#45;&gt;Result -->
<g id="edge26" class="edge"><title>User&#45;&gt;Result</title>
<path fill="none" stroke="#192e12" d="M693.379,-154.618C683.629,-142.748 671.478,-127.956 661.435,-115.73"/>
<ellipse fill="none" stroke="#192e12" cx="696.068" cy="-157.892" rx="4.00002" ry="4.00002"/>
<polygon fill="#192e12" stroke="#192e12" points="661.222,-115.47 658.352,-104.886 658.048,-111.606 654.874,-107.743 654.874,-107.743 654.874,-107.743 658.048,-111.606 651.397,-110.599 661.222,-115.47 661.222,-115.47"/>
</g>
</g>
</svg>
